<?xml version="1.0" encoding="utf-8"?>
<!DOCTYPE svg PUBLIC "-//W3C//DTD SVG 1.1//EN" "http://www.w3.org/Graphics/SVG/1.1/DTD/svg11.dtd">
<svg version="1.1" id="Layer_1" xmlns="http://www.w3.org/2000/svg" xmlns:xlink="http://www.w3.org/1999/xlink"
    viewBox="0 0 54 58" xml:space="preserve">
    <symbol id="brick1" viewBox="-27 -29 54 58">
        <polygon points="27,-29 -27,-29 -27,29 27,29 	" />
        <polygon fill="#BF6411" points="-15,29 -27,29 -27,16 -15,16 -2,16 -2,29 	" />
        <polygon fill="#BF6411" points="12,29 0,29 0,16 12,16 25,16 25,29 	" />
        <polygon fill="#BF6411" points="-27,14 -15,14 -15,2 -27,2 	" />
        <polygon fill="#BF6411" points="0,14 -13,14 -13,2 0,2 12,2 12,14 	" />
        <polygon fill="#BF6411" points="14,14 27,14 27,2 14,2 	" />
        <polygon fill="#BF6411" points="-15,0 -27,0 -27,-13 -15,-13 -2,-13 -2,0 	" />
        <polygon fill="#BF6411" points="12,0 0,0 0,-13 12,-13 25,-13 25,0 	" />
        <polygon fill="#BF6411" points="-27,-15 -15,-15 -15,-27 -27,-27 	" />
        <polygon fill="#BF6411" points="0,-15 -13,-15 -13,-27 0,-27 12,-27 12,-15 	" />
        <polygon fill="#BF6411" points="14,-15 27,-15 27,-27 14,-27 	" />
        <polygon display="none" fill="none" points="-27,29 27,29 27,-29 -27,-29 	" />
    </symbol>
    <use xlink:href="#brick1" width="54" height="58" x="-27" y="-29" transform="matrix(1 0 0 -1 27 29)"
        overflow="visible" />
</svg>