<?xml version="1.0" encoding="utf-8"?>

<!DOCTYPE svg PUBLIC "-//W3C//DTD SVG 1.1//EN" "http://www.w3.org/Graphics/SVG/1.1/DTD/svg11.dtd">
<svg version="1.1" id="Layer_1" xmlns="http://www.w3.org/2000/svg" xmlns:xlink="http://www.w3.org/1999/xlink"
    viewBox="0 0 257 257" xml:space="preserve">
    <g>
        <rect fill="#C75301" width="257" height="257" />
        <polyline fill="none" stroke="#EAD2AE" stroke-width="5" stroke-miterlimit="10" points="135.2,3 3,3 3,257 	" />
        <polyline fill="none" stroke="#EAD2AE" stroke-width="5" stroke-miterlimit="10" points="142,98 142,3 257,3 	" />
        <polyline fill="none" stroke="#EAD2AE" stroke-width="5" stroke-miterlimit="10" points="257,105 150,105 150,130 137,130 137,150 
		119,150 119,257 	" />
        <polyline fill="none" stroke="#E5CEAE" stroke-width="5" stroke-miterlimit="10" points="4,164 47,164 47,189 80,189 80,219 
		111,219 	" />
        <polyline fill="none" stroke="#000000" stroke-width="5" stroke-miterlimit="10"
            points="254.5,3 254.5,101.5 138,101.5 138,0 	" />
        <polyline fill="none" stroke="#000000" stroke-width="5" stroke-miterlimit="10" points="123,254 243.5,254 243.5,242.5 
		254.5,242.5 254.5,108 	" />
        <polyline fill="none" stroke="#000000" stroke-width="5" stroke-miterlimit="10" points="7,254 105.5,254 105.5,242 113.5,242 
		113.5,214.5 85,214.5 85,184 52,184 52,159.5 0,159.5 	" />
        <polyline fill="none" stroke="#000000" stroke-width="5" stroke-miterlimit="10" points="113.5,214.5 113.5,146 131.7,146 
		131.7,124 145,124 145,101.5 	" />
    </g>
</svg>