<?xml version="1.0" encoding="utf-8"?>

<!DOCTYPE svg PUBLIC "-//W3C//DTD SVG 1.1//EN" "http://www.w3.org/Graphics/SVG/1.1/DTD/svg11.dtd">
<svg version="1.1" id="Layer_1" xmlns="http://www.w3.org/2000/svg" xmlns:xlink="http://www.w3.org/1999/xlink"
    viewBox="0 0 69 69" xml:space="preserve">
    <g>
        <rect fill="#C96119" width="69" height="69" />
        <rect x="3" y="3" fill="#FDAB49" width="66" height="66" />
        <circle fill="#682A00" cx="8.5" cy="9.5" r="2.5" />
        <circle fill="#682A00" cx="63.5" cy="9.5" r="2.5" />
        <circle fill="#682A00" cx="8.5" cy="63.5" r="2.5" />
        <circle fill="#682A00" cx="63.5" cy="63.5" r="2.5" />
        <g>
            <path fill="#682A00"
                d="M27.7,48.3c-0.2-0.6-0.4-1.3-0.5-2c-0.1-0.8-0.2-1.5-0.2-2.1c0-1.1,0.1-2,0.3-2.9c0.2-0.9,0.5-1.7,0.9-2.5
			s0.9-1.5,1.6-2.2c0.6-0.7,1.4-1.4,2.2-2.1c0.9-0.7,1.7-1.4,2.3-2.1s1.2-1.3,1.7-1.9c0.5-0.6,0.8-1.3,1-2s0.3-1.4,0.3-2.3
			c0-0.7-0.1-1.4-0.4-2c-0.3-0.6-0.6-1.1-1.1-1.6c-0.5-0.4-1.1-0.8-1.7-1c-0.7-0.3-1.4-0.4-2.3-0.4c-1.8,0-3.7,0.4-5.6,1.1
			s-3.8,1.9-5.5,3.4V15.2c1.8-1.1,3.7-1.9,5.8-2.4c2.1-0.5,4.3-0.8,6.5-0.8c2.2,0,4.2,0.2,6,0.7s3.5,1.2,4.9,2.2
			c1.4,1,2.5,2.3,3.2,3.9c0.8,1.6,1.2,3.5,1.2,5.7c0,1.4-0.2,2.7-0.5,3.8s-0.8,2.2-1.4,3.3c-0.6,1-1.4,2-2.3,2.9
			c-0.9,0.9-2,1.9-3.2,2.9c-0.8,0.7-1.5,1.3-2.1,1.9c-0.6,0.6-1.1,1.2-1.5,1.7c-0.4,0.6-0.7,1.2-0.9,1.8S36,44.3,36,45.1
			c0,0.6,0.1,1.1,0.2,1.7s0.4,1.1,0.6,1.5H27.7z M32.7,63.5c-1.9,0-3.4-0.6-4.6-1.7c-1.2-1.2-1.8-2.5-1.8-4.1c0-1.6,0.6-3,1.8-4.1
			c1.2-1.1,2.8-1.6,4.6-1.6c1.8,0,3.4,0.5,4.6,1.6c1.2,1.1,1.8,2.4,1.8,4.1c0,1.7-0.6,3.1-1.8,4.1C36.1,63,34.6,63.5,32.7,63.5z" />
        </g>
        <g>
            <path fill="#BE6319"
                d="M26.4,47.5c-0.2-0.6-0.4-1.3-0.5-2c-0.1-0.8-0.2-1.5-0.2-2.1c0-1.1,0.1-2,0.3-2.9c0.2-0.9,0.5-1.7,0.9-2.5
			s0.9-1.5,1.6-2.2c0.6-0.7,1.4-1.4,2.2-2.1c0.9-0.7,1.7-1.4,2.3-2.1s1.2-1.3,1.7-1.9c0.5-0.6,0.8-1.3,1-2s0.3-1.4,0.3-2.3
			c0-0.7-0.1-1.4-0.4-2c-0.3-0.6-0.6-1.1-1.1-1.6c-0.5-0.4-1.1-0.8-1.7-1c-0.7-0.3-1.4-0.4-2.3-0.4c-1.8,0-3.7,0.4-5.6,1.1
			s-3.8,1.9-5.5,3.4V14.4c1.8-1.1,3.7-1.9,5.8-2.4c2.1-0.5,4.3-0.8,6.5-0.8c2.2,0,4.2,0.2,6,0.7s3.5,1.2,4.9,2.2
			c1.4,1,2.5,2.3,3.2,3.9c0.8,1.6,1.2,3.5,1.2,5.7c0,1.4-0.2,2.7-0.5,3.8s-0.8,2.2-1.4,3.3c-0.6,1-1.4,2-2.3,2.9
			c-0.9,0.9-2,1.9-3.2,2.9c-0.8,0.7-1.5,1.3-2.1,1.9c-0.6,0.6-1.1,1.2-1.5,1.7c-0.4,0.6-0.7,1.2-0.9,1.8s-0.3,1.4-0.3,2.2
			c0,0.6,0.1,1.1,0.2,1.7s0.4,1.1,0.6,1.5H26.4z M31.5,62.8c-1.9,0-3.4-0.6-4.6-1.7C25.6,59.9,25,58.6,25,57c0-1.6,0.6-3,1.8-4.1
			c1.2-1.1,2.8-1.6,4.6-1.6c1.8,0,3.4,0.5,4.6,1.6c1.2,1.1,1.8,2.4,1.8,4.1c0,1.7-0.6,3.1-1.8,4.1C34.9,62.2,33.3,62.8,31.5,62.8z" />
        </g>
        <circle fill="#C96119" cx="7.5" cy="8.5" r="2.5" />
        <circle fill="#C96119" cx="62.5" cy="8.5" r="2.5" />
        <circle fill="#C96119" cx="7.5" cy="62.5" r="2.5" />
        <circle fill="#C96119" cx="62.5" cy="62.5" r="2.5" />
    </g>
</svg>