<?xml version="1.0" encoding="utf-8"?>

<!DOCTYPE svg PUBLIC "-//W3C//DTD SVG 1.1//EN" "http://www.w3.org/Graphics/SVG/1.1/DTD/svg11.dtd">
<svg version="1.1" id="Layer_1" xmlns="http://www.w3.org/2000/svg" xmlns:xlink="http://www.w3.org/1999/xlink" x="0px" y="0px"
	  viewBox="0 0 595.8 293.7" enable-background="new 0 0 595.8 293.7" xml:space="preserve">
<path d="M503.8,4.3C368.1,121,341.9,6,337.9,0c-20.3,24-40,22.3-40,22.3S278.2,24,257.9,0c-4,6-30.2,121-165.9,4.3
	C-54.7,94,13.6,210,31.6,219c76.5-74,119.6,13,125.6,20c67.3-44.7,140.8,54.7,140.8,54.7s73.3-99.3,140.7-54.7c6-7,49.1-94,125.6-20
	C582.2,210,650.4,94,503.8,4.3z"/>
</svg>
