<?xml version="1.0" encoding="utf-8"?>

<!DOCTYPE svg PUBLIC "-//W3C//DTD SVG 1.1//EN" "http://www.w3.org/Graphics/SVG/1.1/DTD/svg11.dtd">
<svg version="1.1" id="Layer_1" xmlns="http://www.w3.org/2000/svg" xmlns:xlink="http://www.w3.org/1999/xlink"
	 viewBox="0 0 729.8 294.4"  xml:space="preserve">
<g>
	<path stroke="#000000" stroke-miterlimit="10" d="M526.8,0.6c-2.7,89.5-118.7,95-118.7,95s-7.3-84-8.5-92.3
		c-4.3,12.3-18.5,34.8-18.5,34.8s-12.4-1-16.5-1c-4.1,0-16.3,1-16.3,1s-14.1-22.5-18.4-34.8c-1.3,8.3-8.4,92.3-8.4,92.3
		s-116-5.5-118.6-95C111.6,18.1,13.7,86.6,0.7,142.2c29-5.1,160.3-0.6,189.7,114.4c104.4-55,174.3,37,174.3,37s70.2-92,174.6-37
		c29.4-115,160.9-119.5,189.9-114.4C716.2,86.6,618.2,18.1,526.8,0.6z"/>
</g>
</svg>
