<?xml version="1.0" encoding="utf-8"?>

<!DOCTYPE svg PUBLIC "-//W3C//DTD SVG 1.1//EN" "http://www.w3.org/Graphics/SVG/1.1/DTD/svg11.dtd">
<svg version="1.1" id="Layer_1" xmlns="http://www.w3.org/2000/svg" xmlns:xlink="http://www.w3.org/1999/xlink" 
	 viewBox="0 0 732.4 292.9"  xml:space="preserve">
<g>
	<path stroke="#000000" stroke-miterlimit="10" d="M729.6,0.5H484.4c0,0-9.5,39.1-16.4,49.1c-10,14.4-55.5,17-71.5,16.2
		c-7.2-0.4-12.3-53.6-12.3-53.6l-4.7,29L366.2,41v0v0v0v0l-13.3,0.2l-4.6-29c0,0-5.2,53.2-12.4,53.6c-15.9,0.9-61.5-1.9-71.5-16.3
		C257.5,39.6,248,0.5,248,0.5H2.8c0,0,154.3,57.7,103,168.4C326.3,139.2,361.9,270.3,366,290.2l0,2.6c0,0,0.1-0.4,0.2-1.3
		c0.2,0.9,0.2,1.4,0.2,1.4l0-2.5c4.1-19.9,39.7-151.1,260.2-121.4C575.3,58.2,729.6,0.5,729.6,0.5z"/>
</g>
</svg>
