<?xml version="1.0" encoding="utf-8"?>

<!DOCTYPE svg PUBLIC "-//W3C//DTD SVG 1.1//EN" "http://www.w3.org/Graphics/SVG/1.1/DTD/svg11.dtd">
<svg version="1.1" id="Layer_1" xmlns="http://www.w3.org/2000/svg" xmlns:xlink="http://www.w3.org/1999/xlink" 
	 viewBox="0 0 732.5 296.7"  xml:space="preserve">
<path stroke="#000000" stroke-miterlimit="10" d="M567.5,36.3c0,0-75.5,58.5-156,57c-5.8-30.5-20.5-91-20.5-91l-11.5,55.5l-13.5-1
	l-13.3,1L341.4,2.3c0,0-14.7,60.5-20.4,91c-80.5,1.5-156-57-156-57L2,189.3c0,0,112.5-37.8,133.5-32.3c21.2,5.6,57,74.3,57,74.3
	s67.5-40,88.3-35.5c25.1,5.4,85.3,100,85.3,100s60.4-94.6,85.5-100c20.8-4.5,88.5,35.5,88.5,35.5s35.8-68.7,57-74.3
	c21-5.5,133.5,32.3,133.5,32.3L567.5,36.3z"/>
</svg>
