<?xml version="1.0" encoding="utf-8"?>

<!DOCTYPE svg PUBLIC "-//W3C//DTD SVG 1.1//EN" "http://www.w3.org/Graphics/SVG/1.1/DTD/svg11.dtd">
<svg version="1.1" id="Layer_1" xmlns="http://www.w3.org/2000/svg" xmlns:xlink="http://www.w3.org/1999/xlink" 
	 viewBox="0 0 730.7 295.1"  xml:space="preserve">
<g>
	<path stroke="#000000" stroke-miterlimit="10" d="M582.3,38.6c0,0-1.7,68.3-81,78c-67.5,8.2-81.6-41-81.6-41l-23.3-74l-15.2,46
		L365.4,47l-15.8,0.7l-15.2-46l-23.3,74c0,0-14.1,49.2-81.6,41c-79.3-9.7-81-78-81-78l-148,207c0,0,85.1-86,169.1,3.3
		c9.3-10.3,33.7-42,98-34.7c81.5,9.3,97.9,78.7,97.9,78.7s16.3-69.4,97.8-78.7c64.3-7.3,88.7,24.3,97.9,34.7
		c84-89.3,169.1-3.3,169.1-3.3L582.3,38.6z"/>
</g>
</svg>
