
<svg version="1.1" xmlns="http://www.w3.org/2000/svg" xmlns:xlink="http://www.w3.org/1999/xlink" x="0px" y="0px"  viewBox="0 0 560.3 704.8" enable-background="new 0 0 560.3 704.8" xml:space="preserve">
<g id="wingTopRight" fill="red">
	<path d="M188.9,177.5c61.5,1,174.8-14.9,280,63.4c-18-24.5-29.2-49.8-33-70.2c-13.8-52.2,70-68.4,114.4-81.9
		C287.4,86.8,188.9,177.5,188.9,177.5z"/>
	<path d="M188.9,177.5c90.3,15.8,189.3,87.5,245.5,184.2c-16.7-75.5,23.7-78.5,67.7-83.5c-80.6-69.5-178-94.6-242.2-101.4
		C216.4,172.2,188.9,177.5,188.9,177.5z"/>
</g>
<g id="Layer_3">
	<path d="M168.4,185.3l10,22l-51,20.5c0,0,9.8-44.8-41.7-51.5C158.6,41.5,366.9,10,366.9,10s-221.3,106-94,97.3c32.5-2.2,45-3,45-3
		S209.4,136.5,168.4,185.3z"/>
</g>
<g id="Layer_4">
	<path d="M435.4,380.9C368.3,277,280.1,191.3,188.9,177.5c63.8,16.1,147.8,106.1,165.5,228.1C354.4,405.6,362.7,328.2,435.4,380.9z"
		/>
</g>
<g id="Layer_5">
	<path d="M188.9,177.5c37.1,11.1,69.9,45.1,69.9,104.1c0,36.3-6.6,65.9-45.1,98.3c-29,24.4-43,42.7-43,42.7s30.4-20.7,29.8,17.3
		c31.1-15,50.9,5.9,60.9,10.7c7-16.3,14-131.3,14-131.3s18.7,39-0.7,128c48-59.7,70.8,0,70.8,0S329.7,214.3,188.9,177.5z"/>
	<path d="M243.1,318c0,0-1.6-24-26.5-38.5c7-1.6,19.5,0.5,19.5,0.5s-11.6-14.6-35.5-23.9c7.5-2.1,23.3-1.8,23.3-1.8
		s-14-13.3-38-14.5c6.3-9.8,42.8-19.2,42.8-19.2s-30.3-10.2-59.5,5.3c2.5-3.8,3-7,24-16.5c-22.4,3.5-57,22-80.8,36
		c-23.8,14-20.4,25.3-21.3,31.8c-4.2,5.2-34,28.5-33,4.8C39.6,310,70.6,328,70.6,328c45.3-54.1,49.8,8.1,18.3,10.3
		c1.5,6.8,28,10.5,35,1.8c-5-6.7-13.9-19.3,10-30.3c29.3-13.5,33.4,8.4,32.3,9.3c4-2.5,7.9-10.3,5.9-25.5c9.5,0.4,55,41.2,61.9,52
		c4.5-15.3-3.9-26.6-4.4-32.2C234,312.1,243.1,318,243.1,318z M109.1,283.7c-3.2-1.8-5-2.3-8.4-3.2c4.1-5.1,18.6-12.5,18.6-12.5
		S111.9,279.9,109.1,283.7z"/>
</g>
<g id="Layer_6">
	<path d="M22.4,364.3c0.1-2.1,0.9-26.3,23.1-23.7c42.2,4.9,34.2-27.4,54.2-26.5c-14.2,6.6-17.7,30.3-25.1,35.4
		C62.6,357.8,36.7,350.7,22.4,364.3z"/>
	<path d="M10,397.5c2.3-6.8-9.2-27.1,42.2-36.1c-1,12.4-20.9,15.7-25.9,18.1C24.4,380.3,17.1,383.4,10,397.5z"/>
</g>
<g id="Layer_7">
	<path d="M100.4,461.4c3.6,18,12,30.9,12,30.9s-22.1-19.3-32.1-37.5C86,457.5,93.5,460.5,100.4,461.4z"/>
	<path d="M99.7,434.1c-1.1,6.9-1.1,13.7-0.4,20c-7.2-1.5-16.3-5.5-23.2-9.4c-2.2-7.5-3.7-17.1-2.6-27.5
		C79.6,423.8,89.3,432.5,99.7,434.1z"/>
	<path d="M111.3,406.7c-4.7,6.4-8.1,13-10.1,19.5c-9.7-1-20.2-12.1-26.3-18.8c-0.1-0.2,0.4-0.3-0.6-0.4v0c1-0.1,0.3-0.3,0.4-0.4
		c2-7.6,6-15.4,11.6-23c0-0.1,0.2-0.1,0.2-0.2C91.2,391.3,99.5,402.1,111.3,406.7z"/>
	<path d="M133.8,385.3c-2.5,2.1-5.2,4.3-7.9,6.5s-5.3,4.4-7.5,6.7c-12.4-2.8-20.9-15.8-24.8-23c5.4-5.5,12.1-10.7,20.2-15.6
		c0,0,0,0,0,0C116.4,367.7,122,379.3,133.8,385.3z"/>
	<path d="M154.9,365.8c-3.8,3.9-8,8-12.6,12.1c-12.6-4-17.7-16.2-19.5-22.9c0,0,0,0.2,0,0.2h0c6-3,11.4-6.3,16.1-9.3
		C141.7,352.1,147,361.4,154.9,365.8z"/>
	<path d="M171.7,344.9c-3,4.8-6.7,9.7-11.1,14.8c-6.7-2.4-12-11.9-14.8-18.3c0,0,0,0,0,0c5.2-3.5,9.5-6.9,13.2-10.1
		C161.8,335.7,166.3,341.7,171.7,344.9z"/>
	<path d="M175.1,338.8c-4.2-2.5-8.4-8.2-10.9-12.4c13.8-14.1,13.2-23.1,13.2-23.1C182.3,314.4,181.5,326.1,175.1,338.8z"/>
	<!-- <path fill="#6b0000" d="M75.4,407L75.4,407c0,0.2-0.1,0.3-0.1,0.4c-0.1-0.2-0.3-0.3-0.4-0.4v0c0-0.1,0.1-0.3,0.1-0.4
		C75.1,406.7,75.2,406.8,75.4,407z"/> -->
</g>
<g id="Layer_8">
	<path d="M316.1,558.8c11.8,7.3,63.5,56,5.8,136c11.5-40.5-12.3-65-12.3-65s19.3,12,22.5,24.5c7.5-46.3-27.4-75.4-27.4-75.4
		S313.6,564.3,316.1,558.8z"/>
</g>
<g id="Layer_9">
	<path d="M172,293.5c0,0,44.6,26.3-15.9,77.3s-61.5,78.8-39.4,119.5c9.2,16.9,32.8,32.3,105,24c37.7-4.3,76.7,33.7,19.2,63.5
		c-44.2,22.9-87.3-26.6-24.3-26.9c18.7-0.1,29.9,0.7,35.8,4.4c2.6,1.7,6.3-0.9,7.3-10c1.2-10.5-2.5-13.6-14.2-16.9
		c-7.1-2-92.5-6.6-96.1,40.2c-4.1,53.2,94.3,50,118.8,32.7c18.9-13.4,69.9-57.3,40.7-108.3c-28.5-49.7-108.6-14.7-114.5-50.8
		c-7-43,50.5-90.8,22-128.8S172,293.5,172,293.5z"/>
</g>
</svg>
