<?xml version="1.0" encoding="utf-8"?>

<!DOCTYPE svg PUBLIC "-//W3C//DTD SVG 1.1//EN" "http://www.w3.org/Graphics/SVG/1.1/DTD/svg11.dtd">
<svg version="1.1" id="Layer_1" xmlns="http://www.w3.org/2000/svg" xmlns:xlink="http://www.w3.org/1999/xlink"
    viewBox="0 0 1157.1 1457.3" xml:space="preserve">
    <g>
        <g>
            <path fill-rule="evenodd" clip-rule="evenodd" fill="none" d="M1.5,1391.7c0-463.4,0-926.8,0-1390.3c262.3,0,524.6,0,786.9,0
			c-1.2,1.6-3,1.3-4.7,1.4c-25.4,2.4-50.2,7.1-74.3,15.9c-40.8,14.9-74.2,39.5-99.6,74.8c-21.3,29.6-31.3,63.6-38.7,98.6
			c-2.9,13.8-6.3,27.4-15.6,38.7c-13,15.9-29.5,27.2-47.3,36.9c-5,2.7-10,5.4-15.1,8.1c2.9,3.8,7.6,4.6,9.5,8.4
			c-1.4,2.7-3.9,3.2-6,4.3c-13.2,7.2-27.2,12.8-41.2,18.3c-3.8,1.5-4.9,3-4.4,7.4c0.9,8.4,1.9,16.7,3.3,25.7
			c-19.5,5.8-36.6,15.6-52.4,27.9c-1.6,1.2-4.1,1.7-6.2,1.9c-12.4,0.9-24.3,4.2-36.5,6.1c-30.4,4.6-55.1,18.5-74.1,43
			c-4.5,5.8-7.8,12.9-14.6,16.9c-36.3,21.2-64.5,50.9-88.7,84.8c-2.5,3.4-3.4,6.8-2.8,10.9c0.8,5,1.1,10.2,2.5,15
			c5.2,18.3,14.6,34.8,24.5,50.9c7.7,12.6,16.2,24.6,27.7,34.4c18.2,15.5,38,28.5,58.5,40.5c4.7,2.7,5.7,5.4,3.6,10.5
			c-5.7,13.4-10.9,26.9-16.3,40.4c-5.5,13.9-12.2,27.5-14.4,42.5c-5.9,40.7-7.7,81.4-3.3,122.4c3.3,31.2,9.3,61.7,18.8,91.5
			c7.6,23.8,17.7,46.6,29.6,68.9c-1.1,0.6-1.9,1.3-2.7,1.4c-4.3,0.5-8.7,0.7-13,1.2c-32.6,3.5-65.3,4.4-97.9-0.5
			c-15.4-2.3-30.8-5.3-41.4-18.6c-7.2-9-12-19.4-15.5-30.3c-11.4-34.7-14.2-70.6-13.3-106.9c0.3-11.7,0-23.4,0-35.2
			c-10.9,19.6-21.2,39.3-29.6,59.9c-13.5,33.3-23.5,67.2-21.1,103.7c1.6,24.6,4,49.2,8,73.6c1.4,8.2,1.8,16.6,7,24.1
			c14.2,20.4,31.3,37,55.4,45.1c2.9,1,5.3,2.3,6.8,5.8c9.2,21.6,15.8,43.7,12.9,67.6c-0.2,1.9,0.1,3.9-0.1,5.8
			c-0.4,4.5,0.8,8.6,3.2,12.4c4,6.4,7.9,13,12,19.8c-2.1,1-3.4,1.7-4.7,2.3c-34.4,15-69.1,29.6-102.2,47.4
			c-22.8,12.2-44.5,25.6-59,48.2C11.5,1381.2,8.1,1388,1.5,1391.7z" />
            <path fill-rule="evenodd" clip-rule="evenodd" fill="none" d="M839.4,1.5c106.4,0,212.8,0,319.1,0c0,300.2,0,600.4,0,900.6
			c-0.4-1.1-1.2-2.1-1.3-3.2c-1.1-15.7-2.5-31.3-4.3-46.9c-3.3-28.4-8.8-56.3-19.4-82.9c-6.7-17-12.7-34.9-30.8-44.1
			c-4.7-2.4-9.2-5.4-13.6-8.4c-30.1-20.1-57.7-42.7-75.2-75.2c-4.3-8-10-15.8-10-25.4c0.1-25.5,0.2-50.9-2.8-76.2
			c-2.3-18.9-6.6-37.1-15.9-53.9c-2-3.5-4.4-6.1-8.2-7.6c-13.4-5.1-25.8-12.1-37.7-20.1c-12.8-8.7-25.4-17.7-36.9-28.1
			c-4.6-4.1-9.3-6.7-7.7-14.3c3.2-15,3.5-30.3,4-45.5c1.7-48.4,1.2-96.9-9.9-144.5c-3.3-14.2-6.3-28.7-12.3-42.2
			c-3.2,0.3-5.4,1.9-7.6,3.3c-2.2,1.4-4.2,1.7-5.5-0.8c-5.4-10-12.4-18.8-19.3-27.2c5.3-7.5,9.8-6.3,14.6-0.4
			c3.6,4.5,7.7,8.5,11.5,12.6c53.3-38.3,115-49.1,175.9-62.5c-0.2-1.1-0.2-1.8-0.6-2.4c-0.9-1.5-1.9-2.8-2.8-4.2
			c-13.4-18.5-30.2-33.1-48.7-46.3C955.8,28.6,913.1,13,867.1,5.7C857.9,4.2,848.4,4.4,839.4,1.5z" />
            <path fill-rule="evenodd" clip-rule="evenodd" fill="none" d="M1158.5,976.4c0,161.3,0,322.5,0,483.8c-385.7,0-771.4,0-1157.1,0
			c0-21.9,0-43.7,0-65.6c4-0.8,7.6,1,11.3,1.9c16.9,4.2,33.3,10.8,51.1,9.5c20.8-1.5,41.2-5,61.6-9.3c43.8-9.1,86.9-21.1,130-33
			c4.5-1.2,7.5-0.7,11.3,2c43.1,31.3,89.6,56.9,138.1,78.7c2.4,1.1,4.7,2.7,7.5,2.2c18.4-3.1,37.1-3.5,55.7-4.5
			c43.2-2.5,86.3-0.2,129.4,2.5c27.5,1.7,55,4.5,82.5,6.8c21,1.8,42,3.3,62.8,6.7c3.9,0.6,7.6,0.4,11.4-0.9
			c24-8.4,48.2-16.1,71.9-25c52.5-19.6,103.5-42.4,149.1-75.7c37.2-27.1,68.8-59.5,93.7-98.3c29.6-46,49.2-96.4,64.7-148.6
			c11.4-38.5,19.4-77.7,22.2-117.9C1156.3,986.7,1156,981.2,1158.5,976.4z" />
            <path fill-rule="evenodd" clip-rule="evenodd" fill="#A5A6AA" d="M1158.5,976.4c-2.5,4.8-2.3,10.3-2.6,15.4
			c-2.8,40.2-10.7,79.4-22.2,117.9c-15.5,52.2-35.1,102.6-64.7,148.6c-24.9,38.7-56.5,71.1-93.7,98.3c-45.7,33.3-96.6,56-149.1,75.7
			c-23.8,8.9-48,16.6-71.9,25c-3.8,1.3-7.5,1.6-11.4,0.9c-20.8-3.4-41.8-4.9-62.8-6.7c-27.5-2.4-55-5.1-82.5-6.8
			c-43.1-2.7-86.2-5-129.4-2.5c-18.6,1.1-37.2,1.5-55.7,4.5c-2.8,0.5-5.2-1.1-7.5-2.2c-48.5-21.9-95-47.4-138.1-78.7
			c-3.8-2.7-6.8-3.3-11.3-2c-43.1,11.9-86.2,23.9-130,33c-20.4,4.2-40.9,7.7-61.6,9.3c-17.8,1.3-34.3-5.3-51.1-9.5
			c-3.7-0.9-7.3-2.7-11.3-1.9c0-1,0-1.9,0-2.9c6.7-3.7,10.1-10.5,13.9-16.4c14.5-22.6,36.2-36,59-48.2
			c33.1-17.8,67.8-32.3,102.2-47.4c1.3-0.6,2.6-1.2,4.7-2.3c-4.1-6.8-8-13.4-12-19.8c-2.4-3.8-3.6-7.9-3.2-12.4
			c0.2-1.9-0.2-3.9,0.1-5.8c2.9-23.9-3.7-46-12.9-67.6c-1.5-3.5-3.9-4.8-6.8-5.8c-24.1-8.1-41.2-24.7-55.4-45.1
			c-5.2-7.5-5.6-15.8-7-24.1c-4.1-24.4-6.4-49-8-73.6c-2.4-36.5,7.6-70.5,21.1-103.7c8.4-20.6,18.7-40.3,29.6-59.9
			c0,11.7,0.2,23.4,0,35.2c-0.9,36.3,1.9,72.1,13.3,106.9c3.6,10.9,8.3,21.2,15.5,30.3c10.6,13.3,26,16.3,41.4,18.6
			c32.6,4.9,65.2,4,97.9,0.5c4.3-0.5,8.7-0.7,13-1.2c0.8-0.1,1.6-0.8,2.7-1.4c-11.9-22.3-22-45.1-29.6-68.9
			c-9.5-29.8-15.5-60.3-18.8-91.5c-4.3-41-2.6-81.8,3.3-122.4c2.2-15,8.8-28.6,14.4-42.5c5.4-13.5,10.6-27.1,16.3-40.4
			c2.2-5.1,1.1-7.7-3.6-10.5c-20.5-12-40.3-25-58.5-40.5c-11.5-9.8-20-21.8-27.7-34.4c-9.9-16.1-19.2-32.6-24.5-50.9
			c-1.4-4.8-1.7-10-2.5-15c-0.6-4,0.3-7.4,2.8-10.9c24.3-33.8,52.5-63.5,88.7-84.8c6.8-4,10.1-11.1,14.6-16.9
			c18.9-24.5,43.6-38.4,74.1-43c12.2-1.9,24.1-5.1,36.5-6.1c2.1-0.2,4.6-0.7,6.2-1.9c15.8-12.3,32.9-22.1,52.4-27.9
			c-1.4-9-2.4-17.3-3.3-25.7c-0.5-4.4,0.6-5.9,4.4-7.4c14-5.5,28-11.1,41.2-18.3c2.1-1.1,4.6-1.7,6-4.3c-1.9-3.8-6.6-4.6-9.5-8.4
			c5.1-2.8,10.2-5.4,15.1-8.1c17.7-9.8,34.3-21.1,47.3-36.9c9.3-11.3,12.7-24.9,15.6-38.7c7.3-35.1,17.4-69.1,38.7-98.6
			c25.4-35.3,58.8-59.9,99.6-74.8c24.1-8.8,48.9-13.5,74.3-15.9c1.6-0.2,3.5,0.2,4.7-1.4c17,0,34,0,51,0c9,3,18.5,2.8,27.7,4.2
			c46,7.3,88.7,22.9,126.9,50.1c18.5,13.2,35.4,27.8,48.7,46.3c1,1.4,2,2.8,2.8,4.2c0.3,0.6,0.3,1.3,0.6,2.4
			c-60.9,13.4-122.6,24.2-175.9,62.5c-3.8-4.2-8-8.2-11.5-12.6c-4.8-6-9.4-7.1-14.6,0.4c6.9,8.4,13.9,17.2,19.3,27.2
			c1.3,2.5,3.4,2.2,5.5,0.8c2.2-1.5,4.4-3,7.6-3.3c6.1,13.6,9,28,12.3,42.2c11.1,47.6,11.5,96,9.9,144.5c-0.5,15.2-0.8,30.5-4,45.5
			c-1.6,7.5,3.2,10.1,7.7,14.3c11.5,10.5,24.1,19.5,36.9,28.1c11.9,8,24.3,15,37.7,20.1c3.9,1.5,6.3,4,8.2,7.6
			c9.3,16.8,13.6,35,15.9,53.9c3,25.3,3,50.8,2.8,76.2c-0.1,9.6,5.7,17.4,10,25.4c17.5,32.5,45.2,55.1,75.2,75.2
			c4.4,3,8.9,5.9,13.6,8.4c18.1,9.3,24.1,27.2,30.8,44.1c10.6,26.6,16,54.5,19.4,82.9c1.8,15.6,3.2,31.3,4.3,46.9
			c0.1,1.1,0.8,2.1,1.3,3.2C1158.5,926.8,1158.5,951.6,1158.5,976.4z M16.7,1389.1c9.6,2.5,18.9,5.4,28.4,7.2
			c19.8,3.7,39.2-0.4,58.5-3.8c51.7-9.2,102.1-23.5,152.6-37.7c4.9-1.4,8.5-1,12.7,2.1c42.9,31.8,89.5,57.2,137.9,79.4
			c2.7,1.2,5.2,2,8.4,1.6c59.1-7.2,118.3-5.9,177.4-1.9c51.1,3.5,102.1,7.6,153,13.8c2.5,0.3,4.8-0.2,7.1-1
			c58.6-18.5,116.4-39.3,170.4-68.9c64.9-35.6,117.9-83.7,153-149.6c69.1-130.2,89.4-268.1,63-412.9c-4.5-24.9-12.3-48.9-25.4-71
			c-3.3-5.5-7.3-10-13.1-13.2c-11.9-6.6-23-14.5-34-22.5c-30.6-22.3-55.3-49.5-69.3-85.3c-1.5-3.9-2.2-7.8-2.1-12
			c0.5-22.3,0.7-44.7-1.5-67c-1.8-18.7-5.6-36.9-14.2-53.9c-1.7-3.3-3.7-5.9-7.4-7.4c-24.7-10.1-47-24.5-66.8-42.1
			c-8.7-7.7-17-11.1-28.1-9.1c-4.9,0.9-18.8-8.2-18.9-12.3c-0.4-9.8-0.1-19.7-0.1-30.2c9,10.8,17.9,21.4,27.9,33.5
			c7.9-78.6,9.5-154.9-13.9-230.2c-4.3,2.2-7.4,3.8-11.3,5.8c-6-16.7-17.5-29.3-28.3-42.9c6.7-5.7,12.9-11.1,20.9-18
			c5.9,7.3,11.8,14.4,17.3,21.2c25.7-16.5,51.2-28.7,78.6-36.8c27.3-8.1,55-14.6,83-20.8c-2-4.5-4.8-7.2-7.4-10.1
			c-12.5-13.4-26.4-25.2-41.8-35C903.5,7.7,817.6-1.8,727.8,21.8C671.9,36.5,629.5,70.2,602.4,122c-12.5,23.9-18.6,49.9-23.9,76.1
			c-4.5,22.3-15.1,40.6-33.1,54.9c-11.4,9.1-23.6,16.9-37,24.5c15.8,11.4,32.9,14.1,50.9,12.4c18.1-1.7,34.8-7.5,50.2-19.5
			c0.5,10.1,1,19,1.5,28.6c-11-2.8-21.1-5.1-31-8.1c-4.5-1.4-7-0.5-8.4,3.7c-2,6.2-6.7,7.4-12.6,8.7c-10.9,2.5-19.9-0.3-28.5-6.6
			c-3.5-2.6-7.6-4.3-11.2-6.7c-2.8-1.9-5.1-1.6-8,0.1c-14.8,8.9-30.6,15.8-46.7,22c-4.6,1.8-5.4,4-4.8,8.7c1,8.4,2.8,16.6,5,25.1
			c-11.1,2.5-21.3,6.3-31,11.3c-9.8,5-18.9,11-27.2,18.2c-1.6,1.3-3.3,1.8-5.3,2c-9.8,1.4-19.7,2.8-29.5,4.5
			c-27.9,4.8-54.7,11.6-73.8,35c-5.2,6.4-10.7,12.6-15.4,19.4c-1.4,2-2.6,3.9-4.9,5.2C245,459.8,219.5,486.1,196,515
			c-9.2,11.4-9.7,22.5-4.9,34.2c15.7,38.6,36.7,73.2,73.7,95.8c14.7,9,29,18.5,44.2,27.3c-5.5,13.9-11.1,27.3-16.3,40.8
			c-5.8,14.9-13.4,29.2-17.1,44.8c-4.6,19.6-6.3,39.8-7.2,59.9c-3.3,80.7,11.1,157.5,50.7,228.7c3.5,6.4,1.5,10.2-5.6,10.9
			c-8.7,0.9-17.4,1.9-26.1,2.5c-32.5,2.3-65,3.6-97.3-2.3c-16.8-3.1-32.5-8.3-43-23.2c-5.5-7.8-9.8-16.1-13.2-25
			c-8.5-22.7-12.2-46.4-14.5-70.4c-1.4-14.3-1.4-28.7-2-43.2c-3.4,5.8-6.3,11.6-8.9,17.5c-16,37.1-27.8,75.1-23.9,116.4
			c1.9,20.8,4.7,41.5,6.7,62.2c1.6,16.6,9.1,29,19.8,40.9c11.4,12.7,25.5,20.7,41.2,26.4c3.6,1.3,6.1,3,7.7,6.9
			c9.6,23.1,16.6,46.5,13.6,72c-0.1,1,0.1,2,0,2.9c-0.7,5.1,1.1,9.5,3.8,13.7c5.6,8.7,11.1,17.4,16.9,26.4c-3.5,1.5-6.4,2.7-9.3,3.9
			c-36.5,15.4-72.7,31.2-107.8,49.6C52.5,1347.8,30.6,1363.3,16.7,1389.1z" />
            <path fill-rule="evenodd" clip-rule="evenodd" fill="#252020"
                d="M16.7,1389.1c13.8-25.8,35.8-41.3,60.3-54.1
			c35.1-18.4,71.3-34.2,107.8-49.6c2.9-1.2,5.8-2.4,9.3-3.9c-5.8-9-11.2-17.8-16.9-26.4c-2.7-4.2-4.5-8.6-3.8-13.7
			c0.1-1-0.1-2,0-2.9c3-25.4-4-48.9-13.6-72c-1.6-3.9-4.1-5.6-7.7-6.9c-15.7-5.7-29.8-13.7-41.2-26.4
			c-10.6-11.9-18.2-24.3-19.8-40.9c-1.9-20.8-4.7-41.4-6.7-62.2c-3.9-41.3,7.9-79.3,23.9-116.4c2.6-5.9,5.4-11.8,8.9-17.5
			c0.6,14.5,0.6,28.8,2,43.2c2.3,24,6,47.7,14.5,70.4c3.3,8.9,7.7,17.2,13.2,25c10.5,14.9,26.2,20.2,43,23.2
			c32.3,5.9,64.8,4.6,97.3,2.3c8.7-0.6,17.4-1.6,26.1-2.5c7.1-0.8,9.2-4.6,5.6-10.9c-39.6-71.2-54-148.1-50.7-228.7
			c0.8-20.1,2.5-40.3,7.2-59.9c3.7-15.6,11.3-29.9,17.1-44.8c5.2-13.5,10.8-27,16.3-40.8c-15.2-8.8-29.5-18.3-44.2-27.3
			c-36.9-22.6-57.9-57.2-73.7-95.8c-4.8-11.8-4.3-22.9,4.9-34.2c23.5-28.9,49-55.2,81.8-73.5c2.3-1.3,3.5-3.2,4.9-5.2
			c4.7-6.8,10.2-13,15.4-19.4c19.1-23.4,46-30.3,73.8-35c9.8-1.7,19.7-3.1,29.5-4.5c2-0.3,3.7-0.7,5.3-2
			c8.3-7.2,17.4-13.2,27.2-18.2c9.7-5,20-8.7,31-11.3c-2.3-8.5-4-16.7-5-25.1c-0.6-4.7,0.2-6.9,4.8-8.7c16.1-6.2,31.8-13.2,46.7-22
			c2.8-1.7,5.1-2,8-0.1c3.6,2.5,7.7,4.2,11.2,6.7c8.6,6.3,17.5,9.1,28.5,6.6c5.9-1.4,10.6-2.5,12.6-8.7c1.4-4.2,3.9-5.1,8.4-3.7
			c9.9,3,20.1,5.3,31,8.1c-0.5-9.7-0.9-18.5-1.5-28.6c-15.3,12-32.1,17.8-50.2,19.5c-18,1.7-35.1-1-50.9-12.4
			c13.4-7.6,25.5-15.5,37-24.5c18-14.2,28.6-32.5,33.1-54.9c5.3-26.2,11.4-52.2,23.9-76.1c27-51.8,69.4-85.4,125.4-100.2
			C817.6-1.8,903.5,7.7,983.1,58.1c15.4,9.8,29.3,21.5,41.8,35c2.6,2.8,5.4,5.5,7.4,10.1c-28.1,6.2-55.8,12.7-83,20.8
			c-27.4,8.1-52.9,20.4-78.6,36.8c-5.6-6.8-11.4-13.9-17.3-21.2c-8,6.9-14.2,12.2-20.9,18c10.8,13.7,22.3,26.2,28.3,42.9
			c3.9-2,7.1-3.6,11.3-5.8c23.5,75.4,21.9,151.6,13.9,230.2c-10-12-18.9-22.7-27.9-33.5c0,10.5-0.2,20.4,0.1,30.2
			c0.1,4.1,14,13.2,18.9,12.3c11.2-2,19.5,1.4,28.1,9.1c19.9,17.6,42.1,32,66.8,42.1c3.8,1.5,5.8,4.1,7.4,7.4
			c8.6,16.9,12.4,35.1,14.2,53.9c2.2,22.3,1.9,44.6,1.5,67c-0.1,4.2,0.6,8.1,2.1,12c14,35.8,38.7,63,69.3,85.3
			c11,8,22.1,15.9,34,22.5c5.8,3.2,9.8,7.7,13.1,13.2c13,22,20.8,46.1,25.4,71c26.4,144.8,6.1,282.7-63,412.9
			c-35,66-88.1,114.1-153,149.6c-54.1,29.6-111.8,50.4-170.4,68.9c-2.3,0.7-4.6,1.3-7.1,1c-50.9-6.2-101.9-10.3-153-13.8
			c-59.2-4-118.4-5.3-177.4,1.9c-3.1,0.4-5.7-0.4-8.4-1.6c-48.4-22.2-95-47.6-137.9-79.4c-4.2-3.1-7.8-3.5-12.7-2.1
			c-50.4,14.2-100.9,28.5-152.6,37.7c-19.3,3.4-38.8,7.5-58.5,3.8C35.6,1394.5,26.3,1391.6,16.7,1389.1z M367.4,1171.4
			c-0.5-0.2-0.9-0.5-1.4-0.7c0.2,0.5,0.4,1,0.6,1.5c6,12.3,15.2,22.3,23.9,32.7c1.4,1.7,2.9,2.4,5.1,1.6c3.8-1.4,7.6-2.8,12.1-4.4
			C393.8,1191.6,380.6,1181.5,367.4,1171.4z M715.6,121c2.9,0,5.8,0,8.7-0.1c16.5-0.7,32.9-0.6,49,4.3c16.3,4.9,31.7,11.5,45.3,22.5
			c7.1-6.3,13.7-12.2,20.7-18.4c-1.2-0.9-1.9-1.6-2.7-2c-27.3-14.2-56.2-21-87-17.6C737.6,111,725.7,113.7,715.6,121
			c-0.7,0.1-1.3,0.2-2.5,0.5C714.6,122.3,715.3,122,715.6,121z M734.9,492.1c1.4-21.2,2.8-42.4,4.2-63.7c1.8-7.5,2.3-15.1,2.8-23.4
			c-10.5,3.2-16.7,10.4-21.9,18.7c-15-6.6-21.1-20.1-28.3-32.8c-5,30.9-1.6,61.3,0.5,91.8c-1.9-0.3-2.2-1.6-2.6-2.7
			c-5.7-15.2-11-30.6-15-46.3c-7.5-29.5-10.5-59.6-13.7-89.7c-1.2-11.3-1.5-11.3-13.7-13.7c-11.8,21.1-21.8,43-25.3,67.4
			c-0.7,4.7,0,8.2,2.9,12c8.5,11.1,13.2,24.1,9.5,37.5c-3.1,11,0.7,16.2,9.2,20.7c1.7,0.9,3.4,1.9,5.1,2.8
			c13.5,8.4,27,16.7,40.5,25.1c2.4,1.9,4.9,3.9,7.3,5.8c7.6,8.8,12.3,19,15,30.5c10.6-15.5,10.6-15.5,21.7-20.5c9.9-1,19.7-2,29.6-3
			c1.6-0.2,2.9-0.7,3.3-2.3c1.8-6.5,4.6-13.5,2.8-19.8c-3.9-13.7-9.4-26.9-14.3-40.4c-2.9,1.5-3,4.2-3.7,6.3
			c-4.3,11.8-8.4,23.7-12.7,35.6C737.4,489.6,737.9,492.3,734.9,492.1z M931.6,711.3c-1.6,5.7-4.3,10.9-7.8,15.7
			c-2.5,1-3.4,5-7.5,3.9c0.3-5.1,0.7-10.2,1-15.3c0.7-10.3,0.2-20-7.3-28.5c-12.9-14.6-20.7-32.1-25.8-50.8
			c-1.6-5.8-3.6-11.6-5.3-17.4c-0.7-2.6-1.7-4.4-4.8-4.3c-5.8,0.1-11.5,0-16.9,0c-0.6,1.1-1,1.5-1.1,1.9
			c-2.7,22.6-10.5,43.3-23.7,61.9c-1.8,2.6-1.4,4.8-0.4,7.4c4.2,11.2,9.7,21.7,15,32.3c5.8,11.4,15.3,16,27.2,18.1
			c8.1,1.4,16.1-0.4,25.2-0.3c-5.6,7-13.1,9-19.5,12.7c0.2,2.7,0.8,4.9,2.4,7.1c1.5-1.1,3-2.2,5.9-4.3
			c-8.6,20.1-13.5,39.5-17.8,59.2c-2.5,11.3,1.3,20.6,6,30.5c10.4-8.1,21.5-13.5,33.8-15.8c5.2-1,6.3-3.4,6.2-7.8
			c-0.1-10.8,0-21.5,0-32.3c7.7,9.5,11.1,20.3,13.9,31.2c1.5,5.6,3.9,8,9.6,6.6c15.5,1.5,29.6,6.5,41.7,17.3c2-15.8,2.7-30.3-1.5-45
			c-6-21.2-10.6-42.8-15.8-64.3c2.6-0.6,2.4,3,4.8,2.4c3.3-13.9-6.7-24-9.3-36.2c-3.1,1.1-1,4.1-3.4,4.8
			c-5.8-11.9-9.9-24.2-10.5-37.5c-0.2-4.1-0.3-8.3-2.2-12.1c-8.2-16.5-16.1-33.2-25.9-48.8c-2.4-5.2-5.4-10-10.3-16.4
			c-0.1,13.8-3.9,24.6-9,35c-0.7,1.5-0.2,3.8,0,5.7c2.2,16.2,8.1,31.2,19,43.2C928.3,682.8,934.2,695.3,931.6,711.3z M785.7,157.3
			c-0.1,0.5-0.1,1-0.2,1.6c-1,0-1.9,0-2.9,0c-8.7-2.8-17.8-1.8-26.6-1.1c-49.1,3.4-69.8,33.6-62.6,80.7c3.2-11.5,3.7-22.6,8.5-33
			c2.1,1.5,3.6,2.8,5.2,3.7c1.9,1.1,3.9,1.8,5.9,2.7c5.2,3.9,11.3,5.5,17.5,6.8c33.9,7.2,67.5,2.8,101-3.1c4.2-0.7,5.4-3,5.1-7.1
			c-1.5-18-9.2-33.1-22.1-45.4c-48.8-46.5-146.8-43-178.8,40.6c-11.7,30.6-12.8,62.4-10.4,94.6c0.4,4.8,3.4,5.9,7.1,6.6
			c1.5,1.3,3,2.3,5.7,1.6c-0.1-11.5-1.6-23-0.4-34.6c1.2-11.6,1.2-23.4,4-35.1c9.2,7.9,15.2,7.6,21.5-2c7.3-11.1,10.1-23.5,7.6-36.7
			c-1.1-6.1-3.5-11.5-10-13.8c11.5-20.9,38.5-37,62.9-38.7c20.6-1.5,39.9,3,58.8,10.1C783.7,156.2,784.7,156.7,785.7,157.3z
			 M743.2,822.5c0.1-1.7,0-3.4,0.3-5.1c4.3-28.8,6.7-57.8,5.5-87c-0.4-9.1-1.1-18.2-1.7-27.3c-0.9-0.4-1.9-0.8-2.8-1.3
			c-12.5,18.1-22,38.2-33,57.3c-11.4,19.8-22.2,39.8-33.3,59.8c-10.9,19.6-21.8,39.1-33.1,59.2c7,1,12.5-0.2,18-0.8
			c9.5,0.7,18.9-0.7,28.3-1.6c17.4-1.6,34.6-4.6,51-11.1c3.2-1.3,5.8-2.7,7.1-6.5c17.1-48,33.2-96.3,42.6-146.5
			c1.1-5.7,3.2-11.6,1.5-17.8c-3.5,0.5-6.6,1.2-9.7,1.4c-6,0.4-8.7,2.9-8.7,9.5c0.1,12.1-2,24.2-4.5,36
			C764.8,769.1,755.8,796.4,743.2,822.5z M944.2,1114.6c4.8,1.4,6.7-2.3,7.7-5.5c1.7-5.2,4.9-7.7,10.1-8c0.9,0.1,1.8,0.1,2.6,0.2
			c1.3,0.5,2.3,0.3,3-1c3.3-3.3,4.4-7.3,3.8-11.9c-3.8-32.7-7.8-65.3-11.4-98c-0.6-5.4-3-7.4-7.9-8.1c-12.3-1.8-24.5-2.4-36.7,0.5
			c-9.2,0.9-18.5,2.3-25.7,8.4c-15.6,13.2-27.2,29.6-37.2,47.2c-0.6,1-1.2,2.2-1.2,3.4c-0.2,12.6-2.2,25.1-1.5,37.8
			c5,0.4,6.8-2,7-6.4c0.2-4.8,1.2-9.5,3.8-13.6c0.4,7.5-0.1,14.8,1.3,22c5.6,29,11.4,58,17.1,87.1c0.4,2.1,0.6,4.1,3.4,5
			c8.8,2.8,20.1-4.4,21.4-13.6c1.3-8.7,1.8-17.6,7.6-27.2c0,5.6,0.1,9.2,0,12.8c-0.1,3.6-0.2,7,4.8,7.3c4.9,0.2,10.3,0.7,12.2-5.1
			c1.8-5.7,3.2-11.6,3.3-18.2c-5,0.4-10.1,2.2-13.1-4.4c9,1,16.6,0,18.6-10.3C939.4,1114.8,941.8,1114.7,944.2,1114.6z M769.7,542.1
			c-1.5-4.9-3.1-9.8-4.6-14.7c-0.4-3.3,0.5-6.7-1.8-10.4c-8.2,1.5-16.6,2.8-24.8,4.6c-13,2.9-20.1,11-21.2,24
			c-2.1,25.2-5.7,50.1-13.2,74.3c-0.5,1.6-2.2,3.6-0.1,5.3c3.9,3,6.9,7.3,12.1,9.2c4.5-15.6,6.6-31,9.3-47.1
			c2.5,2.5,2.6,4.9,3.1,7.1c2.6,10.9,3.7,22,4.3,33.1c0.1,2.9,0.3,5.2,3.6,6.1c11.3,3.1,22.8,4.8,32.9-2.5
			c13.4-9.5,27.8-12.3,43.4-8.6c4,0.9,5.7-0.4,7.4-3.5c3-5.4,6.3-10.7,9.5-16c-0.2,20.6-5.5,39.7-15,57.7c-1.3,2.5-3.8,2.8-6.1,3.5
			c-13.2,4.3-26.9,7.2-40.7,7.1c-8.8-0.1-10.8,5-13.3,11.9c18.5,0.4,35.9-1.6,52.6-8.3c9.3-3.7,15.8-9.8,19.8-19.1
			c12.8-29.6,18.5-60.1,14.2-92.3c-0.5-3.6,0.2-7.5-2.2-11.1c-15.1,15.8-29.8,19.6-46,12.4C782.4,560.3,775.3,551.9,769.7,542.1z
			 M1002.8,91.6C990,78.2,974.2,69.1,958,61.1c-64.2-31.9-132.4-39.9-202.7-31.4c-45.5,5.5-83.3,26.4-112.3,62.4
			c-22.9,28.5-36.4,61.6-47.1,96.1c-5.7,18.4-9.3,37.7-21.5,53.7c-10.4,13.5-23.3,23.9-37.1,33.4c-0.6,0.2-1.4,0.3-0.9,1.2
			c0.2,0.3,0.8,0.4,1.3,0.4c25.7,0.8,54.3-9.3,68.6-38.8c10.9-22.5,19.6-45.9,32-67.7c30.3-53.4,93.3-83.1,153.3-72
			c30.6,5.6,59,15.6,80.4,39.7c28.8-14.9,58-27.8,89-36.4c11.4-3.2,23-5.7,34.5-8.5c0.9-0.1,1.8-0.2,2.8-0.3
			c0.6-0.1,1.1-0.1,1.7-0.2c0.9-0.1,1.7-0.2,2.6-0.3c0.3,0,0.7,0,1,0C1003.3,92.2,1003,91.9,1002.8,91.6z M299.5,496.2
			c-0.1-1.1,0.2-1.9,1.4-2.1c15.2-3,30.4-5.3,43.5,6c0.6-0.6,1.1-0.9,1.2-1.3c0.7-2.3,1.5-4.6,2-7c0.6-2.5,1.4-4.5,4.3-5.2
			c21.7-4.9,38.1-18.3,51-35.4c9.6-12.8,20.2-12.7,33-7.7c2.9,1.2,6,2.3,8.6,3.9c7.6,4.9,14,11,18,21.4
			c-11.3-7.4-21.9-11.1-33.3-13.1c-4.3-0.8-7.1,0.1-10.2,3.3c-9.8,10.4-19.8,20.7-32,28.5c-2.3,1.4-5.1,2.9-4.8,8.1
			c2.4-4.7,5.2-2.6,7.8-2.1c28.6,5.6,57.1,11,85.6,16.9c5,1,6.6-0.3,8.5-4.6c5.3-12.3,6.7-25.2,7.9-38.3c0.4-4.4-0.5-6.4-5.1-7.6
			c-7.5-2-15.2-4-22.2-9.7c7.2-0.5,13.5-0.7,19.7-1.5c13.9-1.8,16.5-5,15.5-18.5c-1.8-23.2-8.9-43.7-28.7-58c-4.1-3-8-4.3-12.5-1.1
			c-4.8,1.7-9.6,3.4-14.4,5.1c-23.5,8.3-41.2,23-51.5,46.1c-0.6,1.3,0.1,3.7-2.9,3.8c-2.2-8.9,0.4-17.4,4-26.5
			c-6.5,1.1-11.7,1.9-16.9,2.8c-15.5,2.8-31.6,4.6-45.6,11.6c-16.5,8.3-30.7,20.2-40.7,36.4c-6.2,10.1-13.2,19.6-21.1,31.1
			c0.3-6.2,2.3-9.8,1.4-14.5c-2.1,1.8-3.9,3.2-5.7,4.8c-10.6,9.6-21.2,19.2-31.8,28.8c-8.7,7.8-16.3,16.6-22.4,26.5
			c-3.9,5.7-3,10,3.3,13.3c9.4,4.9,18.9,9.8,29,13.4c2.7,0.9,4.6,2.2,5.8,4.9c5.8,12.5,14.7,22.7,25.2,31.5
			c5.3,4.4,10.4,9.1,15.6,13.6c-0.2,0.4-0.4,0.8-0.6,1.2c-9.3-1.4-18.6-2.8-29-4.3c4.9,7.6,10.4,12.6,16.8,16.5
			c11.3,7,23.9,10.4,36.6,13.8c13.8,3.7,13.8,3.6,18.5-10.3c4-9.6,8.4-19,11.3-29c3-4.5,4.6-9.6,6.3-14.7
			c3.8-9.2,7.4-18.5,11.4-27.5c1.6-3.7,1.3-5.9-1.8-8.7c-7.7-7.1-15.2-14.5-20.5-23.5C329.9,502.1,316.8,495.4,299.5,496.2z
			 M297,928.5c0.6,3.3,1,6.7,1.8,10c9.1,39.1,24.2,75.7,45.4,109.7c1.9,3.1,3.5,5.8,8.4,5.2c38.5-4.9,75.4-15.3,110.6-31.7
			c44.9-20.8,84.7-49,120.2-83.3c11.6-11.3,23.4-22.5,31.5-36.9c31-55.7,62.3-111.3,93.3-167c10.2-18.2,20-36.6,30-54.8
			c2.3-3.8-1.5-4.6-3.2-6.1c-47.5-40-95.2-79.9-142.7-119.9c-2.9-2.4-6-3.8-9.7-4.5C522.8,537.6,463,526,403.4,513.8
			c-7.7-1.6-10.4,0.3-13.1,7.2c-26.8,67.4-54.1,134.6-81,201.9c-5.3,13.3-12.3,26-15,40.1c-7.3,37.9-8.5,76.1-5.2,114.5
			C290.5,894.7,292.3,911.8,297,928.5z M808.8,1122c-8.4-0.7-15.6,3.4-23.3,5.7c-15.3,4.7-30.4,10.1-45.6,15.1
			c-21.4,7.2-42.9,14.2-64.2,21.7c-5.7,2-11.3,4.9-17.8,4.9c0.7-4.3,6.2-2.3,6.7-6.2c47.7-16.9,95.4-33.7,143-50.6
			c-0.4-7.7-3.6-11.1-11.4-10.9c-8.8,0.2-17.4-1.9-25.6-4.8c-4.4-1.5-8.1-1.5-12.5,0c-85.8,28.5-171.3,57.7-256.5,88
			c-117.6,41.9-235,84.1-349.5,134.1c-30.4,13.3-60.7,27-88.7,45c-6,3.9-12.1,7.9-16.8,14.4c15.6,2.7,30.2,0.2,44.7-2.1
			c48.7-7.9,96.2-20.7,143.6-34.2c185-52.6,366.8-114.8,548.3-178c2.3-0.8,4.4-1.6,5.8-4c6.3-9.9,14.2-18.4,23-26.2
			C815.9,1130.4,814.3,1124.7,808.8,1122z M892,1327.7c5.9-0.6,11-3.6,16.3-5.9c41.3-18.1,79.5-40.7,108.5-76.3
			c23.4-28.6,40.4-61.1,55.3-94.6c4.5-10.1,8.4-20.4,12.6-30.7c-22.5,29.1-48,54.8-75,79c13.2-20.2,25.6-40.7,38.4-60.9
			c25.8-40.9,50.3-82.5,67.2-128.1c12.9-34.9,18.8-70.5,13.3-107.8c-7.1-48.1-21.8-93.9-39.3-139c-2.1-5.4-5.2-9.4-10.1-12.7
			c-34.2-22.7-63.5-50.3-84.1-86.3c-0.6-1-1-2.2-3.2-1.8c3.1,22.8,8.6,44.8,24.4,62.7c9.2,10.4,19.1,20.1,29.7,29
			c11.8,9.9,23.3,19,27.4,35.9c11,45.4,14.4,91,7.4,137.2c-0.9,6-1.4,12.4-5.1,19.5c0.3-22.8,0.6-44-2.4-65
			c-5.9-40-23.1-74.8-48.9-105.6c-12.5-15-23.1-31.2-31.8-48.7c-5.2-10.4-11.3-20.6-12.7-32.4c-4.3-35-5.8-70.1-4.4-105.4
			c1.1-26-2.9-51.2-12-75.7c-2.8-7.5-7.7-12.3-14.3-16.5c-20.5-12.9-41.6-25.3-59-42.4c-4.3-4.3-8.6-5.6-14.3-4.7
			c-12.5,1.9-24.9,4.4-36.7,8.9c-9.4,3.5-18.3,8-26.6,15.4c9.1,2.9,16.1,7.2,21.5,13.7c2.3,2.8,4.5,3.5,8,3
			c19.1-2.8,38-3.3,56.9,2.3c32.5,9.5,37.2,14.1,45.5,45.8c11.4,43.6,13.9,88.1,14.3,132.8c0,4.5,1,8.4,3.2,12.4
			c6.1,11.1,11.5,22.4,15.9,34.3c2.5,6.6,3.7,13,1.8,19.9c-3.4,12.4-1.5,24,3.8,35.9c15,33.4,28.1,67.7,39.4,102.5
			c3.1,9.6,8.6,18.8,8.4,29.2c-0.8,33.5-1.3,67-6.8,100.2c-1.3,8-2.6,16.1-6.8,24.9c0.4-63.3-1.8-93.2-7.5-100.6
			c-4.6,40-9.6,79.8-27.2,116.6c1.3,0.5,1.6,0.7,1.7,0.6c10-3,19.9-6.2,29.9-9.1c4-1.1,6.4-2.5,7.4-7.3c2.2-10.6,14.3-18,24.5-15.9
			c8.9,1.8,14.7,7.3,17,16c2.3,8.7-1.1,17.2-8.3,22.5c-6.9,5-16.8,5.6-23.9,0.5c-3.9-2.8-7.1-2.9-11.3-1.2
			c-11.7,4.7-23.5,9.2-35.4,13.5c-3.8,1.4-5.3,2.8-4.4,7.3c2.8,15.1,1.5,29.9-4.9,44.1c-2.4,5.3-5.5,9.2-11.5,9.7
			c-3.7,0.3-4.8,2.3-5.1,5.7c-0.8,7.8-6.2,11.1-13.2,12.5c-3,0.6-6.2,0.7-10.1,1c2.3,19.1-12.7,14-23.1,16.2
			c2.2,11.8-6.4,13.8-14.4,16.3c-3.2,1-6.6,1-9,4.1c-29.3,37.8-66.1,66.8-107,90.9c-49,28.7-101.3,48-158.3,52.1
			c-52.3,3.7-103.4-4-151.8-24.2c-17.6-7.4-33.2-9.3-50.3-1.1c-5.7,2.7-12.3,3.1-18.3,6.9c2.6,1.9,4.5,3.4,6.5,4.7
			c4.1,2.6,8.2,5.2,12.5,7.5c38.7,20.7,80.7,28.3,123.9,31.4c35.9,2.6,71.8,1.2,107.6-2.5c6.9-0.7,13.8-2.8,22.7-1.2
			c-4.2,1.2-6.5,1.9-8.8,2.5c-26.7,6.9-54,9.6-81.3,11.2c-49.5,2.9-99,2.8-148.5-1.1c-37.3-3-73.3-11.3-107.4-27
			c-2-0.9-3.9-2.5-6.1-1.9c-11.5,3.4-22.9,6.9-34.6,10.5c1.7,3.1,4.1,4,6,5.3c31.2,21.2,64.9,37.9,98.3,55.3
			c14,7.3,28.1,8.1,42.9,6.8c33.1-2.7,66.2-6.5,99.4-7.7c54.4-2,108.8-1.1,163.1,2c8.9,0.5,17-0.7,25.2-4.8
			c92-45.6,169.3-109.3,234.1-188.6c4.9-6,10-12,15-17.9c-1.4,9.5-4.6,18.1-8.5,26.4c-14.7,31.6-37.1,58-57.5,85.6
			c-5.5,7.4-12.2,13.8-16.4,22.1c-0.2,0.3-0.4,0.6-0.5,1C891.3,1328.1,891.7,1327.9,892,1327.7z M359.9,1219.5
			c-5-10.5-9.6-20.4-13.4-30.6c-9.5-25.8-15.1-52.6-21.5-79.3c-6.4-26.6-9.8-29.5-37.2-28.1c-2.2,0.1-4.3,0.4-6.5,0.6
			c-25.4,2-50.6,5.2-76.2,3.9c-42.4-2.1-70-23.7-86.1-61.9c-6-14.3-8.3-29.5-10-46.7c-4.2,10.6-6.4,19.7-7.1,29.1
			c-2,26.6,5.7,51.8,11.2,77.4c2.7,12.8,9.6,21.7,19.4,29.5c25.7,20.4,55.1,32.6,86.8,39c33.6,6.8,62.2,21.3,83.9,48.2
			c7.2,8.9,14.3,17.8,21.6,26.5c1.5,1.8,2.6,4.7,6.3,3.2C340.6,1226.6,350.1,1223.2,359.9,1219.5z M705.1,217.4
			c0.1,20.3,3.4,39.5,6.2,58.7c4.7,32.2,11,64.1,21.8,94.9c1.7,4.9,4.5,8,9.2,10.4c32.6,16.7,65.1,33.6,97.7,50.5
			c1.6,0.8,3,2.6,5.1,1.4c2.6-33-2.4-104.4-9.3-137.8c-0.8-3.8-2.3-5.7-6-7.1c-14.8-5.5-29.4-11.6-43.4-18.7
			c-10-5.1-20.4-9.8-28.5-18.1c1.7-1.6,3.2-1,4.5-0.8c27.1,4.4,54.1,8.9,81.1,13.3c4.5,0.7,5.6,3.2,6.3,7.3
			c4.5,28.8,7.6,57.8,7.6,87c0,14.2,9.3,21.1,16.8,30.8c7.6-36-1.4-144.7-14-171.6C809,237.3,745.7,242.3,705.1,217.4z
			 M675.9,1108.2c-12.5-71-24.9-141.2-37.4-212c-5,2.9-5.2,2.8-6.4,5.3c-6.9,14.7-17,27.1-28.5,38.4c-3,3-3.3,6.1-3,9.9
			c4.9,49.5,9.8,99,14.7,148.4c0.9,9.5,2.1,19,3.3,29.3C638.1,1120.9,656.7,1114.7,675.9,1108.2z M739.9,1086.5
			c0.9-2.8,0-4.8-0.6-6.9c-16.7-56-33.3-112-50-168c-1.5-5.1-1.8-11.5-5.1-14.9c-3.9-4.1-10.5-0.1-15.9-0.2
			c-6.9-0.1-13.9-0.7-21,1.5c12.2,69.2,24.3,137.9,36.5,206.8c1.8-0.3,3-0.3,4.1-0.6C705.3,1098.2,722.8,1092.3,739.9,1086.5z
			 M692.5,614.8c8.5-25.7,11.6-51.4,7.7-77.8c-2.2-15.2-10.1-26.5-23.1-34.4c-17.1-10.5-35.3-19.3-50.4-33.7
			c-10.7,14.3-24.3,22-41.8,22.4c-17.4,0.4-30.9-7.6-42.4-20.8c-7.6,16.7-12.4,33-12.4,50.7c18.9,3.7,36.9,7.4,55,10.8
			c6.3,1.2,11.8,3.2,16.8,7.7c13.3,11.7,27.1,22.8,40.6,34.2c2.1,1.7,4,3.3,7,3.4c5.6,0.1,10.9,1.7,16.1,3.9
			c9.9,4.1,15.6,2.2,22-6.5c0.7-0.9,1-2.2,3-1.8c-1.3,10.1-2.5,20.2-4,30.2C685.9,608.1,686.3,612.3,692.5,614.8z M546.8,374.8
			c-2.1,0.1-2.3-1.3-2.7-2.3c-7-15.6-11.9-31.8-13.6-48.9c-0.5-5.1-12.9-14.9-16.8-12.5c-10.6,6.6-22,11-34.3,14.3
			c5.9,40.2,33,65.8,57.9,92.9c6-5.7,5.2-10.1,1-15.3c-5.5-7-10.1-14.6-15.1-22c9.2,4.7,17,10.4,24.9,16c1.9,1.4,3.7,3.5,6.4,1.8
			c5.5-3.3,12-5.9,9.6-14.6c-0.5-1.8-1.1-4.2,0.8-6.6c0.7,0.8,1.5,1.4,1.8,2.2c3.2,8.3,8.7,12,17.9,9.4c1.9-0.6,4.3,0.4,6.5,0.5
			c7,0.4,13.2,4,20.4,6.2c3.3-24.2,7-47.6,20.1-68.6c-15.7-4.2-30.3-8.2-45.4-12.3c-5.3,19.5-4.8,39.3-5.6,59.1
			c-4.8-18.8-6.2-38.3-9.5-57.8c-6.8,2.2-12.9,4.8-19.2,6c-7.1,1.4-8.3,5.2-8.4,11.6C543.1,348,545.7,361.3,546.8,374.8z
			 M592.5,951.6c-7.5,6.8-13.1,13.5-20.2,17.7c-16.7,9.9-21,23.7-20.4,42.7c1.2,41.2-0.2,82.4-0.6,123.6
			c-0.1,5.7,8.2,12.2,14.3,10.3c14.9-4.8,29.6-10.2,44.6-15.5C604.3,1071.1,598.5,1012.3,592.5,951.6z M794.7,1085.4
			c-4.9-13.2-8.9-26.1-15.9-37.3c-6.6-10.6-7.3-19.1,2.2-27.8c3.6-3.3,3.1-6.8,0.9-11c-6-11.9-11.5-24.1-17.2-36.1
			c-12.7-26.5-25.3-52.9-38-79.3c-1.3-2.8-2.2-5.9-6.7-4.9c-8.7,2-17.4,3.5-27,5.5c18.8,63.2,37.5,125.9,56.4,189.5
			c9.7-4.9,18.1-5.7,27.2-1.4C781.7,1084.9,787.6,1086.2,794.7,1085.4z M823.6,1221.2c-2.8,2-5.5,3.9-8.3,5.8
			c-12.3,8.7-25,16.6-39.2,22c-30.6,11.6-62.2,18.9-94.7,22.2c-45.8,4.7-91.6,4.9-136.8-5.5c-2.8-0.7-5.7-1.7-8.6-0.8
			c-13.7,4.4-27.4,9-42.1,13.8c1.8,1.1,2.5,1.7,3.4,2c60.8,24.1,123.4,31.5,187.7,18.6c51.4-10.3,97.4-32.4,136.6-67.7
			C825,1228.7,826.6,1225.9,823.6,1221.2z M543.8,992.5c-16.8,11.8-32.8,22.4-49.8,31.8c-2.2,1.2-2.5,3.2-2.7,5.5
			c-3,32.3-5.3,64.7-9.5,96.9c-1.5,11.7,2.8,16,11.8,21.5c11.5,7,21.4,9.5,32.8,1c3-2.3,6.9-3.7,10.5-4.9c5.2-1.8,6.6-5,6.5-10.4
			c-0.1-37.6,0.2-75.2,0.4-112.8C543.8,1012,543.8,1002.8,543.8,992.5z M733,886c0.3,1.4,0.3,1.9,0.5,2.4
			c19.1,40.1,38.2,80.1,57.3,120.2c1,2.1,2.3,3.7,4.3,4.7c15.7,8.2,25.8,21.7,34.5,36.5c2.4,4,4.7,8,7,12.1
			c0.8-17.1,5.6-32.1,15.8-45.1c2.9-3.8,0.7-6.1-1.3-8.9c-11.2-15.8-22.6-31.6-33.6-47.6c-18.8-27.3-39.9-52.5-63.6-75.6
			c-3-2.9-5.7-4.1-9.6-2.5C740.7,883.6,737,884.7,733,886z M482.6,1031.6c-1.7,0.3-2.7,0.2-3.5,0.6c-15.9,7.7-32,15-48.9,20.5
			c-3.6,1.2-3.8,4.1-4.3,6.9c-4.2,22.1-8.3,44.2-12.7,66.3c-0.7,3.3-0.1,5.5,2.2,7.7c6.2,5.8,12.4,11.6,18.2,17.8
			c2.5,2.6,4.6,2.6,7.6,1.3c7.3-3.2,14.6-6.7,22.3-8.8c7.5-2.1,9.3-6.7,9.9-13.6c1.6-19.8,3.7-39.5,5.6-59.3
			C480.3,1058,481.5,1045,482.6,1031.6z M960.2,971.1c7.1-33.4,12.4-66.1,18.2-98.8c2.5-14.1-3.5-21.4-13.2-28.3
			c-2.7-1.9-5.8-3.6-9-4.8c-26.4-9.4-50.5-3.5-73.3,11.1c-3.6,2.3-2.7,5-1.9,8.2c7.9,28.9,12,58.4,12.7,88.3c0.2,9.3,0,18.5,0,28.8
			C916.5,968.1,937.7,965.1,960.2,971.1z M237.5,1254.1c0.4-0.3,0.8-0.6,1.2-0.9c2,1.7,4,3.4,6.1,5c1.9,1.4,3.6,3.8,6.3,2.7
			c10.5-4,21-8.2,31.6-12.3c-22.3-37.2-58.4-57.8-89.6-51c1.1,12.8,3.3,25.8,3.1,38.7c-0.2,14.4,5.2,25.7,15,35.5
			c1.6,1.7,2.7,4.1,5.9,2.8c8.6-3.6,17.2-7,26-10.5C241,1260.2,239.3,1257.1,237.5,1254.1z M417.9,1057.1
			c-8.9,2.4-16.8,4.6-24.9,6.5c-8,1.8-16.1,3.4-24.3,4.7c-3.6,0.6-4.7,2.9-5.7,5.7c-3,8.7-5.2,17.8-9.2,26
			c-4.9,10-1.2,15.7,5.2,23.7c11.7,14.4,23.8,18.5,40,9.1c0.2-0.1,0.5-0.2,0.7-0.2c3.4-0.3,4.3-2.6,4.8-5.4
			C409,1104.1,413.3,1081,417.9,1057.1z M624.1,440.6c0.2-22.3-17.1-39.9-39.3-40.2c-22.4-0.3-40.6,17.7-40.5,39.9
			c0.1,21.9,18,40,39.9,40.1C605.9,480.5,623.9,462.6,624.1,440.6z M852.4,1197.7c1.9-3.7,1.4-7.4,1.4-11
			c-0.5-42.2-10.9-82-29.3-119.8c-5.9-12-12.8-23.5-22.5-32.9c-2.9-2.8-5.5-6-9.7-6.9c-5.8,6.7-5.8,6.7-2.5,13.9
			c21.4,47.6,38.9,96.7,51.8,147.3C843.2,1194.6,845.3,1197.9,852.4,1197.7z M838.3,523.6c0-13.9-6.2-26.4-16.8-33.8
			c-14.7-10.3-32.7-6.6-42.4,8.5c-11.4,18-5,44.8,13.3,55.6c14,8.3,30.6,4.5,39.7-9C836.4,538.4,838.5,531.3,838.3,523.6z
			 M893.2,575.2c-1-18.8-2.2-36.6-11.2-52.8c-2.3-4.1-5.1-6.2-9.6-6.5c-6.5-0.3-13-0.3-19.5,1.4c-5.6,1.4-8.1,3.6-6.5,10
			c2.1,8.5,4.5,16.8,7.8,24.9c0.8,2,1.7,3.9,3.7,5.2C868.6,564.6,879.8,570.8,893.2,575.2z M785.4,472.4c5.4-0.6,9.8,0.9,14.3,1.3
			c2.6,0.2,5.6,1.1,7.7-1c9.3-9.4,19.5-17.6,31.5-24.9c-10.8-7.6-20.6-14.5-30.7-21.6C795.3,439.1,791.3,455.6,785.4,472.4z
			 M945.5,635.7c3.2-40.8-5.7-96.7-18.7-108.6c6.2,25.9,7.7,51.7,5.3,77.7c-0.2,2,0.1,3.8,1,5.6C937,618.2,940.8,626,945.5,635.7z" />
            <path fill-rule="evenodd" clip-rule="evenodd" fill="#EA1B24" d="M891.6,1327.3c4.1-8.3,10.9-14.7,16.4-22.1
			c20.5-27.7,42.8-54.1,57.5-85.6c3.9-8.3,7-16.9,8.5-26.4c-5,6-10.1,11.9-15,17.9c-64.8,79.3-142.1,143-234.1,188.6
			c-8.2,4.1-16.3,5.3-25.2,4.8c-54.3-3.2-108.7-4-163.1-2c-33.2,1.2-66.3,5-99.4,7.7c-14.9,1.2-28.9,0.4-42.9-6.8
			c-33.4-17.3-67.1-34.1-98.3-55.3c-2-1.3-4.3-2.2-6-5.3c11.7-3.6,23.1-7.1,34.6-10.5c2.3-0.7,4.2,1,6.1,1.9
			c34.1,15.7,70.1,24,107.4,27c49.5,3.9,99,4,148.5,1.1c27.4-1.6,54.6-4.3,81.3-11.2c2.3-0.6,4.6-1.3,8.8-2.5
			c-9-1.6-15.9,0.5-22.7,1.2c-35.8,3.8-71.6,5.2-107.6,2.5c-43.1-3.2-85.2-10.8-123.9-31.4c-4.3-2.3-8.4-4.9-12.5-7.5
			c-2-1.3-3.9-2.8-6.5-4.7c6-3.8,12.7-4.2,18.3-6.9c17-8.2,32.6-6.3,50.3,1.1c48.4,20.2,99.5,27.9,151.8,24.2
			c57-4,109.3-23.3,158.3-52.1c41-24,77.7-53.1,107-90.9c2.4-3.1,5.8-3.1,9-4.1c8-2.5,16.6-4.5,14.4-16.3
			c10.4-2.2,25.4,2.9,23.1-16.2c3.9-0.4,7-0.5,10.1-1c7-1.3,12.3-4.7,13.2-12.5c0.4-3.3,1.4-5.3,5.1-5.7c6-0.5,9.2-4.4,11.5-9.7
			c6.4-14.2,7.7-29,4.9-44.1c-0.8-4.5,0.7-5.9,4.4-7.3c11.9-4.3,23.7-8.7,35.4-13.5c4.2-1.7,7.4-1.5,11.3,1.2
			c7.1,5.1,17,4.4,23.9-0.5c7.3-5.2,10.6-13.8,8.3-22.5c-2.3-8.8-8.1-14.2-17-16c-10.2-2.1-22.3,5.3-24.5,15.9
			c-1,4.8-3.4,6.2-7.4,7.3c-10,2.8-20,6-29.9,9.1c-0.2,0.1-0.4-0.1-1.7-0.6c17.6-36.8,22.6-76.7,27.2-116.6
			c5.7,7.4,7.9,37.2,7.5,100.6c4.1-8.7,5.4-16.8,6.8-24.9c5.6-33.2,6-66.7,6.8-100.2c0.3-10.4-5.2-19.6-8.4-29.2
			c-11.4-34.9-24.4-69.1-39.4-102.5c-5.3-11.8-7.2-23.5-3.8-35.9c1.9-6.9,0.7-13.3-1.8-19.9c-4.4-11.9-9.8-23.2-15.9-34.3
			c-2.2-4-3.2-7.9-3.2-12.4c-0.5-44.7-2.9-89.2-14.3-132.8c-8.3-31.8-13-36.3-45.5-45.8c-19-5.6-37.9-5.1-56.9-2.3
			c-3.6,0.5-5.7-0.2-8-3c-5.4-6.5-12.4-10.8-21.5-13.7c8.3-7.5,17.3-11.9,26.6-15.4c11.9-4.4,24.2-6.9,36.7-8.9
			c5.6-0.9,9.9,0.5,14.3,4.7c17.4,17.2,38.5,29.5,59,42.4c6.6,4.2,11.5,9,14.3,16.5c9.1,24.5,13.1,49.7,12,75.7
			c-1.4,35.3,0.1,70.4,4.4,105.4c1.4,11.7,7.6,22,12.7,32.4c8.7,17.4,19.2,33.7,31.8,48.7c25.8,30.8,43.1,65.7,48.9,105.6
			c3.1,21,2.8,42.1,2.4,65c3.7-7.1,4.2-13.5,5.1-19.5c7-46.2,3.6-91.8-7.4-137.2c-4.1-16.9-15.6-26-27.4-35.9
			c-10.6-8.9-20.5-18.6-29.7-29c-15.8-17.9-21.2-39.8-24.4-62.7c2.1-0.5,2.6,0.8,3.2,1.8c20.6,36,49.9,63.6,84.1,86.3
			c4.9,3.3,8,7.2,10.1,12.7c17.5,45.1,32.2,90.9,39.3,139c5.5,37.4-0.4,72.9-13.3,107.8c-16.9,45.6-41.3,87.2-67.2,128.1
			c-12.8,20.3-25.2,40.7-38.4,60.9c27-24.2,52.5-50,75-79c-4.2,10.2-8.1,20.6-12.6,30.7c-15,33.6-31.9,66-55.3,94.6
			c-29,35.5-67.2,58.2-108.5,76.3c-5.3,2.3-10.4,5.3-16.3,5.9L891.6,1327.3z" />
            <path fill-rule="evenodd" clip-rule="evenodd" fill="none" d="M808.8,1122c5.5,2.7,7.1,8.4,3.1,11.9c-8.8,7.8-16.7,16.3-23,26.2
			c-1.5,2.3-3.6,3.2-5.8,4c-181.5,63.2-363.3,125.5-548.3,178c-47.3,13.5-94.9,26.3-143.6,34.2c-14.5,2.4-29.2,4.9-44.7,2.1
			c4.7-6.5,10.8-10.5,16.8-14.4c28-18,58.3-31.7,88.7-45c114.5-49.9,231.9-92.2,349.5-134.1c85.2-30.3,170.7-59.6,256.5-88
			c4.4-1.5,8.2-1.5,12.5,0c8.3,2.9,16.9,5,25.6,4.8c7.8-0.2,11,3.3,11.4,10.9c-47.6,16.8-95.3,33.7-143,50.6
			c-6.3,2.3-12.7,4.6-19,6.8c-1,0.3-2,0.7-3,1c-8.9,2.5-17.6,5.5-26.1,9.2c-1.9,0.6-3.9,1.2-5.8,1.9c-25.6,8.9-51.2,17.7-76.8,26.7
			c-58.9,20.7-117.8,41.4-176.8,62.1c4.8-0.4,9.6-1.3,14-2.8c60.7-20.1,121.3-40.3,181.9-60.5c28.5-9.5,56.8-19.2,85.2-28.9
			c0.5-0.1,1-0.2,1.5-0.3c24.8-8.2,49.6-16.2,74.3-24.5C745.7,1143.5,777.2,1132.7,808.8,1122z M262.3,1304.3c0.9-0.2,1.9-0.4,3-0.6
			C263.9,1302.8,263.2,1303.7,262.3,1304.3c-0.8,0.3-1.6,0.5-2.5,0.7c0.1,0.2,0.2,0.3,0.2,0.5
			C260.8,1305.1,261.6,1304.7,262.3,1304.3z M319,1284c0.2,0.6,0.4,1.2,0.6,1.8c8.2-2.8,16.3-5.5,24.5-8.3c-0.3-0.7-0.5-1.4-0.8-2.2
			C335.2,1278.3,327.1,1281.1,319,1284z M284.2,1297.3c-4.9-0.4-8,1.3-12.5,3.9C276.9,1300.6,280.2,1299.5,284.2,1297.3z
			 M317.9,1285.7c-3.3-1.2-5.4-0.1-7.8,2.1C313.5,1289,315.6,1287.6,317.9,1285.7z M306.1,1289c0.8,0.6,1.6,1.2,2.4,0.1
			c0.1-0.1,0.1-0.4,0-0.5C307.6,1287.6,306.9,1288.5,306.1,1289z M297.5,1291.9c0.7,0.7,1.4,1.1,2.2,0.2c0.1-0.1,0.1-0.3,0-0.4
			C299,1290.7,298.3,1291.4,297.5,1291.9z M295.6,1293.4c-0.8-0.9-1.5-0.8-2.3,0C294.1,1294.2,294.8,1294.1,295.6,1293.4z
			 M291.1,1295c-0.3-0.3-0.5-0.7-0.7-0.7c-0.4,0-0.8,0.2-1.2,0.4c0.2,0.3,0.4,0.7,0.7,0.7C290.2,1295.4,290.6,1295.1,291.1,1295z
			 M270.2,1302.1c-0.4,0-0.8-0.1-1.2-0.1C269.4,1302.1,269.8,1302.1,270.2,1302.1z M301.8,1290.4c0.7,0.7,1.5,1.2,2.3,0.3
			c0.1-0.1,0.1-0.4,0-0.5C303.3,1289.1,302.6,1289.9,301.8,1290.4z" />
            <path fill-rule="evenodd" clip-rule="evenodd" fill="#BB9C6A" d="M297,928.5c-4.7-16.7-6.5-33.8-7.9-50.9
			c-3.3-38.4-2.1-76.6,5.2-114.5c2.7-14.1,9.7-26.9,15-40.1c26.9-67.3,54.2-134.5,81-201.9c2.7-6.9,5.4-8.8,13.1-7.2
			c59.6,12.2,119.4,23.8,179.1,35.5c3.7,0.7,6.8,2.1,9.7,4.5c47.6,40,95.2,79.9,142.7,119.9c1.7,1.4,5.5,2.3,3.2,6.1
			c-11.3,0.7-21,3.4-25.3,16c-2.3,6.7-7.1,12.6-10.6,19c-29.3,53.1-59,106-87.6,159.5c-16.7,31.2-38.5,57.7-64.9,81
			c-23,20.3-49.4,34.6-77.5,46.2c-36.4,15.1-73.8,27.4-111.8,37.9c-4.7,1.3-6.9,0.4-9.5-3.5c-18.4-28.8-32.9-59.2-39.7-92.9
			C309.5,934.4,304.1,930.9,297,928.5z M704.3,685c4.5-1.7,10.1-0.3,14.4-5.1c-5.8-4.8-11.4-9.4-16.9-14
			c-34.7-29.3-69.2-58.8-104.2-87.8c-7.4-6.1-13.5-13.8-24.5-15.8c-49.8-9.1-99.4-19.2-149.2-28.5c-5.9-1.1-11.7-4.7-18.2-2.5
			c0.4,5,4.5,7.8,5.3,12.1c-0.6,1.3-1.2,2.6-1.8,4c-23.8,59.2-47.7,118.3-71.4,177.6c-6,15.1-14,29.6-17.3,45.5
			c-7,34-7.1,68.4-4.5,102.9c3.5,46.5,14.5,91,35.8,132.6c12.2,23.8,4.4,20,30.4,14.4c66.7-14.3,123.3-48.1,173.8-93.1
			c19.4-17.4,35.5-36.9,47.1-60.3c8.5-17.1,18.6-33.5,27.9-50.3C655.5,772.8,679.9,728.9,704.3,685z" />
            <path fill-rule="evenodd" clip-rule="evenodd" fill="#FBD598" d="M343.5,591.8c-2.9,10-7.3,19.4-11.3,29c-9.8-1.5-19-5.1-28-9.1
			c4.5-1.7,9.2-1.7,13.3-4.5c-5.4-5.5-10.1-11-15.6-15.7c-14-11.9-28.1-23.9-39.4-38.5c-5.9-7.7-13.3-11.4-22.1-13.6
			c-8.4-2.1-16.8-4.6-24.8-8.2c-1.9-0.8-4.5-1-4.5-3.9c6.1-10,13.7-18.7,22.4-26.5c10.6-9.6,21.2-19.2,31.8-28.8
			c1.7-1.6,3.6-3,5.7-4.8c0.9,4.7-1.1,8.3-1.4,14.5c7.9-11.5,14.9-21.1,21.1-31.1c10-16.2,24.2-28.1,40.7-36.4
			c14-7.1,30.1-8.9,45.6-11.6c5.2-0.9,10.4-1.7,16.9-2.8c-3.5,9.1-6.1,17.6-4,26.5c3-0.1,2.3-2.5,2.9-3.8
			c10.3-23.1,28-37.8,51.5-46.1c4.8-1.7,9.6-3.4,14.4-5.1c2.3,0.2,4.1,1.4,5.5,3.2c11.9,15.3,15.5,33,14.8,51.8
			c-0.2,4.3-3.1,5.1-7.1,5.2c-19,0.8-37.7-0.8-56-6.3c-7.2-2.2-15-2.2-23.5,1.6c8.8,7.6,3.8,13.1-0.7,19.3
			c-6.1,8.4-15.1,13-23.5,17.9c-11.6,6.8-23.1,13.2-37.8,13c-16.6-0.1-30.6,8.8-45.5,20c6.3-0.3,10.5,0.7,14.7-0.8
			c17.3-0.9,30.4,5.8,39.4,21c5.3,9,12.8,16.5,20.5,23.5c3.1,2.8,3.4,5.1,1.8,8.7c-4,9.1-7.6,18.3-11.4,27.5
			c-10.2-1.1-18.9-7.5-29-8.9c-0.5-0.7-1.5-1.5-2-0.7c-0.6,1.1,0.9,0.9,1.5,1.2C326.3,578.2,334.1,585.8,343.5,591.8z M343.5,421.6
			c-5.2,4.7-6.8,10.5-7.5,15.9c-1.4,11.2-7.7,19-15.6,26.2c-1.8,1.6-3.5,3.3-6.3,6c7.4-1.2,12.6-3.8,17.7-6.4
			c8-4.1,12.5-10.3,11.4-19.9C342.4,436.5,342,429.4,343.5,421.6z" />
            <path fill-rule="evenodd" clip-rule="evenodd" fill="#EA1B24" d="M359.9,1219.5c-9.8,3.7-19.3,7.1-28.7,10.9
			c-3.8,1.5-4.8-1.4-6.3-3.2c-7.3-8.8-14.4-17.7-21.6-26.5c-21.7-26.9-50.3-41.4-83.9-48.2c-31.7-6.4-61.2-18.6-86.8-39
			c-9.8-7.8-16.7-16.7-19.4-29.5c-5.5-25.6-13.2-50.7-11.2-77.4c0.7-9.5,2.9-18.5,7.1-29.1c1.8,17.2,4,32.4,10,46.7
			c16.1,38.2,43.7,59.8,86.1,61.9c25.6,1.2,50.8-1.9,76.2-3.9c2.2-0.2,4.3-0.5,6.5-0.6c27.4-1.4,30.9,1.5,37.2,28.1
			c6.4,26.6,11.9,53.5,21.5,79.3C350.3,1199.2,354.9,1209.1,359.9,1219.5z" />
            <path fill-rule="evenodd" clip-rule="evenodd" fill="#BA9C6B" d="M705.1,217.4c40.7,24.9,104,19.9,155,0.1
			c12.6,26.9,21.6,135.6,14,171.6c-7.5-9.7-16.7-16.6-16.8-30.8c0-29.1-3.1-58.1-7.6-87c-0.6-4.1-1.8-6.6-6.3-7.3
			c-27.1-4.3-54.1-8.9-81.1-13.3c-1.3-0.2-2.8-0.9-4.5,0.8c8.1,8.3,18.5,13,28.5,18.1c14.1,7.1,28.6,13.2,43.4,18.7
			c3.6,1.4,5.2,3.3,6,7.1c6.9,33.4,11.9,104.8,9.3,137.8c-2.2,1.2-3.6-0.6-5.1-1.4c-32.6-16.8-65-33.8-97.7-50.5
			c-4.7-2.4-7.5-5.5-9.2-10.4c-10.9-30.8-17.1-62.7-21.8-94.9C708.4,256.9,705.1,237.8,705.1,217.4z M825.4,413.3
			c0.6,0.5,1.2,1,1.9,1.5c0.9-1.2,0.4-2-0.6-2.7c-11.7-9.5-23.3-18.9-33.1-30.5c-2.1-2.5-3.4-5-3.9-8.3
			c-4.2-26.8-8.7-53.6-12.9-80.4c-0.6-4.1-2.2-6.7-6.1-9c-14.9-8.7-28-20-34.4-36.3c-4.1-10.3-12-11.4-21.3-14
			c1.7,12.7,3.1,24.4,4.8,36.2c4.6,31.7,10.4,63.1,20.6,93.6c1.2,3.6,2,7.4,6.1,9.4C772.8,386.3,799.1,399.8,825.4,413.3z
			 M775,241.2c7,4.1,14.1,8,21.9,9.2c16,2.5,32.1,4.4,48.3,6.1c6.1,0.6,9.2,2.6,10.3,9.2c5.1,29.7,8.2,59.5,8.2,89.6
			c0,5.3,1.4,9.3,6.8,13.1c-2-47.8,4.8-95.3-14-140.8C829.6,235.6,802.4,238.6,775,241.2z M837.5,401.8c0.1-34.1-2.2-68.2-7.4-102
			c-0.6-4.1-3.1-5.5-6.5-6.7c-17.1-6.3-34.1-12.6-49.6-22.5c-1.2-0.8-2.6-1.3-4.2-0.1c7.9,8.5,16.6,16.6,27,20.6
			c18.4,7.1,22.9,20.8,25.3,38.4C825.6,353.7,828,378.5,837.5,401.8z" />
            <path fill-rule="evenodd" clip-rule="evenodd" fill="#BC9D6B" d="M537.2,275.3c13.8-9.5,26.8-19.9,37.1-33.4
			c12.2-16,15.8-35.2,21.5-53.7c10.7-34.5,24.2-67.6,47.1-96.1c29-36,66.8-56.9,112.3-62.4c70.3-8.5,138.5-0.5,202.7,31.4
			c16.3,8.1,32.1,17.2,44.8,30.5c-0.2,0.2-0.3,0.5-0.4,0.9c-0.9,0.1-1.7,0.2-2.6,0.3c-0.3-0.5-0.6-1-1-1.5c-0.3,0.5-0.5,1.1-0.8,1.6
			c-0.9,0.1-1.8,0.2-2.8,0.3c-0.5-0.8-1-2.2-1.5-2.2c-12.4,1.1-25.1,0.9-37.1,5.1c-2.6,0.9-5.3,3-8.1,0.2c10-3.6,20-7.1,30.8-11
			c-2.8-1.9-4.5-3.3-6.4-4.3c-5.7-3.2-11.4-6.5-17.3-9.4c-56.5-27.2-115.9-39-178.5-34c-41.4,3.3-79.2,16-111.5,42.8
			c-8.2,6.8-15.9,14.2-21.1,23.8c2.3-1.1,4.3-2.4,6.2-4c34.8-28.2,74.8-42.1,119.4-43.3c32.6-0.8,64.2,5.2,94.9,15.7
			c22,7.5,43.6,16.2,63.1,29.3c-5.2,4.4-12.3,3.9-18.1,6.8c-3.4,1.7-6.5,1.3-10-1C862.8,83.8,821,75,777.3,74.7
			c-11.2-0.1-22.6,0.8-33.9,2.4c-25.6,3.6-49.5,11.6-70.2,27.3c-26.4,20-43.1,47.4-56.8,76.9c-9.2,19.7-15.6,40.8-27.2,59.3
			C577.2,259.7,560,271.9,537.2,275.3z" />
            <path fill-rule="evenodd" clip-rule="evenodd" fill="#BB9C6A" d="M769.7,542.1c5.7,9.8,12.7,18.2,23.4,22.9
			c16.2,7.2,30.9,3.4,46-12.4c2.3,3.5,1.7,7.4,2.2,11.1c4.3,32.1-1.4,62.7-14.2,92.3c-4,9.3-10.5,15.4-19.8,19.1
			c-16.7,6.6-34,8.7-52.6,8.3c2.6-7,4.5-12,13.3-11.9c13.8,0.1,27.5-2.8,40.7-7.1c2.2-0.7,4.8-1.1,6.1-3.5c9.5-18,14.7-37,15-57.7
			c-3.2,5.3-6.5,10.6-9.5,16c-1.7,3.1-3.5,4.5-7.4,3.5c-15.7-3.7-30.1-0.9-43.4,8.6c-10.1,7.2-21.6,5.5-32.9,2.5
			c-3.4-0.9-3.5-3.3-3.6-6.1c-0.5-11.2-1.6-22.3-4.3-33.1c-0.5-2.2-0.6-4.6-3.1-7.1c-2.7,16-4.9,31.5-9.3,47.1
			c-5.2-1.9-8.2-6.2-12.1-9.2c-2.2-1.7-0.5-3.7,0.1-5.3c7.5-24.2,11-49.1,13.2-74.3c1.1-13,8.2-21.1,21.2-24
			c8.2-1.8,16.6-3.1,24.8-4.6c2.3,3.7,1.4,7.2,1.8,10.4c-7.2,0.1-13.8,2.5-20.4,4.8c-14.5,5.1-20.1,17.4-15.3,33.1
			C737.3,547.9,751.7,541.8,769.7,542.1z" />
            <path fill-rule="evenodd" clip-rule="evenodd" fill="#EA1B24" d="M675.9,1108.2c-19.2,6.5-37.7,12.7-57.3,19.3
			c-1.2-10.4-2.4-19.8-3.3-29.3c-4.9-49.5-9.8-99-14.7-148.4c-0.4-3.8-0.1-6.9,3-9.9c11.5-11.3,21.5-23.7,28.5-38.4
			c1.2-2.6,1.4-2.5,6.4-5.3C650.9,967,663.3,1037.2,675.9,1108.2z" />
            <path fill-rule="evenodd" clip-rule="evenodd" fill="#BC9D6B" d="M940,823.1c-5.7,1.3-8.1-1-9.6-6.6c-2.8-10.9-6.3-21.7-13.9-31.2
			c0,10.8-0.1,21.5,0,32.3c0,4.4-1.1,6.8-6.2,7.8c-12.3,2.3-23.4,7.8-33.8,15.8c-4.8-9.9-8.5-19.2-6-30.5
			c4.3-19.6,9.1-39.1,17.8-59.2c-2.9,2.1-4.3,3.2-5.9,4.3c-1.6-2.2-2.3-4.4-2.4-7.1c6.4-3.7,13.9-5.7,19.5-12.7
			c-9.1,0-17.1,1.8-25.2,0.3c-11.9-2.1-21.4-6.7-27.2-18.1c-5.4-10.6-10.9-21.1-15-32.3c-1-2.7-1.4-4.9,0.4-7.4
			c13.2-18.6,21-39.3,23.7-61.9c0.1-0.4,0.5-0.8,1.1-1.9c5.4,0,11.1,0.1,16.9,0c3.1-0.1,4.1,1.7,4.8,4.3c1.6,5.8,3.7,11.6,5.3,17.4
			c5.1,18.7,13,36.2,25.8,50.8c7.5,8.5,8,18.2,7.3,28.5c-0.3,5.1-0.7,10.1-1,15.3c4.1,1.1,4.9-2.9,7.5-3.9
			c-0.3,8.8-3.9,17.1-1.5,26.4c5.7,21.4,13.5,42.4,13.1,65C935.4,822,938.4,821.6,940,823.1z M899.1,724.2c4.6-4,8-8.4,9.4-14.2
			c1.1-4.7,2.4-9.3-1.5-13.7c-8.8-9.8-15.3-21.1-20.9-33c-1-2.2-1.6-4.8-4.3-6.4c0.1,18.1-4.4,36.7,11.2,50.8c0.8,0.8,1,2.2,1.6,3.2
			C896.9,714.9,895.7,720,899.1,724.2z" />
            <path fill-rule="evenodd" clip-rule="evenodd" fill="#FBD597" d="M915.4,982.8c12.2-3,24.5-2.3,36.7-0.5c5,0.7,7.3,2.7,7.9,8.1
			c3.6,32.7,7.6,65.3,11.4,98c0.5,4.6-0.5,8.6-3.8,11.9c-1,0.3-2,0.7-3,1c-0.9-0.1-1.8-0.1-2.6-0.2c-2.5-2.5-5.3-5.7-8.5-1.4
			c-3.5,4.7-6.3,9.9-9.3,14.9c-2.4,0.1-4.8,0.3-7.1,0.4c0.1-1.6-0.9-3.7-2.2-2.3c-7.5,8.1-16.4,9.4-26.5,6.6c-1-0.3-2.3,0.5-3.5,0.7
			c-13.9,3.1-19.4-1.4-20.4-15.4c-0.9-13.7-2.9-27.4-3.9-41.1c-0.6-8.8-4-16.9-4.7-25.6c-1.2-15.8,17-44,31.9-50.1
			C910.6,986.7,914.1,986.2,915.4,982.8z M933.9,1046.7c-0.4,0-0.8-0.1-1.1-0.1c-1.5,16.6-3,33.1-4.5,49.7
			c-0.4,4.1,2.8,6.2,5.6,10.7C933.9,1085.6,933.9,1066.1,933.9,1046.7z M909.2,1057.4c-1.8,12.8-3.6,25.7-5.5,38.5
			c-0.6,4.3,2.1,6.9,5.3,10.8C910,1089.4,912.1,1073.4,909.2,1057.4z" />
            <path fill-rule="evenodd" clip-rule="evenodd" fill="#EA1B24" d="M739.9,1086.5c-17.2,5.8-34.6,11.7-52.1,17.5
			c-1.1,0.4-2.3,0.4-4.1,0.6c-12.2-68.9-24.3-137.6-36.5-206.8c7.1-2.2,14.2-1.6,21-1.5c5.4,0.1,12-3.9,15.9,0.2
			c3.3,3.5,3.6,9.8,5.1,14.9c16.7,56,33.3,112,50,168C739.9,1081.7,740.9,1083.7,739.9,1086.5z" />
            <path fill-rule="evenodd" clip-rule="evenodd" fill="#9B834E" d="M537.2,275.3c22.7-3.4,40-15.6,52-34.7
			c11.6-18.5,18.1-39.6,27.2-59.3c13.7-29.5,30.4-56.9,56.8-76.9c20.7-15.7,44.6-23.7,70.2-27.3c11.3-1.6,22.7-2.5,33.9-2.4
			c43.7,0.3,85.5,9.1,122.9,33.1c3.5,2.3,6.6,2.7,10,1c5.8-2.9,12.9-2.4,18.1-6.8c4.8-1.3,9.7-2.7,14.5-4c0.7,0.9,1.2,0.7,1.5-0.3
			c1.5-0.4,2.9-0.9,4.4-1.3c2.7,2.8,5.5,0.7,8.1-0.2c12.1-4.2,24.7-3.9,37.1-5.1c0.4,0,1,1.4,1.5,2.2c-11.5,2.8-23.1,5.4-34.5,8.5
			c-31,8.6-60.2,21.5-89,36.4c-21.4-24.1-49.8-34.1-80.4-39.7c-60-11-122.9,18.6-153.3,72c-12.4,21.8-21,45.3-32,67.7
			c-14.3,29.5-42.9,39.6-68.6,38.8c-0.4,0-1.1-0.1-1.3-0.4C535.8,275.7,536.6,275.5,537.2,275.3z" />
            <path fill-rule="evenodd" clip-rule="evenodd" fill="#BC9D6B" d="M692.5,614.8c-6.2-2.5-6.6-6.6-5.8-11.7c1.6-10,2.7-20.2,4-30.2
			c-2-0.4-2.3,0.9-3,1.8c-6.4,8.7-12.1,10.6-22,6.5c-5.2-2.2-10.5-3.8-16.1-3.9c-3,0-4.9-1.6-7-3.4c-13.6-11.4-27.4-22.5-40.6-34.2
			c-5-4.5-10.5-6.5-16.8-7.7c-18.1-3.4-36.1-7.1-55-10.8c0-17.8,4.8-34,12.4-50.7c11.5,13.2,25,21.2,42.4,20.8
			c17.4-0.4,31.1-8.2,41.8-22.4c15.1,14.4,33.3,23.2,50.4,33.7c12.9,7.9,20.8,19.2,23.1,34.4C704.1,563.4,701,589,692.5,614.8z
			 M690.3,559.6c5.3-29,1.5-37.6-22.5-51.6c-13.1-7.6-27.1-13.7-39.5-22.9c9.2,24.5,22.3,46.2,45,60.2
			C679.6,549.1,685.1,553.2,690.3,559.6z" />
            <path fill-rule="evenodd" clip-rule="evenodd" fill="#9B824E"
                d="M297,928.5c7.1,2.4,12.5,6,14.2,14.3
			c6.8,33.7,21.3,64.1,39.7,92.9c2.5,3.9,4.8,4.8,9.5,3.5c38-10.5,75.4-22.8,111.8-37.9c28.1-11.6,54.5-25.9,77.5-46.2
			c26.4-23.3,48.2-49.8,64.9-81c28.6-53.5,58.3-106.4,87.6-159.5c3.5-6.4,8.3-12.2,10.6-19c4.3-12.6,14-15.3,25.3-16
			c-10,18.3-19.9,36.6-30,54.8c-31.1,55.7-62.3,111.3-93.3,167c-8.1,14.5-19.9,25.7-31.5,36.9c-35.5,34.4-75.3,62.5-120.2,83.3
			c-35.2,16.3-72.1,26.8-110.6,31.7c-4.9,0.6-6.5-2.1-8.4-5.2c-21.2-34-36.3-70.6-45.4-109.7C298,935.2,297.6,931.8,297,928.5z" />
            <path fill-rule="evenodd" clip-rule="evenodd" fill="#E91B24"
                d="M546.8,374.8c-1.1-13.5-3.8-26.9-3.6-40.5
			c0.1-6.5,1.3-10.3,8.4-11.6c6.4-1.2,12.5-3.8,19.2-6c3.4,19.5,4.7,39,9.5,57.8c0.8-19.8,0.4-39.7,5.6-59.1
			c15,4.1,29.7,8,45.4,12.3c-13.1,21-16.8,44.4-20.1,68.6c-7.2-2.3-13.4-5.8-20.4-6.2c-2.2-0.1-4.5-1.1-6.5-0.5
			c-9.1,2.6-14.6-1.1-17.9-9.4c-0.3-0.8-1.1-1.3-1.8-2.2c-1.9,2.4-1.3,4.8-0.8,6.6c2.5,8.7-4.1,11.3-9.6,14.6
			c-2.8,1.7-4.5-0.4-6.4-1.8c-7.9-5.7-15.7-11.4-24.9-16c5,7.4,9.6,15,15.1,22c4.2,5.3,5,9.7-1,15.3c-24.9-27.1-52-52.6-57.9-92.9
			c12.3-3.3,23.8-7.7,34.3-14.3c3.9-2.4,16.3,7.4,16.8,12.5c1.7,17.1,6.6,33.3,13.6,48.9C544.5,373.5,544.8,374.9,546.8,374.8z" />
            <path fill-rule="evenodd" clip-rule="evenodd" fill="#EA1B24" d="M592.5,951.6c6,60.7,11.8,119.5,17.7,178.9
			c-14.9,5.2-29.6,10.7-44.6,15.5c-6.1,2-14.3-4.6-14.3-10.3c0.4-41.2,1.8-82.5,0.6-123.6c-0.6-19,3.7-32.8,20.4-42.7
			C579.4,965.1,585,958.3,592.5,951.6z" />
            <path fill-rule="evenodd" clip-rule="evenodd" fill="#BB9C6A" d="M299.5,496.2c-4.2,1.5-8.4,0.4-14.7,0.8
			c14.9-11.1,28.9-20.1,45.5-20c14.7,0.1,26.2-6.2,37.8-13c8.4-5,17.4-9.6,23.5-17.9c4.5-6.2,9.5-11.7,0.7-19.3
			c8.5-3.8,16.2-3.7,23.5-1.6c18.4,5.5,37,7,56,6.3c4-0.2,6.9-0.9,7.1-5.2c0.7-18.8-2.9-36.5-14.8-51.8c-1.4-1.8-3.2-3-5.5-3.2
			c4.5-3.2,8.4-1.8,12.5,1.1c19.8,14.3,26.9,34.8,28.7,58c1,13.6-1.6,16.8-15.5,18.5c-6.2,0.8-12.4,1-19.7,1.5
			c7,5.7,14.7,7.7,22.2,9.7c4.6,1.2,5.5,3.2,5.1,7.6c-1.2,13.1-2.6,26-7.9,38.3c-1.9,4.3-3.5,5.7-8.5,4.6
			c-28.5-5.9-57.1-11.4-85.6-16.9c-2.6-0.5-5.4-2.6-7.8,2.1c-0.3-5.2,2.5-6.7,4.8-8.1c12.2-7.8,22.2-18.1,32-28.5
			c3-3.2,5.9-4.1,10.2-3.3c11.4,2,22,5.8,33.3,13.1c-4-10.4-10.4-16.5-18-21.4c-2.6-1.7-5.6-2.8-8.6-3.9c-12.7-5-23.4-5.1-33,7.7
			c-12.8,17.1-29.2,30.5-51,35.4c-2.9,0.7-3.7,2.7-4.3,5.2c-0.5,2.4-1.3,4.7-2,7c-0.1,0.4-0.6,0.7-1.2,1.3c-13.1-11.3-28.3-9-43.5-6
			C299.7,494.4,299.4,495.2,299.5,496.2z" />
            <path fill-rule="evenodd" clip-rule="evenodd" fill="#EA1B24" d="M794.7,1085.4c-7.1,0.8-13-0.6-18.1-2.9
			c-9.1-4.3-17.6-3.5-27.2,1.4c-18.9-63.6-37.6-126.3-56.4-189.5c9.6-1.9,18.4-3.5,27-5.5c4.5-1,5.3,2.1,6.7,4.9
			c12.7,26.4,25.4,52.9,38,79.3c5.8,12,11.2,24.2,17.2,36.1c2.2,4.3,2.7,7.7-0.9,11c-9.4,8.7-8.7,17.2-2.2,27.8
			C785.8,1059.3,789.8,1072.2,794.7,1085.4z" />
            <path fill-rule="evenodd" clip-rule="evenodd" fill="#E81B24" d="M823.6,1221.2c3,4.7,1.4,7.4-2,10.5
			c-39.2,35.3-85.2,57.4-136.6,67.7c-64.3,12.9-126.9,5.5-187.7-18.6c-0.8-0.3-1.6-0.9-3.4-2c14.7-4.8,28.4-9.4,42.1-13.8
			c2.9-0.9,5.8,0.1,8.6,0.8c45.3,10.4,91,10.2,136.8,5.5c32.5-3.3,64.1-10.6,94.7-22.2c14.2-5.4,26.9-13.4,39.2-22
			C818.1,1225.1,820.9,1223.2,823.6,1221.2z" />
            <path fill-rule="evenodd" clip-rule="evenodd" fill="#EA1B24" d="M543.8,992.5c0,10.3,0,19.4,0,28.5c-0.2,37.6-0.4,75.2-0.4,112.8
			c0,5.4-1.4,8.6-6.5,10.4c-3.6,1.3-7.5,2.7-10.5,4.9c-11.4,8.5-21.3,6-32.8-1c-9-5.5-13.3-9.8-11.8-21.5
			c4.2-32.2,6.5-64.6,9.5-96.9c0.2-2.3,0.5-4.3,2.7-5.5C511,1015,527,1004.3,543.8,992.5z" />
            <path fill-rule="evenodd" clip-rule="evenodd" fill="#BB9C6A" d="M743.2,822.5c12.7-26.1,21.6-53.4,27.6-81.7
			c2.5-11.9,4.6-23.9,4.5-36c0-6.6,2.7-9,8.7-9.5c3.1-0.2,6.2-0.9,9.7-1.4c1.7,6.2-0.4,12.1-1.5,17.8
			c-9.4,50.2-25.4,98.5-42.6,146.5c-1.3,3.8-3.9,5.2-7.1,6.5c-16.4,6.4-33.6,9.5-51,11.1c-9.4,0.8-18.8,2.2-28.3,1.6
			c5.7-11.2,10.8-22.8,17.2-33.6c16.4-27.4,31.8-55.4,44.9-84.6c3.8-8.5,8.2-16.7,12.4-25c1.3,12.3,1.3,24.1,1.3,35.9
			c0,11.6,0,23.2-1.4,34.8c-1.4,11.5-2.1,23-3.1,34.5C738.4,833.9,742.2,828.9,743.2,822.5z" />
            <path fill-rule="evenodd" clip-rule="evenodd" fill="#BB9C6A" d="M782.6,158.8c1,0,1.9,0,2.9,0c0.7,1,1.8,1.7,2.4,0.2
			c0.4-1.3-1-1.6-2.2-1.8c-1-0.6-2-1.1-3-1.7c-1-3.2-3.8-4.2-6.4-5.4c-19.5-8.7-39.8-11.1-60.9-7.3c-38.9,7-62.5,31.6-75.3,67.4
			c-7.4,20.6-8.2,42.5-9.2,64.2c-0.5,10.2,1.8,20.2,1.5,30.4c-3.8-0.7-6.8-1.8-7.1-6.6c-2.5-32.2-1.4-64,10.4-94.6
			c32-83.6,130-87.1,178.8-40.6c12.9,12.3,20.6,27.3,22.1,45.4c0.3,4.1-0.9,6.4-5.1,7.1c-33.5,5.9-67.1,10.3-101,3.1
			c-6.1-1.3-12.3-3-17.4-6.8c3.1-1.1,2.2-3.9,2.7-6.2c5.5-24.4,19.6-39.5,44.8-44.3C768,159.8,775.6,162.5,782.6,158.8z
			 M797.4,163.2c1.5,19.9-6.1,36.3-14.1,53.8c14.2-1.3,27.2-1.1,39.9-4.7C820,192.9,814.4,175.9,797.4,163.2z" />
            <path fill-rule="evenodd" clip-rule="evenodd" fill="#FBD597"
                d="M940,823.1c-1.6-1.4-4.6-1.1-4.6-4.7c0.3-22.6-7.5-43.6-13.1-65
			c-2.4-9.2,1.2-17.6,1.5-26.4c3.5-4.8,6.2-10,7.8-15.7c3-0.4,4.4-2.8,5.6-5.2c6-11.7,1.9-22.8-4.2-32.2
			c-7.4-11.5-13.5-23.5-18.4-36.1c-1.4-3.6-3.3-7.1-2.4-11.2c1.7-7.7,3.7-15.4,5.5-23.1c9.8,15.7,17.6,32.4,25.9,48.8
			c1.9,3.8,2,8,2.2,12.1c0.6,13.3,4.7,25.6,10.5,37.5c2.5-0.7,0.4-3.8,3.4-4.8c2.6,12.2,12.7,22.3,9.3,36.2
			c-2.4,0.7-2.2-2.9-4.8-2.4c5.2,21.5,9.8,43.1,15.8,64.3c4.2,14.7,3.5,29.2,1.5,45C969.6,829.6,955.5,824.5,940,823.1z" />
            <path fill-rule="evenodd" clip-rule="evenodd" fill="#EA1B24"
                d="M733,886c4-1.4,7.7-2.4,11.2-3.9c4-1.6,6.7-0.3,9.6,2.5
			c23.7,23.1,44.8,48.3,63.6,75.6c11,16,22.3,31.7,33.6,47.6c2,2.8,4.2,5.1,1.3,8.9c-10.2,13-15,28-15.8,45.1c-2.3-4-4.6-8-7-12.1
			c-8.7-14.8-18.8-28.3-34.5-36.5c-2-1.1-3.3-2.6-4.3-4.7c-19.1-40.1-38.2-80.1-57.3-120.2C733.3,888,733.3,887.5,733,886z" />
            <path fill-rule="evenodd" clip-rule="evenodd" fill="#EA1B24" d="M482.6,1031.6c-1.2,13.4-2.3,26.4-3.5,39.3
			c-1.9,19.8-4,39.5-5.6,59.3c-0.6,6.9-2.4,11.5-9.9,13.6c-7.7,2.1-15,5.6-22.3,8.8c-3,1.3-5.1,1.4-7.6-1.3
			c-5.9-6.1-12-12-18.2-17.8c-2.4-2.2-2.9-4.4-2.2-7.7c4.4-22.1,8.4-44.2,12.7-66.3c0.5-2.7,0.7-5.7,4.3-6.9
			c16.8-5.5,32.9-12.8,48.9-20.5C479.9,1031.8,481,1031.9,482.6,1031.6z" />
            <path fill-rule="evenodd" clip-rule="evenodd" fill="#BA9C6B" d="M960.2,971.1c-22.5-6-43.7-3-66.5,4.5c0-10.2,0.2-19.5,0-28.8
			c-0.6-29.9-4.8-59.4-12.7-88.3c-0.9-3.2-1.7-5.9,1.9-8.2c22.8-14.6,46.9-20.5,73.3-11.1c3.2,1.1,6.2,2.8,9,4.8
			c9.7,6.9,15.7,14.2,13.2,28.3C972.6,905,967.3,937.7,960.2,971.1z M922,959.9c-8.4-40.7-12.9-80.6,3.7-120
			c-10.8,0.9-21.1,5-31.2,9.9c-4.7,2.3-6.1,4.7-4.8,10.1c4.7,18.6,7.4,37.5,8.5,56.7c1,16.4,0.5,32.9,1.1,50.1
			C907.4,964.3,914.9,962,922,959.9z M956.9,959.9c5.3-32.5,10.5-64,15.8-95.4c0.4-2.2,1-4.3-1-6c-8.2-7.2-16.5-14.2-28.8-15.6
			c3.6,38.2,1.9,76-3.2,113.7C946,957.8,951.1,958.8,956.9,959.9z" />
            <path fill-rule="evenodd" clip-rule="evenodd" fill="#BB9C6A" d="M915.4,982.8c-1.3,3.5-4.8,3.9-7.6,5
			c-14.9,6-33.1,34.2-31.9,50.1c0.6,8.7,4.1,16.9,4.7,25.6c1,13.7,2.9,27.4,3.9,41.1c1,14.1,6.5,18.5,20.4,15.4
			c1.2-0.3,2.5-1,3.5-0.7c10.1,2.8,19,1.5,26.5-6.6c1.3-1.4,2.3,0.7,2.2,2.3c-2,10.3-9.6,11.2-18.6,10.3c2.9,6.6,8,4.8,13.1,4.4
			c-0.1,6.6-1.4,12.5-3.3,18.2c-1.9,5.8-7.3,5.3-12.2,5.1c-4.9-0.2-4.9-3.7-4.8-7.3c0.1-3.6,0-7.2,0-12.8
			c-5.8,9.6-6.4,18.5-7.6,27.2c-1.3,9.2-12.6,16.3-21.4,13.6c-2.8-0.9-2.9-2.9-3.4-5c-5.7-29-11.5-58-17.1-87.1
			c-1.4-7.2-0.9-14.5-1.3-22c-2.6,4.1-3.6,8.8-3.8,13.6c-0.2,4.4-2.1,6.8-7,6.4c-0.7-12.7,1.4-25.2,1.5-37.8c0-1.1,0.6-2.3,1.2-3.4
			c10-17.6,21.6-34.1,37.2-47.2C896.9,985,906.2,983.7,915.4,982.8z M908.7,1122.7c-3.8,1.8-6.4,5.2-10.7,4.8
			c-3.9-0.3-7.4-3-12.1-2.1c2.8,5.5,5.7,10.2,12.1,9.2C904.3,1133.8,908.2,1129.9,908.7,1122.7z" />
            <path fill-rule="evenodd" clip-rule="evenodd" fill="#BB9C6A" d="M696.3,501.6c-2.4-1.9-4.9-3.9-7.3-5.8c1.8-3.9-1.2-6.8-2.5-9.8
			c-16.4-38-27.4-77.5-33.5-118.4c-0.7-4.5-0.7-7.7-6.8-7.9c-6.1-0.2-7.3,3.1-8,7.8c-0.7,4.3-1.5,8.6-2.7,12.8
			c-2.3,8.6-1.6,16.2,2.9,24.3c11.5,20.7,13.8,43.1,10,66.3c-1.7-0.9-3.3-1.9-5.1-2.8c-8.5-4.5-12.3-9.7-9.2-20.7
			c3.8-13.4-1-26.4-9.5-37.5c-3-3.9-3.6-7.3-2.9-12c3.6-24.4,13.5-46.3,25.3-67.4c12.2,2.5,12.5,2.4,13.7,13.7
			c3.2,30.1,6.2,60.3,13.7,89.7c4,15.8,9.3,31.1,15,46.3c0.4,1.1,0.6,2.4,2.6,2.7c-2-30.5-5.4-60.8-0.5-91.8
			c7.2,12.7,13.3,26.2,28.3,32.8c5.2-8.3,11.4-15.6,21.9-18.7c-0.5,8.3-1,15.9-2.8,23.4c-6.7,3.8-13.5,7.4-20.1,11.4
			c-3.2,1.9-5.1,0.8-7.5-1.4c-3.7-3.5-6.5-8.3-12.8-10.3C697,453,699.7,477.4,696.3,501.6z" />
            <path fill-rule="evenodd" clip-rule="evenodd" fill="#EA1B24"
                d="M237.5,1254.1c1.7,3.1,3.5,6.1,5.7,10c-8.8,3.6-17.4,7-26,10.5
			c-3.2,1.3-4.3-1.1-5.9-2.8c-9.7-9.8-15.1-21.1-15-35.5c0.2-12.9-2-25.9-3.1-38.7c31.2-6.8,67.3,13.8,89.6,51
			c-10.6,4.1-21.1,8.3-31.6,12.3c-2.7,1-4.4-1.3-6.3-2.7c-2.1-1.6-4.1-3.3-6.1-5C238.3,1253.5,237.9,1253.8,237.5,1254.1z" />
            <path fill-rule="evenodd" clip-rule="evenodd" fill="#EA1B24" d="M417.9,1057.1c-4.5,24-8.9,47-13.2,70.1
			c-0.5,2.8-1.5,5.2-4.8,5.4c-0.2,0-0.5,0.1-0.7,0.2c-16.2,9.4-28.4,5.3-40-9.1c-6.4-7.9-10.2-13.7-5.2-23.7c4-8.2,6.2-17.3,9.2-26
			c1-2.8,2.1-5.1,5.7-5.7c8.1-1.3,16.2-2.9,24.3-4.7C401,1061.7,408.9,1059.4,417.9,1057.1z" />
            <path fill-rule="evenodd" clip-rule="evenodd" fill="#9B824E" d="M743.2,822.5c-0.9,6.4-4.8,11.4-8.8,16.8c1-11.5,1.7-23,3.1-34.5
			c1.4-11.6,1.3-23.2,1.4-34.8c0-11.8,0-23.6-1.3-35.9c-4.1,8.3-8.6,16.5-12.4,25c-13.1,29.2-28.5,57.1-44.9,84.6
			c-6.4,10.8-11.5,22.4-17.2,33.6c-5.5,0.6-11,1.8-18,0.8c11.2-20.1,22.2-39.6,33.1-59.2c11.1-19.9,21.9-40,33.3-59.8
			c11-19.1,20.5-39.1,33-57.3c0.9,0.4,1.9,0.8,2.8,1.3c0.6,9.1,1.3,18.2,1.7,27.3c1.2,29.2-1.2,58.1-5.5,87
			C743.2,819.1,743.3,820.8,743.2,822.5z" />
            <path fill-rule="evenodd" clip-rule="evenodd" fill="#F8C807"
                d="M624.1,440.6c-0.2,22-18.2,39.9-40,39.8
			c-21.9-0.1-39.8-18.2-39.9-40.1c-0.1-22.2,18.2-40.2,40.5-39.9C607,400.7,624.3,418.4,624.1,440.6z M606.4,440.5
			c0.1-12.3-9.6-22.2-21.8-22.3c-12.4-0.1-22.2,9.5-22.3,21.9c-0.1,12.4,9.5,22.2,21.8,22.3C596.4,462.4,606.3,452.8,606.4,440.5z" />
            <path fill-rule="evenodd" clip-rule="evenodd" fill="#BB9C6A" d="M852.4,1197.7c-7,0.2-9.2-3.1-10.8-9.4
			c-12.9-50.6-30.4-99.6-51.8-147.3c-3.3-7.3-3.3-7.2,2.5-13.9c4.1,0.9,6.8,4.1,9.7,6.9c9.7,9.4,16.6,20.9,22.5,32.9
			c18.4,37.8,28.8,77.6,29.3,119.8C853.8,1190.3,854.2,1194,852.4,1197.7z" />
            <path fill-rule="evenodd" clip-rule="evenodd" fill="#FBD598" d="M696.3,501.6c3.4-24.2,0.6-48.6,2.3-73.4
			c6.3,1.9,9.1,6.8,12.8,10.3c2.4,2.3,4.3,3.4,7.5,1.4c6.6-4,13.4-7.6,20.1-11.4c-1.4,21.2-2.8,42.4-4.2,63.7
			c-0.6,6.5-1.2,13-1.8,19.4c-11,5-11,5-21.7,20.5C708.6,520.6,703.9,510.4,696.3,501.6z" />
            <path fill-rule="evenodd" clip-rule="evenodd" fill="#BB9C6A" d="M211.1,527.3c0.1,3,2.6,3.1,4.5,3.9c8,3.6,16.4,6,24.8,8.2
			c8.9,2.2,16.2,5.9,22.1,13.6c11.3,14.6,25.4,26.6,39.4,38.5c5.5,4.7,10.2,10.2,15.6,15.7c-4.1,2.8-8.8,2.8-13.3,4.5
			c9,4,18.2,7.6,28,9.1c-4.6,13.9-4.7,14-18.5,10.3c-12.6-3.4-25.3-6.8-36.6-13.8c-6.4-4-11.9-9-16.8-16.5c10.4,1.6,19.7,2.9,29,4.3
			c0.2-0.4,0.4-0.8,0.6-1.2c-5.2-4.5-10.3-9.2-15.6-13.6c-10.6-8.8-19.4-18.9-25.2-31.5c-1.3-2.7-3.2-4-5.8-4.9
			c-10.1-3.6-19.5-8.5-29-13.4C208.1,537.2,207.2,533,211.1,527.3z" />
            <path fill-rule="evenodd" clip-rule="evenodd" fill="#FBD598" d="M648.5,470.7c3.8-23.2,1.5-45.6-10-66.3
			c-4.5-8.1-5.2-15.8-2.9-24.3c1.1-4.2,2-8.5,2.7-12.8c0.8-4.7,1.9-7.9,8-7.8c6,0.2,6.1,3.4,6.8,7.9c6.1,40.9,17,80.4,33.5,118.4
			c1.3,3,4.3,5.9,2.5,9.8C675.5,487.4,662,479.1,648.5,470.7z" />
            <path fill-rule="evenodd" clip-rule="evenodd" fill="#9B824E" d="M632.4,304.8c0.3-10.2-2-20.2-1.5-30.4c1-21.7,1.8-43.6,9.2-64.2
			c12.8-35.8,36.4-60.4,75.3-67.4c21-3.8,41.3-1.3,60.9,7.3c2.6,1.1,5.4,2.2,6.4,5.4c-19-7-38.3-11.5-58.8-10.1
			c-24.4,1.7-51.4,17.8-62.9,38.7c6.5,2.2,8.8,7.7,10,13.8c2.5,13.3-0.3,25.6-7.6,36.7c-6.3,9.6-12.3,10-21.5,2
			c-2.9,11.7-2.8,23.5-4,35.1c-1.2,11.6,0.3,23.1,0.4,34.6C635.5,307.1,633.9,306.2,632.4,304.8z" />
            <path fill-rule="evenodd" clip-rule="evenodd" fill="#F6C707" d="M838.3,523.6c0.2,7.8-1.9,14.9-6.2,21.3
			c-9,13.5-25.6,17.3-39.7,9c-18.3-10.8-24.7-37.6-13.3-55.6c9.6-15.1,27.6-18.8,42.4-8.5C832.1,497.2,838.3,509.6,838.3,523.6z
			 M825,522.2c-0.1-12.7-9.4-23-20.6-22.8c-10.2,0.2-17.8,9.2-17.5,20.9c0.3,12.1,9.6,22.7,20.2,22.6
			C817.2,543,825.1,533.8,825,522.2z" />
            <path fill-rule="evenodd" clip-rule="evenodd" fill="#BB9C6A" d="M893.2,575.2c-13.5-4.4-24.6-10.6-35.3-17.8
			c-2-1.3-2.9-3.2-3.7-5.2c-3.3-8.1-5.7-16.4-7.8-24.9c-1.6-6.5,0.9-8.6,6.5-10c6.5-1.7,12.9-1.7,19.5-1.4c4.5,0.2,7.3,2.4,9.6,6.5
			C891.1,538.6,892.2,556.4,893.2,575.2z" />
            <path fill-rule="evenodd" clip-rule="evenodd" fill="#9B824E" d="M715.5,120.9c10.2-7.3,22.1-9.9,34-11.2
			c30.8-3.4,59.7,3.4,87,17.6c0.8,0.4,1.4,1.1,2.7,2c-7,6.2-13.6,12.1-20.7,18.4c-13.5-11-29-17.6-45.3-22.5
			c-16.1-4.9-32.5-5-49-4.3C721.4,121,718.5,121,715.5,120.9L715.5,120.9z" />
            <path fill-rule="evenodd" clip-rule="evenodd" fill="#BB9C6A" d="M917.8,603.5c-1.8,7.7-3.7,15.4-5.5,23.1
			c-0.9,4,0.9,7.5,2.4,11.2c4.9,12.7,11,24.6,18.4,36.1c6,9.4,10.2,20.6,4.2,32.2c-1.2,2.4-2.6,4.7-5.6,5.2
			c2.6-16-3.4-28.6-14.1-40.4c-10.9-12-16.8-27-19-43.2c-0.3-1.9-0.8-4.1,0-5.7c5.1-10.4,8.9-21.2,9-35
			C912.5,593.5,915.5,598.3,917.8,603.5z" />
            <path fill-rule="evenodd" clip-rule="evenodd" fill="#BB9C6A" d="M733,511.6c0.6-6.5,1.2-13,1.8-19.4c3,0.2,2.5-2.5,3.1-4.1
			c4.3-11.8,8.4-23.7,12.7-35.6c0.8-2.2,0.9-4.8,3.7-6.3c4.9,13.5,10.4,26.7,14.3,40.4c1.8,6.4-1,13.3-2.8,19.8
			c-0.4,1.6-1.7,2.1-3.3,2.3C752.8,509.6,742.9,510.6,733,511.6z" />
            <path fill-rule="evenodd" clip-rule="evenodd" fill="#9B824E" d="M782.6,158.8c-7,3.7-14.6,1-22,2.4c-25.2,4.8-39.4,20-44.8,44.3
			c-0.5,2.2,0.3,5.1-2.7,6.2c-2-0.9-4-1.7-5.9-2.7c-1.7-0.9-3.1-2.2-5.2-3.7c-4.8,10.4-5.3,21.6-8.5,33
			c-7.2-47.1,13.5-77.2,62.6-80.7C764.8,157.1,773.8,156.1,782.6,158.8z" />
            <path fill-rule="evenodd" clip-rule="evenodd" fill="#E81B24"
                d="M785.4,472.4c6-16.8,10-33.3,22.8-46.2
			c10.2,7.1,20,14.1,30.7,21.6c-12,7.3-22.2,15.5-31.5,24.9c-2,2.1-5.1,1.2-7.7,1C795.2,473.2,790.8,471.8,785.4,472.4z" />
            <path fill-rule="evenodd" clip-rule="evenodd" fill="#E81B24" d="M945.5,635.7c-4.7-9.7-8.5-17.5-12.3-25.3
			c-0.9-1.8-1.2-3.6-1-5.6c2.4-26,0.8-51.8-5.3-77.7C939.8,539,948.7,594.9,945.5,635.7z" />
            <path fill-rule="evenodd" clip-rule="evenodd" fill="none" d="M769.7,542.1c-18-0.3-32.3,5.8-40.3,23.3
			c-4.8-15.8,0.8-28,15.3-33.1c6.6-2.3,13.3-4.7,20.4-4.8C766.6,532.3,768.1,537.2,769.7,542.1z" />
            <path fill-rule="evenodd" clip-rule="evenodd" fill="#2E2C2D"
                d="M808.8,1122c-31.6,10.7-63.1,21.4-94.7,32
			c-24.7,8.3-49.5,16.3-74.3,24.5c1.9-6,9.8-2.3,12.5-7.1c-2.1-2.6-4.9,1.6-6.7-1.3c6.3-2.3,12.7-4.6,19-6.8c-0.4,3.9-6,1.9-6.7,6.2
			c6.5,0,12.1-2.9,17.8-4.9c21.3-7.5,42.8-14.5,64.2-21.7c15.2-5.1,30.3-10.4,45.6-15.1C793.2,1125.4,800.3,1121.3,808.8,1122z" />
            <path fill-rule="evenodd" clip-rule="evenodd" fill="#E81B24"
                d="M367.4,1171.4c13.2,10.1,26.4,20.1,40.2,30.7
			c-4.4,1.6-8.3,3-12.1,4.4c-2.2,0.8-3.7,0.1-5.1-1.6c-8.6-10.4-17.8-20.4-23.9-32.7C366.9,1172,367.2,1171.7,367.4,1171.4z" />
            <path fill-rule="evenodd" clip-rule="evenodd" fill="#BD9D6B" d="M320.7,568.2c10.1,1.5,18.7,7.8,29,8.9
			c-1.6,5.1-3.3,10.2-6.3,14.7c-9.4-6-17.2-13.6-23.2-23.1L320.7,568.2z" />
            <path fill-rule="evenodd" clip-rule="evenodd" fill="#BB9C6A" d="M944.2,1114.6c3.1-5,5.8-10.2,9.3-14.9c3.2-4.2,6-1.1,8.5,1.4
			c-5.2,0.3-8.5,2.7-10.1,8C950.9,1112.3,949,1116,944.2,1114.6z" />
            <path fill-rule="evenodd" clip-rule="evenodd" fill="#9B824E" d="M785.7,157.3c1.1,0.2,2.6,0.5,2.2,1.8c-0.5,1.5-1.6,0.8-2.4-0.2
			C785.5,158.3,785.6,157.8,785.7,157.3z" />
            <path fill-rule="evenodd" clip-rule="evenodd" fill="#BB9C6A" d="M964.7,1101.3c1-0.3,2-0.7,3-1
			C967,1101.6,966,1101.9,964.7,1101.3z" />
            <path fill-rule="evenodd" clip-rule="evenodd" fill="#9B824E" d="M715.6,121c-0.3,1-0.9,1.3-2.5,0.5
			C714.2,121.2,714.9,121.1,715.6,121L715.6,121z" />
            <path fill-rule="evenodd" clip-rule="evenodd" fill="#9B834E" d="M998.1,92.9c0.3-0.5,0.5-1.1,0.8-1.6c0.3,0.5,0.6,1,1,1.5
			C999.3,92.8,998.7,92.8,998.1,92.9z" />
            <path fill-rule="evenodd" clip-rule="evenodd" fill="#E81B24" d="M366.7,1172.2c-0.2-0.5-0.4-1-0.6-1.5c0.5,0.2,0.9,0.5,1.4,0.7
			C367.2,1171.7,366.9,1172,366.7,1172.2z" />
            <path fill-rule="evenodd" clip-rule="evenodd" fill="#9B834E" d="M1002.4,92.5c0-0.3,0.1-0.6,0.4-0.9c0.2,0.3,0.5,0.6,0.7,0.9
			C1003.1,92.5,1002.8,92.5,1002.4,92.5z" />
            <path fill-rule="evenodd" clip-rule="evenodd" fill="#EA1B24" d="M892,1327.7c-0.3,0.2-0.6,0.4-0.9,0.5c0.2-0.3,0.4-0.6,0.5-1
			C891.6,1327.3,892,1327.7,892,1327.7z" />
            <path fill-rule="evenodd" clip-rule="evenodd" fill="#2E2C2D" d="M638.3,1178.9c-28.4,9.6-56.8,19.4-85.2,28.9
			c-60.6,20.2-121.2,40.4-181.9,60.5c-4.5,1.5-9.2,2.4-14,2.8c58.9-20.7,117.8-41.4,176.8-62.1c25.6-9,51.2-17.8,76.8-26.7
			c3.8,5.6,7.4,1.1,11.6,0.2c-1.8-2.7-4.7,0.6-5.8-2c8.5-3.8,17.2-6.8,26.1-9.2C641.2,1173.7,637.3,1175,638.3,1178.9z
			 M624.8,1179.9c5,0.8,7.7-0.2,10.4-2.9C631.2,1175.4,629.2,1178,624.8,1179.9z" />
            <path fill-rule="evenodd" clip-rule="evenodd" fill="#9B824E" d="M319,1284c8.1-2.9,16.2-5.7,24.3-8.6c0.3,0.7,0.5,1.4,0.8,2.2
			c-8.2,2.8-16.3,5.5-24.5,8.3C319.4,1285.2,319.2,1284.6,319,1284z" />
            <path fill-rule="evenodd" clip-rule="evenodd" fill="#252020" d="M638.3,1178.9c-1-3.9,2.9-5.1,4.2-7.7c1-0.3,2-0.7,3-1
			c1.8,2.9,4.6-1.3,6.7,1.3c-2.7,4.9-10.6,1.1-12.5,7.1C639.2,1178.6,638.8,1178.8,638.3,1178.9z" />
            <path fill-rule="evenodd" clip-rule="evenodd" fill="#252020" d="M616.4,1180.4c1.1,2.6,4-0.7,5.8,2c-4.2,0.9-7.7,5.4-11.6-0.2
			C612.6,1181.6,614.5,1181,616.4,1180.4z" />
            <path fill-rule="evenodd" clip-rule="evenodd" fill="#A5A6AA" d="M284.2,1297.3c-4.1,2.3-7.3,3.3-12.5,3.9
			C276.3,1298.5,279.3,1296.9,284.2,1297.3z" />
            <path fill-rule="evenodd" clip-rule="evenodd" fill="#A5A6AA" d="M317.9,1285.7c-2.3,1.9-4.4,3.3-7.8,2.1
			C312.5,1285.6,314.7,1284.5,317.9,1285.7z" />
            <path fill-rule="evenodd" clip-rule="evenodd" fill="#A5A6AA" d="M262.4,1304.3c0.8-0.6,1.6-1.5,3-0.6
			C264.2,1303.9,263.3,1304.1,262.4,1304.3L262.4,1304.3z" />
            <path fill-rule="evenodd" clip-rule="evenodd" fill="#A5A6AA" d="M262.3,1304.3c-0.8,0.4-1.5,0.8-2.3,1.2
			c-0.1-0.2-0.2-0.3-0.2-0.5C260.7,1304.7,261.5,1304.5,262.3,1304.3C262.4,1304.3,262.3,1304.3,262.3,1304.3z" />
            <path fill-rule="evenodd" clip-rule="evenodd" fill="#A5A6AA" d="M306.1,1289c0.8-0.6,1.5-1.4,2.4-0.3c0.1,0.1,0.1,0.4,0,0.5
			C307.7,1290.2,306.9,1289.6,306.1,1289z" />
            <path fill-rule="evenodd" clip-rule="evenodd" fill="#A5A6AA" d="M297.5,1291.9c0.7-0.5,1.4-1.2,2.2-0.2c0.1,0.1,0.1,0.3,0,0.4
			C298.9,1293,298.2,1292.6,297.5,1291.9z" />
            <path fill-rule="evenodd" clip-rule="evenodd" fill="#A5A6AA" d="M295.6,1293.4c-0.8,0.7-1.6,0.9-2.3,0
			C294.1,1292.6,294.8,1292.5,295.6,1293.4z" />
            <path fill-rule="evenodd" clip-rule="evenodd" fill="#A5A6AA" d="M291.1,1295c-0.4,0.1-0.8,0.4-1.2,0.4c-0.2,0-0.4-0.5-0.7-0.7
			c0.4-0.1,0.8-0.4,1.2-0.4C290.6,1294.3,290.8,1294.7,291.1,1295z" />
            <path fill-rule="evenodd" clip-rule="evenodd" fill="#A5A6AA" d="M270.2,1302.1c-0.4,0-0.8-0.1-1.2-0.1
			C269.4,1302.1,269.8,1302.1,270.2,1302.1z" />
            <path fill-rule="evenodd" clip-rule="evenodd" fill="#A5A6AA" d="M301.8,1290.4c0.8-0.5,1.5-1.3,2.3-0.2c0.1,0.1,0.1,0.4,0,0.5
			C303.3,1291.6,302.5,1291.2,301.8,1290.4z" />
            <path fill-rule="evenodd" clip-rule="evenodd" fill="#252020" d="M704.3,685c-24.4,43.9-48.8,87.8-73.3,131.7
			c-9.3,16.7-19.4,33.1-27.9,50.3c-11.7,23.4-27.7,43-47.1,60.3c-50.5,45.1-107,78.8-173.8,93.1c-26,5.6-18.3,9.3-30.4-14.4
			c-21.3-41.6-32.3-86.1-35.8-132.6c-2.6-34.5-2.6-68.9,4.5-102.9c3.3-15.9,11.3-30.4,17.3-45.5c23.7-59.2,47.6-118.4,71.4-177.6
			c0.5-1.3,1.2-2.7,1.8-4c2.2,0.3,4.4,0.4,6.5,0.8c48.7,9.6,97.4,19.2,146,28.9c6.3,1.3,12.4,2.2,17.9,6.9
			c34.3,29.2,69.1,57.9,103.5,87C691.5,672.7,699.6,677.1,704.3,685z M680.7,691c0.5-0.5,0.9-1.1,1.4-1.6c0.6-3.2-2.2-4-3.9-5.5
			c-34.7-29.2-69.5-58.3-104.2-87.5c-3.9-3.3-7.9-5.2-12.9-6.1c-31.2-6-62.3-12.2-93.5-18.4c-15.4-3-30.7-6-46-9
			c-0.9,2.1-1.5,3.4-2.1,4.8c-23.9,59.4-47.1,119-71.9,178c-11.2,26.6-16.1,53.6-15.4,82.1c-2.4,62.5,9.4,121.8,38.3,177.6
			c15.7-2.9,30.4-7,44.8-12.1c52.1-18.4,97-48.3,136.9-86.1c8.6-8.2,17.5-16.2,23.4-26.7c27.7-49.5,55.4-99,83-148.6
			C666.1,718.3,674.4,705.1,680.7,691L680.7,691z" />
            <path fill-rule="evenodd" clip-rule="evenodd" fill="#9B824E" d="M704.3,685c-4.7-8-12.8-12.3-19.5-18
			c-34.4-29.1-69.2-57.8-103.5-87c-5.5-4.7-11.6-5.6-17.9-6.9c-48.6-9.7-97.3-19.3-146-28.9c-2.1-0.4-4.3-0.5-6.5-0.8
			c-0.7-4.3-4.9-7.2-5.3-12.1c6.6-2.2,12.4,1.4,18.2,2.5c49.8,9.4,99.4,19.5,149.2,28.5c11,2,17.1,9.7,24.5,15.8
			c35,29,69.5,58.5,104.2,87.8c5.5,4.6,11.1,9.2,16.9,14C714.4,684.7,708.8,683.4,704.3,685z" />
            <path fill-rule="evenodd" clip-rule="evenodd" fill="#252020" d="M343.5,421.6c-1.5,7.9-1.2,14.9-0.4,21.9
			c1.1,9.6-3.4,15.8-11.4,19.9c-5.1,2.6-10.3,5.2-17.7,6.4c2.8-2.7,4.5-4.4,6.3-6c7.8-7.2,14.2-15,15.6-26.2
			C336.7,432,338.3,426.3,343.5,421.6z" />
            <path fill-rule="evenodd" clip-rule="evenodd" fill="#BD9D6B" d="M320.3,568.7c-0.6-0.3-2.1-0.1-1.5-1.2c0.5-0.9,1.4,0,2,0.7
			C320.7,568.2,320.3,568.7,320.3,568.7z" />
            <path fill-rule="evenodd" clip-rule="evenodd" fill="#252020" d="M825.4,413.3c-26.3-13.5-52.6-27.1-79-40.5
			c-4-2.1-4.9-5.8-6.1-9.4c-10.2-30.5-16-61.9-20.6-93.6c-1.7-11.7-3.1-23.5-4.8-36.2c9.3,2.5,17.2,3.7,21.3,14
			c6.4,16.4,19.5,27.6,34.4,36.3c3.8,2.2,5.4,4.9,6.1,9c4.2,26.8,8.7,53.6,12.9,80.4c0.5,3.3,1.8,5.8,3.9,8.3
			c9.8,11.5,21.4,21,33.1,30.5C826.2,412.5,825.8,412.9,825.4,413.3z" />
            <path fill-rule="evenodd" clip-rule="evenodd" fill="none" d="M775,241.2c27.4-2.5,54.5-5.5,81.6-13.6c18.7,45.5,11.9,93,14,140.8
			c-5.4-3.9-6.8-7.9-6.8-13.1c0-30.1-3.1-59.9-8.2-89.6c-1.1-6.6-4.2-8.6-10.3-9.2c-16.1-1.7-32.3-3.5-48.3-6.1
			C789.1,249.2,782,245.2,775,241.2z" />
            <path fill-rule="evenodd" clip-rule="evenodd" fill="none" d="M837.5,401.8c-9.5-23.3-12-48.1-15.3-72.4
			c-2.4-17.7-6.9-31.4-25.3-38.4c-10.4-4-19.2-12.1-27-20.6c1.6-1.1,3-0.7,4.2,0.1c15.4,9.9,32.5,16.2,49.6,22.5
			c3.4,1.2,5.8,2.7,6.5,6.7C835.3,333.6,837.6,367.7,837.5,401.8z" />
            <path fill-rule="evenodd" clip-rule="evenodd" fill="#252020" d="M826.6,412.1c1,0.7,1.5,1.6,0.6,2.7c-0.6-0.5-1.3-1-1.9-1.5
			C825.8,412.9,826.2,412.5,826.6,412.1z" />
            <path fill-rule="evenodd" clip-rule="evenodd" fill="none" d="M948.7,96.3c-1.5,0.4-2.9,0.9-4.4,1.3c-0.5,0.1-1,0.2-1.5,0.3
			c-4.8,1.3-9.7,2.7-14.5,4c-19.5-13-41-21.8-63.1-29.3c-30.7-10.5-62.3-16.6-94.9-15.7c-44.6,1.2-84.6,15-119.4,43.3
			c-1.9,1.5-3.8,2.9-6.2,4c5.2-9.6,12.9-17,21.1-23.8c32.3-26.8,70.1-39.5,111.5-42.8c62.7-5,122.1,6.8,178.5,34
			c5.9,2.8,11.5,6.2,17.3,9.4c1.9,1.1,3.6,2.4,6.4,4.3C968.7,89.1,958.7,92.7,948.7,96.3z" />
            <path fill-rule="evenodd" clip-rule="evenodd" fill="#FBD598" d="M899.1,724.2c-3.4-4.2-2.2-9.3-4.4-13.2c-0.6-1-0.8-2.5-1.6-3.2
			c-15.6-14.1-11.1-32.7-11.2-50.8c2.7,1.6,3.2,4.2,4.3,6.4c5.6,11.9,12.1,23.2,20.9,33c3.9,4.3,2.6,8.9,1.5,13.7
			C907.1,715.8,903.7,720.2,899.1,724.2z" />
            <path fill-rule="evenodd" clip-rule="evenodd" fill="#2E261C" d="M933.9,1046.7c0,19.5,0,38.9,0,60.4c-2.8-4.6-6-6.6-5.6-10.7
			c1.5-16.6,3-33.2,4.5-49.7C933.1,1046.6,933.5,1046.7,933.9,1046.7z" />
            <path fill-rule="evenodd" clip-rule="evenodd" fill="#2E2C2D" d="M909.2,1057.4c2.9,16,0.8,32-0.1,49.3c-3.2-3.9-5.9-6.5-5.3-10.8
			C905.6,1083.1,907.4,1070.2,909.2,1057.4z" />
            <path fill-rule="evenodd" clip-rule="evenodd" fill="#BC9D6B" d="M942.8,97.9c0.5-0.1,1-0.2,1.5-0.3
			C944,98.6,943.5,98.8,942.8,97.9z" />
            <path fill-rule="evenodd" clip-rule="evenodd" fill="none" d="M690.3,559.6c-5.2-6.4-10.7-10.5-17-14.4
			c-22.7-13.9-35.8-35.7-45-60.2c12.4,9.2,26.4,15.3,39.5,22.9C691.8,522,695.6,530.6,690.3,559.6z" />
            <path fill-rule="evenodd" clip-rule="evenodd" fill="none" d="M797.4,163.2c17,12.7,22.7,29.8,25.8,49
			c-12.8,3.6-25.7,3.5-39.9,4.7C791.2,199.5,798.8,183.1,797.4,163.2z" />
            <path fill-rule="evenodd" clip-rule="evenodd" fill="#252020" d="M922,959.9c-7,2.1-14.5,4.4-22.6,6.8
			c-0.6-17.2-0.2-33.7-1.1-50.1c-1.1-19.2-3.8-38.1-8.5-56.7c-1.4-5.4,0.1-7.8,4.8-10.1c10.1-4.9,20.3-9,31.2-9.9
			C909.1,879.3,913.6,919.2,922,959.9z" />
            <path fill-rule="evenodd" clip-rule="evenodd" fill="none" d="M956.9,959.9c-5.8-1.1-10.9-2.1-17.2-3.3c5-37.7,6.7-75.5,3.2-113.7
			c12.3,1.4,20.6,8.3,28.8,15.6c2,1.7,1.4,3.8,1,6C967.4,895.9,962.2,927.4,956.9,959.9z" />
            <path fill-rule="evenodd" clip-rule="evenodd" fill="#2E261C" d="M908.7,1122.7c-0.5,7.2-4.3,11.1-10.7,12
			c-6.4,0.9-9.3-3.7-12.1-9.2c4.7-0.9,8.2,1.7,12.1,2.1C902.3,1127.8,904.8,1124.4,908.7,1122.7z" />
            <path fill-rule="evenodd" clip-rule="evenodd" fill="#2E261C" d="M606.4,440.5c-0.1,12.3-9.9,21.9-22.3,21.8
			c-12.3-0.1-21.9-9.9-21.8-22.3c0.1-12.3,9.9-22,22.3-21.9C596.8,418.3,606.5,428.2,606.4,440.5z M584.2,425.2
			c-8.5,0-15.1,6.7-15.1,15.2c0,8.3,7,15.3,15.2,15.3c8.3,0,15-6.9,15-15.3C599.3,431.7,592.8,425.1,584.2,425.2z" />
            <path fill-rule="evenodd" clip-rule="evenodd" fill="#2E261C"
                d="M825,522.2c0.1,11.5-7.8,20.7-17.9,20.8
			c-10.5,0-19.9-10.5-20.2-22.6c-0.2-11.7,7.3-20.7,17.5-20.9C815.5,499.2,824.8,509.5,825,522.2z M819,522.3
			c0.1-8.4-6-15.8-13.4-16.2c-6.8-0.4-12.6,6-12.8,13.8c-0.2,8.3,6.1,15.9,13.5,16.2C813.2,536.4,818.9,530.3,819,522.3z" />
            <path fill-rule="evenodd" clip-rule="evenodd" fill="#252020" d="M624.8,1179.9c4.4-1.9,6.4-4.4,10.4-2.9
			C632.4,1179.7,629.8,1180.7,624.8,1179.9z" />
            <path fill-rule="evenodd" clip-rule="evenodd" fill="#BD9D6B" d="M332.3,827.7c-0.7-28.5,4.2-55.5,15.4-82.1
			c24.8-59,48-118.6,71.9-178c0.5-1.3,1.2-2.7,2.1-4.8c15.2,3,30.6,6,46,9c31.1,6.1,62.3,12.4,93.5,18.4c4.9,1,9,2.9,12.9,6.1
			c34.7,29.2,69.5,58.3,104.2,87.5c1.7,1.4,4.6,2.3,3.9,5.5c-0.5,0.5-0.9,1.1-1.4,1.6c0,0,0.1,0,0.1,0c-1.6-0.4-3.5,0.1-4.6-1.7
			c-0.8-0.9-1.5-1.9-2.5-2.6c-35.2-28.1-70.5-56.2-105.8-84.4c-2.6-2.1-5.4-3-8.6-3.6c-34.2-6.6-68.5-13.3-102.7-19.9
			c-8.3-1.6-16.5-3.1-24.8-4.6c39.5,17.1,79.3,33.2,119.1,49.2c3.6,1.4,6,3.4,7.9,6.8c10.6,19.6,21.1,39.3,34.5,57.3
			c4.6,6.2,5.6,13.3,4.2,20.8c-12.1,4.6-17.9,15.2-23.6,25.5c-18.6,33.6-42.7,62.5-72.9,86.3c-11.1,8.8-22.8,17.6-36.9,18.9
			c-23.6,2-46.7,6.5-70.1,9.6c-19.1,2.6-35.8-0.1-50.8-12.8C339.8,832.9,337.4,828.4,332.3,827.7z" />
            <path fill-rule="evenodd" clip-rule="evenodd" fill="#9C834E" d="M332.3,827.7c5.1,0.6,7.5,5.2,10.9,8
			c15,12.7,31.8,15.4,50.8,12.8c23.4-3.1,46.5-7.6,70.1-9.6c14.1-1.2,25.8-10.1,36.9-18.9c30.1-23.9,54.3-52.7,72.9-86.3
			c5.7-10.4,11.5-20.9,23.6-25.5c-0.6,2.7-1.1,5.5-1.9,9.2c16.8-11.6,34.5-19.1,53.6-23c9-1.8,18-3.5,27-5.3c1.1,1.8,3,1.3,4.6,1.7
			c-6.3,14.2-14.6,27.3-22.2,40.8c-27.6,49.6-55.3,99.1-83,148.6c-5.9,10.5-14.8,18.6-23.4,26.7c-39.9,37.8-84.8,67.7-136.9,86.1
			c-14.4,5.1-29,9.2-44.8,12.1C341.7,949.5,329.9,890.2,332.3,827.7z" />
            <path fill-rule="evenodd" clip-rule="evenodd" fill="#9C834E" d="M680.7,691c0.5-0.5,0.9-1.1,1.4-1.6
			C681.6,689.9,681.2,690.4,680.7,691z" />
            <path fill-rule="evenodd" clip-rule="evenodd" fill="#F8C807" d="M584.2,425.2c8.5,0,15.1,6.5,15.1,15.1c0,8.4-6.8,15.3-15,15.3
			c-8.2,0-15.1-7-15.2-15.3C569.1,431.8,575.7,425.2,584.2,425.2z" />
            <path fill-rule="evenodd" clip-rule="evenodd" fill="#F6C707" d="M819,522.3c-0.1,7.9-5.8,14.1-12.8,13.8
			c-7.3-0.3-13.6-7.9-13.5-16.2c0.1-7.9,6-14.2,12.8-13.8C813,506.5,819.2,513.9,819,522.3z" />
            <path fill-rule="evenodd" clip-rule="evenodd" fill="none" d="M676.2,689.2c-9,1.8-18,3.4-27,5.3c-19.1,3.9-36.8,11.3-53.6,23
			c0.8-3.8,1.3-6.5,1.9-9.2c1.4-7.5,0.4-14.6-4.2-20.8c-13.3-18-23.9-37.7-34.5-57.3c-1.9-3.5-4.3-5.4-7.9-6.8
			c-39.8-15.9-79.5-32-119.1-49.2c8.3,1.5,16.5,3,24.8,4.6c34.2,6.6,68.5,13.3,102.7,19.9c3.2,0.6,6,1.5,8.6,3.6
			c35.2,28.2,70.5,56.3,105.8,84.4C674.6,687.3,675.4,688.3,676.2,689.2z" />
        </g>
    </g>
</svg>