<?xml version="1.0" encoding="utf-8"?>
<!-- Generator: Adobe Illustrator 16.0.0, SVG Export Plug-In . SVG Version: 6.00 Build 0)  -->
<!DOCTYPE svg PUBLIC "-//W3C//DTD SVG 1.1//EN" "http://www.w3.org/Graphics/SVG/1.1/DTD/svg11.dtd">
<svg version="1.1" xmlns="http://www.w3.org/2000/svg" xmlns:xlink="http://www.w3.org/1999/xlink" x="0px" y="0px" viewBox="0 0 390 490.2" enable-background="new 0 0 390 490.2" xml:space="preserve">
<g id="feather">
	<path stroke="#000000" stroke-width="0.25" stroke-miterlimit="10" d="M14.8,107l10-12l-13.5,4c0,0,3.5-24,21.5-29.5s-6-2-9.5,0
		s26.3-45,77.2-43c-6.8-4.4-10.5-4.8-18.7-6C146-14.3,193.2,37,193.2,37s-4.3-19.6-20.5-29.8c47.8,3,72.3,39.5,72.3,39.5
		s-1.8-12-4.5-16.5c2.1,0.1,44.3,24.1,60.3,68.6c-5,2-10.5,5-10.5,5l13.8,1.2c0,0,15.8,31.2,14.7,68.9c-5.9-2.3-9.3-1-9.3-1
		c2.6,1.3,6.5,6.3,9,11.6c-1.1,27.2-2.1,30.4-4.6,76.5c-2.1,37,6.9,32.9,9,44.1c1,1.9-41.5,6-53.5-30.8s-10.5-80.8-15.5-99.8
		s14.7-21.5-43.2-45.5c-57.8-24-67.8-24.5-89.8-23s-30,6.8-31.5,10.8c0,0-2.5-10.6-7.2-15C47.3,89,15.6,106.6,14.8,107
		C14.8,107,14.8,107,14.8,107"/>
</g>
<g id="Layer_5">
	<path fill="#9E9E9E" d="M98.3,156.6c0,0-7.8-48.2-16.2-54.8c8.5-6.9,68-28.7,123.7,0c46.1,23.7,62.5,53.5,66.5,107.6
		s0.4,74.5,4.3,78.9s-14.5-14.1-14.8-35c-3.7-17.2-9-29.3-14-29.3c-1.5-37.2-25.5-65.5-25.5-65.5l-19.9,15.1l-9.2-9.2l17-16.4
		c0,0-30.5-29.4-76.7-21.7c0.2,2,3.8,24.2,3.8,24.2L98.3,156.6z"/>
	<g opacity="0.2">
		<path fill="#FFFFFF" d="M50.2,69l-19.3-5.2c0,0,21.2-29.2,54-31.3c-23.5,10.2-40,23-42.5,28.2C45,65.8,50.2,69,50.2,69z"/>
		<path fill="#FFFFFF" d="M128.4,40.3c0,0-29.3-22.1-33.4-23s34-15.3,65.2,3.2c-25.1-4.8-43-2.7-48,0.2
			C119.2,27.5,128.4,40.3,128.4,40.3z"/>
		<path fill="#FFFFFF" d="M203.2,47c0,0-11.2-28.2-16.3-32.7c-5.9-5.1,30.5,3.2,48.2,31.5c-19.8-13-25.5-15.8-31.4-17.4
			C205.7,38.1,203.2,47,203.2,47z"/>
		<path fill="#FFFFFF" d="M251.3,64.1c0,0,0.2-18.9-2.2-22.7c-2.8-4.3,21.4,9,25.9,29.5c-10.7-12.2-14-15.1-17.8-17.4
			C255.9,59.6,251.3,64.1,251.3,64.1z"/>
		<path fill="#FFFFFF" d="M284.6,109.5l20.3,2.8l8.3,33.3c0,0-8.4-23.8-14.3-29.5C296,113.2,284.6,109.5,284.6,109.5z"/>
		<path fill="#FFFFFF" d="M305.8,174.5l8.5,12.3c0,0,1.3,30-4.3,41.8C311.8,194,307.8,184,305.8,174.5z"/>
		<path fill="#FFFFFF" d="M104.2,145.5c0,0-12.8-32.8-14.4-41c85.7-32.3,139.7,4.9,167.4,57.3c-38.3-66.9-126-62-154.2-49.3
			C102,134.5,104.2,145.5,104.2,145.5z"/>
		<path fill="#FFFFFF" d="M231.8,159.5c0,0,17.3,28.9,18.8,63.4c4.6,5.5,10.1,7.6,14.7,30.1c2.5-6.9,4.7-26.8-8.2-33.5
			C252.3,215.4,262.8,193.5,231.8,159.5z"/>
		<path fill="#FFFFFF" d="M211.7,149.1c0,0-11,8.9-11.4,11.6s3.8,4.9,3.8,4.9s10.9-13.1,11.6-13.1S211.7,149.1,211.7,149.1z"/>
	</g>
</g>
<g id="helmet">
	<path fill="none" stroke="#000000" stroke-miterlimit="10" d="M127.9,323.9c0.1,0,0.1,0,0.2,0L127.9,323.9"/>
	<path fill="none" stroke="#000000" stroke-width="0.25" stroke-miterlimit="10" d="M74.4,171.3"/>
	<path fill="none" stroke="#000000" stroke-width="0.25" stroke-miterlimit="10" d="M81.8,164.4c14.6,15.4,51.9,33.8,62.4,33.9"/>
	<path d="M64,188.9c0.7,21.6,0.2,64.1-21.5,103c1.5,1.5,8.9-0.4,8.9-0.4s12.4-70.6,61.4-47.3c-0.8,5.1-45.3,21.4-45.3,21.4
		s1,67-22.7,114.7c33-27.3,81-59.7,105.3-64.7c2.7-0.7-11.3-52.3,10-58.7c21.5-6.4,19.6,29.3,19.6,29.3l55.7,21.6l0.7-3.6
		c0,0-23.7-29.5-2.6-51.5c-1-3.4-4.1-8.2-12.4-13.8c0,0,11.9,3.6,14.9,11.4l0,0l0,0c1-1.3,3.8-2.9,4.8-4.1v-7.5
		c-10-6.3-33.6-18.6-39.1-21.9l38.3,15.6c-0.7-50.2-42.4-90.8-94.1-90.8c-23.9,0-47,8.6-64.2,22.9c14.6,15.4,51.9,33.8,62.5,33.9
		c-15.9,5.3-53.2-18.3-67.7-28.5c-3.1,3.2-9.2,9.9-11.7,13.5c13.4,9.7,43,26.2,77.3,34.7C132.1,219.8,84,204.4,64,188.9z"/>
</g>
<g id="shine">
	<path opacity="0.5" fill="#FFFFFF" d="M88.2,166.1c0,0,51.3-40.8,112.3,0c24.9,16.6-2.5-5.3-34.7-9c-23.9-2.7-55.7,10-55.7,10
		l24.3,24.3c0,0-20.2-7.9-28.2-13.3C99.6,173.5,88.2,166.1,88.2,166.1z"/>
	<path opacity="0.5" fill="#FFFFFF" d="M49.5,282.5c0,0,8-20.9,13.7-43.1c4.3-16.6,6.9-34.6,5.5-43c16,12.4,61.3,27.1,61.3,27.1
		s-18.6-3-29.7-5.3c-10.8-2.3-22.2-6.9-22.2-6.9L67,241.9l-14.8,40.6H49.5z"/>
	<path opacity="0.5" fill="#FFFFFF" d="M115.8,253.5c0,0-31,13.3-40.7,17.3c3,35.7-11,78.7-11,78.7l56.7-34.3
		C120.8,315.1,44.5,321.8,115.8,253.5z"/>
	<path opacity="0.5" fill="#FFFFFF" d="M143.6,309.7l-9.3,2c0,0-3.8-37.3,4.6-50.9s25.9-12.1,32.1-9.1c-4.1,0.3-13.2-1.5-21.4,7.1
		C145.6,263.1,144.1,265.2,143.6,309.7z"/>
	<path opacity="0.5" fill="#FFFFFF" d="M189.1,283.7c0,0,42.1,20.3,40.8,18.5c-9.3-11.7-9.3-28-9.3-28s-4,9.8-2.5,17
		C210.9,288.2,189.1,283.7,189.1,283.7z"/>
	<path opacity="0.5" fill="#FFFFFF" d="M77.3,174.5c0,0,47.6,31.4,83.8,34c-33.1,7-88-28.4-88-28.4L77.3,174.5z"/>
	<polygon opacity="0.5" fill="#FFFFFF" points="193.2,216.5 238.2,240.5 236.8,245.5 	"/>
	<path d="M378.8,395c-22.5-15.1-38.3-6.5-46-3.4c-35.3,17.4-13.5,27.4-78,25.6c-69.3-8-84,66-84,66s-55.5-53,34.5-124
		c-30,10.5-57.3,61.8-57.3,61.8s-21.9,32-39.3,11.8c-19.8-32.5-66.3,15.8-66.3,15.8l25.8-53c0,0,6-15.3,27.5-18.5
		c12.8-7.5,9.3-11.5,19-21c7-6.8,15.8-18.5,18.7,0c1.2,7.7,4.3,10.5,4.3,10.5l-10,16c0,0,81.6-94,197.5-65c6.4,1.6-43-2-66.5,25.5
		c0,0,35.3-21.2,53.3-17.8s40.8,13.5,40.8,13.5s-44.8-2-60,12.2c14.8-7.6,39-8.6,46.5-4.8C354.8,353.7,365.7,366.5,378.8,395z"/>
	<path opacity="0.5" fill="#FFFFFF" d="M103.1,383.5c0,0-16.5,2.3-22.5,7.3s-16.4,34.7-16.4,34.7s18.2-17,40.4-4.6
		c21.9,12.2,20.7,12.9,37.1-1.7s-14.2,14.7-26.2-4.4c-2.3-3.6-9.3-13.5-30.3-7.7C86.6,402,98.7,384.1,103.1,383.5z"/>
	<path opacity="0.5" fill="#FFFFFF" d="M177.7,347.7c0,0,57.6-34.1,122-32c-18.6,3.3-72.9,38.2-72.9,38.2s17.9-20.9,29-26.5
		C239.8,325.9,177.7,347.7,177.7,347.7z"/>
	<path opacity="0.5" fill="#FFFFFF" d="M169.6,465.5c0,0-32.3-40.5,48-78c-34.3,18.1-45.5,56-45.5,56s22.4-40.7,67.1-32.5
		C191.5,408.9,169.6,464,169.6,465.5z"/>
	<path opacity="0.5" fill="#FFFFFF" d="M225.8,382.5c0,0,25.1,0.3,63.8-24.5c24.9-16,43.8-9.3,46.5-8.8
		c-10.9,1.8-32.9,7.3-49.5,19.8C266.8,383.8,233.2,385.6,225.8,382.5z"/>
	<path opacity="0.5" fill="#FFFFFF" d="M368.8,383.8c-2.3-8.5-10.5-19-16.5-22.4c-7.3-1.6-25.1-4.4-45,6.5c23-3.6,44-3.3,47.8,4.2
		c2.1,3.8-17.8-10.4-50.5,22.7C349.8,368.1,368.5,385.7,368.8,383.8z"/>
</g>
<g id="Layer_6">
</g>
</svg>
