<?xml version="1.0" encoding="utf-8"?>
<!-- Generator: Adobe Illustrator 16.0.0, SVG Export Plug-In . SVG Version: 6.00 Build 0)  -->
<!DOCTYPE svg PUBLIC "-//W3C//DTD SVG 1.1//EN" "http://www.w3.org/Graphics/SVG/1.1/DTD/svg11.dtd">
<svg version="1.1" id="Layer_1" xmlns="http://www.w3.org/2000/svg" xmlns:xlink="http://www.w3.org/1999/xlink" x="0px" y="0px"
	  viewBox="0 0 650.7 405" enable-background="new 0 0 650.7 405" xml:space="preserve">
<linearGradient id="SVGID_1_" gradientUnits="userSpaceOnUse" x1="287.8892" y1="249.6655" x2="287.8892" y2="167.7295">
	<stop  offset="0" style="stop-color:#576175"/>
	<stop  offset="1" style="stop-color:#23263B"/>
</linearGradient>
<path fill="url(#SVGID_1_)" d="M320.9,249.4c0,0-22.2,3-34.5-13.3s-11.9-32.3-11.9-32.3s-15.7-8-19.4-20.3s36.5-15.7,36.5-15.7
	s13.1,11.6,13.3,16.4c0.1,2.4,0.8,4.5-4.6,8.3c-2.8,1.9-6.5,3.2-7.6,5.2c-2.7,4.7-1.3,16.5-0.1,21.8c0.5,2.2,2.7,8.8,2.7,8.8
	l7.5,8.8l9,5.5l9.2,3.7V249.4z"/>
<linearGradient id="SVGID_2_" gradientUnits="userSpaceOnUse" x1="368.2715" y1="36.8076" x2="368.2715" y2="166.4497">
	<stop  offset="0" style="stop-color:#576175"/>
	<stop  offset="1" style="stop-color:#23263B"/>
</linearGradient>
<path fill="url(#SVGID_2_)" d="M630.5,75.9c0,0.1,0,0.2,0,0.2s0.6,5.9-7.5,19.6c-7.3,12.3-14,15.3-14,15.3l-183.5,0.5l-5.5,23l-6,15
	v36.8l-17.9-0.1c0,0-12.9,3.3-16.2,6.1c-2.7,2.4-6.9,12.6-6.9,12.6l-8-1.3c0,0-2.5-10-4.6-12.7c-2.9-3.5-11.6-7.4-16-8.7
	c-9.5-2.7-39.3-2.7-39.3-2.7s-27.8,0.9-36.5,4.3c-6.2,2.4-16.4,9.3-19.7,15c-3.5,6-8.7,26.8-8.7,26.8h-7.7c0,0-132-61-129.3-65
	s16.7-27.5,18-34.2c1.3-6.7,4-23,28.7-23.8c68.7-2,82.3-62,82.3-62h10V26.9c0,0,24.8-1.9,29.5,0.3s9.5,0.3,9.5,0.3h346
	c0,0,4.3,6.3,4.8,8.8c0.5,2.6,0.8,10.1,0.8,10.1s0.1,0.6,0.2,1.7c0.3,3,1,8.8,1,11.2C633.8,63.3,630.8,74.5,630.5,75.9z"/>
<linearGradient id="SVGID_3_" gradientUnits="userSpaceOnUse" x1="478.4141" y1="105.6157" x2="478.4141" y2="85.3935">
	<stop  offset="0" style="stop-color:#576175"/>
	<stop  offset="1" style="stop-color:#23263B"/>
</linearGradient>
<path fill="url(#SVGID_3_)" d="M540.9,96.1c0,5.7-4.6,10.3-10.3,10.3H426.2c-5.7,0-10.3-4.6-10.3-10.3v-0.3
	c0-5.7,4.6-10.3,10.3-10.3h104.3c5.7,0,10.3,4.6,10.3,10.3V96.1z"/>
<linearGradient id="SVGID_4_" gradientUnits="userSpaceOnUse" x1="467.4141" y1="91.9492" x2="467.4141" y2="100.7517">
	<stop  offset="0" style="stop-color:#23263B"/>
	<stop  offset="0.2796" style="stop-color:#3C4257"/>
	<stop  offset="0.5484" style="stop-color:#FFFFFF"/>
	<stop  offset="0.7957" style="stop-color:#3C4257"/>
	<stop  offset="1" style="stop-color:#23263B"/>
</linearGradient>
<rect x="421.9" y="90.4" fill="url(#SVGID_4_)" width="91" height="13"/>
<linearGradient id="SVGID_5_" gradientUnits="userSpaceOnUse" x1="531.791" y1="49.6992" x2="531.791" y2="73.7929">
	<stop  offset="0" style="stop-color:#23263B"/>
	<stop  offset="0.2796" style="stop-color:#3C4257"/>
	<stop  offset="0.5484" style="stop-color:#FFFFFF"/>
	<stop  offset="0.7957" style="stop-color:#3C4257"/>
	<stop  offset="1" style="stop-color:#23263B"/>
</linearGradient>
<path fill="url(#SVGID_5_)" d="M630.5,76.4H429.9v-28h202.7c0.3,2,1,8.8,1,11.3C633.8,63.7,630.8,74.4,630.5,76.4z"/>
<linearGradient id="SVGID_6_" gradientUnits="userSpaceOnUse" x1="407.9141" y1="78.4492" x2="407.9141" y2="45.4492">
	<stop  offset="0" style="stop-color:#23263B"/>
	<stop  offset="0.2796" style="stop-color:#3C4257"/>
	<stop  offset="0.5484" style="stop-color:#FFFFFF"/>
	<stop  offset="0.7957" style="stop-color:#3C4257"/>
	<stop  offset="1" style="stop-color:#23263B"/>
</linearGradient>
<rect x="385.9" y="45.4" fill="url(#SVGID_6_)" width="44" height="33"/>
<linearGradient id="SVGID_7_" gradientUnits="userSpaceOnUse" x1="407.9141" y1="149.4492" x2="407.9141" y2="78.4492">
	<stop  offset="0" style="stop-color:#23263B"/>
	<stop  offset="0.2796" style="stop-color:#3C4257"/>
	<stop  offset="0.5484" style="stop-color:#FFFFFF"/>
	<stop  offset="0.7957" style="stop-color:#3C4257"/>
	<stop  offset="1" style="stop-color:#23263B"/>
</linearGradient>
<polygon fill="url(#SVGID_7_)" points="385.9,78.4 429.9,78.4 429.9,112.4 416.4,149.4 385.9,149.4 "/>
<linearGradient id="SVGID_8_" gradientUnits="userSpaceOnUse" x1="399.9141" y1="180.4492" x2="399.9141" y2="150.4492">
	<stop  offset="0" style="stop-color:#576175"/>
	<stop  offset="1" style="stop-color:#23263B"/>
</linearGradient>
<rect x="384.9" y="150.4" fill="url(#SVGID_8_)" width="30" height="30"/>
<linearGradient id="SVGID_9_" gradientUnits="userSpaceOnUse" x1="466.4141" y1="44.4492" x2="466.4141" y2="35.4492">
	<stop  offset="0" style="stop-color:#FFFFFF"/>
	<stop  offset="1" style="stop-color:#23263B"/>
</linearGradient>
<path fill="url(#SVGID_9_)" d="M493.9,39.9c0,2.5-2,4.5-4.5,4.5h-46c-2.5,0-4.5-2-4.5-4.5l0,0c0-2.5,2-4.5,4.5-4.5h46
	C491.9,35.4,493.9,37.5,493.9,39.9L493.9,39.9z"/>
<linearGradient id="SVGID_10_" gradientUnits="userSpaceOnUse" x1="530.4141" y1="44.4492" x2="530.4141" y2="35.4492">
	<stop  offset="0" style="stop-color:#FFFFFF"/>
	<stop  offset="1" style="stop-color:#23263B"/>
</linearGradient>
<path fill="url(#SVGID_10_)" d="M557.9,39.9c0,2.5-2,4.5-4.5,4.5h-46c-2.5,0-4.5-2-4.5-4.5l0,0c0-2.5,2-4.5,4.5-4.5h46
	C555.9,35.4,557.9,37.5,557.9,39.9L557.9,39.9z"/>
<linearGradient id="SVGID_11_" gradientUnits="userSpaceOnUse" x1="593.4141" y1="44.4492" x2="593.4141" y2="35.4492">
	<stop  offset="0" style="stop-color:#FFFFFF"/>
	<stop  offset="1" style="stop-color:#23263B"/>
</linearGradient>
<path fill="url(#SVGID_11_)" d="M620.9,39.9c0,2.5-2,4.5-4.5,4.5h-46c-2.5,0-4.5-2-4.5-4.5l0,0c0-2.5,2-4.5,4.5-4.5h46
	C618.9,35.4,620.9,37.5,620.9,39.9L620.9,39.9z"/>
<linearGradient id="SVGID_12_" gradientUnits="userSpaceOnUse" x1="595.9141" y1="30.4492" x2="595.9141" y2="10.0015">
	<stop  offset="0" style="stop-color:#576175"/>
	<stop  offset="1" style="stop-color:#23263B"/>
</linearGradient>
<path fill="url(#SVGID_12_)" d="M621.4,16.9c0,0-7-10.7-22-5.4s-36.5,12-36.5,12v7h66l-2-3.3L621.4,16.9z"/>
<radialGradient id="SVGID_13_" cx="255.2471" cy="93.7827" r="34.3346" gradientUnits="userSpaceOnUse">
	<stop  offset="0" style="stop-color:#576175"/>
	<stop  offset="0.7184" style="stop-color:#23263B"/>
</radialGradient>
<ellipse fill="url(#SVGID_13_)" cx="270.2" cy="93.8" rx="34.7" ry="41"/>
<linearGradient id="SVGID_14_" gradientUnits="userSpaceOnUse" x1="383.9141" y1="81.4492" x2="383.9141" y2="45.4492">
	<stop  offset="0" style="stop-color:#23263B"/>
	<stop  offset="0.2796" style="stop-color:#3C4257"/>
	<stop  offset="0.5484" style="stop-color:#FFFFFF"/>
	<stop  offset="0.7957" style="stop-color:#3C4257"/>
	<stop  offset="1" style="stop-color:#23263B"/>
</linearGradient>
<rect x="372.9" y="45.4" fill="url(#SVGID_14_)" width="22" height="36"/>
<linearGradient id="SVGID_15_" gradientUnits="userSpaceOnUse" x1="383.9141" y1="115.4492" x2="383.9141" y2="81.4492">
	<stop  offset="0" style="stop-color:#23263B"/>
	<stop  offset="0.2796" style="stop-color:#3C4257"/>
	<stop  offset="0.5484" style="stop-color:#FFFFFF"/>
	<stop  offset="0.7957" style="stop-color:#3C4257"/>
	<stop  offset="1" style="stop-color:#23263B"/>
</linearGradient>
<rect x="372.9" y="81.4" fill="url(#SVGID_15_)" width="22" height="34"/>
<linearGradient id="SVGID_16_" gradientUnits="userSpaceOnUse" x1="383.9141" y1="150.4492" x2="383.9141" y2="115.4492">
	<stop  offset="0" style="stop-color:#23263B"/>
	<stop  offset="0.2796" style="stop-color:#3C4257"/>
	<stop  offset="0.5484" style="stop-color:#FFFFFF"/>
	<stop  offset="0.7957" style="stop-color:#3C4257"/>
	<stop  offset="1" style="stop-color:#23263B"/>
</linearGradient>
<rect x="372.9" y="115.4" fill="url(#SVGID_16_)" width="22" height="35"/>
<linearGradient id="SVGID_17_" gradientUnits="userSpaceOnUse" x1="314.3789" y1="133.9492" x2="314.3789" y2="51.9435">
	<stop  offset="0" style="stop-color:#23263B"/>
	<stop  offset="0.2796" style="stop-color:#3C4257"/>
	<stop  offset="0.5484" style="stop-color:#FFFFFF"/>
	<stop  offset="0.7957" style="stop-color:#3C4257"/>
	<stop  offset="1" style="stop-color:#23263B"/>
</linearGradient>
<path fill="url(#SVGID_17_)" d="M259.4,45.4h119.5v104H259.4c0,0-5.7-20-7-26.8c-1.2-6.3-2.3-19.2-2.5-25.6
	c-0.2-6.1-0.1-18.2,1-24.1C252.2,65.8,259.4,45.4,259.4,45.4z"/>
<path fill="#485766" d="M233.9,42.4h-15c0,0-4.6,11.6-14.7,9.4c-10.7-2.3-15.6-9.4-15.6-9.4h-23.8l0.3,8.3c0,0,14.7-1.5,18.5-0.1
	c2.2,0.8,4.3,4,7.3,6s4,3.5,4,7s1,12.7,0,17.2c-1,4.4-8.3,4.7-12.3,5.9c-9.4,2.7-10.3,3.8-14,7.2s-9.5,8.9-9.5,10.4s31-5.5,31-5.5
	l30-20.5L233.9,42.4z"/>
<linearGradient id="SVGID_18_" gradientUnits="userSpaceOnUse" x1="199.2485" y1="129.4492" x2="199.2485" y2="100.2153">
	<stop  offset="0" style="stop-color:#576175"/>
	<stop  offset="1" style="stop-color:#23263B"/>
</linearGradient>
<path fill="url(#SVGID_18_)" d="M213.5,100.2c-0.1,0,0.4,0-0.6,0v0l-29.2,1.8c-0.3,0-0.5-0.1-0.8-0.1c-6.4,0-11.6,5.5-11.6,12.4
	c0,6.2,4.3,11.2,9.8,12.2l-0.2,0.2l32,2.8v-0.3c1,0,0.5,0,0.6,0c7.5,0,13.6-6.5,13.6-14.5S221.1,100.2,213.5,100.2z"/>
<radialGradient id="SVGID_19_" cx="195.4141" cy="114.832" r="8.3315" gradientUnits="userSpaceOnUse">
	<stop  offset="0" style="stop-color:#FFFFFF"/>
	<stop  offset="1" style="stop-color:#23263B"/>
</radialGradient>
<ellipse fill="url(#SVGID_19_)" cx="195.4" cy="114.8" rx="8.1" ry="8.6"/>
<path fill="#485766" d="M241.9,39.9c0,1.9-1.6,3.5-3.5,3.5l0,0c-1.9,0-3.5-1.6-3.5-3.5v-21c0-1.9,1.6-3.5,3.5-3.5l0,0
	c1.9,0,3.5,1.6,3.5,3.5V39.9z"/>
<path fill="#975024" d="M171.4,131.4c0,0-14-30.2-39-16.6c-9.7,10.6-10.5,20-15.8,28.4c-5.5,8.7-35.7,49.2-37.7,58.2s51,5,51,5
	l73.6,5.1l25.9,13.4c0,0,3.3-5.8,1.7-17.8c-0.8-10-2.7-24-18.7-39c-12.2-11-13.7-9.9-23-13c-4.4-1.5-12.7-13.7-12.7-13.7
	L171.4,131.4z"/>
<path fill="#23263B" d="M362.3,183.2c-0.2,2.5-1.2,4.5-1.4,5c-0.5,1.2,5.4,12.3,4.8,16.5c-1.9,12.7-5,27.8-30.1,45.4
	c-27.2,12.3-49.4,17.1-72.4,9.3c-23.7-10.3-20.9-40-20.6-42.5c0.2-1.9,2.6-22.1,6.7-34.2c-7.2,6.2-14.4,39.7-14.8,42.2
	c-0.3,2.5,0,32.3,25,42.5c24.3,12,47.7,3,76.3-9.3c27.9-14.9,36.7-44.7,36.7-44.7s1.3-10.9,1.8-12
	C374.9,200.4,370.5,190.4,362.3,183.2z"/>
<linearGradient id="SVGID_20_" gradientUnits="userSpaceOnUse" x1="337.7896" y1="76.4492" x2="337.7896" y2="57.916">
	<stop  offset="0" style="stop-color:#FFFFFF"/>
	<stop  offset="1" style="stop-color:#23263B"/>
</linearGradient>
<path fill="url(#SVGID_20_)" d="M335.7,58.4c-1-1-2.1-0.3-3.1-0.3c-19.7,0-35.9,3.9-35.9,8.9c0,5,16.3,8.8,35.3,8.9v0.5h47v-18
	H335.7z"/>
<linearGradient id="SVGID_21_" gradientUnits="userSpaceOnUse" x1="337.7896" y1="111.4492" x2="337.7896" y2="92.916">
	<stop  offset="0" style="stop-color:#FFFFFF"/>
	<stop  offset="1" style="stop-color:#23263B"/>
</linearGradient>
<path fill="url(#SVGID_21_)" d="M335.7,93.4c-1-1-2.1-0.3-3.1-0.3c-19.7,0-35.9,3.9-35.9,8.9c0,5,16.3,8.8,35.3,8.9v0.5h47v-18
	H335.7z"/>
<linearGradient id="SVGID_22_" gradientUnits="userSpaceOnUse" x1="337.7896" y1="144.4492" x2="337.7896" y2="125.916">
	<stop  offset="0" style="stop-color:#FFFFFF"/>
	<stop  offset="1" style="stop-color:#23263B"/>
</linearGradient>
<path fill="url(#SVGID_22_)" d="M335.7,126.4c-1-1-2.1-0.3-3.1-0.3c-19.7,0-35.9,3.9-35.9,8.9c0,5,16.3,8.8,35.3,8.9v0.5h47v-18
	H335.7z"/>
<path fill="#874216" d="M199.2,169.4c-9.4-4.8-1.6-0.1-14.1-7.5c-18.1-10.7-7.9-15.2-17.6-26.8c-9.4-11.3-27.3-19.1-35.3-0.4
	s-25.9,34.8-29.4,44.2s-13.3,17.2-13.3,21.8s35.3-4,42.7-4s25.3-3.3,34.7,2.7s29.1,8.2,36.6,12.1s20.8,12.8,21.4,8.5s0-11.3,0-18.7
	s-5-11-8.3-17C210.3,175.7,205.6,172.7,199.2,169.4z"/>
<path fill="#6D2E03" d="M229.6,223.9c0,0-2.5-17.9-42.4-29.4s-69.7-14.1-91.9-3.5c-14.1,6.8-9.7,5.5-15.3,8.9
	c-10.1,11.6-36.4,71.5-36.4,71.5l-24.3,67.1c0,0-7.1,32.6,3.1,41.6c7.6,6.7,8.4,12.4,36.4,14.4s52.5-2.4,57-4
	c6.9-2.4,26-9.1,32.1-17.1c3-12.8,9.9-24.6,9.9-24.6s6.2-10.9,6.3-15c0.1-5.2-7.5-19.3-7.5-19.3s-2.4-11.2-1.5-14.8
	c1.5-5.6,11.5-16.1,12.2-19.8c1.5-7.5-3.8-22.7-3.1-30.3c0.4-4,3.4-11.7,5.3-15.2c1.5-2.8,5.8-7.8,8.5-9.5c3.4-2.2,11.5-3.6,15.5-4
	c6-0.6,24.3,1,24.3,1"/>
<path fill="#5C2404" d="M140.2,224.9l-1.7,3c0,0-6.2,9.7-7.7,13.2c-1.9,4.6-4,14.4-4.3,19.3c-0.4,5.3,1.7,21.4,1.7,21.4l-7.8,12.8
	c0,0-4.8,8.7-5.6,11.9c-1.7,6.4-3.6,19.8-2.3,26.3c1,5.3,8.7,19.7,8.7,19.7l-8,13l-5.7,13.7c0,0-28.7,4-60,1.3
	c-30.3-13.3-19.7-35.7-22-41.3s18.3-59.3,35-84.3s78-31.7,78-31.7"/>
</svg>
