<?xml version="1.0" encoding="utf-8"?>
<!-- Generator: Adobe Illustrator 16.0.0, SVG Export Plug-In . SVG Version: 6.00 Build 0)  -->
<!DOCTYPE svg PUBLIC "-//W3C//DTD SVG 1.1//EN" "http://www.w3.org/Graphics/SVG/1.1/DTD/svg11.dtd">
<svg version="1.1" id="Layer_1" xmlns="http://www.w3.org/2000/svg" xmlns:xlink="http://www.w3.org/1999/xlink" x="0px" y="0px"
	 viewBox="0 0 950 600" enable-background="new 0 0 950 600" xml:space="preserve">
<polyline fill="none" stroke="#000000" stroke-miterlimit="10" points="930.9,63.6 930.9,39.1 658.9,39.1 658.9,63.1 658.9,118.1 
	658.9,170.1 930.9,170.1 930.9,118.6 "/>
<g>
	<rect x="680.9" y="45.1" fill="none" stroke="#000000" stroke-miterlimit="10" width="71" height="14"/>
	<rect x="761.9" y="45.1" fill="none" stroke="#000000" stroke-miterlimit="10" width="71" height="14"/>
	<rect x="841.9" y="45.1" fill="none" stroke="#000000" stroke-miterlimit="10" width="71" height="14"/>
</g>
<g>
	<polyline fill="none" stroke="#000000" stroke-miterlimit="10" points="658.4,159.1 802.9,159.1 802.9,126.1 658.9,126.1 
		658.4,126.1 	"/>
	<line fill="none" stroke="#000000" stroke-miterlimit="10" x1="749.4" y1="148.1" x2="658.4" y2="148.1"/>
	<line fill="none" stroke="#000000" stroke-miterlimit="10" x1="749.4" y1="137.1" x2="658.4" y2="137.1"/>
	<polyline fill="none" stroke="#000000" stroke-miterlimit="10" points="776.4,137.1 776.6,137.1 779.4,137.1 	"/>
	<polyline fill="none" stroke="#000000" stroke-miterlimit="10" points="779.4,148.1 776.6,148.1 776.4,148.1 	"/>
	<rect x="749.9" y="130.1" fill="none" stroke="#000000" stroke-miterlimit="10" width="27" height="26"/>
	<rect x="779.9" y="130.1" fill="none" stroke="#000000" stroke-miterlimit="10" width="17" height="26"/>
</g>
<path fill="none" stroke="#000000" stroke-miterlimit="10" d="M840.4,39.1L888.7,21c0,0,33.2-9.4,38.4,18.2"/>
<rect x="658.9" y="63.1" fill="none" stroke="#000000" stroke-miterlimit="10" width="280" height="55"/>
<polygon fill="none" stroke="#000000" stroke-miterlimit="10" points="380.9,8.1 359.9,8.1 359.9,48.1 390.9,48.1 390.9,25.1 
	380.9,25.1 "/>
<path fill="none" stroke="#000000" stroke-miterlimit="10" d="M270.3,153c8.6-34.5,41.1-35,41.1-35l2.7-7c0,0-1.3-6-20.2-23.3
	c-18.9-17.3-53.3-9.2-55.5-16.2c-2.1-6.8,17.8-26.7,54.3,0.8c40.6,30.6,56-17.8,56-17.8c1.6-3,4-3.3,5.7-3.3"/>
<path fill="none" stroke="#000000" stroke-miterlimit="10" d="M187.8,166.3c-5.3,25.7-23.3,56.4-47.3,82.4s-53.5,80.1-82,133
	c-4.4,8.1-28.9,59.1-39.7,99.7c-7.7,29-7.7,43.7-7.7,48.7s0,22,20.3,30c30.8,12.1,72.7,30,147,31.7c27.3,0.7,74.3,0.3,79.3-7.8
	s2.8-11.3-0.3-20.3s-37.6-147.3-20-186c16.5-36.3,29.8-41.2,43.3-45c19.5-5.5,46-0.5,60.8-1c0.3-11.5,15.8-73.5-77-116
	c-18.7-13.8-26.3-31.2-35-52C228.2,160.7,190.9,151.1,187.8,166.3z"/>
<path fill="none" stroke="#000000" stroke-miterlimit="10" d="M207.4,329c0,0-26-68.7-66.7-36.7s-80,108-94,153.3s-23.7,75,4,90.7
	c27.3,12.7,43,23.7,118.7,26c35.5,1.1,52.9-2.7,50.7-22.7c-10-26.7-19.3-108.7-8.7-143.3S216.3,346.7,207.4,329z"/>
<circle fill="none" stroke="#000000" stroke-miterlimit="10" cx="224.9" cy="264.1" r="26.5"/>
<circle fill="none" stroke="#000000" stroke-miterlimit="10" cx="140.9" cy="407.1" r="19.5"/>
<path fill="none" stroke="#000000" stroke-miterlimit="10" d="M390.4,28.1h268.5v142c0,0-10,26.4-13.2,37.5c-2.4,8.4-7.2,26.5-10,40
	c-1.6,7.7-2.3,31.5-2.3,31.5h-71"/>
<line fill="none" stroke="#000000" stroke-miterlimit="10" x1="205.9" y1="157.6" x2="205.9" y2="153.6"/>
<line fill="none" stroke="#000000" stroke-miterlimit="10" x1="385.4" y1="51.1" x2="354.4" y2="51.1"/>
<path fill="none" stroke="#000000" stroke-miterlimit="10" d="M354.5,51.1c-0.2,6.8-1.6,14.5-4.6,23.5
	c-27.5,83.3-78.4,80.8-129.6,80.8c-5.2,0-10-0.5-14.4-1.4"/>
<path fill="none" stroke="#000000" stroke-miterlimit="10" d="M409.6,389.3c-30.1,0-54.4-28.5-54.4-58.6c0-30.1,24.4-54.6,54.4-54.6
	h63c30.1,0,54.4,24.5,54.4,54.6c0,30.1-24.4,58.5-54.4,58.5L409.6,389.3z"/>
<path fill="none" stroke="#000000" stroke-miterlimit="10" d="M538.6,327"/>
<path fill="none" stroke="#000000" stroke-miterlimit="10" d="M562.5,279.1c-2.9-4.3-16.7-15-23.4-15s-63.7,0-63.7,0h-70.5
	c-34.6,3-61.9,31.3-61.9,66.5c0,36.7,29.8,66.5,66.5,66.5h63c36.7,0,66.1-33.4,66.1-70.2C538.6,327,532,283.9,562.5,279.1z"/>
<path fill="none" stroke="#000000" stroke-miterlimit="10" d="M474.4,276.4"/>
<rect x="580.9" y="56.1" fill="none" stroke="#000000" stroke-miterlimit="10" width="78" height="114"/>
<rect x="407.9" y="59.1" fill="none" stroke="#000000" stroke-miterlimit="10" width="168" height="174"/>
<rect x="413.9" y="66.1" fill="none" stroke="#000000" stroke-miterlimit="10" width="156" height="160"/>
<path fill="none" stroke="#000000" stroke-miterlimit="10" d="M479.9,113.1L479.9,113.1c-0.1-0.1-0.3-0.1-0.4-0.1
	c-22.1,0-37,7.8-37,17.5s14.9,17.5,37,17.5c0.1,0,0.3,0,0.4,0v0.1h90v-35H479.9z"/>
<path fill="none" stroke="#000000" stroke-miterlimit="10" d="M479.9,183.1L479.9,183.1c-0.1-0.1-0.3-0.1-0.4-0.1
	c-22.1,0-37,7.8-37,17.5s14.9,17.5,37,17.5c0.1,0,0.3,0,0.4,0v0.1h90v-35H479.9z"/>
<path fill="none" stroke="#000000" stroke-miterlimit="10" d="M569.9,66.6v11.5h-90V78c-0.1,0-0.3,0-0.4,0
	c-17.6,0-30.7-4.7-35.2-11.6"/>
<rect x="396.9" y="91.1" fill="none" stroke="#000000" stroke-miterlimit="10" width="11" height="94"/>
<polygon fill="none" stroke="#000000" stroke-miterlimit="10" points="383.3,116.9 383,160.6 396.9,185.1 396.9,91.1 "/>
<path fill="none" stroke="#000000" stroke-miterlimit="10" d="M383.3,116.9c0,0-4.9,7.8-26.8,5.6c-2.6-0.2-5-1.7-7.8-1.7
	c-10.1,0-18.3,8.2-18.3,18.3s8.2,18.3,18.3,18.3c2.8,0,5.2-1.2,7.8-1.7c17.6-3.3,26.5,4.9,26.5,4.9"/>
<line fill="none" stroke="#000000" stroke-miterlimit="10" x1="385.9" y1="51.6" x2="385.9" y2="48.6"/>
<line fill="none" stroke="#000000" stroke-miterlimit="10" x1="417.4" y1="39.1" x2="619.4" y2="39.1"/>
<line fill="none" stroke="#000000" stroke-miterlimit="10" x1="417.4" y1="39.1" x2="400.1" y2="28.1"/>
<line fill="none" stroke="#000000" stroke-miterlimit="10" x1="619.4" y1="39.1" x2="638.4" y2="28.1"/>
<path fill="none" stroke="#000000" stroke-miterlimit="10" d="M479,378.6c-1.3,2.3-3.9,4.3-7.5,6c-31.6-0.1-57.2-25.7-57.2-57.3
	c0-10.3,2.7-19.9,7.4-28.2"/>
<path fill="none" stroke="#000000" stroke-miterlimit="10" d="M393.4,278.6l9.8-2.1l56.7-0.4V296c-13,6-23.9,26.1-23.9,38.7
	c0,23.2,18.9,42.2,42.8,43.9"/>
<path fill="none" stroke="#000000" stroke-miterlimit="10" d="M393.4,278.6c3.2,10.3,11.4,16,28.4,20.6"/>
<path fill="none" stroke="#000000" stroke-miterlimit="10" d="M471.6,384.7c3.6-1.7,6.2-3.7,7.5-6"/>
<circle fill="none" stroke="#000000" stroke-miterlimit="10" cx="442.4" cy="249" r="10.7"/>
<path fill="none" stroke="#000000" stroke-miterlimit="10" d="M434.4,106.1h3.5v6h-21v-6h3.5h0c0,0,0-17.5,0-17.6
	c0-4.2,3.1-7.4,6.8-7.4c3.8,0,6.8,3.3,6.8,7.5C434.1,88.7,434.4,106.1,434.4,106.1L434.4,106.1z"/>
<path fill="none" stroke="#000000" stroke-miterlimit="10" d="M434.4,146.1h3.5v6h-21v-6h3.5h0c0,0,0-17.5,0-17.6
	c0-4.2,3.1-7.4,6.8-7.4c3.8,0,6.8,3.3,6.8,7.5C434.1,128.7,434.4,146.1,434.4,146.1L434.4,146.1z"/>
<path fill="none" stroke="#000000" stroke-miterlimit="10" d="M434.4,186.1h3.5v6h-21v-6h3.5h0c0,0,0-17.5,0-17.6
	c0-4.2,3.1-7.4,6.8-7.4c3.8,0,6.8,3.3,6.8,7.5C434.1,168.7,434.4,186.1,434.4,186.1L434.4,186.1z"/>
</svg>
