<?xml version="1.0" encoding="utf-8"?>

<!DOCTYPE svg PUBLIC "-//W3C//DTD SVG 1.1//EN" "http://www.w3.org/Graphics/SVG/1.1/DTD/svg11.dtd">
<svg version="1.1" id="Layer_2" xmlns="http://www.w3.org/2000/svg" xmlns:xlink="http://www.w3.org/1999/xlink" x="0px" y="0px"
	 viewBox="0 0 762.6 915.7" enable-background="new 0 0 762.6 915.7" xml:space="preserve">
<g>
	<path fill="#FF0000" d="M35.4,58.2c0,0,188.9-79.8,248.5,0c-121.6,82.3-111.1,245.4-108.1,253S140.9,235.4,71,263.5
		c-6.9,2.8-24,2.8-24,2.8s-6.6-49,6.6-123.2C61.7,72.3,35.4,58.2,35.4,58.2z"/>
	<path fill="#FF0000" d="M40.7,299.6c-7.5,6.1-12.8,19.5-12.8,35.1s5.2,29,12.8,35.1c7.5-6.1,12.8-19.5,12.8-35.1
		S48.2,305.7,40.7,299.6z"/>
	<path fill="#FF0000" d="M68.7,288.6c-7.5,7-12.8,22.5-12.8,40.5s5.2,33.5,12.8,40.5c7.5-7,12.8-22.5,12.8-40.5
		S76.2,295.6,68.7,288.6z"/>
	<path fill="#FF0000" d="M101.7,276.7c-7.5,8-12.8,25.8-12.8,46.5c0,20.7,5.2,38.5,12.8,46.5c7.5-8,12.8-25.8,12.8-46.5
		C114.4,302.5,109.2,284.7,101.7,276.7z"/>
	<path fill="#FF0000" d="M132.7,291.6c-7.5,6.5-12.8,21-12.8,37.8c0,16.8,5.2,31.2,12.8,37.8c7.5-6.5,12.8-21,12.8-37.8
		C145.4,312.6,140.2,298.1,132.7,291.6z"/>
	<path fill="#FF0000" d="M119.9,380.2c0,0-57.5-27.8-90.5,23.8c-32.5,50.8,20.5,73.8,31.5,76.3s84.5,4.5,102-42.5
		c5.8-20.3,8-48.5,8-51s-1-31,4.5-40.5c0-1.3-32.2,1.6-36.5,45.3c-11,1.3-26,11.8-30.5,27.8s-16,29-16,29S63.4,427.7,119.9,380.2z"
		/>
	<path fill="#FF0000" d="M175.9,531.7c0,0,39,97.5,16.5,176.5c-29.5-11-105.5-11-133.5,9.5c-63-41.5-105-215.5,33-219
		C115.7,498.1,153.4,508.2,175.9,531.7z"/>
	<path fill="#FF0000" d="M422.1,3c-4.3,19.7-24.3,39.2-53.7,50.4c-16.8,6.5-34.2,10-46.3,2.6c-5.3-3.3-7.8-9.3-7.8-14.7
		c0-22.7,32.2-39.3,79-39.3C400.6,2,415.3,2.2,422.1,3z"/>
	<path fill="#FF0000" d="M327.9,70.4c0,0-15.9,9.9-26.6,13.5c-17.4,5.9-57.6,32.5-65.6,59.5C259.9,154.2,342.7,134.2,327.9,70.4z"/>
	<path fill="#FF0000" d="M415.6,54c0,0,8.2-4.8,16.3-22.9c7.7-17.3,18.2-31,22.7-31.1c10.1-0.2,138.8,75.9,90.3,120.7
		c-16.9,15.6-30.5,21.9-41,10.3c-5.4-6-8.5-16.7-18.5-27.8C472.1,88.3,449.5,70.7,415.6,54z"/>
	<path fill="#FF0000" d="M518.9,5.7c0,0,85-15.3,128,83.3c-6-2-34-4.8-49.5,0c-14.5,4.5-21.5,2.5-21.5,2.5s3.8-25.3-24.3-49.8
		C528.2,21.2,518.9,5.7,518.9,5.7z"/>
	<path fill="#FF0000" d="M638.9,17.7c0,0,61.3-17.8,96,30.7c16.4,22.9-5.5,32.8-5.5,32.8s-10.7,8-47.5,8
		c-9.3-21.7-15.2-30.8-24.5-42.7C650.3,37.4,638.9,17.7,638.9,17.7z"/>
	<path fill="#FF0000" d="M555.8,424.3c0,0-97.4-83.2-28.5-228.7c55.5-117.2,166.7-76.5,179.3-62.7c4.2,3.7,69.7,51.5,18.3,210.2
		c-14.7,45.3-7.8,75-1,93.8C711.2,431.2,661,390.3,555.8,424.3z"/>
	<path fill="#FF0000" d="M522.4,453.7c-112,39-137.5-6-163.5-10.5c-84,29.8-61.8-93.8-0.5-60.5c20.4,11,1.8,58.3,86.5,59.5
		c39.8-5.2,65.6-10.6,73.3-11c4.3-0.2-87.8-83.5-37.8-190.5c46.5-99.5-21.5-150.4-112.2-172.2c0,0-13.3,15.7-19.8,37.7
		s-19.6,46.5-64.5,53.5s-54.7,3.4-69.5,55c-16,56-13.4,176.4-4.5,210.5c9.7,37.2,50.5,172.5,258.5,92.5c106.6-41,125.5-9.9,135,24.3
		c8-12.3,20.1-18,44-18.3C646.2,521.8,613.4,422,522.4,453.7z M394.1,246c-4.5-0.2-11.9-6.3-13.3-7.5c-1.6-1.4-7.7-7.9-17.3-0.3
		c-5.7,4.5,0.1,30.9-13.8,22.2c-7.1-4.5-5.1-19.3,11.8-31.5c24.7-17.9,36-3.2,38.7,0.7C402.9,233.3,410,246.7,394.1,246z
		 M397.9,192.2c0,0-14.2,5.1-29.2,12.7c-23.8,12-41.4,10.4-41.4,10.4C339.2,183.8,395.3,190.1,397.9,192.2z"/>
	<path fill="#FF0000" stroke="#FF0000" stroke-miterlimit="10" d="M647.4,524.2C647.4,524.2,647.4,524.2,647.4,524.2L647.4,524.2z"
		/>
	<circle fill="#FF0000" cx="338.7" cy="414.4" r="15.8"/>
	<path fill="#FF0000" d="M680.9,584.5c0,24-26,34-47.8,32.7c-27.2-1.6-49.3-14.7-49.3-32.8s19.3-32.8,49.3-32.8
		C660.4,551.7,679.4,571.2,680.9,584.5z"/>
	<path fill="#FF0000" d="M610.4,443.2c0,0,58.5-34,102.5,45.5c15.4,45-18.8,63.4-30.5,69C673.7,538.4,676.7,461.7,610.4,443.2z"/>
	<path fill="#FF0000" d="M184.6,440.3c0,0,3,15.5-15.5,28.2c-20.2,13.8,3,26.8,9.8,34.5c7.9,8.9,18.2,16,27,38.8
		c4.7,12.2,12,14.8,12,14.8s7.4-31.1,9.3-36C224.9,518.7,187,464.4,184.6,440.3z"/>
	<path fill="#FF0000" d="M247.2,531.3c0,0,53,65.3,185,28.3c1.3,57.6-90.7,233.3-169.3,151.3C219.5,665.8,243.2,534.3,247.2,531.3z"
		/>
	<path fill="#FF0000" d="M581.4,548.7c0,0-9.5-53.5-122.5,0c0.5,35.8-26.7,123.5-70.3,160c-24.5,18.3-19.8,26.5-19.8,26.5
		s44.7-24,91.7-11.5c5.3,2.2-12.2-19.3,97.3-48.5c-11.5-6.5-33.8-39.5,4.3-72C561.7,597.9,546.7,569.4,581.4,548.7z"/>
	<path fill="#FF0000" d="M50.4,744.2c4-16,101-46.3,150.8-14.5c19.3,15.3-6.3,21.5-34.3,20.5c-15-0.5-56.2-7.6-85.3,2.3
		C63.9,758.4,48.7,751.2,50.4,744.2z"/>
	<path fill="#FF0000" d="M32.4,898.2c0,0-36.5-130.3,102-131.5c65-0.6,80,53.5,80.5,70.5s3.8,65.3-7,75.5
		c-32.5,1.8-27.6-17.6-35.5-12.5c-6.5,4.2-14.5,27.3-37-5c-6.8-9.8-10.5,43-38-2c-3.9-6.4-17.3,30.8-35-1.5
		C58.5,884.5,52.7,905.9,32.4,898.2z"/>
	<path fill="#FF0000" d="M253.5,752.6c0,0,65.8-10.3,115.1,2c7.1,1.8,2.2,5,10.7,25.7c9,22,15.1,41.9,15.3,64.7
		c0.2,18.4,2.2,48.6-10.3,52.3c-25.5,7.7-58.3,15.2-69.8,15.5c-17,0.4-55,7.3-65.2-2.2c-7.3-31.7,14.4-24.1,9.3-31
		c-4.2-5.7-26.7-9.7-0.7-29.7c9.1-7-32.6-18.6,2.7-40c6.2-3.8-32.9-15.5-0.6-31C267.1,775.5,245.7,770.4,253.5,752.6z"/>
	<path fill="#FF0000" d="M619.6,897.5c-52.2,7.8-97,4.9-141.7-3.8c4.7-14.6,13.9-49.1,15.3-68.2c3.3-44.4-13.7-65.1-25.3-81.1
		c26.4-25.3,73.7-40.1,121.9-47.3c88.9-13.2,164.4,17.8,172.1,84C769.9,849.7,708.5,884.2,619.6,897.5z"/>
	<path fill="#FF0000" d="M403.2,739.2c0,0,69.4-4,62,100.6c-2.9,40.7-32.5,65.4-46.7,62.2c-14.8-16.1,0.4-43,0-57.3
		C417.6,814.7,390.4,762.7,403.2,739.2z"/>
	<path fill="#FF0000" d="M595.2,646.5c0,8.2,1.3,24.8-15.5,24.8c-8.9,0-16.2-11.3-16.2-25.2c0-13.9,7.2-25.2,16.2-25.2
		c3.3,0,10.7-0.6,12.6,2.6C594.6,627.6,595.2,637.8,595.2,646.5z"/>
	<ellipse fill="#FF0000" cx="662.7" cy="652.2" rx="18.2" ry="31.2"/>
	<path fill="#FF0000" d="M717.6,644.3c0.8,19-14,27-17.2,27c-8.6,0-13.8-12.1-13.8-27c0-14.9,7.2-28.9,13.8-27
		C711.9,620.5,717.1,634,717.6,644.3z"/>
	<path fill="#FF0000" d="M638.9,652.9c-2,16.3-7.1,26.7-17.8,26.7s-19.5-13.7-19.5-30.5s7.8-28.8,25.6-29
		C632.4,620.1,641,636.2,638.9,652.9z"/>
</g>
</svg>
