<?xml version="1.0" encoding="utf-8"?>
<!DOCTYPE svg PUBLIC "-//W3C//DTD SVG 1.1//EN" "http://www.w3.org/Graphics/SVG/1.1/DTD/svg11.dtd">
<svg version="1.1" xmlns="http://www.w3.org/2000/svg" xmlns:xlink="http://www.w3.org/1999/xlink" x="0px" y="0px"
    viewBox="0 0 1172 1172" enable-background="new 0 0 1172 1172" xml:space="preserve">
    <g id="Layer_3">
        <circle fill="#ED1B24" cx="586" cy="586" r="586" />
    </g>
    <g id="Layer_1">
        <path fill="#F05829" d="M637,485c0,0,5-120,73-132s120-58,162-41s101,39,115,58s66,104,31,167s-109.9,78.2-134.7,106
		c-23,25.9-9,22-49.9,80c-32.1,45.5-75.4,9-137.4,15S630,482,637,485z" />
        <path fill="#F05829" d="M514.4,470c0,0-5-120-73-132s-120-58-162-41s-101,39-115,58s-66,104-31,167S243.3,600.2,268,628
		c23,25.9,9,22,49.9,80c32.1,45.5,70.1,3.3,132.1,9.3S521.4,467,514.4,470z" />
        <g>
            <path fill="#FFFFFF" d="M674.4,691.5c21.3,41,85,95.1,158.5,103.5c69.4,8,143.6-55.7,134.7-127.7C958.2,592,884.9,539,816.9,539
			c-10,0-19.5,0.9-28.6,2.6c4.1,0,8.3,0,12.6,0c60.4,0,125.6,41.8,133.9,101.3c7.9,56.8-40.7,112.6-118,97.5
			C764.2,730,709.7,674.5,678.7,630C674.4,643.4,667.4,678,674.4,691.5z" />
            <path fill="#F68121" d="M712.6,671.8c-3.1,0.2-3.7-4-14.5,14.6c-8.3,14.2-10.8,24.3-6.8,29.8s-13.2,0-25.2-13S627.2,658,624.7,642
			s0.5-61.3,13.5-67.8s26.8,23.1,42.5,48.8C692.2,641.8,719.7,671.5,712.6,671.8z" />
        </g>
        <g>
            <path fill="#FFFFFF" d="M475.8,690.5c-21.3,41-85,95.1-158.5,103.5c-69.4,8-143.6-55.7-134.7-127.7C192,591,265.3,538,333.3,538
			c9.9,0,19.5,0.9,28.6,2.6c-4.1,0-8.3,0-12.6,0c-60.4,0-125.6,41.8-133.9,101.3c-7.9,56.8,40.7,112.6,118,97.5
			C386,729,440.5,673.5,471.5,629C475.9,642.4,482.8,677,475.8,690.5z" />
            <path fill="#F68121" d="M437.6,670.8c3.1,0.2,3.7-4,14.5,14.6c8.3,14.2,10.8,24.3,6.8,29.8s13.2,0,25.2-13S523,657,525.5,641
			s-0.5-61.3-13.5-67.8s-26.8,23.1-42.5,48.8C458,640.8,430.6,670.5,437.6,670.8z" />
        </g>
        <path fill="#FECE0C" d="M794.6,258.1c-89.9-7.8-152.5,60-152.5,60c-18.7-22.9-43.6-37-71-37c-24.2,0-46.5,11-64.3,29.4
		c-40.7-35-93.5-55.5-151.1-52.4C246,264,134.5,337.5,121.5,466C161,354.5,222.9,334.5,293.4,333.6c124.1-1.5,161,93.5,189.1,219.3
		C497,608,525,665.4,533,679c26,44.5,72.5,104.1,104,145c31.5,41,83.5,143,60,204c-16.8,43.6-35.5,69.5-94.7,63
		c-84-9.2-67.3-125.5-10.3-142c45.3-13.1,65.7,6.7,77.7,14.3c-2.5-25.5-23.2-33-27.5-37.7c4.7-4.6,19.7-10.3,19.7-10.3
		S508,893,500,1033.5c-1.3,23,10,54.5,33,78c52.2,53.3,106.7,39.3,138,31.5c50-12.5,150-86,131-208s-79-212-79-212
		s-7.7-15.4-10.2-20.6c-6.4-13.1-40.1-80.6-40.1-80.6c-5.7-17.8-9.2-37.1-10.1-58c-5.5-127.1,79.5-230.3,194.2-230.3
		c70.5,0,128.8,38.9,163.3,98.5C995,333.7,904,267.6,794.6,258.1z" />
        <g>
            <path fill="#F05829" d="M558.9,252.4c15.4,30.3,17.8,61.6,8,79.9c-20.5-2.9-44.4-23.3-59.7-53.6c-15.4-30.3-17.8-61.6-8-79.9
			C519.7,201.6,543.5,222.1,558.9,252.4z" />
            <path fill="#FFFFFF" d="M601.7,257.5c0,34-12,63-29,74.9c-17-11.8-29-40.9-29-74.9c0-34,12-63,29-74.9
			C589.7,194.5,601.7,223.5,601.7,257.5z" />
            <path fill="#F0582A" d="M632.9,278.6c15.4-30.3,17.8-61.6,8-79.9c-20.5,2.9-44.4,23.3-59.7,53.6c-15.4,30.3-17.8,61.6-8,79.9
			C593.7,329.4,617.5,308.9,632.9,278.6z" />
            <path fill="#FEFFFB" d="M523.6,268.4c29.2,17.4,48,42.5,49.5,63.2c-18.9,8.6-50,4-79.2-13.3c-29.2-17.4-48-42.5-49.5-63.2
			C463.3,246.5,494.5,251.1,523.6,268.4z" />
            <path fill="#FFFFFF" d="M649.6,318.3c29.2-17.4,48-42.5,49.5-63.2c-18.9-8.6-50-4-79.2,13.3c-29.2,17.4-48,42.5-49.5,63.2
			C589.3,340.1,620.5,335.6,649.6,318.3z" />
        </g>
    </g>
    <g id="Layer_4">
        <g>
            <path fill="#FFFFFF" d="M621,353c0,25.3-20.5,45.8-45.8,45.8c-25.3,0-45.9-20.5-45.9-45.8c0-2,0.1-4,0.4-6
			c2.9,22.5,22.2,39.8,45.5,39.8c23.3,0,42.5-17.4,45.5-39.8C620.9,349,621,351,621,353z" />
            <circle fill="#ED1B24" cx="575.2" cy="424.5" r="8" />
            <circle fill="#ED1B24" cx="575.2" cy="451.5" r="5.2" />
            <circle fill="#ED1B24" cx="575.2" cy="470.5" r="3.3" />
        </g>
        <g>
            <circle fill="#FFFFFF" cx="739.7" cy="429.7" r="7.7" />
            <circle fill="#FFFFFF" cx="724.9" cy="456" r="6.4" />
            <circle fill="#FFFFFF" cx="714.1" cy="482.2" r="4.5" />
            <circle fill="#FFFFFF" cx="707.3" cy="505.3" r="3.7" />
            <circle fill="#FFFFFF" cx="762.5" cy="401.8" r="10.5" />
            <circle fill="#FFFFFF" cx="791.5" cy="379.6" r="11.6" />
            <circle fill="#FFFFFF" cx="825.5" cy="366.8" r="10.5" />
            <circle fill="#FFFFFF" cx="859.7" cy="361.7" r="7.7" />
            <circle fill="#FFFFFF" cx="890.9" cy="363" r="6.4" />
            <circle fill="#FFFFFF" cx="918.1" cy="369.2" r="4.5" />
            <circle fill="#FFFFFF" cx="943.3" cy="383.3" r="3.7" />
        </g>
        <g>
            <circle fill="#FFFFFF" cx="412" cy="427.7" r="7.7" />
            <circle fill="#FFFFFF" cx="426.7" cy="454" r="6.4" />
            <circle fill="#FFFFFF" cx="437.5" cy="480.2" r="4.5" />
            <circle fill="#FFFFFF" cx="444.3" cy="503.3" r="3.7" />
            <circle fill="#FFFFFF" cx="389.2" cy="399.8" r="10.5" />
            <circle fill="#FFFFFF" cx="360.2" cy="377.6" r="11.6" />
            <circle fill="#FFFFFF" cx="326.2" cy="364.8" r="10.5" />
            <circle fill="#FFFFFF" cx="292" cy="359.7" r="7.7" />
            <circle fill="#FFFFFF" cx="260.7" cy="361" r="6.4" />
            <circle fill="#FFFFFF" cx="233.5" cy="367.2" r="4.5" />
            <circle fill="#FFFFFF" cx="208.3" cy="381.3" r="3.7" />
        </g>
    </g>
</svg>