<?xml version="1.0" encoding="utf-8"?>

<!DOCTYPE svg PUBLIC "-//W3C//DTD SVG 1.1//EN" "http://www.w3.org/Graphics/SVG/1.1/DTD/svg11.dtd">
<svg version="1.1" id="Layer_1" xmlns="http://www.w3.org/2000/svg" xmlns:xlink="http://www.w3.org/1999/xlink"
    viewBox="0 0 1165 1765.4" xml:space="preserve">
    <g>
        <g>
            <path fill-rule="evenodd" clip-rule="evenodd" fill="none" d="M1.5,1.5c388.7,0,777.5,0,1166.3,0c0,588.3,0,1176.6,0,1765.2
			c-388.7,0-777.5,0-1166.3,0C1.5,1178.4,1.5,590,1.5,1.5z M1113.7,1186.7c3.9-2.8,5.3-5.5,6.3-8.7c3.7-12.1,7.6-24.1,11.2-36.2
			c17.8-59.6,32.6-119.9,34.9-182.3c2.2-57.7,0.2-115.3-8.8-172.4c-4.3-27.7-8.5-55.4-13.4-83c-4-22.5-8.9-44.8-13.4-67.1
			c-9-45.2-18-90.4-34.4-133.6c-16.2-42.8-39.5-81.1-74.2-111.4c-26.8-23.4-57.4-41.2-89.1-57.2c-6.2-3.1-8.7-6.8-8.1-13.7
			c0.9-9.5-2.1-17.7-11-22.7c-2.1-1.2-2.5-2.8-2.5-4.9c-0.1-24.9-7.9-47.7-17.3-70.6c-14.8-36.1-40.7-59.3-75.5-74.3
			c-10.6-4.6-21.2-8.9-31.7-13.2c2.3-9.8,2.4-19.2,0.8-28.2c-7.6-41.6-33.5-68.4-71.2-84.6C677.2,5.6,636,3.1,594.8,11
			c-38.6,7.5-71.5,26.6-96.3,58.2c-13.4,17.1-21.9,36.3-28.4,57.6c-15.8-9.3-32.9-9.4-49.7-8c-19.8,1.7-39.2,6-58.4,11.3
			c-17.5,4.8-34.9,9.7-53.5,8.2c-7.2-0.6-13.2-4.5-20.5-6.4c1.8,7.8,5.9,13,10.6,17.8c9.1,9.1,15.9,19.7,20.5,31.8
			c3.9,10.5,7,21.2,9.6,32c7.1,29.3,18.9,55.1,45.8,72.3c29.4,18.8,67.7,23.4,97.4-0.2c3.3-2.6,6.7-5.3,10.4-7.2
			c3.7-2,6.6-5.5,11.4-5.8c-3.4,17.1-0.7,33.9,0.7,51c-2.6,0.2-4.5,0.5-6.5,0.6c-25.6,1.3-50.9,5.2-76.1,10
			c-42.2,8.2-83,21.1-123,36.8c-35.9,14.1-70.8,30.4-102.6,52.8c-33.9,23.8-61.8,53.9-86.9,86.2C47.3,577,13.9,652.1,5.8,737.4
			C2.6,771,5,804.2,11.4,837.1c6.8,35,17.5,68.7,35.1,100c3.7,6.6,4.2,12.9,0.4,19.8c-2.1,3.9-3.7,8.3-4.5,12.6
			c-5.2,27.5-3.6,55.1,0.4,82.6c3.8,26.1,10.6,51.4,16.5,77c3.1,13.5,2.4,27.4-6.6,39.3c-8.2,10.8-17.8,20.3-30.1,26.4
			c-3.7,1.8-7.5,3.8-9.2,8.9c8.2,3.4,16.6,2.5,24.3,1.4c35.8-5.3,71.6-11,106.1-22.6c15.1-5.1,30-11.1,42.4-21.5
			c14-11.8,13.6-12.1,25.2,1.3c23.7,27.4,49.5,52.6,78.2,74.8c4.1,3.2,6.1,6.3,3.5,11.4c-1,2-1.3,4.3-1.8,6.4
			c-5.5,22.4-7.2,45.2-8.3,68.1c-2,38.6-1.1,77.1,9.3,114.7c14.8,53.6,41.7,101.1,76.3,144c17.7,22,32.6,44.8,39.9,72.4
			c5.6,21.2,18.8,38.2,34.9,52.6c7,6.3,11.5,4.2,13-5.1c1.2-7.3,2.4-14.5,3.7-22.5c12,4.6,15.6,17.8,26.4,23.4
			c4.7-11.5,5.2-22.9,4.5-34.3c-1.8-30-14.8-54.5-38.2-73.1c-6.7-5.3-12.2-10.9-15.6-18.5c-12.5-28.1-17.9-57.8-19.6-88.2
			c-1.3-23-1.1-46,1.6-68.9c1.6-13.4,4.1-26.6,6.3-40.3c4.3,0.7,6.2,3,8.2,5.2c6.5,7,8.4,16.1,11,24.9c9.4,31.2,22.5,60.6,43.2,86
			c18.2,22.3,41.2,38,68.3,47.8c9.3,3.4,9.2,4.8,3,12.2c-14,17-16.2,36.6-9.5,56.8c6.7,20.1,22.3,30.4,43,33.2
			c5.5,0.7,8.8,3.3,11.3,8.3c3.5,7.3,3.7,14.9,4.1,22.6c0.8,14.5-1.1,28.9-0.1,43.5c1.9,26,29.5,47.1,55.1,41.8
			c8.9-1.8,17.5-7,26.9-4.9c18.6,4,34.1,0.8,44.5-16.9c11.9,7.2,25.3-0.3,37.2,4.8c0.8,0.3,2.1,0.1,2.9-0.4
			c5.1-2.8,9.8-1.5,14.8,0.4c9.8,3.8,24.9-1.2,27.7-9.5c4.1-11.9,5.4-23.8-3.9-34.5c-1.9-2.2-3.5-5-4.2-7.8
			c-2.7-11.1-9.1-20.3-14.7-30c-11.3-19.8-15.7-41.7-17.8-64c-1.3-14.4,9.7-27.8,24.4-31.4c17.1-4.2,32.3-11.3,43.2-25.9
			c4.5-6,8.8-12,12.4-18.6c2.8-5.1,6-9.9,11-13c16.8-10.2,29.1-24.8,40.6-40.3c8.4-11.3,15-23.7,23.7-36.3
			c4.2,33.3,0.6,64.7-6.4,95.9c-5.1,22.7-13.2,43.2-31.4,59.5c-13.4,12-22,28.2-27.3,45.7c-3.2,10.5-4.9,21.3-6.4,32.1
			c-0.5,3.6-0.2,7.7,2.5,9.7c3.1,2.3,6.7-0.1,9.6-2.1c5.6-3.7,11-7.7,16.5-11.5c4.4-3.1,8.2-7.3,14.5-8.4c1.7,6.3,3.1,12.6,5.1,18.7
			c1.2,3.6,2.3,7.8,7.2,8.6c5.1,0.7,7.3-3.1,9.2-6.4c11.6-20.2,27.6-36.6,44.5-52.2c9.1-8.4,14.9-18.5,13.8-31.7
			c-0.6-7,1.3-13.8,4.4-20.2c1.4-2.9,2.5-5.8,3.1-9.1c4.3-23.4,6.8-47.1,13.3-70.1c14-49.3,29.7-97.9,54.3-143.1
			c15-27.6,26.1-56.3,29.6-87.7c4-36.3,11.1-71.9,22.8-106.5c15.1-44.5,25.1-90.2,31.7-136.6c1.9-13.6,4.3-27.2,6.5-40.7
			C1149.1,1048.5,1127.4,1116.2,1113.7,1186.7z" />
            <path fill-rule="evenodd" clip-rule="evenodd" d="M1113.7,1186.7c13.7-70.5,35.4-138.2,35.5-209.6c-2.2,13.6-4.6,27.1-6.5,40.7
			c-6.6,46.5-16.6,92.1-31.7,136.6c-11.7,34.6-18.8,70.2-22.8,106.5c-3.4,31.4-14.6,60.2-29.6,87.7c-24.6,45.2-40.3,93.8-54.3,143.1
			c-6.5,23-9,46.7-13.3,70.1c-0.6,3.3-1.7,6.2-3.1,9.1c-3.1,6.4-5,13.2-4.4,20.2c1.1,13.2-4.7,23.3-13.8,31.7
			c-16.9,15.6-32.9,32-44.5,52.2c-1.9,3.2-4.1,7.1-9.2,6.4c-5-0.7-6-4.9-7.2-8.6c-2-6.1-3.4-12.3-5.1-18.7
			c-6.3,1.1-10.1,5.3-14.5,8.4c-5.5,3.8-11,7.8-16.5,11.5c-2.9,1.9-6.5,4.4-9.6,2.1c-2.7-2-3-6.1-2.5-9.7
			c1.5-10.8,3.2-21.6,6.4-32.1c5.3-17.5,13.9-33.7,27.3-45.7c18.2-16.3,26.3-36.8,31.4-59.5c7-31.2,10.6-62.6,6.4-95.9
			c-8.7,12.6-15.3,25-23.7,36.3c-11.5,15.5-23.8,30.1-40.6,40.3c-5.1,3.1-8.2,7.9-11,13c-3.6,6.6-7.9,12.6-12.4,18.6
			c-11,14.5-26.2,21.6-43.2,25.9c-14.7,3.6-25.7,17.1-24.4,31.4c2,22.3,6.4,44.2,17.8,64c5.6,9.7,11.9,18.9,14.7,30
			c0.7,2.8,2.3,5.6,4.2,7.8c9.2,10.7,8,22.6,3.9,34.5c-2.8,8.2-17.9,13.2-27.7,9.5c-5.1-1.9-9.8-3.3-14.8-0.4
			c-0.8,0.5-2.1,0.7-2.9,0.4c-11.9-5.1-25.2,2.5-37.2-4.8c-10.4,17.7-25.9,20.9-44.5,16.9c-9.4-2-18,3.1-26.9,4.9
			c-25.6,5.3-53.2-15.8-55.1-41.8c-1.1-14.6,0.9-29,0.1-43.5c-0.4-7.6-0.7-15.3-4.1-22.6c-2.4-5.1-5.8-7.6-11.3-8.3
			c-20.7-2.8-36.2-13.1-43-33.2c-6.7-20.2-4.5-39.7,9.5-56.8c6.1-7.5,6.3-8.8-3-12.2c-27.2-9.8-50.1-25.5-68.3-47.8
			c-20.8-25.4-33.9-54.8-43.2-86c-2.6-8.7-4.5-17.8-11-24.9c-2-2.2-3.9-4.5-8.2-5.2c-2.2,13.7-4.7,26.9-6.3,40.3
			c-2.7,22.9-2.9,45.9-1.6,68.9c1.7,30.4,7.1,60.1,19.6,88.2c3.4,7.6,8.9,13.2,15.6,18.5c23.4,18.5,36.4,43,38.2,73.1
			c0.7,11.4,0.2,22.8-4.5,34.3c-10.7-5.6-14.4-18.8-26.4-23.4c-1.3,8-2.5,15.3-3.7,22.5c-1.5,9.3-6,11.4-13,5.1
			c-16.1-14.5-29.3-31.4-34.9-52.6c-7.3-27.6-22.2-50.3-39.9-72.4c-34.6-42.9-61.4-90.5-76.3-144c-10.4-37.6-11.3-76.1-9.3-114.7
			c1.2-22.9,2.8-45.7,8.3-68.1c0.5-2.2,0.8-4.5,1.8-6.4c2.6-5.1,0.6-8.2-3.5-11.4c-28.7-22.1-54.5-47.4-78.2-74.8
			c-11.6-13.4-11.2-13.1-25.2-1.3c-12.3,10.4-27.3,16.4-42.4,21.5c-34.5,11.5-70.3,17.3-106.1,22.6c-7.7,1.1-16.1,2-24.3-1.4
			c1.7-5.2,5.4-7.1,9.2-8.9c12.4-6.1,21.9-15.6,30.1-26.4c9-11.9,9.7-25.7,6.6-39.3c-5.9-25.6-12.7-50.9-16.5-77
			c-4-27.6-5.6-55.1-0.4-82.6c0.8-4.3,2.3-8.7,4.5-12.6c3.8-6.9,3.3-13.2-0.4-19.8c-17.6-31.3-28.3-65-35.1-100
			c-6.4-33-8.8-66.1-5.6-99.7c8.1-85.3,41.5-160.4,93.6-227.4c25.1-32.3,53-62.4,86.9-86.2c31.8-22.3,66.6-38.6,102.6-52.8
			c40-15.7,80.8-28.7,123-36.8c25.2-4.9,50.5-8.7,76.1-10c1.9-0.1,3.9-0.3,6.5-0.6c-1.4-17.1-4.1-33.9-0.7-51
			c-4.7,0.2-7.7,3.8-11.4,5.8c-3.7,2-7.1,4.6-10.4,7.2c-29.7,23.6-68,19-97.4,0.2c-26.9-17.2-38.7-43-45.8-72.3
			c-2.6-10.8-5.7-21.6-9.6-32c-4.6-12.1-11.4-22.6-20.5-31.8c-4.8-4.8-8.8-10.1-10.6-17.8c7.3,1.9,13.3,5.8,20.5,6.4
			c18.6,1.5,36-3.3,53.5-8.2c19.2-5.3,38.6-9.6,58.4-11.3c16.8-1.4,33.9-1.3,49.7,8c6.5-21.3,15.1-40.5,28.4-57.6
			c24.8-31.7,57.6-50.8,96.3-58.2c41.2-8,82.4-5.4,121.6,11.4c37.7,16.2,63.6,43,71.2,84.6c1.6,9,1.5,18.4-0.8,28.2
			c10.5,4.4,21.2,8.7,31.7,13.2c34.7,15,60.7,38.2,75.5,74.3c9.4,23,17.2,45.7,17.3,70.6c0,2.2,0.4,3.8,2.5,4.9
			c8.9,5,11.9,13.1,11,22.7c-0.6,6.9,1.9,10.6,8.1,13.7c31.7,15.9,62.2,33.8,89.1,57.2c34.8,30.3,58.1,68.6,74.2,111.4
			c16.3,43.3,25.4,88.5,34.4,133.6c4.5,22.4,9.4,44.7,13.4,67.1c4.9,27.6,9.1,55.3,13.4,83c8.9,57.2,10.9,114.7,8.8,172.4
			c-2.4,62.5-17.1,122.7-34.9,182.3c-3.6,12.1-7.5,24.1-11.2,36.2C1119,1181.2,1117.6,1183.9,1113.7,1186.7z M581.2,1118.3
			c4.8-8.4,6.3-17.8,5.5-27.1c-2.6-29.8-12.2-57.6-25.8-84.1c-12.1-23.7-25.3-46.8-38.1-70.1c-12.6-23-19.3-48.4-28.9-72.6
			c-11.4-28.6-27-54.6-51.7-73.6c-40.9-31.6-87-43.4-137.6-30.7c-48.8,12.3-86.5,39.9-108.4,86.2c-17.3,36.7-16.9,74.6-5,112.8
			c8.6,27.6,23.7,50.8,47.9,67.6c14.9,10.4,31,18.9,46.2,28.8c15.3,10,33.1,15,47.9,25.7c9.3,6.7,17.8,14.5,27.1,21.2
			c9.6,7,20.6,10.5,33.2,10.1c-3.5-11.8-14-21.1-9.8-34.6c5.3,1,7.6,5.1,10.3,8.4c7.9,9.5,13.8,20.8,24.4,28.1
			c7.4,5.1,15.1,9.9,21.7,15.9c28,24.9,60.9,31.7,96.7,25.6c21.5-3.7,36.8-16.7,44.6-37.6L581.2,1118.3z M992.5,674.9
			c-0.1,31.6-13.8,58.8-28.4,85.8c-7,12.9-13.5,26-17.5,40.2c-9.8,33.8-26.3,64.6-46.4,92.9c-13,18.3-14.4,33.7-1.8,52.2
			c7.9,11.6,14.2,24.7,15.8,39.1c1.7,16,2.3,32.1,5.8,48.1c4.3,19.6,6.2,39.7,10.3,59.4c5.3,25,10,50.2,11.1,75.9
			c0.8,18.2,1.6,36.4,3.5,54.6c1.4,14.1,1.4,27.7-4.5,40.9c-3.2,7.3-4.9,15.3-3.2,23.4c2,9.7,4,19.4,6.7,29
			c8.4,30.4,6.8,60.5-2.4,90.4c-1.5,4.9-1.8,9.5-0.5,14.6c5.6,21.9,4.4,44.2,1.5,66.1c-4.1,31.3-12.6,61.6-25,90.7
			c-3.1,7.3-1.2,10.5,6.8,10.1c24.1-1.1,45-12.7,52.9-38.4c4.7-14.9,6.4-30.5,9.9-45.7c12.6-54.5,33.6-105.8,58.7-155.6
			c14.5-28.7,26.7-58.3,31.6-90.2c5.1-32.9,9.2-65.8,19.8-97.7c16-48.3,27.2-97.9,35.8-148c4.6-26.7,9-53.4,9.4-80.6
			c0.7-50-1.2-99.9-5.9-149.7c-2.7-28.3-4.5-56.7-7.9-84.8c-4.5-37.2-10.2-74.2-17.8-110.8c-9.5-45.8-23.2-89.9-49.8-129
			c-17-25.1-32.9-51.2-58.1-69.7c-25.2-18.4-51.5-34.6-80.8-46.6c-4.4,7.3-0.8,12.3,4.4,16.2c10.5,7.7,17.1,17.9,21,30.1
			c3.4,10.3,6.6,20.8,10.2,31c5.3,14.8,12.8,28.1,26.7,36.7c9.9,6.1,24.8,0.6,28.5-10.4c2.4-7-0.1-12.6-7.1-15.8
			c-3.7-1.7-7.6-2.9-12.5-4.7c4.4-2.3,7.8-3.3,11.6-2.5c15.5,3.1,25.9,12.1,30.7,27.2c8.2,25.5-0.8,55-22.1,72.9
			c2.2,3.3,4.5,6.5,6.7,9.8c15.9,23.8,15.9,47,0.1,69.4c-4.7,6.7-10,13-14.8,19.7c-4.1,5.7-7.7,11.5-7.4,19c0.2,4.4,2.1,8,5.9,9.6
			c3.8,1.6,7.9,0.8,11-2.4c2.2-2.2,4.3-4.6,6.5-7C1027.4,659.2,1017.3,671.2,992.5,674.9z M522.9,452.2c-7.8,5.2-16.5,8.7-18.9,18.8
			c-2,8.5,1.6,14.1,10.2,13.8c14-0.4,24.1-7.5,30.3-19.7c5.7-11.1,6.3-22.3-1.8-32.9c-4-5.3-7.5-11.7-4.9-18
			c3.1-7.5-0.1-12-4.6-16.7c-15-15.7-26.9-33.4-33.2-54.3c-1.3-4.4-3.5-5.3-7.9-5.6c-29.9-1.8-58.8,5.6-87.9,9.8
			c-36,5.2-70.5,16-104.1,29.6c-50.6,20.5-98.5,45.7-138.8,83.2c-21.4,19.9-38.8,43.5-56.9,66.2c-34.5,43.3-56,93.7-71,146.6
			c-11.5,40.6-13.1,82.5-9.4,124.6c2.9,33,11.6,64.3,27.6,93.4c4.9,9,10.4,17.9,18.2,25.7c14.6-22.9,32.6-40.8,57.9-51
			c-7.8-6.3-14.8-11.9-21.6-17.7c-28.9-24.9-42.6-57.6-47.2-94.4c-3.9-30.6,4.9-59.2,18.3-86.3c16.7-33.8,37.5-65.1,60.2-95.2
			c9.8-13,17.1-27.3,16.1-44.6c-0.3-5.1-4.3-9.5-2.5-15.1c1,0.2,1.9,0.1,2.4,0.5c1.3,1.1,2.7,2.3,3.7,3.7c12,17.1,17.8,35.8,15.1,57
			c-2.5,19.3-8.7,37.6-14.8,55.9c-8.9,26.6-18.6,52.9-17.5,81.7c1,27.5,11.3,50.5,33.3,67.1c20.3,15.3,42.9,19.2,65,1.4
			c7.4-5.9,15.3-11.1,23.7-15.5c35.6-18.7,73-24.8,112.7-18.2c12.7,2.1,24.7,6.2,38.5,11.9c-8.3-16.3-11.5-32.5-19.4-46.9
			c-2.3-4.3-5-5.6-10.3-4.4c-19.6,4.2-39.3,8.1-59.1,11c-20.9,3-41.7,6.1-62.4,10.1c-22.2,4.2-44.1,9.4-66.2,13.8
			c-14.4,2.9-21.1-1-27.2-14.3c-4-8.9-4.9-18.1-4.6-27.7c0.4-10.8,4.5-15.5,15.1-18c3.4-0.8,6.9-0.9,10.3-1.4
			c36.9-6.3,73.3-15.6,110.6-21.1c-0.7-2.2-1.4-4-1.8-5.9c-2.4-10.6-5.7-21.2-2.1-32.3c1.6-5,4.6-8.4,10.1-8
			c4.3,0.3,6.5-1.5,8.9-4.9c7.3-10.6,16.7-10.5,24.3-0.3c0.5,0.7,1.2,1.4,2,2.3c4.1-6.3,4.5-13.5,7.2-19.7c3.7-8.5,9.9-11,18.8-8
			c5.5,1.8,8.2,5.9,10.4,10.7c8.8-8.8,16.8-7.5,22.6,3.4c0.5,0.9,0.7,1.9,1.1,2.8c1.5,3.5,3.7,4.6,6.8,1.7c1.5-1.3,3-2.7,4.6-3.9
			c5.8-4.2,12.2-4.9,18.1-0.9c5.4,3.7,6.8,9.6,5.5,16c-0.6,3.1-1.6,6.2-2.5,9.6c6.3,0.3,11.6-2.4,17.6-4.1
			c-2.4-6.7-3.5-13.1-2.7-19.9c0.4-3.4,1-6.6,4.2-8.2c3.7-1.8,6.6,0.3,9.4,2.7c3.8,3.2,7.7,7.8,12.8,6.8c10.9-2.1,22-3.6,33.2-7.8
			c-6.3-11-8.9-22.5-9.8-34.5c-0.2-2.9-2.6-3.1-4.6-4.1c-7-3.5-13.3-7.9-17.4-14.8c-18.2-30.5-14.2-74,35-86.7
			C514.9,449.7,519.2,447.4,522.9,452.2z M626.1,592.8c10.6,0.7,19.9-2,29.4-3.7c15.4-2.7,30.7-6.7,46.4-6.6
			c11.2,0.1,19.8,8.2,21.6,20c1.4,9.4-3.7,16.7-14.4,20.6c-2.6,0.9-5.1,1.9-7.7,2.9c-17.8,7.3-36,14.1-40.1,36.5
			c-0.5,2.6-2.3,5-3.8,7.3c-5,7.7-5.4,15.6-2,24.1c7,17.5,21,28.2,36.4,37.1c29.6,17.1,65,21.4,92.6,42.3c5.7-6.2,10.5-12.1,16-17.2
			c25.9-23.7,44.2-52.3,57.1-84.7c2.9-7.4,3.9-14.2-1-21.2c-1.9-2.8-4.1-6.2-1.4-10.1c5.1,2.3,3.8,9.5,9.5,11.2
			c4.8-8.4,5.9-18.3,12.1-25.9c-7.2,63-40.3,112.7-82.3,157.2c6.3,10.3,22.2,10.8,23.8,25.9c-1.9-0.6-2.7-0.7-3.3-1.1
			c-2.1-1.3-4.3-2.5-6.3-4c-31.5-23.9-65.6-42.9-103.1-55.9c-28.5-9.9-47.7-31.1-62-56.9c-3.7-6.6-6.8-14-2.2-21.2
			c6.4-10,13.4-19.7,19.2-30.1c1.7-3,4.5-5.2,7.6-7.2c6-3.9,11.8-7.9,19-12.8c-11.7,0-20.2,3.6-28.4,8.5c-7,4.2-13.8,8.8-21.6,11.7
			c-7.5,2.8-13.9,2.3-19.6-4c-7.2-8-15.8-14.5-25.2-19.8c-14-7.9-28.4-14.4-45.2-13c5.1,3,10.5,5.3,15.7,7.9c2.1,1,3.8,3,2.7,5.5
			c-1.1,2.5-3.4,2.6-5.8,1.6c-1.8-0.8-3.8-1.3-5.5-2.3c-7.3-4.2-14.5-8.7-21.9-12.8c-7.8-4.3-16.1-6.6-26.1-4.1
			c14.1,9.1,29.5,14.4,41.2,25.5c-1.8,2.7-4.4,2.6-6.3,1.8c-12.7-5-26.3-9-36.8-17.5c-6.7-5.4-12.4-4.6-20.5-4.5
			c17.5,11.9,35.3,21.3,49.1,38.9c-13.3-0.6-20-8-26.5-15.5c-5-5.8-10.3-10.9-17.8-13c-9.7-2.8-18.6-7-25.5-14.8
			c-1.6-1.8-3.7-2.7-6.5-3c0.2,9.4,3.6,16.4,11,21.3c4.6,3,9.1,6.1,14.1,8.3c9.8,4.4,16.9,11.2,21.1,21.1
			c2.7,6.3,6.5,11.9,12.2,15.7c5.4,3.6,8.9,8.6,11.8,14.2c2.1,4,4,8,6.4,11.8c8.8,14.1,22,23.1,36.4,30c13.8,6.7,23.6,16.3,29,30.6
			c1.4,3.7,3.1,7.4,5.3,10.6c20.3,29.9,40.7,59.5,68.5,83.5c28.8,24.8,60.3,42.8,97.6,51.8c17.2,4.2,31.8,3.3,46.8-5.1
			c39.2-22,69.6-53.1,93.2-91c9-14.5,18.1-28.7,30.8-40.2c4.6-4.2,9.1-8.6,12.9-13.6c12.6-16.2,20.3-34.4,22.3-55.1
			c1.7-17,6.3-33.9,2-51c-11.9-47.1-41.5-79.1-85.2-98.8c-8.4-3.8-17.1-7.2-21.2-16.5c-2.8,1.4-3.6,3.8-5,5.8
			c-9.9,14.4-19.5,29.5-34.2,39.3c-35.3,23.3-73.8,26.3-113.6,14.3c-25-7.5-46.7-21.7-68.5-35.5c-4.3-2.7-8.2-6.2-13.8-7.5
			C629,557,625.5,574,626.1,592.8z M626.4,232.1c-9.4,4.7-17.4,10.1-24.6,16.6c-42.6,38.6-52.4,108.9-30.2,159.4
			c7.5,17.1,15.9,33.8,22.3,51.2c10.1,27.6,27.1,49.6,50,67.5c20,15.7,43.2,25.5,66.7,34.6c24.4,9.4,49.3,15.4,75.8,10.7
			c25.4-4.6,47.9-14.3,62.6-36.5c15-22.6,28.1-46.4,38.3-71.6c9-22.4,11.5-45.7,7.5-69.6c-3.9-23-8.4-45.9-11.9-68.9
			c-5.5-36.7-22.1-67.1-50.2-91.2c-28.4-24.3-61.7-34.6-98.7-33.2c-5.8,0.2-11.8-1.2-17.8,1.6c9.9,21.3,18.8,42.6,25.7,64.6
			c8.9,28,17.7,56,10.8,86c-0.3,1.4,0.2,2.4,1,3.4c16.6,18.5,9,40.1,8.7,61.7c-2.2-1.3-3.3-1.8-4.3-2.5
			c-12.1-8.5-28.1-14.2-33.5-28.5c-5.5-14.7-15.7-21.6-27.8-29c-21.3-13-32.7-34.4-42.4-56.5C644.5,279.1,637.3,255.3,626.4,232.1z
			 M883.4,1376.6c0.7-1.9,1.4-3.5,1.8-5.1c6.3-26.3,17.1-51.2,25.6-76.7c9.4-28.1,16.8-56.6,12.6-86.9c-1.9-14-4.2-28-6.1-42
			c-4.2-31.5-8.1-63-15.4-94c-1.7-7.1-1.6-14.8-5.2-21.7c-7.2,7.9-13.7,15.4-20.8,22.5c-19.3,19.3-41.7,26.2-68.5,17.6
			c-27.9-9-49.6-27.1-70.6-46.3c-21.6-19.7-40.6-41.8-58.1-65.2c-4.7,0.9-7.9,3.8-11.4,6c-9,5.4-17.6,11.5-26.9,16.1
			c-5.4,2.7-5.8,5.2-4.1,10.2c15.9,48.1,33.9,95.3,55.2,141.3c23.7,51,53.8,98,86.8,143.4c14.8,20.4,30.4,39.9,52.8,52.9
			C848.1,1358.4,862.9,1371.9,883.4,1376.6z M578.8,1008.7c1.4,4,2.2,6.3,3,8.6c8.4,23.7,15.6,47.7,16.1,73.2
			c0.3,16.9-1.3,33.5-11.2,47.9c-2.9,4.2-3.3,8-2.2,12.5c5.4,21.6,10.9,43.2,17.6,64.5c10,32.2,19.7,64.5,33.9,95.2
			c15.3,33.1,37.4,61.6,61.2,88.9c27.6,31.7,57.9,60.3,91.6,85.8c25.7,19.5,50.4,18.8,77.1,5.7c13.8-6.8,24-17.6,33.4-29.4
			c16.5-20.7,30.1-42.9,35.8-70.1c-10.5,4.6-20.7,6.3-31.6,5.4c-23.7-2.1-44.8-11.4-64.2-24.1c-32.7-21.5-61.3-47.9-85.1-79
			c-20.9-27.3-42.6-54.2-58.9-84.4c-16.7-31-30.5-63.6-45.1-95.7c-15.3-33.6-28.1-68.2-40-103.3
			C599.9,1010.1,589.9,1011,578.8,1008.7z M443.2,1153c-2,16-3.1,30.7-3.3,45.4c-0.6,42.2,0.4,84.3,5.8,126.3
			c4.2,33,10.5,65.5,22.7,96.5c10.9,27.7,26.8,51.8,50.1,71.2c21.4,17.8,47,26.2,71.9,36.5c4.4,1.8,9.8,3.7,15.4,1.4
			c0.9-8.2,1.5-16.3,3-24.4c2.6-14.6,10.1-27.3,14.6-41.2c1.2-3.6,1.1-6.5-0.9-9.1c-13.1-17.1-20.9-37.3-31.6-55.8
			c-23.7-40.9-40.1-84.6-51.9-130.2c-7.9-30.7-13.6-61.9-18.6-93.4C491.5,1179.4,467.5,1166.8,443.2,1153z M67.5,1169.1
			c23.6-5.4,46.3-11.4,67.8-20.9c20.9-9.3,39.7-21.5,53.1-40.8c11.9-17.1,17.5-36.5,21.9-56.5c2.9-12.9,2.4-24.2-9.3-32.6
			c-1-0.7-1.5-2-2.2-3c-27.7-38.2-38.2-80.7-32.1-127.4c0.5-3.6,2.8-7,0.7-10.8c-4-0.3-7.8-1.3-11.9-0.8
			c-33.4,3.8-57.6,21-72.7,50.5c-26.6,52.2-32.3,106.7-17.6,163.6C71.8,1116.1,77.7,1142.1,67.5,1169.1z M326.8,1258.3
			c-2.9,1.8-3.1,4.5-3.9,6.8c-8.3,23.9-15.9,47.9-18.5,73.3c-3.1,30-2.5,59.8,2.3,89.4c5.9,36.4,20.1,69.9,38.9,101.6
			c15.5,26.2,34.3,50.2,51.1,75.5c6.3,9.6,15.2,11,25.2,10.9c17-0.2,20.5-5.6,13.7-20.9c-0.6-1.4-1.1-2.8-1.9-4.1
			c-7.9-14.4-13.4-29.8-18.2-45.5c-10.1-32.9-12.6-66.9-12.8-100.9c-0.1-24.5,0.5-49.4,9.4-72.9c1.8-4.7-1.4-7.1-4.6-9.1
			c-11.4-7.1-22.7-14.3-34.8-20.2c-10.8-5.3-22.2-8.3-33.9-10.5c-6.1-1.2-8.9-3.9-9.1-11c-0.4-17.2-1.4-34.4-1.2-51.7
			C328.7,1265.5,328.7,1261.9,326.8,1258.3z M566.3,1162c-6.5,3.3-11.8,6.7-17.6,8.7c-5.4,1.9-5.9,5.3-5.1,9.8
			c1.3,7.8,3,15.6,4.2,23.4c7.2,44.6,18.8,88.1,30.7,131.5c8.9,32.4,26.6,61,43.4,89.7c27.3,46.5,62.4,85.7,110.5,111.8
			c13.2,7.1,26.6,12.7,42.4,11.1c12.9-1.4,25.7-3,38.7-3.8c14.2-0.8,22.7-10.3,28.1-23.2c-31.4-1.4-40.4-4.1-58.7-16.7
			c-38.7-26.6-71.1-60.2-102.8-94.5c-12.2-13.2-24-26.8-33.8-41.8c-31.1-47.6-52.3-99.6-68.4-153.9
			C573,1197.4,569.3,1180.3,566.3,1162z M731.2,128.2c3.8-2.1,10.4,4.6,13.8-2.2c2.6-5.1,1.7-11.4,0.6-17
			c-7.2-33.8-28.9-54.2-61.1-63.8c-19-5.7-38.7-5.7-58.5-3.4c-25.1,2.9-49.3,7.8-71.5,20.9c-42.2,25-44.7,83.4-4.8,111.3
			c4.8,3.4,8.2,3.2,12.5,0c10.2-7.8,21.6-12.5,34.7-13.7c13.8-1.2,27.1-4.5,39.7-11.4C665.7,133,697.4,128,731.2,128.2z M563.6,279
			c13.7-27.8,35.7-46.8,61.9-61.2c36.4-19.9,75.6-28,117-27.2c37.5,0.7,69.5,14.5,97.4,39c8.8,7.7,16.3,16.7,25.2,26.6
			c1.5-12.2,2.6-22.8,0.2-32.9c-6.3-26.1-21.7-46-44.5-60c-19.2-11.7-40.8-16.5-62.6-20.7c-16.1-3.1-32.2-6.1-48.8-3.6
			c-20.1,3-38.7,10.2-56.5,19.6c-15,7.9-30.5,14.4-47.6,15.7c-22.2,1.8-40,11.8-54.9,28.1c-15.3,16.9-17.3,38.8-4.4,57.4
			C550.7,267,556.9,272.7,563.6,279z M160.6,558.8c-5.6,8.6-10.6,16.2-15.7,23.7c-20,29.6-43,57.3-57.8,90.2
			c-16,35.4-21,72.2-8.8,109.6c14.4,44.1,49.6,65.3,90.8,79c3.1,1,4.3-0.9,5.2-3.7c3.4-10.7,8.9-20.4,15.4-29.5
			c5.3-7.4,10.6-14.9,16-22.7c-34.1-8-59.6-25.6-71.3-59.3c-7.6-22-7.3-44.7-3-67.3c3.8-19.5,11.6-37.8,18.3-56.5
			C157,602.3,162.2,581.7,160.6,558.8z M725.9,1733.4c-6.3-4.1-12.2-2.6-17.7-2.4c-9.3,0.5-15.7-3.7-21.2-10.4
			c-1.9-2.4-3-4.6-1.4-8.1c13.7-28,13.5-57.6,9.4-87.5c-0.7-5.4-3.5-8.7-8.7-9.6c-9.1-1.6-17-5.8-24.1-11.2
			c-18.2-13.8-34.2-30-46.1-49.6c-4.4-7.3-9.5-7.7-16.1-6.2c-16,3.6-26.3,13.7-33.5,28c-13.5,26.8,1.6,56.5,34.4,61.6
			c9.4,1.5,18.3-0.4,27.4-1c5.2-0.4,10.1-0.5,15.1,4.1c-7.7,4.6-16.1,2.1-23.3,5.2c4.8,11.1,5.5,22.2,4.7,33.9
			c-0.9,13.4-4.1,26.6-3.5,40.2c0.8,17.5,12.1,28.5,29.6,28.6c7.1,0.1,13.7-2.1,20.4-4c8.1-2.3,16.3-4.5,24.8-1.9
			C708,1746.8,716.9,1741.7,725.9,1733.4z M677.7,958c-19.6-7.1-30-22.6-39.4-38.9c-12.1-21-25.8-40.5-44-57
			c-21-18.9-43.5-33.8-72.7-35.9c-10.5-0.8-20.4,1.3-31,3.6c8.7,15.6,17.6,30,24.1,45.7c8.2,19.9,15.9,40.1,24,60
			c8.7,21.5,20.4,38.8,45.5,45.7c21.4,5.9,40.6,5.3,59.8-4.4C655,971.2,665.7,964.7,677.7,958z M402.2,703.5
			c3.3,7.2,6.3,14.2,9.7,21c10.8,21.7,16.6,46.4,39.3,61c11.5,7.4,19.8,18.8,28.4,29.6c2.8,3.5,5.7,5.5,10.9,3.9
			c8.9-2.8,18.3-3.7,27.4-1.7c19.5,4.3,35.6-1,49.7-14.8c6.4-6.3,8.5-13.1,7.1-21.6c-2.2-13-4.7-25.9-4.1-39.2
			c0.2-4.7-1.3-7.7-6-8.8c-6.2-1.5-11.3-5.1-16.3-8.8c-6.9-5.1-13.6-10.5-20.1-15.6c-2.6,1.6-2.5,4-3.6,5.6c-3.9,5.6-3.5,9.2,1.9,15
			c11.8,12.6,16.5,28.3,12.6,46c-3-5.5-5.8-11.2-7.4-17.1c-5.1-18.1-15.8-31.1-32.8-39.2c-11.3-5.3-21.8-12-29.6-22.1
			c-1.8-2.3-4.2-3.4-7.2-2.9C442.1,696.9,422.4,700.1,402.2,703.5z M429.4,1355.9c-11.4-40.6-13.8-80.8-15-121.1
			c-1-32.2,1.3-64.5-1.4-96.8c-0.6-6.7-2.8-9.7-9.5-9c-4.7,0.5-9.4,0.5-14.2,0.2c-9.3-0.5-17.3-5.6-26-7.4c-0.6,0.8-1.1,1.2-1.2,1.6
			c-4.8,33.9-11.7,67.5-14.2,101.8c-2,28-2,55.8,1.9,83.6c0.7,4.8,2.4,8.1,8.2,9.7c8.1,2.2,15.8,5.9,23.5,9.4
			C398.1,1335.5,412.7,1346.4,429.4,1355.9z M505.9,250c-3.1-13.1-5.8-25.7-9.1-38.1c-4.5-16.9-10-33.3-25-44.6
			c-17.7-13.4-38.3-17.9-59.7-20.2c-18.5-2-36.8-0.7-55.1,1.6c-10,1.3-19.9,2.9-30.3,6.7c14.1,14.8,17.8,33.3,21.8,51.8
			c4.2,19.2,10.1,37.4,23.9,52.8c21.6,24.1,69.5,33.8,98.3,10.3C481.1,261.8,492.1,254,505.9,250z M504.8,669.7
			c-7-8.7-11.9-16.7-16-25.2c-1.1-2.4-3.9-3.6-6.4-5c-5.6-3.2-12.5-4.5-16.7-9.5c-4.5-5.4-9.2-5.7-15-3.3c-9.7,4-20.3,5.1-30.4,7.8
			c-7.7,2-16.8,3.5-25.4,3.6c-3.7,0-8,0.5-10.3,3.6c-4,5.6-9.4,5.8-15.2,5.4c-6.1-0.5-11.3,1.2-14.9,6.5c-3.9,5.8-9.7,7.7-16.1,10.4
			c-7.3,3.1-13.3,5.6-21.7,6.5c-8.5,0.9-12.3-0.6-15.9-6.7c-37,7.5-73.7,14.9-112.6,22.7c10.2,11.8,12.7,23.9,11.3,38.1
			C301.2,704.4,402.1,686.3,504.8,669.7z M704.8,886.5c-0.4,1.7-0.7,2.2-0.6,2.6c0.3,1.2,0.8,2.3,1.3,3.5
			c8.9,22.5,19.6,44.2,35.3,62.8c19.9,23.6,43.9,40.2,76.8,36.8c19.7-2,36.3-12.7,39.2-33.6c1-7.4,0.4-15,0.4-22.5
			c0.1-11,2.3-21.1,10.3-29.4c15.2-15.7,25.8-34.7,37.1-53.1c8.4-13.6,15.9-27.8,19.7-43.7c-8.6,11.6-17.6,22.8-27.3,33.5
			c-22.7,25-50.2,44-77.6,63.1c-20.6,14.4-41.5,15.8-63.8,4.2C739.1,902.2,722.1,894.7,704.8,886.5z M702.7,203
			c-6.3,1.6-11.4,2.8-16.4,4.2c-14.5,4.3-29.2,8-42.9,14.8c-3.8,1.9-6.7,4-4.8,9.2c7.8,20.6,13.2,42.1,21.8,62.5
			c11.8,27.8,26.4,53.3,54.7,67.6c6.8,3.4,11.2,6.8,12.3,15.6c1.9,15.1,16.1,20.1,27.4,28.3c-0.2-17.1,7.1-34.5-9.1-46.9
			C754.6,299.9,725.3,252.6,702.7,203z M328.9,1217c0.5-6.8,1-12.2,1.4-17.5c2.1-28.2,3.1-56.6,9.5-84.3c1.5-6.7-0.2-10.1-5.4-13.6
			c-28.2-18.9-61.3-27.6-90.8-45.1c-0.9,21.8-5.4,41.7-16.6,59.6c-4.2,6.7-2.4,11.4,2.5,16.2c16.1,15.7,30.1,33.4,47.6,47.7
			C293.1,1193.3,309.5,1206.1,328.9,1217z M635.7,1476.9c-2.5,7.5-5.3,14.1-9.2,20c-12.6,19-7.2,45.3,5,60.3
			c10.9,13.4,23.5,25,37.9,34.4c10.2,6.6,20.9,12.8,33.6,13.2c26.7,0.8,39.8-19.7,58.1-35.5c-27.2-8-49.8-20.4-70.1-36.8
			C670.8,1516.2,653.7,1496.6,635.7,1476.9z M777.5,1701.9c0,5,0.1,7.6,0,10.2c-0.4,14.9,3.7,22.1,21.1,20.6
			c14.9-1.2,17-3.9,12.3-18.3c-0.2-0.5,0-1.2-0.3-1.4c-12.3-8.3-10.7-23.3-16.7-34.6c-6-11.3-16.4-17.7-27.6-23.1
			c-7.7-3.7-15.9-6.4-23.9-12.8c11.8,0.9,21.6,3.9,31.9,7c-3-16.7-3.8-33-8.9-49.1c-17.3,15.2-39,15.5-59.2,19.1
			c-0.9,2.7-0.2,4.5,0.1,6.5c3.4,18.4,3.2,36.6-2.6,54.6c-3.7,11.4-2.7,15.3,7.2,21.7c3.1,2,6.7,3.3,10.1,4.7
			c11.6,4.9,23.8,4.7,36,4.5C764.5,1711.2,771.9,1711.3,777.5,1701.9z M766.8,130.6c4.8-21.2,3.2-41.1-8.8-59
			c-11.3-16.8-27.2-28.3-46-35.6c-32.5-12.5-66-17.7-100.9-13.7c-32.6,3.7-61.5,15.4-85.4,38c-27.6,26-42.5,56.6-30,95.1
			c6.4,19.7,16.4,37.4,37,46.8c4-4.2,7.9-8.3,12-12.5c-0.9-0.7-1.9-1.5-2.9-2.2c-26.3-19.9-37.9-53.1-29.7-85
			c6-23.2,22.3-37.8,42.3-48.7c36.1-19.8,75-25,115.2-18.8c24,3.8,47.1,11.7,63.7,31.1c13.3,15.5,21.4,33.3,19.2,54.5
			c-1,9.5-0.3,10,9.5,10.1C763,130.6,764.3,130.6,766.8,130.6z M918.2,366.7c-2.9,4.9-2.5,10.1-2.4,15.2c0.1,5.8-0.1,12-3.4,16.6
			c-6.4,9.2-5.7,19.8-3.7,28.9c8.5,37.4,32.1,62.8,67.1,77.4c12.8,5.4,24.9,2.6,34.3-8.6c7.3-8.7,12.5-18.3,15.4-29.4
			c1.9-7.2,1.8-14-1.5-21.1c-14.3,22.4-38.3,26.1-56.4,9.2c-7.2-6.7-12.7-14.7-17.2-23.4c-9.5-18.3-15.2-38.4-25.4-56.4
			C923.1,372.1,921.6,368.7,918.2,366.7z M700.5,967c13.1,17.1,26.2,33.2,42.2,46.5c20.9,17.3,43.5,32.4,67.8,44.7
			c17.8,9,34.4,6.1,49.1-6.8c7-6.1,12.5-13.4,16.3-22c8.8-19.4,11.7-39.7,9.4-62.6c-6.3,19.1-10.9,36.6-20.7,52.1
			c-9.3,14.8-21.4,24.3-40.1,21.5c-7.4-1.1-14.6-2.8-21.5-5.6c-31.5-13-58.4-31.9-77.9-60.4c-22.2-32.5-43.9-65.3-54.1-104
			c-4.4-16.8-17.9-26.6-30.1-39.3c2.4,15.5,7.5,28.5,12,41.5c8.6,24.6,19.5,48.2,32.5,70.9c3.6,6.3,7.1,11.3,15.5,10
			c2.9-0.4,6.3,0.4,7.4,3.8c1,3.1-2.1,4.1-3.9,5.6C703.1,963.9,702.1,965.3,700.5,967z M980.3,612.8c1.8-1.2,3.7-2.1,5-3.5
			c19.1-18.6,33.5-50.9,12.8-80.8c-4.3-6.3-9.3-10.2-16.9-10.4c-19.4-0.5-34.5-9.8-48.2-22.4c-12-11.2-20.7-24.9-28.9-39
			c-12.1,17.2-7.4,33.2,1.6,49.2c7.8,13.9,20.6,22,33.6,29.9c10.2,6.2,20.7,12.1,29.1,20.8c14,14.4,15.4,32.3,9.9,45.3
			C976.4,606.3,976.5,609,980.3,612.8z M486.5,488.9c-5,10.3-5.5,19.7-1.1,28.9c6.2,12.9,18,16.5,31.1,17
			c-5.3,19.9-0.5,37.3,10.6,53.2c5.1,7.3,10.1,8.3,19.2,4.9c-8.4-12.6-13.4-25.9-10.4-41.4c2.3-11.5,8-21.3,14.4-30.8
			c6.5-9.7,14-18.7,17.8-30c3.3-9.9,3.7-19.1-4.7-28.1c-1,14.9-5.4,27.2-14.8,38c-16.9,19.4-48.7,19.6-59.7-7.7
			C488.4,491.8,487.6,490.8,486.5,488.9z M968.3,1592.9c-9.1,3.2-18.2,2.9-26.6,5.3c-10.4,2.9-19.4,2.6-27.5-5.3
			c-4.9-4.8-9.4-3.5-12.9,1.9c-8.5,13.2-17.4,26.1-23.4,40.7c-3,7.3-6.4,14.8-5.3,23.7c7.5-3.2,13.1-8.2,19.5-12
			c13-7.7,17.6-6.5,25,7.9c1.6-2.1,3-3.8,4.4-5.6c10.4-13.5,22-25.8,35-36.8C962.1,1607.8,966.8,1601.7,968.3,1592.9z M482,1684
			c-1.4-28.1-4.8-53.3-26.4-73.3c-9.1,17.8-23.4,21.9-40.9,18c2.5,26.1,15.9,45.6,31.7,65.3c1.4-5.6,2.1-9.9,2.8-14.3
			c1.9-11.5,8.9-14.2,18.6-7.3C472.1,1675.6,476.2,1679.2,482,1684z M588,603.6c12.3,5.4,22,14.2,32.3,22.1c5.5,4.2,12,4.2,18.5,2.3
			c6.8-1.9,12.9-5.4,18.9-8.8c8.9-5,18.1-7.9,28.5-7c6.2,0.6,12.5,0.3,18.6-1.3c7.4-1.9,10-7.6,5.9-14.1c-3.4-5.5-8.9-8.3-15.1-8
			c-7.4,0.4-14.8,1.8-22.2,2.8C645,595.7,616.5,599.7,588,603.6z M600.8,781.7c0,4.5-0.6,9.1,0.1,13.4c3.2,19.9,7.6,39.5,10.2,59.4
			c0.7,5.4,2,11,6.4,14.8c5.6,4.8,9.5,10.8,13.5,16.8c6.1,9.1,11.9,18.2,17.9,27.4c0.4-2.4-0.1-4.3-0.9-6.1
			c-10.6-25.8-18-52.5-24.9-79.4C618.8,811.1,615.6,793.9,600.8,781.7z M890.4,489.8c-12.4,14.4-12.3,29.9,2.7,39.2
			c9.9,6.2,20.3,11.5,30,18.1c18.5,12.6,35,27.2,47.9,47.3c1.6-11.9-0.1-21.6-6.7-30.2c-6.1-7.9-14.1-13.5-22.7-18
			C918,533.8,898.6,517.6,890.4,489.8z M554.8,592.3c1.3-5.9,2.3-11.5,3.7-17.1c1.4-5.8,4.2-11.1,7.1-16.4c1.6-2.9,4.4-5.9,3-9.7
			c-4.3-11.2-0.1-20.9,5-30.5c4-7.6,8.7-14.9,11-23.5c1.4-5.1,0.3-8-4.6-9.8c-1.6,13.6-4.6,20.6-14.5,34.1c-6.6,9-13.2,18-18.2,28.1
			C539.8,562.2,543.8,585.4,554.8,592.3z M904.6,385.9c2.8-1.6,3.3-4.2,3.5-6.5c1.1-12.6,5-24.8,6.6-37.3c1.3-9.3,3.7-18.5,1.2-28.1
			c-1.2-4.5-3.6-5.7-7.6-4.8c-8.8,2-15.4,12.5-13.1,21.1c2.4,9.2,3.1,18.5,4.3,27.9C900.6,367.4,900.9,376.9,904.6,385.9z
			 M904.6,1382.1c16.4,0.2,27.2-7.4,28.7-20.2c0.5-4.6-0.4-9.4-1.1-14.1c-1.7-11.7-3.6-23.3-5.4-34.9
			C918.9,1335.9,910.5,1358.3,904.6,1382.1z M587.3,474.9c-7.2-20.2-15.3-38.5-23.3-56.8c-1.9-4.3-4.4-8.1-9.6-8.1
			c-4.2,0-7.2,3-8.6,6.3c-1.7,4.1-1.6,8.3,1.9,12.4c9.6,11.1,18.7,22.6,25.9,35.5C576.3,468.8,580.3,472.9,587.3,474.9z
			 M341.9,652.5c6.8-1.3,9-6.4,10.6-11.1c4.5-13.3,9.4-26.5,15.2-39.3c3.1-6.9,1.1-14.1-4.1-15.3c-6.7-1.6-8.9,4.3-10.7,8.9
			C346.1,613.9,344.1,633,341.9,652.5z M323.9,662.2c2.8-0.1,3.9-0.9,4.3-2.1c5.2-15.1,8.2-30.6,5.7-46.6c-0.6-3.8-3.2-6.9-6.9-6.4
			c-4.7,0.6-8.2,4.1-8.6,9C317.1,631.8,320.8,646.9,323.9,662.2z M479.9,691c8.5,8.9,17.1,15.5,25.6,22.4c2.6,2.1,4.8,1.5,6.3-1.1
			c3.1-5.4,6.3-10.8,7.5-17c1.1-5.8-2.9-11.1-7.5-10.3C501.5,686.8,491.3,688.8,479.9,691z M376.2,639.4c4.2-0.5,5.6-2.3,6.2-4
			c3.7-9.9,7.6-19.8,10.7-29.9c1.6-5.3-0.5-10.2-6.6-13.9C374.7,605.9,380.9,623.5,376.2,639.4z M610.5,541.2
			c-16.2,15.7-18,35.2-15.7,55.9c6.1,0.4,7.6-2.3,7.3-7.2c-0.2-2.9,0.4-5.9,0.7-8.9C604.1,567.5,607.4,554.4,610.5,541.2z
			 M574.8,541.9c9-9.3,22.1-12.7,20.7-27.6c-0.3-3.2,2-6.6,2.8-9.9c0.9-3.7,1-7.4-0.1-11.1c-1.1-3.3-2.8-5.3-6.8-3
			C596.5,510.2,578.6,522.6,574.8,541.9z M524.9,247.7c-8.4,12,6.1,46.6,28.4,64c2.8-2.6,1.8-6.4,3.6-9.5
			C535.1,290.2,527.4,270.5,524.9,247.7z M311.4,661.8c3.6-12,2.5-23.9,0.2-35.8c-0.3-1.7-0.1-4.9-3.4-4.9c-3.1,0-4.2,2.4-4.8,4.8
			C299.5,639.2,302.7,651,311.4,661.8z M418.4,629.2c7.1-3.9,14.8-18.7,13.6-25.4c-0.5-2.5-1.6-4.6-4.6-5.1
			c-2.7-0.4-5.6-0.3-6.4,2.3C418.2,610,413.4,618.9,418.4,629.2z M522.6,315c2.1,16.3,14.3,36.4,26.6,44.5
			c-0.6-5.5,2.6-11.5-2.2-15.6C537.7,335.7,529.8,326.4,522.6,315z M171,704c1.1,4.9,1.3,9.9,3.5,14.4c1.5,3,3.3,5.5,7.3,5.2
			c4.2-0.3,6.1-3.1,7.1-6.5c1.7-5.6,1.1-11.2-1.2-16.6c-2.1-4.8-5.3-8.1-10.9-6.8C171.5,695,172.3,700.2,171,704z M755.3,1719.8
			c-1,6.4,1.7,11.2,7.4,13.7c2.6,1.1,6.7,1.6,8.7-1.9c2.9-5.3,2.6-10.6-1-15.8C765.7,1718.7,760.2,1716.2,755.3,1719.8z
			 M888.7,302.5c8.1-15.1,7-30.2,0.4-45.3C892.7,272.3,889,287.4,888.7,302.5z M750.3,1732.1c0.8-4.3,0.3-7.8-1.9-11.1
			c-2.9-4.1-7.4-5.2-11-2.7c-3.6,2.5-1.8,6.7,0.7,9.9C741.1,1732.1,745,1733.4,750.3,1732.1z M711.4,1709.7
			c-7.4-5.6-7.4-5.6-12.4-5.3c-2.1,10.6,0.5,14.9,10.6,17.1C710.8,1717.6,709.1,1713.2,711.4,1709.7z M580.6,836.3
			c0.6-6.3-1.2-11.5-2.8-17c-5.1,2.2-9.3,4.6-13.6,8.1C569.9,830.5,575,833.2,580.6,836.3z M729.3,1725c2.7-9.7,2.3-10.5-6-11.8
			c-3.1-0.5-7.5-1.3-7.2,3.7C716.8,1724.7,723.5,1723.8,729.3,1725z M617.7,523.6c-4.1-5.3-7.3-9.4-12.4-13.7
			c0.3,5.6-3.9,8.9-2.9,13.7C607.2,523.6,611.8,523.6,617.7,523.6z M571.8,597.3c1-9.2,2-18.2,3-27.6
			C566.8,580.6,565,594.8,571.8,597.3z M539.6,377.2c2.6,11.1,6.5,14.3,14,11.9C552.2,381.3,543.4,382.1,539.6,377.2z" />
            <path fill-rule="evenodd" clip-rule="evenodd" fill="none" d="M992.5,674.9c24.8-3.7,34.8-15.7,29.2-34.7c-2.3,2.4-4.3,4.8-6.5,7
			c-3.1,3.2-7.2,4-11,2.4c-3.8-1.6-5.7-5.2-5.9-9.6c-0.3-7.5,3.3-13.4,7.4-19c4.8-6.7,10.1-13,14.8-19.7
			c15.9-22.4,15.8-45.6-0.1-69.4c-2.2-3.3-4.5-6.6-6.7-9.8c21.3-17.9,30.3-47.3,22.1-72.9c-4.8-15.1-15.2-24.1-30.7-27.2
			c-3.8-0.8-7.2,0.2-11.6,2.5c4.8,1.8,8.8,3,12.5,4.7c7,3.1,9.5,8.8,7.1,15.8c-3.7,11-18.6,16.5-28.5,10.4
			c-13.8-8.6-21.4-21.9-26.7-36.7c-3.7-10.2-6.9-20.7-10.2-31c-4-12.2-10.5-22.4-21-30.1c-5.2-3.9-8.9-8.9-4.4-16.2
			c29.2,12,55.6,28.2,80.8,46.6c25.2,18.5,41.1,44.6,58.1,69.7c26.6,39,40.3,83.2,49.8,129c7.6,36.7,13.4,73.7,17.8,110.8
			c3.4,28.2,5.2,56.6,7.9,84.8c4.7,49.8,6.6,99.7,5.9,149.7c-0.4,27.2-4.8,53.9-9.4,80.6c-8.6,50.1-19.8,99.7-35.8,148
			c-10.5,31.8-14.7,64.8-19.8,97.7c-4.9,31.9-17.1,61.5-31.6,90.2c-25.1,49.8-46.1,101.1-58.7,155.6c-3.5,15.2-5.3,30.7-9.9,45.7
			c-8,25.7-28.9,37.3-52.9,38.4c-8,0.4-9.9-2.8-6.8-10.1c12.4-29.1,20.9-59.4,25-90.7c2.9-22,4.1-44.3-1.5-66.1
			c-1.3-5.1-1-9.8,0.5-14.6c9.2-29.9,10.9-60,2.4-90.4c-2.7-9.5-4.7-19.3-6.7-29c-1.7-8.1,0-16,3.2-23.4c5.8-13.3,5.9-26.8,4.5-40.9
			c-1.8-18.1-2.7-36.4-3.5-54.6c-1.1-25.7-5.8-50.8-11.1-75.9c-4.2-19.7-6-39.8-10.3-59.4c-3.5-16-4.1-32-5.8-48.1
			c-1.5-14.4-7.9-27.5-15.8-39.1c-12.6-18.5-11.2-33.9,1.8-52.2c20.1-28.3,36.6-59.1,46.4-92.9c4.1-14.1,10.6-27.3,17.5-40.2
			C978.7,733.7,992.5,706.5,992.5,674.9z" />
            <path fill-rule="evenodd" clip-rule="evenodd" fill="none" d="M522.9,452.2c-3.7-4.9-8-2.6-11.4-1.7c-49.2,12.8-53.2,56.2-35,86.7
			c4.1,6.9,10.4,11.4,17.4,14.8c2,1,4.3,1.2,4.6,4.1c0.9,12,3.4,23.6,9.8,34.5c-11.2,4.2-22.3,5.7-33.2,7.8c-5.1,1-9-3.7-12.8-6.8
			c-2.8-2.4-5.7-4.5-9.4-2.7c-3.3,1.6-3.9,4.8-4.2,8.2c-0.7,6.7,0.4,13.2,2.7,19.9c-6,1.7-11.3,4.4-17.6,4.1
			c0.9-3.5,1.8-6.5,2.5-9.6c1.3-6.4-0.1-12.3-5.5-16c-5.9-4-12.3-3.3-18.1,0.9c-1.6,1.2-3.1,2.5-4.6,3.9c-3.1,2.9-5.3,1.9-6.8-1.7
			c-0.4-0.9-0.6-1.9-1.1-2.8c-5.8-10.9-13.8-12.2-22.6-3.4c-2.3-4.8-5-8.9-10.4-10.7c-8.9-3-15.1-0.5-18.8,8
			c-2.7,6.3-3.1,13.4-7.2,19.7c-0.8-0.9-1.5-1.6-2-2.3c-7.6-10.2-17-10.2-24.3,0.3c-2.4,3.5-4.6,5.3-8.9,4.9c-5.6-0.4-8.5,3-10.1,8
			c-3.6,11.1-0.4,21.6,2.1,32.3c0.4,1.9,1.1,3.7,1.8,5.9c-37.3,5.5-73.7,14.8-110.6,21.1c-3.4,0.6-6.9,0.6-10.3,1.4
			c-10.6,2.5-14.7,7.2-15.1,18c-0.4,9.6,0.5,18.9,4.6,27.7c6.1,13.3,12.8,17.2,27.2,14.3c22.1-4.4,44.1-9.6,66.2-13.8
			c20.7-3.9,41.6-7,62.4-10.1c19.8-2.9,39.5-6.8,59.1-11c5.3-1.1,7.9,0.2,10.3,4.4c7.8,14.4,11.1,30.6,19.4,46.9
			c-13.8-5.7-25.8-9.8-38.5-11.9c-39.7-6.6-77.1-0.5-112.7,18.2c-8.4,4.4-16.3,9.6-23.7,15.5c-22.1,17.8-44.8,13.9-65-1.4
			c-22-16.6-32.3-39.6-33.3-67.1c-1-28.8,8.6-55.1,17.5-81.7c6.1-18.3,12.3-36.6,14.8-55.9c2.7-21.2-3.1-39.8-15.1-57
			c-1-1.4-2.4-2.6-3.7-3.7c-0.5-0.4-1.4-0.3-2.4-0.5c-1.7,5.6,2.2,10,2.5,15.1c1,17.3-6.3,31.6-16.1,44.6
			C114.5,601.9,93.7,633.2,77,667c-13.4,27.1-22.2,55.7-18.3,86.3c4.6,36.8,18.3,69.6,47.2,94.4c6.8,5.8,13.9,11.4,21.6,17.7
			c-25.3,10.3-43.3,28.2-57.9,51c-7.9-7.8-13.3-16.7-18.2-25.7c-16-29.1-24.7-60.4-27.6-93.4c-3.7-42.1-2.1-84,9.4-124.6
			c15-52.8,36.5-103.2,71-146.6c18.1-22.7,35.6-46.3,56.9-66.2c40.3-37.5,88.2-62.7,138.8-83.2c33.7-13.6,68.2-24.4,104.1-29.6
			c29.2-4.2,58-11.7,87.9-9.8c4.4,0.3,6.6,1.2,7.9,5.6c6.3,21,18.1,38.6,33.2,54.3c4.5,4.7,7.7,9.2,4.6,16.7
			c-2.6,6.3,0.9,12.7,4.9,18c8,10.7,7.5,21.8,1.8,32.9c-6.2,12.2-16.3,19.3-30.3,19.7c-8.6,0.3-12.2-5.3-10.2-13.8
			C506.3,461,515,457.5,522.9,452.2z" />
            <path fill-rule="evenodd" clip-rule="evenodd" fill="none" d="M626.1,592.8c-0.6-18.8,2.9-35.8,10.7-52.4
			c5.6,1.3,9.5,4.8,13.8,7.5c21.8,13.8,43.5,28,68.5,35.5c39.9,12,78.3,9,113.6-14.3c14.8-9.8,24.3-24.9,34.2-39.3
			c1.4-2,2.3-4.4,5-5.8c4,9.3,12.7,12.6,21.2,16.5c43.7,19.8,73.3,51.7,85.2,98.8c4.3,17.2-0.4,34-2,51c-2,20.7-9.7,38.9-22.3,55.1
			c-3.8,4.9-8.3,9.4-12.9,13.6c-12.7,11.6-21.8,25.7-30.8,40.2c-23.6,37.9-54,68.9-93.2,91c-15,8.4-29.6,9.3-46.8,5.1
			c-37.3-9.1-68.8-27-97.6-51.8c-27.8-24-48.3-53.6-68.5-83.5c-2.2-3.3-3.9-7-5.3-10.6c-5.4-14.3-15.2-23.9-29-30.6
			c-14.4-7-27.6-16-36.4-30c-2.4-3.8-4.3-7.8-6.4-11.8c-2.9-5.6-6.4-10.6-11.8-14.2c-5.8-3.8-9.6-9.4-12.2-15.7
			c-4.2-9.9-11.3-16.7-21.1-21.1c-4.9-2.2-9.5-5.3-14.1-8.3c-7.4-4.9-10.8-11.9-11-21.3c2.8,0.3,4.9,1.2,6.5,3
			c6.9,7.8,15.8,11.9,25.5,14.8c7.5,2.2,12.8,7.3,17.8,13c6.5,7.5,13.2,14.9,26.5,15.5c-13.8-17.5-31.5-27-49.1-38.9
			c8.1-0.1,13.8-0.9,20.5,4.5c10.5,8.5,24.1,12.5,36.8,17.5c1.9,0.8,4.5,0.9,6.3-1.8c-11.7-11.1-27-16.3-41.2-25.5
			c10-2.5,18.3-0.2,26.1,4.1c7.4,4.1,14.5,8.6,21.9,12.8c1.7,1,3.6,1.5,5.5,2.3c2.4,1,4.7,0.9,5.8-1.6c1.1-2.5-0.6-4.5-2.7-5.5
			c-5.2-2.6-10.6-4.8-15.7-7.9c16.8-1.4,31.2,5.1,45.2,13c9.4,5.3,17.9,11.8,25.2,19.8c5.8,6.4,12.1,6.9,19.6,4
			c7.7-2.9,14.5-7.5,21.6-11.7c8.2-4.9,16.7-8.5,28.4-8.5c-7.2,4.8-13.1,8.9-19,12.8c-3,1.9-5.9,4.1-7.6,7.2
			c-5.8,10.4-12.8,20.1-19.2,30.1c-4.6,7.2-1.5,14.6,2.2,21.2c14.3,25.8,33.6,47,62,56.9c37.5,13.1,71.6,32.1,103.1,55.9
			c2,1.5,4.2,2.7,6.3,4c0.6,0.4,1.4,0.5,3.3,1.1c-1.5-15-17.5-15.6-23.8-25.9c42-44.6,75.1-94.2,82.3-157.2
			c-6.2,7.6-7.3,17.5-12.1,25.9c-5.7-1.7-4.4-9-9.5-11.2c-2.7,3.9-0.5,7.3,1.4,10.1c4.8,7,3.9,13.8,1,21.2
			c-12.8,32.4-31.2,61.1-57.1,84.7c-5.5,5-10.2,10.9-16,17.2c-27.7-20.9-63-25.2-92.6-42.3c-15.5-8.9-29.4-19.6-36.4-37.1
			c-3.4-8.5-3-16.4,2-24.1c1.5-2.3,3.3-4.7,3.8-7.3c4.1-22.4,22.3-29.2,40.1-36.5c2.5-1,5.1-2,7.7-2.9c10.7-3.9,15.8-11.2,14.4-20.6
			c-1.8-11.8-10.3-19.9-21.6-20c-15.8-0.1-31,3.9-46.4,6.6C646,590.7,636.7,593.5,626.1,592.8z M831.2,582.1
			c-8.3,7.7-21.7,10.2-24.1,23.9C813.5,596.3,830.1,597.2,831.2,582.1z M799.7,869.5c1.9-6.1-1.2-8.3-5.8-9.1
			c-1.9-0.4-4.5-0.2-4.1,2.7C790.6,868.2,794.6,869.2,799.7,869.5z" />
            <path fill-rule="evenodd" clip-rule="evenodd" fill="none" d="M581.4,1118c-7.8,21-23.1,34-44.6,37.6
			c-35.8,6.1-68.7-0.7-96.7-25.6c-6.7-5.9-14.4-10.7-21.7-15.9c-10.5-7.3-16.4-18.6-24.4-28.1c-2.8-3.3-5-7.4-10.3-8.4
			c-4.2,13.6,6.3,22.8,9.8,34.6c-12.7,0.4-23.6-3.1-33.2-10.1c-9.3-6.7-17.8-14.5-27.1-21.2c-14.8-10.7-32.6-15.7-47.9-25.7
			c-15.2-9.9-31.3-18.4-46.2-28.8c-24.1-16.8-39.2-40-47.9-67.6c-11.9-38.1-12.3-76.1,5-112.8c21.9-46.3,59.6-73.9,108.4-86.2
			c50.7-12.8,96.7-0.9,137.6,30.7c24.7,19.1,40.3,45,51.7,73.6c9.6,24.2,16.3,49.6,28.9,72.6c12.8,23.3,26,46.4,38.1,70.1
			c13.6,26.6,23.1,54.3,25.8,84.1c0.8,9.3-0.6,18.7-5.5,27.1c-0.1-4.9,1.9-9.6,1.4-14.7c-1-9.3-7.6-15.1-15.8-11.4
			c-11.5,5.2-22.3,4.6-33.8,1.1c-7.5-2.3-18.2,3-22.8,9.9c-4.4,6.7-3.8,14.4,1.8,22.2c10.5,14.7,32.5,19.6,48.5,11.3
			C569.2,1132.2,574.9,1124.7,581.4,1118z M426.3,1024c0-14.8,1.2-28.9-0.3-42.8c-2.4-22.4-11-41.5-33.9-50.4
			c-8.3-3.2-17.2-4.8-26-6.2c-20.8-3.4-41.7-6.6-61.3-14.9c-21.3-8.9-36.1-23.1-39.8-47.2c-0.9-6.1,0.7-12.6-2.1-19.6
			c-7.9,14.8-11.3,29-9.5,45c2.3,20.5,10.2,38.4,24.5,52.3c23.6,23,54.1,33.6,85.4,41.3c19.4,4.8,38.1,9.2,48.3,29.3
			C414.3,1016.2,418.3,1022.1,426.3,1024z" />
            <path fill-rule="evenodd" clip-rule="evenodd" fill="none"
                d="M626.4,232.1c10.9,23.2,18.1,47,28.1,69.6
			c9.7,22.2,21.1,43.5,42.4,56.5c12.2,7.4,22.3,14.3,27.8,29c5.4,14.2,21.3,20,33.5,28.5c1,0.7,2.1,1.2,4.3,2.5
			c0.3-21.6,8-43.1-8.7-61.7c-0.9-1-1.4-1.9-1-3.4c6.9-30-1.9-58-10.8-86c-7-22-15.8-43.3-25.7-64.6c5.9-2.8,12-1.4,17.8-1.6
			c37-1.4,70.3,8.8,98.7,33.2c28.1,24.1,44.7,54.5,50.2,91.2c3.5,23.1,8,45.9,11.9,68.9c4,23.9,1.5,47.1-7.5,69.6
			c-10.2,25.3-23.2,49-38.3,71.6c-14.8,22.2-37.3,31.9-62.6,36.5c-26.5,4.8-51.4-1.3-75.8-10.7c-23.5-9-46.6-18.9-66.7-34.6
			c-22.8-17.9-39.8-39.9-50-67.5c-6.4-17.4-14.8-34.2-22.3-51.2c-22.2-50.5-12.4-120.7,30.2-159.4C609,242.2,617,236.8,626.4,232.1z
			 M715.5,441.6c1.4-3.2-0.4-5.4-1-7.7c-7.5-29.4-30.7-42.2-59.8-33.6c-11.7,3.5-22.4,9.3-34,12.9c-12.9,4-24.9,3.3-36.5-3.6
			c-1.7-1-3.3-3.1-5.9-2.2c-0.7,1.9-0.1,3.5,0.4,5.1c3.8,11.9,13.6,17.2,24,21.9c13.3,6,26.6,10,41.8,7.4
			c11.1-1.9,21.2-6.7,32.3-8.3c11.6-1.6,23.3-4.2,32.5,6.4C710.6,441.6,712.8,442.4,715.5,441.6z M800.7,414.1
			c0.4-3,0.8-4.9,0.8-6.8c-0.3-13.1,7.1-21.3,17.5-27.5c7.5-4.5,15.7-7.4,23.7-10.7c24.6-9.9,36.6-26.6,35.4-49.6
			c-0.3-5-0.8-10.2-5.8-13.7c-10.1,21-13.6,24.1-32.2,28.5c-3.1,0.7-6.3,1.3-9.5,1.9c-30.1,5.9-41.5,25.3-42.3,52.9
			C788.1,398.6,789.7,408.3,800.7,414.1z M839.8,483.2c-12.3,0.7-22.9-0.8-33.5-0.9c-6.9-0.1-13.8,1-19.6,5.8
			c-3.2,2.6-7.2,3.9-11.2,3.6c-21.6-1.5-31.5,16.7-47.4,26.8c9.3,2.4,16.2,6.7,23.3,10.8c20.1,11.7,39.4,9.6,58-3.4
			C823.9,515.8,830.8,499.9,839.8,483.2z M737.5,463.8c1,4.3,1.1,4.8,5.5,4.5c6.6-0.4,12.8,1.1,19.2,1.8c8.3,0.9,15.9-0.7,21.9-6.2
			c5.2-4.6,10.3-9.1,16.5-12.5c5.5-3.1,5.2-5.8,2-8.6c-9.8,7.4-18.3,17.2-29.5,20.3C762,466.3,749.3,463.8,737.5,463.8z" />
            <path fill-rule="evenodd" clip-rule="evenodd" fill="none"
                d="M883.4,1376.6c-20.5-4.7-35.3-18.2-52.2-28
			c-22.5-13.1-38-32.5-52.8-52.9c-33-45.4-63.1-92.4-86.8-143.4c-21.3-46-39.3-93.2-55.2-141.3c-1.7-5-1.2-7.5,4.1-10.2
			c9.3-4.6,17.9-10.7,26.9-16.1c3.6-2.1,6.7-5,11.4-6c17.5,23.4,36.5,45.5,58.1,65.2c21,19.2,42.6,37.3,70.6,46.3
			c26.9,8.6,49.2,1.6,68.5-17.6c7.1-7,13.6-14.6,20.8-22.5c3.6,6.9,3.5,14.6,5.2,21.7c7.3,31,11.2,62.5,15.4,94
			c1.9,14,4.2,28,6.1,42c4.1,30.3-3.2,58.8-12.6,86.9c-8.6,25.6-19.3,50.4-25.6,76.7C884.8,1373.1,884.1,1374.7,883.4,1376.6z" />
            <path fill-rule="evenodd" clip-rule="evenodd" fill="none" d="M578.8,1008.7c11.1,2.3,21,1.4,31.2,1.8
			c11.9,35.1,24.7,69.7,40,103.3c14.6,32.1,28.4,64.7,45.1,95.7c16.3,30.2,38.1,57.1,58.9,84.4c23.8,31.1,52.3,57.5,85.1,79
			c19.4,12.7,40.5,22.1,64.2,24.1c10.9,0.9,21.1-0.8,31.6-5.4c-5.7,27.2-19.3,49.3-35.8,70.1c-9.4,11.8-19.6,22.6-33.4,29.4
			c-26.8,13.1-51.4,13.8-77.1-5.7c-33.7-25.5-63.9-54.1-91.6-85.8c-23.8-27.3-45.9-55.8-61.2-88.9c-14.2-30.7-23.9-63-33.9-95.2
			c-6.6-21.3-12.1-42.9-17.6-64.5c-1.1-4.5-0.7-8.3,2.2-12.5c9.8-14.4,11.5-30.9,11.2-47.9c-0.5-25.5-7.7-49.4-16.1-73.2
			C581,1015,580.2,1012.7,578.8,1008.7z" />
            <path fill-rule="evenodd" clip-rule="evenodd" fill="none" d="M443.2,1153c24.3,13.8,48.3,26.4,77.2,23.2
			c5,31.6,10.7,62.7,18.6,93.4c11.7,45.6,28.2,89.3,51.9,130.2c10.7,18.5,18.5,38.6,31.6,55.8c2,2.6,2.1,5.5,0.9,9.1
			c-4.5,13.9-11.9,26.6-14.6,41.2c-1.5,8.1-2.1,16.2-3,24.4c-5.6,2.3-11,0.5-15.4-1.4c-24.9-10.3-50.5-18.7-71.9-36.5
			c-23.3-19.4-39.1-43.5-50.1-71.2c-12.2-31.1-18.5-63.5-22.7-96.5c-5.4-42-6.3-84.1-5.8-126.3C440.1,1183.7,441.2,1169,443.2,1153z
			" />
            <path fill-rule="evenodd" clip-rule="evenodd" fill="none" d="M67.5,1169.1c10.2-27,4.3-53-2.3-78.7
			c-14.7-56.9-9-111.4,17.6-163.6c15.1-29.6,39.3-46.8,72.7-50.5c4.1-0.5,7.9,0.5,11.9,0.8c2.1,3.8-0.3,7.3-0.7,10.8
			c-6.1,46.7,4.4,89.2,32.1,127.4c0.7,1,1.3,2.3,2.2,3c11.7,8.4,12.2,19.7,9.3,32.6c-4.5,20-10.1,39.4-21.9,56.5
			c-13.4,19.3-32.1,31.5-53.1,40.8C113.8,1157.7,91.1,1163.7,67.5,1169.1z M97.2,1061.6c0.6,0,1.2,0.1,1.8,0.1
			c0.5-1.1,1-2.1,1.4-3.3c5.1-15.2,3.6-31,3.3-46.6c-0.2-10.7-0.3-21.5,2.4-31.9c5.6-21.6,19.1-36.6,39.4-45.7
			c3.8-1.7,7.9-2.9,9.7-7.4c1-2.5,1.5-4.8-0.3-6.9c-1.8-2.1-4.1-1.3-6.2-0.6c-25.8,7.8-48.2,35.8-51.2,62.5
			C94.4,1008.5,99.8,1035,97.2,1061.6z" />
            <path fill-rule="evenodd" clip-rule="evenodd" fill="none" d="M326.8,1258.3c1.9,3.6,1.9,7.2,1.9,10.6
			c-0.1,17.2,0.8,34.5,1.2,51.7c0.2,7.1,3,9.8,9.1,11c11.7,2.3,23.2,5.2,33.9,10.5c12.1,5.9,23.4,13.1,34.8,20.2
			c3.2,2,6.4,4.4,4.6,9.1c-8.9,23.6-9.5,48.4-9.4,72.9c0.1,34,2.6,68,12.8,100.9c4.8,15.7,10.2,31.1,18.2,45.5
			c0.7,1.3,1.3,2.7,1.9,4.1c6.8,15.3,3.3,20.7-13.7,20.9c-10,0.1-18.9-1.3-25.2-10.9c-16.8-25.3-35.6-49.3-51.1-75.5
			c-18.8-31.6-33-65.1-38.9-101.6c-4.8-29.6-5.5-59.4-2.3-89.4c2.6-25.5,10.2-49.4,18.5-73.3
			C323.7,1262.8,323.8,1260.1,326.8,1258.3z" />
            <path fill-rule="evenodd" clip-rule="evenodd" fill="none" d="M566.3,1162c2.9,18.2,6.7,35.4,11.7,52.2
			c16.1,54.3,37.2,106.3,68.4,153.9c9.9,15.1,21.6,28.7,33.8,41.8c31.8,34.2,64.1,67.8,102.8,94.5c18.3,12.6,27.3,15.2,58.7,16.7
			c-5.4,12.9-14,22.4-28.1,23.2c-13,0.8-25.8,2.4-38.7,3.8c-15.8,1.7-29.2-3.9-42.4-11.1c-48.2-26-83.2-65.2-110.5-111.8
			c-16.8-28.7-34.5-57.3-43.4-89.7c-12-43.4-23.5-87-30.7-131.5c-1.3-7.8-2.9-15.6-4.2-23.4c-0.8-4.4-0.3-7.9,5.1-9.8
			C554.6,1168.7,559.9,1165.3,566.3,1162z" />
            <path fill-rule="evenodd" clip-rule="evenodd" fill="none" d="M731.2,128.2c-33.8-0.2-65.5,4.8-94.5,20.7
			c-12.6,6.9-25.8,10.2-39.7,11.4c-13.1,1.1-24.5,5.9-34.7,13.7c-4.3,3.3-7.7,3.4-12.5,0c-39.9-27.9-37.4-86.3,4.8-111.3
			c22.1-13.1,46.4-18,71.5-20.9c19.8-2.3,39.4-2.3,58.5,3.4c32.2,9.6,53.9,30,61.1,63.8c1.2,5.6,2,11.8-0.6,17
			C741.6,132.9,735,126.1,731.2,128.2z" />
            <path fill-rule="evenodd" clip-rule="evenodd" fill="none"
                d="M563.6,279c-6.6-6.3-12.9-12-17.7-19.1
			c-12.8-18.6-10.9-40.6,4.4-57.4c14.9-16.3,32.7-26.3,54.9-28.1c17.2-1.4,32.6-7.8,47.6-15.7c17.8-9.4,36.4-16.5,56.5-19.6
			c16.6-2.5,32.7,0.5,48.8,3.6c21.7,4.2,43.4,9,62.6,20.7c22.8,14,38.2,33.9,44.5,60c2.5,10.1,1.4,20.7-0.2,32.9
			c-8.9-9.9-16.5-18.9-25.2-26.6c-27.9-24.5-59.9-38.3-97.4-39c-41.4-0.8-80.6,7.3-117,27.2C599.2,232.2,577.3,251.2,563.6,279z" />
            <path fill-rule="evenodd" clip-rule="evenodd" fill="none" d="M160.6,558.8c1.7,22.9-3.6,43.5-10.8,63.6
			c-6.7,18.6-14.5,36.9-18.3,56.5c-4.4,22.6-4.7,45.2,3,67.3c11.7,33.7,37.1,51.3,71.3,59.3c-5.5,7.8-10.7,15.2-16,22.7
			c-6.5,9.1-12,18.8-15.4,29.5c-0.9,2.8-2,4.8-5.2,3.7c-41.2-13.7-76.5-34.9-90.8-79C66,745,71,708.2,87.1,672.8
			c14.9-32.9,37.8-60.6,57.8-90.2C150,575,154.9,567.4,160.6,558.8z" />
            <path fill-rule="evenodd" clip-rule="evenodd" fill="none" d="M725.9,1733.4c-9.1,8.2-18,13.3-29.6,9.7
			c-8.5-2.6-16.7-0.4-24.8,1.9c-6.7,1.9-13.2,4.1-20.4,4c-17.5-0.2-28.8-11.1-29.6-28.6c-0.6-13.6,2.5-26.8,3.5-40.2
			c0.8-11.7,0.1-22.8-4.7-33.9c7.2-3.1,15.6-0.6,23.3-5.2c-5-4.6-10-4.4-15.1-4.1c-9.1,0.6-18,2.5-27.4,1
			c-32.8-5.1-47.9-34.8-34.4-61.6c7.2-14.4,17.6-24.5,33.5-28c6.6-1.5,11.7-1.1,16.1,6.2c11.9,19.6,27.9,35.8,46.1,49.6
			c7.1,5.4,15.1,9.6,24.1,11.2c5.3,0.9,8,4.2,8.7,9.6c4.1,30,4.3,59.5-9.4,87.5c-1.7,3.4-0.6,5.7,1.4,8.1
			c5.4,6.7,11.9,10.9,21.2,10.4C713.7,1730.8,719.6,1729.3,725.9,1733.4z M631.7,1700.6c8.7-12,10.7-43.6,3.5-51.3
			C635.1,1666.4,635,1682.6,631.7,1700.6z" />
            <path fill-rule="evenodd" clip-rule="evenodd" fill="none" d="M677.7,958c-12.1,6.8-22.7,13.2-33.8,18.8
			c-19.2,9.8-38.4,10.4-59.8,4.4c-25.1-7-36.7-24.2-45.5-45.7c-8.1-20-15.8-40.1-24-60c-6.4-15.6-15.4-30-24.1-45.7
			c10.5-2.3,20.4-4.4,31-3.6c29.2,2.1,51.7,17,72.7,35.9c18.2,16.4,31.9,36,44,57C647.7,935.4,658.1,950.9,677.7,958z" />
            <path fill-rule="evenodd" clip-rule="evenodd" fill="none"
                d="M402.2,703.5c20.2-3.3,39.9-6.6,59.7-9.9c3-0.5,5.5,0.6,7.2,2.9
			c7.8,10.2,18.3,16.8,29.6,22.1c17.1,8.1,27.8,21.1,32.8,39.2c1.7,6,4.4,11.6,7.4,17.1c4-17.7-0.8-33.4-12.6-46
			c-5.4-5.7-5.8-9.4-1.9-15c1.1-1.6,1-3.9,3.6-5.6c6.5,5.1,13.2,10.5,20.1,15.6c5,3.7,10.1,7.3,16.3,8.8c4.7,1.1,6.2,4.1,6,8.8
			c-0.6,13.2,2,26.2,4.1,39.2c1.4,8.5-0.7,15.3-7.1,21.6c-14.1,13.8-30.2,19.1-49.7,14.8c-9-2-18.5-1-27.4,1.7
			c-5.2,1.6-8.1-0.5-10.9-3.9c-8.6-10.7-16.9-22.1-28.4-29.6c-22.6-14.6-28.4-39.2-39.3-61C408.5,717.7,405.5,710.7,402.2,703.5z" />
            <path fill-rule="evenodd" clip-rule="evenodd" fill="none" d="M429.4,1355.9c-16.6-9.4-31.3-20.3-47.8-27.9
			c-7.7-3.5-15.4-7.3-23.5-9.4c-5.8-1.5-7.5-4.9-8.2-9.7c-3.9-27.8-3.9-55.6-1.9-83.6c2.5-34.3,9.4-67.9,14.2-101.8
			c0.1-0.4,0.5-0.8,1.2-1.6c8.7,1.8,16.6,6.9,26,7.4c4.8,0.3,9.5,0.2,14.2-0.2c6.7-0.7,8.9,2.3,9.5,9c2.7,32.2,0.4,64.5,1.4,96.8
			C415.6,1275.1,418,1315.3,429.4,1355.9z" />
            <path fill-rule="evenodd" clip-rule="evenodd" fill="none" d="M505.9,250c-13.8,3.9-24.8,11.8-35.2,20.3
			C442,293.9,394,284.2,372.5,260c-13.8-15.4-19.7-33.6-23.9-52.8c-4-18.5-7.8-37-21.8-51.8c10.4-3.8,20.4-5.5,30.3-6.7
			c18.3-2.3,36.7-3.6,55.1-1.6c21.4,2.3,42,6.8,59.7,20.2c14.9,11.3,20.5,27.7,25,44.6C500.1,224.3,502.8,236.9,505.9,250z
			 M486.6,238.3c-11.4-14.9-17.4-31-25.9-45.8c-4.9-8.6-12.4-13.2-21.9-15.1c-14.3-3-26,7.2-22.7,21.1c2.2,9.1-0.5,12.4-8.7,15
			c-8.7,2.8-12.5,12.6-9.6,21c3.7,10.9,12.3,15,22.9,16.2C443.3,253.1,463.6,244.6,486.6,238.3z" />
            <path fill-rule="evenodd" clip-rule="evenodd" fill="none" d="M504.8,669.7c-102.7,16.6-203.6,34.7-305.3,54.9
			c1.4-14.3-1-26.4-11.3-38.1c39-7.9,75.7-15.3,112.6-22.7c3.7,6.1,7.4,7.6,15.9,6.7c8.4-0.8,14.4-3.4,21.7-6.5
			c6.3-2.7,12.1-4.6,16.1-10.4c3.6-5.4,8.8-7,14.9-6.5c5.9,0.5,11.2,0.3,15.2-5.4c2.2-3.1,6.5-3.6,10.3-3.6
			c8.6-0.1,17.7-1.5,25.4-3.6c10-2.7,20.7-3.7,30.4-7.8c5.8-2.4,10.5-2.2,15,3.3c4.2,5,11.1,6.3,16.7,9.5c2.4,1.4,5.3,2.6,6.4,5
			C492.8,653,497.8,660.9,504.8,669.7z" />
            <path fill-rule="evenodd" clip-rule="evenodd" fill="none"
                d="M704.8,886.5c17.3,8.2,34.3,15.7,50.9,24.3
			c22.3,11.6,43.2,10.3,63.8-4.2c27.4-19.2,54.9-38.2,77.6-63.1c9.7-10.6,18.7-21.8,27.3-33.5c-3.8,15.8-11.3,30-19.7,43.7
			c-11.3,18.4-21.9,37.4-37.1,53.1c-8,8.3-10.3,18.4-10.3,29.4c0,7.5,0.6,15.1-0.4,22.5c-3,20.8-19.5,31.5-39.2,33.6
			c-32.8,3.4-56.9-13.2-76.8-36.8c-15.7-18.6-26.3-40.3-35.3-62.8c-0.5-1.1-0.9-2.3-1.3-3.5C704.1,888.7,704.4,888.1,704.8,886.5z" />
            <path fill-rule="evenodd" clip-rule="evenodd" fill="none"
                d="M702.7,203c22.5,49.6,51.9,96.9,43.1,155.2
			c16.2,12.4,8.9,29.9,9.1,46.9c-11.3-8.2-25.4-13.2-27.4-28.3c-1.1-8.8-5.6-12.1-12.3-15.6c-28.3-14.3-42.9-39.8-54.7-67.6
			c-8.6-20.4-14.1-41.8-21.8-62.5c-2-5.2,1-7.3,4.8-9.2c13.6-6.8,28.4-10.4,42.9-14.8C691.3,205.8,696.4,204.7,702.7,203z
			 M750.7,383.2c0.1-7.5-2.6-11-7.7-11c-4,0.1-5.7,2.4-5.9,6.1c-0.3,4.8,4.7,12,8.5,11.8C750.2,389.9,751,386.5,750.7,383.2z" />
            <path fill-rule="evenodd" clip-rule="evenodd" fill="none" d="M328.9,1217c-19.4-10.9-35.8-23.7-51.9-37
			c-17.5-14.3-31.5-32-47.6-47.7c-4.9-4.8-6.7-9.5-2.5-16.2c11.2-17.9,15.7-37.8,16.6-59.6c29.5,17.4,62.6,26.2,90.8,45.1
			c5.2,3.5,6.9,6.9,5.4,13.6c-6.3,27.7-7.4,56.1-9.5,84.3C329.9,1204.8,329.4,1210.2,328.9,1217z" />
            <path fill-rule="evenodd" clip-rule="evenodd" fill="none" d="M635.7,1476.9c17.9,19.8,35,39.3,55.3,55.6
			c20.3,16.4,42.9,28.8,70.1,36.8c-18.3,15.8-31.4,36.3-58.1,35.5c-12.7-0.4-23.4-6.5-33.6-13.2c-14.5-9.4-27-21-37.9-34.4
			c-12.2-15-17.7-41.3-5-60.3C630.5,1491,633.2,1484.4,635.7,1476.9z" />
            <path fill-rule="evenodd" clip-rule="evenodd" fill="none" d="M777.5,1701.9c-5.6,9.5-13.1,9.4-20.4,9.5
			c-12.2,0.3-24.5,0.5-36-4.5c-3.4-1.5-7-2.7-10.1-4.7c-9.9-6.4-10.9-10.4-7.2-21.7c5.8-17.9,6-36.2,2.6-54.6c-0.4-2-1-3.8-0.1-6.5
			c20.2-3.6,41.9-4,59.2-19.1c5.1,16.1,5.9,32.5,8.9,49.1c-10.3-3.1-20.1-6.1-31.9-7c8,6.3,16.3,9.1,23.9,12.8
			c11.2,5.4,21.6,11.8,27.6,23.1c6,11.3,4.4,26.3,16.7,34.6c0.3,0.2,0.2,1,0.3,1.4c4.7,14.5,2.6,17.1-12.3,18.3
			c-17.4,1.4-21.5-5.7-21.1-20.6C777.6,1709.5,777.5,1706.9,777.5,1701.9z M792.1,1722c3.8,0.3,8-1.3,12.2-2.7
			c2.5-0.9,3.6-2.3,3.5-4.9c-0.1-2.9-2.1-3.9-4.3-4.4c-4.3-0.9-8.6-1.4-13.2-0.4c-4.3,1-8.8,1.3-8.1,7.3
			C782.8,1722.5,787.4,1721.8,792.1,1722z" />
            <path fill-rule="evenodd" clip-rule="evenodd" fill="none"
                d="M766.8,130.6c-2.5,0-3.8,0-5,0c-9.8,0-10.5-0.6-9.5-10.1
			c2.3-21.3-5.8-39-19.2-54.5c-16.6-19.4-39.7-27.3-63.7-31.1c-40.2-6.3-79.1-1-115.2,18.8c-19.9,10.9-36.3,25.5-42.3,48.7
			c-8.2,31.9,3.4,65.1,29.7,85c1,0.7,2,1.5,2.9,2.2c-4,4.2-8,8.3-12,12.5c-20.6-9.4-30.6-27-37-46.8c-12.5-38.5,2.4-69,30-95.1
			c24-22.6,52.8-34.3,85.4-38c34.9-4,68.4,1.2,100.9,13.7c18.8,7.2,34.8,18.8,46,35.6C770,89.5,771.6,109.4,766.8,130.6z" />
            <path fill-rule="evenodd" clip-rule="evenodd" fill="none" d="M918.2,366.7c3.4,2,5,5.4,6.8,8.6c10.3,18,15.9,38,25.4,56.4
			c4.5,8.7,10,16.6,17.2,23.4c18,16.9,42.1,13.2,56.4-9.2c3.3,7.1,3.4,13.8,1.5,21.1c-2.8,11.1-8.1,20.7-15.4,29.4
			c-9.4,11.2-21.4,13.9-34.3,8.6c-35-14.6-58.6-40-67.1-77.4c-2.1-9.1-2.8-19.7,3.7-28.9c3.2-4.6,3.5-10.8,3.4-16.6
			C915.7,376.8,915.2,371.6,918.2,366.7z" />
            <path fill-rule="evenodd" clip-rule="evenodd" fill="none" d="M700.5,967c1.6-1.7,2.6-3.1,3.9-4.2c1.9-1.6,5-2.5,3.9-5.6
			c-1.1-3.3-4.6-4.2-7.4-3.8c-8.4,1.3-11.9-3.8-15.5-10c-13-22.6-23.9-46.2-32.5-70.9c-4.5-13.1-9.6-26-12-41.5
			c12.2,12.7,25.7,22.5,30.1,39.3c10.3,38.7,31.9,71.5,54.1,104c19.5,28.5,46.5,47.3,77.9,60.4c6.9,2.9,14.1,4.5,21.5,5.6
			c18.7,2.8,30.8-6.7,40.1-21.5c9.8-15.5,14.4-33.1,20.7-52.1c2.3,23-0.7,43.2-9.4,62.6c-3.9,8.6-9.4,16-16.3,22
			c-14.8,12.8-31.3,15.8-49.1,6.8c-24.3-12.2-46.8-27.4-67.8-44.7C726.7,1000.2,713.6,984.1,700.5,967z" />
            <path fill-rule="evenodd" clip-rule="evenodd" fill="none"
                d="M980.3,612.8c-3.8-3.8-3.9-6.5-2-11c5.5-13.1,4.1-31-9.9-45.3
			c-8.4-8.7-18.9-14.6-29.1-20.8c-13-7.9-25.8-16-33.6-29.9c-8.9-15.9-13.7-32-1.6-49.2c8.2,14.1,16.8,27.9,28.9,39
			c13.7,12.7,28.8,22,48.2,22.4c7.6,0.2,12.5,4.2,16.9,10.4c20.7,29.9,6.3,62.2-12.8,80.8C984,610.7,982.2,611.5,980.3,612.8z" />
            <path fill-rule="evenodd" clip-rule="evenodd" fill="none" d="M486.5,488.9c1.1,1.9,1.9,2.9,2.4,4c11,27.3,42.8,27.1,59.7,7.7
			c9.4-10.8,13.8-23.2,14.8-38c8.4,9,8,18.3,4.7,28.1c-3.8,11.3-11.3,20.3-17.8,30c-6.4,9.5-12.1,19.3-14.4,30.8
			c-3,15.4,2,28.8,10.4,41.4c-9.1,3.4-14,2.4-19.2-4.9c-11.2-15.9-15.9-33.3-10.6-53.2c-13-0.4-24.8-4.1-31.1-17
			C481,508.6,481.5,499.2,486.5,488.9z" />
            <path fill-rule="evenodd" clip-rule="evenodd" fill="none" d="M968.3,1592.9c-1.5,8.8-6.2,14.9-11.9,19.8
			c-13,11-24.6,23.3-35,36.8c-1.4,1.8-2.8,3.5-4.4,5.6c-7.3-14.3-12-15.6-25-7.9c-6.3,3.8-12,8.8-19.5,12
			c-1.1-8.9,2.3-16.4,5.3-23.7c6-14.5,14.9-27.5,23.4-40.7c3.5-5.4,8-6.7,12.9-1.9c8.1,7.9,17.1,8.2,27.5,5.3
			C950.1,1595.8,959.2,1596.1,968.3,1592.9z" />
            <path fill-rule="evenodd" clip-rule="evenodd" fill="none"
                d="M482,1684c-5.8-4.8-9.9-8.4-14.2-11.5c-9.7-6.9-16.7-4.2-18.6,7.3
			c-0.7,4.4-1.4,8.7-2.8,14.3c-15.8-19.7-29.2-39.2-31.7-65.3c17.5,3.9,31.8-0.2,40.9-18C477.2,1630.7,480.6,1655.8,482,1684z" />
            <path fill-rule="evenodd" clip-rule="evenodd" fill="none" d="M588,603.6c28.5-4,57-7.9,85.5-11.9c7.4-1,14.8-2.5,22.2-2.8
			c6.2-0.3,11.7,2.5,15.1,8c4,6.5,1.5,12.1-5.9,14.1c-6.1,1.6-12.4,1.9-18.6,1.3c-10.4-1-19.6,1.9-28.5,7c-6,3.4-12.1,6.9-18.9,8.8
			c-6.5,1.9-13,1.9-18.5-2.3C610,617.9,600.3,609,588,603.6z" />
            <path fill-rule="evenodd" clip-rule="evenodd" fill="none" d="M600.8,781.7c14.8,12.2,18,29.4,22.4,46.4
			c6.9,26.9,14.3,53.7,24.9,79.4c0.7,1.8,1.3,3.6,0.9,6.1c-6-9.1-11.8-18.3-17.9-27.4c-4-6-7.9-12-13.5-16.8
			c-4.4-3.8-5.7-9.5-6.4-14.8c-2.6-20-7-39.6-10.2-59.4C600.2,790.7,600.8,786.2,600.8,781.7z" />
            <path fill-rule="evenodd" clip-rule="evenodd" fill="none" d="M890.4,489.8c8.2,27.8,27.6,43.9,51.2,56.5
			c8.6,4.6,16.6,10.2,22.7,18c6.6,8.5,8.3,18.3,6.7,30.2c-12.9-20.1-29.5-34.7-47.9-47.3c-9.6-6.6-20.1-11.9-30-18.1
			C878.1,519.7,878,504.3,890.4,489.8z" />
            <path fill-rule="evenodd" clip-rule="evenodd" fill="none" d="M554.8,592.3c-11-6.9-15-30.2-7.7-44.7c5-10.1,11.6-19.1,18.2-28.1
			c9.9-13.5,12.9-20.5,14.5-34.1c4.9,1.8,6,4.8,4.6,9.8c-2.3,8.5-7,15.8-11,23.5c-5.1,9.7-9.2,19.3-5,30.5c1.4,3.7-1.4,6.7-3,9.7
			c-2.8,5.3-5.6,10.5-7.1,16.4C557.1,580.8,556,586.4,554.8,592.3z" />
            <path fill-rule="evenodd" clip-rule="evenodd" fill="none" d="M904.6,385.9c-3.7-9-4-18.4-5.1-27.6c-1.1-9.4-1.8-18.7-4.3-27.9
			c-2.3-8.6,4.4-19.1,13.1-21.1c4-0.9,6.5,0.3,7.6,4.8c2.5,9.6,0.1,18.8-1.2,28.1c-1.7,12.5-5.6,24.7-6.6,37.3
			C907.9,381.6,907.3,384.3,904.6,385.9z" />
            <path fill-rule="evenodd" clip-rule="evenodd" fill="none" d="M904.6,1382.1c5.8-23.8,14.3-46.2,22.2-69.3
			c1.8,11.6,3.7,23.3,5.4,34.9c0.7,4.7,1.6,9.5,1.1,14.1C931.8,1374.7,921,1382.3,904.6,1382.1z" />
            <path fill-rule="evenodd" clip-rule="evenodd" fill="none" d="M587.3,474.9c-7-2-11.1-6-13.6-10.7c-7.2-13-16.3-24.4-25.9-35.5
			c-3.5-4-3.7-8.3-1.9-12.4c1.4-3.4,4.4-6.4,8.6-6.3c5.2,0,7.8,3.8,9.6,8.1C572,436.4,580.2,454.7,587.3,474.9z" />
            <path fill-rule="evenodd" clip-rule="evenodd" fill="none" d="M341.9,652.5c2.2-19.5,4.2-38.6,11-56.8c1.7-4.6,4-10.5,10.7-8.9
			c5.1,1.2,7.2,8.4,4.1,15.3c-5.8,12.8-10.7,26-15.2,39.3C350.9,646.1,348.7,651.2,341.9,652.5z" />
            <path fill-rule="evenodd" clip-rule="evenodd" fill="none" d="M323.9,662.2c-3.1-15.3-6.8-30.4-5.5-46.1c0.4-4.9,3.9-8.5,8.6-9
			c3.7-0.4,6.3,2.7,6.9,6.4c2.5,16.1-0.5,31.5-5.7,46.6C327.8,661.3,326.7,662.1,323.9,662.2z" />
            <path fill-rule="evenodd" clip-rule="evenodd" fill="none" d="M479.9,691c11.4-2.1,21.6-4.2,31.8-6c4.6-0.8,8.6,4.5,7.5,10.3
			c-1.2,6.2-4.4,11.6-7.5,17c-1.5,2.6-3.7,3.2-6.3,1.1C497.1,706.5,488.4,699.8,479.9,691z" />
            <path fill-rule="evenodd" clip-rule="evenodd" fill="none" d="M376.2,639.4c4.7-15.9-1.5-33.5,10.3-47.8c6.1,3.8,8.2,8.7,6.6,13.9
			c-3,10.1-6.9,20-10.7,29.9C381.8,637.1,380.4,638.9,376.2,639.4z" />
            <path fill-rule="evenodd" clip-rule="evenodd" fill="none" d="M610.5,541.2c-3.1,13.1-6.4,26.2-7.7,39.7c-0.3,3-0.9,6-0.7,8.9
			c0.4,4.9-1.2,7.6-7.3,7.2C592.5,576.4,594.3,557,610.5,541.2z" />
            <path fill-rule="evenodd" clip-rule="evenodd" fill="none" d="M574.8,541.9c3.8-19.3,21.7-31.7,16.7-51.5c3.9-2.3,5.7-0.3,6.8,3
			c1.2,3.7,1,7.4,0.1,11.1c-0.8,3.4-3.1,6.7-2.8,9.9C596.9,529.2,583.8,532.6,574.8,541.9z" />
            <path fill-rule="evenodd" clip-rule="evenodd" fill="none" d="M524.9,247.7c2.5,22.7,10.2,42.5,32,54.5c-1.8,3.1-0.8,6.9-3.6,9.5
			C531,294.4,516.5,259.7,524.9,247.7z" />
            <path fill-rule="evenodd" clip-rule="evenodd" fill="none" d="M311.4,661.8c-8.7-10.8-11.9-22.6-8.1-35.9c0.7-2.4,1.7-4.8,4.8-4.8
			c3.3,0,3.1,3.3,3.4,4.9C313.9,637.9,315,649.8,311.4,661.8z" />
            <path fill-rule="evenodd" clip-rule="evenodd" fill="none" d="M418.4,629.2c-5-10.3-0.2-19.2,2.5-28.2c0.8-2.6,3.7-2.7,6.4-2.3
			c3.1,0.5,4.2,2.6,4.6,5.1C433.3,610.5,425.6,625.3,418.4,629.2z" />
            <path fill-rule="evenodd" clip-rule="evenodd" fill="none" d="M522.6,315c7.2,11.4,15,20.7,24.4,28.8c4.8,4.2,1.6,10.2,2.2,15.6
			C536.9,351.4,524.8,331.3,522.6,315z" />
            <path fill-rule="evenodd" clip-rule="evenodd" fill="none" d="M171,704c1.3-3.8,0.4-9,5.7-10.3c5.5-1.3,8.8,2,10.9,6.8
			c2.4,5.4,2.9,11,1.2,16.6c-1,3.4-2.9,6.2-7.1,6.5c-4,0.3-5.8-2.2-7.3-5.2C172.3,713.9,172.1,708.9,171,704z M179.1,699.8
			c-5.1,7.2-3.9,14.6,3.2,19.1C187.8,712.3,186.6,705.4,179.1,699.8z" />
            <path fill-rule="evenodd" clip-rule="evenodd" fill="none" d="M755.3,1719.8c4.9-3.6,10.4-1.1,15.1-4c3.6,5.2,4,10.5,1,15.8
			c-2,3.5-6,3-8.7,1.9C757.1,1731,754.3,1726.2,755.3,1719.8z" />
            <path fill-rule="evenodd" clip-rule="evenodd" fill="none" d="M888.7,302.5c0.3-15.1,4-30.2,0.4-45.3
			C895.7,272.2,896.8,287.3,888.7,302.5z" />
            <path fill-rule="evenodd" clip-rule="evenodd" fill="none" d="M750.3,1732.1c-5.3,1.4-9.2,0-12.3-3.9c-2.5-3.2-4.2-7.3-0.7-9.9
			c3.6-2.5,8.1-1.4,11,2.7C750.6,1724.2,751.1,1727.8,750.3,1732.1z" />
            <path fill-rule="evenodd" clip-rule="evenodd" fill="none" d="M711.4,1709.7c-2.3,3.5-0.6,7.9-1.8,11.8
			c-10.2-2.2-12.8-6.5-10.6-17.1C704,1704.1,704,1704.1,711.4,1709.7z" />
            <path fill-rule="evenodd" clip-rule="evenodd" fill="none" d="M580.6,836.3c-5.6-3.1-10.7-5.8-16.4-8.9c4.3-3.5,8.5-5.9,13.6-8.1
			C579.5,824.8,581.2,830,580.6,836.3z" />
            <path fill-rule="evenodd" clip-rule="evenodd" fill="none" d="M729.3,1725c-5.8-1.2-12.6-0.3-13.2-8.2c-0.4-4.9,4.1-4.2,7.2-3.7
			C731.6,1714.5,732,1715.3,729.3,1725z" />
            <path fill-rule="evenodd" clip-rule="evenodd" fill="none" d="M617.7,523.6c-5.9,0-10.5,0-15.3,0c-1-4.8,3.2-8,2.9-13.7
			C610.5,514.2,613.6,518.3,617.7,523.6z" />
            <path fill-rule="evenodd" clip-rule="evenodd" fill="none" d="M571.8,597.3c-6.8-2.5-5.1-16.7,3-27.6
			C573.8,579.1,572.9,588.1,571.8,597.3z" />
            <path fill-rule="evenodd" clip-rule="evenodd" fill="none" d="M539.6,377.2c3.9,4.9,12.6,4.1,14,11.9
			C546.1,391.5,542.2,388.4,539.6,377.2z" />
            <path fill-rule="evenodd" clip-rule="evenodd" d="M831.2,582.1c-1.2,15-17.7,14.2-24.1,23.9C809.6,592.3,822.9,589.8,831.2,582.1z
			" />
            <path fill-rule="evenodd" clip-rule="evenodd" d="M799.7,869.5c-5.1-0.3-9.1-1.3-9.9-6.4c-0.4-2.9,2.1-3.1,4.1-2.7
			C798.5,861.2,801.6,863.4,799.7,869.5z" />
            <path fill-rule="evenodd" clip-rule="evenodd"
                d="M426.3,1024c-8-1.9-12-7.8-14.7-13.1c-10.2-20.1-29-24.5-48.3-29.3
			c-31.3-7.8-61.8-18.3-85.4-41.3c-14.3-13.9-22.2-31.8-24.5-52.3c-1.8-16,1.6-30.2,9.5-45c2.7,7.1,1.1,13.5,2.1,19.6
			c3.7,24.1,18.5,38.2,39.8,47.2c19.6,8.2,40.5,11.5,61.3,14.9c8.8,1.4,17.7,3,26,6.2c22.9,8.8,31.6,28,33.9,50.4
			C427.5,995.1,426.3,1009.2,426.3,1024z M412.8,995.7c-2.6-15-10.4-25-22.1-32.3c-10.2-6.3-21.5-10-33-13.1
			c-29.9-8-60.6-14.2-86.1-36.2c1.7,5,3.6,8,5.8,11c15.2,20.4,36.3,31.9,59.6,40.2C362.3,974.4,390.2,977.1,412.8,995.7z" />
            <path fill-rule="evenodd" clip-rule="evenodd" d="M581.4,1118c-6.5,6.7-12.2,14.2-20.9,18.6c-16.1,8.3-38.1,3.4-48.5-11.3
			c-5.5-7.8-6.2-15.5-1.8-22.2c4.5-6.8,15.2-12.1,22.8-9.9c11.6,3.5,22.3,4.1,33.8-1.1c8.2-3.7,14.8,2.1,15.8,11.4
			c0.5,5-1.5,9.7-1.4,14.7C581.2,1118.3,581.4,1118,581.4,1118z M541.7,1130.5c10.7-1.1,20.8-3.7,29-10.8c4.4-3.8,7.4-8.6,7.3-14.8
			c-0.1-7.9-2.3-9.7-8.7-5.2c-9.3,6.6-19.3,5.6-29.4,4.6c-3.4-0.3-6.9-1.2-10.4-0.8c-4.9,0.6-10.1,1.4-11.9,7.3
			c-1.7,5.5,0.9,9.6,4.8,13.1C528,1128.8,534.9,1129.9,541.7,1130.5z" />
            <path fill-rule="evenodd" clip-rule="evenodd" d="M715.5,441.6c-2.7,0.9-4.9,0.1-6.3-1.6c-9.2-10.6-20.9-8-32.5-6.4
			c-11.1,1.6-21.2,6.4-32.3,8.3c-15.1,2.6-28.5-1.3-41.8-7.4c-10.3-4.7-20.1-10-24-21.9c-0.5-1.7-1.1-3.3-0.4-5.1
			c2.5-0.8,4.1,1.2,5.9,2.2c11.7,6.9,23.6,7.6,36.5,3.6c11.7-3.6,22.4-9.4,34-12.9c29.2-8.7,52.4,4.1,59.8,33.6
			C715.1,436.2,716.8,438.4,715.5,441.6z M695.1,421.8c-5.5-7.4-11.3-10.6-19.2-10.6c-7.3,0-14.1,2-21,4.1
			c-14.7,4.5-28.8,11.9-46.9,11.1c11,5.9,20.5,6.8,30.5,5.3C657,429,674.5,420.9,695.1,421.8z" />
            <path fill-rule="evenodd" clip-rule="evenodd" d="M800.7,414.1c-11.1-5.8-12.6-15.5-12.3-24.8c0.8-27.6,12.2-47.1,42.3-52.9
			c3.2-0.6,6.3-1.1,9.5-1.9c18.6-4.5,22.1-7.6,32.2-28.5c5,3.5,5.5,8.7,5.8,13.7c1.2,23-10.8,39.7-35.4,49.6
			c-8.1,3.2-16.2,6.2-23.7,10.7c-10.4,6.2-17.7,14.4-17.5,27.5C801.6,409.2,801.1,411.1,800.7,414.1z M867.6,333.2
			c-7.6,5.4-14.9,9.1-22.6,11.9c-8.1,2.9-16.3,5.7-24.2,9.2c-13.1,5.8-21.5,15.4-21.8,32.6c4.1-8.6,9.8-13.2,16.3-16.9
			c9.5-5.4,20.1-8.2,30.1-12.6C855.7,352.7,864.9,346.7,867.6,333.2z" />
            <path fill-rule="evenodd" clip-rule="evenodd" d="M839.8,483.2c-9,16.7-15.9,32.5-30.5,42.7c-18.5,13-37.9,15.1-58,3.4
			c-7-4.1-14-8.4-23.3-10.8c15.9-10.1,25.8-28.3,47.4-26.8c3.9,0.3,8-1,11.2-3.6c5.8-4.8,12.7-5.8,19.6-5.8
			C816.9,482.4,827.5,483.9,839.8,483.2z M822.6,496.5c-11.5,5.9-22.1,11.6-33.5,15.4c-11.4,3.7-23,6.2-35.5,8.8
			C783.1,538.1,811.9,520.4,822.6,496.5z M746.5,514.5c26.4-2,49.4-12.9,74.5-23.1c-12.7-0.9-23.7-3.3-33.4,4.5
			c-1.8,1.5-4.6,2.5-6.9,2.4C766.5,497.4,756.4,504.8,746.5,514.5z" />
            <path fill-rule="evenodd" clip-rule="evenodd" d="M737.5,463.8c11.8,0,24.5,2.4,35.7-0.7c11.1-3.1,19.7-12.9,29.5-20.3
			c3.2,2.8,3.5,5.6-2,8.6c-6.2,3.4-11.3,7.8-16.5,12.5c-6.1,5.4-13.6,7.1-21.9,6.2c-6.4-0.7-12.7-2.3-19.2-1.8
			C738.5,468.6,738.5,468.1,737.5,463.8z" />
            <path fill-rule="evenodd" clip-rule="evenodd"
                d="M97.2,1061.6c2.6-26.6-2.8-53.2,0.3-79.9c3-26.6,25.4-54.7,51.2-62.5
			c2.1-0.6,4.4-1.5,6.2,0.6c1.9,2.2,1.3,4.4,0.3,6.9c-1.8,4.5-5.9,5.7-9.7,7.4c-20.2,9.1-33.8,24.1-39.4,45.7
			c-2.7,10.4-2.6,21.2-2.4,31.9c0.3,15.6,1.8,31.3-3.3,46.6c-0.4,1.1-0.9,2.2-1.4,3.3C98.4,1061.7,97.8,1061.7,97.2,1061.6z" />
            <path fill-rule="evenodd" clip-rule="evenodd" d="M631.7,1700.6c3.3-18.1,3.3-34.3,3.5-51.3
			C642.5,1657.1,640.5,1688.7,631.7,1700.6z" />
            <path fill-rule="evenodd" clip-rule="evenodd" d="M486.6,238.3c-23,6.3-43.4,14.7-65.8,12.4c-10.6-1.1-19.2-5.3-22.9-16.2
			c-2.9-8.5,1-18.3,9.6-21c8.2-2.6,10.9-5.8,8.7-15c-3.4-13.9,8.4-24.1,22.7-21.1c9.5,2,17,6.6,21.9,15.1
			C469.3,207.4,475.2,223.5,486.6,238.3z M467.2,234c-4-8.2-7.7-15.8-11.5-23.2c-2.7-5.3-5.8-10.5-10.8-14.1
			c-2.9-2.1-6.1-5.3-10-2.8c-3.8,2.4-2.8,6.6-2.2,10.2c2.2,12.2,2.2,12.3-9.2,17.2c-1.1,0.5-2.4,0.8-3.4,1.3
			c-5.8,2.9-6.4,9-1.3,13.2c2.7,2.2,5.9,3.9,9.4,4.2C441.5,241.3,454.1,237.7,467.2,234z" />
            <path fill-rule="evenodd" clip-rule="evenodd" d="M750.7,383.2c0.3,3.3-0.5,6.7-5.1,6.9c-3.8,0.2-8.8-7-8.5-11.8
			c0.2-3.7,1.9-6,5.9-6.1C748.2,372.1,750.8,375.7,750.7,383.2z" />
            <path fill-rule="evenodd" clip-rule="evenodd" d="M792.1,1722c-4.7-0.2-9.2,0.6-9.9-5.1c-0.7-6,3.8-6.2,8.1-7.3
			c4.6-1.1,8.8-0.5,13.2,0.4c2.2,0.4,4.2,1.5,4.3,4.4c0.1,2.6-1,4.1-3.5,4.9C800,1720.7,795.9,1722.2,792.1,1722z M787.2,1716.6
			c5.1,1.3,10.1,1.9,15.3-2.9C796.2,1712.4,791.3,1712.5,787.2,1716.6z" />
            <path fill-rule="evenodd" clip-rule="evenodd"
                d="M179.1,699.8c7.5,5.6,8.6,12.4,3.2,19.1C175.2,714.4,174,707.1,179.1,699.8z" />
            <path fill-rule="evenodd" clip-rule="evenodd" fill="none" d="M412.8,995.7c-22.6-18.5-50.4-21.3-75.9-30.4
			c-23.3-8.3-44.4-19.8-59.6-40.2c-2.2-3-4.2-6-5.8-11c25.6,21.9,56.2,28.2,86.1,36.2c11.5,3.1,22.8,6.8,33,13.1
			C402.4,970.7,410.2,980.6,412.8,995.7z" />
            <path fill-rule="evenodd" clip-rule="evenodd" fill="none" d="M541.7,1130.5c-6.8-0.7-13.7-1.7-19.2-6.7
			c-3.9-3.5-6.5-7.6-4.8-13.1c1.8-5.8,6.9-6.6,11.9-7.3c3.4-0.4,6.9,0.5,10.4,0.8c10.1,1,20.1,2,29.4-4.6c6.3-4.5,8.6-2.7,8.7,5.2
			c0.1,6.3-2.9,11-7.3,14.8C562.5,1126.9,552.4,1129.5,541.7,1130.5z" />
            <path fill-rule="evenodd" clip-rule="evenodd" fill="none" d="M695.1,421.8c-20.6-0.9-38.1,7.2-56.6,10c-10,1.5-19.5,0.6-30.5-5.3
			c18.1,0.8,32.2-6.6,46.9-11.1c6.9-2.1,13.7-4.1,21-4.1C683.8,411.2,689.6,414.4,695.1,421.8z" />
            <path fill-rule="evenodd" clip-rule="evenodd" fill="none" d="M867.6,333.2c-2.7,13.5-11.8,19.5-22.3,24.2
			c-9.9,4.4-20.5,7.2-30.1,12.6c-6.5,3.7-12.2,8.3-16.3,16.9c0.4-17.2,8.7-26.8,21.8-32.6c7.9-3.5,16.1-6.3,24.2-9.2
			C852.7,342.3,859.9,338.6,867.6,333.2z" />
            <path fill-rule="evenodd" clip-rule="evenodd" fill="none" d="M822.6,496.5c-10.7,23.9-39.5,41.6-69.1,24.2
			c12.5-2.6,24.2-5,35.5-8.8C800.6,508.1,811.1,502.5,822.6,496.5z" />
            <path fill-rule="evenodd" clip-rule="evenodd" fill="none" d="M746.5,514.5c9.9-9.6,20-17.1,34.2-16.2c2.3,0.1,5.1-0.9,6.9-2.4
			c9.7-7.8,20.6-5.4,33.4-4.5C795.9,501.6,773,512.5,746.5,514.5z" />
            <path fill-rule="evenodd" clip-rule="evenodd" fill="none" d="M467.2,234c-13.1,3.7-25.7,7.2-39.1,6.1c-3.4-0.3-6.7-1.9-9.4-4.2
			c-5.1-4.2-4.4-10.3,1.3-13.2c1.1-0.6,2.3-0.8,3.4-1.3c11.4-4.9,11.4-5,9.2-17.2c-0.7-3.6-1.6-7.8,2.2-10.2c3.9-2.5,7.1,0.8,10,2.8
			c5,3.5,8.1,8.7,10.8,14.1C459.6,218.3,463.2,225.8,467.2,234z" />
            <path fill-rule="evenodd" clip-rule="evenodd" fill="none" d="M787.2,1716.6c4.1-4,9-4.1,15.3-2.9
			C797.3,1718.5,792.3,1717.8,787.2,1716.6z" />
        </g>
    </g>
</svg>