<?xml version="1.0" encoding="utf-8"?>

<!DOCTYPE svg PUBLIC "-//W3C//DTD SVG 1.1//EN" "http://www.w3.org/Graphics/SVG/1.1/DTD/svg11.dtd">
<svg version="1.1" id="Layer_1" xmlns="http://www.w3.org/2000/svg" xmlns:xlink="http://www.w3.org/1999/xlink"
    viewBox="0 0 2624.1 1997.8" xml:space="preserve">
    <g>
        <g>
            <path fill-rule="evenodd" clip-rule="evenodd" fill="none"
                d="M1.7,1840.4c0-612.9,0-1225.8,0-1838.6c699.2,0,1398.4,0,2097.6,0
			c-1,1.4-2.4,2.6-3.1,4.1c-8.4,20.2-22.4,35.4-41.1,46.3c-3.6,2.1-8.7,2.2-11.8,4.7c-14.8,12-33.2,14.5-50.4,14.9
			c-25.8,0.6-51.8,1.1-77.7,0.6c-30.3-0.7-60.8-3.1-90.3,8.5c-8.7,3.4-18.1,5.1-26.9,9.4c-22,10.8-40.1,25-50.8,47.6
			c-1.3,2.7-2.1,7.1-7,6.3c-5.1-12.2,4.5-27.7-8.6-38.1c-0.8,8.7-5.8,15.3-10.6,21c-12.5,15-26.3,28.5-35.9,46.1
			c-8.2,14.9-14.1,30.4-17.6,46.5c-3.2,14.4-4.8,29.4-1.5,44.5c0.7,3.3,0.2,6.7,3.9,6.8c3.1,0.1,4-2.9,4.5-6.2
			c1.7-13.2,2.6-26.4,6.3-39.4c1-3.6,1.1-7.1,3.3-10.8c7.2-12.4,11.3-26.3,17.3-39.3c3.7-7.9,8.8-14.2,12.8-21.7
			c1.4,0.7,2.7,1,2.8,1.5c2.7,13.1,9.2,25.4,8.3,39.4c-0.3,4.9-0.8,10.4,5.8,13.5c5.6-4.6,8.1-11.6,10.6-18.2
			c3.5-9.7,5.9-19.8,10.5-29.1c7.7-15.5,18.9-27.4,33.8-36.8c11.3-7.1,22.7-14.3,35.3-16.5c15.8-2.7,31.8-5.4,48.1-6.6
			c15.4-1.1,31.1,0.4,46.7-3.8c14.2-3.8,29.7-1.2,44.6-1.9c12.6-0.6,24.4-7.2,37.2-4.2c0.5,0.1,1-0.4,1.6-0.6c6-1.5,11.9-3.9,18-4.4
			c19.5-1.5,35.2-11.6,51.2-21.2c7.7-4.6,13.2-11.4,18.8-18.7c10.3-13.5,19.3-26.3,13.7-44.3c175.5,0,351,0,526.5,0
			c0,665.8,0,1331.6,0,1997.6c-875.2,0-1750.5,0-2625.8,0c0-44.7,0-89.6,0-134.5c2.7-0.1,3.8,2.1,5.6,3.5c4.9,3.8,8.9,6.8,16.8,2.5
			c9.4-5.1,12.2-13.9,18.1-20.9c7.4-8.8,10.7-20.9,22-26.6c0.8,2.6,1.2,5.5-0.4,7.5c-7.5,9.5-11.3,20.9-15.9,31.6
			c-4.3,10-9.8,20.7-4.3,32.6c5.4,11.9,20.4,17.8,32.2,12c8.7-4.3,13.3-12.8,12.5-23.2c-0.2-2.8,0.1-5.5,2.2-8.4
			c4.1,5,3.2,12.8,9.9,15.6c7.7,3.2,13.5,9,22.1,11.7c15.7,5,28.9,1.6,40.7-6.9c11.1-7.9,18.8-17.8,16.8-34.7
			c-1.9-16.7-9.4-28.7-20.6-38.8c-8.5-7.7-17.9-14.8-27.7-21.1c-6.8-4.4-13.5-7.8-23.2-7c6.2,9.3,12.5,16.9,20.6,23.2
			c17.8,13.9,36.2,27.6,36.3,53.3c-3,2.8-5.3,5.9-8.4,7.8c-4.2,2.6-6.3,8.4-12.5,7.8c-4.6-0.4-9.3-0.1-13.9-0.8
			c-12.2-2.1-23.4-5.5-29.4-18.2c-3-6.3-6.4-13.1-13.5-17.2c-2.5,3.6-5.4,6.6-5.1,10.9c0.7,9.6-4.6,17.3-8.6,25.2
			c-2,4-5.9,7.4-11.3,1.1c-6-7.1-6.3-14.7-4.1-22.3c4.7-16.5,18-28.6,23.9-44.9c3.4-9.4-1.2-14.5-5.3-19.7c-4.2-5.4-10.7-4-16.4-0.3
			c-12.8,8.2-18.3,21.9-25.9,34c-3.2,5-5.3,10.8-13,9c-3.3-11.7,2.3-21.2,6.7-30.2c4.8-9.9,12.3-18.5,18.8-27.5c2.1-3,3-6.2,0.6-8.7
			c-2.6-2.6-5.8-0.9-8.8,0.8c-3.7,2.1-3.7,6.5-6.3,9.1c-11.9,12.1-21.1,25.7-26.1,42.3C5.5,1832.6,7,1838.2,1.7,1840.4z
			 M797.7,1283.5c-2.2-1.5-3.7-1.2-5.4-0.4c-11.9,5.8-19,15.7-24.2,27.5c-3.8,8.6-8,17-18.8,19c-12.4,2.2-22.5-2.6-28.2-12.8
			c-9.6-17.2-26-26.8-41-37.2c-13.2-9.1-27.6-17.1-43.6-22c-14-4.2-27.9-8.7-42.1-11.8c-9.7-2.1-19.3-4.6-29-6.7
			c-9.2-2-18.1-4.4-28.6-3.8c1,1.7,1.2,3.1,2,3.5c12.1,5.5,24.4,10.7,37,15.2c10,3.5,20.9,4.3,30.3,7.8c9.8,3.6,20.3,5.5,30,9.6
			c8.8,3.7,18.5,6.5,26.6,10.9c17.1,9.3,32.5,21.5,45.6,36.3c6.2,6.9,5,12.6-2.3,18c-8.3,6.1-18.3,6.8-27.5,8.3
			c-11,1.8-22,4.2-32.6,7.1c-12.4,3.4-25.1,5.3-37.5,8.5c-11.4,2.9-22.8,7.3-34.9,7.6c-1.4,0-3,0.2-4.2,0.9
			c-8.7,5-19.3,6.7-28.2,7.8c-9.6,1.2-18.4,5-27.7,6.4c-3.9,0.6-8.4-0.4-12.1,1.7c-8.4,4.6-18,6.9-27,7.3
			c-12.1,0.5-24.3,1.7-36.7-0.5c-5.5-1-11.4-3.5-17.8-2.6c-4.7,0.7-7.1,6.6-12.4,4.5c-3.3-1.3-4.8,1.3-7.3,2.8
			c-5.5,3.5-6.2,10.2-11.7,14.1c-9.1,6.4-19.8,4.5-29.1,8.5c-6.6,2.9-14,1.8-20.9,4.3c-7.4,2.8-15.4,5.5-23.2,5.8
			c-13.7,0.5-26.1,6.4-39.6,8.3c-15.2,2.2-30.1,7.1-45.4,10.1c-13.1,2.5-25.6,8.3-39,10.4c-3.3,0.5-5.8,4.2-10.1,4
			c-8.9-0.4-14.9-3.6-18.8-12.5c-6-13.8-5.1-20.4,7.2-30.4c10.7-8.6,11.6-24.1,2.2-33.8c-3.6-3.7-8.1-4.2-12-2.3
			c-10.8,5.2-16,21.4-11.4,33.1c0.4,1.2-0.2,2.7-0.3,3.9c-4.2,1.6-8.3,0.8-11.5-0.6c-9.8-4.2-17-0.7-18.9,9.8
			c-0.4,2-0.1,4.4-1.2,5.9c-6.9,9.3-0.7,18.2,2.5,25.7c5.1,12,4.1,15.8-9.1,16.2c-6.9,0.2-13.6,5.7-13,10.6
			c1.2,10,5.2,13.8,12.8,13.1c3.3-0.3,4.2-3.6,7.7-4.2c10.6-1.8,21.4-3.8,31.3-8.7c4.6-2.2,10.4-3,14.6,0c4.2,2.9,3,7.7,1.8,12.6
			c-5,20.1-17.9,35.8-30,51.3c-9.6,12.2-19.7,24.6-30.8,35.7c-14,14-27.3,28.6-38.9,44.6c-17.3,23.9-22.2,52-24.7,80.7
			c-0.4,4.3,3.9,7,3.1,11.4c-3.1,15.7,6.2,27.9,11.7,41.2c0.8,2,1.9,3.6,4.4,3.3c3.4-0.4,2.5-3.1,3.1-5.3c1.4-4.9-3.3-7.8-3.6-12.1
			c-0.7-10.6-1.8-21.2-2.5-31.9c-1.4-22.1,3.1-43.5,14.1-62.3c8.4-14.4,19.5-27.4,30.1-40.6c12.7-15.8,25.3-31.8,38.1-47.6
			c3.2-4,8.5-4.3,11-9c1-1.8,4.9,0.1,4.5,3c-1.3,9.3,0,18.6-0.4,27.9c-0.5,14,1.8,27.5,4.3,41.2c4.7,26,21.9,41.3,41.9,54.7
			c11.3,7.6,23.6,14,34.3,21.9c16.9,12.5,35.4,23.1,50.2,38.7c13.6,14.4,30.7,25.2,39.5,44.5c3.3,7.3,3.8,14.3,4.5,21.2
			c1.3,13.2-0.7,26.8,0.1,40.1c0.4,6,2.7,15.1,10.2,14.6c11.5-0.8,21.9,3.8,30.8,7.8c12.2,5.5,19.4,18.8,25.2,31.5
			c5,11,6.6,23.2,9.9,34.7c3,10.5,3.6,23.2-7,31.9c-11.6,9.5-23.1,7.5-36.7,2.8c-15.2-5.4-25.5-33.4-23.9-45
			c1.4-10.4-2.2-21,0.9-31.4c0-0.1-1.2-3.4-3.3-3c-11.8,10.6-19.1,24.9-31.8,34.2c-8.1,6-16.3,13.2-28.4,9.5
			c-3-15.1,3.3-27.7,12.5-38.6c6.7-8,9.4-16.1,7.3-27.8c-20,18.1-36.2,36.2-35,64.2c0.8,17.9,12.7,29.2,27.4,23.6
			c9-3.4,18.1-8.1,24.4-16.6c2.6-3.5,4.9-9.4,12.1-8c-2,13.8,0.9,25.9,7.7,37.9c7.4,13,33,28.1,49.4,18.2c7.2-4.4,15.9-5.4,24.4-6.1
			c3.6-0.3,5.6-1.5,8.3-4.6c6.9-8.3,7.6-18.3,10.9-27.6c5.1-14.5-1-26.9-5.1-38.7c-5.8-16.5-16.4-31.3-29.5-43.4
			c-9.3-8.6-20-15.6-33.6-15.8c-8.7-0.1-13.4-5.2-13.4-14c0-10.2-0.4-20.4,0.1-30.6c0.9-16.2-8.6-28.2-15.7-41.1
			c-8.5-15.5-24.4-24.3-35.4-37.7c-8.2-10-20.1-16.1-29.9-24.3c-14-11.7-29.1-21.7-43.7-32.4c-14.6-10.7-26.5-23.6-35.4-39
			c-5.8-10-7.4-21.8-10.8-32.9c-3.3-10.8-3.4-21.7-3.8-32c-0.6-14.6-1.5-29.5,5.3-44.5c5.3-11.8,8.9-26.2,5.9-40.3
			c-0.7-3.3,0.1-5.5,3.8-6.5c15.2-3.8,30.6-6.9,45.7-11c6.1-1.7,12.4-2,18.5-3.4c9.5-2.3,18.5-6.7,28.7-7c4.6-0.1,10.2-0.5,14.5-2.7
			c8.2-4.3,17.4-5.1,26-6.8c10.8-2.1,21.1-5.8,32.1-7.2c14.7-1.9,28.9-7.4,43.7-9.8c10.3-1.7,21.3-3.2,30.6-7.3
			c10.2-4.5,20.7-4,29.1-1.5c18.2,5.4,34.5,16.2,48.4,29.3c12.9,12.2,25.8,24.9,35.8,39.3c10.5,15.2,22.9,29,34.1,43.4
			c12.3,15.8,24.1,32.2,35.9,48.3c17.7,24.2,38.1,42.9,66.7,53.7c16.8,6.4,33.7,9.6,51.1,10.4c15.5,0.7,31.3,2.3,46.5-4.6
			c5.2-2.4,12-1.4,14.7,6.6c1.1,3.2,3.5,8.4,6.5,8.1c7.1-0.8,12.9,3.2,20.8,1.9c14.6-2.4,28.2-7.1,41.3-12.7
			c17.7-7.6,34.7-17.8,48.4-31.5c12.2-12.1,24.1-24.8,29.3-42.2c3.6-12.2,1.6-24.5,2.1-36.8c0.3-7.9,8.5-15.5,15.3-11.8
			c10.8,6,23.1,8.9,32.6,18.2c19.3,19,28.9,40.7,28.1,68.2c-0.5,16-7.3,29.7-12.3,43.8c-2,5.8-4.7,13.3-10.3,17.9
			c-7.8,6.5-13.9,14.6-22.1,21c-15.1,11.7-31.7,20.3-49.1,27.4c-3.4,1.4-8.5,0.6-11.2,3.2c-4.4,4.3-10,4-15,5
			c-6,1.2-11.6,3-16.9,5.6c1,6,5.2,6,8.9,5.7c15.8-1.2,31.3-3,46.7-8.6c10.5-3.8,21.3-6.5,31.1-12.3c20.5-12.2,39.4-25.7,52.8-46.4
			c4.8-7.3,6.6-15.9,11.8-22.4c8.2-10.3,9.1-22.8,11-34.4c4.3-26.1-4.4-50.2-18.7-71.4c-13.8-20.4-33.5-33.3-58.1-39.6
			c-13.6-3.5-24.7-1.7-36.3,5.1c-11.4,6.7-18.3,2.9-17.5-9.9c0.9-15.2-7.5-26.5-14.2-38.6c-5.6-10.2-17.5-15.4-21.9-26.8
			c-0.4-1.2-2.1-1.8-3-2.8c-6.1-6.5-13.6-12.2-17.9-19.7c-6.5-11.2-14.6-21.7-19-34c-2.6-7.4-4.4-15.2-2.4-22.9
			c1.5-5.7,8.4-4.7,12.4-7.4c5.3-3.5,8.9-8,2.5-13.8c16.3-12.1,35.7-13.6,53.7-16.7c19.1-3.3,37.8-7.8,56.6-11.8
			c4.9-1,10.1-0.1,14.9-2.6c7.7-4.1,16.7-5.8,24.9-6.6c10.1-1.1,19.5-4.5,29-6.8c17.5-4.3,35.1-8.1,52.8-11.4
			c6.8-1.3,12.5,0.1,16.8,5.2c9.8,11.4,23,18.9,35.3,26.3c18,10.8,36.5,21.9,58.8,22.9c9.9,0.5,24.9,18.2,24.8,28.2
			c-0.1,14.8,3.4,29.2,8.4,42.4c10,26.4,26.5,49,50.4,65.2c9.7,6.6,19.1,13.3,31.2,16.6c16.4,4.5,32.1,11.7,49.7,10.5
			c0.9-0.1,1.8,1.6,2.8,1.8c8.4,1.4,16.9,3.4,24-3.2c-0.5-3.1-2.8-4.4-4.4-4c-10,2.4-18.3-4.3-26.7-6.8c-11.2-3.4-23-6.7-33.8-13.5
			c-15.5-9.9-31.8-18.4-43.9-32.6c-11.2-13.2-19-28.5-26.4-44.1c-4.7-9.9-6.6-20.5-9.7-30.7c-2.4-8.1-5.4-16.5-6.1-24.6
			c-1.6-18.1-3.6-21.4-22-21c-10.3,0.2-20-3.2-29-6.4c-10.8-3.8-22.1-7.1-32.3-13.9c-12.5-8.4-24.6-17.3-37.8-26
			c4.2-3.7,8.3,0,12.1-1.9c10.6-5.4,22.7-8,34-9.4c12.2-1.5,23.4-7.1,35.6-6.7c4.6,0.1,5.5-4.9,9.7-4.8c11.6,0.2,22.5-3.8,33.7-6.1
			c13.2-2.8,26.7-4.6,39.2-9.2c5.4-2,11-1.6,16.4-3.5c7.7-2.7,16.4-3.4,24.5-6.2c7.1-2.4,10.2,4.6,14.7,8.4
			c11.4,9.4,22.3,19.8,31.8,30.7c12.1,14,25,27.3,36.2,42.3c12.4,16.8,24.8,33.7,35.3,51.5c7.7,13.2,17.2,25.4,22.9,39.9
			c4.5,11.6,13,21,20.1,31.1c4.8,6.9,1.7,13.8-5,18.6c-6.7,4.7-14.5,2-21.2,6.2c-10.4,6.3-18.1,15.4-27.5,22.6
			c-11.5,8.8-18.9,20.9-25.8,32.7c-6,10.3-9.3,22.3-12.8,34.1c-2.8,9.5-4.1,18.8-4.9,28.2c-1.1,11.8,3.5,23,5.1,34.6
			c0.6,4.7,4.3,4.5,8.6,3.1c-1.1-17.8,4.3-34.7,7.4-51.8c3-16.6,11.1-32.1,19.7-46.8c8.6-14.7,19.9-26.7,35.7-34.3
			c4.5-2.2,9.5-3.9,13.6-6.5c6.5-4.2,13.2-7.1,20.6-4.5c7.2,2.6,14.2,5.6,17.3,14.4c2.4,6.8,0.9,12-6.4,13.1
			c-5.2,0.8-10.9,0.9-15.2,3.4c-13.2,7.7-23.9,18.3-33.4,30.4c-8.5,10.9-11.8,24.2-18.2,36c-4.4,8.1-5.3,18.6-5.6,28.1
			c-0.3,8.8-1.6,17.6-0.3,26.6c0.7,4.7,1.9,5.8,5.8,6.7c0.8-1.4,1.9-2.5,2.2-3.8c3.1-14.3,10.5-27,17.2-39.4
			c10.3-19,21.5-37.9,39.6-51.5c8.8-6.6,17.1-12.5,28.7-10.6c1.4,0.2,2.9,0.2,4.4,0.1c11-0.5,19.3,11.4,15,21.6
			c-51.9,1.8-86.1,50.3-86.1,94c6.7-6.1,12.6-12.5,16.8-20c5.3-9.5,11.8-18.4,18.4-26.5c12.3-15.1,27.2-28.3,45.5-36.4
			c8-3.5,16.4-4.5,24.9,0.9c11.5,7.2,18.2,18.2,26,28.6c10.6,14,26.4,22.5,40.1,33.3c14.6,11.5,30.8,20,46.3,29.6
			c16.4,10.2,35.7,14.2,53.5,21.7c11.2,4.7,24,5.9,34.6,11.6c14.3,7.6,30.1,9.8,45.1,14.2c13.7,4,27.5,8.3,41.4,12.1
			c6.9,1.9,14.2,2.7,20.7,5.2c13.8,5.2,28.9,7.4,41.6,15.2c6.5,4,13.9,3.6,20.6,6.8c12.6,6,24.9,12.5,37.4,18.7
			c17.8,8.8,35.8,17.1,52.8,27.4c16.1,9.7,33.7,17.3,47.1,31.2c1.9,1.9,4.4,3,6.8,0.6c0.9-3-2.2-3.7-3.2-5.7
			c-5.8-12.1-14.4-22.1-26.5-27.9c-5.4-2.6-10.4-5.2-14.7-9.4c-5.7-5.6-3.6-10.4,0.5-15.5c4.1-5,10.4-6.8,15.6-9.7
			c16.1-9.2,30.3-20.9,45-31.8c21.3-15.9,39.2-35.7,58.4-54c8.5-8.2,17.8-15.9,24.8-25.6c5-7.1,11.3-13,16.5-20
			c5.3-7.1,11.9-13.8,17.2-21c10.8-14.9,22.2-29.2,32.6-44.4c11.7-17.1,23.1-34.5,34.4-51.9c1.5-2.3,2.1-6.7,5.3-6.2
			c9.8,1.5,18.3-6.5,28.3-3c6.6,2.3,12.2-4.2,19.3-2.8c11.7,2.4,23.8,0.2,35.6,1c10,0.7,20.8-0.7,29.7,2.6c10.6,3.9,21.8,4.9,32.4,9
			c19,7.3,35.1,17.2,48.3,32.7c11.3,13.3,16.9,29,20.6,45.4c3.1,13.7,4.5,27.7-0.8,41.5c-2,5.3-0.3,11,1.3,16.3
			c0.9,2.9,4.9,6.9,7,4.6c5-5.4,12.2-2.9,17.6-7c15.1-11.3,29.2-23.3,41.6-37.9c15.9-18.8,25.2-40.3,33.1-63
			c2.6-7.4-0.8-15.3,3-21.8c3.8-6.5,4.1-14.2,1.4-19.2c-4.1-7.8-3.2-16.3-4.6-24c-2.5-13.2-8.5-24.5-13-36.6
			c-2.7-7.3-8.4-11.9-11.8-18.3c-5.7-10.8-13.9-20-23.6-27c-17.5-12.8-35.3-25.1-55.9-33.2c-5.5-2.1-11.5-3.8-17.1-6.1
			c-11.3-4.7-23.7-6.8-36.1-7.7c-1.9-0.1-2.1,2.3-1,4.6c6.1-4.2,8.3,4.3,13.4,4.1c8.8-0.5,16.1,4.8,23,8.4
			c19.4,10,38,21.3,53.8,37.2c14.5,14.6,26.5,30.3,36.8,48c12.1,20.8,15.9,43.2,15.1,66.2c-0.2,6.3,0.1,14.5-3.2,19.9
			c-4.6,7.5-4.9,16-8.7,23.6c-6.6,13.2-13.4,26.3-23.2,37.1c-4.3,4.7-10.2,11.7-20.2,8.3c0.1-15.9-6.1-30.8-10.9-45.6
			c-9.6-29.2-33.3-47-59.9-59c-10.3-4.7-21.2-9.9-33.3-12.6c-14.7-3.2-29.3-6.5-44.2-7.6c-16.8-1.3-33.8-0.2-50.7-0.1
			c-2.3,0-5-0.4-6.9,0.6c-8,4.3-16.3,1.7-24.1,2.6c-2-5.5,3.7-6.4,4.1-9.7c1.1-10.5,10.4-9.9,16.7-10.8c10.8-1.4,21.9-0.6,32.9-0.3
			c7.5,0.2,15.1-1.8,22.5,0.2c4.9,1.3,9.5,4.2,14.9,3.2c8-1.5,16,0.3,23.2,2.3c11.3,3.1,22.9,5.3,34.2,8.6
			c11.9,3.5,23.2,8.5,33.6,13.7c25.6,13,44.3,33.9,53.6,61.9c1.4,4.1,1.8,9.7,7.1,9.6c5-0.1,4.2-6.6,7-9.6c0.5-0.6,0.6-1.6,0.8-2.5
			c3.2-20.5,0.6-40.3-7.7-59.3c-5.9-13.6-18-21.9-29.5-29.7c-24-16.3-51.8-23.3-80-28c-26.1-4.4-52.4-1.3-78.6-0.1
			c-1.8,0.1-3.4,1.7-4.6,1.8c-9.5,0.6-18.6,5.2-28.2,3c6.4-11.7,7.6-24.7,14.3-35.6c2.9-4.7,4.3-10.5,6.3-15.4
			c1.9-4.5,2.2-9.8,5.1-14c5.3-7.8,7.2-17.1,9.4-25.9c1.7-6.6,3.7-13.7,5.8-19.7c5.3-14.9,8.8-30.3,13.5-45.4
			c4.6-14.9,6.2-30.6,9.8-45.8c3.5-14.6,6.3-29.8,7.7-45c0.8-8.5,0.1-17.2,0.1-25.8c-0.9-0.1-1.7-0.2-2.6-0.3
			c-4.4,13.7-8.7,27.3-13.1,41c-1.9,6-2.6,12.2-4.8,18.3c-2.6,7.1-5.5,14.3-6,22.3c-0.4,6.5-2.2,13.5-4.8,19.3
			c-6.7,14.6-10,30.4-16.2,45c-3.4,7.9-4.2,16.4-7.8,24.3c-4.5,9.9-10,19.7-12.3,30.1c-2.5,11.3-8.4,21.1-12.1,31.7
			c-4,11.6-10.9,22.2-15.1,34c-2.9,8.2-6.3,18.6-15.8,20.2c-8.2,1.4-14.7,5.6-22,8.3c-13.8,5.1-26.8,11.4-38.5,20.4
			c0.2,0.8,0.5,1.6,0.7,2.4c18.7-4.5,37.4-8.9,56.4-13.4c0.3,4.8-5.4,6.8-5.7,11.1c-0.7,10-9.3,12.8-15.8,13.8
			c-14.6,2.1-24.6,12.3-37,18c-1.7,0.8-6.7,2.6-6.3,7.1c5.5,4.7,16.5,4.7,24.6-1.1c5.4-3.9,11.8-4,18.2-8.3
			c-7.8,14.7-15.2,27.3-23.7,39.5c-11.7,16.7-23.3,33.4-36.7,49c-11.2,13.1-22.1,26.5-32.3,40.6c-3.6,5-5.7,11.5-10.5,15.3
			c-12.9,10-20.9,24.5-34.1,34.4c-17.6,13.2-32.5,29.5-50.3,42.6c-10.1,7.5-20.3,14.9-29.7,23.4c-9.1,8.1-20.2,14.1-33.1,7.5
			c-6.1-3.1-11.5-7.7-17.7-10.3c-20.8-8.5-41.1-18-62.3-25.6c-13.1-4.7-26.3-9.8-39.5-13.6c-10.6-3.1-21.9-5.9-32-9.4
			c-12.9-4.5-26.3-7.7-39.3-11.5c-9.6-2.9-18.6-8.1-29.6-8.3c-10.5-0.2-20.4-6.5-30.7-9.8c-8.7-2.7-18.2-3-26.3-7.9
			c-16.3-9.9-34.3-16.4-50.5-26.4c-17.5-10.8-35.2-21.3-51.3-34.2c-10.8-8.7-22.1-16.6-30.1-28.1c-2.1-3-5-5.8-2.9-10
			c13.4-2.2,14.8-3.3,16.7-13.5c1.9-10.3,0-20.6-2.5-30.2c-2.8-10.9-7.2-21.3-13.3-31.4c-10.2-16.8-23.7-27.9-42-33.4
			c-4.2-1.3-9.2,1.1-13.3-1.9c-3.7-2.8-7.1-2.3-11.1-0.2c-11.9,6.1-22.6,1.4-26.8-10.8c-5.2-15-17.7-24.6-23.8-38.7
			c-1.4-3.3-1.9-7.9-4.7-9.8c-8.4-5.6-8.8-15.9-14.6-23.2c-5.4-6.8-9.3-15.9-13.7-24c-6.1-11.2-16.5-19.9-23.2-30.4
			c-10.4-16.5-24-30-36.7-44.1c-11.4-12.6-22.4-26.1-38.8-37.5c73.9-17.1,145.3-33.7,217.5-50.4c0.8,13.7-3.3,25.9-3.7,38.4
			c-0.4,15.7,3.1,30.4,5.5,45.5c1.6,9.5,4.9,18.7,8.8,27.7c4.5,10.5,9.7,20.5,16.7,29.5c4,5.2,9.6,5.4,12.9-0.1
			c6-10,11.2-20.3,21.3-27.5c7.3-5.2,14.8-10.9,19.5-19.1c13.4,0.2,18.3-14.2,29.5-17.5c4.1-1.2,4.5-4.7,5.9-7.3
			c3.4-0.5,6.4,3,9.3-0.4c6.2-7.2,14.4-4.3,21.5-3.1c6.9,1.2,12.5,13.4,8.9,17.9c-10.4,13-24.3,21.9-38.5,29.9
			c-16.5,9.3-32.3,19.4-48,29.9c-22.3,15-37.3,35.5-45.6,61.1c-2.9,8.8-0.5,22.7,6.1,29.5c6.9,7.2,16.5,9.1,25.3,9.4
			c14.9,0.6,29.6,0.4,44.8-4.8c13.2-4.5,27.7-6.5,41.4-11.1c12.2-4,25.2-5.6,38.2-6.5c10.7-0.8,21.4-0.2,32.1-0.5
			c7.4-0.2,13.5,2.6,20.2,3.8c6.3,1.2,12.2,4.4,19.1,3.9c-5.6-5.6-11.5-9.6-18.6-12.6c-8.7-3.6-16.9-8.3-26.6-8.6
			c-3.1-0.1-6-1.1-8.9-2c-10.6-3-21.9-2.4-32.3,0.2c-9.9,2.5-20,4.2-29.9,7c-8.3,2.3-17.3,4.8-25.5,7.5c-14.7,4.9-28.9,9.8-44.7,8.4
			c-11-1-19.6-10.4-19.3-21.1c0.3-9.9,6.3-16.7,12.3-23.3c10.5-11.4,20.2-23.7,33.4-32.4c12.2-8.1,24.4-16.3,36.1-25.1
			c7.3-5.5,13.2-12.8,20.5-18.3c11.9-8.9,22.6-18.6,29.4-32c2.4-4.7,1.5-17.2-2-20.7c-9.3-9.2-33.5-12.6-45.9-7.9
			c-9,3.4-16.4,9.7-25.4,12.3c-6.2,1.8-8.3,5-8.3,11.2c-4.2-2-7.8-1.6-10.7,0.7c-9.7,7.7-18.8,16-29,23.1c-3.2,2.3-6.6,5.4-8,8.9
			c-1.5,4-3.2,7.7-7.3,6.6c-5.1-1.4-11.2-0.3-14.5-7.2c-4.6-9.5-6.4-18.8-7.2-29.4c-1.5-20.7,10.2-34.2,24.3-43.9
			c10.9-7.5,22.6-15.4,36.4-19.3c8.7-2.5,18.3-3.9,26.4-8.4c6.1-3.4,12.7-0.1,18.4-3.4c3.9-2.3,7.9-2.4,12.4-2.2
			c12.7,0.5,25.4,0.2,38.3,0.2c-2.4-4.2-2.4-4.1-4.1-4.9c-10.7-5.3-22.2-4.9-33.6-5.2c-17.3-0.3-35.3-2.6-51.5,2.8
			c-19.8,6.6-41.5,11.1-55.9,29.3c-2.3,2.9-8.7,8.4-13.9,1.9c-2.9-3.6,2.6-23,6.7-25.4c10.4-6,22.6-5.6,33.9-8.3
			c11.4-2.8,22.4-7.3,34.4-7.8c3.1-0.1,5.7-5.3,9.9-3.7c4.6,1.8,9.4,0.2,12.6-1.6c9.6-5.6,20.9-6.1,30.8-8.1c11.9-2.3,24-5.5,35.9-8
			c10.4-2.2,21.9-2,31.8-8.3c2.5-1.6,9.7-1.5,13,2c8.9,9.3,22,11.4,31.6,19.3c6.2,5.1,14.9,5.2,21.6,8.8c16.7,8.8,35,11.5,52.9,15.5
			c17.2,3.8,35.2,2,52.8,2.1c3.5,0,7.1-0.3,11.4-3.8c-52.3-8.1-101.4-20.5-146.9-51.2c91.2-21.1,180.4-41.7,270.7-62.6
			c-1.8,1.9-2.6,2.7-3.2,3.6c-15.6,21.6-32.5,41.9-53.2,59c-9.4,7.7-19.4,14.7-28,23.4c-2.9,2.9-8,4.6-8.3,11.7c2.8-2.2,4-4,5.4-4.1
			c13.6-1.3,23.7-10.3,34.9-16.4c15.5-8.5,29-20.5,40.9-33.4c11.7-12.7,25.5-23.8,32.9-40.2c3.8-8.4,10.4-14,19.7-14.3
			c6.1-0.2,10.3-2.4,11.5-7.9c1.2-5.4-1.5-10.2-6.7-12.6c-4.9-2.2-4.3-4.1-2.1-8.6c5.3-11,10.4-22.3,12.8-34.5
			c2.5-12.4,5-24.9,6.5-37.4c0.9-7.4,2.9-15.5-3-22.5c-3.1,2.4-5,4.8-5.3,8.7c-0.9,10.4-4.9,20.1-7.7,29.9
			c-5,17.3-13.3,33.7-20.4,50.4c-4,9.4-8.2,17.4-21,18.3c-7.7,0.5-15.9,3.1-23.4,5.5c-9.8,3.1-20,4.4-29.5,8
			c-8.5,3.2-17.6,3.5-26.2,6.7c-5.8,2.1-14.1,5.8-21.1,3.1c-5.9-15.1,7.2-27,5.7-40.9c-2.1-0.6-3.7-1-4.7,0.3
			c-8.5,11-20.1,18.8-30.5,27.4c-21.1,17.4-45.2,30.1-73.3,31.9c-8.5,0.5-17.4,1-25.6-0.2c-6.5-1-12.9-2.8-19.5-1.7
			c-3.5,0.5-7.1,0.3-9.2-1.3c-4.6-3.6-9-2.8-13.7-2.1c-0.3,6.4-0.2,6.2,4.3,8.5c5.8,3,11.5,6.2,9.2,14.5c-1.6,0.7-3.1,1.4-4.7,1.9
			c-12.5,4.2-26.4,3.3-38.2,10.2c-1.6,0.9-3-0.6-4.4-1.9c-9.2-8.7-19.5-16-28.6-24.8c-27-26.3-54.7-51.9-78.5-81.1
			c-15-18.4-31.4-35.7-45.2-55.1c-13.1-18.4-28.1-35.5-40.9-54.2c-10-14.6-18-30.6-26.8-46c-1.3-2.3-1.3-5,0.1-7.4
			c1.8-0.7,3.3-0.4,5,0.5c8.1,3.9,14.3,10.3,22.7,14.1c18.9,8.6,38,13.4,58.8,12.4c5.7-0.3,10.2-4.1,15.6-3.7
			c21.2,1.5,42.8-4.4,63.5,5c10.8,4.9,22.9,6.7,33.5,12.8c3,1.7,6.7,4.9,11.1,1.1c-0.4-1.3-0.5-2.6-1.2-3.3
			c-8.9-10.2-15.8-21.2-30.4-26.5c-12-4.4-22.5-9.3-36.1-9.8c-32.7-1.2-66,2.9-98.1-9c-8.6-3.2-16.2-7.3-22.2-12.9
			c-16.3-15.1-33-29.1-53.7-37.8c-17.3-7.2-35.1-10.5-53.6-8.5c-6.7,0.7-14.8,0.5-20.9,8.6c15.4,0.8,29.1,4,42.8,7.1
			c9.5,2.2,19.8,3.9,27.2,12.4c6.9,7.9,13.7,14.8,17.9,25.5c3.8,9.6,7.6,19.9,13.2,29.1c6.4,10.6,11.2,22.3,17.3,33.1
			c6.1,10.8,14,20.6,19.2,31.7c8.4,17.9,20.6,33.3,30.1,50.5c10.5,18.9,26.8,33.5,39.2,51.1c4.1,5.8,8.9,11.8,14.4,16.9
			c10.1,9.5,20.4,18.8,29.7,29.1c10.3,11.4,21.4,21.9,32.9,32.1c4.9,4.3,10.1,8,14.3,14.6c-56.5,12.9-111.7,26.7-168.2,38.5
			c0.9-16.8-0.7-31.8,3.2-45.2c4.5-15.7,4.4-31.8,6.9-47.6c2.8-17.4,1.8-35.7,2.5-53.7c0.4-11.3-1.2-22.9-1.9-34.1
			c-0.8-13.8-7.3-25-10-37.7c-0.6-3-3-5.3,0-8.2c-9.3-5.6-12.7-16.1-21.5-22.1c1.4,5.2,2.9,10.5,4.3,15.7c-4.6-3-9.3-0.3-13.5-1.8
			c-9.5-3.5-18.9-7.2-28.7-9.6c-14-3.5-26.9-9.5-39.9-15.2c-11.3-4.9-22.1-10.9-33.1-16.4c-10.9-5.5-22.1-10.6-32.7-16.7
			c-10.7-6.2-20.8-13.2-31.1-20.1c-15.4-10.5-30.2-21.8-44.7-33.4c-10.4-8.3-20.3-17.4-30.3-26.1c-12.2-10.7-22.5-23.7-31.9-37.2
			c-2.3-3.3-4.5-6.9-7.5-9.5c-10.1-9-15.3-21.7-20.9-33c-6.5-13-12.6-26.8-17.3-41.1c-2.7-8.3-5.6-16.9-6.7-25.2
			c-1-7.6-0.5-16.6-2.6-23.3c-4.3-13.4,0.1-26.4-2.4-39.3c-1.1-5.6,3.1-10.1,3.7-15.7c1.3-10.8,0-21.7,4.4-32.6
			c5.4-13.6,6.1-28.8,12.4-42.6c5-11,7.5-23,13.5-33.7c4.8-8.4,5.6-18.4,12.5-27.7c-5.4,0.9-7.7,1.9-10.2,4.3
			c-12.6,11.8-19,27.8-26.9,42.2c-10.7,19.7-18.1,41.3-24.1,63.1c-0.4,1.4-1.5,3-1.1,4.1c2.8,8.2-2.6,15.2-4,22.7
			c-2.4,13.6,1,27.5-3.4,40.8c-0.4,1.1,1,2.6,1.2,4c0.6,3.4,2.2,7,1.5,10.2c-3.4,16.3,3,31.4,6.2,46.5c3.6,16.7,12,32.2,18.3,48.1
			c7,17.6,18.1,32.3,27.8,47.9c9.2,14.7,22.8,26,33.9,39.2c9.9,11.8,21.8,21.4,33.1,31.5c18.8,16.9,41.7,28.3,62.6,42.3
			c6.9,4.6,14.8,7.3,22.1,10.9c8.8,4.4,17.1,10.1,26.2,13.9c24.5,10.3,49.4,19.3,75.2,25.8c18.9,4.8,37.6,10,57,12
			c3.4,0.4,5.7,1.4,6.3,4.7c1.7,9.4,3.6,18.6,3.1,28.4c-1.4,29.3,2.4,58.6-2.7,88c-1.6,9.6-3.5,19.9-3.2,30.3
			c0.2,6.9-0.7,14.8-2.5,21.2c-3.2,11.5-2.9,23.2-5,34.6c-1.4,7.5-3.6,15.3-2.8,23.7c-6.9-0.3-13.4-0.4-18.7,2.3
			c-9.7,5.1-20.7,4.6-30.9,7.7c-11.4,3.5-23.5,6.8-35.7,7.7c-0.9,0.1-1.8,0.1-2.5,0.5c-9.3,5.9-20.6,5.6-30.6,8.1
			c-11.5,2.9-24.1,5.1-35.8,8c-10.1,2.4-20.8,4.7-30.9,6.9c-10.5,2.3-20.5,8.4-32.1,7.1c-3.2-0.4-7.9,0.3-11.6,2.7
			c-6.3,4.1-12.2,3.8-17.5-2.5c-3.5-4.2-7.9-7.7-12.1-11.2c-9.5-7.9-20.2-14.7-28.4-23.7c-9.7-10.6-21.2-19.2-30.3-30.2
			c-8.8-10.7-20.8-18.6-27.9-30.6c-5-8.5-13.3-13.9-18.7-21.8c-1.9-2.8-4.4-3.7-8.3-2.3c-0.7,6.3,1.9,12.4,3.9,18.1
			c4.1,11.7,12.3,20.2,21.3,29.1c14.2,14.1,28.8,27.8,43.4,41.4c13,12.1,25.4,25,39.9,35.4c1.8,1.3,2.7,2.7,2.6,4.8
			c-3.8,2.8-9.2,4.9-12.5,4.9c-11,0.1-20.9,4.4-31.3,6.5c-4,0.8-8.7,0.4-12,2.2c-8.6,4.7-18.5,5.4-27.4,7.1
			c-11.1,2.1-21.9,5.7-33.2,7.5c-13.9,2.2-27.6,6.4-41.5,9.2c-11.3,2.3-22.5,4.8-33.6,7.6c-14.3,3.5-13.9,4.7-22.5-6.2
			c-14.9-18.9-28.7-38.5-41.2-59.1c-3.5-5.7-5.9-12.7-14.8-17.8c7.3,35.6,23.4,64.6,43.4,91.9c-5.4,1.8-10,0.6-14.6,2.7
			c-14.5,6.6-30.6,9.1-46,11.5c-20,3.1-38.9,10.6-58.9,12.8c-1.7,0.2-3.3,0.5-4.9,1.3c-9.7,4.5-20.6,4.7-30.8,7.5
			c-12,3.2-24.7,5.4-36.8,8.5c-10.2,2.6-20.7,3.4-31,7.3c-9.4,3.6-20.5,5.3-31,7c-8.9,1.4-17.3,5.7-27,4.6
			C784.9,1306.8,794.2,1296.7,797.7,1283.5z M2166.2,878c-2.9-1.9-5.5-3.8-8.5-4.4c-11.7-2.3-17-12.5-24.3-20.1
			c-2.3-2.4-1.8-8.2-7.2-5.9c-4.6,2-3.4,7.7-2,10c5.4,8.5,4.5,18.6,7.4,27.7c7.2,23.1,19.3,42.1,35.9,58.9c1.7,1.7,3.6,2.7,3.3,5.6
			c-1.7,15.3-3.1,30.7-5.4,46c-1.9,12.5-5.1,24.8-6.4,37.3c-1,10-4.2,19.6-6.8,28.9c-2.7,9.5-4.4,19.7-8.5,29.2
			c-5.7,13.4-8.9,27.8-14.8,41.3c-6.8,15.7-14.3,31.1-21.8,46.6c-9,18.5-21,34.9-31,52.5c-3.6,6.3-9.5,11.2-11.4,18.4
			c3.5,2.2,5.6-0.1,6.9-2.1c8.7-13.9,21.4-24.6,30.1-38.5c8-12.8,17.5-24.9,24.5-38.2c6.7-12.8,13.2-25.8,18.9-39.3
			c8-18.8,14-38.2,21.4-57.1c2.9-7.3,3.3-15.7,5.3-23.5c1.5-6,1.5-13.5,3.6-18.6c5.8-13.5,4.1-27.9,7-41.7
			c2.2-10.8,5.4-22.8,2.6-33.5c7.9-4.6,12.1,3.9,19,3.3c14.6-1.2,29.1-1.9,42.6-8.9c10.1-5.3,19.4-11.9,26.4-20.4
			c13-15.9,21-34.3,20.2-55.6c-0.3-8.3,1.9-17.3-0.4-24.9c-2.5-8.2-5.4-16.5-7.5-24.7c-4.9-18.7-18.1-31.4-30.6-44.2
			c-6.4-6.6-13.7-13.1-23.5-17.3c14.3-10.5,22.9-24.5,32-37.3c14.7-20.7,24.4-44.2,33.2-68.4c9.3-25.5,10.6-51.7,14.6-77.8
			c1.3-8.2-2.2-16.7-2.1-24.6c0.2-13.1-2.5-25.6-5-37.9c-2.1-10.6-4.4-21.3-7.9-31.8c-4.6-13.9-7.8-28.6-13.5-41.9
			c-7-16.3-15.2-32.4-23.7-48.2c-8.2-15.3-17.3-30-26.6-44.5c-8.4-13.3-18.5-25.5-28.7-37.5c-2.5-2.9-5.5-8.3-11.6-7.8
			c0.2,3.5,2.9,3.6,3.3,5.1c6.5,20.1,20.9,35.9,29.6,55.1c10.9,24.4,24.7,47.8,33.8,72.8c4.4,12.1,10.7,24.3,11.7,38.2
			c1.3,17,9.3,33,9.9,50.7c0.5,15.1,2.3,30.5,4.8,45.3c2.4,14.3-3.9,26.7-3.2,40.5c0.5,9.2-2.1,20.3-6.5,29.8
			c-1.6,3.5,0.2,8.7-1.7,11.8c-4.5,7.2-5.4,15.4-8.6,22.9c-4.8,11.3-8.2,23.1-14.4,34c-3.9,6.9-8.3,13.6-11.6,20.7
			c-4.3,9.2-10.8,16.6-16.7,24.5c-1.9,2.5-4.3,2.2-6.9,1.3c3.8,8.4-7.7,21.6-18.6,21.4c3.7,9.3-9.5,10-9.7,18.7
			c5.5-3.3,10.1-6.1,15.6-9.4c12.5,11.2,16.2,26.9,19.2,41.9c1.6,7.8,0.6,17-4.3,25.7c-7.9,14.3-21.3,22.5-37.8,18.9
			c1.9-5.3-3.6-9.8-2.4-14.7c2.7-10.5-2.1-20.2-3.8-29.8c-1.4-7.5-2-14.2,1.2-20.1c7.2-13.1,10.4-26.8,9.8-41.4
			c-0.2-5.4,2.4-9.2,6.6-11.2c28.2-13.7,38.6-41.3,50.9-66.8c6-12.4,10.4-26.3,13.6-39.8c3.7-15.7,7.5-31.6,8.3-48
			c0.5-10.9-2.1-22,2.4-32.8c1.2-3,1.2-7.4-0.1-10.3c-3.7-7.7-3.9-16.5-2.9-23.8c2.6-18.9-3.6-36.6-6.2-54.5
			c-1.6-11-4.3-22.3-8.1-33.3c-2.5-7-5.3-14.8-6.7-22.7c-1.3-7.3-3.8-15-7.8-21.2c-5.2-8.2-7.9-17.4-13.2-25.4
			c-5.5-8.3-9.9-17.4-16.1-25.1c-7.8-9.8-16.8-18.7-26.8-26.6c-9.4-7.5-20.6-10.9-31.4-16.8c-2.5,11.6,6.3,17.1,10.3,24.5
			c5,9.4,12.7,17.2,17.9,26.5c5.5,9.9,9.3,20.7,13.8,31.2c1.8,4.1,4.7,8,6,11.9c6.9,20.8,12.8,41.9,19.1,62.9
			c0.6,2.1,0.3,4.2-1.1,5.7c-1.7,1.7-3.7,0.4-5.7-0.3c-2.7-1-3.7-3.4-5.2-5.5c-9.4-12.6-18-25.9-28.7-37.3
			c-13-13.9-24.9-28.7-40-41.1c-15.6-12.7-32.9-21.8-49.4-32.5c-8.4-5.4-18.9-4.5-27.2-9.5c-4.7-2.9-9.9-4.5-15-6
			c-3.2-0.9-7,2-10.9-0.2c-6.3-3.6-12.9-5.9-20.4-5.2c-6.2,0.6-12.6,0.8-18.8,0.4c-3.6-0.2-7.6-1.4-9.1,2.5
			c-1.6,4.1,2.5,6.2,5.1,8.1c8.1,5.9,16.2,11.8,24.7,17c13.3,8.1,22.6,21.2,36.8,28.3c3.2,1.6,7.2,4.4,9.6,7.8
			c8.8,12.4,21.2,21.6,29.7,34.3c3.9,5.8,8,11.3,9.3,19.7c-6.8-3.6-13.6-5.5-18.1-9.9c-15.7-15.1-35.1-24.5-53.8-34.7
			c-16.4-9-33.6-16.4-51.8-21.7c-5-1.5-10-1.3-14.7-2.7c-12.3-3.8-25.1-6.8-37.6-6.7c-15.6,0.1-31-2.1-46.8-0.9
			c-20.6,1.6-41.6-1.3-61.5,7c-1.3,5.5,2.7,8.9,7.4,8.6c6.8-0.5,12.3,3.3,18.7,4.2c4.3,0.6,9.7-1.1,13,1.5
			c9.5,7.3,21.4,4.5,31.9,8.5c16,6.1,33.3,8.9,49.9,13.6c8.7,2.5,17.6,4.3,26.3,7.4c26.3,9.2,50.8,22.4,76.1,33.8
			c13.1,5.9,24.6,14.6,37.3,21.3c12.7,6.7,23.3,17.3,35,26.2c16.6,12.7,30,28.5,42.2,45c11.5,15.5,20.6,32.6,28.6,50.2
			c2.1,4.6,5.9,9.3,5.9,13.9c0.1,10.2,3.7,20.1,7.5,28.1c4,8.3,4.3,17.3,4.5,24.3c0.5,16.6,1.9,33.8-2.3,50.2
			c-2.5,9.7-6.7,19.2-14.3,27.4c-3.3-11-5.6-21-9.3-30.5c-6-15.5-13.6-30.3-19.2-45.9c-4.5-12.5-9.5-25.1-10.9-38.5
			c-0.7-6.8-6.2-12.8-2.4-21.6c19.3,24.5,30.7,52.7,44.2,79.8c1.4-2.3,2.1-4.1,1.7-5.7c-3.5-12.4-5.4-25.1-9.4-37.5
			c-3.4-10.5-6.5-21.2-11.3-31.1c-6.1-12.7-11.9-25.7-20.3-37.2c-5.4-7.4-11.4-14.2-16.9-21.5c-9.2-12-19.8-22.8-31.1-32.6
			c-14-12.3-28.6-23.9-44.8-33.7c-11.3-6.8-22.8-13.4-34.1-20.1c-11.7-7-24.7-11.6-37.3-17c-26.8-11.4-53.4-22.9-81.6-30.8
			c-7.7-2.2-15.7-3.2-23.2-5.6c-9.3-3-18.8-5-28.2-7.4c-9.3-2.4-19-3.8-28.5-5.6c-8.4-1.5-17.2-1.9-25.2-4.8
			c-7.2-2.6-14.4-1.1-21.3-2.9c-8.5-2.1-28.7-5.4-36.4-4.2c-4.2,0.6-8.9,0.5-11.8-1.3c-6.7-4-13.7-3.1-20.3-2.5
			c-7.6,0.8-14.7-1.1-22-1.4c-23.3-1.1-46.8-1.6-70.2,0.3c-0.8-5.2,4.3-6.2,6.7-9.3c9.9-12.9,19.9-25.5,31.6-37
			c18.9-18.7,36.9-38.4,57.5-54.9c13.4-10.7,27.1-21.6,41.8-31c12.2-7.8,24.1-16,36.8-23.1c5.8-3.2,13.1-5.6,15.6-13.1
			c-3.2-1.5-3.7,2.5-5.8,2.6c-15,0.9-28,8.8-40.2,15.5c-15.3,8.4-31.4,15.7-45.8,26.2c-18,13.1-37.2,24.7-53.4,39.8
			c-16.4,15.4-35.1,28.6-48.7,47.1c-8.1,11.1-19.3,19.7-25.8,32.5c-1.3,2.7-4.1,8.4-8.3,8.5c-9,0.4-17.8,1.2-26.7,3.7
			c-0.9,2.8-0.8,6.3,3.5,5.2c6.3-1.6,10.5,3,15.8,2.8c-57.7,92.5-83.2,192.3-74.1,300.3c-19.7-1.6-37.3-10.6-55.6-17.3
			c-19.1-7-34-19.3-47.2-37c-3.4,11.6,2.6,18.6,7.1,24.5c13,17,31.6,26.3,51.6,33.2c6,2.1,12,3.5,18,5.2c15.6,4.2,30,12.2,47,10.6
			c12.3-1.1,24.2,4.1,36.8,3.6c9.5-0.3,19-1.9,29,0.7c11.2,2.9,23.3-0.8,35.3,3.5c9.3,3.3,20.1,3.2,30.3,5.3
			c22.4,4.5,43.8,11.1,62.8,23.8c7.2,4.8,15.9,7.5,21.5,14.3c7,8.4,15.3,15.6,22.2,24.2c7.9,9.7,14.2,20.3,19.2,31.1
			c5.6,11.9,11.8,24.5,12.6,38c0.5,7.6,4.8,14,4.7,21.4c-0.2,16.2-0.7,32.4-0.8,48.6c0,8.7,10.2,17.5,17.6,13.5
			c9.2-4.9,16.5-0.1,23.9,1.8c14.5,3.7,27.8,10.6,39.7,20c1.3,1.1,3.3,2.7,5.5,1.1c0.8-1.7,0.9-3.1-0.6-4.6
			c-3.8-3.7-6.3-8.7-8.4-13.2c-5.3-10.8-15.4-13.9-24.7-18c-7.8-3.4-16.5-3.4-24.9-4c-6-0.4-8.9-3.8-9.5-10.2
			c-0.4-4.7,0.5-9.2,0.7-13.8c1.1-21.9-1-43.5-9.4-63.7c-3-7.3-3.8-15.2-7.2-22.1c-5.3-10.9-12.5-20.8-17.7-31.7
			c-3-6.5-10.2-9-12.6-15.3c-1.9-4.9-5.4-8.1-9-11.3c-12.6-11.5-26.3-21.5-40.8-30.5c-8.2-5.1-16.7-10.3-25.9-11.9
			c-9.2-1.6-17.4-5.8-26.8-7.1c-8.9-1.3-17.6-5.1-26.8-3.8c-3.1,0.5-6.2,0.7-8.4-0.7c-6.1-3.8-12.8-3.1-19.3-3.1
			c-7,0-14,1.2-20.9,0.8c-20.1-1.3-40.1-3.8-60.3-1.9c-6.3,0.6-15.5,0.1-17.1-6.3c-2.1-8.6-3.4-18.8,0.1-27.4
			c2.1-5.1,2.2-9.9,2.7-15c1.4-12.6,2.1-25.4,4.7-37.8c3.3-15.8,5.9-31.8,11.2-47.2c4-11.7,6.1-24,10.2-35.6
			c4-11.3,6.1-23.3,12.2-33.9c4-7,6.6-14.9,9.9-22.3c4.9-10.8,10.6-21.3,15.9-31.9c6.5-12.9,15.2-24.6,21.9-37.5
			c2.1-4,5.2-7.6,10.9-6.8c9.4,1.3,18.9,0.8,28.3,1.2c20.6,0.9,41.1,2,61.5,4.1c7.3,0.7,14.4,0.1,21.9,1.2
			c20.8,2.9,41.8,4.1,62.2,9.2c9.4,2.4,19.2,2.6,28.8,4.7c17.2,3.8,34.8,5.9,51.6,11.5c4.7,1.6,9.9-1,13.4,1.3
			c9.1,6,20.1,5.6,29.7,9.9c3,1.4,7.7,0,10,1.8c7.7,6.3,17.8,3.8,26.4,8.4c8,4.2,18.3,6.2,26.5,10.2c19.2,9.4,37.9,19.8,55.6,32.1
			c17.5,12.1,34.7,24.6,51,38.2c11.4,9.6,21.9,20.3,33.3,29.8c13.5,11.3,21.5,25.2,18,42.8c-1.6,8-1,14.8,0,22.7
			c2.2,16.1,9.5,29.9,14.8,44.6c5.4,14.8,12.9,28.7,17.7,43.8c3.3,10.2,4.2,20.8,7.4,30.8c3.9,12.3,2,23.3-2.7,34.2
			c-4,9.3-9.4,18.5-18.6,23.2c-11.4,5.8-29.1,0.7-34-11.2c-4.5-10.9-11.9-21.1-10.9-34.6c0.7-8.8,4-16.5,5.6-24.7
			c1.3-6.6,4.9-11.8,8.1-17.4c2.4-4.2,8.4-7.9,5-14.6c-13.7,8-24.1,18.5-30.7,33.2c-7.4,16.3-7.2,32.6-1,49.9
			c3.5,9.8,9.1,18.4,14.3,26.7c6.3,9.9,16.5,17.5,29.2,19.1c12.8,1.6,24.4-2.4,35.3-11.1C2166.6,846.2,2165.4,862,2166.2,878z
			 M1579.4,281.9c-3.5-3.2-6.7-3.7-10.7-1.1c-5,3.3-10.5,5.8-15.6,9.2c-20.1,13.6-38.5,28.7-54.4,47.2c-6.2,7.2-14.2,13.2-19.3,21.1
			c-8.8,13.8-18.4,27.2-27.1,41.1c-10.8,17.3-17.8,35.8-25.7,54.2c-3.1,7.3-5.4,15.2-8.4,22.4c-3.5,8.5-4.7,17.2-7.3,25.7
			c-2.6,8.6-5.6,17.3-6.6,26.2c-0.7,6.1-5.1,11.1-4.5,16.7c1,8.5-3.8,16.3-2.1,24.7c0.7,3.3-2,5-4.3,5.7c-2.5,0.8-4.9-0.6-6.2-3.3
			c-3.5-7.3-6.5-15.3-5.7-22.9c2.2-22-2.4-44.1,3.5-66.1c2.8-10.3,3.5-21.6,6.1-32c3.1-12.4,6.1-25,11.6-36.9
			c5.5-11.9,8.7-24.8,14.7-36.4c5.8-11.2,11.1-22.5,16.8-33.7c6.5-12.7,12-25.8,19.7-37.9c4.9-7.8,9.3-16.1,12-25.2
			c-3.2-1.2-5.3-1.2-7.7,0.8c-11.3,9-21.9,18.5-31.7,29.4c-11.7,13-23.3,26.4-33.1,40.6c-11.6,16.8-24,33.1-33.9,51.4
			c-10.5,19.4-20.2,39.1-29.8,58.9c-9.4,19.2-15.8,39.8-28.2,57.7c-3.9,5.7-7.6,11.2-13.7,15.5c-11-16.6-6.3-35.8-10.6-53.2
			c-0.2-1,0.2-2.4,0.7-3.3c3.5-6.5,2.4-13.5,2-20.3c-0.1-2.6-1.5-5.8-0.4-7.6c4.8-8.1,3.3-17.5,5.7-26.1c2.8-10.4,5.2-21.3,7.9-31.7
			c2.9-11.6,11-22,14.6-34.4c-1.8,0.7-3.3,0.6-4.3,2.6c-3.4,7.1-5.8,15.2-10.8,21c-12.7,14.5-16.7,33.1-25.2,49.5
			c-5.7,11.1-8.4,23.7-12,35.8c-1.8,6.1-2.1,13.1-5,18.2c-5.4,9.9-4.9,20.9-7.7,31.2c-3.3,12.3-2.4,25.9-2.3,38.9
			c0,5.1-4.4,9.4-2.7,14c3.5,9.2,2.4,18.5,2.7,27.9c0.2,8,1,16.1,3,23.9c3.6,14.2,7.5,28.2,13.7,41.6c5.8,12.5,9.8,26.2,17.4,37.5
			c7.9,11.6,17.7,22,26.9,32.7c13.1,15.2,28.7,27.2,43.2,40.6c10.3,9.5,21.2,18.6,33.1,26.2c10.1,6.5,19.6,14.4,30.5,19.3
			c12,5.4,21.9,14,34.1,19.3c9.1,3.9,17.9,9,26.6,14c10.3,5.9,21.6,9.3,31.9,15.3c11.7,6.8,24.1,12.5,36.3,18.6
			c3.3,1.6,6.2,1.3,9.2-1.9c2.8-3,2.7-6.3,1.1-8.6c-11.2-16.9-15.7-37.8-30.4-52.7c-7.4-7.4-13.9-15.7-23.1-21.4
			c-11.9-7.4-23.2-15.7-36.9-19.6c-9.9-2.9-19.8-6.4-29.9-8.2c-8.3-1.5-15.8-4.3-24.4-6.9c3.8-3,6.3-5.4,10.2-6.6
			c12.2-3.7,24.7-6.4,35.8-13.2c6.6-4,6.8-5.8,0.6-11c-9.2-7.7-21.9-7.2-31.6-13.8c-7.4-5.1-15.3-9.4-21.6-16
			c-6.9-7.3-9.4-16.7-14-25.1c-4.7-8.6-5.8-18.5-8.7-27.8c-2.9-9.5-5.8-18.6-2.3-29.7c21.8,7.5,28.9,32.5,49,41.2
			c3.7-2.9,4.1-6.5,4.1-10.5c-0.1-12.2,0.6-24.5-0.4-36.7c-0.6-8.5,0.1-15.8,6.2-22.1c1.9,1.2,3.6,2.4,4.5,4.8
			c5.1,15.2,8.8,31,16.1,45.3c3.4,6.8,5.3,14.3,10.1,20.4c2.2,2.8,4.5,5.4,8,4.7c4-0.8,2.7-4.7,2.5-7.3c-0.6-9-0.2-18.1-0.4-27.1
			c-0.6-26.7,0.1-53.4,0.6-80.1c0.1-3.5-2.1-6.8-0.4-10.3c7.3-14.9,4.2-31.7,8.3-47.4c2.4-9.4,2.8-20.4,6.1-29.2
			c6.6-17.3,8.8-35.6,16.5-52.6c7.1-15.7,12.5-32.4,20.7-47.6c9.7-17.9,19.4-36,33-51.5C1565.1,306.8,1572.4,294.7,1579.4,281.9z
			 M2550.4,1366.7c1.9-1.3,3.7-2,4.4-3.3c6.3-11,11.9-22.4,18.7-33.1c4.9-7.7,3.8-17.9,9.7-24.5c6.7-7.6,6.8-17.3,10.7-25.7
			c3-6.4,5-13.7,7.1-20.7c3-10.1,5.9-20.4,9.1-30.5c3-9.8,3.3-20.3,6.1-29.8c4.5-15.4,8.7-31.3,8.9-46.6
			c0.4-34.3,4.5-68.8-3.8-103.1c-3.1-12.8-7.9-25-13-36.5c-6.4-14.4-15.6-28.3-29.7-37.3c-6.8-4.3-12.9-10.9-20.2-12.7
			c-5.6-1.4-11.8-3.6-15.8-5.9c-11.5-6.6-24-8.2-36.2-10.2c-18.8-3.1-36.9,2.5-54.3,9.6c-11.4,4.7-21.8,11.5-32.8,16.9
			c-15.3,7.6-29.9,16.4-43,27.1c-14.4,11.9-29.3,23.1-43.7,35c-14,11.6-27.2,24.1-42,34.9c-12.8,9.3-25.4,19.2-38.6,27.7
			c-16.1,10.3-33.8,18.4-51.4,25.9c-9.2,3.9-16.9,11.4-27.8,11.7c-5.6,0.1-9.2-0.5-8.8-7c0.1-2.9-0.9-4.5-4.9-3.3
			c-1.3,11.1,1.5,22.9-3.5,34c-2.3,5.1-1.1,11.5-2.7,17c-2.3,8.2-6,15.9-8.3,24.1c-2.9,9.7-7.4,18.7-11.2,28.1
			c-4.4,10.7-11.3,19.8-16.9,29.7c-6.2,10.9-14.9,20.4-24,29.1c-6.9,6.6-13.5,13.7-21.8,18.7c-8.4,5.1-16.2,11.3-25,15.5
			c-15.3,7.3-30.1,15.5-46.3,21.3c-12.9,4.6-25.7,8.1-39,9.6c-6.7,0.8-10.9-3.2-11.5-10.2c-0.2-2.9-0.4-5.2-3.2-7.5
			c-9.5-7.7-15.5-6.6-23.3,3.4c-4.5,5.7-8,13.7-19,7.6c-9.7-5.3-20.9-8.9-31.8-10.6c-19-3-31.2-17-45.4-27c-7.3-5.2-13.5-14-19.4-22
			c-6.5-8.8-15-16-17.6-27.5c-0.5-2.3-2.5-7.1-7.7-6c0.5,5.3,4.1,9.2,5,13.3c2.7,11.5,8.1,21.8,14.4,31
			c12.1,17.5,26.7,32.6,45.3,44.4c16.3,10.3,33.5,16,51.8,19.6c11.3,2.2,16.2,6,15,15.9c-17.6,0-35.4,0.6-53.1-0.3
			c-8.8-0.4-15.8,3.3-22.8,6.8c-10.2,5.1-12.7,37.6-4.8,46.2c8.1,8.8,19,13,29.6,13.1c37.3,0.4,74.6,2.6,111.8-0.8
			c4.3-0.4,9.1-1.2,12.9,0.2c15.8,6.2,31.7-6.7,38.5-18.2c4.9-8.2-0.3-15.9,0.9-23.8c0.5-2.9-0.6-6-3.8-7.2c-2.2-0.8-4.4-0.7-5.9,2
			c-1.4,2.7-2.6,4.4-1.4,8.4c2,6.3,3.3,12.8-2.4,19.8c-6.9,8.4-15.1,5.5-23.1,6.2c-8,0.7-12-5.8-14.2-10.8c-1.9-4.5-2-10.9,1.1-16.8
			c5.4-10.3,14.5-10.8,23.8-11.6c3.4-0.3,5.2-2.7,6-5.5c0.8-2.8,0.4-5.8-3-7.3c-12.8-5.8-37.8,7.5-38.3,21.5
			c-0.3,8.9-3.1,18.2,1.5,26.7c-2.6,1.9-4.4,4.2-7.3,3.5c-8.6-2.2-17.5-1-26.2-1.9c-20.8-2.3-41.9-1.6-62.9-1.1
			c-7.1,0.2-13.5-2.8-20.6-2.2c-2.8,0.2-5.3-2.9-5.4-5.8c-0.5-10.1-2.4-20.6,6.9-28.6c3.8,1.4,7.8,1.5,11.9,1.5
			c23.3-0.1,46.7-0.2,70,0c5.9,0.1,10.6-0.8,13.5-6.5c-3-1.9-4.1-6.5-9-5.8c-4.9,0.7-9.5-1.3-9.1-6.5c0.4-5,5.2-5.9,10-5.8
			c12.5,0.3,24.9,0,37.4,0.6c13.4,0.6,26-3.5,38.2-7.7c14.9-5.2,28.8-12.6,42.3-21.1c14.6-9.2,28.6-19,41.8-29.9
			c9.4-7.8,16-18.2,24-27.1c7.7-8.6,13.8-18.2,20.3-27.3c5.5-7.7,8.2-17.3,11.6-26.4c3.2-8.6,8-17.3,9-26c1.6-13,6.4-25.7,4.8-39.1
			c-0.6-5.1-0.1-10.3-0.1-15.9c14.6-0.2,27.8-0.5,41.4-4.8c14.7-4.6,26.5-14.1,40.6-19.3c4.1-1.5,8.6-3.8,12.5-6.9
			c10.1-7.9,20.5-15.5,31-22.7c9.5-6.5,18.1-14,27.5-20.5c9.5-6.5,17.2-15.8,27-21.7c19.8-12.1,37-27.6,57-39.7
			c20.6-12.4,41.2-23.3,64.6-28.1c15.4-3.2,31.2-8.9,47.1-2.1c6.3,2.7,13.4,0.7,19.5,6.1c3.8,3.3,11,1.9,16.2,5.8
			c2.9,2.1,4.8,5.1,8.3,7c17.6,9.1,26.8,25.1,34.3,42.7c3.3,7.7,3.5,16.6,7.3,23.3c4.4,7.8,4.9,16.9,4.9,23.5
			c0,17.5,2,35.3-0.3,52.8c-0.6,5,2.4,10.2,1,14.5c-4.3,13.8-4.9,28.2-7.6,42.2c-3,16.1-7.7,31.6-12.2,47.2
			c-1.5,5.4-2.2,11-4.6,16.2c-3.5,7.6-8.2,15.1-9.4,23.1c-2,12.6-8.5,23.6-11.4,36c-2.6,11.3-8.8,22-9.3,34.2
			c-0.1,1.9-1.2,3.2-2.7,4.3C2548.2,1360.9,2548.8,1363.1,2550.4,1366.7z M2069.9,224c-3.6,4-6.5,7.4-9.6,10.7
			c-8.4,8.7-13,20.4-22.4,28.4c-10.6,9-19,21.2-32.3,26.6c-11,4.5-21.2,10.8-32.8,14.5c-13.5,4.2-27,10.8-40.6,11.9
			c-18.5,1.4-36.7,5.5-55.6,5.6c-13.7,0.1-27.7-2-41.5,0.4c-7.9,1.3-14.8-3.7-22.8-3.4c-20.6,0.6-41.2,0.4-61.8,0.6
			c-16.2,0.1-32.4-1.1-48.4,4.5c-0.9,5.1,3.2,3.6,6.1,3.4c18.9-1.1,37.5,0.4,55.8,4.9c5.4,1.3,11.1-1,16.3,1.8
			c8.4,4.4,17.8,5.4,26.8,6.9c11.5,1.9,21.7,7,32.8,10c11,2.9,22.1,4.9,33.3,6c5.5,0.5,11.6-0.9,19.2,0c-4.8-10.6-19-7.9-22.8-18
			c22.1-3.2,43.8,3,64.7-3.9c9.1,4.7,17.2-1.7,24.9-3.7c20.1-5.1,39.2-12.6,57.1-24.7c11.2-7.6,20.6-16.4,30.2-25.3
			c11.4-10.6,17.3-25.3,22.4-39.7C2070.4,236.9,2075.8,231.2,2069.9,224z M827.7,1683.1c0.7,5.7,0.2,10.9,5.5,15
			c13.8,10.5,30.2,12.5,46.4,14.4c12.3,1.4,24.4-0.5,36.5-5.1c6.3-2.3,14.2-3.5,19.6-6.8c18.2-11.5,34.8-25,44.4-45.4
			c6.8-14.5,13-29,11.6-45.2c-0.7-7.7-4.2-15.1-5.5-22.8c-1.2-7.1-4.3-13.1-8.5-18.6c-3.3-4.3-9.7-3.3-9.6,1.7
			c0.2,8.2-4,15.5-3.6,23.1c0.3,7.8-1.9,14.4-4.6,20.8c-5.8,14.1-15.3,25.8-26.5,36.3c-8.6,8.2-17.9,15.5-28.1,21.1
			c-9.1,5-18.7,9.4-29.2,12.1c-11.1,2.9-21.1,4.7-31.7-0.5C839.4,1680.8,833.9,1679.8,827.7,1683.1z M1820.3,780.9
			c5.5,0.4,5.9-2.7,5.9-6.2c0.1-6.6-2.1-14.1-0.4-19.7c4.6-15.2,5-31,11.4-46.1c6.6-15.3,15-28.9,26.3-39.9
			c14.2-13.9,31.1-25,46.7-37.5c11.1-8.9,23.8-16.8,32.4-27.8c7.3-9.3,16.1-17.3,23.2-26.9c9.4-12.7,13.9-26.5,19-40.6
			c2.5-6.8-1.5-12.8-2-19.2c-0.6-8.4-3.2-15.9-11.2-21.9c-4,13.6-0.3,27.1-6.1,39.8c-2.6,5.8-5.4,12.4-8.7,17.1
			c-8.9,12.9-19.4,24.6-30.7,35.8c-13.4,13.3-29.1,23.4-43.2,35.6c-15.4,13.3-33,23.5-44.8,41.5c-11.3,17.1-19.2,34.4-20.7,54.6
			c-0.2,3.2-1.4,6.1-1.9,8.9c-1.6,10.4-3.6,21.1,1.1,31.4c1.3,2.8,2.6,6,1.5,9.2C1816.8,773.5,1818.5,777.1,1820.3,780.9z
			 M2051.3,613.8c-5.6-4.4-8.1,1.6-12.2,2.2c-12.5,1.7-21.6,9.6-28.4,19.2c-13.5,19-20.3,41.5-30.4,62.3c-9.6,19.6-19,38.4-38,52.3
			c-21.9,16.1-45.5,26.4-71,34.1c-11.2,3.4-23.7,15-22.3,29.2c0.4,3.9,0.2,7.5,5.2,8.8c-0.1-2.3,2.1-3.3,2.8-5.7
			c2.8-9.5,21.1-23.6,29.2-22.6c5.5,0.7,9.7-1.5,14.6-3c7.3-2.2,14.1-5.6,21.3-7.5c19.9-5.1,37.7-13,49.9-30.4c1.4-2,2.1-5,3.9-6.3
			c9.2-6.7,13.1-17,16.7-26.8c4.2-11.5,12.5-20.9,14.9-33.7c1.1-5.9,5.7-13,8.8-19.3c5.6-11.6,11.8-22.3,20.6-31.9
			C2042.6,628.4,2051.5,623.8,2051.3,613.8z M2017.3,209.7c3.5,4.2,18.6,7.2,23.3,4.7c10.2-5.3,21.6-6.6,31.8-13.5
			c12.2-8.3,22.8-17.4,29.7-29.7c9.8-17.4,13.8-36.7,12.8-57c-0.8-16.7-1.2-33.4,6-49.4c4.4-9.7,9.5-19.4,16.2-26.8
			c7.3-8.1,15.3-16,23.3-23.6c2.4-2.2,2.9-4,1.7-6.6c-10.1-1.9-17.1,4.3-25.2,8.4c-8.5,4.4-14.1,11.1-20.1,17.9
			c-10.6,12.1-16.8,26.7-18.7,41.8c-1.7,13.1-3.6,26.6-2.4,40.2c1.7,18.6-4.2,35-15.6,49.9c-9,11.8-19,23.2-31.7,29.8
			C2038.8,200.6,2028.4,205.1,2017.3,209.7z M1985,248.6c-5.1,0-9.3-1.3-11.8,0.2c-6.9,4.2-14.6,2.6-21.7,3.8
			c-17.5,2.9-34.8-1.2-50.6-9.7c-17.9-9.6-32.9-21.8-36.5-43.8c-0.7-4.3-1.2-7.9-0.7-12.3c1.4-11.1,6-20.3,12.9-28.8
			c7-8.7,14.9-17.1,25-21.2c13.2-5.4,26.8-11,41.8-9.1c1.7,0.2,3.4-0.3,5.2-0.5c-2.5-4.5-2.5-4.9-6.7-4.6
			c-14.7,0.9-29.3-1.4-44.2,4.4c-10.3,4-19.4,9-27.7,15.6c-13.2,10.6-20.6,24.7-26.8,41c-5.4,14.2,0.8,24.8,3.3,36.3
			c1.5,6.8,9.3,12.1,14.2,18.1c8.1,10,20.2,14.2,30.9,19.7c7.1,3.7,15.4,9.1,25.2,5.7c2.5-0.9,6.4,0.6,9,2.1
			c2.3,1.4,4.9,2.2,6.5,1.2c5.6-3.7,11.8-1.7,17.6-2.7C1962,261.8,1974.3,259.2,1985,248.6z M1986,952.5
			c-0.2,13.4-7.1,22.4-17.7,25.9c-13.9,4.6-29.2,4.3-43.1,10c-12.7,5.3-25.8,9.9-33.8,22.4c-5.4,8.5-12.7,13.9-23.4,12.2
			c-4.6-0.8-8.6-3.7-13.8-3.2c-10.4,1.1-20.5,4.4-30.6,5.7c-11.1,1.5-20.4,6-30.4,9.6c-2.5,0.9-6.2,0.7-5.5,5.6
			c15.1,0,30.3,0.1,45.5-0.1c3.1,0,6.5-0.6,9.4-1.7c12-4.6,23.6-6.6,35.1,1.9c6.6,4.9,10.5,3.2,13.5-4.6c2.8-7.1,7.4-12.7,13.3-17.7
			c10.7-9.1,23.5-13.5,36.6-17c15.6-4.1,31.1-7.5,43.9-18.5C1993.4,975.6,1997.9,961.8,1986,952.5z M1969.4,228.3
			c-8.2-2.8-16.8-0.3-25.4-3.2c-15.5-5.1-28.9-18.5-29.3-34.2c-0.4-15.8,12.4-33.8,27.9-38c5-1.3,8-4.4,11.7-6.9
			c-0.9-2.3-2.4-2.4-3.9-2.4c-6.8-0.2-13.3,0.6-20,2.6c-6.8,2-14,3.1-20.4,6.4c-11.4,5.8-17.2,16.1-24.1,26.4
			c-6.9,10.2-5.6,19.6-1.7,27.9c5.3,11.4,14.4,20.5,26.7,26.2c15.5,7.2,31.4,6.1,47.3,4.2C1961.4,236.8,1971,238.3,1969.4,228.3z
			 M1760.3,736.8c2-3.9,3.4-7,2.2-10.7c-2.6-8.4-6.3-16.3-8.9-24.7c-5.3-17.2-12.5-33.7-18.2-50.8c-4.4-13.1-9.8-25.8-13.8-39.1
			c-3.4-11.2-9.2-22.1-13.3-33.1c-8.5-22.9-18.6-45.1-28.1-67.6c-1.1-2.6-1.9-6.5-7.3-4C1691.1,587.8,1723.1,663.3,1760.3,736.8z" />
            <path fill-rule="evenodd" clip-rule="evenodd" d="M2101.1,1.7c5.5,17.9-3.4,30.8-13.7,44.3c-5.6,7.3-11,14-18.8,18.7
			c-16,9.6-31.7,19.6-51.2,21.2c-6.1,0.5-12,2.9-18,4.4c-0.5,0.1-1.1,0.7-1.6,0.6c-12.8-3-24.6,3.7-37.2,4.2
			c-14.9,0.7-30.4-1.9-44.6,1.9c-15.6,4.2-31.3,2.7-46.7,3.8c-16.3,1.2-32.3,3.9-48.1,6.6c-12.6,2.2-24.1,9.5-35.3,16.5
			c-15,9.4-26.2,21.2-33.8,36.8c-4.6,9.3-6.9,19.4-10.5,29.1c-2.4,6.7-5,13.6-10.6,18.2c-6.6-3.2-6.1-8.6-5.8-13.5
			c0.9-13.9-5.5-26.2-8.3-39.4c-0.1-0.5-1.4-0.8-2.8-1.5c-4,7.4-9.1,13.7-12.8,21.7c-6.1,13-10.2,26.9-17.3,39.3
			c-2.2,3.7-2.3,7.2-3.3,10.8c-3.7,13-4.6,26.2-6.3,39.4c-0.4,3.3-1.3,6.3-4.5,6.2c-3.7-0.1-3.2-3.5-3.9-6.8
			c-3.3-15.1-1.7-30.1,1.5-44.5c3.5-16.1,9.4-31.6,17.6-46.5c9.6-17.6,23.4-31.1,35.9-46.1c4.8-5.7,9.8-12.3,10.6-21
			c13.1,10.5,3.5,26,8.6,38.1c4.9,0.8,5.7-3.6,7-6.3c10.7-22.6,28.9-36.7,50.8-47.6c8.8-4.3,18.2-6,26.9-9.4
			c29.5-11.6,60-9.2,90.3-8.5c25.9,0.6,51.9,0.1,77.7-0.6c17.2-0.4,35.6-2.9,50.4-14.9c3.2-2.5,8.2-2.6,11.8-4.7
			c18.7-10.9,32.7-26.2,41.1-46.3c0.6-1.5,2-2.8,3.1-4.1C2099.9,1.7,2100.5,1.7,2101.1,1.7z" />
            <path fill-rule="evenodd" clip-rule="evenodd" d="M1.7,1840.4c5.2-2.1,3.7-7.8,4.8-11.4c5-16.6,14.2-30.2,26.1-42.3
			c2.6-2.6,2.6-7,6.3-9.1c3-1.6,6.2-3.4,8.8-0.8c2.4,2.4,1.6,5.7-0.6,8.7c-6.5,9-14,17.6-18.8,27.5c-4.3,9-9.9,18.6-6.7,30.2
			c7.7,1.8,9.9-4,13-9c7.6-12.1,13.1-25.8,25.9-34c5.7-3.7,12.2-5.1,16.4,0.3c4.1,5.2,8.7,10.4,5.3,19.7
			c-5.9,16.3-19.2,28.4-23.9,44.9c-2.1,7.6-1.9,15.2,4.1,22.3c5.4,6.3,9.2,2.9,11.3-1.1c4-7.9,9.3-15.5,8.6-25.2
			c-0.3-4.2,2.6-7.3,5.1-10.9c7.1,4,10.5,10.8,13.5,17.2c6.1,12.7,17.3,16.1,29.4,18.2c4.5,0.8,9.3,0.4,13.9,0.8
			c6.2,0.6,8.3-5.2,12.5-7.8c3.1-1.9,5.5-5,8.4-7.8c-0.1-25.7-18.4-39.4-36.3-53.3c-8.1-6.3-14.4-13.9-20.6-23.2
			c9.7-0.8,16.4,2.6,23.2,7c9.8,6.3,19.2,13.3,27.7,21.1c11.2,10.2,18.7,22.1,20.6,38.8c1.9,16.9-5.8,26.7-16.8,34.7
			c-11.8,8.4-25,11.9-40.7,6.9c-8.6-2.7-14.4-8.5-22.1-11.7c-6.7-2.8-5.8-10.6-9.9-15.6c-2.1,2.9-2.4,5.6-2.2,8.4
			c0.8,10.3-3.8,18.9-12.5,23.2c-11.8,5.8-26.8-0.1-32.2-12c-5.4-12,0-22.7,4.3-32.6c4.6-10.7,8.5-22.1,15.9-31.6
			c1.6-2,1.2-4.9,0.4-7.5c-11.3,5.7-14.6,17.8-22,26.6c-5.9,7-8.7,15.8-18.1,20.9c-7.9,4.3-11.9,1.3-16.8-2.5
			c-1.8-1.4-2.9-3.6-5.6-3.5C1.7,1856.7,1.7,1848.6,1.7,1840.4z" />
            <path fill-rule="evenodd" clip-rule="evenodd" d="M797.7,1283.5c-3.4,13.2-12.8,23.3-16.7,36.6c9.7,1.1,18.2-3.2,27-4.6
			c10.5-1.6,21.6-3.4,31-7c10.2-3.9,20.8-4.7,31-7.3c12.1-3.1,24.8-5.3,36.8-8.5c10.2-2.7,21.1-3,30.8-7.5c1.7-0.8,3.2-1.1,4.9-1.3
			c20.1-2.3,38.9-9.7,58.9-12.8c15.4-2.4,31.5-4.9,46-11.5c4.6-2.1,9.2-0.9,14.6-2.7c-20-27.4-36.1-56.3-43.4-91.9
			c8.9,5,11.3,12,14.8,17.8c12.5,20.6,26.3,40.2,41.2,59.1c8.6,11,8.3,9.8,22.5,6.2c11.1-2.8,22.4-5.3,33.6-7.6
			c13.9-2.8,27.6-7.1,41.5-9.2c11.3-1.8,22.1-5.4,33.2-7.5c8.9-1.7,18.8-2.4,27.4-7.1c3.3-1.8,8-1.4,12-2.2
			c10.4-2,20.3-6.3,31.3-6.5c3.2,0,8.7-2.1,12.5-4.9c0.1-2.1-0.8-3.5-2.6-4.8c-14.5-10.4-26.9-23.4-39.9-35.4
			c-14.6-13.6-29.2-27.3-43.4-41.4c-8.9-8.9-17.2-17.4-21.3-29.1c-2-5.7-4.5-11.8-3.9-18.1c3.9-1.4,6.4-0.5,8.3,2.3
			c5.4,8,13.7,13.4,18.7,21.8c7.2,12,19.1,20,27.9,30.6c9.1,11.1,20.7,19.6,30.3,30.2c8.3,9,18.9,15.8,28.4,23.7
			c4.2,3.5,8.5,7,12.1,11.2c5.3,6.3,11.2,6.6,17.5,2.5c3.7-2.4,8.4-3.1,11.6-2.7c11.6,1.3,21.6-4.7,32.1-7.1
			c10.1-2.3,20.8-4.5,30.9-6.9c11.7-2.8,24.3-5,35.8-8c10-2.5,21.3-2.2,30.6-8.1c0.7-0.4,1.7-0.4,2.5-0.5
			c12.3-0.9,24.3-4.2,35.7-7.7c10.2-3.1,21.1-2.6,30.9-7.7c5.2-2.7,11.8-2.6,18.7-2.3c-0.8-8.3,1.4-16.1,2.8-23.7
			c2.1-11.4,1.8-23.2,5-34.6c1.8-6.4,2.7-14.3,2.5-21.2c-0.3-10.4,1.5-20.7,3.2-30.3c5.1-29.4,1.3-58.7,2.7-88
			c0.5-9.7-1.4-19-3.1-28.4c-0.6-3.3-2.9-4.4-6.3-4.7c-19.4-2.1-38.1-7.3-57-12c-25.8-6.6-50.7-15.5-75.2-25.8
			c-9.1-3.8-17.5-9.6-26.2-13.9c-7.3-3.6-15.2-6.2-22.1-10.9c-20.9-14-43.8-25.4-62.6-42.3c-11.3-10.1-23.1-19.7-33.1-31.5
			c-11.1-13.2-24.8-24.5-33.9-39.2c-9.7-15.6-20.8-30.3-27.8-47.9c-6.3-16-14.7-31.5-18.3-48.1c-3.3-15.1-9.6-30.2-6.2-46.5
			c0.7-3.2-0.8-6.8-1.5-10.2c-0.3-1.4-1.6-2.9-1.2-4c4.4-13.3,0.9-27.2,3.4-40.8c1.3-7.4,6.8-14.4,4-22.7c-0.4-1.1,0.7-2.7,1.1-4.1
			c6-21.8,13.4-43.4,24.1-63.1c7.9-14.5,14.3-30.4,26.9-42.2c2.5-2.4,4.8-3.4,10.2-4.3c-6.9,9.3-7.8,19.3-12.5,27.7
			c-6,10.7-8.5,22.7-13.5,33.7c-6.3,13.8-7,29-12.4,42.6c-4.3,11-3.1,21.8-4.4,32.6c-0.7,5.6-4.8,10.1-3.7,15.7
			c2.5,12.9-2,26,2.4,39.3c2.1,6.6,1.6,15.6,2.6,23.3c1.1,8.3,4,16.9,6.7,25.2c4.6,14.2,10.7,28,17.3,41.1c5.7,11.3,10.8,24,20.9,33
			c3,2.6,5.2,6.2,7.5,9.5c9.4,13.4,19.7,26.5,31.9,37.2c10,8.8,19.9,17.8,30.3,26.1c14.6,11.6,29.3,23,44.7,33.4
			c10.2,6.9,20.4,14,31.1,20.1c10.6,6.1,21.8,11.2,32.7,16.7c11,5.5,21.8,11.5,33.1,16.4c13,5.7,25.9,11.8,39.9,15.2
			c9.8,2.4,19.2,6.2,28.7,9.6c4.2,1.5,8.8-1.2,13.5,1.8c-1.4-5.2-2.9-10.5-4.3-15.7c8.7,5.9,12.1,16.4,21.5,22.1
			c-3,2.9-0.7,5.2,0,8.2c2.7,12.6,9.2,23.9,10,37.7c0.7,11.2,2.3,22.8,1.9,34.1c-0.6,17.9,0.4,36.2-2.5,53.7
			c-2.6,15.7-2.4,31.8-6.9,47.6c-3.9,13.4-2.2,28.4-3.2,45.2c56.5-11.9,111.7-25.7,168.2-38.5c-4.2-6.6-9.4-10.3-14.3-14.6
			c-11.5-10.1-22.6-20.6-32.9-32.1c-9.2-10.3-19.6-19.6-29.7-29.1c-5.5-5.1-10.3-11.1-14.4-16.9c-12.4-17.6-28.7-32.2-39.2-51.1
			c-9.5-17.1-21.7-32.6-30.1-50.5c-5.2-11.1-13.1-21-19.2-31.7c-6.1-10.8-10.9-22.5-17.3-33.1c-5.6-9.2-9.4-19.5-13.2-29.1
			c-4.2-10.7-11-17.6-17.9-25.5c-7.4-8.5-17.7-10.2-27.2-12.4c-13.6-3.1-27.3-6.4-42.8-7.1c6.1-8.2,14.2-7.9,20.9-8.6
			c18.4-2,36.3,1.3,53.6,8.5c20.8,8.7,37.4,22.7,53.7,37.8c6.1,5.6,13.6,9.7,22.2,12.9c32.1,11.9,65.4,7.8,98.1,9
			c13.6,0.5,24.1,5.4,36.1,9.8c14.6,5.3,21.5,16.3,30.4,26.5c0.7,0.8,0.7,2,1.2,3.3c-4.4,3.7-8.1,0.6-11.1-1.1
			c-10.5-6.1-22.6-7.8-33.5-12.8c-20.7-9.5-42.4-3.5-63.5-5c-5.5-0.4-9.9,3.5-15.6,3.7c-20.8,1-39.9-3.8-58.8-12.4
			c-8.3-3.8-14.6-10.2-22.7-14.1c-1.7-0.8-3.2-1.1-5-0.5c-1.5,2.4-1.4,5.1-0.1,7.4c8.8,15.4,16.8,31.4,26.8,46
			c12.8,18.6,27.8,35.7,40.9,54.2c13.8,19.5,30.2,36.7,45.2,55.1c23.8,29.2,51.5,54.9,78.5,81.1c9.1,8.9,19.4,16.2,28.6,24.8
			c1.4,1.3,2.7,2.8,4.4,1.9c11.8-6.8,25.7-5.9,38.2-10.2c1.6-0.5,3.2-1.3,4.7-1.9c2.3-8.3-3.4-11.5-9.2-14.5
			c-4.5-2.3-4.6-2.2-4.3-8.5c4.8-0.7,9.2-1.5,13.7,2.1c2.1,1.7,5.7,1.9,9.2,1.3c6.5-1,13,0.8,19.5,1.7c8.2,1.2,17.1,0.8,25.6,0.2
			c28.1-1.8,52.2-14.5,73.3-31.9c10.4-8.6,22-16.4,30.5-27.4c1-1.3,2.6-0.9,4.7-0.3c1.5,13.9-11.6,25.8-5.7,40.9
			c7,2.7,15.3-1,21.1-3.1c8.7-3.2,17.7-3.5,26.2-6.7c9.5-3.6,19.7-4.8,29.5-8c7.5-2.4,15.7-5,23.4-5.5c12.7-0.9,17-8.9,21-18.3
			c7.1-16.7,15.4-33.1,20.4-50.4c2.8-9.8,6.9-19.6,7.7-29.9c0.3-3.9,2.2-6.3,5.3-8.7c6,7,3.9,15.1,3,22.5c-1.5,12.5-4,25-6.5,37.4
			c-2.4,12.1-7.5,23.4-12.8,34.5c-2.2,4.5-2.8,6.4,2.1,8.6c5.3,2.4,8,7.2,6.7,12.6c-1.2,5.4-5.4,7.7-11.5,7.9
			c-9.3,0.3-15.9,5.9-19.7,14.3c-7.4,16.3-21.2,27.5-32.9,40.2c-11.9,12.9-25.4,24.9-40.9,33.4c-11.2,6.2-21.3,15.2-34.9,16.4
			c-1.4,0.1-2.6,1.9-5.4,4.1c0.4-7.1,5.4-8.8,8.3-11.7c8.6-8.7,18.6-15.6,28-23.4c20.7-17.1,37.6-37.4,53.2-59
			c0.6-0.9,1.5-1.7,3.2-3.6c-90.3,20.9-179.6,41.6-270.7,62.6c45.5,30.7,94.6,43.1,146.9,51.2c-4.3,3.5-7.9,3.8-11.4,3.8
			c-17.6-0.1-35.6,1.7-52.8-2.1c-17.9-4-36.2-6.6-52.9-15.5c-6.7-3.6-15.4-3.7-21.6-8.8c-9.7-7.9-22.8-10-31.6-19.3
			c-3.3-3.5-10.5-3.6-13-2c-9.8,6.4-21.4,6.1-31.8,8.3c-11.8,2.5-24,5.7-35.9,8c-9.9,2-21.2,2.5-30.8,8.1c-3.2,1.8-8,3.4-12.6,1.6
			c-4.2-1.7-6.8,3.5-9.9,3.7c-12,0.5-23,5.1-34.4,7.8c-11.3,2.7-23.5,2.3-33.9,8.3c-4.1,2.4-9.6,21.9-6.7,25.4
			c5.2,6.5,11.6,1,13.9-1.9c14.4-18.2,36.1-22.7,55.9-29.3c16.2-5.4,34.2-3.1,51.5-2.8c11.5,0.2,23-0.2,33.6,5.2
			c1.7,0.8,1.8,0.7,4.1,4.9c-12.9,0-25.6,0.3-38.3-0.2c-4.5-0.2-8.4,0-12.4,2.2c-5.6,3.2-12.3,0-18.4,3.4c-8,4.5-17.6,5.9-26.4,8.4
			c-13.9,3.9-25.5,11.8-36.4,19.3c-14.1,9.7-25.8,23.1-24.3,43.9c0.8,10.6,2.7,19.9,7.2,29.4c3.3,6.9,9.5,5.8,14.5,7.2
			c4.1,1.1,5.8-2.6,7.3-6.6c1.4-3.5,4.8-6.7,8-8.9c10.2-7.1,19.3-15.4,29-23.1c2.9-2.3,6.6-2.7,10.7-0.7c0-6.3,2.1-9.4,8.3-11.2
			c9-2.6,16.4-9,25.4-12.3c12.4-4.6,36.6-1.3,45.9,7.9c3.5,3.4,4.4,15.9,2,20.7c-6.9,13.4-17.5,23.2-29.4,32
			c-7.3,5.5-13.2,12.8-20.5,18.3c-11.7,8.8-23.8,17.1-36.1,25.1c-13.2,8.7-22.9,21-33.4,32.4c-6.1,6.6-12,13.3-12.3,23.3
			c-0.3,10.7,8.3,20.1,19.3,21.1c15.8,1.4,30-3.5,44.7-8.4c8.2-2.7,17.2-5.2,25.5-7.5c9.8-2.8,20-4.5,29.9-7
			c10.4-2.6,21.7-3.2,32.3-0.2c3,0.8,5.9,1.9,8.9,2c9.8,0.2,17.9,4.9,26.6,8.6c7.1,3,13,7,18.6,12.6c-6.9,0.5-12.8-2.7-19.1-3.9
			c-6.6-1.2-12.8-4-20.2-3.8c-10.6,0.3-21.4-0.3-32.1,0.5c-13,0.9-26,2.5-38.2,6.5c-13.7,4.5-28.2,6.5-41.4,11.1
			c-15.2,5.2-29.9,5.4-44.8,4.8c-8.8-0.3-18.4-2.2-25.3-9.4c-6.5-6.8-8.9-20.7-6.1-29.5c8.4-25.6,23.4-46.1,45.6-61.1
			c15.6-10.5,31.5-20.6,48-29.9c14.2-8,28.1-16.8,38.5-29.9c3.6-4.5-2-16.7-8.9-17.9c-7.2-1.2-15.3-4.1-21.5,3.1
			c-3,3.4-6-0.1-9.3,0.4c-1.4,2.6-1.9,6.1-5.9,7.3c-11.3,3.4-16.1,17.7-29.5,17.5c-4.7,8.2-12.2,13.8-19.5,19.1
			c-10.1,7.2-15.3,17.5-21.3,27.5c-3.3,5.5-8.9,5.3-12.9,0.1c-7-9-12.2-18.9-16.7-29.5c-3.9-9-7.3-18.3-8.8-27.7
			c-2.5-15-6-29.8-5.5-45.5c0.4-12.6,4.5-24.7,3.7-38.4c-72.2,16.8-143.7,33.3-217.5,50.4c16.4,11.4,27.4,24.9,38.8,37.5
			c12.7,14.1,26.3,27.6,36.7,44.1c6.7,10.5,17.2,19.2,23.2,30.4c4.4,8.1,8.4,17.2,13.7,24c5.8,7.3,6.2,17.7,14.6,23.2
			c2.8,1.8,3.3,6.5,4.7,9.8c6.1,14,18.6,23.7,23.8,38.7c4.2,12.2,14.9,17,26.8,10.8c4-2.1,7.3-2.6,11.1,0.2c4,3,9.1,0.6,13.3,1.9
			c18.3,5.6,31.8,16.6,42,33.4c6.1,10.1,10.5,20.5,13.3,31.4c2.5,9.6,4.4,19.9,2.5,30.2c-1.9,10.2-3.3,11.4-16.7,13.5
			c-2,4.2,0.8,7,2.9,10c8,11.5,19.4,19.4,30.1,28.1c16.1,13,33.8,23.4,51.3,34.2c16.3,10,34.3,16.5,50.5,26.4
			c8.1,4.9,17.6,5.2,26.3,7.9c10.3,3.2,20.3,9.5,30.7,9.8c11,0.2,19.9,5.4,29.6,8.3c13,3.9,26.4,7,39.3,11.5
			c10.1,3.6,21.4,6.3,32,9.4c13.2,3.8,26.4,8.9,39.5,13.6c21.2,7.6,41.6,17,62.3,25.6c6.3,2.6,11.6,7.2,17.7,10.3
			c12.9,6.6,24,0.6,33.1-7.5c9.5-8.4,19.7-15.9,29.7-23.4c17.8-13.2,32.7-29.5,50.3-42.6c13.2-9.9,21.2-24.4,34.1-34.4
			c4.9-3.8,6.9-10.2,10.5-15.3c10.1-14.1,21.1-27.5,32.3-40.6c13.3-15.6,24.9-32.3,36.7-49c8.5-12.2,16-24.8,23.7-39.5
			c-6.4,4.3-12.8,4.4-18.2,8.3c-8.1,5.7-19.1,5.8-24.6,1.1c-0.4-4.5,4.6-6.3,6.3-7.1c12.4-5.7,22.4-15.9,37-18
			c6.5-0.9,15.1-3.8,15.8-13.8c0.3-4.3,6-6.2,5.7-11.1c-19,4.5-37.7,9-56.4,13.4c-0.2-0.8-0.5-1.6-0.7-2.4
			c11.6-9,24.7-15.3,38.5-20.4c7.3-2.7,13.7-6.9,22-8.3c9.5-1.6,12.9-12,15.8-20.2c4.2-11.8,11.1-22.4,15.1-34
			c3.7-10.7,9.5-20.4,12.1-31.7c2.3-10.4,7.9-20.2,12.3-30.1c3.6-7.9,4.4-16.4,7.8-24.3c6.2-14.6,9.5-30.4,16.2-45
			c2.6-5.7,4.4-12.8,4.8-19.3c0.5-8,3.4-15.2,6-22.3c2.2-6,2.9-12.3,4.8-18.3c4.4-13.6,8.7-27.3,13.1-41c0.9,0.1,1.7,0.2,2.6,0.3
			c0,8.6,0.6,17.3-0.1,25.8c-1.4,15.2-4.2,30.3-7.7,45c-3.6,15.2-5.2,30.9-9.8,45.8c-4.7,15.1-8.2,30.5-13.5,45.4
			c-2.1,6-4.1,13.1-5.8,19.7c-2.3,8.9-4.1,18.1-9.4,25.9c-2.9,4.2-3.2,9.4-5.1,14c-2.1,5-3.5,10.7-6.3,15.4
			c-6.6,10.9-7.9,24-14.3,35.6c9.6,2.2,18.7-2.4,28.2-3c1.2-0.1,2.8-1.7,4.6-1.8c26.2-1.2,52.5-4.3,78.6,0.1c28.2,4.7,56,11.7,80,28
			c11.5,7.8,23.6,16.1,29.5,29.7c8.3,19,10.9,38.8,7.7,59.3c-0.1,0.9-0.2,1.9-0.8,2.5c-2.8,3-2,9.5-7,9.6c-5.3,0.1-5.8-5.5-7.1-9.6
			c-9.3-28-28-48.9-53.6-61.9c-10.4-5.3-21.7-10.3-33.6-13.7c-11.3-3.3-22.9-5.5-34.2-8.6c-7.2-2-15.2-3.8-23.2-2.3
			c-5.4,1-9.9-1.9-14.9-3.2c-7.4-2-15,0-22.5-0.2c-11-0.2-22.1-1.1-32.9,0.3c-6.3,0.8-15.6,0.3-16.7,10.8c-0.4,3.4-6,4.3-4.1,9.7
			c7.8-0.9,16.1,1.7,24.1-2.6c1.9-1,4.6-0.6,6.9-0.6c16.9-0.1,33.9-1.2,50.7,0.1c14.8,1.2,29.5,4.4,44.2,7.6
			c12.1,2.6,23,7.9,33.3,12.6c26.6,12.1,50.3,29.8,59.9,59c4.9,14.8,11,29.7,10.9,45.6c10,3.4,15.9-3.6,20.2-8.3
			c9.8-10.8,16.6-23.9,23.2-37.1c3.8-7.7,4.1-16.2,8.7-23.6c3.3-5.4,3-13.7,3.2-19.9c0.8-23-3-45.4-15.1-66.2
			c-10.3-17.8-22.3-33.4-36.8-48c-15.8-15.9-34.3-27.3-53.8-37.2c-7-3.6-14.2-8.9-23-8.4c-5.1,0.3-7.3-8.3-13.4-4.1
			c-1.1-2.3-0.9-4.8,1-4.6c12.4,0.8,24.8,3,36.1,7.7c5.5,2.3,11.6,4,17.1,6.1c20.6,8.1,38.4,20.4,55.9,33.2
			c9.6,7.1,17.9,16.3,23.6,27c3.4,6.5,9.1,11.1,11.8,18.3c4.6,12.1,10.5,23.3,13,36.6c1.5,7.6,0.5,16.1,4.6,24
			c2.6,4.9,2.3,12.7-1.4,19.2c-3.8,6.5-0.4,14.5-3,21.8c-7.9,22.7-17.2,44.1-33.1,63c-12.4,14.7-26.4,26.6-41.6,37.9
			c-5.4,4-12.6,1.5-17.6,7c-2.2,2.4-6.1-1.7-7-4.6c-1.6-5.2-3.3-11-1.3-16.3c5.3-13.9,3.9-27.9,0.8-41.5
			c-3.7-16.4-9.3-32.1-20.6-45.4c-13.2-15.5-29.3-25.4-48.3-32.7c-10.7-4.1-21.8-5-32.4-9c-8.9-3.3-19.7-1.9-29.7-2.6
			c-11.8-0.8-23.9,1.4-35.6-1c-7.1-1.4-12.7,5.1-19.3,2.8c-10-3.5-18.5,4.5-28.3,3c-3.2-0.5-3.8,3.9-5.3,6.2
			c-11.2,17.5-22.6,34.8-34.4,51.9c-10.4,15.2-21.8,29.6-32.6,44.4c-5.3,7.3-11.8,13.9-17.2,21c-5.2,7-11.4,12.9-16.5,20
			c-6.9,9.7-16.2,17.4-24.8,25.6c-19.1,18.3-37.1,38.1-58.4,54c-14.7,11-28.9,22.6-45,31.8c-5.2,3-11.5,4.7-15.6,9.7
			c-4.2,5.1-6.2,10-0.5,15.5c4.3,4.2,9.3,6.8,14.7,9.4c12.2,5.8,20.7,15.8,26.5,27.9c1,2,4.1,2.7,3.2,5.7c-2.5,2.4-4.9,1.3-6.8-0.6
			c-13.4-13.9-31-21.5-47.1-31.2c-17-10.2-35-18.6-52.8-27.4c-12.5-6.2-24.8-12.7-37.4-18.7c-6.7-3.2-14.1-2.8-20.6-6.8
			c-12.7-7.8-27.8-10-41.6-15.2c-6.5-2.5-13.8-3.3-20.7-5.2c-13.8-3.8-27.7-8.1-41.4-12.1c-15-4.4-30.7-6.5-45.1-14.2
			c-10.6-5.6-23.4-6.8-34.6-11.6c-17.7-7.5-37.1-11.5-53.5-21.7c-15.5-9.6-31.7-18.2-46.3-29.6c-13.7-10.8-29.5-19.3-40.1-33.3
			c-7.9-10.5-14.6-21.4-26-28.6c-8.5-5.4-16.9-4.4-24.9-0.9c-18.3,8-33.2,21.3-45.5,36.4c-6.6,8.1-13.2,17-18.4,26.5
			c-4.2,7.5-10.1,13.8-16.8,20c0-43.7,34.2-92.2,86.1-94c4.3-10.2-4.1-22.1-15-21.6c-1.4,0.1-2.9,0.1-4.4-0.1
			c-11.6-1.9-19.9,4-28.7,10.6c-18.1,13.6-29.4,32.5-39.6,51.5c-6.7,12.4-14.2,25.1-17.2,39.4c-0.3,1.3-1.4,2.4-2.2,3.8
			c-3.9-0.9-5.1-2-5.8-6.7c-1.3-9,0-17.8,0.3-26.6c0.3-9.5,1.2-20,5.6-28.1c6.4-11.8,9.6-25.1,18.2-36c9.5-12.2,20.2-22.8,33.4-30.4
			c4.3-2.5,10.1-2.6,15.2-3.4c7.3-1.2,8.7-6.3,6.4-13.1c-3.1-8.8-10.1-11.8-17.3-14.4c-7.4-2.6-14.1,0.3-20.6,4.5
			c-4.1,2.7-9.1,4.3-13.6,6.5c-15.8,7.6-27.2,19.6-35.7,34.3c-8.6,14.7-16.7,30.2-19.7,46.8c-3.1,17.1-8.5,33.9-7.4,51.8
			c-4.3,1.3-8,1.6-8.6-3.1c-1.6-11.6-6.2-22.8-5.1-34.6c0.9-9.4,2.1-18.7,4.9-28.2c3.5-11.7,6.7-23.8,12.8-34.1
			c7-11.8,14.3-23.9,25.8-32.7c9.4-7.2,17.1-16.3,27.5-22.6c6.8-4.1,14.6-1.4,21.2-6.2c6.7-4.8,9.9-11.7,5-18.6
			c-7.1-10.1-15.6-19.5-20.1-31.1c-5.7-14.5-15.2-26.7-22.9-39.9c-10.4-17.9-22.9-34.8-35.3-51.5c-11.1-15-24.1-28.3-36.2-42.3
			c-9.4-10.9-20.4-21.3-31.8-30.7c-4.5-3.7-7.6-10.8-14.7-8.4c-8.1,2.8-16.8,3.5-24.5,6.2c-5.4,1.9-11,1.5-16.4,3.5
			c-12.5,4.6-26,6.4-39.2,9.2c-11.2,2.3-22.1,6.3-33.7,6.1c-4.2-0.1-5.1,4.9-9.7,4.8c-12.2-0.4-23.4,5.2-35.6,6.7
			c-11.2,1.4-23.4,4-34,9.4c-3.8,1.9-7.9-1.7-12.1,1.9c13.2,8.7,25.3,17.7,37.8,26c10.2,6.8,21.5,10.1,32.3,13.9
			c8.9,3.1,18.7,6.6,29,6.4c18.4-0.4,20.3,3,22,21c0.7,8.1,3.7,16.6,6.1,24.6c3.1,10.2,4.9,20.8,9.7,30.7
			c7.4,15.6,15.2,30.9,26.4,44.1c12.1,14.3,28.3,22.8,43.9,32.6c10.8,6.8,22.6,10.2,33.8,13.5c8.4,2.5,16.7,9.2,26.7,6.8
			c1.7-0.4,4,0.9,4.4,4c-7.1,6.6-15.6,4.6-24,3.2c-1-0.2-1.9-1.9-2.8-1.8c-17.6,1.1-33.3-6.1-49.7-10.5c-12-3.3-21.4-10-31.2-16.6
			c-23.8-16.2-40.3-38.8-50.4-65.2c-5-13.2-8.5-27.7-8.4-42.4c0.1-10-14.8-27.8-24.8-28.2c-22.3-1-40.8-12.1-58.8-22.9
			c-12.4-7.4-25.5-14.9-35.3-26.3c-4.4-5.1-10.1-6.5-16.8-5.2c-17.7,3.3-35.2,7.2-52.8,11.4c-9.5,2.3-18.9,5.8-29,6.8
			c-8.1,0.8-17.2,2.5-24.9,6.6c-4.7,2.5-10,1.6-14.9,2.6c-18.8,4-37.6,8.5-56.6,11.8c-18,3.1-37.4,4.6-53.7,16.7
			c6.4,5.8,2.8,10.3-2.5,13.8c-4,2.7-10.9,1.6-12.4,7.4c-2,7.7-0.3,15.5,2.4,22.9c4.4,12.4,12.5,22.8,19,34
			c4.3,7.5,11.8,13.2,17.9,19.7c1,1,2.6,1.7,3,2.8c4.4,11.3,16.3,16.5,21.9,26.8c6.7,12.1,15.1,23.4,14.2,38.6
			c-0.7,12.8,6.1,16.6,17.5,9.9c11.5-6.8,22.6-8.6,36.3-5.1c24.6,6.3,44.3,19.2,58.1,39.6c14.3,21.2,23,45.3,18.7,71.4
			c-1.9,11.6-2.8,24.1-11,34.4c-5.2,6.5-7,15-11.8,22.4c-13.5,20.6-32.3,34.2-52.8,46.4c-9.8,5.8-20.6,8.4-31.1,12.3
			c-15.4,5.6-30.9,7.4-46.7,8.6c-3.6,0.3-7.9,0.4-8.9-5.7c5.3-2.5,10.9-4.4,16.9-5.6c5-1,10.6-0.7,15-5c2.7-2.6,7.8-1.8,11.2-3.2
			c17.4-7.1,34-15.7,49.1-27.4c8.2-6.4,14.3-14.4,22.1-21c5.6-4.7,8.2-12.1,10.3-17.9c5-14.2,11.8-27.9,12.3-43.8
			c0.9-27.4-8.8-49.2-28.1-68.2c-9.5-9.3-21.7-12.2-32.6-18.2c-6.8-3.8-15,3.8-15.3,11.8c-0.5,12.2,1.5,24.5-2.1,36.8
			c-5.2,17.4-17.1,30.1-29.3,42.2c-13.8,13.7-30.7,23.9-48.4,31.5c-13,5.6-26.7,10.2-41.3,12.7c-7.9,1.3-13.8-2.6-20.8-1.9
			c-3,0.3-5.4-4.9-6.5-8.1c-2.7-7.9-9.5-8.9-14.7-6.6c-15.2,6.9-30.9,5.3-46.5,4.6c-17.4-0.8-34.2-4-51.1-10.4
			c-28.6-10.8-49-29.5-66.7-53.7c-11.8-16.1-23.5-32.5-35.9-48.3c-11.3-14.4-23.6-28.2-34.1-43.4c-10-14.5-22.9-27.2-35.8-39.3
			c-13.9-13.1-30.2-23.9-48.4-29.3c-8.4-2.5-18.9-3-29.1,1.5c-9.2,4.1-20.2,5.6-30.6,7.3c-14.8,2.4-28.9,7.9-43.7,9.8
			c-11,1.4-21.4,5.1-32.1,7.2c-8.6,1.7-17.8,2.5-26,6.8c-4.3,2.3-9.9,2.6-14.5,2.7c-10.2,0.3-19.2,4.7-28.7,7
			c-6.1,1.5-12.4,1.8-18.5,3.4c-15.1,4.1-30.5,7.2-45.7,11c-3.7,0.9-4.5,3.2-3.8,6.5c3,14.2-0.6,28.5-5.9,40.3
			c-6.8,15-5.8,29.9-5.3,44.5c0.4,10.3,0.5,21.2,3.8,32c3.4,11,5,22.8,10.8,32.9c8.9,15.4,20.8,28.3,35.4,39
			c14.6,10.7,29.8,20.7,43.7,32.4c9.8,8.2,21.7,14.3,29.9,24.3c11,13.4,26.8,22.2,35.4,37.7c7.1,12.9,16.6,24.9,15.7,41.1
			c-0.6,10.2-0.1,20.4-0.1,30.6c0,8.8,4.7,13.9,13.4,14c13.6,0.2,24.2,7.2,33.6,15.8c13.1,12.1,23.7,26.9,29.5,43.4
			c4.1,11.8,10.2,24.2,5.1,38.7c-3.3,9.4-3.9,19.3-10.9,27.6c-2.6,3.2-4.7,4.3-8.3,4.6c-8.5,0.7-17.2,1.7-24.4,6.1
			c-16.3,9.9-42-5.2-49.4-18.2c-6.8-11.9-9.7-24.1-7.7-37.9c-7.3-1.4-9.5,4.6-12.1,8c-6.4,8.5-15.5,13.2-24.4,16.6
			c-14.7,5.6-26.6-5.7-27.4-23.6c-1.2-28,15-46.1,35-64.2c2.1,11.7-0.6,19.7-7.3,27.8c-9.1,10.9-15.4,23.5-12.5,38.6
			c12.1,3.7,20.2-3.5,28.4-9.5c12.7-9.3,20-23.6,31.8-34.2c2.1-0.4,3.3,2.9,3.3,3c-3.2,10.4,0.5,21-0.9,31.4
			c-1.6,11.7,8.7,39.7,23.9,45c13.5,4.8,25.1,6.7,36.7-2.8c10.6-8.7,10-21.4,7-31.9c-3.3-11.5-4.9-23.7-9.9-34.7
			c-5.7-12.6-13-26-25.2-31.5c-8.9-4-19.2-8.7-30.8-7.8c-7.6,0.6-9.8-8.6-10.2-14.6c-0.8-13.3,1.2-26.9-0.1-40.1
			c-0.7-6.8-1.2-13.9-4.5-21.2c-8.8-19.3-25.9-30.1-39.5-44.5c-14.8-15.7-33.3-26.3-50.2-38.7c-10.7-7.9-23-14.3-34.3-21.9
			c-20-13.4-37.3-28.7-41.9-54.7c-2.5-13.8-4.8-27.2-4.3-41.2c0.3-9.3-0.9-18.6,0.4-27.9c0.4-2.9-3.5-4.8-4.5-3c-2.5,4.7-7.8,5-11,9
			c-12.8,15.8-25.3,31.8-38.1,47.6c-10.6,13.2-21.7,26.2-30.1,40.6c-11,18.8-15.6,40.2-14.1,62.3c0.7,10.6,1.8,21.2,2.5,31.9
			c0.3,4.3,5,7.2,3.6,12.1c-0.6,2.1,0.2,4.9-3.1,5.3c-2.5,0.3-3.6-1.3-4.4-3.3c-5.5-13.3-14.9-25.5-11.7-41.2
			c0.9-4.4-3.4-7.1-3.1-11.4c2.5-28.7,7.5-56.8,24.7-80.7c11.5-16,24.9-30.6,38.9-44.6c11.1-11.1,21.2-23.5,30.8-35.7
			c12.1-15.4,24.9-31.2,30-51.3c1.2-5,2.4-9.7-1.8-12.6c-4.3-3-10.1-2.2-14.6,0c-10,4.8-20.7,6.8-31.3,8.7c-3.6,0.6-4.4,3.9-7.7,4.2
			c-7.6,0.7-11.6-3.1-12.8-13.1c-0.6-4.9,6.1-10.4,13-10.6c13.2-0.4,14.2-4.1,9.1-16.2c-3.2-7.5-9.3-16.4-2.5-25.7
			c1.1-1.5,0.9-3.9,1.2-5.9c1.8-10.5,9.1-14,18.9-9.8c3.2,1.4,7.3,2.2,11.5,0.6c0.1-1.2,0.7-2.8,0.3-3.9
			c-4.6-11.8,0.6-27.9,11.4-33.1c3.9-1.9,8.5-1.4,12,2.3c9.4,9.7,8.5,25.1-2.2,33.8c-12.3,10-13.2,16.6-7.2,30.4
			c3.9,8.9,9.9,12.1,18.8,12.5c4.2,0.2,6.8-3.5,10.1-4c13.4-2.1,25.8-7.9,39-10.4c15.3-3,30.2-7.9,45.4-10.1
			c13.4-1.9,25.8-7.7,39.6-8.3c7.8-0.3,15.8-3,23.2-5.8c6.8-2.6,14.2-1.5,20.9-4.3c9.3-4,20-2.1,29.1-8.5
			c5.5-3.9,6.1-10.6,11.7-14.1c2.4-1.5,3.9-4.2,7.3-2.8c5.3,2.1,7.7-3.8,12.4-4.5c6.4-0.9,12.3,1.6,17.8,2.6
			c12.4,2.2,24.7,1.1,36.7,0.5c9-0.4,18.6-2.7,27-7.3c3.8-2.1,8.3-1.1,12.1-1.7c9.4-1.5,18.2-5.2,27.7-6.4
			c8.9-1.1,19.5-2.8,28.2-7.8c1.2-0.7,2.8-0.8,4.2-0.9c12.1-0.3,23.5-4.7,34.9-7.6c12.4-3.1,25.1-5.1,37.5-8.5
			c10.6-2.9,21.6-5.3,32.6-7.1c9.1-1.5,19.2-2.2,27.5-8.3c7.3-5.4,8.5-11.1,2.3-18c-13.1-14.7-28.5-27-45.6-36.3
			c-8.1-4.4-17.9-7.2-26.6-10.9c-9.8-4.1-20.2-6.1-30-9.6c-9.4-3.4-20.3-4.2-30.3-7.8c-12.6-4.4-24.8-9.7-37-15.2
			c-0.8-0.4-1.1-1.8-2-3.5c10.5-0.6,19.4,1.8,28.6,3.8c9.7,2.1,19.3,4.6,29,6.7c14.2,3.1,28.1,7.5,42.1,11.8
			c16,4.8,30.4,12.9,43.6,22c15,10.4,31.4,19.9,41,37.2c5.7,10.2,15.8,15,28.2,12.8c10.8-1.9,14.9-10.4,18.8-19
			c5.2-11.8,12.4-21.7,24.2-27.5C793.9,1282.3,795.4,1282,797.7,1283.5z M494.8,1414.6c10.2,9.9,20.4,19.3,30,29.3
			c11.4,11.8,22.5,24,33.5,36.2c10.5,11.6,20.9,23.3,29.5,36.1c13,19.3,26.3,38.5,39.5,57.7c3.5,5.1,10,6.5,11.8,12.6
			c1.5,5.2,5.4,8.4,9.4,11.8c11.5,9.6,23.4,18.6,36.1,26.5c8.3,5.1,18.2,8.1,26.9,9.3c11.4,1.6,23.8,1.1,35.6-0.3
			c7.1-0.9,13.9-4.3,20.9-6.7c8.1-2.8,16.2-5.5,24.7-1.7c7,3.2,2.7,9.8,3.8,14.7c1,4.2,1.2,6.9,7.3,6.8c10.1-0.2,18.9-3.3,28.2-6.6
			c17.8-6.3,34.9-13.2,49.6-25.3c8.4-6.9,16.8-13.9,23.3-22.7c7.6-10.3,11-22.3,14.8-34.2c2.4-7.5-1.3-13.5-5.9-17.7
			c-4.2-3.8-8.4,0.7-12.6,3.6c-6.4,4.4-11,13.2-20.9,11c-2.6-4.9-2.7-9.4,0.7-13.8c11.2-14.5,9.9-31.2,5.6-46.9
			c-4.9-17.8-20.6-29.4-30.3-44.6c-1.9-3-6.1-1.6-7.8-5c-5-10.3-14.5-16.9-21.7-25.4c-10.1-12-21.6-22.7-29.1-37
			c-2-3.8,1.1-6.6-1.4-10.3c-3.8-5.5-3.1-11.9,1.4-18.2c3.3-4.6,5.5-10.6,3.4-17.8c-4.6,2.6-8.3,4.2-12.8,4.3
			c-6.3,0.1-18.1,13.4-17.7,19.7c0.7,10.1-2.9,19.4-3.8,29.2c-1.5,17.2-1.5,34.3,1.9,51.1c2.4,11.9,1.1,17.6-8.8,24.1
			c-11.9,7.8-18.5,19.7-23.2,32.6c-5.3,14.5-5.8,30.6-14.3,44.3c-3.1-0.8-5.6-2.8-4.8-6c3.4-14.4-1.1-28.9,2.4-43.7
			c4.1-17.5,13.3-30.5,26.6-41.1c6.9-5.5,10-10.7,7.3-18.7c-2.2-6.4-3.9-13.3-4.4-19.5c-1.3-14.7-0.5-29.6,4.8-44
			c3.1-8.3-1.7-16.5-8.9-15.2c-4.9,0.9-11.5-0.1-14.2,2.5c-8.5,7.8-19.4,4.7-28.8,8.2c-13.9,5.2-29.2,6.8-43.9,10.4
			c-10.5,2.6-21.5,3.8-31.9,7.5c-3.5,1.2-7.3-2.4-10.1,0.1c-5.5,4.9-12.4,4.7-18.7,5.2c-10.6,0.8-21.1,3.3-30.5,6.7
			c-9.3,3.3-19,4.1-28.3,6.7c-11.3,3.2-23.3,5.4-35.1,7.2C498.5,1408.3,497,1410.1,494.8,1414.6z M1528.8,1484c3.5,0,5.2-0.2,7,0
			c11.6,1.6,23.1,9.5,24.4,17.8c1.2,7.7,0.4,15.7,0.1,23.6c-0.1,3.3-2.4,7.3,2.5,8.7c4.9,1.4,9.9,2.9,14.7-1.2
			c6.3-5.4,2.5-10.7,1.2-16.8c-4.7-21.3-13.4-39.8-34-49.4c-8.9-4.1-18.3-9-29.3-6.1c-5.1,1.4-9.4,5.1-6.3,8.5
			C1514.6,1475.4,1518.1,1486.8,1528.8,1484z" />
            <path fill-rule="evenodd" clip-rule="evenodd" d="M2166.2,878c-0.8-16,0.4-31.8-5.1-47.9c-10.9,8.7-22.5,12.7-35.3,11.1
			c-12.7-1.5-22.9-9.2-29.2-19.1c-5.3-8.3-10.8-16.8-14.3-26.7c-6.2-17.2-6.4-33.6,1-49.9c6.6-14.7,17-25.2,30.7-33.2
			c3.4,6.7-2.5,10.5-5,14.6c-3.3,5.6-6.8,10.8-8.1,17.4c-1.7,8.3-5,15.9-5.6,24.7c-1,13.5,6.4,23.6,10.9,34.6
			c4.9,11.9,22.5,17,34,11.2c9.2-4.7,14.6-13.9,18.6-23.2c4.7-10.9,6.6-21.9,2.7-34.2c-3.2-9.9-4.2-20.6-7.4-30.8
			c-4.8-15.1-12.3-29-17.7-43.8c-5.4-14.7-12.7-28.6-14.8-44.6c-1.1-7.9-1.6-14.7,0-22.7c3.5-17.7-4.5-31.5-18-42.8
			c-11.4-9.6-21.9-20.3-33.3-29.8c-16.3-13.6-33.4-26.1-51-38.2c-17.7-12.2-36.5-22.7-55.6-32.1c-8.2-4-18.5-5.9-26.5-10.2
			c-8.6-4.6-18.7-2.1-26.4-8.4c-2.3-1.9-7-0.5-10-1.8c-9.6-4.3-20.5-3.8-29.7-9.9c-3.4-2.3-8.7,0.3-13.4-1.3
			c-16.8-5.6-34.4-7.7-51.6-11.5c-9.6-2.1-19.4-2.3-28.8-4.7c-20.5-5.2-41.5-6.3-62.2-9.2c-7.5-1-14.7-0.4-21.9-1.2
			c-20.5-2.1-41-3.2-61.5-4.1c-9.4-0.4-18.9,0.1-28.3-1.2c-5.7-0.8-8.8,2.7-10.9,6.8c-6.7,12.9-15.4,24.6-21.9,37.5
			c-5.3,10.6-11,21.1-15.9,31.9c-3.4,7.4-5.9,15.3-9.9,22.3c-6.1,10.6-8.2,22.6-12.2,33.9c-4.1,11.6-6.2,24-10.2,35.6
			c-5.3,15.4-7.8,31.4-11.2,47.2c-2.6,12.4-3.3,25.2-4.7,37.8c-0.6,5.1-0.7,9.9-2.7,15c-3.5,8.7-2.2,18.8-0.1,27.4
			c1.6,6.4,10.8,6.9,17.1,6.3c20.2-1.9,40.2,0.6,60.3,1.9c6.9,0.5,13.9-0.8,20.9-0.8c6.5,0,13.2-0.7,19.3,3.1
			c2.2,1.4,5.3,1.2,8.4,0.7c9.3-1.4,17.9,2.5,26.8,3.8c9.4,1.4,17.6,5.5,26.8,7.1c9.1,1.6,17.7,6.9,25.9,11.9
			c14.5,9,28.2,19,40.8,30.5c3.6,3.3,7.1,6.5,9,11.3c2.4,6.3,9.5,8.8,12.6,15.3c5.1,10.9,12.4,20.9,17.7,31.7
			c3.3,6.9,4.1,14.8,7.2,22.1c8.3,20.2,10.5,41.8,9.4,63.7c-0.2,4.6-1.1,9-0.7,13.8c0.6,6.4,3.5,9.8,9.5,10.2
			c8.5,0.6,17.2,0.6,24.9,4c9.4,4.1,19.5,7.1,24.7,18c2.2,4.4,4.7,9.4,8.4,13.2c1.5,1.5,1.4,3,0.6,4.6c-2.2,1.6-4.2,0-5.5-1.1
			c-11.9-9.4-25.2-16.3-39.7-20c-7.4-1.9-14.8-6.7-23.9-1.8c-7.4,3.9-17.6-4.8-17.6-13.5c0.1-16.2,0.6-32.4,0.8-48.6
			c0.1-7.4-4.2-13.8-4.7-21.4c-0.8-13.5-7-26.1-12.6-38c-5.1-10.8-11.4-21.4-19.2-31.1c-7-8.6-15.2-15.8-22.2-24.2
			c-5.6-6.8-14.4-9.5-21.5-14.3c-19.1-12.7-40.4-19.3-62.8-23.8c-10.2-2-20.9-1.9-30.3-5.3c-12-4.3-24.1-0.6-35.3-3.5
			c-10.1-2.6-19.5-1.1-29-0.7c-12.6,0.4-24.5-4.8-36.8-3.6c-17.1,1.6-31.5-6.4-47-10.6c-6-1.6-12-3.1-18-5.2
			c-19.9-7-38.5-16.2-51.6-33.2c-4.5-5.8-10.4-12.9-7.1-24.5c13.2,17.7,28.1,30.1,47.2,37c18.3,6.7,35.9,15.7,55.6,17.3
			c-9.1-108,16.3-207.8,74.1-300.3c-5.2,0.3-9.5-4.4-15.8-2.8c-4.3,1.1-4.4-2.4-3.5-5.2c9-2.6,17.8-3.4,26.7-3.7
			c4.3-0.2,7-5.9,8.3-8.5c6.5-12.7,17.6-21.4,25.8-32.5c13.6-18.5,32.3-31.7,48.7-47.1c16.1-15.2,35.4-26.8,53.4-39.8
			c14.4-10.5,30.5-17.9,45.8-26.2c12.2-6.7,25.2-14.6,40.2-15.5c2.1-0.1,2.6-4.2,5.8-2.6c-2.5,7.5-9.8,9.9-15.6,13.1
			c-12.7,7.1-24.6,15.4-36.8,23.1c-14.7,9.3-28.4,20.2-41.8,31c-20.6,16.5-38.6,36.3-57.5,54.9c-11.7,11.5-21.7,24.1-31.6,37
			c-2.4,3.1-7.5,4.1-6.7,9.3c23.4-1.9,46.9-1.4,70.2-0.3c7.3,0.3,14.4,2.2,22,1.4c6.6-0.7,13.6-1.6,20.3,2.5
			c2.9,1.7,7.7,1.9,11.8,1.3c7.7-1.2,27.9,2.1,36.4,4.2c6.9,1.7,14.1,0.3,21.3,2.9c7.9,2.9,16.8,3.3,25.2,4.8
			c9.5,1.7,19.2,3.2,28.5,5.6c9.4,2.4,18.9,4.4,28.2,7.4c7.5,2.4,15.4,3.4,23.2,5.6c28.2,7.8,54.8,19.4,81.6,30.8
			c12.6,5.3,25.6,10,37.3,17c11.3,6.7,22.8,13.4,34.1,20.1c16.3,9.7,30.9,21.3,44.8,33.7c11.2,9.9,21.9,20.6,31.1,32.6
			c5.5,7.3,11.6,14.1,16.9,21.5c8.4,11.5,14.2,24.5,20.3,37.2c4.8,10,7.9,20.6,11.3,31.1c4,12.4,5.9,25.1,9.4,37.5
			c0.4,1.5-0.2,3.4-1.7,5.7c-13.5-27.1-24.9-55.3-44.2-79.8c-3.8,8.8,1.7,14.8,2.4,21.6c1.4,13.4,6.4,26,10.9,38.5
			c5.6,15.6,13.2,30.5,19.2,45.9c3.7,9.5,6,19.6,9.3,30.5c7.6-8.2,11.8-17.7,14.3-27.4c4.2-16.4,2.8-33.6,2.3-50.2
			c-0.2-7-0.5-16-4.5-24.3c-3.8-8.1-7.4-17.9-7.5-28.1c0-4.6-3.8-9.3-5.9-13.9c-7.9-17.6-17.1-34.7-28.6-50.2
			c-12.2-16.6-25.6-32.4-42.2-45c-11.6-8.8-22.2-19.5-35-26.2c-12.7-6.7-24.2-15.4-37.3-21.3c-25.3-11.3-49.7-24.5-76.1-33.8
			c-8.7-3.1-17.5-4.9-26.3-7.4c-16.6-4.7-33.9-7.5-49.9-13.6c-10.5-4-22.3-1.2-31.9-8.5c-3.3-2.6-8.7-0.9-13-1.5
			c-6.4-0.9-11.8-4.7-18.7-4.2c-4.7,0.4-8.7-3-7.4-8.6c20-8.2,40.9-5.4,61.5-7c15.7-1.2,31.2,1,46.8,0.9c12.5-0.1,25.3,3,37.6,6.7
			c4.7,1.4,9.7,1.3,14.7,2.7c18.1,5.3,35.3,12.8,51.8,21.7c18.7,10.2,38.1,19.6,53.8,34.7c4.5,4.3,11.3,6.2,18.1,9.9
			c-1.3-8.5-5.4-13.9-9.3-19.7c-8.5-12.7-20.9-21.9-29.7-34.3c-2.4-3.4-6.4-6.2-9.6-7.8c-14.2-7-23.5-20.2-36.8-28.3
			c-8.5-5.2-16.6-11.1-24.7-17c-2.7-1.9-6.8-4.1-5.1-8.1c1.6-3.9,5.5-2.8,9.1-2.5c6.3,0.4,12.6,0.2,18.8-0.4
			c7.5-0.7,14.2,1.6,20.4,5.2c3.8,2.2,7.6-0.7,10.9,0.2c5.1,1.5,10.2,3.1,15,6c8.3,5,18.8,4.1,27.2,9.5
			c16.5,10.7,33.8,19.8,49.4,32.5c15.1,12.3,27,27.2,40,41.1c10.7,11.4,19.3,24.7,28.7,37.3c1.6,2.1,2.5,4.5,5.2,5.5
			c1.9,0.7,3.9,2,5.7,0.3c1.5-1.5,1.8-3.6,1.1-5.7c-6.3-21-12.2-42.1-19.1-62.9c-1.3-3.9-4.2-7.8-6-11.9
			c-4.5-10.4-8.4-21.3-13.8-31.2c-5.1-9.3-12.9-17.2-17.9-26.5c-3.9-7.4-12.8-12.9-10.3-24.5c10.8,5.9,22,9.3,31.4,16.8
			c10,7.9,19,16.7,26.8,26.6c6.2,7.7,10.6,16.8,16.1,25.1c5.3,8,8,17.3,13.2,25.4c4,6.2,6.5,13.9,7.8,21.2
			c1.4,7.9,4.2,15.7,6.7,22.7c3.9,11,6.6,22.4,8.1,33.3c2.6,18,8.8,35.6,6.2,54.5c-1,7.3-0.8,16,2.9,23.8c1.4,2.9,1.4,7.3,0.1,10.3
			c-4.5,10.8-1.9,21.9-2.4,32.8c-0.7,16.4-4.5,32.3-8.3,48c-3.2,13.6-7.6,27.4-13.6,39.8c-12.3,25.5-22.7,53.1-50.9,66.8
			c-4.2,2-6.8,5.8-6.6,11.2c0.5,14.7-2.6,28.4-9.8,41.4c-3.3,5.9-2.6,12.7-1.2,20.1c1.8,9.6,6.6,19.3,3.8,29.8
			c-1.3,5,4.2,9.4,2.4,14.7c16.5,3.5,29.9-4.7,37.8-18.9c4.8-8.7,5.8-17.9,4.3-25.7c-3-15-6.7-30.7-19.2-41.9
			c-5.5,3.3-10.1,6.1-15.6,9.4c0.2-8.7,13.3-9.4,9.7-18.7c10.9,0.2,22.4-13,18.6-21.4c2.6,0.9,5,1.2,6.9-1.3
			c5.8-8,12.4-15.3,16.7-24.5c3.3-7.1,7.7-13.9,11.6-20.7c6.2-10.9,9.6-22.7,14.4-34c3.2-7.5,4.1-15.8,8.6-22.9
			c1.9-3.1,0.1-8.3,1.7-11.8c4.4-9.6,7-20.6,6.5-29.8c-0.7-13.8,5.6-26.3,3.2-40.5c-2.5-14.8-4.3-30.2-4.8-45.3
			c-0.6-17.7-8.6-33.6-9.9-50.7c-1.1-14-7.3-26.1-11.7-38.2c-9.1-25-22.9-48.5-33.8-72.8c-8.6-19.2-23.1-35-29.6-55.1
			c-0.5-1.5-3.1-1.6-3.3-5.1c6.1-0.5,9.1,4.9,11.6,7.8c10.2,12,20.3,24.3,28.7,37.5c9.2,14.5,18.4,29.2,26.6,44.5
			c8.4,15.8,16.6,31.9,23.7,48.2c5.7,13.3,8.9,28,13.5,41.9c3.5,10.5,5.7,21.3,7.9,31.8c2.5,12.3,5.2,24.8,5,37.9
			c-0.1,7.8,3.4,16.4,2.1,24.6c-4,26.1-5.3,52.3-14.6,77.8c-8.8,24.2-18.5,47.7-33.2,68.4c-9.1,12.8-17.6,26.8-32,37.3
			c9.8,4.2,17.1,10.8,23.5,17.3c12.5,12.8,25.7,25.4,30.6,44.2c2.1,8.2,5,16.6,7.5,24.7c2.3,7.6,0.1,16.6,0.4,24.9
			c0.8,21.3-7.1,39.7-20.2,55.6c-7,8.5-16.3,15.1-26.4,20.4c-13.5,7-28,7.7-42.6,8.9c-6.9,0.6-11.1-7.9-19-3.3
			c2.9,10.8-0.3,22.7-2.6,33.5c-2.8,13.7-1.1,28.1-7,41.7c-2.2,5.1-2.1,12.6-3.6,18.6c-2,7.8-2.4,16.2-5.3,23.5
			c-7.4,18.9-13.5,38.3-21.4,57.1c-5.7,13.5-12.3,26.4-18.9,39.3c-7,13.4-16.4,25.4-24.5,38.2c-8.7,13.9-21.5,24.6-30.1,38.5
			c-1.3,2.1-3.4,4.3-6.9,2.1c1.9-7.2,7.8-12.1,11.4-18.4c10.1-17.6,22-34.1,31-52.5c7.5-15.4,15-30.8,21.8-46.6
			c5.9-13.5,9.1-28,14.8-41.3c4.1-9.5,5.8-19.6,8.5-29.2c2.6-9.3,5.8-18.9,6.8-28.9c1.3-12.5,4.6-24.8,6.4-37.3
			c2.3-15.3,3.6-30.7,5.4-46c0.3-2.9-1.6-3.9-3.3-5.6c-16.6-16.8-28.7-35.8-35.9-58.9c-2.8-9.1-2-19.1-7.4-27.7c-1.4-2.2-2.6-8,2-10
			c5.4-2.3,4.9,3.5,7.2,5.9c7.3,7.5,12.6,17.7,24.3,20.1C2160.7,874.2,2163.3,876.1,2166.2,878z M2182.9,894.5
			c2.3,10,2.1,19.8,2.2,29.6c0.1,3.6,3.6,5.6,6.2,6.1c28.3,5.7,49.6,2.7,67.4-20.7c4.5-6,9.7-12.6,10.2-20.7
			c0.6-10.9,3.8-21.3,0.8-33c-2.5-9.5-4.4-19.3-7.8-28.7c-5.4-15.1-13.8-28.3-22.9-41.4c-9.1-13.1-14.2-14.7-25.8-4.2
			c-1.1,1-2.3,1.7-2.3,3.7c24.6,19.8,33.3,45,21.1,74.7C2223.4,880.7,2205.5,891,2182.9,894.5z M2152.6,886.1
			c-2.3,10.6,7.7,26.7,18.1,29C2172.3,901,2171.7,888.1,2152.6,886.1z" />
            <path fill-rule="evenodd" clip-rule="evenodd" d="M1579.4,281.9c-7,12.8-14.3,24.8-23.7,35.5c-13.6,15.4-23.3,33.6-33,51.5
			c-8.2,15.2-13.6,31.9-20.7,47.6c-7.7,17-9.9,35.4-16.5,52.6c-3.4,8.8-3.7,19.8-6.1,29.2c-4.1,15.7-1,32.5-8.3,47.4
			c-1.7,3.5,0.4,6.8,0.4,10.3c-0.4,26.7-1.2,53.4-0.6,80.1c0.2,9-0.2,18,0.4,27.1c0.2,2.6,1.5,6.5-2.5,7.3c-3.5,0.7-5.8-1.9-8-4.7
			c-4.8-6.1-6.7-13.7-10.1-20.4c-7.3-14.4-11-30.1-16.1-45.3c-0.8-2.4-2.6-3.6-4.5-4.8c-6.1,6.3-6.8,13.7-6.2,22.1
			c0.9,12.2,0.3,24.4,0.4,36.7c0,3.9-0.3,7.6-4.1,10.5c-20.1-8.6-27.2-33.7-49-41.2c-3.6,11.1-0.7,20.2,2.3,29.7
			c2.8,9.3,3.9,19.2,8.7,27.8c4.6,8.4,7.2,17.8,14,25.1c6.3,6.7,14.2,11,21.6,16c9.7,6.6,22.4,6.1,31.6,13.8c6.3,5.2,6,7-0.6,11
			c-11.1,6.8-23.6,9.5-35.8,13.2c-3.9,1.2-6.4,3.6-10.2,6.6c8.6,2.6,16.2,5.4,24.4,6.9c10.1,1.8,19.9,5.3,29.9,8.2
			c13.7,3.9,25,12.3,36.9,19.6c9.2,5.7,15.7,14,23.1,21.4c14.8,14.9,19.2,35.8,30.4,52.7c1.6,2.4,1.7,5.6-1.1,8.6
			c-3,3.2-5.9,3.6-9.2,1.9c-12.2-6-24.5-11.8-36.3-18.6c-10.3-5.9-21.6-9.4-31.9-15.3c-8.7-4.9-17.5-10.1-26.6-14
			c-12.2-5.2-22.1-13.8-34.1-19.3c-10.8-4.9-20.3-12.8-30.5-19.3c-11.9-7.6-22.8-16.7-33.1-26.2c-14.5-13.4-30.1-25.4-43.2-40.6
			c-9.2-10.7-19-21.1-26.9-32.7c-7.7-11.4-11.7-25-17.4-37.5c-6.2-13.5-10.1-27.5-13.7-41.6c-2-7.7-2.7-15.9-3-23.9
			c-0.3-9.4,0.8-18.7-2.7-27.9c-1.8-4.6,2.7-8.9,2.7-14c-0.1-13-0.9-26.6,2.3-38.9c2.7-10.3,2.3-21.3,7.7-31.2
			c2.8-5.2,3.1-12.1,5-18.2c3.6-12.1,6.3-24.7,12-35.8c8.5-16.4,12.5-35,25.2-49.5c5-5.7,7.4-13.8,10.8-21c1-2,2.5-2,4.3-2.6
			c-3.6,12.4-11.6,22.8-14.6,34.4c-2.7,10.4-5.1,21.3-7.9,31.7c-2.3,8.6-0.8,18-5.7,26.1c-1.1,1.8,0.3,5,0.4,7.6
			c0.4,6.9,1.5,13.8-2,20.3c-0.5,1-1,2.3-0.7,3.3c4.3,17.4-0.5,36.6,10.6,53.2c6.1-4.3,9.8-9.8,13.7-15.5
			c12.4-17.9,18.8-38.5,28.2-57.7c9.6-19.8,19.3-39.5,29.8-58.9c9.9-18.3,22.3-34.6,33.9-51.4c9.8-14.2,21.4-27.6,33.1-40.6
			c9.8-10.9,20.4-20.4,31.7-29.4c2.5-2,4.6-2,7.7-0.8c-2.7,9.1-7,17.4-12,25.2c-7.7,12.1-13.2,25.2-19.7,37.9
			c-5.7,11.2-11,22.6-16.8,33.7c-6,11.6-9.2,24.6-14.7,36.4c-5.5,11.9-8.5,24.5-11.6,36.9c-2.6,10.4-3.4,21.7-6.1,32
			c-5.9,22-1.3,44.2-3.5,66.1c-0.8,7.6,2.2,15.7,5.7,22.9c1.3,2.7,3.7,4.1,6.2,3.3c2.2-0.7,4.9-2.4,4.3-5.7
			c-1.7-8.4,3.1-16.1,2.1-24.7c-0.6-5.6,3.8-10.7,4.5-16.7c1-8.9,4-17.6,6.6-26.2c2.6-8.5,3.8-17.2,7.3-25.7
			c2.9-7.2,5.3-15.1,8.4-22.4c7.8-18.4,14.8-36.9,25.7-54.2c8.7-13.9,18.3-27.3,27.1-41.1c5-7.9,13.1-13.9,19.3-21.1
			c15.8-18.4,34.3-33.6,54.4-47.2c5.1-3.4,10.5-5.9,15.6-9.2C1572.6,278.2,1575.9,278.7,1579.4,281.9z" />
            <path fill-rule="evenodd" clip-rule="evenodd" d="M2550.4,1366.7c-1.6-3.6-2.3-5.8,0.2-7.5c1.5-1,2.6-2.3,2.7-4.3
			c0.5-12.2,6.7-22.9,9.3-34.2c2.8-12.4,9.3-23.4,11.4-36c1.3-8,6-15.5,9.4-23.1c2.4-5.2,3-10.8,4.6-16.2
			c4.5-15.6,9.2-31.1,12.2-47.2c2.6-14,3.3-28.4,7.6-42.2c1.4-4.4-1.7-9.5-1-14.5c2.3-17.6,0.3-35.3,0.3-52.8
			c0-6.6-0.5-15.8-4.9-23.5c-3.8-6.7-4-15.6-7.3-23.3c-7.5-17.6-16.8-33.6-34.3-42.7c-3.5-1.8-5.5-4.8-8.3-7
			c-5.2-3.9-12.5-2.5-16.2-5.8c-6.1-5.4-13.3-3.4-19.5-6.1c-15.9-6.8-31.7-1-47.1,2.1c-23.4,4.8-44.1,15.8-64.6,28.1
			c-20,12-37.2,27.6-57,39.7c-9.8,6-17.5,15.3-27,21.7c-9.5,6.4-18.1,14-27.5,20.5c-10.5,7.2-20.9,14.8-31,22.7
			c-3.9,3.1-8.4,5.4-12.5,6.9c-14.1,5.2-25.9,14.7-40.6,19.3c-13.6,4.2-26.8,4.5-41.4,4.8c0,5.6-0.5,10.8,0.1,15.9
			c1.6,13.4-3.2,26.1-4.8,39.1c-1,8.6-5.8,17.4-9,26c-3.4,9.1-6.1,18.8-11.6,26.4c-6.6,9.2-12.6,18.7-20.3,27.3
			c-8,8.9-14.7,19.3-24,27.1c-13.2,10.9-27.2,20.8-41.8,29.9c-13.5,8.5-27.4,15.9-42.3,21.1c-12.2,4.3-24.7,8.3-38.2,7.7
			c-12.4-0.6-24.9-0.2-37.4-0.6c-4.8-0.1-9.6,0.8-10,5.8c-0.4,5.2,4.2,7.2,9.1,6.5c4.9-0.7,6,3.9,9,5.8c-2.9,5.7-7.6,6.6-13.5,6.5
			c-23.3-0.3-46.6-0.1-70,0c-4.1,0-8.1-0.1-11.9-1.5c-9.3,8-7.4,18.5-6.9,28.6c0.1,2.9,2.6,6,5.4,5.8c7.1-0.6,13.5,2.4,20.6,2.2
			c21-0.5,42.1-1.2,62.9,1.1c8.7,1,17.6-0.2,26.2,1.9c3,0.7,4.8-1.6,7.3-3.5c-4.7-8.5-1.8-17.8-1.5-26.7
			c0.5-14.1,25.4-27.3,38.3-21.5c3.4,1.5,3.9,4.5,3,7.3c-0.8,2.7-2.6,5.2-6,5.5c-9.4,0.8-18.4,1.3-23.8,11.6c-3.1,6-3,12.4-1.1,16.8
			c2.1,5,6.2,11.6,14.2,10.8c8-0.7,16.2,2.2,23.1-6.2c5.7-6.9,4.4-13.5,2.4-19.8c-1.3-3.9,0-5.6,1.4-8.4c1.4-2.8,3.7-2.8,5.9-2
			c3.2,1.2,4.2,4.2,3.8,7.2c-1.2,7.9,4,15.5-0.9,23.8c-6.9,11.6-22.7,24.4-38.5,18.2c-3.8-1.5-8.6-0.6-12.9-0.2
			c-37.2,3.4-74.6,1.2-111.8,0.8c-10.6-0.1-21.5-4.3-29.6-13.1c-7.9-8.6-5.4-41.1,4.8-46.2c7-3.5,14-7.2,22.8-6.8
			c17.7,0.8,35.5,0.3,53.1,0.3c1.3-10-3.6-13.7-15-15.9c-18.2-3.6-35.4-9.3-51.8-19.6c-18.7-11.8-33.2-26.9-45.3-44.4
			c-6.3-9.2-11.7-19.5-14.4-31c-1-4.1-4.5-8-5-13.3c5.1-1.1,7.1,3.7,7.7,6c2.6,11.5,11.1,18.7,17.6,27.5c5.9,8,12.1,16.8,19.4,22
			c14.2,10.1,26.3,24.1,45.4,27c10.9,1.7,22.2,5.3,31.8,10.6c11,6.1,14.6-1.9,19-7.6c7.8-10,13.8-11.1,23.3-3.4
			c2.8,2.2,2.9,4.5,3.2,7.5c0.5,7,4.8,11,11.5,10.2c13.4-1.5,26.1-5,39-9.6c16.2-5.8,31-13.9,46.3-21.3c8.8-4.2,16.6-10.4,25-15.5
			c8.3-5.1,14.9-12.1,21.8-18.7c9.1-8.7,17.7-18.2,24-29.1c5.6-9.9,12.5-19,16.9-29.7c3.8-9.3,8.4-18.3,11.2-28.1
			c2.4-8.1,6.1-15.9,8.3-24.1c1.5-5.5,0.4-12,2.7-17c5-11.2,2.3-23,3.5-34c4.1-1.2,5.1,0.4,4.9,3.3c-0.3,6.5,3.3,7.1,8.8,7
			c10.9-0.3,18.6-7.8,27.8-11.7c17.6-7.5,35.3-15.6,51.4-25.9c13.2-8.5,25.8-18.3,38.6-27.7c14.8-10.8,28-23.3,42-34.9
			c14.4-11.9,29.3-23.1,43.7-35c13-10.7,27.6-19.5,43-27.1c11-5.4,21.3-12.2,32.8-16.9c17.4-7.1,35.5-12.7,54.3-9.6
			c12.2,2,24.7,3.6,36.2,10.2c4,2.3,10.2,4.5,15.8,5.9c7.3,1.8,13.4,8.4,20.2,12.7c14.2,9.1,23.3,22.9,29.7,37.3
			c5.1,11.5,9.9,23.6,13,36.5c8.3,34.3,4.3,68.8,3.8,103.1c-0.2,15.2-4.3,31.2-8.9,46.6c-2.8,9.5-3.1,20.1-6.1,29.8
			c-3.2,10.1-6.1,20.4-9.1,30.5c-2.1,7-4.1,14.3-7.1,20.7c-3.9,8.4-4,18.1-10.7,25.7c-5.9,6.6-4.8,16.8-9.7,24.5
			c-6.8,10.7-12.4,22.1-18.7,33.1C2554.2,1364.7,2552.3,1365.3,2550.4,1366.7z" />
            <path fill-rule="evenodd" clip-rule="evenodd"
                d="M2069.9,224c5.9,7.2,0.5,12.9-1,17.2c-5,14.4-10.9,29.1-22.4,39.7
			c-9.5,8.9-19,17.7-30.2,25.3c-17.9,12.1-37,19.6-57.1,24.7c-7.8,2-15.9,8.4-24.9,3.7c-20.9,6.9-42.5,0.7-64.7,3.9
			c3.8,10.1,17.9,7.4,22.8,18c-7.6-0.9-13.7,0.5-19.2,0c-11.2-1.1-22.3-3.1-33.3-6c-11-2.9-21.3-8-32.8-10c-9-1.5-18.4-2.5-26.8-6.9
			c-5.1-2.7-10.8-0.5-16.3-1.8c-18.3-4.4-37-6-55.8-4.9c-2.9,0.2-7,1.6-6.1-3.4c16-5.6,32.3-4.4,48.4-4.5c20.6-0.2,41.2,0,61.8-0.6
			c8-0.2,14.9,4.8,22.8,3.4c13.8-2.3,27.7-0.3,41.5-0.4c18.8-0.1,37-4.2,55.6-5.6c13.6-1,27.1-7.6,40.6-11.9
			c11.6-3.7,21.7-10,32.8-14.5c13.2-5.4,21.6-17.5,32.3-26.6c9.4-8,14-19.6,22.4-28.4C2063.4,231.4,2066.3,228,2069.9,224z" />
            <path fill-rule="evenodd" clip-rule="evenodd" d="M827.7,1683.1c6.2-3.3,11.7-2.3,16.6,0.1c10.7,5.2,20.6,3.4,31.7,0.5
			c10.5-2.8,20.1-7.1,29.2-12.1c10.2-5.6,19.5-12.9,28.1-21.1c11.2-10.6,20.6-22.2,26.5-36.3c2.7-6.5,5-13.1,4.6-20.8
			c-0.3-7.5,3.9-14.9,3.6-23.1c-0.1-5,6.3-6,9.6-1.7c4.2,5.5,7.3,11.5,8.5,18.6c1.3,7.7,4.8,15.1,5.5,22.8
			c1.4,16.2-4.8,30.7-11.6,45.2c-9.6,20.5-26.2,33.9-44.4,45.4c-5.4,3.4-13.3,4.5-19.6,6.8c-12.1,4.5-24.3,6.4-36.5,5.1
			c-16.2-1.8-32.6-3.9-46.4-14.4C827.9,1694,828.4,1688.8,827.7,1683.1z" />
            <path fill-rule="evenodd" clip-rule="evenodd" d="M1820.3,780.9c-1.9-3.8-3.6-7.4-2.1-11.7c1.1-3.2-0.3-6.4-1.5-9.2
			c-4.7-10.3-2.7-21-1.1-31.4c0.4-2.8,1.6-5.7,1.9-8.9c1.5-20.2,9.5-37.6,20.7-54.6c11.9-18,29.4-28.2,44.8-41.5
			c14.1-12.2,29.8-22.3,43.2-35.6c11.3-11.2,21.8-22.9,30.7-35.8c3.3-4.8,6.1-11.4,8.7-17.1c5.8-12.7,2.1-26.2,6.1-39.8
			c8,6,10.6,13.5,11.2,21.9c0.5,6.4,4.5,12.4,2,19.2c-5.2,14.1-9.6,27.9-19,40.6c-7.1,9.6-15.9,17.7-23.2,26.9
			c-8.7,11-21.3,18.8-32.4,27.8c-15.6,12.5-32.5,23.6-46.7,37.5c-11.2,11-19.7,24.6-26.3,39.9c-6.5,15.1-6.9,30.9-11.4,46.1
			c-1.7,5.6,0.5,13,0.4,19.7C1826.2,778.2,1825.8,781.2,1820.3,780.9z" />
            <path fill-rule="evenodd" clip-rule="evenodd"
                d="M2051.3,613.8c0.1,10-8.8,14.6-14.5,20.9c-8.8,9.6-15,20.3-20.6,31.9
			c-3.1,6.4-7.7,13.5-8.8,19.3c-2.4,12.8-10.6,22.2-14.9,33.7c-3.6,9.8-7.5,20.1-16.7,26.8c-1.9,1.4-2.5,4.3-3.9,6.3
			c-12.2,17.5-30,25.3-49.9,30.4c-7.2,1.9-14,5.3-21.3,7.5c-4.9,1.4-9,3.7-14.6,3c-8.2-1-26.4,13-29.2,22.6
			c-0.7,2.4-2.9,3.4-2.8,5.7c-5-1.4-4.8-4.9-5.2-8.8c-1.4-14.1,11.1-25.8,22.3-29.2c25.5-7.7,49.1-18,71-34.1
			c19-14,28.4-32.7,38-52.3c10.1-20.8,16.9-43.2,30.4-62.3c6.9-9.7,15.9-17.6,28.4-19.2C2043.2,615.4,2045.7,609.4,2051.3,613.8z" />
            <path fill-rule="evenodd" clip-rule="evenodd" d="M2017.3,209.7c11.1-4.6,21.4-9,31.1-14c12.7-6.5,22.7-18,31.7-29.8
			c11.4-14.9,17.3-31.3,15.6-49.9c-1.2-13.6,0.7-27,2.4-40.2c1.9-15.1,8.2-29.7,18.7-41.8c6-6.8,11.5-13.5,20.1-17.9
			c8.1-4.1,15.1-10.3,25.2-8.4c1.1,2.6,0.7,4.3-1.7,6.6c-8.1,7.6-16,15.5-23.3,23.6c-6.7,7.4-11.8,17.2-16.2,26.8
			c-7.2,15.9-6.8,32.6-6,49.4c1,20.3-3,39.6-12.8,57c-6.9,12.3-17.5,21.5-29.7,29.7c-10.2,6.9-21.6,8.2-31.8,13.5
			C2036,216.8,2020.8,213.9,2017.3,209.7z" />
            <path fill-rule="evenodd" clip-rule="evenodd" d="M1985,248.6c-10.7,10.6-23,13.2-35.2,15.4c-5.8,1.1-12-1-17.6,2.7
			c-1.6,1-4.2,0.2-6.5-1.2c-2.6-1.5-6.5-3-9-2.1c-9.8,3.4-18.1-2-25.2-5.7c-10.7-5.6-22.8-9.8-30.9-19.7c-4.9-6-12.7-11.4-14.2-18.1
			c-2.5-11.6-8.7-22.1-3.3-36.3c6.2-16.3,13.6-30.3,26.8-41c8.2-6.6,17.3-11.6,27.7-15.6c14.9-5.8,29.5-3.5,44.2-4.4
			c4.2-0.3,4.3,0.1,6.7,4.6c-1.8,0.2-3.6,0.7-5.2,0.5c-15-1.9-28.6,3.7-41.8,9.1c-10.2,4.2-18,12.6-25,21.2
			c-6.8,8.5-11.5,17.7-12.9,28.8c-0.6,4.4,0,8.1,0.7,12.3c3.6,22,18.6,34.1,36.5,43.8c15.8,8.5,33.1,12.6,50.6,9.7
			c7-1.2,14.8,0.4,21.7-3.8C1975.7,247.3,1979.9,248.6,1985,248.6z" />
            <path fill-rule="evenodd" clip-rule="evenodd" d="M1986,952.5c11.9,9.3,7.4,23.1-1.1,30.4c-12.7,11-28.3,14.4-43.9,18.5
			c-13.1,3.5-25.9,7.8-36.6,17c-5.9,5-10.5,10.6-13.3,17.7c-3,7.8-6.9,9.6-13.5,4.6c-11.5-8.5-23.1-6.6-35.1-1.9
			c-2.9,1.1-6.2,1.7-9.4,1.7c-15.2,0.2-30.4,0.1-45.5,0.1c-0.6-4.9,3-4.8,5.5-5.6c10-3.6,19.4-8.1,30.4-9.6
			c10.1-1.3,20.2-4.7,30.6-5.7c5.2-0.5,9.2,2.4,13.8,3.2c10.7,1.8,18-3.6,23.4-12.2c7.9-12.5,21-17.2,33.8-22.4
			c13.9-5.7,29.2-5.4,43.1-10C1978.9,974.9,1985.8,965.8,1986,952.5z" />
            <path fill-rule="evenodd" clip-rule="evenodd" d="M1969.4,228.3c1.6,10-8,8.6-11.4,9c-15.9,1.9-31.8,3-47.3-4.2
			c-12.3-5.7-21.3-14.8-26.7-26.2c-3.9-8.3-5.2-17.6,1.7-27.9c6.9-10.3,12.7-20.6,24.1-26.4c6.4-3.3,13.6-4.4,20.4-6.4
			c6.8-2,13.2-2.8,20-2.6c1.4,0,2.9,0.1,3.9,2.4c-3.6,2.5-6.7,5.6-11.7,6.9c-15.5,4.2-28.3,22.1-27.9,38
			c0.4,15.7,13.9,29.1,29.3,34.2C1952.6,227.9,1961.1,225.5,1969.4,228.3z" />
            <path fill-rule="evenodd" clip-rule="evenodd" d="M1760.3,736.8c-37.2-73.5-69.2-149-87.3-229.9c5.4-2.6,6.2,1.4,7.3,4
			c9.5,22.5,19.5,44.7,28.1,67.6c4.1,11,9.9,21.9,13.3,33.1c4,13.3,9.4,26,13.8,39.1c5.8,17,13,33.6,18.2,50.8
			c2.6,8.4,6.3,16.3,8.9,24.7C1763.7,729.8,1762.3,732.9,1760.3,736.8z" />
            <path fill-rule="evenodd" clip-rule="evenodd" fill="none" d="M494.8,1414.6c2.2-4.5,3.7-6.3,8.8-7.1c11.8-1.7,23.8-3.9,35.1-7.2
			c9.3-2.6,19-3.4,28.3-6.7c9.4-3.3,19.9-5.8,30.5-6.7c6.3-0.5,13.2-0.3,18.7-5.2c2.9-2.5,6.6,1.1,10.1-0.1
			c10.4-3.7,21.3-4.9,31.9-7.5c14.6-3.6,30-5.2,43.9-10.4c9.4-3.5,20.3-0.5,28.8-8.2c2.8-2.5,9.4-1.6,14.2-2.5
			c7.2-1.4,12,6.9,8.9,15.2c-5.3,14.3-6.1,29.3-4.8,44c0.6,6.3,2.3,13.2,4.4,19.5c2.8,8.1-0.4,13.3-7.3,18.7
			c-13.3,10.6-22.4,23.5-26.6,41.1c-3.5,14.8,1,29.3-2.4,43.7c-0.8,3.2,1.8,5.2,4.8,6c8.5-13.7,9-29.8,14.3-44.3
			c4.7-12.9,11.3-24.8,23.2-32.6c9.9-6.5,11.2-12.2,8.8-24.1c-3.4-16.8-3.4-33.9-1.9-51.1c0.9-9.8,4.5-19.2,3.8-29.2
			c-0.5-6.3,11.4-19.5,17.7-19.7c4.5-0.1,8.2-1.7,12.8-4.3c2.2,7.2-0.1,13.2-3.4,17.8c-4.5,6.3-5.2,12.7-1.4,18.2
			c2.6,3.7-0.5,6.5,1.4,10.3c7.5,14.3,19.1,24.9,29.1,37c7.2,8.5,16.6,15.2,21.7,25.4c1.7,3.4,5.9,2,7.8,5
			c9.7,15.2,25.4,26.8,30.3,44.6c4.3,15.7,5.7,32.4-5.6,46.9c-3.4,4.4-3.3,8.9-0.7,13.8c9.9,2.1,14.5-6.6,20.9-11
			c4.2-2.9,8.4-7.4,12.6-3.6c4.6,4.2,8.3,10.2,5.9,17.7c-3.8,11.9-7.3,23.9-14.8,34.2c-6.5,8.8-14.9,15.8-23.3,22.7
			c-14.8,12.1-31.9,19-49.6,25.3c-9.3,3.3-18.1,6.4-28.2,6.6c-6.1,0.1-6.4-2.5-7.3-6.8c-1.1-4.9,3.2-11.5-3.8-14.7
			c-8.4-3.8-16.6-1.1-24.7,1.7c-6.9,2.4-13.8,5.8-20.9,6.7c-11.8,1.4-24.2,1.9-35.6,0.3c-8.7-1.2-18.6-4.2-26.9-9.3
			c-12.8-7.8-24.6-16.9-36.1-26.5c-4-3.3-8-6.5-9.4-11.8c-1.7-6.2-8.3-7.5-11.8-12.6c-13.1-19.3-26.4-38.4-39.5-57.7
			c-8.6-12.8-19-24.5-29.5-36.1c-11.1-12.2-22.1-24.4-33.5-36.2C515.2,1433.9,505,1424.5,494.8,1414.6z" />
            <path fill-rule="evenodd" clip-rule="evenodd" fill="none" d="M1528.8,1484c-10.7,2.8-14.1-8.6-19.9-14.9
			c-3.1-3.4,1.2-7.1,6.3-8.5c10.9-2.9,20.4,2,29.3,6.1c20.6,9.6,29.4,28.1,34,49.4c1.3,6.1,5.2,11.3-1.2,16.8
			c-4.8,4.1-9.8,2.6-14.7,1.2c-4.9-1.4-2.6-5.3-2.5-8.7c0.3-7.9,1.1-15.9-0.1-23.6c-1.3-8.2-12.8-16.1-24.4-17.8
			C1534,1483.8,1532.2,1484,1528.8,1484z" />
            <path fill-rule="evenodd" clip-rule="evenodd" fill="none" d="M2182.9,894.5c22.5-3.5,40.4-13.9,48.9-34.5
			c12.2-29.7,3.5-55-21.1-74.7c0-2,1.3-2.7,2.3-3.7c11.6-10.5,16.7-8.9,25.8,4.2c9.2,13.1,17.5,26.3,22.9,41.4
			c3.4,9.4,5.3,19.1,7.8,28.7c3.1,11.7-0.2,22.1-0.8,33c-0.4,8.1-5.6,14.8-10.2,20.7c-17.8,23.4-39.1,26.4-67.4,20.7
			c-2.5-0.5-6.1-2.5-6.2-6.1C2185,914.4,2185.2,904.5,2182.9,894.5z" />
            <path fill-rule="evenodd" clip-rule="evenodd" fill="none" d="M2152.6,886.1c19.1,2,19.6,14.9,18.1,29
			C2160.4,912.7,2150.4,896.7,2152.6,886.1z" />
        </g>
    </g>
</svg>