<?xml version="1.0" encoding="utf-8"?>

<!DOCTYPE svg PUBLIC "-//W3C//DTD SVG 1.1//EN" "http://www.w3.org/Graphics/SVG/1.1/DTD/svg11.dtd">
<svg version="1.1" id="Layer_1" xmlns="http://www.w3.org/2000/svg" xmlns:xlink="http://www.w3.org/1999/xlink" x="0px"
    y="0px" viewBox="0 0 800.9 1834.8" xml:space="preserve">
    <path fill-rule="evenodd" clip-rule="evenodd" d="M1,1835.8C1,1225.7,1,615.6,1,5.5C1,1,1,1,5.5,1c166.8,0,333.6,0,500.4,0
	c-0.7,2.9,0.3,4.9,2.3,7.1c2.7,3,6.5,4.8,8.3,8.5c3.7,7.5,10,11.5,17.6,14.4c11,4.2,22,8.8,31.1,16.6c2.1,1.8,4.5,3.4,6.8,5.1
	c6.5,4.7,12.9,9.4,20.5,12.2c6.1,2.2,12,5,17.4,8.7c5.2,3.5,10.7,6.7,16.1,9.9c4.9,2.9,8.5,6.8,11.5,11.6
	c6.8,10.9,12.9,22.1,18.9,33.4c5.6,10.6,11,21.3,16.6,31.9c2.5,4.7,5.2,9.3,8.8,13.3c4.2,4.7,8.1,9.8,11.7,14.9
	c9.3,13.4,17.4,27.6,21.9,43.5c0.8,2.8,0.2,4.5-2.4,5.6c-1.2,0.5-2.4,1.2-3.5,1.9c-2.2,1.2-4.1,0.9-6-0.7
	c-5.1-4.5-10.3-8.9-15.5-13.4c-8.8-7.5-13.4-18.2-20.3-27.1c-3.9-5-6.9-10.6-10.2-15.9c-8.7-13.9-16.2-28.3-22.2-43.6
	c-2.6-6.7-5.9-12.7-12.3-16.4c-5.5-3.2-9.1-7.7-11.5-13.4c-1.1-2.5-2.8-4.5-5.3-5.7c-7.5-3.6-15-7.2-22.7-10.5
	c-19.5-8.5-38-18.4-53.8-32.8c-11.7-10.6-23.9-20.6-35-32c-5-5.1-6.5-5.2-12.4-1.1c-4.5,3.1-9.2,5.2-14.7,5.9
	c-5.1,0.7-10.3,1.1-15.3,2.5c-3.5,1-5.7,2.6-6.9,6.3c-1.9,5.9-6.1,8.5-12.2,8c-6.5-0.5-12.9-1.3-19.4-1c-1.3,0.1-2.7,0.1-3.9,0.5
	c-1.8,0.6-2.5,2.1-2.5,3.9c0.1,1.9,1.5,2.4,3.1,2.5c2,0.1,4,0.2,6,0.1c2.9,0,5.6,0.6,8.1,2c4.7,2.6,5,5.8,0.8,9.1
	c-4.1,3.1-8.5,3.4-13.2,1.5c-14.3-5.8-29.4-5-44.3-5.5c-1.8-0.1-3.7,0.2-5.5,0.4c-0.5,0-1,0-1.5,0.2c-1.2,0.3-2.2,1-2.3,2.3
	c0,1.5,1.2,1.9,2.4,2c1.8,0.2,3.7,0.2,5.5,0.2c4.7,0.1,6.5,4.2,9.2,7c0.6,0.6,0.2,1.6-0.3,2.3c-1.9,2.7-3.7,5.4-7.2,6.6
	c-4.5,1.6-8.9,2.4-13.7,1.2c-9.2-2.3-17.1,0.7-24.1,6.5c-1.6,1.3-4.2,2.4-2.7,5.1c1.4,2.5,3.8,1.4,5.8,0.7c4.8-1.9,9.7-3.4,14.9-3.9
	c1-0.1,1.9-0.6,2.8-0.9c6-1.9,12.1-3.8,18.3-4.8c6.2-1,12.6-1.4,18.7-2.8c11.1-2.4,22.2-4.6,33.6-4.1c1.7,0.1,3.4,0,5-0.2
	c9.6-1.6,19.3,0,28.9-1.6c1.7-0.3,3.6,0.3,5.4,0.7c11.9,2.6,23.8,5,35.6,8c5.1,1.3,10.7,1.5,15,4.9c3.3,2.7,7.2,4.1,10.9,5.8
	c16.9,7.9,33.3,16.7,49.3,26.4c9.9,5.9,19.6,12,29.4,18c4.7,2.9,9.5,5.6,13.7,9.1c5.1,4.3,9.1,9.7,13.4,14.8
	c7.1,8.6,14.1,17.3,21.2,25.8c7.3,8.7,14.7,17.1,22,25.8c6.7,8,13.5,16,21.1,23.3c1.3,1.3,2.5,2.7,3.6,4.1c1.4,1.7,1.3,3.3-0.3,4.9
	c-6,6.1-12.3,11.4-21.7,7.6c-0.5-0.2-1-0.2-1.5-0.3c-2.5-0.3-4.2-1.7-5.3-4c-1.6-3.3-3.6-6.4-4.9-9.9c-2.9-7.8-9-13-14.3-18.9
	c-5.5-6-11.2-11.9-16.7-17.9c-7.8-8.6-15-17.8-23.2-26c-1.9-1.9-4-3.6-5.5-5.8c-4-5.6-9.8-8.7-15.7-11c-9.9-3.9-19.3-9-28.6-14
	c-13.6-7.3-27.3-14.7-40.5-22.7c-3.6-2.2-7.7-3.5-12.1-4.4c-14.4-2.9-28.6-6.3-42.9-9.5c-2.1-0.5-4-1.6-6.2-1.7
	c-8.2-0.1-16.3-1.2-24.4-2.2c-9.4-1.1-18.8-2.2-28.3-1.1c-10.6,1.3-21.2,2.6-31.7,3.8c-2.5,0.3-5,0.6-7,2.3
	c-4.6,3.7-9.7,6.7-14.8,9.2c-9.8,4.9-15.3,13.1-19.9,22.2c-0.7,1.4-1.4,3-0.1,4.2c3.8,3.4,7.1,7.6,12.8,8.1
	c7.6,0.7,15.2,1.4,22.9,2.2c4.1,0.4,8.2,1.2,11.7,3.8c11.7,8.6,9.4,8.1,24.2,4.3c3.6-0.9,6.8-0.7,10.2,0.5c9,3,17.6,6.8,26.7,9.5
	c10.5,3.1,20.8,7.1,31.1,10.7c6.1,2.1,12.5,3.6,18.1,7c16.6,10.1,33.3,20.2,49.9,30.4c8.7,5.3,17.5,10.4,25.7,16.3
	c10.7,7.7,21.1,15.8,31.2,24.1c9.2,7.6,18.9,14.7,26.5,24.1c1.7,2.1,3.4,4.1,5.1,6.1c11.4,13.5,23,26.7,32.7,41.5
	c2.9,4.5,3.7,8.4,1.7,13.4c-3.5,8.9-1.6,8.7-12.2,7.4c-6.8-0.8-10.8-3.8-13.5-10c-4.6-10.5-11.6-19.3-19.6-27.5
	c-6.8-7-13.3-14.4-19.6-21.9c-3.7-4.4-7.5-8.5-12.3-11.5c-18.4-11.4-35.9-24.3-56.2-32.3c-3.6-1.4-6.5-4.4-10-5.5
	c-7.2-2.3-13.5-6.4-20.6-8.7c-4.9-1.6-9.2-4.5-14-6.5c-9.9-4.2-20.3-7.5-28.6-14.9c-4.8-4.2-8.6-4-13.6,0.2c-2.4,2-4.8,4.1-7.2,6.2
	c-1.3,1.2-2.7,1.8-4.5,0.9c-5.1-2.5-8.2-8.3-7.5-14.2c0.2-1.8,0.8-3.9-0.9-5.1c-4.5-3.3-8.8-7.1-14.9-7.7c-9-0.8-17.9-1.7-26.6-4.4
	c-2.4-0.7-5.3-2.4-7.5,0c-2.5,2.6-0.3,5.3,0.7,7.9c0.7,1.8,1.3,3.5-0.3,5.1c-2.6,2.6-4.8,5.6-8.1,7.4c-8.7,4.8-17.5,9.7-26.4,14.2
	c-4.9,2.4-8.9,5.7-12.2,9.9c-6.8,8.6-12.8,17.9-21.1,25.3c-4,3.5-8.1,6.9-11.9,10.7c-3.1,3.1-4.4,6.3-4.4,10.6
	c0.1,6.1,0.9,12.3-1.1,18.4c-0.5,1.7,0.5,2.4,2.1,2.5c3.5,0.3,7,0.5,10.4,1.1c7.7,1.2,15.4,2.4,23.2,3.7c13.3,2.3,26.7,3.5,39.6-2.5
	c1.8-0.8,3.9-1,5.8-1.6c3.4-1.2,6.8-1,10.3,0c9.4,2.7,18.9,5.5,28.2,8.5c10.9,3.5,22,6.3,33.1,9c22.1,5.4,42.9,14.4,63.8,23
	c19.6,8,39,16.3,58.5,24.5c3.2,1.4,6.4,2.9,9.2,5c20.9,15.5,41.8,30.9,62.6,46.4c5.1,3.8,10.3,7.4,14.9,11.7
	c12,11,22.6,23.6,34.1,35.1c1.3,1.3,2.2,2.9,3.2,4.5c4.9,8,8.3,16.7,13,24.8c3.1,5.3,4.7,10.6,5.4,16.8c0.7,6.3-1.5,10.1-6.2,13.4
	c-1.6,1.2-3.1,2.6-4.6,3.8c-1.5,1.3-3.2,1.7-5.1,1.1c-5.9-1.6-11-4-14.1-10c-5.2-10-11-19.8-16.7-29.6c-2.7-4.7-5.1-9.7-9.2-13.6
	c-2.2-2.1-4.1-2.3-6.7-1.2c-2.7,1.1-4.6,2.4-4.7,5.7c-0.1,3.9,1.4,7,3.6,10.1c7.4,10.4,14.8,20.9,22.1,31.4c1.2,1.8,2.3,3.7,3.3,5.6
	c4.6,9.4,9.3,18.8,13.7,28.3c4.9,10.6,9.5,21.3,12.6,32.6c4,14.6,6.4,29.6,9.3,44.5c1.8,9.1,4.2,18.1,3.5,27.6
	c-0.3,4.5,3.2,7.5,6.3,10.3c0.4,0.4,1.2,0.6,1.8,0.6c3.4,0.2,9.3-3.6,10.8-7c2.7-6.3,5.3-12.7,7-19.2c2.1-8.4,4.1-16.8,2.8-25.6
	c-0.5-3.2-1.8-6-2.5-9.1c-2.8-12.7-5-25.5-7.5-38.2c-1.7-9-2.9-18.1-5.8-26.9c-2.7-8.3-3.9-16.8-5.2-25.4
	c-1.4-9.7-2.3-19.7-7.7-28.2c-2.8-4.4-3.2-8.9-3.1-13.8c0.1-3.2,1.5-5,4.6-5.6c1.3-0.3,2.6-0.7,3.9-1c3.2-0.6,5.3-2.5,6.7-5.4
	c2.4-4.8,4.6-9.6,5.9-14.8c1.7-7.3,3.3-14.6,5.1-21.9c0.8-3.4,2.3-6.7,2.7-10.1c1.5-12.1,3.4-24.1,4.3-36.2c0.5-6.1,1.9-7,8.1-5.9
	c1,0.2,2,0.4,2.9,0.6c9.8,1.7,9.6,1.6,10.1,10.8c0,0.5,0.2,1,0.2,1.5c0.2,4.8,1.6,9.6,1,14.4c-1.4,11.7-1.5,23.5-2.8,35.3
	c-0.7,6.3-0.7,12.9-0.9,19.4c-0.2,7.8-1.1,15.6-1.1,23.4c0,4.1-1.5,7.7-5.7,9.8c-6.2,3.2-6.9,5.4-4.4,11.9c0.6,1.7,1.7,3.3,2.8,4.7
	c2.7,3.6,5.3,7.3,8.3,10.6c2.2,2.4,3.2,5,4.1,8.2c3.8,14.6,4.8,29.5,5.2,44.5c0.1,2.7,0.1,5.3,0.4,8c1.1,9.3,0.9,18.7,0.3,27.9
	c-0.7,11.6-1.4,23.3-1.7,34.9c-0.3,10.7,0.1,21.3-0.1,32c-0.2,8,1.9,15.5,5,22.7c3.5,8.2,4.6,16.6,4,25.4c-0.1,1.7-0.5,3.3-2.6,3.8
	c-3.9,0.7-11.6-3.3-12.6-7.3c-1.4-5.6-4.8-10.2-6.7-15.6c-1.2-3.4-9.3-7.8-12.8-7.2c-1.6,0.2-3.1,0.9-3.7,2.6
	c1.4,1.1,2.8,0.8,4.1,0.8c1.7,0.1,3.5-0.1,4.8,1.1c3.7,3.6,3.6,8.3,3.6,13c0,3.3-1,5.5-4,7.3c-9.9,5.9-18,13.6-23,24.3
	c-3.2,6.9-6.2,14-9.7,20.8c-2.4,4.7-3,10.2,0,15.3c1.6,2.7,2.9,5.6,4.3,8.5c1,1.9,1.3,3.8-0.4,5.5c-2.6,2.6-3.8,6.2-6.2,9
	c-1.2,1.4-2,3.1-1.8,5.1c0.5,5.7,2,11.1,4.7,16.2c1.3,2.4,2.9,2.3,5,1.1c3-1.7,3.5-4.7,4-7.7c1.1-7.6,2.3-15.1,3.4-22.7
	c0.5-3.2,1.9-5.2,5.2-6.5c5.3-2,5.7-4,2-8.5c-2.6-3.2-4.9-6.7-7.1-10.2c-1.6-2.6-1.7-4.6,0.3-7.2c2.6-3.2,5.3-5.9,9-7.8
	c4.6-2.4,7.9-5.7,10.4-10.4c2.9-5.6,6.2-11.1,11.8-14.6c1.1-0.7,1.9-2.1,3.3-0.4c3.4,4.4,6.7,9,7.3,14.6c0.8,7.1,2.4,14.1,4.2,21
	c1.1,4.3,1.7,8.4,0.8,12.8c-0.7,3.1-0.6,6.3,0.5,9.4c0.4,1.2,0.8,2.7,2.3,3c1.6,0.3,2.3-1,3-2.2c0.6-1,1.3-2,1.6-3.1
	c1.9-7,4.4-14,1.4-21.5c-1.2-3.1-1.8-6.4-2.7-9.6c-1.2-4.5-2-9.1-2.4-13.8c-0.3-3.2,0.6-5.9,3.6-7.6c1.6-0.9,2.9-2.2,4.5-3.2
	c3.3-2.2,4.3-2,6.6,1.2c1.9,2.7,3.8,5.5,5.3,8.5c4.7,9,9.5,18,6.5,28.8c-0.2,0.8-0.2,1.7-0.1,2.5c0.5,5.2-0.2,10.3-0.8,15.4
	c-1.9,17-3.1,34.2-4.4,51.2c-1.6,20.4-4.8,40.7-6.6,61c-1.7,18.8-5.7,37.2-9.8,55.5c-4,17.7-7.7,35.5-9.4,53.6
	c-0.7,7.7-2.6,15.3-2.8,23.1c-0.1,3.1-1.2,6-3.4,8.1c-4.7,4.6-7,10.4-8.9,16.5c-1.2,4-2.7,7.9-3.9,11.9c-0.9,2.8-2.5,5-4.9,6.7
	c-5.5,4.1-10.9,8.3-16.3,12.4c-4.8,3.6-5.6,5.6-3.3,11c2,4.7,2.5,9.6,3.2,14.5c1.9,12.7-1.2,9.2,9.9,16.6c1.4,0.9,2.8,1.9,4.2,2.8
	c3.9,2.5,4.1,2.3,7.7-0.8c5.8-5,7.7-11.9,9-19c0.6-3.4,1.5-6.8,0.4-10.4c-2.8-8.9-4.6-18-6.6-27.1c-0.6-2.8,0.2-4.6,2.8-5.5
	c4.5-1.7,9.1-3.2,13.7-4.8c2.4-0.9,4.2-0.1,5.4,2.2c0.7,1.5,1.4,3,2.2,4.5c5.7,10.9,7.7,23,10.5,34.8c1,4,0.9,7.9-0.2,11.8
	c-2.7,9.6-4.4,19.5-7.8,28.9c-5.8,16-11.5,32.1-25.8,43c-0.7,0.5-1.2,1.2-1.8,1.7c-0.8,0.7-1.6,1.1-2.7,1.3
	c-3.1,0.6-6.2,1.3-9.3,1.7c-4.7,0.7-5.7,1.8-5.5,6.5c0.1,2,0.6,3.9,1.2,5.8c1.6,5.1,4.9,9,8.3,12.9c2.4,2.6,4.5,5.5,5.1,9
	c2,10.5,5.6,20.5,6.8,31.2c1.1,9.1,3.1,18.2,3.2,27.3c0.1,18.5,1.8,36.9,1.2,55.4c-0.1,3.5,0.4,6.9-0.2,10.5
	c-1.5,9.2-4.4,18.1-6.5,27.1c-0.3,1.2-1.3,2.4-0.3,3.9c0.6-0.2,1.2-0.5,1.8-0.7c6-2.4,9.2-0.6,10.2,5.8c0.5,3.3,0.6,6.6,0.2,9.9
	c-1.1,8.4-3,16.7-4.7,25c-2.4,11.3-5.6,11.2-13.4,5.5c-1.8-1.9-3.6-3.9-5.5-5.8c-1.4-1.3-1.3-4.4-3.7-4.2c-1.8,0.2-3.5,1.7-5.3,2.7
	c-0.6,0.3-1.1,0.7-1.7,1c-6.3,3.8-6.4,3.8-11.9-1.4c-2.4-2.3-4.4-4.7-3.7-8.2c1-5.4,1.6-10.8,4.5-15.7c5.4-9.1,9.2-18.8,10.4-29.4
	c0.4-3.3,1.3-6.5,2-9.8c3.2-14.1,5.8-28.4,4.9-43c-0.3-5-0.3-10,0-15c0.4-7.9-0.7-15.6-3-23.2c-1.4-4.8-2.6-9.6-3.9-14.5
	c-0.6-2.5-1.7-4.7-3.5-6.5c-2.4-2.4-4.7-4.7-6.6-7.5c-1.5-2.2-3.3-2.6-5.5-1c-3.7,2.6-7.3,5.2-11,7.8c-1.1,0.8-1.9,2-2.2,3.3
	c-2.2,8.3-5.4,16.4-5.5,25.3c-0.1,8.1-1.1,16.2-1.6,24.4c-0.6,12.3-2.7,24.5-2.3,36.8c0.5,14.5-0.4,28.9-2.6,43.3
	c-0.4,2.8,0,5.3,1.6,7.6c7.1,10.3,14.2,20.5,21.2,30.9c1.7,2.6,3.9,3.4,6.9,2.6c3.4-0.9,6.8-1.6,10.2-2.5c2.1-0.6,4.3-0.8,6.4,0.1
	c3.6,1.6,7.4,1.7,11.2,2.1c0.3,3,0.5,6,0.9,8.9c0.4,3.4-0.3,6.3-3,8.6c-4.4,3.8-8.6,7.8-13.2,11.3c-5.8,4.5-12.4,7.8-18.7,11.4
	c-4.2,2.4-8.7,3.2-13.5,2.3c-3.9-0.7-7.9-1.2-11.9-1.8c-1.9-0.3-3.8-0.5-4.9-2.1c-5.6-7.4-11.9-14.5-15.7-23
	c-3.8-8.5-5.3-17.8-8.5-26.6c-4-10.9-8.9-21.6-11.3-33c-0.2-1-0.5-2.1-1.6-2.4c-1.4-0.4-2.1,0.7-2.8,1.6c-1.4,1.8-2.7,3.9-4.3,5.5
	c-9.3,9.1-17.3,19.3-26.8,28.2c-1.9,1.8-3.2,4.2-4.7,6.4c-0.6,0.8-1.2,1.9-0.5,2.8c2,2.6,3.9,5.7,7.5,6.2c3.2,0.4,6.3-0.7,8.2-3.7
	c1.3-2,2.8-3.8,3.6-6c2.4-6,7.3-7.7,13.1-8.3c4.4-0.4,8.8,2.5,9.9,6.7c0.6,2.3,0.7,4.6,1.2,6.9c1.4,5.3-1.6,8.8-4.9,12.3
	c-2.9,3.1-6.1,1.6-9.3,0.9c-0.2,0-0.3-0.1-0.5-0.1c-3.1-0.6-4.4,0.1-4.9,3.3c-0.4,2.1-0.3,4.3-0.3,6.5c-0.2,7-5.2,10.8-12,9.1
	c-2.3-0.6-4.5-1.3-6.8-1.7c-3.9-0.6-5.3,0.8-4.9,4.7c0.2,2,0.7,3.9,1.3,5.9c1.6,5.6,4.9,7.2,9.7,3.8c4.7-3.3,8.5-2.7,12.6,0.4
	c0.8,0.6,1.6,1.2,2.6,1.6c3.2,1.2,3.7,3.4,2.9,6.4c-1.6,5.9-4.1,11.2-9.1,15.1c-5.5,4.4-5.2,6.1,1.1,9.5c2.1,1.1,4,2.4,5.9,3.8
	c2,1.5,2.6,3.2,2.1,5.7c-0.6,3.3-1.6,6.4-3.7,9.1c-1.7,2.1-1.1,5.3,0.7,6.7c1.7,1.3,4,0.7,6.1-1.7c1.3-1.5,2.3-3.3,3.6-4.8
	c2.6-2.9,6-2.8,9.3-2c3.3,0.8,4.4,3.7,4.5,6.5c0.1,4.6-0.5,9.2-3.3,13.3c-5.2,7.6-12.3,12.4-20.8,15.7c-3.1,1.2-6,1.6-9.2,0.8
	c-3.7-0.9-7.5-1.6-11.3-2.2c-4.7-0.7-6.2,0.8-5.6,5.5c0.4,3.5,1.2,6.9,1.4,10.4c0.4,6.9,1.2,13.6,4.3,19.8c1.4,2.8,2,6,2.8,9.1
	c0.6,2.4,0.1,4.3-2,5.6c-5.4,3.3-9.4,8.4-14.8,11.7c-2.7,1.6-3,3.6-1.9,7c0.9,2.8,2.9,3.4,5.4,3.4c2.1-0.1,3.8-1,5.3-2.4
	c7.4-6.8,13.8-14.4,19-23.1c2.6-4.4,4.3-8.9,4.1-14.1c-0.1-1.5,0.3-3,0.6-4.4c0.3-1.2,1.1-2.3,2.5-1.9c4.2,1.4,8.5,2.4,10.8,7.2
	c2.9,6.3,3,12.9,3.4,19.5c0.2,3.1-0.4,6-2,8.6c-4.5,7.2-8.1,14.9-11.6,22.6c-3.9,8.3-10,14.9-15.8,21.7c-1.3,1.5-2.8,2.9-4.9,3.3
	c-4.3,0.7-8.5,1.4-12.8,1.9c-2.1,0.3-3.9-0.5-5.7-1.5c-3.5-2-6.9-4-10.4-6c-1.5-0.8-2.9-1.6-4.6-1.8c-2.5-0.3-3.5,1.1-2.3,3.3
	c1.1,2,2.6,3.9,3.7,5.9c3.3,6.1,2.7,7.5-3.9,9.6c-1.1,0.3-2.3,0.5-3.4,0.7c-2.8,0.4-5.6,0.7-8.4,1.1c-5.5,0.8-7.8,3.5-8.1,8.9
	c-0.2,3.9,0.4,7.6,1.1,11.4c0.9,5,0.2,5.6-4.9,4.7c-2-0.3-3.9-0.7-5.9-1.2c-5.4-1.3-10.9-1.1-16.4-0.7c-1.3,0.1-2.9,0-3.5,1.4
	c-1.7,4-4.6,7.4-5.2,11.8c-0.4,2.8,0.1,5.3,2.1,7.4c2.6,2.8,4,2.8,5.4-0.7c1.6-4,4.4-7,7.4-9.9c1.7-1.6,3.2-3.6,6-2.3
	c2.5,1.2,4.4,2.9,4.6,6c0.4,5.4-0.1,10.5-3.3,15.3c-2.2,3.3-5.3,4.8-8.6,6.4c-3.1,1.5-3,3.2-0.2,5c4.8,3.3,10.2,0.6,14.2-3.4
	c2.1-2.1,3.9-4.6,6-6.7c4.1-4.1,7-8.7,8.2-14.5c1.3-6.3,2.3-6.6,8.1-4.4c0.6,0.2,1.2,0.6,1.9,0.7c4.4,1,6.1,4.1,6.5,8.3
	c0.6,5.7,0.2,11.3,0.4,17c0.1,3.4-0.8,6.5-2.3,9.6c-3.4,6.8-7.8,12.8-12.2,18.9c-1.6,2.2-3.7,3.2-6.3,3.6
	c-7.3,0.9-14.5,2.1-21.8,2.5c-1.3,0.1-2.7,0.3-3.9-0.5c-5.5-4-12-6.4-16.8-11.5c-3.2-3.5-7.1-6.6-10.7-9.6c-3.4-2.9-4.8-3.8-6.5,1.7
	c-1.1,3.6-3.4,6.4-7,7.2c-5.2,1.1-10.6,1.4-15.7-1c-7.9-3.6-12.8-2.1-17.2,5.3c-2.6,4.4-2.7,4.7,1.2,8.5c3.5,3.5,5.7,7.8,7.2,12.4
	c2,6.1-2.9,11.3-9.1,9.8c-0.6-0.2-1.3-0.3-1.9-0.5c-4.8-1.6-9.6-0.6-14.3,0.4c-3.1,0.6-4.8,3-5.8,5.7c-1.6,4.2,0.8,7.7,5.3,8
	c3.7,0.3,7.3-0.1,10.8-1.6c3.3-1.5,6.6-3,10.3-3.7c7.1-1.2,8.6-1.3,11.8,5.1c3.6,7.2,8.9,9.9,16.6,10.1c6.4,0.1,8.1-1.1,6.8-7.3
	c-0.7-3.4-0.2-5.8,3.1-7.5c2.8-1.4,3.2-3.7,3-6.7c-0.2-4-1.7-7.4-3.1-10.9c-2.2-5.6-1.9-6,3-9.3c0.4-0.3,0.9-0.5,1.2-0.8
	c2-1.6,3.9-1.6,5.7,0.5c4.5,5.2,7.7,10.8,6.8,18c-0.3,2-0.3,3.4,1.9,4.5c5,2.4,6.2,5,4.4,10.2c-1.2,3.6-2.5,7.2-3.2,11
	c-0.4,2.3-2,3.3-4.3,3.4c-1.2,0-2.3,0.1-3.5,0.1c-33,0-66,0-99,0c-0.8,0-1.7,0-2.5,0c-2.3,0-4-0.8-5.3-2.9c-4-6.6-6.3-13.5-4.4-21.4
	c1.2-5,2.3-10.1,3.2-15.2c0.7-3.9,2.4-7.3,5-10.1c2.4-2.7,5.1-5.3,7.6-7.9c7-7.4,16.6-10.3,25.3-14.4c9.1-4.4,18.3-8.8,28.2-11.6
	c2.9-0.8,4.3-2.8,4.6-5.8c0.6-5.8,1.1-11.6,2.1-17.3c1-5.4,0.2-10.5-0.9-15.8c-2.2-11-15.8-14.9-24.6-8.3c-3.8,2.9-7.2,6.4-10,10.4
	c-8.4,12.2-16.7,24.5-24.1,37.3c-8.2,14-16.9,27.5-26.8,40.3c-9.5,12.3-18.6,24.8-27.8,37.3c-2.8,3.8-6.2,5.7-11,5.6
	c-14-0.1-28,0-42-0.1c-2.2,0-5.4,1.3-6.4-1.2c-1-2.5,1.7-4.4,3.5-6.1c11.6-11,23-22.2,35-32.8c6.7-6,12.7-12.7,19.8-18.3
	c6.4-5,7.5-12.2,6.8-19.9c-0.1-0.8-0.3-1.7-0.5-2.4c-0.9-2.9,1.2-4.1,3-5.6c2-1.6,4-1.6,5.9-0.1c2,1.5,3.8,3.2,5.7,4.8
	c3.8,3.2,8.4,2.5,10.9-1.9c1.1-1.9,2-3.8,2.8-5.8c1.8-4.7,4.1-9,7.8-12.6c2.4-2.3,4.6-4.9,6.3-7.7c6.8-11.3,14.4-22,23-32
	c5.4-6.2,9.9-13.4,17.2-18c1.1-0.7,2-1.8,2.8-2.8c0.7-0.8,1.1-1.8,0.5-2.8c-0.6-1-1.7-1-2.7-0.7c-2.9,0.9-5.5,2-7.5,4.6
	c-5.3,6.6-11.4,12.5-18.2,17.7c-10.9,8.3-22.6,15.3-34.6,21.8c-8.5,4.6-17.8,6.2-27.3,2.8c-1.5-0.5-2.3,0-2.2,1.5
	c0.1,1,0.6,1.9,0.8,2.9c2.1,10.3-0.7,19.4-8.6,26.1c-11.2,9.6-23.9,17-38.1,21.4c-11.7,3.6-23.4,7.3-35.2,0.2
	c-0.7-0.4-1.6-0.8-2.3-0.2c-0.8,0.6-0.2,1.5-0.1,2.3c0.8,6,0,12.1-3.8,16.5c-9.1,10.5-19.4,19.7-32.4,25.2c-1.8,0.8-3.7,1.5-5.5,2.5
	c-11.8,6.8-24.4,11.3-37.4,14.9c-2.6,0.7-5.3,0.9-6.5,3.9c-0.6,1.3-2.1,1.6-3.5,1.6c-2,0.1-4,0.1-6,0.1
	C123,1835.7,62,1835.8,1,1835.8z M720.5,882.1c-2.3,6-3.1,11.2-4.1,16.4c-2.4,12.1-5.1,24.1-8.2,36c-0.8,2.8-1.3,3-4.2,1.5
	c-6.1-3.2-11.6-7.2-17.3-11c-8.5-5.6-8.5-5.7-5.1-15.3c4.1-11.5,7.5-23.1,12.5-34.3c1.6-3.6,0.4-5.3-3.6-5.6c-3.2-0.2-6.3,0-9.5-0.1
	c-4.7-0.2-5.2-0.8-5.1-5.3c0-1.5,0-3,0.3-4.5c2.4-10.2,1.9-20.5,1.8-30.8c-0.1-26.8-0.1-53.7,0-80.5c0-9.2-0.8-18.1-3.4-27.1
	c-5.7-19.2-9.9-38.7-15.4-57.9c-5.1-17.9-9.7-36-14.6-54c-0.8-3.1-1.6-6.2-2.9-9c-8.4-18-17.8-35.4-26.1-53.4
	c-3.7-7.9-8.3-15.6-12.1-23.5c-4.9-10.3-10-20.3-20-26.9c-0.3-0.2-0.5-0.5-0.7-0.7c-9.8-8.6-19.5-17.1-29.3-25.7
	c-8.8-7.7-17.8-15.1-26.3-23c-8.4-7.8-17.6-14.8-26-22.6c-2-1.9-4.5-2.7-7.2-3.1c-4.8-0.7-9.5-1.6-14.2-2.7
	c-19.3-4.5-38.7-8.6-58-12.7c-16.4-3.5-32.8-7.6-49.2-10.9c-13.5-2.7-26.7-7.2-40.5-8.1c-10.8-0.7-21.6-1.7-32.4-2.2
	c-16.4-0.8-32.7-2.6-49.2-3.5c-11.1-0.6-22.3-1.1-33.3-2.6c-4.3-0.6-7.2,1-9.6,4.7c-5.4,8.2-10.9,16.4-16.8,24.2
	c-4.3,5.7-6.9,11.6-7.3,19c-0.8,15.1-3.1,30.1-4.5,45.2c-0.3,3.3-1.6,5.5-4.4,7.3c-9,5.7-17.8,11.6-26.8,17.4
	c-1.1,0.7-2.3,1.3-3.5,1.9c-7.2,3.5-7.1,4.5-1.8,10.5c3.4,3.8,7.1,5.2,11.9,4.7c5.5-0.6,10.9-1,16.4-1.9c6.6-1.1,13-2.8,19.6-3.9
	c10.3-1.8,20.9-2,31.3-3c8-0.8,15.9-2,23.8-2.6c3.6-0.2,7.4-0.9,10.8,0.8c6.8,3.2,13.4,6.8,19.7,10.7c9.4,6,7.6,4.5,2.7,11.9
	c-2.2,3.3-4.4,6.7-6.5,10c-0.5,0.9-1,1.9-0.2,2.7c0.9,0.9,1.9,0.3,2.7-0.1c2.4-1.3,4.4-3,5.2-5.8c0.8-2.4,1.5-4.8,2.5-7.1
	c1.1-2.6,3.2-3.8,6-3.7c2.6,0,5.2,0.6,6.2,3.3c2.5,6.8,6.4,12.8,9,19.5c2.3,6,1.2,7.5-5.2,8.6c-3.4,0.6-7.1-0.2-10.4,1.2
	c-1.9,0.8-4.8,0.7-5.2,3.3c-0.4,2.9,2.7,2.9,4.5,3.8c10,4.9,16.8,15.2,14.1,25.9c-0.9,3.5-2.5,6-6.1,7.2c-5.3,1.9-10.4,4.4-15.3,7.3
	c-6.2,3.6-12.4,7.1-19.3,9.4c-2.2,0.7-4,1.2-6.1-0.4c-3.6-2.9-4.1-4.9-1.8-9c1.7-2.9,3.5-5.7,3.7-9.2c0.1-1.8-0.3-3.8-2.6-3.2
	c-5.9,1.5-11.9,1.1-17.8,2.2c-1,0.2-2.3,0.4-2.1,1.6c0.7,4.3-2.8,5.2-5.3,6.8c-3.2,2.1-6.5,4.1-9.6,6.2c-5,3.4-5.2,3.5-10-0.2
	c-0.5-0.4-1-0.9-1.6-1.3c-3.7-2.4-6.1-6.1-9.2-9.1c-2.7-2.5-5.3-1.9-5.2,1.4c0.2,6.5-3.5,8.3-8.8,9.1c-1.1,0.2-2.2,0.8-3.3,1.2
	c-6,2.2-12.1,3.4-18.6,3.3c-8.5-0.2-16.9,1.4-25.4,1.1c-1.5-0.1-3,0.4-4.4,0.9c-1.9,0.6-4.2,1.3-4.2,3.7c0,2.9,2.6,3,4.7,3.5
	c0.6,0.2,1.3,0.3,2,0.4c23.8,5.3,47.9,8.5,71.9,12.1c5.8,0.9,11.6,0.6,17.2-1.5c7-2.6,14.2-4.8,21.5-6.7c6.3-1.6,12.6-3.3,18.5-6.1
	c4.1-2,8.4-3.2,12.7-4.4c5.6-1.6,11.2-1.2,16.8,0.5c3.7,1.1,4.4,2.1,3.5,5.8c-1.4,5.7-3.4,10.9-9.6,13c-0.9,0.3-1.6,1.1-2.5,1.7
	c-8,5.1-15.8,10.6-24.1,15.1c-8.3,4.5-17.7,6.3-27,6.2c-9.3-0.2-18.6-0.3-27.9-1.1c-14.8-1.3-29.6-1.9-43.9-6.1
	c-6.5-1.9-13.1-2.4-19.8-2c-4.1,0.2-4.8,0.9-5.4,5c-0.4,2.6-0.5,5.4-1.4,7.9c-2.8,8.1-2.7,16.4-2.6,24.7c0,2.9,1.1,5.1,3.2,7
	c8,7.3,17,13.4,25.9,19.5c0.9,0.6,2.1,1.2,3.2,1.4c5,1.2,10,2.4,15.1,3.5c8.5,1.9,17.2,2.3,25.7,3.5c4.1,0.6,7.4-0.1,10.8-2.6
	c14.2-10.5,27.6-22,41-33.5c12.8-10.8,26.9-17.4,43.9-17.7c8.8-0.2,17.6-1.3,25.8-5.1c3.3-1.5,6.8-2.5,10.6-2.8
	c9-0.6,18-1.1,26.9-2.3c16.1-2.1,32.2-2.1,48.3-2.6c12.6-0.4,25.3-1.7,37.9-1.3c1.2,0,2.3-0.2,3.5-0.4c4.1-0.7,8.3-0.7,12.5-0.4
	c7,0.5,13.9,1.3,20.9,2.1c3.6,0.4,7.4,0.5,10.9,1.5c8.4,2.5,16.8,5,25.2,7.6c15.6,4.8,31.1,10.1,46.6,15.1c3.1,1,5.6,2.7,8,4.8
	c9.8,8.7,19,18.2,30.4,25c1.5,0.9,2.4,2.2,3.3,3.7c2.5,4.6,2.9,9.5,2.3,14.6c-0.1,1.2-0.6,2.2-1.4,3.1c-4.5,5.3-8.8,5.6-14.8,2
	c-10.3-6-20-12.9-31.3-17.3c-13.3-5.2-26.7-9.2-40.7-11.6c-3.1-0.5-6.2-1.2-9.2-2.2c-12.6-4.1-25.4-6.5-38.8-5.8
	c-7,0.4-14.1,0.7-21-0.3c-11.1-1.5-22-0.1-32.9,0.7c-13.8,1-27.5,3-41.3,2.7c-6.4-0.1-12.6,1.3-18.8,2.3c-3.9,0.6-7.2,5.1-7.4,9.1
	c-0.2,3.9,0.9,5.2,6.2,7.1c5.6,2,11.5,1.9,17.2,2.5c3.5,0.4,6.9-0.3,10.3-1.6c2.9-1.2,6-2.4,9.2-1.9c5.8,0.8,11.7,0.3,17.5,0.6
	c6.8,0.3,13.7,0.2,20.4,1.4c14.6,2.6,29.2,4.8,43.8,7.1c9.8,1.6,18.8,5.8,28.4,7.9c4.2,0.9,7.7,3.1,11,5.7
	c5.1,3.9,5.1,13.2,0.2,17.3c-0.9,0.8-2,1.4-3.2,1.2c-5.1-0.8-10.4-0.3-15.2-2.7c-4.7-2.3-9.7-3.5-14.8-4.2
	c-9.4-1.2-18.8-2.5-28.2-3.6c-8.7-1-17.4-3-26.3-1.3c-6,1.1-11.6,3-16.4,6.8c-1.5,1.1-2.1,2.5-0.2,3.5c6.8,3.4,13.6,7.2,21.7,6.2
	c5.1-0.6,10.3-0.5,15.4,0.3c23.9,3.7,47.6,8.2,71.3,12.8c9,1.7,16.4,7.1,24.1,11.8c0.5,0.3,1,0.9,1.4,1.4
	c4.6,6.9,10.1,13.2,13.8,20.8c4.1,8.5,7.8,17.3,13.6,25c1,1.3,1.5,3,1.9,4.6c1,3.7-0.1,6.3-3.1,8.2c-3,1.8-6,1.6-8.8-0.6
	c-1.9-1.5-3-3.5-4.1-5.6c-1.6-3.3-3.5-6.6-6.1-9.1c-8.8-8.4-16-18.3-25.5-26c-3.7-3.1-7.3-4.3-11.8-3.9c-4.4,0.3-5.3,1-6.4,5.5
	c-0.7,2.9-1.4,5.8-1.7,8.8c-0.5,4.5-1.5,8.9-2.8,13.2c-2.7,8.8-9.4,13.2-18.5,12.2c-3.3-0.4-6.6-0.5-10-0.8c-3.4-0.3-7.2-0.3-9-4.1
	c-1.9-4.1,0.7-6.9,3-9.8c5.4-7.2,10.5-14.6,14-23c1.3-3.2,1.7-6.4,0.6-9.7c-1-3.1-3.1-3.8-5.7-1.7c-2,1.6-3,3.8-3.6,6.4
	c-1.2,5.9-3.3,11.6-6.7,16.6c-3.5,5.3-7.9,9.2-14.8,9.9c-7.6,0.8-15.3-0.2-22.9,0.6c-3.5,0.4-7-1-9.4-3.8c-2.1-2.5-4.6-4.3-7.4-5.9
	c-3.3-1.8-5-4.8-6-8.3c-1-3.4-0.1-5.3,2.8-7.2c1.9-1.3,4-1.6,6.2-1.7c3.6-0.3,7.3-0.7,10.9-1.3c2.7-0.4,5.2-1.4,7.4-2.9
	c0.9-0.6,1.5-1.4,1.4-2.5c-0.2-1.4-1.2-1.9-2.4-2.2c-1.7-0.3-3.3-0.2-5,0.1c-2,0.4-3.9,0.9-5.9,1.3c-7.5,1.3-11.1-0.6-14.5-7.4
	c-1.4-2.8-2.6-5.8-4.9-8.1c-3-2.9-5.3-3-8.1,0c-3.4,3.7-5.4,7.9-5.2,13.1c0.3,6.1,2,11.8,5.1,17.1c3.1,5.3,6.3,10.6,9.1,16.1
	c3.5,6.8,3.1,8.5-2.4,14c-5.5,5.6-12.7,5.4-17.9-0.5c-3.3-3.8-5.9-8.1-6.8-13.1c-0.4-2.1-0.8-4.3-2-6.1c-3.3-5.1-4.2-10.8-4.9-16.6
	c-0.6-4.9-2.2-6-6.7-4.1c-1.5,0.7-2.9,1.6-4.2,2.6c-10,8.3-18.5,18.2-27.9,27.2c-1.1,1.1-3,2.5-1.5,4.1c1.5,1.7,3.4,0.3,5-0.6
	c0.6-0.3,1-0.8,1.5-1.3c6.7-6.7,10.4-5.3,17-0.6c2,1.4,3.7,3.4,5.8,4.7c6.1,4.1,12.8,7.4,18.3,12c7.7,6.4,16.1,8.9,25.9,7.9
	c1-0.1,2-0.1,3,0c4.2,0.2,8.2-0.6,12.2-2.1c6.7-2.4,13.4-5.2,20.4-6.5c11.3-2,22.9-2.7,34.2,0.8c6.3,1.9,12.9,3.3,17.8,8.5
	c2.4,2.6,4.5,5.4,3.2,8.9c-1.5,3.8-4.3,7.2-8.4,7.9c-5.2,0.9-10.6,1.3-15.9,1c-15.1-0.8-30.3-1.4-45.4,0.4c-4.5,0.5-8.9,1-13.4,0.2
	c-3.4-0.6-7-0.9-10.4-0.6c-10.2,0.8-19.9-1.3-29.5-4.3c-4-1.2-7.8-2.8-11.8-4.2c-1.7-0.6-3.5-1.1-5.4-0.9c-3.6,0.3-4.7,2.3-3.2,5.4
	c1.2,2.5,3.1,4.3,5.8,5.3c11.5,4.3,22.8,7.9,35.5,5.7c7.7-1.3,18.3,6.1,17.5,16.3c-0.1,1.7-0.4,3.3-1.7,4.6
	c-3.7,3.5-7.7,6.5-13.3,5.6c-1.8-0.3-3.6-0.5-5.5-0.7c-4.4-0.3-6.9,1.2-8.7,5.2c-1,2.3-1.9,4.6-2.5,7.1c-1,3.7-3.6,5.9-6.7,7.6
	c-2.3,1.3-4.3,1.2-5.5-1.2c-2.5-4.7-6.9-6.8-11.4-9.3c-5.4-3-10.4-6.6-15.5-10c-1.1-0.7-2.1-1.7-3.3-2.2
	c-8.3-3.3-12.1-9.9-13.8-18.2c-0.8-4.1-1.8-8.1-2.2-12.3c-0.6-5.5-2.8-10.7-5.4-15.5c-3.7-6.9-7.6-8.1-15.2-5.5
	c-2.3,0.8-4.5,1.1-6.9,0.8c-8.1-0.9-15.6-3.2-21.5-9.3c-3.6-3.8-7.3-14.8-4.9-19.2c2.3-4.4,4.2-9.1,8-12.5
	c4.1-3.7,8.2-7.3,12.5-10.7c5.3-4.3,8.8-10,12.4-15.5c1.5-2.2,0.5-7.3-1.1-9c-2.4-2.4-4.9-1.8-7.8-0.6c-6.9,2.8-13.2,6.3-18.8,11.2
	c-10.2,8.8-21.7,16-33,23.2c-4.8,3.1-9.1,6.6-12.6,11.2c-1.6,2.1-2,3.9-1.8,6.4c0.9,9.6,1.2,19.3,2.4,28.8c1,8,0.4,16,1,23.9
	c0.5,5.9-0.2,11.6-2.4,17.1c-1.9,4.8-4.1,9.6-4.6,14.8c-1.2,11.6-2.2,23.2-3.2,34.8c-0.4,5,0.5,10,1.9,14.8c0.6,2.1,1.2,4.2,1.7,6.3
	c2.8,12.5,5.5,25,3.5,38c-1.5,9.5-1.3,19.2-4.2,28.6c-4.5,14.5-8.2,29.2-12.3,43.8c-0.6,2.1-1.2,4.2-0.3,6.4
	c3.7,9.4,8.3,18.2,15.9,25.1c4,3.7,8.6,6.6,14.5,7c5,0.3,10,0.2,14.9,1.2c4.4,0.9,8-0.3,11.8-2.6c9.4-5.8,17.9-12.8,27.1-18.8
	c7.2-4.8,15-7.9,24.1-5.6c3,0.8,6.4,1.4,9.4,1c8.4-1.3,16.5-3.7,24.1-7.8c1.6-0.8,2.5-2.1,3-3.8c2.7-9.2,4.2-18.4,1.3-28
	c-1.7-5.7-4.4-10.7-7.4-15.8c-1.8-3-4.2-5.1-7.4-6.4c-5.2-2.2-10.4-4.5-15.6-6.7c-1.2-0.5-2.3-1.2-3.2-2.3
	c-3.9-4.3-6.7-9.5-10.9-13.6c-1.6-1.6-1.3-3.6,0.8-4.5c5.7-2.3,11.3-5,17.7-4.4c10.6,0.9,20.6,3.8,30.6,7.1c2.2,0.7,3.8,2,5.1,3.8
	c3.8,5,7.6,10.1,11.6,15c3.2,3.9,5.6,8.2,7.2,13c1.9,5.7,3.7,11.4,5.8,17c2.9,7.9,6.1,15.9,5.3,24.7c-0.3,3.1,1.2,5.8,2.6,8.5
	c4.2,8,8,16.1,10.1,24.9c1.1,4.6,0.7,5.3-3.9,5.7c-1.7,0.2-3.3,0.2-5,0.5c-3.9,0.8-7.5,0.2-11.2-1.5c-4.4-2.1-8.8-4-13.3-5.7
	c-8.9-3.3-17.9-5-27-0.2c-3.8,2-7.9,3.4-12.3,4.2c-1.9,0.4-3.9,1-5.6,2c-5.8,3.3-12.1,4.5-18.5,5.7c-5,0.9-9.7,2.6-14,5.1
	c-1.6,0.9-3.4,2-3.1,4.1c0.3,2.2,2.1,3.3,3.9,4.2c0.7,0.3,1.6,0.5,2.4,0.6c5.4,1,10.8,2.2,16.2,2.8c4.3,0.4,7.7,2.2,10.2,5.5
	c2.9,3.7,6.8,6.4,9.9,9.8c1.9,2.2,4,2.5,6.7,1.4c2.7-1.1,5.6-2.8,8.6-2c8,2,16.2,3.5,23.7,7.5c9,4.9,16.7,11.6,24.5,18
	c6.5,5.3,13.6,9.5,21,13.3c2.1,1.1,4.4,1.4,6.8,1.7c18,2.3,36.2,2.4,54.3,2.1c2.2,0,4.3-0.2,6.5-0.5c7.5-0.9,15-0.6,22.5-0.3
	c4.1,0.1,7.8,1.6,10.3,5.3c6.5,9.6,0,20.2-10.5,21.2c-6.8,0.6-13.6,0.9-20.4,1.2c-3.2,0.2-6.3,0.4-9.2,1.9
	c-9.9,5-18.1,12.4-27.7,17.8c-7.9,4.5-16.1,6.3-24.9,4.5c-9.2-1.9-8.8,0.6-7.9,7.6c0.8,6.1-2.8,12.4-8.8,14.1
	c-3.5,1-7.1,1.9-10.5,3.2c-3.1,1.2-6,1.6-9.2,1.1c-5.6-0.8-11.3-1.3-16.9-0.4c-4.7,0.8-9.5,1.4-14.2,1.8c-10.8,1-21.5,2.4-32,5.2
	c-2.3,0.6-4.6,0.9-6.9,1.3c-5.7,1.1-11.3,2.5-16.9,3.9c-5.8,1.4-11.5,3.4-17.1,5.5c-6.3,2.4-12.8,5-16.4,11.5c-1.5,2.8-4,3.9-7,3.8
	c-6,0-12,0.2-18-0.2c-3-0.2-3.7,0.5-2.5,2.9c4.2,8.5,6.6,17.8,12.1,25.7c4.1,5.9,9.2,7.7,15.9,5.1c4.4-1.7,8.6-3.7,13.3-4.2
	c13.3-1.5,24.9-7,35.8-14.3c5.3-3.5,10.6-5,16.9-3.6c4.2,0.9,7.2,2.3,7.7,7c0.2,1.3,1.1,2.4,1.6,3.6c3,7.9,4.3,15.9-0.7,23.4
	c-4.9,7.3-10.7,14.2-17.5,19.7c-8.4,6.8-17.6,12.7-26.9,18.1c-3.2,1.8-4.6,4.1-3.8,7.7c0.3,1.3,0.4,2.6,0.6,3.9
	c0.4,2.4,1.7,3.6,4.2,4.3c6.2,1.7,12.5,1.7,18.8,1.5c5.5-0.1,11-0.7,16.3-1.9c6.2-1.5,10.5,0.7,14.6,5.1c5.6,6,5.4,6.2-1.6,10.8
	c-4.7,3.1-9.7,5.9-13,10.7c-2.2,3.2-1.7,5.9,1.2,9.5c2.1,2.6,4.4,1.4,6.8,0.6c6.9-2.4,12.7-6.3,18-11.2c7.7-7.1,16-13.4,22.5-21.8
	c5.1-6.6,7.8-13.6,7.6-21.6c-0.2-10.2,1.5-20.3,1.2-30.4c0-1.3,0.3-2.6,0.5-4c2-14.5,5.7-28.8,8.5-43.1c1.3-6.5,3.6-12.4,7.5-17.8
	c3-4.3,7.4-7.2,11-10.8c4.6-4.7,10.4-5.6,16.4-6.4c2.4-0.3,4.2,0.7,5.5,2.6c1.9,2.7,3.8,5.5,5.8,8.1c2.7,3.5,3.8,7.3,3.6,11.6
	c-0.2,6,0,12,0,18c0,2.7,0.3,5.3,1.8,7.7c1.6,2.4,2.6,5.9,6.2,5.8c3.3-0.1,4.4-3.2,5.8-5.7c6-10.8,11.7-21.7,18.8-31.8
	c1-1.4,1.9-2.8,3-4c5.3-5.4,11.1-8.6,19.1-5.4c4.1,1.6,4.9,2.1,5.2,6.7c0.3,6,0.7,12,1.1,17.9c0.1,1.3,0.3,2.7,0.9,3.9
	c0.9,2.1,2.5,2.1,3.7,0.2c0.4-0.7,0.7-1.5,1-2.3c3-9.9,7.4-19.3,10.2-29.2c0.8-2.9,2.3-5.5,3.9-8.1c3.2-5.2,6.6-10.4,9.4-15.8
	c3.9-7.4,8.3-14.4,12.6-21.6c1-1.6,2.3-2.8,3.7-4c6.1-5.2,12.5-9.9,19.5-13.9c4-2.3,8-5,8.9-10.2c2.9-16.9,5.3-33.9,8.8-50.7
	c1.2-6,1.8-12.2,2.7-18.2c0.4-3.2,2-5.4,5-6.9c4.2-2.1,8.1-4.8,12.4-6.5c4.8-1.9,6.7-5.3,7.5-10.2c2-11.1,4.5-22.2,6.6-33.3
	c0.8-4.4,2.4-8.3,5.5-11.5c1.9-1.9,2.6-4.1,2.9-6.7c1.3-12.9,2.5-25.8,4-38.7c0.7-6.1,0.3-12.5,2.5-18.3c1.9-4.8,3-9.8,4.4-14.7
	c3.2-11.4,6.8-22.7,10.2-34c0.9-2.9,1.6-5.8,2.6-8.6c1.2-3.4,2.7-4.4,6-3.7c5,1.2,9.9,2.7,14.9,4.1c2.2,0.6,2.5,2.1,1.3,3.8
	c-1.9,2.6-3,5.6-4.7,8.2c-4.7,7.6-8.8,15.5-11.1,24.3c-2.3,8.8-4.1,17.4,1,26c3.6,6,3.1,12.6,0,18.7c-5,9.4-5.7,19.7-6.7,30
	c-0.2,1.7-0.4,3.4,1.5,4.4c1.8,1,3.5,0.9,5.2-0.2c1.7-1.1,3.2-2.4,4.3-4.1c0.8-1.2,1.7-2.5,2.8-3.5c2.8-3,3.6-3.2,7.4-1.4
	c3.9,1.8,7.8,3.7,11.7,5.7c1.8,0.9,3.3,0.7,3.9-1.4c1-3.2,2.2-6.4,2.5-9.6c0.9-7.8,2.7-15.4,4.4-23c1.3-5.7,2.5-11.4,3.5-17.1
	c1.1-6.4-1.1-12.1-3.9-17.7c-3.3,9.3-6.1,18.5-8.7,27.8c-2.9,10.7,0,10.7-13.7,10.6c-5.6-0.1-6.1-0.7-5-6.2c1.2-6.2,3-12.3,4.1-18.5
	c2.9-16.2,5.7-32.5,9.9-48.4c1.1-4.2,1.1-4.3,5.1-3.5c1.5,0.3,2.9,0.7,4.4,1c4.4,1,8.8,1.9,13.2,2.8c2.5,0.5,3.9-0.5,3.8-3.1
	c0-1-0.1-2-0.1-3c-0.9-13.3-1.6-26.6-2.9-39.8C722.1,898.4,722.4,890.7,720.5,882.1z M217.2,309c7.6-0.2,15.2-1.2,22.9-1.2
	c2.8,0,5.8-0.6,7.5-3.2c7.5-10.9,16.3-20.9,22.2-33c8-16.6,19.9-30.1,35.1-40.6c15.6-10.8,30.8-22.1,45.9-33.6
	c5.6-4.3,5.5-5.1-0.2-9.2c-1.9-1.4-3.7-1.3-5.6-0.4c-2.1,0.9-4.4,1.7-6.3,2.9c-4.7,2.9-9.7,3.4-14.9,2.4c-11.1-2-19.7,2.3-27.1,10.3
	c-3.9,4.2-6.9,9.5-12.3,12.2c-7.5,3.7-13.8,9.3-21.6,12.5c-2.5,1-3.6,2.7-3.2,5.5c0.3,2.1,0,4.3,0.3,6.5c0.4,4.1-1.4,6.5-5.1,8.1
	c-4.7,2.1-9.4,4.4-13.8,7c-6.2,3.7-10.1,9-10.1,16.6c0,5.6-2,10.8-3.6,16c-0.4,1.5-1.3,2.8-2.6,3.6c-3.1,1.7-5.3,4.5-7.6,7.1
	c-2.2,2.3-4.4,4.5-7.1,6.2c-1.1,0.7-2.3,1.7-1.7,3.2c0.5,1.3,1.9,1.2,3,1.2C213.2,309,215.2,309,217.2,309z M449.4,13.4
	c-1.2-1.7-2.8-1.4-4.2-1.4c-19,0-38,0-57-0.1c-3.1,0-5.2,1.1-6.9,3.9c-2.1,3.4-5.6,5.4-9.5,5.9c-4.9,0.6-9.9,1.4-14.9,1.3
	c-8.3-0.1-16.7,0.1-25-0.1c-4.4-0.1-8.5,0.8-12.6,2.5c-14,5.8-27.9,11.9-42.2,16.8c-3.5,1.2-7,2.3-10,4.4
	c-12.1,8.4-25,15.8-36.2,25.6c-7,6.1-10.7,13.4-12.2,22.2c-0.4,2.1,0.3,3.6,2.1,4.5c1.5,0.8,2.9,1.8,4.5,2.1
	c6.6,1.4,12.9,2.2,18.7-3c4.7-4.2,8.7-8.7,11.9-14c2.3-3.7,5.3-6.8,8.6-9.6c9.3-7.7,19.8-13.5,29.6-20.3
	c20-13.7,41.9-22.3,66.1-25.4c3.2-0.4,6.3-0.5,9.4,0.6c5.8,2,11.8,1.8,17.8,1.3c7.8-0.6,15.5-2.5,23.4-0.9c2.2,0.5,4.3-0.2,6.2-1.4
	c4.2-2.6,8.9-4.8,12.7-8c4.3-3.6,9.1-4.7,14.2-5.3C445.7,14.9,447.8,14.9,449.4,13.4z M370.4,343.9c-1.5,0-3,0-4.5,0
	c-2.4,0.1-5,0.3-5.2,3.4c-0.2,3.2,2.8,2.9,4.7,3.2c7.9,1.1,15.6,3.4,23.4,5.1c14.6,3.3,29.1,7,43.6,10.8c8.8,2.3,17.7,4.4,26.3,7.8
	c15.2,6,30.4,11.9,45.9,16.9c2.4,0.8,4.7,1.6,6.9,3c13.3,8.8,26.2,18.4,38.7,28.2c9.8,7.7,18.5,16.7,27.7,25.2
	c2,1.8,3.6,3.9,5.1,6.1c8.5,12,16.9,23.9,25.5,35.8c3.6,5,8.1,9.3,13.1,12.9c3.4,2.4,3.7,2.4,6.8-0.3c0.6-0.5,1.3-1.1,1.9-1.6
	c3.7-3.3,3.7-5.1-0.5-7.6c-3.1-1.9-4.9-4.3-5.5-7.8c-0.5-3.2-2.2-5.8-4.2-8.4c-2.8-3.8-6.3-6.8-9.4-10.3
	c-10.7-12.3-21.3-24.6-33.1-35.9c-1.9-1.8-3.4-4.2-5.6-5.7c-6.5-4.7-12.1-10.4-17.9-15.9c-5.2-4.8-10.6-9.2-16.8-12.4
	c-10.6-5.3-21.3-10.4-32.2-14.7c-13.8-5.5-27.9-10-42.1-14.1c-22-6.4-43.7-14.1-66.2-18.8C388.1,346.9,379.6,343.7,370.4,343.9z
	 M204.6,532.9c9.7-3.5,19.9-3.3,30-3.9c2.2-0.1,4.4,0,6.2,1.5c3.4,3,6.6,6.1,8.8,10.1c1.1,2.1,1.2,4,0.1,6.2
	c-2.9,5.6-4.8,6.7-11.2,5.7c-4.5-0.7-9-1.1-13.4,0c-7.7,1.9-15.6,1.5-23.4,1.4c-4.6-0.1-6.6-1.9-7.3-6.5c-0.2-1.5-0.1-3,0-4.5
	c0.1-3.9-0.6-4.7-4.3-3.4c-5,1.9-10.2,2.7-15.5,3.6c-3,0.5-6-0.1-8.9,0.7c-6.4,1.7-12.9,1.5-19.3,0.3c-3.5-0.6-6.9-0.8-10.4-0.6
	c-3.5,0.2-8,3.3-8.5,5.9c-0.8,3.7,1.5,8.6,4.8,10.6c5.8,3.6,12,4.7,18.7,3.5c5.5-1,10.9-0.8,16.4,0.3c6.7,1.3,13.4,2.7,20.1,3.9
	c8.7,1.6,17.5,2.5,26.2,3.7c4,0.6,8,0.7,12,0.1c3.3-0.4,6.6-0.6,10-0.8c5.2-0.2,10.2-1.3,15.3-2.4c2.4-0.5,4.6-1.6,5.8-3.6
	c3.4-5.5,7.6-8.9,14.6-8.2c3.1,0.3,3.8-1.5,2.3-4.2c-3-5.2-6-10.4-13.3-10.4c-4.2,0-6.6-2.7-7.4-6.8c-0.2-0.8-0.6-1.6-0.7-2.4
	c-0.8-7.1-4.3-10.9-11.8-10.3c-0.8,0.1-1.6-0.4-2.5-0.4C225.4,522,213.6,522.7,204.6,532.9z M270.5,1277.8c6.1,0,14.9-3,22.6-7.2
	c12.4-6.8,25.6-11.2,39.4-13.9c7.5-1.5,15.2-2,22.8-3c2.8-0.4,5.7-0.6,8.2-2c1.3-0.7,2.8-1.5,2.5-3.3c-0.2-1.5-1.6-2.1-2.9-2.5
	c-2.1-0.7-4.2-1-6.4-1.1c-8.3-0.6-16.6-0.9-24.8-2.1c-5.3-0.8-10.5-2-15.8-2.3c-6.4-0.3-12.6-1.2-18.6-3.2c-3-1-6.1-1.5-9.2-2.2
	c-5-1.3-8.7-0.4-11.6,4.1c-1.1,1.8-3.1,3-4.9,4.2c-6.9,4.6-14.4,8.3-22,11.7c-3.2,1.4-6.6,2.4-9.8,3.8c-3.6,1.5-3.6,2.1-0.8,4.7
	c7.2,6.8,16,10.6,25.3,13.5C266.5,1277.5,268.5,1277.9,270.5,1277.8z M541.4,1664.5c0.2-1.4-0.3-2.6-1.5-3.3
	c-2.7-1.7-5.2-3.8-8.4-4.2c-5.6-0.7-9.4-2.9-12.3-8.4c-4-7.4-7.4-14.8-10.1-22.7c-1.6-4.7-0.8-8.8,1.8-12.8c2-3.2,4.4-6.3,5.8-9.8
	c2.2-5.4,4-10.9,5-16.7c0.6-3.7-2.2-7.8-5.1-8.1c-3.9-0.3-11,3.8-12.8,7.4c-2.8,5.5-4.6,11.5-7.1,17.1c-3.6,7.9-2.5,15.6,0.1,23.3
	c0.7,2,1.4,4.1,2.4,6c2.7,5.1,2.5,11,4.2,16.4c0.5,1.5-0.2,3-1.1,4.2c-1.3,1.7-2.6,3.4-4.1,5c-6,6.5-11.3,13.5-17.6,19.7
	c-1.5,1.5-2.6,3.5-3.6,5.4c-1.4,2.7,0.2,4.8,1.7,6.8c1.6,2,3.5,1.2,5.4,0.4c3.7-1.6,6.3-4.2,8.5-7.4c3.8-5.6,8.8-10,14.5-13.5
	c3.7-2.3,7.4-2.8,11.4-0.7c2.8,1.5,5.8,2.6,8.5,4.1C533.3,1676,541.2,1671.6,541.4,1664.5z M687.9,1210.6c0.2,1.4,0.5,3.8,1,6
	c0.7,3.6,1.6,4,4.7,2.1c3.4-2,6.4-5,10.2-6.2c8.2-2.6,12.5-8.9,16.6-15.7c1-1.7,0.8-3.1-0.5-4.5c-1.4-1.4-2.7-3-4.2-4.3
	c-6.4-5.2-10.1-12.2-13.3-19.6c-1.2-2.9-2.5-5.8-3.9-8.6c-3-6.1-5.3-12.4-6.2-19.3c-1.1-8.5-1.2-16.8,0.6-25.2
	c1.8-8.2,4.5-16,7.4-23.8c0.9-2.3,0.9-4.1-1-5.9c-1.8-1.7-3.6-3-6.2-1.8c-5.6,2.6-11.7,3.8-17.6,5.6c-4.2,1.3-5.2,3.3-4.2,7.5
	c0.6,2.3,1.8,4.3,2.9,6.3c2.9,5,5.7,10.2,8.9,15c2.8,4.2,4.2,8.6,3.8,13.6c-0.1,1.6-0.1,3.3,0.1,5c0.3,2.9-0.2,5.6-2,8
	c-2.1,2.9-1.8,5.9,0.4,8.7c1.7,2.3,3.3,4.6,4.7,7.1c3.8,6.6,6.4,13.2,4.3,21.3c-1.7,6.2-2.8,12.7-4.6,18.9
	C688.9,1203.8,688,1206.7,687.9,1210.6z M185.5,21.4c-1.5-0.9-1.8-1.1-2.1-1.2c-0.8-0.1-1.6-0.2-2.5-0.2c-13.6,0-27.3-0.8-40.6,3.2
	c-1.4,0.4-2.9,0.6-4.4,0.7c-2.6,0.2-4.6,1.5-6.6,3.2c-4,3.4-6.4,8-9.9,11.8c-2.1,2.3-3.5,4.8-3.8,7.9c-0.5,7.4-2.7,14.3-6,21
	c-2.8,5.8-1.8,12.1-1.5,18.2c0.1,1.7,0.9,3.4,2.8,3.7c1.9,0.3,2.4-1.6,3-2.9c3-6.6,7.4-12.2,12.1-17.6c3.7-4.1,6.5-8.7,8.7-13.8
	c2.5-5.6,5.3-10.9,9.3-15.8c4.6-5.5,9.3-8.5,16.6-7.7C170.7,33.1,177.1,26.1,185.5,21.4z M274.9,21.3c-1.3,0.2-2.6,0.5-3.8,0.7
	c-7.3,1.3-14.7,3.2-22.1,3.8c-7.1,0.6-13.5,3-18.9,7c-10.5,7.6-21.8,14.1-32.3,21.7c-9.4,6.9-18.9,13.6-28.8,19.7
	c-4.9,3-9.4,6.2-13.2,10.4c-4.8,5.3-2.9,12.5,4,14.6c4.2,1.3,8.8,0.1,11.6-3.6c2-2.5,4.1-4.8,6.4-7c4-3.8,7.3-8.1,10.6-12.6
	c7.2-9.8,15.5-18.7,25.5-25.8c3.1-2.2,6.1-4.6,9.2-6.9c4.4-3.3,8.9-6.4,14.5-7.4C251,34,263.3,28.8,274.9,21.3z M198,156.8
	c3.5,0.2,5.3-1.1,6.5-3.4c2.7-5,6.4-9.3,10.7-13c3.9-3.4,6.2-7.7,8.3-12.3c1.6-3.5,0.5-6.1-3.1-6.7c-7.1-1.2-13.9-0.4-20,3.9
	c-6.5,4.5-11.6,10.3-16.4,16.5c-1.7,2.3-2.7,4.9-3.3,7.7c-0.4,1.9,0.3,3.3,2.2,3.9C188.1,154.9,193.4,156.2,198,156.8z M272.4,148
	c4.9,0.4,9.7-0.4,14.4-1.2c5.5-1,10.5-3.8,14.2-7.8c4.5-4.9,8-10.6,10.8-16.7c1.2-2.7,1.3-5.5,0.8-8.3c-1-5-4.8-6.4-8.8-3.2
	c-2.5,2-3.4,4.9-4,7.8c-0.5,2.5-0.9,5-3.3,6.4c-3.6,2.1-7.2,4.9-11.2,5.3c-8.5,0.8-16,4.1-23.3,8c-1.3,0.7-2.8,1.2-4.1,1.9
	c-0.9,0.5-1.8,1-2.4,1.7c-1.9,2.3-1.1,4.7,1.9,4.9C262.5,147.2,267.4,148.5,272.4,148z M170.4,115.6c-6.3-2.8-12-4-18.1-3.5
	c-9.7,0.8-18.4,4.3-27,8.4c-6.1,2.9-11.4,6.8-16.7,10.8c-8.2,6.1-8.4,9.5-2.3,17c2.6,3.2,3.3,3.3,6.3,0.4c3.6-3.5,7-7.1,10.6-10.6
	c4.8-4.7,10.1-8.3,16.9-10C150.4,125.7,160.3,121.9,170.4,115.6z M200.9,1737.2c-0.1-1.9,0.1-3.9-1.9-4.8c-2-0.9-3.9-0.4-5.7,0.8
	c-1.3,0.9-1.9,2.2-2.6,3.6c-2.8,5.7-5.9,11.2-9.9,16c-4.2,5.1-8.6,10.1-12.7,15.3c-3.5,4.5-3.5,9-0.8,14.3c3.4,6.6,9.3,7.3,15.2,8.7
	c2.4,0.6,3.3-1,3.4-3.2c0.2-3.5-0.2-7-1.6-10.3c-1.6-3.6-0.8-6.6,1.3-9.8c4.3-6.7,9.1-13.1,12.5-20.3
	C199.7,1744.2,200.7,1740.8,200.9,1737.2z M238.9,1736.1c-0.1-6.5-3.9-10.8-9.9-11.5c-1.6-0.2-3.3-0.6-4.9-0.7
	c-6.1-0.3-8.1,2.4-5.5,7.9c1.6,3.2,1.8,6.3,0.8,9.6c-2.8,9.7-5.5,19.5-8.2,29.2c-0.5,1.9-1.2,3.8-1.1,5.9c0,1.3,0,2.9,1.5,3.4
	c1.5,0.5,2.4-0.8,3.2-1.8c2.9-3.4,5.4-7.2,8.7-10.2c6.9-6.4,11.4-14.2,13.5-23.4C237.6,1741.6,239.1,1738.9,238.9,1736.1z
	 M265.5,1732.8c-0.3,3.4-2.2,5.8-4.2,8c-3.3,3.5-6.6,7-9.7,10.7c-1.5,1.8-2.4,3.4-1.1,5.8c2,3.5,3.8,4.7,7.5,4.5
	c2.8-0.2,4.1-1.8,4.7-4.3c1-3.9,2.2-7.7,3-11.6c1-4.6,4.2-7.8,6.3-11.8c0.4-0.8,1.5-1.5,2.4-1.7c7-0.9,9.2-7.1,12.8-11.6
	c2.4-3.1,2.1-7.3-0.2-9.8c-2.7-2.9-5.7-5-10.1-3.6c-6.5,2-14.9,11.1-12.7,20.7C264.8,1729.8,265.2,1731.4,265.5,1732.8z
	 M555.9,1613.7c0,0,0.1,0,0.1,0c0,1.8-0.2,3.7,0,5.5c0.5,3.7,3.6,5.3,6.9,3.6c6.2-3.2,9.7-11.5,7.5-18.2c-0.7-2.3-2.1-3.7-4.7-3.4
	c-6.6,0.6-9.8,4-9.9,10.6C555.9,1612.4,555.9,1613.1,555.9,1613.7z M591,1478.9c-0.1-2,0.1-4-0.7-5.9c-0.8-1.9-2-2.9-4.2-2.6
	c-5.4,0.8-10.6,7.8-9.9,13.2c0.3,2.2,1.3,3.8,3.7,4C586.8,1488.3,591.6,1487.5,591,1478.9z M571.8,1580.3c-6.3-0.3-9.3,2.5-9.2,8.2
	c0,1.2,0.2,2.2,1.4,2.9c4.7,2.7,13.1,1.8,17.2-2c1.5-1.4,1.9-3.1,1.6-5c-0.3-1.7-1.6-2.4-3.2-2.7
	C576.8,1581.3,574,1580.7,571.8,1580.3z M612.9,1530.5c0-1.2,0.1-2.3,0-3.5c-0.3-3.4-2.4-5-5.7-4.7c-2.8,0.3-4.3,2.2-4,5.3
	c0.3,3.7,1.9,7.1,4,10.1c1.5,2.1,3.2,1.9,4.7-0.5C613.1,1535.2,612.9,1532.8,612.9,1530.5z M565.1,1646.2c-0.1,3.2,1.7,5.1,4.7,5.2
	c3.4,0.1,6.9-3.1,6.9-6.4c0-3.3-2.9-7.1-5.6-7.3C568,1637.5,565.2,1641.5,565.1,1646.2z M336.6,357.7c15.1,0,30.1,0,45.2,0
	c-6.2-2.4-12.6-4.9-19.2-3.9C353.8,355,345.2,356.7,336.6,357.7z M590.7,1548.4c2.5,0,4.9-2.3,4.8-4.5c-0.1-2.2-1.4-3.3-3.5-3.4
	c-2.2-0.1-4.6,2.2-4.5,4.5C587.5,1547.2,588.9,1548.3,590.7,1548.4z" />
    <path fill-rule="evenodd" clip-rule="evenodd" fill="none" d="M1,1835.8c61,0,122,0,183-0.1c2,0,4,0,6-0.1c1.4,0,2.9-0.3,3.5-1.6
	c1.3-3,4-3.2,6.5-3.9c13-3.6,25.7-8.2,37.4-14.9c1.7-1,3.6-1.7,5.5-2.5c13-5.5,23.4-14.7,32.4-25.2c3.8-4.4,4.6-10.5,3.8-16.5
	c-0.1-0.8-0.7-1.7,0.1-2.3c0.8-0.6,1.6-0.3,2.3,0.2c11.8,7.1,23.5,3.4,35.2-0.2c14.2-4.3,26.9-11.8,38.1-21.4
	c7.9-6.8,10.7-15.8,8.6-26.1c-0.2-1-0.7-1.9-0.8-2.9c-0.2-1.6,0.6-2.1,2.2-1.5c9.5,3.3,18.8,1.8,27.3-2.8
	c12-6.5,23.7-13.5,34.6-21.8c6.8-5.2,12.9-11.1,18.2-17.7c2-2.5,4.6-3.7,7.5-4.6c1-0.3,2-0.4,2.7,0.7c0.6,1,0.2,2-0.5,2.8
	c-0.9,1-1.7,2.1-2.8,2.8c-7.2,4.6-11.7,11.7-17.2,18c-8.7,9.9-16.2,20.7-23,32c-1.7,2.8-3.9,5.4-6.3,7.7c-3.7,3.6-6,7.9-7.8,12.6
	c-0.8,2-1.7,4-2.8,5.8c-2.5,4.4-7,5.1-10.9,1.9c-1.9-1.6-3.8-3.3-5.7-4.8c-1.9-1.5-3.9-1.5-5.9,0.1c-1.8,1.5-4,2.7-3,5.6
	c0.2,0.8,0.4,1.6,0.5,2.4c0.7,7.6-0.4,14.8-6.8,19.9c-7.1,5.6-13.1,12.3-19.8,18.3c-12,10.6-23.4,21.8-35,32.8
	c-1.8,1.7-4.5,3.6-3.5,6.1c1,2.5,4.2,1.2,6.4,1.2c14,0.1,28,0,42,0.1c4.8,0,8.2-1.9,11-5.6c9.2-12.5,18.3-25,27.8-37.3
	c9.9-12.8,18.7-26.3,26.8-40.3c7.5-12.8,15.7-25.1,24.1-37.3c2.8-4,6.2-7.6,10-10.4c8.8-6.6,22.4-2.7,24.6,8.3
	c1.1,5.3,1.9,10.4,0.9,15.8c-1,5.7-1.5,11.5-2.1,17.3c-0.3,3-1.7,5-4.6,5.8c-9.8,2.7-19,7.2-28.2,11.6c-8.7,4.2-18.4,7.1-25.3,14.4
	c-2.5,2.7-5.1,5.2-7.6,7.9c-2.6,2.9-4.3,6.2-5,10.1c-0.9,5.1-2,10.1-3.2,15.2c-1.9,7.9,0.4,14.7,4.4,21.4c1.3,2.2,3,3,5.3,2.9
	c0.8,0,1.7,0,2.5,0c33,0,66,0,99,0c1.2,0,2.3,0,3.5-0.1c2.3,0,3.8-1.1,4.3-3.4c0.7-3.8,2-7.4,3.2-11c1.8-5.3,0.6-7.8-4.4-10.2
	c-2.2-1.1-2.2-2.5-1.9-4.5c1-7.2-2.2-12.8-6.8-18c-1.8-2-3.6-2-5.7-0.5c-0.4,0.3-0.8,0.6-1.2,0.8c-5,3.3-5.2,3.7-3,9.3
	c1.4,3.6,2.8,7,3.1,10.9c0.2,3-0.2,5.3-3,6.7c-3.2,1.6-3.8,4-3.1,7.5c1.3,6.2-0.4,7.4-6.8,7.3c-7.7-0.2-13-2.9-16.6-10.1
	c-3.2-6.4-4.7-6.3-11.8-5.1c-3.7,0.6-7,2.2-10.3,3.7c-3.5,1.5-7.1,1.9-10.8,1.6c-4.5-0.3-6.9-3.8-5.3-8c1-2.7,2.7-5.1,5.8-5.7
	c4.7-1,9.5-2,14.3-0.4c0.6,0.2,1.3,0.3,1.9,0.5c6.2,1.4,11.1-3.7,9.1-9.8c-1.5-4.6-3.7-8.9-7.2-12.4c-3.8-3.8-3.8-4.1-1.2-8.5
	c4.4-7.4,9.2-8.9,17.2-5.3c5.1,2.4,10.5,2.1,15.7,1c3.6-0.8,5.9-3.6,7-7.2c1.7-5.5,3.1-4.5,6.5-1.7c3.7,3.1,7.5,6.2,10.7,9.6
	c4.8,5.2,11.3,7.6,16.8,11.5c1.1,0.8,2.5,0.6,3.9,0.5c7.3-0.3,14.6-1.5,21.8-2.5c2.6-0.3,4.7-1.4,6.3-3.6
	c4.4-6.1,8.8-12.1,12.2-18.9c1.5-3.1,2.4-6.1,2.3-9.6c-0.2-5.7,0.3-11.3-0.4-17c-0.5-4.2-2.1-7.3-6.5-8.3c-0.6-0.1-1.2-0.5-1.9-0.7
	c-5.9-2.2-6.9-1.9-8.1,4.4c-1.2,5.8-4.2,10.5-8.2,14.5c-2.1,2.1-3.9,4.6-6,6.7c-3.9,4-9.3,6.7-14.2,3.4c-2.7-1.9-2.9-3.6,0.2-5
	c3.3-1.6,6.4-3,8.6-6.4c3.2-4.8,3.7-9.9,3.3-15.3c-0.2-3.1-2.1-4.8-4.6-6c-2.8-1.3-4.3,0.7-6,2.3c-3,2.9-5.8,5.8-7.4,9.9
	c-1.4,3.5-2.8,3.4-5.4,0.7c-2-2.1-2.5-4.6-2.1-7.4c0.6-4.4,3.5-7.9,5.2-11.8c0.6-1.4,2.2-1.3,3.5-1.4c5.5-0.4,11-0.7,16.4,0.7
	c1.9,0.5,3.9,0.8,5.9,1.2c5.1,0.9,5.8,0.3,4.9-4.7c-0.7-3.8-1.3-7.5-1.1-11.4c0.3-5.5,2.6-8.2,8.1-8.9c2.8-0.4,5.6-0.7,8.4-1.1
	c1.2-0.2,2.3-0.3,3.4-0.7c6.6-2.1,7.2-3.5,3.9-9.6c-1.1-2-2.6-3.9-3.7-5.9c-1.2-2.2-0.2-3.6,2.3-3.3c1.7,0.2,3.2,1,4.6,1.8
	c3.5,2,6.9,4,10.4,6c1.8,1,3.6,1.8,5.7,1.5c4.3-0.6,8.6-1.2,12.8-1.9c2.1-0.3,3.6-1.8,4.9-3.3c5.9-6.8,11.9-13.4,15.8-21.7
	c3.6-7.7,7.1-15.4,11.6-22.6c1.6-2.6,2.2-5.4,2-8.6c-0.4-6.6-0.4-13.2-3.4-19.5c-2.2-4.8-6.5-5.8-10.8-7.2c-1.3-0.4-2.2,0.7-2.5,1.9
	c-0.3,1.4-0.7,3-0.6,4.4c0.2,5.2-1.5,9.7-4.1,14.1c-5.1,8.7-11.5,16.3-19,23.1c-1.5,1.4-3.2,2.3-5.3,2.4c-2.6,0.1-4.6-0.6-5.4-3.4
	c-1.1-3.4-0.8-5.3,1.9-7c5.4-3.3,9.5-8.3,14.8-11.7c2.1-1.3,2.6-3.2,2-5.6c-0.8-3.1-1.4-6.2-2.8-9.1c-3.1-6.3-4-13-4.3-19.8
	c-0.2-3.5-1-6.9-1.4-10.4c-0.6-4.6,0.9-6.2,5.6-5.5c3.8,0.6,7.6,1.3,11.3,2.2c3.2,0.8,6.1,0.4,9.2-0.8c8.5-3.2,15.6-8,20.8-15.7
	c2.8-4.1,3.4-8.7,3.3-13.3c-0.1-2.8-1.2-5.8-4.5-6.5c-3.3-0.8-6.7-0.8-9.3,2c-1.3,1.5-2.3,3.3-3.6,4.8c-2,2.4-4.4,3-6.1,1.7
	c-1.8-1.4-2.4-4.6-0.7-6.7c2.2-2.7,3.1-5.8,3.7-9.1c0.5-2.4-0.1-4.2-2.1-5.7c-1.9-1.4-3.8-2.7-5.9-3.8c-6.4-3.3-6.6-5.1-1.1-9.5
	c5-3.9,7.5-9.2,9.1-15.1c0.8-3,0.3-5.2-2.9-6.4c-0.9-0.3-1.8-1-2.6-1.6c-4.1-3.1-8-3.7-12.6-0.4c-4.8,3.4-8.1,1.8-9.7-3.8
	c-0.5-1.9-1-3.9-1.3-5.9c-0.4-3.9,1-5.3,4.9-4.7c2.3,0.4,4.5,1.1,6.8,1.7c6.8,1.7,11.9-2.1,12-9.1c0.1-2.2,0-4.4,0.3-6.5
	c0.5-3.1,1.8-3.8,4.9-3.3c0.2,0,0.3,0.1,0.5,0.1c3.2,0.8,6.3,2.3,9.3-0.9c3.3-3.5,6.3-7,4.9-12.3c-0.6-2.3-0.7-4.6-1.2-6.9
	c-1.1-4.2-5.5-7.1-9.9-6.7c-5.8,0.6-10.7,2.3-13.1,8.3c-0.9,2.1-2.4,4-3.6,6c-1.9,3-5,4.1-8.2,3.7c-3.5-0.4-5.5-3.5-7.5-6.2
	c-0.7-0.9-0.1-1.9,0.5-2.8c1.5-2.2,2.8-4.6,4.7-6.4c9.5-8.9,17.5-19.1,26.8-28.2c1.7-1.6,2.9-3.7,4.3-5.5c0.7-0.9,1.4-2,2.8-1.6
	c1.1,0.3,1.4,1.4,1.6,2.4c2.4,11.5,7.3,22.1,11.3,33c3.2,8.7,4.7,18.1,8.5,26.6c3.8,8.5,10.1,15.6,15.7,23c1.2,1.6,3.1,1.8,4.9,2.1
	c4,0.5,7.9,1.1,11.9,1.8c4.8,0.9,9.3,0.1,13.5-2.3c6.3-3.7,12.9-7,18.7-11.4c4.6-3.5,8.8-7.6,13.2-11.3c2.7-2.3,3.4-5.2,3-8.6
	c-0.4-3-0.6-6-0.9-8.9l0.1-0.2c7.8,5.7,10.9,5.8,13.4-5.5c1.8-8.3,3.7-16.5,4.7-25c0.4-3.4,0.4-6.6-0.2-9.9c-1-6.3-4.2-8.1-10.2-5.8
	c-0.6,0.2-1.2,0.5-1.8,0.7c-1-1.5,0-2.7,0.3-3.9c2.1-9,5-17.9,6.5-27.1c0.6-3.5,0.1-7,0.2-10.5c0.6-18.5-1.1-36.9-1.2-55.4
	c-0.1-9.1-2.1-18.2-3.2-27.3c-1.2-10.6-4.9-20.7-6.8-31.2c-0.7-3.5-2.7-6.4-5.1-9c-3.5-3.9-6.8-7.8-8.3-12.9
	c-0.6-1.9-1.2-3.8-1.2-5.8c-0.2-4.7,0.8-5.7,5.5-6.5c3.1-0.5,6.2-1.2,9.3-1.7c1-0.2,1.9-0.6,2.7-1.3c0.6-0.6,1.2-1.2,1.8-1.7
	c14.3-10.9,20-27,25.8-43c3.4-9.4,5.2-19.3,7.8-28.9c1.1-4,1.2-7.9,0.2-11.8c-2.9-11.8-4.9-23.8-10.5-34.8c-0.8-1.5-1.4-3-2.2-4.5
	c-1.1-2.3-2.9-3.1-5.4-2.2c-4.6,1.6-9.1,3.2-13.7,4.8c-2.6,0.9-3.4,2.7-2.8,5.5c2,9.1,3.9,18.2,6.6,27.1c1.1,3.5,0.2,7-0.4,10.4
	c-1.3,7.1-3.1,14-9,19c-3.6,3.1-3.8,3.3-7.7,0.8c-1.4-0.9-2.8-1.8-4.2-2.8c-11.1-7.5-8-4-9.9-16.6c-0.7-4.9-1.2-9.8-3.2-14.5
	c-2.4-5.4-1.5-7.4,3.3-11c5.4-4.1,10.8-8.4,16.3-12.4c2.4-1.8,4-3.9,4.9-6.7c1.2-4,2.7-7.9,3.9-11.9c1.8-6.1,4.1-11.9,8.9-16.5
	c2.2-2.1,3.4-5.1,3.4-8.1c0.1-7.8,2.1-15.4,2.8-23.1c1.7-18.1,5.4-35.9,9.4-53.6c4.2-18.3,8.1-36.7,9.8-55.5c1.9-20.4,5-40.6,6.6-61
	c1.3-17.1,2.5-34.2,4.4-51.2c0.6-5.1,1.3-10.2,0.8-15.4c-0.1-0.8-0.1-1.7,0.1-2.5c3.1-10.8-1.8-19.8-6.5-28.8
	c-1.5-2.9-3.4-5.7-5.3-8.5c-2.3-3.2-3.2-3.3-6.6-1.2c-1.5,1-2.9,2.3-4.5,3.2c-3,1.8-3.8,4.4-3.6,7.6c0.4,4.7,1.2,9.3,2.4,13.8
	c0.9,3.2,1.5,6.6,2.7,9.6c3,7.4,0.5,14.4-1.4,21.5c-0.3,1.1-1,2.1-1.6,3.1c-0.7,1.2-1.4,2.4-3,2.2c-1.6-0.2-1.9-1.7-2.3-3
	c-1.1-3.1-1.2-6.2-0.5-9.4c0.9-4.4,0.3-8.5-0.8-12.8c-1.8-6.9-3.4-13.8-4.2-21c-0.6-5.6-3.9-10.2-7.3-14.6c-1.3-1.8-2.2-0.3-3.3,0.4
	c-5.6,3.5-8.8,9.1-11.8,14.6c-2.5,4.7-5.8,8-10.4,10.4c-3.6,1.9-6.4,4.6-9,7.8c-2,2.6-2,4.6-0.3,7.2c2.2,3.5,4.5,7,7.1,10.2
	c3.7,4.6,3.4,6.5-2,8.5c-3.3,1.3-4.8,3.3-5.2,6.5c-1.1,7.6-2.3,15.1-3.4,22.7c-0.5,3-1,5.9-4,7.7c-2,1.2-3.7,1.3-5-1.1
	c-2.7-5.1-4.2-10.5-4.7-16.2c-0.2-2,0.6-3.7,1.8-5.1c2.4-2.8,3.6-6.4,6.2-9c1.7-1.7,1.4-3.6,0.4-5.5c-1.4-2.8-2.6-5.8-4.3-8.5
	c-3.1-5.2-2.5-10.6,0-15.3c3.5-6.8,6.4-13.9,9.7-20.8c5-10.6,13.1-18.4,23-24.3c3-1.8,4-4.1,4-7.3c0-4.7,0.1-9.4-3.6-13
	c-1.3-1.2-3.1-1-4.8-1.1c-1.3-0.1-2.7,0.3-4.1-0.8c0.6-1.8,2.1-2.4,3.7-2.6c3.5-0.5,11.6,3.8,12.8,7.2c1.9,5.3,5.3,10,6.7,15.6
	c1,4,8.7,8,12.6,7.3c2.1-0.4,2.4-2,2.6-3.8c0.6-8.8-0.5-17.2-4-25.4c-3.1-7.2-5.2-14.7-5-22.7c0.3-10.7-0.2-21.3,0.1-32
	c0.3-11.6,1-23.3,1.7-34.9c0.6-9.3,0.8-18.6-0.3-27.9c-0.3-2.6-0.3-5.3-0.4-8c-0.4-15-1.4-29.9-5.2-44.5c-0.8-3.2-1.9-5.7-4.1-8.2
	c-3-3.3-5.6-7-8.3-10.6c-1.1-1.5-2.1-3-2.8-4.7c-2.5-6.5-1.8-8.7,4.4-11.9c4.1-2.2,5.6-5.7,5.7-9.8c0-7.8,0.9-15.6,1.1-23.4
	c0.2-6.5,0.2-13.1,0.9-19.4c1.3-11.7,1.4-23.6,2.8-35.3c0.6-4.8-0.8-9.6-1-14.4c0-0.5-0.2-1-0.2-1.5c-0.5-9.1-0.3-9.1-10.1-10.8
	c-1-0.2-2-0.4-2.9-0.6c-6.2-1.1-7.6-0.2-8.1,5.9c-1,12.1-2.8,24.1-4.3,36.2c-0.4,3.4-1.9,6.7-2.7,10.1c-1.8,7.3-3.4,14.6-5.1,21.9
	c-1.2,5.2-3.5,10.1-5.9,14.8c-1.4,2.9-3.5,4.8-6.7,5.4c-1.3,0.3-2.6,0.7-3.9,1c-3,0.6-4.5,2.4-4.6,5.6c-0.1,4.9,0.3,9.4,3.1,13.8
	c5.4,8.5,6.3,18.5,7.7,28.2c1.3,8.6,2.5,17.2,5.2,25.4c2.9,8.7,4.1,17.9,5.8,26.9c2.4,12.7,4.7,25.5,7.5,38.2c0.7,3.1,2,5.9,2.5,9.1
	c1.3,8.8-0.6,17.3-2.8,25.6c-1.7,6.6-4.2,13-7,19.2c-1.5,3.4-7.3,7.2-10.8,7c-0.6,0-1.4-0.2-1.8-0.6c-3.1-2.8-6.6-5.8-6.3-10.3
	c0.6-9.5-1.7-18.6-3.5-27.6c-3-14.9-5.4-29.8-9.3-44.5c-3-11.3-7.7-22-12.6-32.6c-4.4-9.5-9.1-18.9-13.7-28.3
	c-1-1.9-2.1-3.8-3.3-5.6c-7.3-10.5-14.7-21-22.1-31.4c-2.2-3.1-3.7-6.2-3.6-10.1c0.1-3.3,2-4.6,4.7-5.7c2.6-1.1,4.5-0.9,6.7,1.2
	c4,3.9,6.5,8.9,9.2,13.6c5.7,9.8,11.5,19.5,16.7,29.6c3.1,6,8.2,8.4,14.1,10c1.9,0.5,3.6,0.2,5.1-1.1c1.5-1.3,3-2.7,4.6-3.8
	c4.6-3.3,6.9-7.1,6.2-13.4c-0.7-6.2-2.3-11.5-5.4-16.8c-4.7-8-8.1-16.8-13-24.8c-1-1.6-1.9-3.2-3.2-4.5
	c-11.6-11.5-22.1-24.1-34.1-35.1c-4.6-4.3-9.9-7.9-14.9-11.7c-20.9-15.5-41.8-31-62.6-46.4c-2.8-2.1-6-3.6-9.2-5
	c-19.5-8.1-39-16.4-58.5-24.5c-20.9-8.6-41.7-17.6-63.8-23c-11.1-2.7-22.3-5.5-33.1-9c-9.4-3-18.8-5.8-28.2-8.5
	c-3.5-1-6.8-1.2-10.3,0c-1.9,0.7-4,0.8-5.8,1.6c-12.9,6-26.3,4.8-39.6,2.5c-7.7-1.3-15.4-2.5-23.2-3.7c-3.5-0.5-6.9-0.8-10.4-1.1
	c-1.7-0.1-2.7-0.9-2.1-2.5c2-6,1.2-12.2,1.1-18.4c0-4.3,1.3-7.5,4.4-10.6c3.8-3.8,7.9-7.1,11.9-10.7c8.3-7.4,14.3-16.7,21.1-25.3
	c3.3-4.3,7.3-7.5,12.2-9.9c8.9-4.4,17.7-9.3,26.4-14.2c3.2-1.8,5.5-4.8,8.1-7.4c1.6-1.6,1-3.3,0.3-5.1c-1-2.5-3.2-5.2-0.7-7.9
	c2.3-2.4,5.1-0.8,7.5,0c8.7,2.7,17.6,3.6,26.6,4.4c6,0.5,10.3,4.3,14.9,7.7c1.7,1.3,1.2,3.3,0.9,5.1c-0.8,5.9,2.4,11.7,7.5,14.2
	c1.8,0.9,3.2,0.2,4.5-0.9c2.4-2.1,4.7-4.2,7.2-6.2c5-4.2,8.8-4.4,13.6-0.2c8.4,7.3,18.7,10.7,28.6,14.9c4.8,2,9.1,4.9,14,6.5
	c7.1,2.3,13.5,6.4,20.6,8.7c3.6,1.1,6.4,4.1,10,5.5c20.3,8,37.8,20.9,56.2,32.3c4.8,3,8.6,7.2,12.3,11.5
	c6.3,7.5,12.8,14.9,19.6,21.9c7.9,8.2,15,17,19.6,27.5c2.7,6.1,6.8,9.1,13.5,10c10.7,1.3,8.7,1.5,12.2-7.4c2-5,1.2-8.9-1.7-13.4
	c-9.7-14.8-21.3-28.1-32.7-41.5c-1.7-2-3.5-4-5.1-6.1c-7.6-9.4-17.3-16.5-26.5-24.1c-10.2-8.3-20.5-16.5-31.2-24.1
	c-8.2-5.9-17.1-11-25.7-16.3c-16.6-10.2-33.3-20.3-49.9-30.4c-5.6-3.4-12-4.9-18.1-7c-10.4-3.5-20.6-7.5-31.1-10.7
	c-9.1-2.7-17.8-6.5-26.7-9.5c-3.4-1.2-6.7-1.4-10.2-0.5c-14.8,3.8-12.4,4.3-24.2-4.3c-3.6-2.6-7.6-3.3-11.7-3.8
	c-7.6-0.8-15.2-1.6-22.9-2.2c-5.7-0.5-9-4.7-12.8-8.1c-1.3-1.2-0.6-2.8,0.1-4.2c4.7-9.2,10.1-17.4,19.9-22.2
	c5.1-2.5,10.2-5.5,14.8-9.2c2-1.6,4.6-2,7-2.3c10.6-1.3,21.2-2.6,31.7-3.8c9.5-1.1,18.9,0,28.3,1.1c8.1,1,16.2,2,24.4,2.2
	c2.3,0,4.1,1.2,6.2,1.7c14.3,3.2,28.6,6.6,42.9,9.5c4.4,0.9,8.5,2.2,12.1,4.4c13.3,8,26.9,15.4,40.5,22.7c9.3,5,18.7,10,28.6,14
	c5.9,2.4,11.7,5.5,15.7,11c1.5,2.1,3.6,3.9,5.5,5.8c8.2,8.2,15.4,17.4,23.2,26c5.5,6,11.2,11.8,16.7,17.9
	c5.3,5.9,11.4,11.1,14.3,18.9c1.3,3.4,3.3,6.6,4.9,9.9c1.1,2.3,2.8,3.7,5.3,4c0.5,0.1,1,0.1,1.5,0.3c9.5,3.8,15.7-1.5,21.7-7.6
	c1.6-1.6,1.7-3.2,0.3-4.9c-1.2-1.4-2.3-2.9-3.6-4.1c-7.6-7.2-14.4-15.3-21.1-23.3c-7.3-8.6-14.7-17.1-22-25.8
	c-7.2-8.5-14.1-17.2-21.2-25.8c-4.3-5.1-8.3-10.5-13.4-14.8c-4.2-3.5-9-6.2-13.7-9.1c-9.8-6.1-19.5-12.1-29.4-18
	c-16-9.6-32.4-18.5-49.3-26.4c-3.8-1.8-7.6-3.2-10.9-5.8c-4.3-3.4-10-3.6-15-4.9c-11.8-3-23.7-5.4-35.6-8c-1.8-0.4-3.7-1-5.4-0.7
	c-9.6,1.6-19.3,0-28.9,1.6c-1.6,0.3-3.3,0.3-5,0.2c-11.4-0.5-22.5,1.7-33.6,4.1c-6.1,1.3-12.5,1.8-18.7,2.8
	c-6.3,1-12.3,2.9-18.3,4.8c-0.9,0.3-1.9,0.8-2.8,0.9c-5.2,0.5-10.1,2-14.9,3.9c-2,0.8-4.4,1.9-5.8-0.7c-1.5-2.7,1.1-3.8,2.7-5.1
	c7-5.8,14.9-8.7,24.1-6.5c4.8,1.2,9.2,0.3,13.7-1.2c3.5-1.2,5.3-3.9,7.2-6.6c0.5-0.7,0.8-1.7,0.3-2.3c-2.7-2.8-4.4-6.8-9.2-7
	c-1.8,0-3.7-0.1-5.5-0.2c-1.2-0.1-2.5-0.4-2.4-2c0-1.3,1.1-2,2.3-2.3c0.5-0.1,1-0.1,1.5-0.2c1.8-0.1,3.7-0.4,5.5-0.4
	c14.9,0.5,30-0.2,44.3,5.5c4.7,1.9,9.1,1.6,13.2-1.5c4.2-3.2,3.9-6.5-0.8-9.1c-2.6-1.4-5.2-2.1-8.1-2c-2,0-4,0-6-0.1
	c-1.6-0.1-3.1-0.6-3.1-2.5c-0.1-1.8,0.7-3.4,2.5-3.9c1.2-0.4,2.6-0.4,3.9-0.5c6.5-0.3,13,0.4,19.4,1c6.1,0.5,10.3-2.1,12.2-8
	c1.2-3.7,3.5-5.4,6.9-6.3c5-1.4,10.2-1.7,15.3-2.5c5.4-0.8,10.2-2.9,14.7-5.9c5.9-4.1,7.4-4,12.4,1.1c11,11.3,23.3,21.4,35,32
	c15.8,14.4,34.3,24.3,53.8,32.8c7.6,3.3,15.2,6.9,22.7,10.5c2.6,1.2,4.3,3.1,5.3,5.7c2.4,5.7,6.1,10.2,11.5,13.4
	c6.4,3.7,9.7,9.7,12.3,16.4c5.9,15.2,13.5,29.7,22.2,43.6c3.3,5.4,6.4,11,10.2,15.9c6.9,8.9,11.5,19.6,20.3,27.1
	c5.2,4.4,10.3,8.9,15.5,13.4c1.9,1.6,3.8,1.9,6,0.7c1.2-0.7,2.3-1.4,3.5-1.9c2.6-1.1,3.2-2.9,2.4-5.6c-4.5-15.9-12.6-30.1-21.9-43.5
	c-3.6-5.1-7.4-10.2-11.7-14.9c-3.6-4-6.3-8.6-8.8-13.3c-5.6-10.6-10.9-21.4-16.6-31.9c-6-11.3-12.2-22.5-18.9-33.4
	c-3-4.8-6.6-8.7-11.5-11.6c-5.4-3.2-10.9-6.4-16.1-9.9c-5.4-3.7-11.3-6.4-17.4-8.7c-7.6-2.8-14.1-7.5-20.5-12.2
	c-2.3-1.7-4.7-3.2-6.8-5.1c-9.2-7.8-20.1-12.4-31.1-16.6c-7.6-2.9-13.9-6.9-17.6-14.4c-1.8-3.7-5.7-5.5-8.3-8.5
	c-2-2.2-3-4.3-2.3-7.1c99,0,198,0,297,0c0,611.9,0,1223.8,0,1835.8c-265.8,0-531.6,0-797.4-0.1C4,1836.7,2.1,1837.9,1,1835.8z
	 M699,1835.7c8.3,0,16.7,0,25,0c6.4,0,7.1-0.6,6.9-6.8c-0.5-14.1,1.1-28.2,1.1-42.4c0-3.6,0.9-7.3,0.8-10.9
	c-0.1-13.8,1.3-27.6,1.3-41.4c0-7,0.2-14,0.5-20.9c0.4-8.9-0.2-17.6-1.4-26.4c-0.9-6.6-1.7-13.2-2.6-19.8
	c-0.7-5.6-1.3-11.2-2.8-16.7c-2.1-7.4-4.8-14.6-6.5-22c-2.8-12.3-7.1-24.2-10.1-36.5c-1.6-6.8-4.7-13.2-6.6-19.9
	c-5-17.3-10.3-34.4-16.3-51.4c-2.7-7.5-6-14.8-8.5-22.4c-2.4-7.3-8.2-11.4-13.8-15.7c-1.2-0.9-2.7-1.3-3.4,0.3
	c-2.4,5.4-5.9,10.9-3.9,17.1c2.5,7.6,3.9,15.5,7.2,22.8c2.3,5,4.3,10.1,6.1,15.3c2.2,6.3,5.4,12.2,6.8,18.8
	c2.3,10.7,4.6,21.4,6.8,32.1c1.4,6.8,3.3,13.7,4,20.6c1,10.2,2,20.5,1.3,30.9c-0.4,6.3-0.4,12.7,0.2,19c0.8,8.3,1.3,16.4-0.4,24.7
	c-2.4,12.4-4,24.9-5.9,37.4c-2.6,17.1-5.5,34.2-7.8,51.3c-1.6,11.9-2,23.9-3.4,35.8c-0.9,7.4-0.2,15-3.7,22
	c-2.1,4.1-1.3,4.9,3.4,4.9C682,1835.8,690.5,1835.7,699,1835.7z M611.6,1835.6c9.7,0,19.2,0,28.6,0c2.8,0,4-2,4.9-4.3
	c3.3-8,6.3-16.1,8.8-24.4c2.5-8.1,4.5-16.4,6.7-24.5c2-7.2,4.8-14.1,5.9-21.6c1.8-12.8,4-25.6,6.3-38.4c2.6-14.1,3.3-28.4,4.9-42.6
	c0.8-7.3,2.2-14.6,0.9-21.9c-1.4-7.4-1-14.9-1.7-22.3c-0.8-8.8-1-17.6-2.4-26.3c-1.6-9.8-4.1-19.5-6.3-29.2
	c-1.3-5.9-2.8-7.1-8.7-7.9c-1.5-0.2-3-0.3-4.5-0.2c-4.3,0.1-4.9,0.8-4.3,5.1c1.1,9.1,2.7,18,3.9,27.1c1.3,10.4,2.5,20.8,2.5,31.3
	c0,15.6-0.9,31.3,0.8,46.9c0.3,3,0.2,6-0.2,9c-4,25.1-8.2,50.2-12.4,75.4c-0.4,2.3-1.1,4.5-2,6.7c-5.9,13.8-11.9,27.5-17.6,41.4
	c-2.9,7.2-6.2,14-12.9,18.5C612.2,1833.6,611.7,1834,611.6,1835.6z M747.9,1769.3c0.3,5.6,0.1,11.8,0.3,18c0.5,15,3.3,30.3-2.6,44.9
	c-0.1,0.2-0.1,0.3-0.2,0.5c-0.7,1.9,0,2.9,2,3c1.8,0.1,3.7,0.1,5.5,0.1c8.7,0,17.3,0,26,0c6.9,0,7.3-0.7,5.8-7.2
	c-0.3-1.5-0.6-2.9-0.8-4.4c-1.9-16-3.8-32.1-5.7-48.1c-0.9-7.6-2.2-15.2-2.7-22.8c-0.9-14.6-2.8-29.1-4.2-43.7
	c-1-10.8-5-21.1-6.9-31.7c-1.4-8.2-7.1-12.9-12.4-18.1c-1.3-1.3-2.7-1.3-3.7,0.4c-2.2,3.7-4.3,7.3-4.6,11.9c-0.3,5.8,0,11.6-1,17.4
	c-0.7,3.8-0.9,7.6-0.4,11.4c1.4,10.5,3,21,3.9,31.6C747.3,1744.5,748.3,1756.6,747.9,1769.3z M749.4,376.9c1.2,0.1,2.7,0.3,4.2,0.4
	c1.2,0.1,2.6-0.1,2.9-1.4c1-4.1,2.6-8.7,0.7-12.5c-2.8-5.7-5.3-11.5-7.7-17.3c-3.2-7.7-7.8-14.7-11-22.3
	c-3.1-7.4-7.2-14.3-11.2-21.1c-7.4-12.8-15.8-25-23-37.9c-1.4-2.5-3.1-3.8-5.9-3.7c-2,0.1-4,0.2-6,0.4c-4.7,0.6-7.4,3.4-8.8,7.7
	c-1.4,4.2,0.2,7.3,3.1,10.4c6.7,7.2,12.3,15.3,17,23.9c4.6,8.3,8.2,17.1,13.1,25.2c2.5,4.1,4.4,8.6,4.5,13.6c0,2.1,0.5,4.3,1.3,6.3
	c3.1,7.9,6.4,15.7,9.7,23.5c0.9,2.2,2.6,3.5,5,3.6C741.2,376,745.1,377.1,749.4,376.9z M756.9,1648.6c0.2-3.6-0.8-7.2-2.2-10.9
	c-3.9-10.4-7.8-20.9-12.9-30.8c-3.9-7.5-8.2-14.8-12.5-22.1c-2.1-3.5-5.3-5.4-9.6-5c-2.9,0.3-3.6,1.2-2.7,3.9
	c0.3,0.9,0.8,1.8,1.3,2.7c4.9,8.9,8.5,18.4,12.1,27.9c0.8,2.2,1.4,4.4,1.6,6.8c0.9,9.1,2.1,18,5.9,26.6c3.9,8.9,3.4,9.2,13.3,8.9
	c0.5,0,1,0,1.5,0c4.2-0.3,4.9-1.2,4.6-5.3C757.2,1650.6,757.1,1649.8,756.9,1648.6z" />
    <path fill-rule="evenodd" clip-rule="evenodd" fill="none" d="M720.5,882.1c1.9,8.7,1.6,16.4,2.3,24c1.3,13.2,2,26.5,2.9,39.8
	c0.1,1,0.1,2,0.1,3c0,2.6-1.3,3.6-3.8,3.1c-4.4-0.9-8.8-1.9-13.2-2.8c-1.5-0.3-2.9-0.7-4.4-1c-4-0.7-4-0.7-5.1,3.5
	c-4.2,16-7,32.2-9.9,48.4c-1.1,6.2-2.8,12.3-4.1,18.5c-1.1,5.5-0.5,6.2,5,6.2c13.7,0.2,10.8,0.1,13.7-10.6
	c2.5-9.3,5.4-18.5,8.7-27.8c2.8,5.6,5,11.3,3.9,17.7c-1,5.7-2.1,11.5-3.5,17.1c-1.8,7.6-3.5,15.2-4.4,23c-0.4,3.3-1.6,6.4-2.5,9.6
	c-0.6,2.1-2.1,2.3-3.9,1.4c-3.9-1.9-7.8-3.8-11.7-5.7c-3.7-1.8-4.6-1.6-7.4,1.4c-1,1.1-1.9,2.3-2.8,3.5c-1.2,1.7-2.6,3-4.3,4.1
	c-1.7,1-3.5,1.1-5.2,0.2c-1.8-1-1.6-2.7-1.5-4.4c0.9-10.3,1.7-20.6,6.7-30c3.2-6.1,3.6-12.7,0-18.7c-5.1-8.6-3.3-17.2-1-26
	c2.3-8.8,6.4-16.7,11.1-24.3c1.7-2.7,2.8-5.7,4.7-8.2c1.2-1.7,1-3.1-1.3-3.8c-5-1.4-9.9-2.9-14.9-4.1c-3.3-0.8-4.8,0.3-6,3.7
	c-1,2.8-1.8,5.7-2.6,8.6c-3.4,11.3-7,22.6-10.2,34c-1.4,4.9-2.5,9.9-4.4,14.7c-2.2,5.8-1.8,12.1-2.5,18.3c-1.5,12.9-2.7,25.8-4,38.7
	c-0.3,2.6-1,4.8-2.9,6.7c-3.2,3.2-4.7,7.1-5.5,11.5c-2.1,11.1-4.6,22.2-6.6,33.3c-0.9,4.8-2.7,8.2-7.5,10.2
	c-4.3,1.7-8.2,4.5-12.4,6.5c-3,1.5-4.6,3.7-5,6.9c-0.8,6.1-1.4,12.2-2.7,18.2c-3.5,16.8-5.8,33.8-8.8,50.7
	c-0.9,5.2-4.9,7.9-8.9,10.2c-7,4-13.4,8.7-19.5,13.9c-1.4,1.2-2.8,2.4-3.7,4c-4.2,7.2-8.7,14.2-12.6,21.6
	c-2.9,5.4-6.2,10.6-9.4,15.8c-1.6,2.6-3.1,5.2-3.9,8.1c-2.8,10-7.2,19.4-10.2,29.2c-0.2,0.8-0.5,1.6-1,2.3c-1.2,1.9-2.8,1.9-3.7-0.2
	c-0.5-1.2-0.8-2.6-0.9-3.9c-0.4-6-0.8-12-1.1-17.9c-0.3-4.6-1.1-5.1-5.2-6.7c-7.9-3.2-13.8,0.1-19.1,5.4c-1.2,1.2-2.1,2.6-3,4
	c-7.1,10.1-12.8,21-18.8,31.8c-1.4,2.5-2.5,5.6-5.8,5.7c-3.6,0.1-4.6-3.3-6.2-5.8c-1.5-2.3-1.8-5-1.8-7.7c0-6-0.2-12,0-18
	c0.1-4.4-1-8.2-3.6-11.6c-2-2.6-3.9-5.4-5.8-8.1c-1.4-2-3.2-2.9-5.5-2.6c-6,0.8-11.7,1.7-16.4,6.4c-3.6,3.6-7.9,6.5-11,10.8
	c-3.8,5.4-6.2,11.3-7.5,17.8c-2.8,14.4-6.5,28.6-8.5,43.1c-0.2,1.3-0.5,2.6-0.5,4c0.3,10.2-1.4,20.3-1.2,30.4
	c0.2,8-2.6,15.1-7.6,21.6c-6.5,8.4-14.8,14.8-22.5,21.8c-5.4,4.9-11.2,8.9-18,11.2c-2.4,0.8-4.6,2-6.8-0.6c-2.9-3.6-3.4-6.3-1.2-9.5
	c3.3-4.8,8.3-7.7,13-10.7c7-4.6,7.2-4.8,1.6-10.8c-4.1-4.4-8.4-6.5-14.6-5.1c-5.3,1.3-10.9,1.8-16.3,1.9c-6.3,0.2-12.6,0.2-18.8-1.5
	c-2.4-0.7-3.8-1.9-4.2-4.3c-0.2-1.3-0.3-2.7-0.6-3.9c-0.9-3.7,0.6-5.9,3.8-7.7c9.4-5.4,18.5-11.3,26.9-18.1
	c6.9-5.5,12.6-12.3,17.5-19.7c5-7.5,3.7-15.5,0.7-23.4c-0.5-1.2-1.4-2.4-1.6-3.6c-0.6-4.7-3.6-6.1-7.7-7c-6.4-1.4-11.7,0.1-16.9,3.6
	c-10.9,7.3-22.6,12.9-35.8,14.3c-4.7,0.5-9,2.5-13.3,4.2c-6.8,2.6-11.8,0.8-15.9-5.1c-5.5-7.9-7.8-17.3-12.1-25.7
	c-1.2-2.5-0.6-3.2,2.5-2.9c6,0.5,12,0.2,18,0.2c3.1,0,5.5-1,7-3.8c3.5-6.6,10-9.1,16.4-11.5c5.6-2.1,11.3-4.1,17.1-5.5
	c5.6-1.3,11.3-2.8,16.9-3.9c2.3-0.4,4.6-0.7,6.9-1.3c10.5-2.7,21.2-4.2,32-5.2c4.7-0.4,9.5-1.1,14.2-1.8c5.5-0.9,11.3-0.4,16.9,0.4
	c3.3,0.4,6.2,0.1,9.2-1.1c3.4-1.4,7-2.2,10.5-3.2c6-1.7,9.6-8,8.8-14.1c-0.9-7-1.3-9.5,7.9-7.6c8.8,1.8,17-0.1,24.9-4.5
	c9.6-5.4,17.9-12.8,27.7-17.8c2.9-1.5,6-1.7,9.2-1.9c6.8-0.3,13.6-0.6,20.4-1.2c10.5-1,17-11.6,10.5-21.2c-2.5-3.7-6.2-5.2-10.3-5.3
	c-7.5-0.3-15-0.6-22.5,0.3c-2.1,0.3-4.3,0.4-6.5,0.5c-18.1,0.4-36.3,0.2-54.3-2.1c-2.3-0.3-4.7-0.6-6.8-1.7c-7.4-3.8-14.5-8-21-13.3
	c-7.8-6.4-15.5-13.1-24.5-18c-7.5-4.1-15.7-5.5-23.7-7.5c-3-0.8-5.9,0.9-8.6,2c-2.7,1.1-4.8,0.8-6.7-1.4c-3.1-3.5-7-6.2-9.9-9.8
	c-2.6-3.2-5.9-5-10.2-5.5c-5.5-0.5-10.8-1.8-16.2-2.8c-0.8-0.1-1.7-0.3-2.4-0.6c-1.9-0.9-3.7-2-3.9-4.2c-0.2-2.1,1.6-3.2,3.1-4.1
	c4.3-2.6,9-4.3,14-5.1c6.4-1.1,12.8-2.4,18.5-5.7c1.7-1,3.7-1.6,5.6-2c4.3-0.8,8.5-2.2,12.3-4.2c9.1-4.8,18.1-3.2,27,0.2
	c4.5,1.7,9,3.6,13.3,5.7c3.6,1.7,7.2,2.3,11.2,1.5c1.6-0.3,3.3-0.4,5-0.5c4.6-0.4,5-1.2,3.9-5.7c-2.1-8.8-5.9-17-10.1-24.9
	c-1.4-2.7-2.9-5.4-2.6-8.5c0.7-8.8-2.4-16.8-5.3-24.7c-2.1-5.6-4-11.3-5.8-17c-1.6-4.8-4-9.1-7.2-13c-4-4.9-7.8-10-11.6-15
	c-1.4-1.8-3-3.1-5.1-3.8c-10-3.3-20-6.2-30.6-7.1c-6.5-0.5-12,2.2-17.7,4.4c-2.1,0.8-2.4,2.9-0.8,4.5c4.2,4.1,7,9.3,10.9,13.6
	c0.9,1,2,1.7,3.2,2.3c5.2,2.2,10.4,4.6,15.6,6.7c3.2,1.3,5.6,3.4,7.4,6.4c3,5,5.7,10.1,7.4,15.8c2.9,9.6,1.4,18.8-1.3,28
	c-0.5,1.7-1.5,3-3,3.8c-7.6,4-15.7,6.5-24.1,7.8c-3,0.5-6.4-0.2-9.4-1c-9-2.3-16.8,0.8-24.1,5.6c-9.2,6-17.7,13-27.1,18.8
	c-3.8,2.3-7.4,3.4-11.8,2.6c-4.9-1-10-0.8-14.9-1.2c-6-0.4-10.5-3.3-14.5-7c-7.5-6.9-12.2-15.7-15.9-25.1c-0.9-2.2-0.2-4.3,0.3-6.4
	c4-14.6,7.8-29.3,12.3-43.8c2.9-9.4,2.7-19.1,4.2-28.6c2-13-0.7-25.5-3.5-38c-0.5-2.1-1.1-4.2-1.7-6.3c-1.4-4.8-2.3-9.8-1.9-14.8
	c1-11.6,2-23.2,3.2-34.8c0.5-5.2,2.7-10,4.6-14.8c2.2-5.6,2.8-11.3,2.4-17.1c-0.6-8,0-16-1-23.9c-1.2-9.6-1.6-19.2-2.4-28.8
	c-0.2-2.5,0.2-4.3,1.8-6.4c3.5-4.6,7.8-8.1,12.6-11.2c11.3-7.3,22.8-14.4,33-23.2c5.6-4.9,11.9-8.4,18.8-11.2
	c2.9-1.2,5.4-1.8,7.8,0.6c1.7,1.7,2.6,6.7,1.1,9c-3.6,5.6-7.2,11.2-12.4,15.5c-4.3,3.5-8.4,7.1-12.5,10.7c-3.8,3.4-5.8,8.2-8,12.5
	c-2.3,4.5,1.3,15.5,4.9,19.2c5.9,6.2,13.4,8.4,21.5,9.3c2.3,0.3,4.6,0,6.9-0.8c7.6-2.6,11.5-1.4,15.2,5.5c2.6,4.8,4.8,10,5.4,15.5
	c0.4,4.2,1.4,8.2,2.2,12.3c1.7,8.3,5.5,14.9,13.8,18.2c1.2,0.5,2.2,1.5,3.3,2.2c5.2,3.4,10.2,7,15.5,10c4.4,2.4,8.8,4.6,11.4,9.3
	c1.3,2.4,3.3,2.5,5.5,1.2c3.2-1.7,5.7-3.9,6.7-7.6c0.7-2.4,1.5-4.8,2.5-7.1c1.8-4.1,4.3-5.5,8.7-5.2c1.8,0.1,3.6,0.4,5.5,0.7
	c5.6,0.8,9.5-2.1,13.3-5.6c1.3-1.2,1.6-2.9,1.7-4.6c0.8-10.1-9.9-17.6-17.5-16.3c-12.7,2.2-24.1-1.4-35.5-5.7
	c-2.6-1-4.5-2.8-5.8-5.3c-1.6-3.2-0.4-5.1,3.2-5.4c1.9-0.1,3.6,0.3,5.4,0.9c3.9,1.4,7.8,2.9,11.8,4.2c9.6,3,19.3,5.1,29.5,4.3
	c3.4-0.3,7,0.1,10.4,0.6c4.5,0.8,8.9,0.3,13.4-0.2c15.1-1.8,30.2-1.2,45.4-0.4c5.3,0.3,10.7-0.1,15.9-1c4.1-0.7,6.9-4.1,8.4-7.9
	c1.4-3.5-0.8-6.3-3.2-8.9c-4.8-5.2-11.4-6.6-17.8-8.5c-11.3-3.5-22.8-2.8-34.2-0.8c-7,1.2-13.7,4-20.4,6.5c-4,1.5-8,2.3-12.2,2.1
	c-1-0.1-2-0.1-3,0c-9.8,1-18.2-1.5-25.9-7.9c-5.6-4.6-12.2-8-18.3-12c-2.1-1.4-3.8-3.3-5.8-4.7c-6.7-4.7-10.3-6.1-17,0.6
	c-0.5,0.5-0.9,1-1.5,1.3c-1.6,0.9-3.4,2.3-5,0.6c-1.5-1.7,0.4-3.1,1.5-4.1c9.3-9,17.8-18.9,27.9-27.2c1.3-1.1,2.7-2,4.2-2.6
	c4.5-2,6-0.9,6.7,4.1c0.8,5.8,1.6,11.6,4.9,16.6c1.2,1.9,1.6,4,2,6.1c0.9,5.1,3.5,9.3,6.8,13.1c5.1,5.9,12.4,6.1,17.9,0.5
	c5.4-5.5,5.8-7.2,2.4-14c-2.8-5.5-6-10.8-9.1-16.1c-3.1-5.3-4.8-10.9-5.1-17.1c-0.2-5.2,1.8-9.4,5.2-13.1c2.8-3,5.1-2.9,8.1,0
	c2.3,2.3,3.5,5.3,4.9,8.1c3.4,6.8,7,8.7,14.5,7.4c2-0.3,3.9-0.9,5.9-1.3c1.6-0.3,3.3-0.5,5-0.1c1.2,0.2,2.3,0.8,2.4,2.2
	c0.1,1.1-0.5,1.9-1.4,2.5c-2.2,1.5-4.7,2.5-7.4,2.9c-3.6,0.5-7.3,1-10.9,1.3c-2.2,0.2-4.3,0.5-6.2,1.7c-2.9,2-3.8,3.9-2.8,7.2
	c1,3.5,2.8,6.4,6,8.3c2.8,1.6,5.2,3.4,7.4,5.9c2.4,2.8,5.9,4.2,9.4,3.8c7.6-0.9,15.2,0.2,22.9-0.6c6.9-0.7,11.3-4.6,14.8-9.9
	c3.4-5,5.5-10.7,6.7-16.6c0.5-2.6,1.5-4.8,3.6-6.4c2.6-2.1,4.7-1.4,5.7,1.7c1.1,3.3,0.7,6.5-0.6,9.7c-3.5,8.4-8.5,15.8-14,23
	c-2.2,3-4.9,5.8-3,9.8c1.8,3.8,5.6,3.8,9,4.1c3.3,0.3,6.6,0.4,10,0.8c9.1,1.1,15.8-3.4,18.5-12.2c1.3-4.3,2.3-8.7,2.8-13.2
	c0.4-3,1-5.9,1.7-8.8c1.1-4.5,2-5.1,6.4-5.5c4.5-0.4,8.1,0.9,11.8,3.9c9.5,7.8,16.7,17.7,25.5,26c2.6,2.5,4.5,5.7,6.1,9.1
	c1,2.1,2.2,4.1,4.1,5.6c2.8,2.2,5.8,2.4,8.8,0.6c3-1.8,4.1-4.4,3.1-8.2c-0.4-1.6-0.9-3.3-1.9-4.6c-5.8-7.6-9.5-16.4-13.6-25
	c-3.7-7.6-9.2-13.9-13.8-20.8c-0.4-0.5-0.8-1.1-1.4-1.4c-7.6-4.7-15.1-10.1-24.1-11.8c-23.7-4.6-47.4-9.1-71.3-12.8
	c-5.2-0.8-10.3-0.9-15.4-0.3c-8.1,1-14.9-2.8-21.7-6.2c-2-1-1.3-2.3,0.2-3.5c4.8-3.8,10.4-5.7,16.4-6.8c8.9-1.7,17.6,0.2,26.3,1.3
	c9.4,1.1,18.8,2.4,28.2,3.6c5.2,0.6,10.1,1.9,14.8,4.2c4.8,2.4,10.1,1.9,15.2,2.7c1.2,0.2,2.2-0.4,3.2-1.2
	c4.9-4.1,4.8-13.4-0.2-17.3c-3.3-2.6-6.8-4.8-11-5.7c-9.6-2.1-18.6-6.3-28.4-7.9c-14.6-2.3-29.3-4.5-43.8-7.1
	c-6.7-1.2-13.6-1.1-20.4-1.4c-5.8-0.3-11.7,0.2-17.5-0.6c-3.2-0.5-6.3,0.7-9.2,1.9c-3.3,1.4-6.7,2-10.3,1.6
	c-5.8-0.6-11.7-0.5-17.2-2.5c-5.4-1.9-6.4-3.2-6.2-7.1c0.2-4,3.5-8.4,7.4-9.1c6.2-1,12.5-2.5,18.8-2.3c13.9,0.3,27.6-1.7,41.3-2.7
	c10.9-0.8,21.8-2.2,32.9-0.7c6.9,1,14,0.6,21,0.3c13.4-0.7,26.2,1.7,38.8,5.8c3,1,6.1,1.6,9.2,2.2c14,2.4,27.5,6.4,40.7,11.6
	c11.3,4.4,21,11.2,31.3,17.3c6.1,3.6,10.3,3.3,14.8-2c0.8-0.9,1.3-2,1.4-3.1c0.5-5.1,0.2-10-2.3-14.6c-0.8-1.5-1.8-2.8-3.3-3.7
	c-11.3-6.9-20.5-16.4-30.4-25c-2.4-2.1-4.9-3.8-8-4.8c-15.5-5-31-10.3-46.6-15.1c-8.4-2.6-16.8-5.1-25.2-7.6
	c-3.5-1-7.2-1.1-10.9-1.5c-7-0.7-13.9-1.5-20.9-2.1c-4.1-0.3-8.3-0.4-12.5,0.4c-1.1,0.2-2.3,0.4-3.5,0.4
	c-12.7-0.4-25.3,0.9-37.9,1.3c-16.1,0.5-32.3,0.5-48.3,2.6c-8.9,1.1-17.9,1.7-26.9,2.3c-3.7,0.3-7.3,1.2-10.6,2.8
	c-8.2,3.8-17,4.9-25.8,5.1c-17,0.3-31.1,6.9-43.9,17.7c-13.4,11.4-26.8,23-41,33.5c-3.3,2.4-6.7,3.1-10.8,2.6
	c-8.6-1.2-17.2-1.6-25.7-3.5c-5-1.1-10.1-2.3-15.1-3.5c-1.1-0.3-2.2-0.8-3.2-1.4c-8.9-6.1-17.9-12.2-25.9-19.5
	c-2.1-1.9-3.1-4.2-3.2-7c-0.1-8.3-0.2-16.6,2.6-24.7c0.9-2.5,1-5.2,1.4-7.9c0.6-4.1,1.3-4.8,5.4-5c6.7-0.4,13.3,0.1,19.8,2
	c14.4,4.2,29.2,4.8,43.9,6.1c9.3,0.8,18.6,0.9,27.9,1.1c9.3,0.2,18.7-1.7,27-6.2c8.3-4.5,16.1-10,24.1-15.1c0.8-0.5,1.6-1.4,2.5-1.7
	c6.2-2.1,8.3-7.3,9.6-13c0.9-3.6,0.2-4.6-3.5-5.8c-5.5-1.7-11.1-2.1-16.8-0.5c-4.3,1.2-8.6,2.4-12.7,4.4c-5.9,2.8-12.2,4.5-18.5,6.1
	c-7.3,1.8-14.4,4.1-21.5,6.7c-5.7,2.1-11.4,2.4-17.2,1.5c-24.1-3.5-48.2-6.8-71.9-12.1c-0.7-0.1-1.3-0.2-2-0.4
	c-2.1-0.5-4.7-0.6-4.7-3.5c0-2.4,2.3-3.1,4.2-3.7c1.4-0.5,2.9-0.9,4.4-0.9c8.5,0.3,16.9-1.4,25.4-1.1c6.4,0.2,12.6-1,18.6-3.3
	c1.1-0.4,2.2-1,3.3-1.2c5.3-0.7,9-2.6,8.8-9.1c-0.1-3.3,2.5-3.9,5.2-1.4c3.2,2.9,5.5,6.7,9.2,9.1c0.6,0.4,1,0.8,1.6,1.3
	c4.8,3.7,5,3.7,10,0.2c3.1-2.2,6.4-4.2,9.6-6.2c2.6-1.6,6-2.5,5.3-6.8c-0.2-1.2,1.1-1.4,2.1-1.6c5.9-1.1,12-0.7,17.8-2.2
	c2.3-0.6,2.7,1.4,2.6,3.2c-0.3,3.4-2.1,6.3-3.7,9.2c-2.4,4.1-1.8,6.2,1.8,9c2,1.6,3.9,1.1,6.1,0.4c6.8-2.3,13.1-5.7,19.3-9.4
	c4.9-2.9,10-5.4,15.3-7.3c3.5-1.3,5.1-3.7,6.1-7.2c2.7-10.7-4-21-14.1-25.9c-1.8-0.9-4.9-0.9-4.5-3.8c0.3-2.5,3.3-2.5,5.2-3.3
	c3.3-1.4,6.9-0.6,10.4-1.2c6.4-1.1,7.5-2.7,5.2-8.6c-2.6-6.7-6.5-12.8-9-19.5c-1-2.7-3.6-3.3-6.2-3.3c-2.8,0-4.9,1.2-6,3.7
	c-1,2.3-1.7,4.7-2.5,7.1c-0.9,2.7-2.8,4.4-5.2,5.8c-0.9,0.5-1.9,1-2.7,0.1c-0.8-0.9-0.4-1.9,0.2-2.7c2.2-3.4,4.3-6.7,6.5-10
	c4.9-7.4,6.8-6-2.7-11.9c-6.3-4-12.9-7.6-19.7-10.7c-3.4-1.6-7.2-1-10.8-0.8c-8,0.5-15.9,1.8-23.8,2.6c-10.4,1-21,1.2-31.3,3
	c-6.6,1.1-13,2.8-19.6,3.9c-5.4,0.9-10.9,1.3-16.4,1.9c-4.8,0.5-8.5-0.9-11.9-4.7c-5.3-6-5.4-7,1.8-10.5c1.2-0.6,2.4-1.2,3.5-1.9
	c8.9-5.8,17.8-11.7,26.8-17.4c2.8-1.8,4-4,4.4-7.3c1.4-15.1,3.6-30.1,4.5-45.2c0.4-7.5,3-13.3,7.3-19c5.9-7.8,11.4-16,16.8-24.2
	c2.4-3.7,5.3-5.3,9.6-4.7c11.1,1.5,22.2,2,33.3,2.6c16.4,0.9,32.7,2.7,49.2,3.5c10.8,0.5,21.6,1.5,32.4,2.2
	c13.8,0.9,27,5.4,40.5,8.1c16.5,3.3,32.8,7.4,49.2,10.9c19.4,4.2,38.8,8.2,58,12.7c4.7,1.1,9.4,2,14.2,2.7c2.7,0.4,5.2,1.3,7.2,3.1
	c8.4,7.8,17.6,14.8,26,22.6c8.5,7.9,17.5,15.4,26.3,23c9.8,8.5,19.5,17.1,29.3,25.7c0.3,0.2,0.4,0.5,0.7,0.7
	c9.9,6.5,15,16.6,20,26.9c3.8,7.9,8.4,15.6,12.1,23.5c8.3,18,17.8,35.4,26.1,53.4c1.3,2.8,2.1,6,2.9,9c4.9,18,9.5,36,14.6,54
	c5.4,19.2,9.7,38.8,15.4,57.9c2.7,9,3.5,17.9,3.4,27.1c-0.1,26.8-0.1,53.7,0,80.5c0,10.3,0.5,20.6-1.8,30.8c-0.3,1.4-0.3,3-0.3,4.5
	c-0.1,4.5,0.4,5.1,5.1,5.3c3.2,0.1,6.3-0.1,9.5,0.1c4,0.2,5.2,2,3.6,5.6c-5,11.1-8.5,22.8-12.5,34.3c-3.4,9.6-3.3,9.6,5.1,15.3
	c5.7,3.8,11.2,7.8,17.3,11c2.9,1.5,3.5,1.3,4.2-1.5c3.2-11.9,5.9-23.9,8.2-36C717.4,893.2,718.2,888,720.5,882.1z" />
    <path fill-rule="evenodd" clip-rule="evenodd" fill="none" d="M746.8,1438.9c-3.8-0.4-7.6-0.5-11.2-2.1c-2-0.9-4.2-0.6-6.4-0.1
	c-3.4,0.9-6.8,1.6-10.2,2.5c-2.9,0.8-5.1,0-6.9-2.6c-7-10.3-14.1-20.6-21.2-30.9c-1.6-2.3-2-4.8-1.6-7.6c2.2-14.3,3.1-28.8,2.6-43.3
	c-0.4-12.3,1.7-24.5,2.3-36.8c0.4-8.1,1.5-16.2,1.6-24.4c0.1-8.9,3.3-16.9,5.5-25.3c0.3-1.3,1.1-2.5,2.2-3.3c3.6-2.6,7.3-5.2,11-7.8
	c2.2-1.6,4-1.2,5.5,1c1.8,2.8,4.2,5.1,6.6,7.5c1.8,1.8,2.9,4,3.5,6.5c1.2,4.8,2.5,9.7,3.9,14.5c2.2,7.6,3.4,15.2,3,23.2
	c-0.2,5-0.3,10,0,15c1,14.6-1.6,28.8-4.9,43c-0.7,3.2-1.7,6.5-2,9.8c-1.2,10.6-5,20.3-10.4,29.4c-2.9,4.9-3.6,10.3-4.5,15.7
	c-0.6,3.6,1.3,6,3.7,8.2c5.5,5.1,5.6,5.2,11.9,1.4c0.6-0.3,1.1-0.7,1.7-1c1.7-1,3.4-2.5,5.3-2.7c2.3-0.2,2.3,2.8,3.7,4.2
	c1.9,1.8,3.7,3.8,5.5,5.8L746.8,1438.9z" />
    <path fill-rule="evenodd" clip-rule="evenodd" fill="none" d="M217.2,309c-2,0-4,0.1-6,0c-1.1,0-2.6,0.1-3-1.2
	c-0.6-1.5,0.6-2.5,1.7-3.2c2.7-1.7,5-3.9,7.1-6.2c2.4-2.5,4.5-5.3,7.6-7.1c1.3-0.7,2.2-2.1,2.6-3.6c1.5-5.3,3.6-10.4,3.6-16
	c0-7.6,3.9-12.9,10.1-16.6c4.4-2.6,9.1-4.9,13.8-7c3.7-1.6,5.5-4,5.1-8.1c-0.2-2.1,0-4.3-0.3-6.5c-0.4-2.8,0.8-4.5,3.2-5.5
	c7.8-3.1,14.1-8.8,21.6-12.5c5.4-2.7,8.4-8,12.3-12.2c7.4-8,16-12.2,27.1-10.3c5.2,0.9,10.2,0.5,14.9-2.4c2-1.2,4.2-2,6.3-2.9
	c1.9-0.9,3.6-1,5.6,0.4c5.7,4.1,5.8,5,0.2,9.2c-15.1,11.5-30.3,22.9-45.9,33.6c-15.3,10.5-27.1,24-35.1,40.6
	c-5.9,12.1-14.6,22.1-22.2,33c-1.8,2.6-4.7,3.2-7.5,3.2C232.5,307.8,224.9,308.8,217.2,309z" />
    <path fill-rule="evenodd" clip-rule="evenodd" fill="none" d="M449.4,13.4c-1.6,1.5-3.7,1.5-5.6,1.7c-5.2,0.6-10,1.7-14.2,5.3
	c-3.8,3.2-8.4,5.3-12.7,8c-1.9,1.2-4,1.9-6.2,1.4c-7.9-1.6-15.6,0.3-23.4,0.9c-6,0.5-11.9,0.8-17.8-1.3c-3-1.1-6.1-1-9.4-0.6
	c-24.1,3.1-46,11.6-66.1,25.4c-9.9,6.8-20.4,12.6-29.6,20.3c-3.4,2.8-6.3,5.9-8.6,9.6c-3.3,5.3-7.3,9.8-11.9,14
	c-5.9,5.2-12.2,4.4-18.7,3c-1.6-0.3-3-1.4-4.5-2.1c-1.9-1-2.5-2.4-2.1-4.5c1.5-8.8,5.2-16.1,12.2-22.2c11.2-9.8,24.1-17.2,36.2-25.6
	c3-2.1,6.6-3.2,10-4.4c14.4-4.9,28.2-11,42.2-16.8c4.1-1.7,8.2-2.6,12.6-2.5c8.3,0.2,16.7-0.1,25,0.1c5,0.1,10-0.8,14.9-1.3
	c3.9-0.4,7.4-2.5,9.5-5.9c1.7-2.7,3.8-3.9,6.9-3.9c19,0.1,38,0,57,0.1C446.7,12,448.3,11.7,449.4,13.4z" />
    <path fill-rule="evenodd" clip-rule="evenodd" fill="none" d="M370.4,343.9c9.2-0.2,17.7,3,26.5,4.8c22.5,4.6,44.2,12.4,66.2,18.8
	c14.2,4.1,28.4,8.6,42.1,14.1c11,4.4,21.6,9.5,32.2,14.7c6.2,3.1,11.7,7.6,16.8,12.4c5.8,5.4,11.4,11.1,17.9,15.9
	c2.1,1.5,3.6,3.9,5.6,5.7c11.8,11.3,22.4,23.7,33.1,35.9c3.1,3.5,6.6,6.6,9.4,10.3c2,2.6,3.7,5.1,4.2,8.4c0.6,3.5,2.4,6,5.5,7.8
	c4.2,2.5,4.1,4.3,0.5,7.6c-0.6,0.6-1.3,1.1-1.9,1.6c-3.2,2.7-3.5,2.7-6.8,0.3c-5-3.6-9.5-7.9-13.1-12.9c-8.6-11.9-17-23.8-25.5-35.8
	c-1.5-2.2-3.1-4.3-5.1-6.1c-9.2-8.5-17.9-17.5-27.7-25.2c-12.6-9.8-25.4-19.3-38.7-28.2c-2.1-1.4-4.5-2.2-6.9-3
	c-15.6-5-30.8-10.8-45.9-16.9c-8.6-3.4-17.5-5.5-26.3-7.8c-14.5-3.8-29-7.6-43.6-10.8c-7.8-1.7-15.4-4-23.4-5.1
	c-1.9-0.3-4.9,0-4.7-3.2c0.2-3.1,2.8-3.3,5.2-3.4C367.4,343.9,368.9,343.9,370.4,343.9z" />
    <path fill-rule="evenodd" clip-rule="evenodd" fill="none" d="M204.6,532.9c8.9-10.2,20.8-11,33-10.7c0.8,0,1.7,0.4,2.5,0.4
	c7.5-0.6,11,3.2,11.8,10.3c0.1,0.8,0.5,1.6,0.7,2.4c0.8,4.1,3.2,6.8,7.4,6.8c7.3,0,10.3,5.2,13.3,10.4c1.5,2.7,0.8,4.5-2.3,4.2
	c-7-0.7-11.2,2.7-14.6,8.2c-1.3,2-3.5,3.1-5.8,3.6c-5,1.1-10.1,2.2-15.3,2.4c-3.3,0.1-6.6,0.3-10,0.8c-4,0.5-8,0.4-12-0.1
	c-8.7-1.3-17.5-2.1-26.2-3.7c-6.7-1.3-13.4-2.6-20.1-3.9c-5.5-1.1-10.9-1.3-16.4-0.3c-6.7,1.2-12.9,0.1-18.7-3.5
	c-3.3-2-5.6-6.9-4.8-10.6c0.6-2.6,5.1-5.8,8.5-5.9c3.5-0.2,7,0,10.4,0.6c6.5,1.2,12.9,1.4,19.3-0.3c3-0.8,5.9-0.1,8.9-0.7
	c5.2-0.9,10.4-1.7,15.5-3.6c3.6-1.4,4.4-0.6,4.3,3.4c0,1.5-0.2,3,0,4.5c0.7,4.6,2.8,6.4,7.3,6.5c7.8,0.1,15.6,0.5,23.4-1.4
	c4.4-1.1,8.9-0.7,13.4,0c6.4,1,8.3-0.1,11.2-5.7c1.1-2.1,1.1-4.1-0.1-6.2c-2.2-4-5.4-7.1-8.8-10.1c-1.8-1.5-4-1.6-6.2-1.5
	C224.5,529.6,214.3,529.4,204.6,532.9z" />
    <path fill-rule="evenodd" clip-rule="evenodd" fill="none" d="M270.5,1277.8c-2,0.1-4-0.3-5.9-0.9c-9.3-2.9-18.1-6.6-25.3-13.5
	c-2.7-2.6-2.8-3.1,0.8-4.7c3.2-1.4,6.6-2.4,9.8-3.8c7.6-3.4,15-7.1,22-11.7c1.8-1.2,3.8-2.4,4.9-4.2c2.9-4.5,6.6-5.4,11.6-4.1
	c3,0.8,6.2,1.2,9.2,2.2c6,2,12.2,2.9,18.6,3.2c5.3,0.2,10.5,1.5,15.8,2.3c8.2,1.2,16.6,1.6,24.8,2.1c2.2,0.1,4.3,0.4,6.4,1.1
	c1.3,0.4,2.6,1,2.9,2.5c0.3,1.9-1.2,2.6-2.5,3.3c-2.5,1.4-5.4,1.7-8.2,2c-7.6,1-15.3,1.5-22.8,3c-13.8,2.7-27,7.2-39.4,13.9
	C285.5,1274.9,276.6,1277.8,270.5,1277.8z" />
    <path fill-rule="evenodd" clip-rule="evenodd" fill="none" d="M541.4,1664.5c-0.2,7.1-8.1,11.5-14.3,8.1c-2.8-1.5-5.7-2.6-8.5-4.1
	c-4-2.1-7.7-1.5-11.4,0.7c-5.7,3.5-10.7,7.9-14.5,13.5c-2.2,3.2-4.9,5.9-8.5,7.4c-1.9,0.8-3.8,1.7-5.4-0.4c-1.6-2-3.1-4.2-1.7-6.8
	c1-1.9,2.1-3.9,3.6-5.4c6.3-6.2,11.6-13.2,17.6-19.7c1.5-1.6,2.8-3.3,4.1-5c1-1.2,1.6-2.7,1.1-4.2c-1.8-5.4-1.5-11.2-4.2-16.4
	c-1-1.9-1.7-4-2.4-6c-2.6-7.7-3.7-15.4-0.1-23.3c2.5-5.6,4.3-11.5,7.1-17.1c1.8-3.6,8.9-7.8,12.8-7.4c2.8,0.3,5.7,4.4,5.1,8.1
	c-1,5.7-2.8,11.3-5,16.7c-1.5,3.6-3.8,6.6-5.8,9.8c-2.6,4-3.4,8.1-1.8,12.8c2.7,7.9,6.1,15.3,10.1,22.7c3,5.5,6.7,7.7,12.3,8.4
	c3.3,0.4,5.8,2.5,8.4,4.2C541.1,1661.9,541.6,1663.1,541.4,1664.5z" />
    <path fill-rule="evenodd" clip-rule="evenodd" fill="none" d="M687.9,1210.6c0.1-3.9,0.9-6.8,1.8-9.7c1.9-6.2,3-12.6,4.6-18.9
	c2.2-8.1-0.5-14.7-4.3-21.3c-1.4-2.4-3-4.8-4.7-7.1c-2.2-2.9-2.5-5.8-0.4-8.7c1.8-2.5,2.3-5.1,2-8c-0.2-1.6-0.2-3.3-0.1-5
	c0.4-5-1-9.4-3.8-13.6c-3.2-4.9-6-10-8.9-15c-1.2-2-2.4-4-2.9-6.3c-1-4.2,0-6.2,4.2-7.5c5.9-1.9,11.9-3.1,17.6-5.6
	c2.6-1.2,4.4,0.1,6.2,1.8c1.9,1.8,1.9,3.6,1,5.9c-3,7.8-5.6,15.6-7.4,23.8c-1.8,8.5-1.7,16.7-0.6,25.2c0.9,6.9,3.2,13.2,6.2,19.3
	c1.4,2.8,2.7,5.7,3.9,8.6c3.2,7.4,6.9,14.4,13.3,19.6c1.5,1.3,2.8,2.8,4.2,4.3c1.3,1.4,1.5,2.8,0.5,4.5c-4.1,6.8-8.4,13.1-16.6,15.7
	c-3.8,1.2-6.8,4.1-10.2,6.2c-3.1,1.8-4,1.4-4.7-2.1C688.4,1214.3,688.2,1212,687.9,1210.6z" />
    <path fill-rule="evenodd" clip-rule="evenodd" fill="none" d="M185.5,21.4c-8.4,4.7-14.8,11.7-24.7,10.6c-7.3-0.8-12,2.2-16.6,7.7
	c-4,4.9-6.9,10.2-9.3,15.8c-2.2,5.1-5.1,9.6-8.7,13.8c-4.7,5.4-9.1,11-12.1,17.6c-0.6,1.2-1.1,3.2-3,2.9c-1.9-0.3-2.7-2.1-2.8-3.7
	c-0.4-6.1-1.3-12.4,1.5-18.2c3.2-6.7,5.4-13.6,6-21c0.2-3.1,1.6-5.6,3.8-7.9c3.4-3.8,5.9-8.4,9.9-11.8c2-1.7,3.9-3,6.6-3.2
	c1.5-0.1,3-0.3,4.4-0.7c13.3-4,27-3.2,40.6-3.2c0.8,0,1.7,0.1,2.5,0.2C183.7,20.3,184,20.5,185.5,21.4z" />
    <path fill-rule="evenodd" clip-rule="evenodd" fill="none" d="M274.9,21.3C263.3,28.8,251,34,237.6,36.2c-5.6,0.9-10.1,4-14.5,7.4
	c-3.1,2.3-6.1,4.7-9.2,6.9c-10,7.1-18.3,16-25.5,25.8c-3.3,4.4-6.5,8.8-10.6,12.6c-2.3,2.2-4.4,4.5-6.4,7c-2.9,3.6-7.4,4.9-11.6,3.6
	c-6.8-2.2-8.8-9.3-4-14.6c3.8-4.2,8.3-7.4,13.2-10.4c9.9-6.2,19.4-12.9,28.8-19.7c10.5-7.7,21.8-14.1,32.3-21.7
	c5.5-4,11.8-6.4,18.9-7c7.4-0.6,14.7-2.5,22.1-3.8C272.3,21.7,273.6,21.5,274.9,21.3z" />
    <path fill-rule="evenodd" clip-rule="evenodd" fill="none" d="M198,156.8c-4.6-0.6-9.9-1.8-15.1-3.5c-1.9-0.6-2.6-1.9-2.2-3.9
	c0.5-2.8,1.5-5.4,3.3-7.7c4.7-6.2,9.9-12,16.4-16.5c6.1-4.3,12.9-5.1,20-3.9c3.7,0.6,4.7,3.2,3.1,6.7c-2,4.6-4.4,8.9-8.3,12.3
	c-4.2,3.8-8,8-10.7,13C203.3,155.7,201.5,156.9,198,156.8z" />
    <path fill-rule="evenodd" clip-rule="evenodd" fill="none" d="M272.4,148c-5,0.5-9.9-0.8-14.9-1.1c-3-0.2-3.8-2.6-1.9-4.9
	c0.6-0.7,1.5-1.3,2.4-1.7c1.3-0.7,2.7-1.2,4.1-1.9c7.4-3.9,14.8-7.2,23.3-8c4-0.4,7.6-3.2,11.2-5.3c2.4-1.4,2.8-4,3.3-6.4
	c0.6-3,1.4-5.8,4-7.8c4-3.2,7.8-1.8,8.8,3.2c0.6,2.8,0.5,5.6-0.8,8.3c-2.8,6.1-6.3,11.9-10.8,16.7c-3.7,4-8.7,6.8-14.2,7.8
	C282.1,147.6,277.3,148.4,272.4,148z" />
    <path fill-rule="evenodd" clip-rule="evenodd" fill="none" d="M170.4,115.6c-10,6.3-20,10.1-30.2,12.7c-6.8,1.7-12.1,5.3-16.9,10
	c-3.6,3.5-7,7.1-10.6,10.6c-3,2.9-3.7,2.8-6.3-0.4c-6.2-7.5-5.9-10.9,2.3-17c5.3-4,10.7-8,16.7-10.8c8.6-4.1,17.3-7.6,27-8.4
	C158.4,111.7,164,112.8,170.4,115.6z" />
    <path fill-rule="evenodd" clip-rule="evenodd" fill="none" d="M200.9,1737.2c-0.2,3.6-1.2,7.1-2.8,10.4c-3.5,7.2-8.2,13.6-12.5,20.3
	c-2.1,3.2-2.9,6.1-1.3,9.8c1.4,3.2,1.8,6.7,1.6,10.3c-0.1,2.1-1,3.7-3.4,3.2c-5.9-1.4-11.8-2.1-15.2-8.7c-2.7-5.3-2.7-9.8,0.8-14.3
	c4.1-5.2,8.4-10.2,12.7-15.3c4.1-4.9,7.2-10.4,9.9-16c0.7-1.4,1.3-2.7,2.6-3.6c1.8-1.1,3.7-1.6,5.7-0.8
	C201,1733.2,200.9,1735.2,200.9,1737.2z" />
    <path fill-rule="evenodd" clip-rule="evenodd" fill="none" d="M238.9,1736.1c0.2,2.8-1.3,5.5-2,8.4c-2.1,9.2-6.6,17-13.5,23.4
	c-3.3,3.1-5.8,6.8-8.7,10.2c-0.8,1-1.7,2.3-3.2,1.8c-1.5-0.5-1.4-2.1-1.5-3.4c-0.1-2,0.5-3.9,1.1-5.9c2.7-9.7,5.4-19.5,8.2-29.2
	c1-3.3,0.8-6.4-0.8-9.6c-2.7-5.5-0.6-8.2,5.5-7.9c1.7,0.1,3.3,0.5,4.9,0.7C235,1725.3,238.8,1729.6,238.9,1736.1z" />
    <path fill-rule="evenodd" clip-rule="evenodd" fill="none" d="M265.5,1732.8c-0.3-1.4-0.8-3-1.1-4.6c-2.2-9.6,6.2-18.7,12.7-20.7
	c4.4-1.4,7.4,0.7,10.1,3.6c2.2,2.5,2.6,6.7,0.2,9.8c-3.6,4.5-5.8,10.7-12.8,11.6c-0.9,0.1-2,0.9-2.4,1.7c-2.1,3.9-5.3,7.2-6.3,11.8
	c-0.8,3.9-2,7.7-3,11.6c-0.6,2.5-1.9,4.1-4.7,4.3c-3.7,0.2-5.6-0.9-7.5-4.5c-1.3-2.4-0.4-3.9,1.1-5.8c3.1-3.7,6.4-7.2,9.7-10.7
	C263.3,1738.6,265.2,1736.2,265.5,1732.8z" />
    <path fill-rule="evenodd" clip-rule="evenodd" fill="none" d="M555.9,1613.7c0-0.7,0-1.3,0-2c0.1-6.6,3.3-10,9.9-10.6
	c2.6-0.2,4,1.1,4.7,3.4c2.2,6.7-1.3,15-7.5,18.2c-3.3,1.7-6.4,0.1-6.9-3.6c-0.2-1.8,0-3.6,0-5.5
	C556,1613.7,555.9,1613.7,555.9,1613.7z" />
    <path fill-rule="evenodd" clip-rule="evenodd" fill="none" d="M591,1478.9c0.7,8.6-4.2,9.4-11.2,8.8c-2.3-0.2-3.4-1.8-3.7-4
	c-0.7-5.4,4.6-12.4,9.9-13.2c2.2-0.3,3.5,0.7,4.2,2.6C591,1474.9,590.9,1476.9,591,1478.9z" />
    <path fill-rule="evenodd" clip-rule="evenodd" fill="none" d="M571.8,1580.3c2.2,0.4,5,0.9,7.7,1.5c1.6,0.3,2.8,1,3.2,2.7
	c0.3,1.9-0.1,3.6-1.6,5c-4,3.8-12.5,4.7-17.2,2c-1.2-0.7-1.4-1.7-1.4-2.9C562.5,1582.8,565.5,1580,571.8,1580.3z" />
    <path fill-rule="evenodd" clip-rule="evenodd" fill="none" d="M612.9,1530.5c0,2.3,0.2,4.7-1.1,6.8c-1.5,2.3-3.2,2.6-4.7,0.5
	c-2.1-3-3.6-6.4-4-10.1c-0.3-3.1,1.3-5,4-5.3c3.3-0.4,5.4,1.3,5.7,4.7C613,1528.1,612.9,1529.3,612.9,1530.5z" />
    <path fill-rule="evenodd" clip-rule="evenodd" fill="none" d="M565.1,1646.2c0.1-4.7,2.9-8.7,6-8.5c2.8,0.2,5.7,3.9,5.6,7.3
	c0,3.4-3.5,6.6-6.9,6.4C566.8,1651.3,565,1649.4,565.1,1646.2z" />
    <path fill-rule="evenodd" clip-rule="evenodd" fill="none" d="M336.6,357.7c8.6-1.1,17.2-2.8,25.9-3.9c6.7-0.9,13,1.5,19.2,3.9
	C366.7,357.7,351.6,357.7,336.6,357.7z" />
    <path fill-rule="evenodd" clip-rule="evenodd" fill="none" d="M590.7,1548.4c-1.8-0.2-3.2-1.2-3.2-3.4c-0.1-2.3,2.2-4.6,4.5-4.5
	c2.1,0.1,3.5,1.2,3.5,3.4C595.6,1546.1,593.2,1548.4,590.7,1548.4z" />
    <path fill-rule="evenodd" clip-rule="evenodd" d="M699,1835.7c-8.5,0-17,0-25.5,0c-4.6,0-5.4-0.8-3.4-4.9c3.5-7,2.8-14.6,3.7-22
	c1.4-11.9,1.9-23.9,3.4-35.8c2.3-17.2,5.1-34.2,7.8-51.3c1.9-12.5,3.5-25,5.9-37.4c1.6-8.3,1.2-16.5,0.4-24.7
	c-0.6-6.3-0.6-12.7-0.2-19c0.6-10.4-0.3-20.6-1.3-30.9c-0.7-6.9-2.6-13.7-4-20.6c-2.2-10.7-4.5-21.4-6.8-32.1
	c-1.4-6.5-4.6-12.5-6.8-18.8c-1.8-5.2-3.9-10.3-6.1-15.3c-3.3-7.3-4.8-15.2-7.2-22.8c-2-6.2,1.5-11.7,3.9-17.1
	c0.7-1.6,2.2-1.2,3.4-0.3c5.7,4.3,11.4,8.4,13.8,15.7c2.5,7.6,5.8,14.9,8.5,22.4c6.1,16.9,11.3,34.1,16.3,51.4
	c1.9,6.7,5,13.1,6.6,19.9c3,12.3,7.2,24.2,10.1,36.5c1.7,7.4,4.4,14.6,6.5,22c1.5,5.5,2,11.1,2.8,16.7c0.9,6.6,1.7,13.2,2.6,19.8
	c1.2,8.7,1.8,17.5,1.4,26.4c-0.3,6.9-0.5,13.9-0.5,20.9c0,13.8-1.4,27.6-1.3,41.4c0,3.6-0.9,7.3-0.8,10.9c0,14.1-1.6,28.2-1.1,42.4
	c0.2,6.2-0.5,6.7-6.9,6.8C715.6,1835.7,707.3,1835.7,699,1835.7z" />
    <path fill-rule="evenodd" clip-rule="evenodd" d="M611.6,1835.6c0.1-1.6,0.6-2.1,1.2-2.4c6.7-4.5,9.9-11.3,12.9-18.5
	c5.7-13.9,11.7-27.6,17.6-41.4c0.9-2.2,1.7-4.3,2-6.7c4.1-25.1,8.3-50.2,12.4-75.4c0.5-2.9,0.5-6,0.2-9c-1.7-15.6-0.8-31.3-0.8-46.9
	c0-10.5-1.1-20.9-2.5-31.3c-1.2-9.1-2.8-18-3.9-27.1c-0.5-4.3,0.1-5,4.3-5.1c1.5,0,3,0,4.5,0.2c5.9,0.8,7.3,2,8.7,7.9
	c2.2,9.7,4.8,19.4,6.3,29.2c1.4,8.7,1.5,17.6,2.4,26.3c0.7,7.4,0.4,14.9,1.7,22.3c1.3,7.3-0.1,14.6-0.9,21.9
	c-1.5,14.2-2.3,28.5-4.9,42.6c-2.3,12.8-4.5,25.5-6.3,38.4c-1,7.5-3.8,14.4-5.9,21.6c-2.3,8.2-4.3,16.4-6.7,24.5
	c-2.5,8.3-5.5,16.4-8.8,24.4c-0.9,2.3-2,4.3-4.9,4.3C630.7,1835.6,621.3,1835.6,611.6,1835.6z" />
    <path fill-rule="evenodd" clip-rule="evenodd" d="M747.9,1769.3c0.4-12.7-0.6-24.8-1.6-36.9c-0.9-10.6-2.5-21.1-3.9-31.6
	c-0.5-3.8-0.3-7.6,0.4-11.4c1-5.7,0.7-11.6,1-17.4c0.3-4.7,2.5-8.2,4.6-11.9c1-1.7,2.4-1.7,3.7-0.4c5.3,5.2,11,9.9,12.4,18.1
	c1.9,10.6,5.8,20.9,6.9,31.7c1.4,14.6,3.3,29.1,4.2,43.7c0.5,7.6,1.8,15.2,2.7,22.8c1.9,16,3.8,32.1,5.7,48.1c0.2,1.5,0.4,3,0.8,4.4
	c1.6,6.5,1.1,7.1-5.8,7.2c-8.7,0-17.3,0-26,0c-1.8,0-3.7,0-5.5-0.1c-2-0.1-2.7-1.1-2-3c0.1-0.2,0.1-0.3,0.2-0.5
	c5.9-14.7,3.1-29.9,2.6-44.9C748,1781.1,748.2,1774.9,747.9,1769.3z" />
    <path fill-rule="evenodd" clip-rule="evenodd" d="M749.4,376.9c-4.3,0.2-8.2-0.9-12.2-1.2c-2.4-0.1-4-1.4-5-3.6
	c-3.3-7.8-6.6-15.6-9.7-23.5c-0.8-2-1.3-4.2-1.3-6.3c-0.1-5-2-9.4-4.5-13.6c-4.9-8.1-8.5-16.9-13.1-25.2c-4.8-8.6-10.3-16.7-17-23.9
	c-2.8-3-4.4-6.2-3.1-10.4c1.4-4.3,4.2-7.2,8.8-7.7c2-0.2,4-0.3,6-0.4c2.8-0.1,4.6,1.2,5.9,3.7c7.2,12.9,15.6,25.1,23,37.9
	c4,6.8,8.1,13.7,11.2,21.1c3.2,7.7,7.7,14.7,11,22.3c2.4,5.8,4.9,11.6,7.7,17.3c1.9,3.8,0.3,8.4-0.7,12.5c-0.3,1.3-1.7,1.5-2.9,1.4
	C752.1,377.1,750.6,377,749.4,376.9z" />
    <path fill-rule="evenodd" clip-rule="evenodd" d="M756.9,1648.6c0.2,1.1,0.3,1.9,0.4,2.8c0.4,4.1-0.4,5-4.6,5.3c-0.5,0-1,0-1.5,0
	c-9.9,0.2-9.4,0-13.3-8.9c-3.8-8.6-5-17.5-5.9-26.6c-0.2-2.3-0.8-4.6-1.6-6.8c-3.6-9.5-7.2-19-12.1-27.9c-0.5-0.9-0.9-1.8-1.3-2.7
	c-0.9-2.7-0.2-3.6,2.7-3.9c4.3-0.5,7.5,1.5,9.6,5c4.3,7.3,8.6,14.6,12.5,22.1c5.1,9.9,9,20.3,12.9,30.8
	C756.1,1641.4,757.2,1645,756.9,1648.6z" />
</svg>