<?xml version="1.0" encoding="utf-8"?>

<!DOCTYPE svg PUBLIC "-//W3C//DTD SVG 1.1//EN" "http://www.w3.org/Graphics/SVG/1.1/DTD/svg11.dtd">
<svg version="1.1" id="Layer_1" xmlns="http://www.w3.org/2000/svg" xmlns:xlink="http://www.w3.org/1999/xlink"
	 viewBox="0 0 962.9 1459.8" enable-background="new 0 0 962.9 1459.8" xml:space="preserve">
<g>
	<g>
		<path fill-rule="evenodd" clip-rule="evenodd" fill="none" d="M0.9,1462c0-487.3,0-974.5,0-1461.8c321.3,0,642.6,0,963.9,0
			c0,487.3,0,974.5,0,1461.8C643.5,1462,322.2,1462,0.9,1462z M838.5,12L838.5,12c-3.7,6.3-5.6,13.2-7.7,20.2
			c-0.2,0.2-0.2,0.4-0.2,0.7c-4.5,9.4-8.3,19-11.7,28.8c-1.7,5-4.2,9.8-4.6,15.2l0.3,0.2l-0.3-0.2c-1.6,2.1-2.7,4.5-3.5,7
			c-5.9,19.1-13.8,37.4-21.8,55.6c-3.3,7.5-6.9,14.8-9.2,22.7c-0.4,0.9-0.7,1.9-1.1,2.8c-2.5,2-4.8-1.2-7.3-0.3
			c-0.4,1.3-0.4,1.3-0.2,2.6c0.7,1.9,0.8,3.8,0,6.1c-7.2,3.2-11.1,8.8-10.6,17.1c0,0.3-0.3,0.6-0.4,0.9c-0.8,2.9-1.7,5.8-1.2,8.9
			c-0.5,3.7-0.9,7.3-1.4,11c-2.3,2.1-3.5,5-5.1,7.6c-3.3,5.4-7.2,10.5-9.9,16.3c-2.5,3.2-5,6.4-6.6,10.2c-2.9,4.2-5.9,8.3-8.2,12.9
			c-0.9,1.5-2.7,2.5-2.5,4.6c0.7,1,1.5,2.1,2.2,3.1c-2.3-0.2-3,1.9-4.2,3.1c-6.2,6.6-12.7,12.8-18.4,19.9c-3.9,4.9-8.1,9.4-10.9,15
			c-1.5,2.9-3.3,5.7-5.3,8.2c-2.5,3.1-4.3,6.6-6.2,10c-1,1.7-2,3.4-3.1,5c-5,7.3-9.5,15.1-16.9,20.5c-2.4,1.7-5,3.1-6.9,5.4
			c-5.8,4.5-11.7,8.8-17.4,13.4c-7.9,6.4-15.7,12.9-22.6,20.5c-1,0.5-2.2,0.9-2.9,1.7c-10.1,10-21.9,18.3-30.2,30.1
			c-1.7,2.5-4.2,4.4-7.6,3.1c-2-2.5-2-5.3-1-8.1c0.8-2.2,1.7-4.4,1.6-6.7c-0.2-3.6,1.1-6.8,2.5-10c2.3-5.1,4.8-10.2,7-15.3
			c3.4-8.1,8.3-15.6,10.2-24.5c2.2-10.2,2.3-19.6-5.2-28c-1.9-2.1-4.2-4.3-4.2-7.6c5.2-2.1,10.5-3.6,15.9-4.6
			c7.7,2.5,13,8.4,19.1,13.2c5.1,6,11.6,10.6,16.6,17.5c2.9-3.7,5.9-6.6,7.5-10.6c1.8-1.3,2.7-3.3,4.1-4.9c2.2-1.2,3.4-3.3,5.1-5.3
			c-8.2-6.9-16.5-13-26.2-17c-9-5-18.8-6.6-29-5.7c-8.4,0.5-15.3,4.2-21.2,9.7c-2.8-1.3-5.3-2.5-7.8-3.7c-3.5-1.6-7.2-2.6-11-3.1
			c-0.4-0.6-0.9-0.9-1.6-1c-6.1-0.6-12.1-1.1-18.2,0c-7.3,1.3-14.6,2-21.4,5.6c-7.2,3.8-13.3,9.2-20.2,13.6
			c-0.4,0.3-0.5,1.2-0.7,1.8l0.1,0c-1.3,1-2.7,1.9-4,2.9c-8.3,6-8.3,9.7-4.8,17.2c-2.3,7.9-5.1,16-4,24.7c-0.8,1.4-1.5,2.7-2.3,4.1
			c-1.2,1.6-2.6,3-3,5.1c-3.4,3.2-3.4,7.4-3.9,11.5c1.3,0.8,2.4,1.4,3.8,1.5c0.7,0.7,1.4,1.3,2.1,2c0.7,3.2-1.5,6.6,0.2,9.8
			c-0.4,5.2,1.3,9.4,5.9,12.3c0.5,9.5-0.6,18.9-1,28.6c1.6-0.1,2.6,2.5,4.3,0.3c1,0,1.9-0.3,2.8-0.6c4.9-2,9-5.4,13.3-8.3
			c2.7-1.8,5.4-3.8,9.1-2.9c0.5,0.4,1,0.7,1.5,1.2c4.6,4.1,4.6,6.2,0.1,10.3c-0.4,0.3-0.7,0.7-1,1.1c-3.9,1.9-7.6,3.9-9.7,8.1
			c-0.6,0.1-1.4,0-1.9,0.3c-7,4.7-13.9,9.4-20.8,14.1c-1,0.7-0.3,2.7-2.3,2.8c-2.6,0.1-3.9,2.2-5.3,4.1l-0.1,0
			c-0.6,0-0.9,0.3-1.1,0.8c-2.4,2.8-4.9,5.5-7.1,8.5c-1.4,2-4.3,3.2-4,6.4c-7.3,9.1-7.9,20.6-10.9,31.2c-4.5,16.4-7.7,33.1-12,50.1
			c-5.9-4.8-11.3-9.1-17.8-11.7c-0.9-0.4-1.6-1.1-2.3-1.8c-1.3-1.3-1.6-2.8-0.6-4.3c3.9-1.6,8,1.6,11.7-0.9c0.1-4,0.2-7.7-1.5-11.4
			c-3.3-7.1-9.3-11.4-15.8-15.6c2.4-10.5-4.1-17.1-10.6-23.6c1.6-0.9,3.1-0.9,4.5-1c3.5-0.3,6.6,1.1,9.8,1.9
			c0.5-0.7,0.4-1.1,0.1-1.6c-5.3-10.7-13-18.8-24.2-23.3c-0.3-1.2,0.1-1.6,1.4-1.9c4-0.9,8-2,12.4-2.3c-0.4-0.9-0.4-1.5-0.7-1.7
			c-10.7-8.6-23.8-13-35.2-20.6c8.5-6.8,8.9-12.2,1.6-20.7c-2.7-3.1-5.7-6-8.9-8.6c-0.4-1.5-1.7-2.3-2.6-3.4
			c-5.9-6.6-13.2-11.5-19.6-17.4c-2.8-2.6-6.2-4.5-9.6-6.3c-5.3-2.8-11.2-4.6-15.8-8.9c-2.7-2.5-5.4-5.3-9.1-6.7
			c-3.8-3.9-8-7.2-12.2-10.7c-6-5-10-11.7-15.1-17.5c0-3.3-2.1-6.4-0.4-9.3c-1.3-3.5-3.2-5.8-6.9-5.9c-4.4-0.1-8.9-0.6-13.2,1.1
			c-3.1,0-6.2,0-9,0c-1.4-2.7-2.5-4.9-3.6-7.1c0.2-4.2-2.7-6.9-4.8-10c-1.4-3.2-3.4-5.9-6.2-8c-1.5-3.9-5.6-4.7-8.5-6.9
			c-4.6-3.5-10.1-4.2-16.1-4c-1.4,8.1-1.4,16,0.5,23.9c0.5,1.3-0.6,3.1,1.1,4.1c0.1,0.6,0.1,1.3,0.2,1.9c-0.2,0.7,0.1,1,0.7,1.3
			c0.9,4.3,2.2,8.4,5,11.9c2.5,6.8-0.9,13.1-8.1,14.9c-5.6,1.4-11.4,2.2-17.4,1.8c-6.1-7.7-12.2-15.5-18.5-23.2
			c-2.2-2.7-3.1-5.7-4-8.9c-1.2-4.2-0.4-8.6-1.5-12.8c-0.9-1.9,0.1-3.9-0.7-5.8c-5.4,11.4-7.7,23.3-5.7,35.8c0.2,3.6,1.2,7,3.1,10.1
			c2,7.9,6.7,14.4,10.8,21.2c3.3,5,4.8,10.3,4.2,16.4c-0.8,9.4-1.5,18.8-1.1,28.3c-1.8,3-3,6.3-2.7,9.9c-1.4,3.8-2.7,7.8-4.3,11.5
			c-2.6,6-2.3,11.9,0.1,17.8c1.6,3.8,3,7.8,5.3,11.1c3.3,4.9,5.6,10.1,6.3,15.9c0.4,3.4,1.1,6.8,1.5,10.2
			c1.6,10.9,2.8,21.9,3.9,32.9c0.5,4.7,0.4,9.5,2,14c-0.5,2.9,1.1,5.7,0.8,8.6c-1.7,2.3-0.1,3.9,0.8,5.5c-0.8,9.2-0.8,18.4-0.5,27.7
			c-0.5,4.2-0.4,8.4-0.9,12.6c-0.6,4.7-1,9.7,0.4,14.5c0.2,0.6,0.3,1.2,0.5,1.8c-0.3,0.9,0,1.6,0.8,2c0.4,3.7,3.5,5,6.1,6.5
			c6.5,3.5,11,8.3,11.9,16c0.5,4.3,2.3,5.9,6.5,5.8c2-0.1,3.9-0.2,5.9-0.7c3.8-1,7.7-2.1,11.8-1.5c0.4,0.3,0.8,0.6,1.1,0.9
			c8,7.3,19,5.8,24.6-3.6c2.3-3.9,4-8.3,6-12.4c2.4-5,2.3-10.1,1.4-15.5c-0.6-3.4-1.9-6.7-1.3-10.1c2-2.7,4.5-4.7,5.7-7.9
			c-1.2-3.7-3-7.2-5.3-10.4c-1.2-1.7-2.4-3.9-1.4-5.5c2-3.1,2.8-6.7,4.9-10.3c3.5,3.5,4,7.4,4,11.4c0.3,13.8-1.7,27.6-2.6,41.3
			c-0.6,8.8-1,17.7-0.2,26.4c0.5,5.8,1.1,11.6,0.5,17.3c-0.6,5.5,0,10.5,1.9,15.5c-0.7,4.2-0.2,9-2.2,12.4
			c-5.2,9.2-5.8,19.7-9.8,29.1c-0.4,1-0.7,2.3-0.6,3.4c0.2,3.6-0.8,7.2-1.4,10.6c-0.4,2.9,0.4,6.3-1.2,8.6c-1.4,2.1-1.5,3.8-1.1,5.8
			l0,0.4l0.4,0.1c0.7,0.1,1.4,0.2,2,0.4c-1.5,2.7-2.3,5.4-2.6,8.5c-0.6,5.6-1.7,11.2-5,16.2c-5.3,8.2-6.7,17.6-7.2,27.3
			c-0.4,7,0.6,13.9,0.8,20.8c0.2,7.5,2,14.4,4.9,21.2c0.2,1.8,0.4,3.5,1,5.3c2.6,8,4.6,16.2,7.6,24.1c1.1,2.9,0.3,4-1.5,5.4
			c-2,0-2.8,2.1-4.5,2.4c-0.9,1.3,0.2,3.1-1.2,4.1c-2.9-3.7-5.5-0.2-7,1.2c-3.9,3.7-8.8,5.9-12.9,9.3c-3.9,3.2-8.2,5.8-11.2,10.1
			c-2.7,3.9-6.5,7.2-10.3,9.6c-5.6,3.5-10.6,8-16.9,10.4c-3,1.2-5.8,3.2-8,5.7c-3.8,4.1-6.1,8.9-5.9,14.7c0.3,8,2,15.8,3.9,23.5
			c-0.3,4.8,1.7,9.3,2.1,14c0.7,8.3,2.1,16.6,3.2,24.9c0.7,5.5,0.6,10.7,0,16.1c-0.5,4.7-2.3,9.2-2.2,13.9c-1.3,2.5-0.8,5.4-1.5,8.1
			c-2.6,10.2-4.5,20.5-3.8,31.1c0.2,3,1.1,5.8,2.6,8.3c3.3,5.8,7,11.4,10.1,17.4c1.7,3.3,3.3,6.8,2.6,10.8
			c-1.2,7.7-1.3,15.5-0.8,23.3c0.8,7.2,2.3,14.3,4.8,21.1c0.2,1.5,0.9,2.8,1.2,4.2c1.3,5.8,3,11.4,5.4,16.8c1.5,3.3,4,4.9,7.8,4.9
			c4.1,0,7.8-1,11.4-2.6c10.2-4.3,18.1-11.7,24.8-20.1c4.3-5.4,5.5-11.9,3.7-19.1c-2-8.1-5.6-15.4-10.2-22.2
			c-2.6-3.9-5.3-7.9-10.5-9.2c-2.8-0.7-5.7-7.8-5-11c2.6-10.5,0.7-20.8-1.3-31c-1.8-9-4.3-17.9-4.4-27.2c-0.2-16,1-31.9,2.1-47.8
			c0.4-5.4,1.3-10.8,2-16.2c0.6-4.7,3.1-7.5,7.9-8.6c12.4-3,25-4.5,37.6-5.9c8.2-0.9,16.5-1.7,24.7-2.3c7.7-0.6,15.4-1.9,23.4-1.8
			c1.2,1.8,3.2,2.7,4.9,4.1c14.9,12.7,32.1,19,51.7,18.9c7.7,0,15.2,1,22.9,1.3c4.2,0.2,8.5,0.2,12.7,1.1c0.8,7.8-0.8,15.1-1.2,22.6
			c-0.4,8.2-1.8,16.4-2.7,24.6c-1,9-2.1,17.7-8.1,25.4c-6.5,8.3-9.5,18.1-9.1,29.1c0.4,12,1.7,23.9,1.3,35.9c-0.3,0.9-0.1,1.6,0.9,2
			l0,0c-1.8,2.8-2.8,5.8-3.6,9.1c-2.2,8.7-4.8,17.3-7.2,26c-2.6,5.6-3.3,12-7.9,16.7c-2,2-3.6,4.5-5.3,6.8
			c-6.8,8.7-9.4,18.2-7.1,29.2c0.9,4.5,0.4,9.1-3.8,12.3c-6.1,4.5-11.9,9.2-15.2,16.5c-3.2,6.9-7.4,13.4-9.1,21.3
			c2.1-0.6,3.8-1.5,5,0.6c-1.5,1.2-3.3-0.2-4.7,0.9c-4,3.1-8.8,3.2-13.5,3.9c-9.4,1.4-18.6,3.8-28.1,5.1c-4.5,0.6-9.2,0.9-13.6,2.7
			c-1.5-0.3-3,0-4.5,0.3c-13.1,2.3-26.2,4.4-39.3,6.9c-10.1,1.9-20.3,3.1-30.3,5.6c-1,0-2-0.2-2.8,0.7c0,19.8,0,39.6,0,59.4
			c0.1,2.3-1.7,2.5-3.3,2.9c-4.4,1.2-8.8,2.4-13.2,3.5c-1.5,0.3-2.9,0.6-4.4,1c-18.3,4.8-36.6,9.6-54.9,14.4
			c-7.2,1.9-14.4,3.8-21.5,5.6c-0.1,1.1-0.3,1.8-0.3,2.4c0,15.2,0,30.3,0,45.5c0,1-0.1,2,0.6,2.9c-0.3,2.3-2,2.6-3.9,3
			c-9.1,2.2-18.3,4.6-27.4,7c-8.2,1.9-16.5,3.8-24.7,5.9c-16.7,4.1-33.5,8.2-50.2,12.4c0,0.1,0,0.3,0.1,0.4c25.3,0,50.5,0,75.8,0
			c21.6,0.1,43.1,0.1,64.7,0.2c9.8,0,19.6-0.1,29.3-0.2c23.9,0.1,47.8,0.1,71.6,0.2c8.8,0,17.6-0.1,26.4-0.2c1.2,0,2.3,0.1,3.5,0.1
			c61.7,0,123.4,0,185.2,0c1.2,0,2.3-0.1,3.5-0.2c1,0,2,0.1,3,0.1c53.1,0,106.2,0,159.3,0c1.2,0,2.3-0.1,3.5-0.2c1,0,2,0.1,3,0.1
			c48.8,0,97.6,0,146.4,0c1.2,0,2.3-0.1,3.5-0.2c5.7,0.2,11.4,0.3,17.1,0c33.8,0,67.6,0.1,101.4,0.1c0.4,0,0.9-0.3,1.3-0.5
			c0-7.4,0-14.7,0-22c-9.2-4.9-19.4-7.2-28.8-11.8c0.6-4.5-1.8-8.5-1.9-12.8c1.4-1.3,0.2-3.4,1.8-4.9c6.2-5.6,7.5-13.3,8.1-21
			c0.8-10.3-1.9-20.3-5.9-29.4c-4.7-10.6-6.9-21.7-7.7-32.9c-0.8-10.9-1.4-21.8-1.3-32.8c0-8.5,0-17,0-25.5c0-6.3,2.2-11.9,5-17.3
			c7.9,6.8,15.5,13.9,24.1,19.9c10.5,7.2,21.5,13.1,34.1,15.7c8.2,1.7,16.4,2.6,24.7,0.5c4.7-1.2,7.4-4.2,8.3-8.9
			c1.2-6.3-0.8-11.9-4.4-16.9c-7.4-10.4-14.6-20.9-21.3-31.8c-6.7-10.9-13.5-21.7-17.6-33.9c-8.3-24.4-15.3-49.1-19.2-74.7
			c-2.1-14.2-7.1-27.7-11.4-41.4c-7.1-22.7-15-45.2-22.5-67.8c-3.4-10.4-5.7-21.1-8.8-31.5c-0.1-1,0.1-2.1-0.2-2.9
			c-1.3-3.3-2.4-6.8-2.9-10.1c-1.5-9.3-4.1-18.2-6.8-27.1c-1-3.4-1.8-6.9-2.9-10.3c-6.1-19.3-15.2-37.3-23.7-55.5
			c-6.7-14.2-14.1-28.1-22-41.7c-8.5-14.7-17.5-29.2-29.4-41.3c-8.2-8.4-15.7-17.4-24.1-25.6c3.1-4.9,2.8-6.7-1.4-10.7
			c-1.6-1.5-3.4-2.7-5.3-3.6c-18.6-9.7-38.1-17.6-57.2-26.1c-4.1-1.8-8.9-2.3-12.2-5.8c-1.4-2.7-4.4-3.7-6.3-5.9
			c-5-5.7-10.4-11.1-15.2-17c-3.4-4.2-6.7-8.3-8.4-13.6c-1.3-4.2-3.3-8.2-5.1-12.2c-2.6-5.8-5.2-11.5-7.8-17.3c0.8-2-1.5-2.7-2-4.2
			c-3.8-12.2-10.1-23.4-14.8-35.2c-2.1-5.2-5.1-10.1-6.4-15.6c-0.2-2.3-2-3.9-2.4-6.1c-0.5-2,2.2-2.8,1.6-4.8
			c6.8-7.4,12.4-15.8,18-24c7.7-11.2,12-24.1,15.9-37c2.4-5.5,3.9-11.2,5-17c0.6-0.4,0.9-0.9,1-1.6c1.2-8.8,1-17.6-0.2-26.3
			c0.1-6.5,0.3-13.1,0.4-19.6c1.1-1.8,1.6-3.9,3.2-5.5c4.2-4.1,7.1-9.1,10.1-14.1c4.6-7.6,8.4-15.7,13.8-22.9
			c3.4-4.5,6.7-9,9.7-13.8c7.1-11.5,13.7-23.3,20.9-34.8c5.8-9.2,12.2-17.8,22-23.1c0,3.1,3.5,4.5,3.6,8c2.5-3,4.2-5.8,5.4-8.7
			c3.2-7.4,8.4-13.6,11.7-20.8c2.1-4.7,5.6-8.6,7.2-13.6c1.8-3.8,3.6-7.7,5.3-11.5c0.8-1.8,2.5-3.2,1.8-5.5
			c3.4-8.6,6.8-17.2,10.1-25.8c3.5-9,6.8-18,10.3-26.9c1.2-3,2-6,1.7-9.2c-0.3-2.4,0.5-4.4,1.9-6.5c2.9-4.4,5.5-9,8.1-13.6
			c2.5-4.6,4-9.5,2.4-14.7c-0.3-1.1,0.3-1.9,0.2-2.8c-0.1-4,3.4-7.3,2.1-11.4c-1.5-4.8-1.8-10-5.7-13.6c0-0.8,0-1.3,0.1-1.7
			c9.6-28.6,19.2-57.2,28.9-85.8c3.9-11.5,7.4-23.1,11.5-34.5c4.5-12.5,8.2-25.3,13.1-37.7c0.7-1.8,0.1-2.7-1.3-3.3
			c-1.4,0.8-1.2,1.8-1.3,2.8C838.6,9.8,838.8,11,838.5,12z"/>
		<path fill-rule="evenodd" clip-rule="evenodd" fill="#1D174D" d="M480.8,396.1c-0.7-0.7-1.4-1.3-2.1-2c1.2-3.4,4.9-3.9,7-6.2
			c1.9,0.3,2.9-0.8,3.3-1.6c-2.1-4.1-5.9-6.2-7.2-10.3c0.8-1.4,1.5-2.7,2.3-4.1c1.8-1.8,0-4.2,1.1-6.3c0.8,0,1.8,0.7,2.8-0.4
			c1.8-3.2,4.5-6,7.7-8.3c1,0,2,0,3,0l0.1,0.1c-1.1,2.8-3.1,5.5-1,9.4c2.6-2.4,6.6-0.3,8.6-3.1c0.7-2.5-1.3-2.8-2.1-3.9
			c4.1-3.1-1.5-5.3-0.8-8.1c1.6-0.8,3.5,0.3,5.1-1.3c0.2-3.9,0.8-8-1.6-11.8c-2.7-0.4-5.3-0.6-7.3,1.7c-1,0-2,0.1-3,0.1
			c-0.1-1.2,0.6-2.1,1-3.2c1.6-3.5,1.5-6.8-1.1-9.9l-0.1,0c7.4-2.4,13.4,0.9,19.3,4.7c1.6,1.1,2.6,3,4.7,3.5c1.4,3.1,4.3,5,6.3,7.6
			c2.4,3,6.4,4.2,8.1,7.9c0.9,2,2.4,3.4,4.2,4.7c2.6,1.9,5,3.3,8.3,3.9c3.6,0.6,6.9,2.9,10.5,3.8c1.6-0.7,2.5-1.9,3.5-3.6
			c-9.2-9.3-18.4-18.5-27.7-27.8c-1-1-2-2.3-3.5-2.8c-0.1-0.4-0.3-0.6-0.6-0.6c1.6-2.5,3-0.2,3.9,0.4c5.4,3.8,10.4,8.1,15.1,12.8
			c2.2,2.2,4.4,4.4,8,4.5c1.3-1.7,2.7-3.3,4-5c-4.7-7.5-11.2-12.9-17.9-17.9c-3.5-2.6-6.8-5.8-11.1-7.1c-1.9,0-2.5-1.5-3.4-2.8
			c2.1-0.6,3.6,0.7,5.3,1.3c4.3,1.6,7.8,4.8,12,6.7c3.9,4.7,8.5,8.7,12.9,13.1c2.5-2.5,3.4-5.3,5-7.6c-1.3-2-2.8-3.5-4.4-5
			c-1.7-1.6-4.2-2.8-4.4-5.7l0,0c3,0.1,4.1,3.9,7,3.7c3.3-2.9,5.3-6.5,7.9-9.6c2.5,1.2,5,2.4,7.8,3.7c5.9-5.5,12.9-9.2,21.2-9.7
			c2.3,1.5,4.2,3.5,7.2,3.9c5.8,0.8,11.6,2.1,16.8,5c1.6,0.9,3,2,5,2c7.6,5,14.4,11,21.1,17.2c-1.4,1.6-2.3,3.7-4.1,4.9
			c-4.1-1-6.7-4-9.3-7c-3.2-3.7-7.4-5.9-11.2-8.7c-1-0.7-2.2-0.6-3.1,0.2c-0.9,1.6,0,2.9,0.5,4.3c0.5,1.6-0.3,2.9-0.9,4.2
			c-6.1-4.7-11.4-10.7-19.1-13.2c-5.4,0.9-10.7,2.4-15.9,4.6c0,3.3,2.4,5.5,4.2,7.6c7.5,8.4,7.4,17.8,5.2,28
			c-1.9,8.9-6.8,16.4-10.2,24.5c-2.2,5.2-4.6,10.2-7,15.3c-1.5,3.2-2.7,6.3-2.5,10c0.1,2.3-0.8,4.5-1.6,6.7c-1,2.7-1,5.5,1,8.1
			c3.4,1.4,5.9-0.6,7.6-3.1c8.3-11.8,20.1-20.1,30.2-30.1c0.8-0.8,1.9-1.1,2.9-1.7c2.6,3.3,5.7,5.9,9.6,7c5.3-1.9,10.6-3.1,15.5-5.8
			c4.8-2.7,9.3-6,14.2-8.5c3.9-2,6.4-5.7,10.2-7.7c3.2-1.7,5.7-3.9,7.6-7c2.1-3.3,5.8-5.4,7.8-8.8c3.6-6.1,7.6-12,11-18.1
			c1.4-2.4,3.7-4.8,3.4-8c1.1-1.4,2.6-2.4,3.4-4.1c2-3.9,3.9-7.8,6.3-11.5c3.9-5.9,7.1-12.2,11-18.1c3.4-5,6.3-10.4,11.3-14.3
			c3-2.4,6.4-4.9,7.1-9.4c-2.1-2.3-4.3-4.6-6.4-6.9c-0.7-1.1-1.5-2.1-2.2-3.1c-0.2-2.2,1.6-3.1,2.5-4.6c2.9,0.6,6,0.4,8.6,1.9
			c4.8,2.7,10.5,2.6,15.4,4.9c0.9,0.4,2,0.2,3.1-0.7c1.4-3.3,2.6-7,2.8-11l0-0.1c1.5-1.1,0.7-2.7,0.9-4.1c1.3-2.6,1.4-5.3,0.1-7.9
			c-1.6-4.9-1.1-9.9-0.7-14.9c0.4-5,3.1-10.2-0.6-15.1c0.5-3.7,0.9-7.3,1.4-11c1.1,0.1,2.3-0.5,3.4,0.5c-1.5,2.2-4.5,4.3-1,7.3
			c0.9-0.4,1.6-0.7,2.3-1c0.8,2.2-2.1,3.2-1.6,6c0.1,0.1,0.6,0.5,1.2,0.7c0.8,0.2,1.6,0.2,2.4,0.3c0.2,0.9-0.5,2,1,3
			c3.4-2.3,7.7-3.4,11.1-6.4c1.5-1.4,3.8-2,3.9-4.6c2.2-0.9,3-2.9,3.9-4.9c4-9,3.6-18.4,2.1-27.8c-0.7-4.7-1.1-4.9-6-5.3
			c-0.8-1.3-3.4-0.8-3-3.1c0.4-0.9,0.7-1.9,1.1-2.8c6.8-1.7,10.7-6.4,10.8-13.4c0.1-5.3,1.4-10.4,3.3-15.3c2.8-7.2,6.6-14,9.4-21.1
			c4.2-10.3,6.7-21.2,11-31.6c0.5-1.3,0.4-2.6,0-3.9l0.3,0.2l-0.3-0.2c1.7-0.3,1.8-1.8,2.2-2.9c3.7-9.9,7.5-19.7,10.8-29.7
			c1.2-3.7,3.8-7.1,3.2-11.3c-0.1-0.3,0-0.5,0.2-0.7c4.2-6.1,6.3-13.1,7.7-20.2l0,0.1c1.6-0.4,1.2-1.8,1.3-2.9c0.1-1,0-2,1.3-2.8
			c1.4,0.7,2,1.6,1.3,3.3c-4.9,12.4-8.6,25.2-13.1,37.7c-4.1,11.4-7.6,23-11.5,34.5c-9.6,28.6-19.3,57.2-28.9,85.8
			c-0.2,0.5-0.1,1-0.1,1.7c3.9,3.6,4.2,8.8,5.7,13.6c1.3,4.2-2.2,7.5-2.1,11.4c0,0.9-0.6,1.8-0.2,2.8c1.7,5.3,0.2,10.2-2.4,14.7
			c-2.6,4.6-5.2,9.2-8.1,13.6c-1.3,2.1-2.1,4-1.9,6.5c0.3,3.2-0.5,6.2-1.7,9.2c-3.5,9-6.8,18-10.3,26.9c-3.3,8.6-6.8,17.2-10.1,25.8
			c-2,0.4-2.8-2.4-5.3-1.7c-4.6,4.1-7.1,9.9-9.5,15.8c-0.7,0.3-0.9,0.9-1.2,1.5c-6.3,12.2-12.7,24.3-19.1,36.5
			c-9.8,5.3-16.2,13.9-22,23.1c-7.2,11.5-13.8,23.3-20.9,34.8c-3,4.8-6.3,9.3-9.7,13.8c-5.3,7.2-9.2,15.3-13.8,22.9
			c-3,5-5.9,10-10.1,14.1c-1.6,1.6-2.1,3.7-3.2,5.5c-9.1,0.6-13.9,2.9-17.2,14.6c-3.3,8-3.9,16.5-4.8,24.9
			c-1.4,6.8-2.7,13.7-4.1,20.7c2.8,0.3,5.1,0.8,7.1,1.6c4.2,1.6,8.7,1,12.8,2.8c-3.9,13-8.2,25.8-15.9,37c-5.6,8.3-11.3,16.6-18,24
			c-2.7-2,0.4-4.2-0.5-7.1c-2.4-2.9-5.4-6.5-8.4-10.1c-2.2-5.2-7.2-7.6-11.3-10.9c-11.6-9.3-25.6-12.5-39.7-14.9
			c-1.7,0.3-2,1.9-2.9,2.5c-10.3,2.8-21.6-0.3-31.3,5.1c0.4,2.2,0.9,3.7,1.8,5.1c8.6,1.1,17.1-2.2,26.3-0.2
			c-0.4,3.9-3.1,7.2-3.2,11.1c-9.5,0.2-19.2-0.3-29,2.5c0.6,10.1,2.1,19.8,6.7,28.8c2.6,5,6.6,7.4,12.9,7.4
			c7.3-0.1,14.5,2.2,21.5,4.6c0,0.3,0,0.6-0.1,0.9c-6.7-1.2-13.5-0.8-20.3-0.8c-2.1,0-4.2,0-5.8,1.9c6.1,8.2,13.1,15.4,19.2,22.9
			c-2.9,7.6-8.7,11.9-14.2,16.3c-6.3,5.1-11.1,10.9-9.8,19.8c-0.5,2.9,0.2,5.5,1.3,8.2c2.2,5.6,5.7,10.4,9.4,15.1
			c4.3,5.4,9.5,9.4,17,7.8c1.8-0.4,3.5-1.3,5.7-0.6c-3.1,2.8-7.3,4.2-8.2,8.5c0.9,7.6,5.9,12.3,11.1,16.8c4.6,1.1,8.5-2.7,13-1.4
			c-0.3,3.5-4.1,5.2-3.6,8.7c-0.9,0.5-1.7,1.1-1.6,2.2c1.4,4.4,4.6,7.2,7.9,10.1c9.4,8.1,19.7,15.1,26.7,25.8
			c3.4,5.1,5.9,10.2,6.2,16.3c0.3,5.5,2.2,8.1,7,9.7c3-2.6,7.2-3.6,10.6-6.2c1-5.7-0.2-11.3-1.3-16.7c-2.6-12.8-6.5-25.2-13.8-36.4
			c-2.8-4.4-6.5-7.9-9.4-12c-0.9-1.3-2.3-1.9-3.9-1.8c-1.6-1.8-1.6-4.3-3.1-6.1c-5-6.2-9.5-12.8-15.3-18.3c-1.8-1.7-2.3-4-2.7-6.3
			c-0.2-1.5-0.4-2.9-0.7-4.4c-1.4-6-4.2-11.3-7.9-16.2c9.7,4.2,13.8,12.6,16,22.1c1.1-0.2,1.3-0.7,1.3-1.2c0.5-8.5,1.2-17-3.8-24.6
			c-0.5-0.8-0.7-1.8-1-2.8l0,0c7.9,2.6,13.6,7.9,17.9,16c1.1-2.7,1.9-4.3,2-6.1c0-3.5,0.3-7,0-10.4c-0.9-8.2-2.4-16.2-6.7-23.4
			c-5.1-11.3-12.8-20.3-24-26.1c0.4-0.9,1.2-0.8,2-0.9c4.4,1.8,7.8,5.3,12.1,7.4c1.7,2.7,4.3,4.6,6.1,7.1c4.5,6.1,6.3,13.4,9.7,19.9
			c3.1,6.2,5,12.9,9,18.7c0,0.7-0.1,1.4,0.2,2c4.1,9,8,18,12.3,26.9c2.6,5.3,5.4,10.5,8.1,15.7c1.7,3.3,2.8,7.4,6.8,9.4
			c3.6-3.6,7.4-6.7,12.3-9.3c-5.5-12.4-12.3-23.9-16.9-36.5c13.2,15.5,26.2,30.9,41.5,44.4c1.2-0.3,2.6-0.6,4.1-1
			c0.8-0.7,0.4-2,1.4-2.6c3.3,3.5,8.1,4,12.2,5.8c19.1,8.6,38.6,16.5,57.2,26.1c1.9,1,3.7,2.1,5.3,3.6c4.2,4,4.5,5.8,1.4,10.7
			c8.3,8.2,15.8,17.2,24.1,25.6c11.9,12.2,20.9,26.6,29.4,41.3c7.9,13.6,15.3,27.5,22,41.7c8.6,18.2,17.6,36.2,23.7,55.5
			c1.1,3.4,2,6.9,2.9,10.3c-1.3,2.3-3-0.8-4.4,0.5c-11,5.7-23.9,4.8-35.7,9.5c0.9,6.4-1,12.1-3.3,17.5c-5,11.8-8.3,24.2-12.1,36.4
			c-4,12.8-7,25.9-6.4,39.4c0.3,8,2,15.6,7.8,21.9c2.1,2.2,4.6,3.8,6.7,5.9c7.8,7.4,12,16.9,15.4,26.8c1.2,3.7,1.2,7.9,3.9,11.1
			c0.1,1.8-0.1,3.7,0.4,5.5c4.1,16.5,5.7,33.5,9.8,50c0.8,3.2,1.3,6.5,2,9.7c2.5,10.8,3.6,21.8,5.6,32.6c1.7,9,2.4,18.2,4.5,27
			c1.2,5.1,1.1,10.6,4.3,15.1c0.4,2.5,1.3,5.1,2.9,6.8c3.2,3.3,4.4,7.4,5.4,11.6c2.8,11.3,4.1,22.8,4.8,34.4c0.7,11.4,1,23,0,34.4
			c-0.5,5.1-1.4,10.1-3.2,15c-6.1,16.4-7.1,32.9-0.8,49.6c1.1,3,3.2,4.9,5.9,6.3c3.2,1.6,6.9,2,10.6,3.4c-1.1,1.6-1.3,3-0.2,4.3
			c0.2,4.3,2.5,8.3,1.9,12.8c9.4,4.7,19.6,6.9,28.8,11.8c0,7.3,0,14.6,0,22c-0.4,0.2-0.9,0.5-1.3,0.5c-33.8,0-67.6-0.1-101.4-0.1
			c0.7-8.6,2.3-17,7.8-24.3c-1.8-1.7-3.8-3.2-6.1-4.1c-8.1-3.2-16.3-6.2-24.5-9.3c-12-4.6-24.3-8.4-36.1-13.6
			c-2.6-1.1-5.8-1.1-7.8-3.1c-2.1-2.1-4.3-3.2-7.2-2.9c0.5-2.2,3-1.3,3.5-3c1.2-5.9,5.3-11.1,4.4-16.9c0.3-2,3-1.2,2.5-3.5
			c-1.4-1.4-4.2-2-3.5-5.1c1.9,0.1,3.3,1.4,5,2c0.1,0.6-0.1,1.3,0.8,1.4c0.5-0.2,0.9-0.4,1.4-0.7c0.3-0.1,0.6,0,0.9,0.3
			c0.4,0.8,1.2,0.9,2,0.9c26,8.9,51.3,19.7,77.5,28.9c2.5-5.9,7.8-8.9,12.4-12.5c-1.4-8.2-1.7-16.3,0.2-24.3c1.4-6,3.2-12,5.8-17.6
			c1-2.2,2-4.6,2-7c0.3-11.3,0.2-22.6-1.6-33.8c-1.1-6.8-2.2-13.6-3.3-20.4c-2-12.6-4.5-25.2-8.6-37.4c-4.3-12.7-9.2-25.3-11.9-38.5
			c-1.5-7.6-2.5-15.2-4.2-22.8c-3.3-14.5-9.1-28.1-15.7-41.2c-5.8-11.6-10.3-23.8-14.7-35.9c-3-8.2-6.1-16.4-12.6-22.6
			c-13.5-13-27.1-25.9-40.8-38.8c-1.8,1.6-2.7,3.5-3.7,5.3c-3.5,6-6.7,12.2-10.7,17.8c-7.1,10.1-17.6,16.5-27.2,23.8
			c-7.2,5.5-14.8,10.5-22.1,15.9c-7.8,5.9-11.6,14.6-14.9,23.4c-5.7,15.2-9.6,31-13,46.8c-1.4,6.7-3.9,13.2-4.1,20.2
			c-0.2,8,0.2,15.8,2.8,23.4c2.8,8.3,0.1,15-5.9,21c-4.6,4.6-9.5,8.8-14.9,12.3c-6.2,4-11.8,8.6-16.5,14.3
			c-9,10.8-17.5,22-25.3,33.7c-1.9,0.4-3.4-0.9-5.1-1.1c-0.3-0.9-1.1-1-1.9-1c-9.7-4.6-20.1-7.6-29.9-12c-3.7-1.7-8.2-1.1-11.4-4.1
			c8-12,16.5-23.8,23.9-36.2c10.1-17.2,19.5-34.8,29-52.4c3.2-5.8,4.5-12.1,4.4-18.9c0-5.1-1.5-10.1-1.2-15.2
			c0.1-0.1,0.2-0.3,0.4-0.3c0.1,0,0.4,0,0.4,0.1c0.6,0.9-0.4,2.4,1.1,2.7c1.7,0.6,0.4-1.9,1.9-1.6c0.6,1.5-0.5,3.4,1,4.7
			c6.6,0,13.2,0,19.9,0c0.4-2.6,0.4-4.8-0.3-7.1c-2.2-7.1-6.2-13.5-6.9-21.3c-0.8-10.3-0.6-20.5-0.1-30.8c0.4-7.6,2.1-15,2.9-22.5
			c0.7-7.3,1.2-14.7,3.8-21.8c0.8-2.2,2.9-3.7,3-6.2c4.5-6,9-12.1,13.6-18.1c2.9-3.8,6.2-7.6,7-12.4c0.8-4.4,1.3-8.8,2-13.2
			c0.9-5.5-3-10.6-8.7-11.2c-3.1-0.3-6.4-0.4-9.4,0.3c-6.8,1.6-13.8,2.2-20.6,2.3c-21.3,0.1-42.5,0.8-63.8-0.5
			c-13.7-0.8-27.5-1.3-41.2-2.2c-3.6-1.7-7.2-3.5-10.9-5.2c-0.7-3.3,2.5-4.9,3.2-7.7c1.3-0.1,2.1-0.8,2.6-2
			c2.2-4.8,4.5-9.6,6.8-14.3c4.2-8.6,6.8-17.7,9.5-26.9c2.9-9.8,4.9-19.8,6.2-30c1.1-8,1.9-16.1,2.4-24.1c0.6-8.6,0.5-17.2,2-25.7
			c0.5-3,2-6.1,0.8-9.7c-0.8-1.2-1.9-2.6-3-4.2c-13.3,0-26.6,0-40.5,0c0.7,3-2.5,3.9-3.2,6.4c-2.8,10-6.2,19.9-8.8,29.9
			c-2.6,9.9-4.4,20-6.9,29.9c-2.5,10.3-4.6,20.8-5,31.2c-0.5,12.4-1.6,24.9-1.4,37.3c0,0.4,0,0.7,0,1.1l0,0
			c-0.1,0.1-0.4,0.2-0.4,0.3c-3,12.5-4.5,25.3-7.5,37.8c-2.4,9.7-4.3,19.4-9.7,28c-5,8-8.4,16.5-10.2,25.7
			c-1.7,9.3,4.4,18.9,13,20.4c5.8,1.1,15.4-4.7,17.5-11.2c1.6-5.2,3.4-10.3,4.3-15.7c1-5.8,1.2-11.7,3.8-17.2
			c-0.1,5.1-1.2,10.1-0.9,15.2c0.2,4-0.9,7.8-1.6,11.7c-2,11.7-6.4,22.7-10,33.9c-3.6,11.1-7.8,21.9-10.4,33.3
			c-3.5,15.7-5.2,31.8-8,47.6c-1.7,9.4-3.6,18.7-9.4,26.6c-2.3,3.1-5.4,5.3-8,8.7c2.3,4.2,3.9,8.8,6.8,13c3-1,5.7-1.9,8.6-1.2
			c0,14.6,0,29.2,0,44c5.2-0.1,9.4-2.6,14-3c0.1,2,0.2,4,0.3,6c-0.4,0.8-0.4,1.6,0.3,2.3c1.2,17.1,2.3,34.2,3.5,51.7
			c9.1-2.1,17.7-4,26.9-6.1c0.1,37,1.5,73.5,1,110c-1.2,0.1-2.3,0.2-3.5,0.2c-61.7,0-123.4,0-185.2,0c-1.2,0-2.3-0.1-3.5-0.1
			c0.4-20.4-1.1-40.9,1.2-61c0.4-1,1.6-1.3,1.8-1.9c1.4-4.2,5.1-4.8,8.6-5.5c6.8-1.4,13.3-3.6,20.2-4.9c9.9-1.8,19.6-4.4,29.4-6.6
			c5.6-1.3,11.3-2.1,16.5-5c0.2-1.9,0.3-3.7-0.1-5.5c-2.9-14.2-5.8-28.4-8.5-42.6c-0.5-2.7-0.8-5.7,1.3-8.1
			c5.2-2.3,11.5-1.9,16.6-6.1c-0.2-7.8-3.4-15.1-5.7-22.6c-2.3-7.5-3.7-15.4-7.3-22.5c0-1.3,1.7-1.3,1.7-2.5c-0.3-0.5-0.7-1-1.2-1.9
			c4.1,0.9,4.5-2.9,6.6-4.5c8-6,14.4-13.8,21.6-20.7c0.9-0.8,2.3-1.5,1.9-3.4c-2.1-1.1-4.2-2.2-6.8-2.6c-2.4-0.3-4.9-0.8-6.7-2.8
			c4.3-3.2,4.8-7.8,3.8-12.3c-2.3-11,0.3-20.6,7.1-29.2c1.8-2.3,3.3-4.7,5.3-6.8c4.6-4.7,5.3-11.1,7.9-16.7c1.8-0.2,3.6,0.4,5.3-0.4
			c4.7-7.1,6.7-15.1,8.4-23.1c0.9-4,0.2-8.2-2.9-11.5l0,0c0.1-0.8,0-1.6-0.9-2c0.4-12-0.9-23.9-1.3-35.9c-0.4-11,2.7-20.8,9.1-29.1
			c6-7.7,7.2-16.4,8.1-25.4c0.9-8.2,2.3-16.4,2.7-24.6c0.3-7.4,2-14.8,1.2-22.6c-4.2-0.9-8.5-0.9-12.7-1.1
			c-7.6-0.3-15.2-1.4-22.9-1.3c-19.6,0.1-36.8-6.2-51.7-18.9c-1.6-1.4-3.7-2.3-4.9-4.1c-8-0.1-15.7,1.2-23.4,1.8
			c-8.3,0.6-16.5,1.4-24.7,2.3c-12.6,1.4-25.2,2.9-37.6,5.9c-4.8,1.2-7.3,3.9-7.9,8.6c-0.7,5.4-1.6,10.8-2,16.2
			c-1.1,15.9-2.3,31.8-2.1,47.8c0.1,9.3,2.6,18.2,4.4,27.2c2,10.2,3.9,20.5,1.3,31c-0.8,3.2,2.1,10.3,5,11c5.3,1.3,7.9,5.3,10.5,9.2
			c4.6,6.8,8.2,14.1,10.2,22.2c1.8,7.2,0.5,13.7-3.7,19.1c-6.7,8.4-14.6,15.8-24.8,20.1c-3.6,1.6-7.4,2.6-11.4,2.6
			c-3.8,0-6.3-1.6-7.8-4.9c-2.4-5.4-4.2-11-5.4-16.8c-0.3-1.5-1-2.8-1.2-4.2c1.7-2.1,2.8-4.6,4.9-6.6c8-7.6,15.6-15.4,23.4-23.2
			c1-1,2.4-2,1.1-4c-4.7-0.6-9.4-0.7-13.5,2.6c-5,4-10.7,6.4-16.3,9.4c-1.4,0.8-2.9,0.8-4.3,0.8c-0.4-7.8-0.4-15.6,0.8-23.3
			c0.6-4-0.9-7.5-2.6-10.8c-3.1-5.9-6.7-11.6-10.1-17.4c-1.5-2.6-2.4-5.3-2.6-8.3c-0.8-10.6,1.2-20.9,3.8-31.1
			c0.7-2.7,0.2-5.6,1.5-8.1c3.7-2,7.9-0.2,11.8-1.6c0.5-7.8,0.3-15.4,0.9-23c0.5-5.6,1.8-10.9,3.1-16.3c2.3-9.3,5.4-18.3,9.2-27.1
			c0.9-1.2,1.7-2.5,2.7-3.6c5.2-5.7,6.7-12.9,7.1-20.1c0.2-3.8,0-8.1-2.6-11.4c-2-2.5-2.9-5.4-4-8.1c1.3-3.3,3.1-5.7,5.7-7.8
			c4.3-3.4,9.1-6,13.7-8.7c10-5.9,17.2-13.4,17.6-25.8c1.4-1.1,0.3-2.9,1.2-4.1c1.7-0.4,2.5-2.5,4.5-2.4c2.6,0.3,3.8,2.3,5.2,4.2
			c5.4,7.4,10.8,14.9,17.2,22.1c15.9-11.2,28.5-25.6,43-38.4c-1.4-5-4-9.4-6.8-13.6c-5.8-9-7.5-18-1.7-27.9
			c2.2-3.8,4.6-7.6,6.3-11.8c2.6-6.3,3.7-13,5.5-19.4c1.3-5,1.4-10.7-0.4-16c-0.3-3.5-0.7-6.8-2.5-10c-5.5-9.4-13.4-16.1-22.9-20.9
			c-7.8-4-12.4-9.5-12.8-18.3c0-0.7-0.2-1.3-0.3-2c-0.2-6,0.6-11.8,1.2-17.7c0.6-6.9,1.4-13.7,1.9-20.6c0.3-4.7,0.4-10-4-13.4
			c-5.1-0.4-5.1-0.4-13,4c-1.9-5-2.5-10-1.9-15.5c0.6-5.7,0-11.5-0.5-17.3c-0.8-8.7-0.4-17.6,0.2-26.4c0.9-13.8,2.8-27.5,2.6-41.3
			c-0.1-4-0.6-7.8-4-11.4c-2.1,3.6-2.9,7.3-4.9,10.3c-1,1.6,0.2,3.8,1.4,5.5c2.2,3.2,4.1,6.7,5.3,10.4c-1.2,3.2-3.7,5.2-5.7,7.9
			c-0.6,3.4,0.7,6.8,1.3,10.1c1,5.4,1,10.5-1.4,15.5c-2,4.2-3.7,8.5-6,12.4c-5.5,9.4-16.6,10.9-24.6,3.6c-0.4-0.3-0.7-0.6-1.1-0.9
			c-4.1-0.6-8,0.5-11.8,1.5c-2,0.5-3.9,0.7-5.9,0.7c-4.2,0.1-6-1.4-6.5-5.8c-0.9-7.7-5.5-12.4-11.9-16c-2.6-1.4-5.8-2.7-6.1-6.5
			c0.1-0.8,0-1.5-0.8-2c-0.2-0.6-0.3-1.2-0.5-1.8c4.3-2.1,7.2-5.6,10.3-9.1c4.7-5.3,8.9-11.1,14.4-14.8c5.6-1.1,11-0.5,15.1-4.3
			c3.6-3.5,9.5-4.3,11.7-9.7c-2.3-3.9-5.9-5.9-10.1-6.2c-8.2-0.6-16.3-0.7-23.3,4.9c-0.7,0.6-1.8,0.7-2.8,1
			c-1.3-2.1-1.2-4.4-0.6-6.7c0.9-3.7,1.7-7.4,2.7-11c0.7-2.4,1.3-4.8,0.3-7.2c-6.5-4-11.9-3.2-17.5,2.7c0.3-2.9-1.3-5.7-0.8-8.6
			c4.9-1.3,9.4-4,14.7-3.4c8.5,0.1,17,0.6,25.7,2.2c1.5-4,4.7-6.9,5.6-11c-2.7-3.2-6.2-3.9-9.8-4.3c-5.3-0.6-10.6-2.9-16-0.9
			c-1.7-0.5-3.4-0.7-5.3-0.3c-5.7,0.9-11.2,2.3-16.8,3.8c-1.1-11-2.4-21.9-3.9-32.9c-0.5-3.4-1.1-6.8-1.5-10.2
			c-0.7-5.8-2.9-11-6.3-15.9c-2.3-3.3-3.7-7.3-5.3-11.1c-2.4-5.9-2.7-11.8-0.1-17.8c1.6-3.8,2.9-7.7,4.3-11.5
			c0.9,0.4,1.7,0.9,2.6,1.3c6.1,7.6,7.2,16.6,7.1,25.9c-0.3,12.4,1.4,24.8,1.4,37.3c0,1.1,0.3,2.7,2.2,3.9
			c6.7-5.2,16.2-6.1,22.3-12.6c0.4-5-0.4-9.5-1.6-13.7c-2.4-8.6-3.1-17.2-1.2-25.9c2.3-3.8,4-8.1,7.6-10.9c13-9.9,27.1-17.1,44-17.2
			c5.5,0,8-2.7,7.3-8.2c-0.9-6.7-2.9-13.1-7-18.7c-2.9-6.1-7.5-10.8-12.8-14.9c-2.8-2.2-6.3-3.5-9.3-5.3c-3.2-1.9-6.4-4.1-9.9-5.5
			c-3.5-1.5-7-3.6-11.2-3.2c-0.5,8.7-2.1,16.9-4.7,24.9c-3,9.4-8.6,17.2-15.9,23.6c-5.2,4.6-11,8.4-18.2,9.4
			c-0.3-9.5,0.3-18.9,1.1-28.3c0.5-6.1-0.9-11.4-4.2-16.4c-0.1-1.4,0.6-2.6,1.3-3.6c4-5.7,1.7-17.4-3.8-21.7
			c-1.2-3.9-4.7-6.3-6.4-9.9c-1.4-5.5-1.1-11.3-0.4-16.8c0.4-3-0.8-6.6,1.8-9.3c1.1,4.2,0.3,8.6,1.5,12.8c0.9,3.2,1.8,6.2,4,8.9
			c6.3,7.7,12.4,15.5,18.5,23.2c6.1,0.3,11.8-0.4,17.4-1.8c7.2-1.8,10.6-8.1,8.1-14.9c0.8-3.1,4-1.6,5.6-2.7
			c1.6-5.7-0.6-10.6-1.8-15.7c0.1-3.2,0.1-6.5,0.2-9.7c-0.1-0.5-0.1-0.9-0.2-1.4c0.1-1.3,0-2.7,1.9-3.1c2,0.6,3,3.1,5.4,3.3
			c0.7,2.2,1.9,4,4,5.1c0.1,0.5,0.5,0.9,1,1c0.3,0.3,0.7,0.7,1,1c0.2,2.9,3.1,3.8,4.2,5.9c1.6,2.9,3.8,3.2,6.6,2.1
			c1.1,2.2,2.3,4.5,3.6,7.1c2.8,0,5.9,0,9,0c1.3,3.3,4.1,5.5,5.8,8.5c4.9,8.5,10.1,17,16.2,24.8c4.2,5.4,8,11.5,14.5,14.6
			c0.4,1,1.1,1,2,0.8c0.6,0.1,1.3,0.3,1.9,0.4c2.5,2.3,6,2.8,8.9,4.3c8.5,4.2,16.8,8.7,24.6,14c9.2,6.3,19.2,12,24.5,22.7
			c-0.3,1.5,0.8,2.8,0.8,4.2c-0.7,1.8-1.5,3.4-3.6,4.5c-0.5,0-1.3,0.1-2.1,0.1c-1,0.1-2-0.2-2.8,0.7c-0.6,1.3,0.1,2.3,0.7,3.3
			c5.9,10.7,13.7,19.6,25,25c2.3,1.1,5.1,1.8,5,5.3c-1.5,2.3-4.6,2.7-6,5.2c1.4,3.6,5.1,4.4,7.6,6.7c2.3-1.5,4.3-2.8,6.5-4.1
			c1.5-0.1,3-0.1,4.4-0.2c11.2,4.6,18.9,12.7,24.2,23.3c0.2,0.5,0.3,0.9-0.1,1.6c-3.1-0.8-6.3-2.2-9.8-1.9c-1.5,0.1-3,0.1-4.5,1
			c6.5,6.6,13,13.1,10.6,23.6c6.5,4.1,12.5,8.4,15.8,15.6c1.7,3.7,1.5,7.4,1.5,11.4c-3.7,2.5-7.8-0.7-11.7,0.9c-1,1.5-0.7,3,0.6,4.3
			c0.7,0.7,1.4,1.5,2.3,1.8c6.5,2.6,11.9,6.9,17.8,11.7c4.3-17,7.5-33.7,12-50.1c1.2,0,2,0.3,3.1,1c3.9,2.5,7.9,5,13,4.2
			c3.1,3.1,7.2,4,11.1,5.9c0.4-0.8,0.6-1.2,0.7-1.7c2.2-9.8,3.3-19.9,7.1-29.3c0.1-0.3,0.1-0.7,0.1-1l0.1-0.1c0.8-0.4,0.9-1.2,0.9-2
			c2.7-4.5,5.1-9.1,7-13.9l0-0.1c0.9-0.4,1-1.1,1.1-2c0.7-0.9,1.5-1.8,2.1-2.7c4.6-7.3,8.1-15.1,11.6-23c1.7-3.9,5-7.1,5.2-11.6
			c0.3-0.4,0.6-0.8,1-1.1c4.6-4.2,4.6-6.2-0.1-10.3c-0.5-0.4-1-0.8-1.5-1.2c-3.7-0.9-6.4,1.1-9.1,2.9c-4.3,2.9-8.4,6.2-13.3,8.3
			c-1,0.4-1.8,0.6-2.8,0.6c2.7-6.2,6.1-11.9,11.6-16.1c2-0.6,3.4-1.8,4.8-3.3c3.6-3.7,7.5-7.2,10.1-11.7c4.5-4.1,9.9-7.3,13.3-12.4
			c-4.2-4.4-7.3-9.2-13.4-10.5c-2.5,3.8-5.2,7.3-8.6,10.3c-0.8,0.7-1.4,1.4-1.4,2.5c-5.9,2.4-11.7,4.7-17.2,6.9
			c-0.8,2.1-1.3,3.7-1.9,5.2c-0.3,0-0.6,0.1-0.8,0.2c-4.6-2.8-6.3-7.1-5.9-12.3c1-3.3,3.9-4.6,6.7-6c1.9,0,3.9,0.7,5.8-0.5
			c0.4-1.4,0.6-2.7,0-3.7c-1.8-1.7-3.7-1.9-5.8-1.5C485.2,394.3,483.4,396.7,480.8,396.1z M564.2,374.2c0,1,0,1.9,0.1,2.9
			c-1,4.6-2.9,8.8-6.3,11.9c0.5,1.2,1,1.8,2.5,1.8c3.2-3.8,6.4-7.9,6-13.6c0-1.7,0.3-3.3,0.1-5c-0.7-4.4-3.3-6.9-7-7.1
			c-3.8-0.2-7.5,2.2-9.3,6.2c3.2-1.2,6-3.3,8.6-3.7c3.5,0.3,4,2.7,5.1,4.5C564,372.8,564.1,373.5,564.2,374.2z M499.9,380.1
			c-2.2,0.3-4.6-0.3-7.3,0.8c0.9,5.5,1.6,10.9,3.7,15.8c4.3,1.7,7.9,0.7,11.3-1.6c6.6-1.8,9.7-6.8,12.1-12.3
			c-1-4.1-3.2-7.1-5.1-10.2c-2.4-0.9-4.1,0.1-5.8,1.2C505.8,375.8,502.9,378,499.9,380.1z M679.9,739c-8.7-6.1-17.3-12.2-26-18.3
			c-2.2-1.5-4.2-3.4-6.9-4.2c-0.4,1.7,0.3,2.4,1,3.2c5.5,6.6,11.2,13.1,18.3,18c3.5,2.4,6.3,5.9,10.4,7.5c2.8,4.8,8.1,6.7,12,10.2
			c5.1,4.4,10.7,8.2,16.4,11.8c3.4,2.1,4.6,1.3,6.6-3.2c-3.5-1.9-4.9-6-8.1-8.4c-6-4.5-12.1-9.1-18.2-13.6
			C683.8,740.7,682.2,739.3,679.9,739z M293,412.1c0,0.6,0.3,0.9,0.9,0.9c2.4,1.8,3.6,4.7,5.9,6.6c-0.1,0.8,0.2,1.3,0.9,1.6l0,0
			c1.2,2,2.3,4,3.7,5.8c5.9,7.4,10.8,15.4,14.9,24c3,6.2,4.7,12.6,4.6,19.6c-0.1,12.8,0,25.5,0.1,38.3c-0.4,5.3,0,10.5,0.6,15.8
			c1.2,10.9,3,21.5,7.6,31.5c1.6,3.5,3.6,6.9,6.3,9.4c5.9,5.5,12.6,10.2,18.5,15.6c3.8,3.5,8.7,5.5,12.1,10.1
			c8.4-2.2,16.2-5.8,24.1-9.2c0.6-1.5,0.7-2.7,0-4c-4-6.4-7.2-13.3-10.5-20.1c-3.9-8.1-8.5-16.1-11.7-24.5
			c-3.1-8-7.4-15.4-10.3-23.4c-1.5-4.1-2.9-8.5-5.6-12.1c-3.6-9-7.2-18.1-10.9-27c-3.7-9-7.2-18.2-11.5-26.9
			c-3.6-7.2-7.9-14.2-12.6-20.8c-2.7-3.7-5.5-7.8-9.7-10.3c-3.4-4.9-8-8.7-12.2-12.8c-5.5-5.3-11.9-9.5-18.4-13.3
			c-5-2.9-9.9-6.3-16-7.1C273.8,390.3,283.8,400.8,293,412.1z M474.9,597.2c0,1-0.1,1.9-0.1,2.9c-1.4,9.7-2.4,19.3,1.9,29.3
			c13.9-1.7,27.5-5,41.2-8.8c-0.6-1.3-0.7-2-1.1-2.5c-4.9-6.8-10-13.6-12-22c-0.3-1.2-1.4-1.2-2.4-1.1c0.2-1,0.4-1.9,0.7-2.9
			c0.7-0.5,0.6-0.9-0.3-1c-1.5-6-3-11.9-4.5-17.8c-1.7-0.4-3.1-0.9-4.5-1c-6.9-0.4-12.1,1.6-14.2,7.5c-1.9,5.2-4.1,10.4-3.8,16.2
			C475.2,596.3,474.9,596.6,474.9,597.2z M609,736c6,8.8,10.8,18.3,14.7,28.2c2.2,9.6,4.5,19.2,6.8,28.9c0.3,0.2,0.6,0.6,1.1,0.8
			c13.3,4.4,26.4,9.5,39.5,14.8c1.2,0.5,2.5,1,3.6-0.6c-4.8-10.9-10.3-21.4-16.7-31.4c-0.7-1-1-2.6-2.7-2.6c-0.3-1-0.8-1.8-1.4-2.6
			c-3.6-4.3-7.2-8.6-10.8-13c-6.6-7.9-14.3-14.8-21.5-22c-0.7-0.7-1.7-0.9-2.6-1.3c-8-6.3-14.3-14.8-24.1-18.8
			c-1.4,1.8-0.5,2.6,0.3,3.5C599.7,725.2,604.3,730.6,609,736z M315.7,481c0-9.1-3.7-17-7.5-24.9c-7.4-17.1-16.2-33.4-26.4-49.3
			c-3.5,1.9-4.2,5.1-4.9,8c-1.2,5.5-2.1,11-2.8,16.5c-1,7.8-2,15.7-1.8,23.6c-1.6,4.4-1.4,8.9-1.6,13.5c-0.2,4,1.3,7.7,1.1,11.7
			c-0.1,5.6,1.5,11,1.1,16.7c13.3,0.6,26,1.2,38.8,1.8c1.7-1,2.4-2.9,3.1-4.8C316.5,489.6,315.8,485.3,315.7,481z M569.9,486
			c-0.4-1.9-0.4-4-1.3-5.7c-3-5.7-2-11.3-0.6-17.1c1.3-0.1,2-1,2.7-1.9c1.9-2.5,3.6-5.2,5.9-7.3c4.6-4.2,7.9-9.3,10.9-14.6
			c1.3-2.4,2.1-4.8,1.2-7.3c-1.4-1.9-3.2-2.6-5.1-3.2c-4.6-1.4-9.2-0.7-13.8-0.9c-12.2-0.5-21.7,5.7-30.9,12.5
			c-3.7,2.7-7.3,5.7-10.1,9.5c-7.2,6.6-12.7,14.4-16.9,23.2c-6.6,8.9-9.7,17.9-8,23.2c19.5,6.6,39.2,12.2,58.3,17.9
			c2.1-0.7,3-1.6,3.6-2.9c2.2-5.1,4.8-10.1,5.9-15.6c0.5-2.3,0.6-4.6-0.7-6.7c0-0.6,0-1.2-0.1-1.9
			C570.7,486.6,570.4,486.3,569.9,486z M405.9,704.3c10.3-6.5,19.3-14.6,28.1-23c4.8-3.3,9.4-7.1,13-11.4c4-4.7,8.7-8.5,13-12.9
			c7.7-8,13.4-16.2,12.2-28c-0.8-7.9-3.9-12.4-11.4-14.6c-5.9,1-9.9,4.9-13.7,8.7c-11.8,11.7-22.5,24.3-33.2,36.9
			c-7.4,6.5-15.4,12.2-24,17c-0.8,0.2-1.6,0.3-2.3,0.7c-10.1,5.3-20.3,10.1-31.1,13.9c-3.8,1.4-8.9,2.2-10.4,7.8
			c6.2,10.2,13.7,19.8,19.9,30.5c4-1.9,8.3-3.6,12.3-5.7c7.8-4.2,14.6-10,22.1-14.7C402.4,708,404.7,706.8,405.9,704.3z
			 M572.3,894.7c12.7-3.6,25.5-4.5,37.9-9.4c-6.9-7.9-14.5-14.3-20.1-22.4c-6.1,1.6-9.9,5.4-11.7,10.4c-1.9,5.1-4.8,9.4-7.3,14
			C569.1,890.8,569.2,891.7,572.3,894.7z M766.4,844.1c0.9-4.1-0.5-7.3-2.4-10.2c-2.5-3.7-4.9-7.4-6.6-11.6c-1-2.4-2.3-4.7-4.6-6.4
			c-5.2,1.7-10.5,3.5-15.8,3.9c-6.6,0.6-13.1,1.8-19.6,2.3c-1.2,0.1-2.2,0.7-2.1,2.6C731.7,831.7,749,837,766.4,844.1z M233.2,447.2
			c6.2-1.3,11.5-1.2,16.9-3.2C246.1,440.2,239.6,441.3,233.2,447.2z M556.3,373.6c0.7,2.7,0.6,5.3,0.3,8c-1.5,1.9-3,3.9-4.7,6.2
			c4.6,1,5.8-2.4,7.9-4.5C559.2,379.8,561.6,375.5,556.3,373.6z"/>
		<path fill-rule="evenodd" clip-rule="evenodd" fill="#D24B29" d="M464,1460.8c0.5-36.5-0.9-73-1-110c-9.2,2.1-17.9,4.1-26.9,6.1
			c-1.2-17.5-2.4-34.6-3.5-51.7c0.3-0.8,0.4-1.6-0.3-2.3c-0.1-2-0.2-4-0.3-6c1.7,0,3.3,0.1,4.8,0.9c2.3,1.2,4.8,2,7.1,3
			c4.7,1.9,9.7,3.1,14.4,4.9c6.1,2.4,12.1,5.1,18.4,7.2c4.3,1.4,8.2,3.8,11.4,5.3c-2.7,11.7-6.5,22.3-9.5,32.1
			c-1.4,2.2-3.6,0.8-4.4,3.4c51.8,17.9,103.6,35.8,155.8,53.8c0,18,0,35.6,0,53.2c-1.2,0.1-2.3,0.2-3.5,0.2c-53.1,0-106.2,0-159.3,0
			C466,1461,465,1460.9,464,1460.8z"/>
		<path fill-rule="evenodd" clip-rule="evenodd" fill="#923836" d="M629.8,1460.8c0-17.6,0-35.2,0-53.2
			c-52.2-18-104-35.9-155.8-53.8c0.7-2.7,3-1.2,4.4-3.4c3.1-9.8,6.8-20.4,9.5-32.1c-3.2-1.5-7.1-4-11.4-5.3
			c-6.3-2-12.2-4.8-18.4-7.2c-4.7-1.8-9.7-3.1-14.4-4.9c-2.4-1-4.8-1.8-7.1-3c-1.6-0.8-3.2-0.9-4.8-0.9c-4.6,0.3-8.8,2.9-14,3
			c0-14.8,0-29.4,0-44c0.7,0.1,1.4,0.1,2,0.3c14.5,5.5,29,11,43.5,16.4c13.7,5.2,27.5,10.3,41.2,15.4c6.3,2.3,12.4,5.4,19.1,6.6
			c3.2,3,7.7,2.4,11.4,4.1c9.8,4.4,20.1,7.4,29.9,12c-0.5,1.3-2.1,0.8-2.7,1.8c-0.2,0.7,0.3,1,0.6,1.3c0.4,0.3,0.8,0.7,0.7,1.2
			c-5.6,6.8-6.1,9.3-8.2,17.7c-0.6,2.4,1.2,5.2-2.6,7.9c4.1-0.5,5.9,1.4,8.1,2.4c10.4,4.4,20.9,8.7,31.8,12.1
			c8.9,2.7,17.2,7.1,26.2,9.8c7.7,2.3,15.1,5.4,22.6,8.4c2.4,0.9,5.1,1.6,6.3,4.9c-2.3,0.7-4.1,1.9-4.7,4.4
			c-2.2,8.3-4.2,16.6-7.1,24.7c-0.2,0.5,0.1,1.3,0.2,1.8c9.4,4.2,19.1,7.2,28.6,10.3c14.8,4.7,29.2,10.4,43.9,15.3
			c4.1,1.4,8.1,3.1,12.2,4.1c7.6,1.7,14.6,5,22,7.5c7.5,2.5,14.7,5.9,22.4,7.9c6,1.5,12,3.5,17.5,6.6c-1.2,0.1-2.3,0.2-3.5,0.2
			c-48.8,0-97.6,0-146.4,0C631.8,1461,630.8,1460.9,629.8,1460.8z"/>
		<path fill-rule="evenodd" clip-rule="evenodd" fill="#1D174D" d="M857.7,979c3.2,10.4,5.4,21.1,8.8,31.5
			c7.4,22.6,15.3,45.1,22.5,67.8c4.3,13.7,9.3,27.3,11.4,41.4c3.9,25.6,10.9,50.3,19.2,74.7c4.1,12.2,11,23,17.6,33.9
			c6.7,10.9,13.9,21.4,21.3,31.8c3.6,5,5.6,10.6,4.4,16.9c-0.9,4.7-3.6,7.7-8.3,8.9c-8.3,2.1-16.5,1.2-24.7-0.5
			c-12.5-2.6-23.6-8.5-34.1-15.7c-8.7-6-16.3-13-24.1-19.9c-0.4-0.6-0.8-1.2-1.2-1.9c0-0.7,0-1.4,0-2.2c0.1-1,0.1-1.9,0.2-2.9
			c0.3-6.2-1.2-12.1-1.8-18.2c-1.2-12.5-4.4-24.6-7.7-36.7c-2.9-10.7-8.1-20.6-12.2-30.8c-0.7-1.6-1.5-3.3-1.2-5.3
			c0.4-3.5-0.7-6.9-1.3-10.3c-1.3-7.5-2.8-14.9-2.8-22.6c0-5.3-0.2-10.6-0.3-16c0.9-6.9,0.7-13.9,1-20.8c0.3-7.9,1.9-15.3,4-22.6
			c5.6-19.1,7.7-38.5,7.3-58.3c0-1.8,0-3.7,0-5.5c-0.1-4.7,1.7-9.4,0.1-14.2C855.4,980.5,855.9,979.1,857.7,979z"/>
		<path fill-rule="evenodd" clip-rule="evenodd" fill="#562541" d="M362.9,1230.1c1.8,2,4.4,2.5,6.7,2.8c2.6,0.3,4.7,1.5,6.8,2.6
			c0.4,1.8-1,2.5-1.9,3.4c-7.2,6.8-13.6,14.7-21.6,20.7c-2.1,1.6-2.5,5.4-6.6,4.5c0.6,0.9,0.9,1.4,1.2,1.9c0.1,1.2-1.7,1.2-1.7,2.5
			c3.6,7.1,5,14.9,7.3,22.5c2.3,7.5,5.5,14.8,5.7,22.6c-5.1,4.2-11.4,3.7-16.6,6.1c-2.1,2.4-1.8,5.4-1.3,8.1
			c2.7,14.2,5.6,28.4,8.5,42.6c0.4,1.9,0.3,3.6,0.1,5.5c-5.2,2.9-10.9,3.8-16.5,5c-9.8,2.2-19.5,4.9-29.4,6.6
			c-6.9,1.2-13.4,3.5-20.2,4.9c-3.5,0.7-7.2,1.3-8.6,5.5c-0.2,0.6-1.4,0.9-1.8,1.9c-2.3,20.2-0.9,40.6-1.2,61
			c-8.8,0.1-17.6,0.2-26.4,0.2c-23.9,0-47.8-0.1-71.6-0.2c0-6.5-0.2-12.9,0-19.4c0.3-8.1-1.5-16.5,2-24.3c8.8-1.5,17.2-4.2,25.9-6.1
			c13.5-3.1,27-6,40.4-9.4c3-0.7,6.2,0.4,8.8-1c3.9-2.1,8.2-2.4,12.2-3.7c3.8-1.2,7.5-2.5,11.7-3.9c-2.4-1.9-5.1-0.1-6.6-2.3
			c-1.8-16.3-5.7-32.2-9.2-47.7c2.7-3.1,6.1-3.3,9.1-4.5c9.1-3.6,19.1-4,28.6-8.8c0.4-0.5,1-1.6,0.3-3.4c-2.2-5.5-3.1-11.4-5.2-16.9
			c-3.4-9.3-5.4-19-8.2-28.5c4.4-1.7,9-2,13.6-2.7c9.4-1.3,18.7-3.7,28.1-5.1c4.6-0.7,9.5-0.8,13.5-3.9c1.4-1.1,3.2,0.4,4.7-0.9
			c-1.2-2.1-2.9-1.2-5-0.6c1.7-7.9,6-14.4,9.1-21.3C351,1239.3,356.7,1234.6,362.9,1230.1z"/>
		<path fill-rule="evenodd" clip-rule="evenodd" fill="#562541" d="M782.7,1460.8c-5.5-3.1-11.5-5.1-17.5-6.6
			c-7.7-2-14.9-5.3-22.4-7.9c-7.3-2.5-14.4-5.7-22-7.5c-4.2-0.9-8.1-2.7-12.2-4.1c-14.7-4.9-29.1-10.6-43.9-15.3
			c-9.5-3.1-19.2-6.1-28.6-10.3c-0.1-0.5-0.4-1.2-0.2-1.8c2.9-8.1,4.9-16.4,7.1-24.7c0.6-2.4,2.5-3.7,4.7-4.4
			c-1.1-3.3-3.9-4-6.3-4.9c-7.5-3-14.9-6.1-22.6-8.4c-9-2.7-17.3-7.1-26.2-9.8c-10.9-3.3-21.3-7.6-31.8-12.1c-2.2-0.9-4-2.9-8.1-2.4
			c3.8-2.7,2-5.5,2.6-7.9c2.1-8.4,2.6-10.9,8.2-17.7c0.1-0.6-0.3-0.9-0.7-1.2c-0.4-0.3-0.8-0.6-0.6-1.3c0.6-1,2.3-0.5,2.7-1.8
			c0.8,0,1.5,0.1,1.9,1c0.9,3.2,3,2.9,5.3,2c2.7,0.3,4.8,2.1,7.3,3c7.4,2.8,14.8,5.7,22.2,8.5c7.4,2.8,14.8,5.8,22.3,8.3
			c7.4,2.4,14.2,6.2,21.8,8.4c12.3,3.6,23.8,9.4,36,13.5c6,2,11.8,4.4,17.7,6.6c11.1,4.3,22.2,8.6,33.3,12.9c-0.7,3,2.2,3.7,3.5,5.1
			c0.5,2.3-2.1,1.4-2.5,3.5c0.9,5.8-3.2,11-4.4,16.9c-0.5,1.7-3,0.8-3.5,3c3-0.3,5.1,0.7,7.2,2.9c1.9,2,5.2,2,7.8,3.1
			c11.8,5.1,24.1,9,36.1,13.6c8.1,3.1,16.3,6.1,24.5,9.3c2.3,0.9,4.3,2.4,6.1,4.1c-5.5,7.3-7,15.7-7.8,24.3
			C794.1,1461.2,788.4,1461.1,782.7,1460.8z"/>
		<path fill-rule="evenodd" clip-rule="evenodd" fill="#562541" d="M857.7,979c-1.9,0-2.3,1.5-1.9,2.8c1.6,4.8-0.2,9.5-0.1,14.2
			c0,1.8,0,3.7,0,5.5c0.4,19.8-1.7,39.2-7.3,58.3c-2.1,7.3-3.7,14.8-4,22.6c-0.3,6.9-0.1,13.9-1,20.8c-0.3,0-0.7-0.2-1-0.1
			c-7.3,3.4-14.8,5.4-22.9,4.9c-2.6-3.2-2.6-7.4-3.9-11.1c-3.4-10-7.6-19.4-15.4-26.8c-2.1-2.1-4.6-3.6-6.7-5.9
			c-5.8-6.3-7.5-13.9-7.8-21.9c-0.5-13.5,2.4-26.6,6.4-39.4c3.8-12.2,7.1-24.6,12.1-36.4c2.3-5.5,4.2-11.2,3.3-17.5
			c11.8-4.7,24.7-3.8,35.7-9.5c1.3-1.3,3,1.8,4.4-0.5c2.7,8.9,5.4,17.8,6.8,27.1c0.5,3.2,1.6,6.8,2.9,10.1
			C857.8,977,857.7,978.1,857.7,979z"/>
		<path fill-rule="evenodd" clip-rule="evenodd" fill="#923836" d="M283.8,1281c2.7,9.5,4.7,19.2,8.2,28.5c2,5.5,2.9,11.5,5.2,16.9
			c0.7,1.7,0.1,2.8-0.3,3.4c-9.5,4.8-19.5,5.2-28.6,8.8c-3,1.2-6.5,1.3-9.1,4.5c3.5,15.5,7.4,31.4,9.2,47.7c1.6,2.2,4.2,0.4,6.6,2.3
			c-4.2,1.4-7.9,2.7-11.7,3.9c-4.1,1.3-8.3,1.6-12.2,3.7c-2.6,1.4-5.8,0.3-8.8,1c-13.4,3.3-27,6.3-40.4,9.4c0.3-0.8,0.6-1.5,1.1-2.7
			c-3.3-1.6-3.5-5-3.9-8c-2-13.5-4.5-26.8-8.4-39.9c4.4-1.2,8.8-2.3,13.2-3.5c1.5-0.4,3.3-0.6,3.3-2.9c6.2-1.4,12.3-3.2,18-6.4
			c-2.6-8.7-4.9-17.1-7.5-25.3c-2.2-6.9-2.8-14.2-5.6-20.9c-1-2.4-2.5-4.7-2.1-7.5c10-2.5,20.2-3.7,30.3-5.6
			c13.1-2.5,26.2-4.6,39.3-6.9C280.8,1281.1,282.3,1280.7,283.8,1281z"/>
		<path fill-rule="evenodd" clip-rule="evenodd" fill="#923836" d="M290.5,732c0.1,0.7,0.3,1.3,0.3,2c0.4,8.8,4.9,14.4,12.8,18.3
			c9.4,4.8,17.4,11.5,22.9,20.9c1.8,3.2,2.2,6.5,2.5,10c-0.9,0-1.5,0.2-2.1,1c-2.9,4-6.8,7.3-10.4,10.5c-9.9,8.5-18.8,18-29.3,25.7
			c-1.1,0.8-1.8,1.9-2.5,3c-0.8,1.2-1.9,2.3-3,3.3c-6.6,5.7-13.4,11.3-19.9,17.2c-2.5,2.2-4.9,4.4-8.1,5.4
			c-2.9-6.8-4.8-13.7-4.9-21.2c-0.2-6.9-1.1-13.8-0.8-20.8c0.5-9.7,1.9-19.1,7.2-27.3c3.3-5.1,4.4-10.6,5-16.2
			c0.3-3.1,1.2-5.9,2.6-8.5c1.8,0.1,3.5-0.2,4.3-1.9c1.6-3.3,4.7-4.9,6.9-7.4c3.1-3.4,6.8-6.2,9.7-9.7
			C285.6,733.9,287.6,732.3,290.5,732z"/>
		<path fill-rule="evenodd" clip-rule="evenodd" fill="#562541" d="M253.6,849.2c3.3-1,5.6-3.2,8.1-5.4c6.5-5.9,13.3-11.4,19.9-17.2
			c1.1-1,2.2-2,3-3.3c0.7-1.2,1.5-2.3,2.5-3c10.5-7.7,19.4-17.3,29.3-25.7c3.6-3.1,7.5-6.5,10.4-10.5c0.6-0.8,1.3-1,2.1-1
			c1.8,5.3,1.7,11,0.4,16c-1.7,6.5-2.9,13.1-5.5,19.4c-1.7,4.2-4.1,8-6.3,11.8c-5.8,9.9-4,18.9,1.7,27.9c2.7,4.3,5.4,8.6,6.8,13.6
			c-14.5,12.8-27.1,27.2-43,38.4c-6.4-7.2-11.8-14.6-17.2-22.1c-1.4-1.9-2.6-3.9-5.2-4.2c1.8-1.5,2.6-2.6,1.5-5.4
			c-3-7.8-5-16.1-7.6-24.1C254,852.7,253.9,851,253.6,849.2z"/>
		<path fill-rule="evenodd" clip-rule="evenodd" fill="#D24B29" d="M190.6,1360.4c3.8,13.1,6.3,26.4,8.4,39.9c0.5,3,0.6,6.4,3.9,8
			c-0.5,1.2-0.8,1.9-1.1,2.7c-8.7,1.9-17.1,4.6-25.9,6.1c-11.4,2.6-22.7,5.2-34.1,7.8c-10.6,2.4-21.1,4.9-31.7,7.3
			c-0.7-0.8-0.6-1.9-0.6-2.9c0-15.2,0-30.3,0-45.5c0-0.7,0.1-1.3,0.3-2.4c7.1-1.9,14.3-3.7,21.5-5.6c18.3-4.8,36.6-9.6,54.9-14.4
			C187.7,1361,189.2,1360.7,190.6,1360.4z"/>
		<path fill-rule="evenodd" clip-rule="evenodd" fill="#D24B29" d="M575,623.4c-4.2-2.1-7.7-5.6-12.1-7.4c-5.4-2.7-10.9-5.5-17.1-6
			c-7-2.3-14.2-4.7-21.5-4.6c-6.3,0.1-10.3-2.3-12.9-7.4c-4.6-8.9-6.1-18.7-6.7-28.8c9.8-2.8,19.4-2.3,29-2.5
			c1.3,0.4,2.5,1.1,3.8,1.1c8.7,0.3,17,2.7,25.3,5.1c0.2,0.3,0.4,0.7,0.6,0.7c10.8,2,19.7,8,29.3,12.6c2.9,1.4,4.9,4.5,8.5,4.6
			c0.4,2.2,2.2,3.8,2.4,6.1c-1.8-0.2-3.4,0.4-4.6,1.5c-8.5,7-18.5,12.1-26,20.7C573.3,620.7,575.1,621.6,575,623.4z"/>
		<path fill-rule="evenodd" clip-rule="evenodd" fill="#923836" d="M110.2,1432.2c10.6-2.4,21.1-4.9,31.7-7.3
			c11.4-2.6,22.7-5.2,34.1-7.8c-3.6,7.9-1.7,16.2-2,24.3c-0.2,6.5,0,12.9,0,19.4c-9.8,0.1-19.6,0.2-29.3,0.2
			c-21.6,0-43.1-0.1-64.7-0.2c-0.1-6.2,0.4-12.5-1-18.6c9.1-2.3,18.2-4.7,27.4-7C108.1,1434.8,109.8,1434.5,110.2,1432.2z"/>
		<path fill-rule="evenodd" clip-rule="evenodd" fill="#D24B29" d="M870.6,1248.1c0.4,0.6,0.8,1.2,1.2,1.9c-2.8,5.5-5,11-5,17.3
			c0,8.5,0,17,0,25.5c0,10.9,0.5,21.9,1.3,32.8c0.8,11.1,3,22.2,7.7,32.9c4,9.1,6.7,19.1,5.9,29.4c-0.6,7.7-1.9,15.4-8.1,21
			c-1.6,1.5-0.4,3.6-1.8,4.9c-1.1-1.4-0.9-2.8,0.2-4.3c-3.8-1.3-7.4-1.7-10.6-3.4c-2.8-1.4-4.8-3.3-5.9-6.3
			c-6.3-16.7-5.2-33.2,0.8-49.6c1.8-4.9,2.8-9.9,3.2-15c1-11.5,0.7-23,0-34.4c-0.7-11.5-2-23.1-4.8-34.4c-1-4.2-2.1-8.3-5.4-11.6
			c-1.7-1.7-2.5-4.3-2.9-6.8c0.8,0.1,1.6-1.1,2.6,0.2c2,2.8,4.5,3.2,7.8,2c1.8-0.7,3.8-0.9,5.6-1.6c2.1-0.9,3.8-0.7,5.2,1.3
			C868.7,1249.2,869.3,1247.9,870.6,1248.1z"/>
		<path fill-rule="evenodd" clip-rule="evenodd" fill="#923836" d="M255.1,890.6c-0.4,12.3-7.6,19.9-17.6,25.8
			c-4.7,2.7-9.5,5.3-13.7,8.7c-2.6,2.1-4.4,4.5-5.7,7.8c1.1,2.6,2,5.5,4,8.1c2.6,3.3,2.8,7.7,2.6,11.4c-0.4,7.2-1.8,14.4-7.1,20.1
			c-1,1.1-1.8,2.4-2.7,3.6c-6.4,0.3-12.6-1.5-19-1.1c-3,0.2-6,1.4-9.1,0.1c-1.9-7.7-3.6-15.5-3.9-23.5c-0.2-5.8,2.1-10.6,5.9-14.7
			c2.3-2.4,5-4.5,8-5.7c6.3-2.5,11.4-6.9,16.9-10.4c3.8-2.4,7.6-5.7,10.3-9.6c3-4.3,7.3-6.9,11.2-10.1c4.1-3.4,9-5.6,12.9-9.3
			C249.5,890.4,252.1,886.9,255.1,890.6z"/>
		<path fill-rule="evenodd" clip-rule="evenodd" fill="#D24B29" d="M180.9,425.1c7.2-1,13-4.8,18.2-9.4c7.3-6.5,12.8-14.3,15.9-23.6
			c2.6-8,4.2-16.2,4.7-24.9c4.2-0.3,7.7,1.8,11.2,3.2c3.5,1.4,6.7,3.6,9.9,5.5c3,1.8,6.5,3.1,9.3,5.3c5.2,4.1,9.9,8.8,12.8,14.9
			c-0.9-0.2-1.9-0.3-2.9-0.5c-1.2,1.4-1.7,3.1-3.8,4.1c-9.6,4.8-18.9,10.3-28.4,15.4c-10.9,5.8-22,11.4-33,17
			c-3.3,1.7-6.2,4.5-10.2,4.6c-1-0.4-0.8-2.3-2.2-2c-0.7,0.6-1.1,1.1-1.6,1.5c-0.9-0.4-1.7-0.9-2.6-1.3
			C177.9,431.3,179.1,428.1,180.9,425.1z"/>
		<path fill-rule="evenodd" clip-rule="evenodd" fill="#923836" d="M575,623.4c0.1-1.8-1.7-2.8-1.9-4.1c7.5-8.6,17.5-13.7,26-20.7
			c1.2-1,2.8-1.7,4.6-1.5c1.3,5.6,4.3,10.4,6.4,15.6c4.7,11.8,11,23,14.8,35.2c0.5,1.5,2.7,2.2,2,4.2c-2.1,0.1-3.7,1.2-5.2,2.6
			c-1.3,1.2-2.4,2.7-4.2,3.5c-6.3,2.9-11.1,8.3-17.6,10.9c-3.9-5.8-5.8-12.5-9-18.7c-3.4-6.6-5.2-13.9-9.7-19.9
			C579.2,628,576.7,626.1,575,623.4z"/>
		<path fill-rule="evenodd" clip-rule="evenodd" fill="#562541" d="M599.8,669.1c6.5-2.6,11.3-7.9,17.6-10.9
			c1.7-0.8,2.9-2.3,4.2-3.5c1.5-1.4,3.1-2.5,5.2-2.6c2.6,5.8,5.2,11.5,7.8,17.3c1.8,4,3.8,8,5.1,12.2c1.7,5.3,5,9.3,8.4,13.6
			c4.8,6,10.2,11.3,15.2,17c1.9,2.2,4.9,3.2,6.3,5.9c-1,0.6-0.6,1.9-1.4,2.6c-1.4,0.3-2.8,0.7-4.1,1c-15.3-13.5-28.4-28.9-41.5-44.4
			c4.6,12.6,11.4,24.1,16.9,36.5c-4.9,2.6-8.7,5.7-12.3,9.3c-4-2-5.1-6.1-6.8-9.4c-2.7-5.3-5.5-10.4-8.1-15.7
			c-4.3-8.9-8.2-17.9-12.3-26.9C599.7,670.5,599.8,669.8,599.8,669.1z M620.8,674.1c-0.1-0.2-0.3-0.3-0.2-0.2
			C620.5,673.8,620.6,673.9,620.8,674.1c0.1,0.5-0.2,1.1,0.8,1.4C621.7,674.8,621.4,674.4,620.8,674.1z"/>
		<path fill-rule="evenodd" clip-rule="evenodd" fill="#D24B29" d="M290.5,732c-3,0.3-4.9,1.9-6.9,4.2c-2.9,3.5-6.6,6.2-9.7,9.7
			c-2.2,2.5-5.3,4.2-6.9,7.4c-0.8,1.6-2.5,2-4.3,1.9c-0.7-0.1-1.4-0.2-2-0.4c-0.1-0.2-0.2-0.4-0.4-0.5c-0.4-2.1-0.3-3.8,1.1-5.8
			c1.5-2.3,0.7-5.7,1.2-8.6c0.5-3.5,1.6-7,1.4-10.6c-0.1-1.1,0.2-2.4,0.6-3.4c4-9.4,4.7-20,9.8-29.1c1.9-3.5,1.5-8.3,2.2-12.4
			c8-4.3,8-4.3,13-4c4.4,3.4,4.4,8.7,4,13.4c-0.5,6.9-1.2,13.7-1.9,20.6C291.2,720.1,290.3,726,290.5,732z"/>
		<path fill-rule="evenodd" clip-rule="evenodd" fill="#562541" d="M394.2,481c-1.5,0.1-3,0.1-4.4,0.2c-2.1,1.3-4.2,2.7-6.5,4.1
			c-2.5-2.4-6.2-3.1-7.6-6.7c1.4-2.6,4.5-2.9,6-5.2c0.1-3.5-2.7-4.2-5-5.3c-11.2-5.4-19-14.3-25-25c-0.5-1-1.3-2-0.7-3.3
			c0.7-0.9,1.8-0.6,2.8-0.7c0.8-0.1,1.6-0.1,2.1-0.1c2.1-1.1,2.8-2.7,3.6-4.5c-0.1-1.4-1.1-2.7-0.8-4.2c1-0.1,1.8-0.4,2.1-1.6
			c0.5-2,1.7-3.4,4-3.4c3.2,2.6,6.2,5.5,8.9,8.6c7.3,8.5,6.9,13.8-1.6,20.7c11.3,7.5,24.5,12,35.2,20.6c0.3,0.3,0.4,0.8,0.7,1.7
			c-4.4,0.3-8.3,1.4-12.4,2.3C394.4,479.4,393.9,479.8,394.2,481z"/>
		<path fill-rule="evenodd" clip-rule="evenodd" fill="#562541" d="M186.8,975.1c3,1.3,6.1,0,9.1-0.1c6.4-0.4,12.7,1.4,19,1.1
			c-3.8,8.8-6.9,17.8-9.2,27.1c-1.3,5.4-2.7,10.6-3.1,16.3c-0.6,7.6-0.4,15.2-0.9,23c-3.9,1.4-8.1-0.4-11.8,1.6
			c-0.1-4.8,1.7-9.2,2.2-13.9c0.6-5.4,0.7-10.7,0-16.1c-1.1-8.3-2.5-16.6-3.2-24.9C188.5,984.4,186.5,979.9,186.8,975.1z"/>
		<path fill-rule="evenodd" clip-rule="evenodd" fill="#562541" d="M672.8,365.1c-1.9,3-4.4,5.3-7.6,7c-3.8,2-6.2,5.7-10.2,7.7
			c-4.9,2.5-9.4,5.8-14.2,8.5c-4.9,2.7-10.1,3.9-15.5,5.8c-3.9-1.2-7-3.7-9.6-7c6.9-7.6,14.7-14,22.6-20.5c5.7-4.6,11.6-9,17.4-13.4
			c3.3,2.1,6.4,4.2,9.4,6.7C667.5,361.8,669.1,364.9,672.8,365.1z"/>
		<path fill-rule="evenodd" clip-rule="evenodd" fill="#562541" d="M208.8,579.1c0.9-0.3,2.1-0.4,2.8-1c6.9-5.7,15.1-5.5,23.3-4.9
			c4.2,0.3,7.8,2.3,10.1,6.2c-2.3,5.4-8.1,6.2-11.7,9.7c-4,3.9-9.5,3.2-15.1,4.3c-5.4,3.7-9.6,9.5-14.4,14.8c-3.1,3.4-6,7-10.3,9.1
			c-1.4-4.8-1-9.8-0.4-14.5c0.5-4.2,0.4-8.5,0.9-12.6c5.3-2.3,8.9-7.4,14.7-8.7C208.8,580.4,208.8,579.8,208.8,579.1z"/>
		<path fill-rule="evenodd" clip-rule="evenodd" fill="#D24B29" d="M727.7,266c2.1,2.3,4.3,4.6,6.4,6.9c-0.7,4.5-4.1,7-7.1,9.4
			c-5,3.9-7.9,9.3-11.3,14.3c-3.9,5.9-7.1,12.2-11,18.1c-2.4,3.7-4.3,7.6-6.3,11.5c-0.9,1.7-2.3,2.7-3.4,4.1
			c-1.3-0.1-2.2-0.5-3.4-1.3c-3.1-2.1-5.5-5.1-8.9-6.7c1.9-3.4,3.7-6.9,6.2-10c2.1-2.5,3.9-5.2,5.3-8.2c2.8-5.6,7-10.2,10.9-15
			c5.7-7.1,12.2-13.3,18.4-19.9C724.7,267.8,725.4,265.8,727.7,266z"/>
		<path fill-rule="evenodd" clip-rule="evenodd" fill="#562541" d="M487.9,503.3c0,0.3,0.1,0.7-0.1,1c-3.9,9.4-4.9,19.5-7.1,29.3
			c-0.1,0.5-0.4,0.9-0.7,1.7c-3.9-1.8-8-2.8-11.1-5.9c-5.1,0.9-9.1-1.6-13-4.2c-1.1-0.7-1.9-1-3.1-1c3-10.6,3.6-22.1,10.9-31.2
			c0.2,0.3,0.3,0.6,0.6,0.8c6.2,5.1,14.6,5.7,21.3,10C486.1,504.1,487.1,503.5,487.9,503.3z"/>
		<path fill-rule="evenodd" clip-rule="evenodd" fill="#923836" d="M601.3,591c-3.6-0.1-5.6-3.2-8.5-4.6
			c-9.6-4.6-18.6-10.7-29.3-12.6c-0.2,0-0.4-0.5-0.6-0.7c2-3.7,4-7.5,5.9-11.2c-9.6-5.7-20.2-6.1-30.4-8.2c-1.1-1.7-2.2-3.2-0.8-5.3
			c5.7-0.7,11.3,0.4,16.9,1.5c8.4,1.6,15.7,5.6,23.1,9.5c3.4,1.8,6.6,3.7,9.5,6.3c1.9,1.6,3.8,3.9,6.9,3.3c3,3.6,6,7.2,8.4,10.1
			c0.9,2.9-2.2,5.1,0.5,7.1C603.4,588.2,600.7,589,601.3,591z"/>
		<path fill-rule="evenodd" clip-rule="evenodd" fill="#D24B29" d="M78.9,1442.2c1.4,6.2,0.9,12.4,1,18.6c-25.3,0-50.5,0-75.8,0
			c0-0.1,0-0.3-0.1-0.4c16.7-4.1,33.4-8.3,50.2-12.4C62.4,1446,70.7,1444.1,78.9,1442.2z"/>
		<path fill-rule="evenodd" clip-rule="evenodd" fill="#923836" d="M682.6,322.2c3.4,1.6,5.8,4.6,8.9,6.7c1.2,0.8,2.1,1.2,3.4,1.3
			c0.3,3.2-2,5.6-3.4,8c-3.4,6.2-7.4,12-11,18.1c-2,3.3-5.6,5.4-7.8,8.8c-3.6-0.2-5.3-3.3-7.7-5.3c-3-2.4-6.1-4.6-9.4-6.7
			c1.9-2.4,4.5-3.7,6.9-5.4c7.4-5.4,11.9-13.2,16.9-20.5C680.6,325.6,681.6,323.9,682.6,322.2z"/>
		<path fill-rule="evenodd" clip-rule="evenodd" fill="#923836" d="M545.8,321.3c-4.2-1.8-7.7-5-12-6.7c-1.7-0.6-3.2-1.8-5.3-1.3
			c0.9,1.3,1.4,2.8,3.4,2.8c-1.3,2.5-0.4,5.8-3.1,7.9c-3,0.4-5.1-1.9-7.7-2.8c-2.5-0.8-5.1-1.7-7.9-1c5.9,2.1,12,4,16.1,9.4
			c-2.3,3.3-4.4,6.1-8.5,5.7c-2.1-0.5-3.1-2.4-4.7-3.5c-5.9-3.8-11.9-7.1-19.3-4.7c0.2-0.6,0.3-1.5,0.7-1.8
			c6.8-4.3,12.9-9.7,20.2-13.6c6.8-3.6,14.1-4.3,21.4-5.6c6.1-1.1,12.1-0.6,18.2,0c0.7,0.1,1.3,0.3,1.6,1c-1.3,0.1-2.4,0-3.2,1.6
			c-0.8,1.6-1.9,3.4-3.6,4.2c-1.7-0.3-2.5-2.1-4.2-1.8c-0.7-1-1.4-1.4-2.5-0.1c0.9,0.1,1.7,0.1,2.4,0.1c-0.4,1.8,1.9,2.5,1.8,4.6
			C547.3,316.7,548.4,320.3,545.8,321.3z M526.3,312.7c-0.6-0.6-1.2-0.7-1.8,0C525.2,313.1,525.7,313.2,526.3,312.7z"/>
		<path fill-rule="evenodd" clip-rule="evenodd" fill="#D24B29" d="M296.9,388.1c-6.6-3.1-10.3-9.2-14.5-14.6
			c-6.1-7.8-11.2-16.2-16.2-24.8c-1.7-3-4.6-5.2-5.8-8.5c4.3-1.8,8.8-1.3,13.2-1.1c3.7,0.1,5.6,2.4,6.9,5.9c-1.7,3,0.4,6.1,0.4,9.3
			c5.1,5.8,9.1,12.6,15.1,17.5c4.2,3.4,8.4,6.8,12.2,10.7c-0.2,0.8-0.3,1.6-1,2.2c-1.5,0.9-3.3-0.1-4.8,0.9c-0.5,1.2-1,2.4-1.5,3.7
			c-0.6-0.1-1.3-0.3-1.9-0.4C298.4,388.1,297.7,388.1,296.9,388.1z"/>
		<path fill-rule="evenodd" clip-rule="evenodd" fill="#D24B29" d="M209.8,1293.8c-0.5,2.8,1.1,5.1,2.1,7.5c2.8,6.7,3.4,14,5.6,20.9
			c2.7,8.2,4.9,16.6,7.5,25.3c-5.7,3.2-11.7,5-18,6.4c0-19.8,0-39.6,0-59.4C207.8,1293.6,208.8,1293.9,209.8,1293.8z"/>
		<path fill-rule="evenodd" clip-rule="evenodd" fill="#923836" d="M487.9,503.3c-0.8,0.2-1.9,0.9-2.3,0.6c-6.6-4.3-15-4.9-21.3-10
			c-0.2-0.2-0.4-0.5-0.6-0.8c-0.3-3.2,2.6-4.3,4-6.4c2.1-3,4.7-5.7,7.1-8.5c0.4-0.3,0.7-0.6,1.1-0.8l0.1,0c3.2-0.4,6,0.5,8.8,2.2
			c3,1.9,6.3,3.2,9.7,4.3c0.5,1.2,0,2.8,1.4,3.5c-1.9,4.9-4.3,9.5-7,13.9C487.9,501.5,487.8,502.3,487.9,503.3L487.9,503.3z"/>
		<path fill-rule="evenodd" clip-rule="evenodd" fill="#923836" d="M300.8,389.3c0.5-1.2,1-2.4,1.5-3.7c1.4-1,3.3,0,4.8-0.9
			c0.7-0.6,0.8-1.4,1-2.2c3.7,1.4,6.3,4.2,9.1,6.7c4.6,4.3,10.4,6.1,15.8,8.9c3.4,1.8,6.8,3.7,9.6,6.3c6.5,5.9,13.8,10.8,19.6,17.4
			c1,1.1,2.2,1.9,2.6,3.4c-2.3,0-3.5,1.4-4,3.4c-0.3,1.2-1.1,1.4-2.1,1.6c-5.3-10.6-15.2-16.4-24.5-22.7c-7.8-5.3-16.1-9.8-24.6-14
			C306.8,392.1,303.4,391.6,300.8,389.3z"/>
		<path fill-rule="evenodd" clip-rule="evenodd" fill="#D24B29" d="M495.9,487.3c-1.4-0.8-0.9-2.4-1.4-3.5c-3.4-1.1-6.7-2.4-9.7-4.3
			c-2.8-1.7-5.6-2.6-8.8-2.2c1.4-1.8,2.6-4,5.3-4.1c2-0.1,1.3-2.1,2.3-2.8c6.9-4.7,13.9-9.4,20.8-14.1c0.5-0.3,1.3-0.2,1.9-0.3
			c2-4.2,5.8-6.2,9.7-8.1c-0.2,4.5-3.5,7.7-5.2,11.6c-3.5,7.8-7,15.7-11.6,23c-0.6,1-1.4,1.8-2.1,2.7
			C495.8,485.4,495.8,486.3,495.9,487.3L495.9,487.3z"/>
		<path fill-rule="evenodd" clip-rule="evenodd" fill="#923836" d="M208.8,579.1c0,0.7-0.1,1.3-0.1,2.3c-5.8,1.4-9.3,6.5-14.7,8.7
			c-0.3-9.2-0.3-18.4,0.5-27.7c-0.8-1.7-2.5-3.3-0.8-5.5c5.6-5.9,11-6.7,17.5-2.7c1.1,2.4,0.4,4.7-0.3,7.2c-1,3.7-1.8,7.4-2.7,11
			C207.7,574.7,207.6,577,208.8,579.1z"/>
		<path fill-rule="evenodd" clip-rule="evenodd" fill="#923836" d="M621,500c0.9-8.4,1.5-16.9,4.8-24.9c0.2,1.9,1.7,2.6,3,3.6
			c0.7-0.5,1.3-0.9,2.1-1.4c3.7,1.7,7.5,3,11.7,2.9c1.2,8.8,1.4,17.5,0.2,26.3c-0.1,0.7-0.4,1.2-1,1.6c-0.2-1.6,0.4-3.4-1.3-4.6
			C634,502.6,627.8,499.3,621,500z"/>
		<path fill-rule="evenodd" clip-rule="evenodd" fill="#1D174D" d="M760.2,191.3c0.1-0.3,0.4-0.6,0.4-0.9
			c-0.6-8.3,3.4-13.8,10.6-17.1c0.8-2.2,0.7-4.2,0-6.1c4.8,1.7,6.6,6.4,9.6,9.9c1,3.8,2.4,7.4,2,11.5c-0.2,2.7-2.5,4.7-2.1,7.5
			c-1.2,2.4-2.2,5-3.7,7.3c-1.4,2.2-2,5.3-5.3,5.7c-0.5-7.2-2.2-14.3-2.3-22.1c-2.4,1.2-4.5,1.4-4.7,4c-1.7-0.3-1.7,1.9-3,2
			C760.5,193,760.5,192,760.2,191.3z"/>
		<path fill-rule="evenodd" clip-rule="evenodd" fill="#562541" d="M621,500c6.9-0.7,13,2.6,19.5,3.5c1.7,1.2,1.2,3,1.3,4.6
			c-1.1,5.8-2.6,11.6-5,17c-4.1-1.8-8.6-1.2-12.8-2.8c-2-0.8-4.4-1.3-7.1-1.6C618.2,513.7,619.6,506.8,621,500z"/>
		<path fill-rule="evenodd" clip-rule="evenodd" fill="#562541" d="M199,1143c1.5,0,2.9,0,4.3-0.8c5.5-3,11.3-5.5,16.3-9.4
			c4.1-3.3,8.9-3.1,13.5-2.6c1.2,2-0.1,3-1.1,4c-7.8,7.8-15.4,15.7-23.4,23.2c-2.1,2-3.2,4.5-4.9,6.6
			C201.3,1157.3,199.9,1150.3,199,1143z"/>
		<path fill-rule="evenodd" clip-rule="evenodd" fill="#562541" d="M757.9,253.3c-0.2,4-1.4,7.7-2.8,11c-1.2,0.9-2.3,1.1-3.1,0.7
			c-4.9-2.3-10.6-2.2-15.4-4.9c-2.6-1.4-5.7-1.3-8.6-1.9c2.3-4.6,5.3-8.7,8.2-12.9c4.9-0.4,9.3,1.7,13.9,2.9c2.1,0.5,4,2,6.6,2
			C757,251,756.4,252.6,757.9,253.3z"/>
		<path fill-rule="evenodd" clip-rule="evenodd" fill="#923836" d="M722.6,346.2c6.4-12.2,12.7-24.3,19.1-36.5
			c0.3-0.6,0.5-1.2,1.2-1.5c3-0.3,5.2,1.8,7.7,2.9c-1.6,5-5.1,8.9-7.2,13.6c-3.3,7.3-8.5,13.5-11.7,20.8c-1.3,2.9-3,5.7-5.4,8.7
			C726.1,350.7,722.6,349.4,722.6,346.2z"/>
		<path fill-rule="evenodd" clip-rule="evenodd" fill="#923836" d="M496.8,340.2c1,0,2-0.1,3-0.1c2,3.7,0.6,7.6,0.9,11.1
			c-1.8,2.2-5.3,2.4-4.9,6c-3.3,2.2-6,5-7.7,8.3c-1,1.1-2,0.3-2.8,0.4c-1.2,2.1,0.6,4.5-1.1,6.3c-1.1-8.7,1.7-16.8,4-24.7
			c-3.6-7.5-3.5-11.2,4.8-17.2c0,4.4-0.3,8.7-1.1,13c-0.5,0.1-1.2-0.2-1.3,0.7c0.8,0.4,1.1,0,1.4-0.6c1.6-0.2,3-0.7,4-2
			C496.2,340.9,496.5,340.5,496.8,340.2L496.8,340.2z"/>
		<path fill-rule="evenodd" clip-rule="evenodd" fill="#562541" d="M545.8,321.3c2.7-1,1.6-4.5,3.8-5.5c0.1-2.1-2.2-2.8-1.8-4.6
			l0.1-0.1c1.7-0.3,2.5,1.5,4.2,1.8c1.7-0.8,2.8-2.6,3.6-4.2c0.8-1.6,1.9-1.5,3.2-1.6c3.8,0.5,7.5,1.5,11,3.1
			c-2.6,3.2-4.7,6.8-7.9,9.6c-2.9,0.2-4-3.6-7-3.7c-0.2-0.2-0.3-0.3-0.1-0.2c-0.2-0.1,0,0,0.2,0.1c0.2,2.9,2.7,4.1,4.4,5.7
			c1.6,1.5,3.1,3,4.4,5c-1.6,2.2-2.5,5-5,7.6C554.2,330,549.7,325.9,545.8,321.3z"/>
		<path fill-rule="evenodd" clip-rule="evenodd" fill="#D24B29" d="M230.9,318.1c-2.4-0.1-3.4-2.6-5.4-3.3c-1.9,0.3-1.8,1.8-1.9,3.1
			c-0.3,0.4-0.5,0.8-0.8,1.3c-3.3,1.3-5.9,4.1-9.7,4.3c-0.1,1.7-0.2,3.2-0.3,4.7c-1.9-7.9-1.9-15.7-0.5-23.9c6-0.2,11.5,0.4,16.1,4
			c2.9,2.2,6.9,3,8.5,6.9C235,316.5,231.6,314.6,230.9,318.1z"/>
		<path fill-rule="evenodd" clip-rule="evenodd" fill="#562541" d="M620.8,330.3c0.6-1.3,1.4-2.7,0.9-4.2c-0.4-1.4-1.3-2.7-0.5-4.3
			c0.9-0.9,2.2-0.9,3.1-0.2c3.9,2.7,8.1,4.9,11.2,8.7c2.5,3,5.2,5.9,9.3,7c-1.6,4-4.6,6.9-7.5,10.6
			C632.4,340.9,625.9,336.3,620.8,330.3z"/>
		<path fill-rule="evenodd" clip-rule="evenodd" fill="#562541" d="M814.4,76.9c0.3,1.3,0.5,2.6,0,3.9c-4.2,10.3-6.8,21.2-11,31.6
			c-2.9,7.1-6.7,13.9-9.4,21.1c-1.9,5-3.2,10-3.3,15.3c-0.1,7-4,11.7-10.8,13.4c2.3-7.9,6-15.2,9.2-22.7c8-18.3,15.9-36.6,21.8-55.6
			C811.7,81.4,812.8,79,814.4,76.9z"/>
		<path fill-rule="evenodd" clip-rule="evenodd" fill="#D24B29" d="M501.8,431.1c-5.5,4.1-8.9,9.9-11.6,16.1
			c-1.7,2.1-2.7-0.4-4.3-0.3c0.4-9.7,1.5-19.1,1-28.6c0.2-0.1,0.5-0.2,0.8-0.2c4.3,1.2,6.8,5,10.9,6.6
			C498.3,427.5,501,428.8,501.8,431.1z"/>
		<path fill-rule="evenodd" clip-rule="evenodd" fill="#923836" d="M207.7,544.9c-5.3-0.6-9.8,2.1-14.7,3.4c-1.5-4.5-1.5-9.3-2-14
			c5.5-1.5,11.1-2.9,16.8-3.8c1.9-0.3,3.6-0.1,5.3,0.3c-0.7,2.5-1.6,4.9-3.1,7.1C208.6,540,207.6,542.3,207.7,544.9z"/>
		<path fill-rule="evenodd" clip-rule="evenodd" fill="#D24B29" d="M757.7,211.2c3.7,4.9,1,10.1,0.6,15.1c-0.4,5-1,10,0.7,14.9
			c-5.4-2-11.2-3-16.2-6.1c2.7-5.8,6.6-10.9,9.9-16.3C754.1,216.2,755.3,213.3,757.7,211.2z"/>
		<path fill-rule="evenodd" clip-rule="evenodd" fill="#D24B29" d="M642.6,480.1c-4.2,0.1-8-1.2-11.7-2.9c-0.7,0.5-1.4,1-2.1,1.4
			c-1.3-1-2.8-1.7-3-3.6c3.3-11.7,8.1-14,17.2-14.6C642.9,467,642.7,473.6,642.6,480.1z"/>
		<path fill-rule="evenodd" clip-rule="evenodd" fill="#562541" d="M397.8,1130c3.1,3.3,3.7,7.5,2.9,11.5c-1.7,8-3.6,16-8.4,23.1
			c-1.7,0.8-3.5,0.2-5.3,0.4c2.4-8.6,5.1-17.2,7.2-26C395,1135.9,396,1132.8,397.8,1130z"/>
		<path fill-rule="evenodd" clip-rule="evenodd" fill="#923836" d="M742.7,235.1c5,3.1,10.8,4.1,16.2,6.1c1.2,2.7,1.2,5.3-0.1,7.9
			c-1.6,1.1-0.8,2.6-0.9,4.1l0,0.1c-1.5-0.8-0.9-2.3-1.2-3.2c-2.6,0-4.5-1.4-6.6-2c-4.6-1.2-9-3.2-13.9-2.9
			C737.8,241.5,740.2,238.3,742.7,235.1z"/>
		<path fill-rule="evenodd" clip-rule="evenodd" fill="#562541" d="M175.3,355.1c5.5,4.3,7.7,16,3.8,21.7c-0.7,1-1.4,2.2-1.3,3.6
			c-4.1-6.8-8.8-13.3-10.8-21.2C171,360.4,172.3,356,175.3,355.1z"/>
		<path fill-rule="evenodd" clip-rule="evenodd" fill="#923836" d="M648.9,332.2c-6.7-6.2-13.5-12.2-21.1-17.2c0-1.7,0-3.4,0-5.1
			c9.7,3.9,18,10.1,26.2,17C652.4,329,651.1,331,648.9,332.2z"/>
		<path fill-rule="evenodd" clip-rule="evenodd" fill="#562541" d="M223.6,329c1.2,5.1,3.3,10,1.8,15.7c-1.6,1.1-4.8-0.4-5.6,2.7
			c-2.8-3.5-4.1-7.6-5-11.9c0-0.6-0.2-1-0.7-1.3c-0.1-0.6-0.1-1.3-0.2-1.9C216.9,330.5,219.9,328.8,223.6,329z"/>
		<path fill-rule="evenodd" clip-rule="evenodd" fill="#562541" d="M750.5,311.1c-2.5-1.1-4.7-3.2-7.7-2.9c2.4-5.9,5-11.7,9.5-15.8
			c2.5-0.7,3.3,2,5.3,1.7c0.7,2.3-1,3.7-1.8,5.5C754.2,303.4,752.3,307.2,750.5,311.1z"/>
		<path fill-rule="evenodd" clip-rule="evenodd" fill="#D24B29" d="M170.3,319.1c-2.6,2.7-1.4,6.3-1.8,9.3c-0.7,5.5-1,11.2,0.4,16.8
			c0.2,3.6-2.3,3.8-4.9,3.9c-2-12.6,0.3-24.4,5.7-35.8C170.4,315.2,169.3,317.3,170.3,319.1z"/>
		<path fill-rule="evenodd" clip-rule="evenodd" fill="#562541" d="M627.8,310c0,1.7,0,3.4,0,5.1c-1.9,0-3.4-1.1-5-2
			c-5.2-2.9-11-4.2-16.8-5c-3-0.4-5-2.3-7.2-3.9C609.1,303.4,618.8,305,627.8,310z"/>
		<path fill-rule="evenodd" clip-rule="evenodd" fill="#923836" d="M223.6,329c-3.7-0.2-6.7,1.6-9.7,3.2c-1.7-1-0.6-2.8-1.1-4.1
			c0.1-1.5,0.2-2.9,0.3-4.7c3.8-0.2,6.4-3,9.7-4.3c0.3,0,0.7,0,1,0.1C223.7,322.5,223.6,325.7,223.6,329z"/>
		<path fill-rule="evenodd" clip-rule="evenodd" fill="#562541" d="M830.7,32.9c0.7,4.2-1.9,7.6-3.2,11.3
			c-3.3,10-7.2,19.8-10.8,29.7c-0.4,1.2-0.5,2.7-2.2,2.9c0.4-5.4,2.9-10.2,4.6-15.2C822.3,51.9,826.2,42.3,830.7,32.9z"/>
		<path fill-rule="evenodd" clip-rule="evenodd" fill="#923836" d="M163.9,349.1c2.6-0.1,5.1-0.4,4.9-3.9c1.7,3.6,5.2,6,6.4,9.9
			c-3,0.9-4.3,5.3-8.3,4.1C165.1,356.1,164.1,352.7,163.9,349.1z"/>
		<path fill-rule="evenodd" clip-rule="evenodd" fill="#923836" d="M485.7,387.9c-2.1,2.3-5.8,2.8-7,6.2c-1.3-0.1-2.5-0.7-3.8-1.5
			c0.5-4.1,0.5-8.4,3.9-11.5C480.9,383.6,484.3,384.8,485.7,387.9z"/>
		<path fill-rule="evenodd" clip-rule="evenodd" fill="#D24B29" d="M760.2,191.3c0.3,0.7,0.3,1.7,1.6,1.7c1.3-0.1,1.3-2.3,3-2
			c-0.5,2.6-1.1,5.2,0.1,7.6c1.5,3.1,0.4,5.7-1,8.4c-0.7,0.3-1.5,0.6-2.3,1c-3.5-3-0.5-5.1,1-7.3c-1.2-1.1-2.4-0.5-3.4-0.5
			C758.5,197.1,759.4,194.2,760.2,191.3z"/>
		<path fill-rule="evenodd" clip-rule="evenodd" fill="#923836" d="M230.9,318.1c0.7-3.4,4.1-1.6,5.9-3c2.8,2.1,4.7,4.9,6.2,8
			c-2.3-0.1-3.6,2.7-6.1,2c-0.3-0.3-0.7-0.7-1-1c-0.1-0.5-0.5-0.9-1-1C232.8,322,231.6,320.2,230.9,318.1z"/>
		<path fill-rule="evenodd" clip-rule="evenodd" fill="#562541" d="M491.8,343.1c0.8-4.3,1-8.7,1.1-13c1.3-1,2.7-1.9,4-2.9
			c2.6,3.1,2.6,6.4,1.1,9.9c-0.5,1-1.2,2-1,3.2l0,0c-1.5,0.1-1.5,0.1-1,1.1C494.8,342.5,493.4,343,491.8,343.1L491.8,343.1z"/>
		<path fill-rule="evenodd" clip-rule="evenodd" fill="#562541" d="M236.8,325.1c2.5,0.7,3.8-2.2,6.1-2c2.1,3.1,5,5.8,4.8,10
			c-2.8,1-5,0.7-6.6-2.1C239.9,328.9,237,328,236.8,325.1z"/>
		<path fill-rule="evenodd" clip-rule="evenodd" fill="#923836" d="M780.8,177.2c-3-3.5-4.8-8.1-9.6-9.9c-0.2-1.3-0.2-1.3,0.2-2.6
			c2.5-0.9,4.8,2.4,7.3,0.3c-0.4,2.4,2.3,1.8,3,3.1c-0.3,2-1.6,3.9-0.2,6C782.1,175,782,176.4,780.8,177.2z"/>
		<path fill-rule="evenodd" clip-rule="evenodd" fill="#923836" d="M480.8,396.1c2.6,0.6,4.4-1.8,6.9-1.8c0,1.9,0,3.8,0,5.7
			c-2.8,1.4-5.7,2.6-6.7,6C479.3,402.7,481.5,399.4,480.8,396.1z"/>
		<path fill-rule="evenodd" clip-rule="evenodd" fill="#562541" d="M485.7,387.9c-1.4-3.2-4.8-4.4-6.9-6.8c0.4-2.1,1.8-3.5,3-5.1
			c1.2,4.1,5.1,6.2,7.2,10.3C488.6,387.2,487.6,388.3,485.7,387.9z"/>
		<path fill-rule="evenodd" clip-rule="evenodd" fill="#562541" d="M838.5,11.9c-1.4,7.2-3.5,14.1-7.7,20.2
			C832.9,25.2,834.8,18.3,838.5,11.9z"/>
		<path fill-rule="evenodd" clip-rule="evenodd" fill="#562541" d="M839.8,9.1c-0.1,1.1,0.4,2.5-1.3,2.9
			C838.8,11,838.6,9.8,839.8,9.1z"/>
		<path fill-rule="evenodd" clip-rule="evenodd" fill="#562541" d="M194,619.1c0.8,0.5,0.9,1.2,0.8,2C194,620.7,193.8,620,194,619.1
			z"/>
		<path fill-rule="evenodd" clip-rule="evenodd" fill="#562541" d="M396.9,1128.1c0.8,0.4,0.9,1.2,0.9,2
			C396.8,1129.7,396.6,1129,396.9,1128.1z"/>
		<path fill-rule="evenodd" clip-rule="evenodd" fill="#923836" d="M214.1,334.1c0.5,0.3,0.7,0.7,0.7,1.3
			C214.2,335.2,213.9,334.8,214.1,334.1z"/>
		<path fill-rule="evenodd" clip-rule="evenodd" fill="#D24B29" d="M475.9,477.3c-0.4,0.3-0.7,0.6-1.1,0.8
			C475,477.6,475.3,477.2,475.9,477.3z"/>
		<path fill-rule="evenodd" clip-rule="evenodd" fill="#923836" d="M260.3,754.3c0.2,0.1,0.4,0.3,0.4,0.5l-0.4-0.1L260.3,754.3z"/>
		<path fill-rule="evenodd" clip-rule="evenodd" fill="none" d="M732.8,1375.1c-11.1-4.3-22.2-8.7-33.3-12.9
			c-5.9-2.3-11.7-4.6-17.7-6.6c-12.2-4-23.7-9.9-36-13.5c-7.5-2.2-14.3-6.1-21.8-8.4c-7.5-2.4-14.9-5.5-22.3-8.3
			c-7.4-2.8-14.8-5.8-22.2-8.5c-2.5-0.9-4.6-2.7-7.3-3c0-0.3,0-0.6-0.2-0.9c7.8-11.7,16.3-22.9,25.3-33.7
			c4.7-5.6,10.4-10.2,16.5-14.3c5.4-3.5,10.3-7.7,14.9-12.3c6-6,8.7-12.7,5.9-21c-2.6-7.6-3-15.5-2.8-23.4c0.2-7,2.6-13.5,4.1-20.2
			c3.4-15.9,7.3-31.6,13-46.8c3.3-8.8,7.1-17.5,14.9-23.4c7.2-5.5,14.8-10.5,22.1-15.9c9.6-7.3,20.1-13.7,27.2-23.8
			c4-5.6,7.1-11.8,10.7-17.8c1.1-1.8,1.9-3.8,3.7-5.3c13.7,13,27.3,25.8,40.8,38.8c6.5,6.2,9.6,14.4,12.6,22.6
			c4.5,12.2,8.9,24.3,14.7,35.9c6.6,13.2,12.4,26.7,15.7,41.2c1.7,7.5,2.7,15.2,4.2,22.8c2.7,13.2,7.6,25.8,11.9,38.5
			c4.1,12.2,6.5,24.7,8.6,37.4c1.1,6.8,2.2,13.6,3.3,20.4c1.8,11.2,1.9,22.5,1.6,33.8c-0.1,2.4-1,4.8-2,7
			c-2.6,5.7-4.4,11.6-5.8,17.6c-1.9,8-1.5,16.1-0.2,24.3c-4.6,3.6-9.9,6.5-12.4,12.5c-26.2-9.1-51.5-20-77.5-28.9
			c-0.5-0.7-1.1-1-2-0.9c-0.2-0.2-0.5-0.3-0.9-0.3c-0.5-0.8-1.3-1-2.2-0.8C736.1,1376.5,734.7,1375.2,732.8,1375.1z"/>
		<path fill-rule="evenodd" clip-rule="evenodd" fill="none" d="M523.7,1294.8c-6.7-1.3-12.8-4.3-19.1-6.6
			c-13.8-5.1-27.5-10.2-41.2-15.4c-14.5-5.5-29-11-43.5-16.4c-0.6-0.2-1.3-0.2-2-0.3c-2.9-0.8-5.7,0.2-8.6,1.2
			c-2.9-4.2-4.5-8.8-6.8-13c2.5-3.4,5.7-5.6,8-8.7c5.8-7.9,7.7-17.2,9.4-26.6c2.8-15.8,4.5-31.9,8-47.6c2.5-11.4,6.8-22.3,10.4-33.3
			c3.7-11.2,8-22.2,10-33.9c0.7-3.9,1.8-7.8,1.6-11.7c-0.3-5.1,0.8-10.1,0.9-15.2c1.6-4.6,2.8-9.2,3.2-14c1.8,0,1.8-1.7,2.3-2.8
			c3.3-7.7,6.7-15.4,9.7-23.3c1.8-4.6,4.3-8.9,5.2-13.8l-0.2,0.1c1.3-1,1.6-2.5,1.7-4c0.8-0.5,1.5-0.9,2.3-1.4
			c3.6,1.7,7.2,3.5,10.9,5.2c3.6,3,8,4.2,12.3,6c10.7,4.4,21.5,8.3,32.8,10.8c6.5,1.5,13.2,2.6,20.5,3.6c-1.3,4,0.9,7.2,1.8,10.7
			c1.8,7.6,3.4,15.3,7.6,22.1c1.8,5.2,4.6,10,7.4,14.7c0.7,1.1,1.8,2,1.6,3.5c-1.7,9-0.6,18-0.9,27.1c-0.2,4.9,0.6,9.8,1.6,14.7
			c2.4,10.8,5.5,21.5,6.9,32.6c0.6,4.4,0.5,9.1,2.5,13.3c-0.4,5.1,1.1,10.1,1.2,15.2c0,6.8-1.3,13.1-4.4,18.9
			c-9.5,17.5-18.9,35.2-29,52.4C540.2,1271,531.7,1282.7,523.7,1294.8z"/>
		<path fill-rule="evenodd" clip-rule="evenodd" fill="#562541" d="M439.8,998c-0.2-12.5,0.9-24.9,1.4-37.3
			c0.4-10.4,2.5-20.9,5-31.2c2.4-9.9,4.3-20,6.9-29.9c2.6-10,6-19.9,8.8-29.9c0.7-2.5,3.9-3.4,3.2-6.4c13.9,0,27.2,0,40.5,0
			c1.1,1.6,2.2,3.1,3,4.2c1.2,3.6-0.3,6.6-0.8,9.7c-1.5,8.5-1.4,17.1-2,25.7c-0.5,8-1.3,16.1-2.4,24.1c-1.4,10.2-3.3,20.2-6.2,30
			c-2.7,9.1-5.3,18.3-9.5,26.9c-2.3,4.8-4.5,9.5-6.8,14.3c-0.5,1.1-1.3,1.9-2.6,2c-2.2-0.3-0.4-3.3-2.3-3.7
			c-1.3,0.5-0.7,2.4-2.2,2.3C462.3,997.4,451,998.4,439.8,998z"/>
		<path fill-rule="evenodd" clip-rule="evenodd" fill="#923836" d="M560.8,1066.2c-4.3-6.8-5.8-14.5-7.6-22.1
			c-0.8-3.5-3-6.7-1.8-10.7c-7.3-1.1-13.9-2.2-20.5-3.6c-11.3-2.5-22.1-6.4-32.8-10.8c-4.2-1.7-8.7-3-12.3-6
			c13.7,1,27.5,1.4,41.2,2.2c21.3,1.3,42.5,0.6,63.8,0.5c6.8,0,13.8-0.6,20.6-2.3c3-0.7,6.3-0.6,9.4-0.3c5.7,0.6,9.7,5.6,8.7,11.2
			c-0.7,4.4-1.3,8.8-2,13.2c-0.8,4.8-4.1,8.6-7,12.4c-4.6,6-9.1,12.1-13.6,18.1c-5-3.3-10.9-2.2-16.2-2.8c-8.3-0.9-16.7-0.4-25,0.2
			C564.1,1065.6,561.9,1063.8,560.8,1066.2z"/>
		<path fill-rule="evenodd" clip-rule="evenodd" fill="#923836" d="M571.8,667.1c0.3,0.9,0.5,2,1,2.8c5,7.6,4.3,16.2,3.8,24.6
			c0,0.5-0.2,1-1.3,1.2c-2.2-9.5-6.2-17.9-16-22.1c3.7,4.9,6.5,10.2,7.9,16.2c0.3,1.5,0.5,2.9,0.7,4.4c0.4,2.3,0.8,4.5,2.7,6.3
			c5.8,5.5,10.3,12.2,15.3,18.3c1.5,1.9,1.5,4.4,3.1,6.1c-0.5,0.4-0.9,0.9-1.5,1.2c-6.6,3.2-13.8,4.9-20.1,8.8
			c-2.1,1.3-5,2.4-6.8-0.9c-0.4-3.5,3.3-5.2,3.6-8.7c-4.5-1.3-8.4,2.6-13,1.4c-5.2-4.5-10.3-9.2-11.1-16.8c0.9-4.4,5.1-5.7,8.2-8.5
			c-2.2-0.6-3.9,0.2-5.7,0.6c-7.5,1.6-12.7-2.3-17-7.8c-3.7-4.7-7.2-9.4-9.4-15.1c-1.1-2.7-1.9-5.3-1.3-8.2
			c4.5-0.3,8.8-1.1,12.9-2.9c16.9-7.4,33.8-14.8,50.7-22.1c1.5-0.6,1-2.5,3.3-3c0.5,0,1.8,0,3.2,0c4.4,7.2,5.9,15.2,6.7,23.4
			c0.4,3.4,0.1,7,0,10.4c0,1.8-0.8,3.4-2,6.1C585.4,675,579.7,669.7,571.8,667.1c0-0.4-0.2-0.6-0.5-0.5
			C571.2,666.8,571.4,667,571.8,667.1z"/>
		<path fill-rule="evenodd" clip-rule="evenodd" fill="#562541" d="M355.1,498.1c2.7,3.6,4.1,8,5.6,12.1c2.9,8.1,7.2,15.5,10.3,23.4
			c3.3,8.4,7.8,16.3,11.7,24.5c3.3,6.8,6.4,13.7,10.5,20.1c0.8,1.3,0.7,2.5,0,4c-7.9,3.5-15.8,7.1-24.1,9.2
			c-3.4-4.6-8.3-6.6-12.1-10.1c-5.9-5.5-12.6-10.1-18.5-15.6c-2.7-2.5-4.6-5.8-6.3-9.4c-4.6-10-6.5-20.6-7.6-31.5
			c-0.6-5.3-1-10.5-0.6-15.8c3.2,0.9,4.9-2,7.5-2.7C339.5,503.9,347,500.1,355.1,498.1z"/>
		<path fill-rule="evenodd" clip-rule="evenodd" fill="#923836" d="M870.6,1248.1c-1.3-0.2-1.9,1.1-3,1.8c-1.4-2-3.1-2.1-5.2-1.3
			c-1.8,0.7-3.8,1-5.6,1.6c-3.3,1.2-5.9,0.8-7.8-2c-1-1.3-1.7-0.1-2.6-0.2c-3.2-4.5-3.1-10.1-4.3-15.1c-2.1-8.9-2.9-18.1-4.5-27
			c-2-10.9-3.1-21.9-5.6-32.6c-0.8-3.2-1.3-6.5-2-9.7c-4.1-16.5-5.7-33.5-9.8-50c-0.4-1.7-0.3-3.6-0.4-5.5
			c8.1,0.5,15.6-1.5,22.9-4.9c0.3-0.1,0.6,0,1,0.1c0.1,5.3,0.3,10.6,0.3,16c0,7.6,1.5,15.1,2.8,22.6c0.6,3.4,1.7,6.8,1.3,10.3
			c-0.2,1.9,0.6,3.6,1.2,5.3c4.1,10.3,9.3,20.1,12.2,30.8c3.3,12.1,6.5,24.1,7.7,36.7c0.6,6.1,2.1,12,1.8,18.2c-1,0.1-2,0.3-1.9,1.6
			c0.1,1.1,0.9,1.2,1.7,1.3C870.6,1246.7,870.6,1247.4,870.6,1248.1z"/>
		<path fill-rule="evenodd" clip-rule="evenodd" fill="#923836" d="M439.8,998c11.3,0.4,22.5-0.5,33.8,0.8c1.6,0.1,0.9-1.9,2.2-2.3
			c2,0.4,0.2,3.4,2.3,3.7c-0.6,2.7-3.9,4.4-3.2,7.7c-0.8,0.5-1.5,0.9-2.3,1.4c-0.8,1.2-1.9,2.4-1.7,4l0.2-0.1
			c-1.7,0.5-2.1,2.1-2.8,3.2c-3.6,6.1-6.6,12.7-9,19.3c-2.1,5.7-4.7,11.3-5.4,17.4c-0.4,4.8-1.6,9.5-3.2,14
			c-2.6,5.4-2.8,11.4-3.8,17.2c-0.9,5.4-2.7,10.6-4.3,15.7c-2.1,6.5-11.7,12.2-17.5,11.2c-8.6-1.6-14.7-11.2-13-20.4
			c1.7-9.2,5.2-17.7,10.2-25.7c5.3-8.6,7.3-18.4,9.7-28c3-12.5,4.5-25.3,7.5-37.8c0-0.1,0.3-0.2,0.4-0.3c0.2,0.2,0.3,0.4,0.2,0.2
			c0.2,0.1,0,0-0.2-0.2C439.8,998.7,439.8,998.3,439.8,998z"/>
		<path fill-rule="evenodd" clip-rule="evenodd" fill="#562541" d="M560.8,1066.2c1.1-2.5,3.4-0.7,4.8-0.7c8.3-0.6,16.8-1.1,25-0.2
			c5.4,0.6,11.3-0.5,16.2,2.8c-0.1,2.5-2.2,4-3,6.2c-2.6,7-3.1,14.5-3.8,21.8c-0.7,7.6-2.5,15-2.9,22.5c-0.5,10.3-0.7,20.5,0.1,30.8
			c0.6,7.7,4.7,14.1,6.9,21.3c0.7,2.3,0.7,4.5,0.3,7.1c-6.7,0-13.3,0-19.9,0c-1.4-1.3-0.4-3.2-1-4.7c-1.5-0.4-0.2,2.1-1.9,1.6
			c-1.5-0.3-0.5-1.9-1.1-2.7c-0.1-0.1-0.3-0.1-0.4-0.1c-0.1,0-0.2,0.2-0.4,0.3c-2-4.2-2-8.8-2.5-13.3c-1.4-11.1-4.5-21.7-6.9-32.6
			c-1.1-4.9-1.8-9.8-1.6-14.7c0.3-9-0.8-18.1,0.9-27.1c0.3-1.5-0.9-2.4-1.6-3.5C565.3,1076.2,562.6,1071.5,560.8,1066.2z"/>
		<path fill-rule="evenodd" clip-rule="evenodd" fill="#D24B29" d="M584.9,643.1c-1.3,0-2.6,0-3.2,0c-2.3,0.5-1.8,2.3-3.3,3
			c-16.9,7.3-33.8,14.7-50.7,22.1c-4.1,1.8-8.4,2.6-12.9,2.9c-1.3-8.9,3.5-14.7,9.8-19.8c5.5-4.5,11.3-8.7,14.2-16.3
			c-6.1-7.5-13.1-14.7-19.2-22.9c1.6-1.8,3.7-1.9,5.8-1.9c6.8,0.1,13.6-0.4,20.3,0.8c4.8,2.5,10.6,2.7,15.2,5.9
			C572.1,622.8,579.8,631.8,584.9,643.1z"/>
		<path fill-rule="evenodd" clip-rule="evenodd" fill="#D24B29" d="M413.8,660.1c10.8-12.6,21.5-25.2,33.2-36.9
			c3.9-3.8,7.8-7.8,13.7-8.7c7.5,2.2,10.6,6.7,11.4,14.6c1.1,11.8-4.5,20-12.2,28c-4.2,4.4-9,8.2-13,12.9c-3.6,4.3-8.2,8.1-13,11.4
			c-1.5-1.5-3.7-1.1-5.5-1.6c-2.2-7.1-8-11.8-11.2-18.2C415.7,662.2,414.5,661.7,413.8,660.1z"/>
		<path fill-rule="evenodd" clip-rule="evenodd" fill="#923836" d="M180.7,436.3c0.5-0.4,0.9-0.9,1.6-1.5c1.4-0.4,1.2,1.6,2.2,2
			c4-0.1,6.9-2.9,10.2-4.6c11-5.6,22.1-11.2,33-17c9.5-5,18.7-10.6,28.4-15.4c2.1-1,2.5-2.7,3.8-4.1c1,0.2,2,0.3,2.9,0.5
			c4.1,5.6,6.1,12,7,18.7c0.7,5.5-1.9,8.2-7.3,8.2c-16.9,0.1-31,7.3-44,17.2c-3.6,2.7-5.3,7.1-7.6,10.9c-1.9-0.2-3.5,0.7-5.1,1.6
			c-6,3.2-12,6.3-18,9.5C187.9,452.9,186.8,443.9,180.7,436.3z"/>
		<path fill-rule="evenodd" clip-rule="evenodd" fill="#562541" d="M560.6,734c1.8,3.4,4.7,2.2,6.8,0.9c6.3-3.8,13.5-5.6,20.1-8.8
			c0.6-0.3,1-0.8,1.5-1.2c1.6-0.1,3,0.5,3.9,1.8c2.9,4.1,6.6,7.7,9.4,12c7.3,11.2,11.2,23.6,13.8,36.4c1.1,5.4,2.3,11,1.3,16.7
			c-3.4,2.6-7.6,3.6-10.6,6.2c-4.8-1.6-6.7-4.2-7-9.7c-0.3-6.1-2.8-11.2-6.2-16.3c-7-10.7-17.3-17.7-26.7-25.8
			c-3.3-2.9-6.5-5.6-7.9-10.1C559,735.1,559.7,734.5,560.6,734z"/>
		<path fill-rule="evenodd" clip-rule="evenodd" fill="#923836" d="M355.1,498.1c-8.1,2-15.6,5.8-23.5,8.1c-2.6,0.7-4.3,3.7-7.5,2.7
			c0-12.8-0.2-25.5-0.1-38.3c0-6.9-1.7-13.4-4.6-19.6c-4.1-8.5-9-16.5-14.9-24c-1.4-1.8-2.5-3.9-3.7-5.8c0.2-0.2,1-0.1,0.4-0.8
			c-0.2,0.3-0.3,0.5-0.5,0.7c-0.8-0.3-1-0.9-0.9-1.6c2.9-3.2,7.2-4.2,10.6-6.5c4.2,2.5,7,6.5,9.7,10.3c4.7,6.5,9,13.5,12.6,20.8
			c4.3,8.7,7.8,17.9,11.5,26.9C347.9,480,351.5,489.1,355.1,498.1z"/>
		<path fill-rule="evenodd" clip-rule="evenodd" fill="#562541" d="M405.9,704.3c-1.2,2.5-3.6,3.7-5.8,5.1
			c-7.5,4.8-14.3,10.5-22.1,14.7c-4,2.2-8.2,3.9-12.3,5.7c-6.2-10.7-13.7-20.2-19.9-30.5c1.4-5.5,6.5-6.4,10.4-7.8
			c10.8-3.8,21.1-8.6,31.1-13.9c0.7-0.4,1.6-0.5,2.3-0.7c-0.7,3.4,1,6,3,8.5c2.5,3.1,4.5,6.4,6.6,9.7
			C401.5,698.4,403.8,701.3,405.9,704.3z"/>
		<path fill-rule="evenodd" clip-rule="evenodd" fill="#562541" d="M570.7,489.1c1.4,2.1,1.2,4.4,0.7,6.7
			c-1.1,5.5-3.7,10.5-5.9,15.6c-0.5,1.2-1.5,2.2-3.6,2.9c-19.1-5.7-38.8-11.4-58.3-17.9c-1.8-5.3,1.3-14.4,8-23.2
			c1.5,0.1,3.1-0.1,4.4,0.3c14.6,4.4,29.1,9.1,43.8,13.1C563.5,487.4,566.9,489.4,570.7,489.1z"/>
		<path fill-rule="evenodd" clip-rule="evenodd" fill="#D24B29" d="M528.6,450c2.8-3.7,6.3-6.7,10.1-9.5c9.2-6.8,18.7-13,30.9-12.5
			c4.6,0.2,9.3-0.5,13.8,0.9c2,0.6,3.7,1.4,5.1,3.2c0.9,2.5,0.1,4.9-1.2,7.3c-3,5.3-6.3,10.4-10.9,14.6c-2.3,2.1-4,4.8-5.9,7.3
			c-0.7,1-1.4,1.8-2.7,1.9c-1,0.1-1.9,0.2-3.2,0.3c-2.2-3.1-6.1-3.3-9.5-4.4c-8.5-2.6-17-4.8-25.5-7.3
			C528.9,451.7,528.8,450.8,528.6,450z"/>
		<path fill-rule="evenodd" clip-rule="evenodd" fill="#923836" d="M528.6,450c0.2,0.8,0.3,1.8,1.2,2c8.5,2.4,17.1,4.7,25.5,7.3
			c3.4,1,7.3,1.3,9.5,4.4c1.3-0.1,2.2-0.2,3.2-0.3c-1.4,5.7-2.4,11.4,0.6,17.1c0.9,1.7,0.9,3.8,1.3,5.7c0,0.6,0.3,0.9,0.8,1.2
			c0,0.6,0,1.2,0.1,1.9c-3.9,0.3-7.3-1.6-10.8-2.6c-14.7-4-29.2-8.7-43.8-13.1c-1.4-0.4-3-0.2-4.4-0.3
			C515.9,464.4,521.4,456.5,528.6,450z"/>
		<path fill-rule="evenodd" clip-rule="evenodd" fill="#562541" d="M502.3,595.1c1-0.1,2.1-0.1,2.4,1.1c2.1,8.4,7.1,15.1,12,22
			c0.4,0.5,0.5,1.2,1.1,2.5c-13.7,3.7-27.3,7-41.2,8.8c-4.3-10-3.3-19.6-1.9-29.3c2.7,0.5,4.9-1.2,7.4-1.8
			C488.8,596.9,495.6,596.1,502.3,595.1z"/>
		<path fill-rule="evenodd" clip-rule="evenodd" fill="#562541" d="M655.1,774c1.7,0,2.1,1.6,2.7,2.6c6.5,10,12,20.5,16.7,31.4
			c-1.1,1.5-2.4,1-3.6,0.6c-13-5.3-26.1-10.3-39.5-14.8c-0.4-0.1-0.8-0.6-1.1-0.8c-2.3-9.7-4.5-19.3-6.8-28.9
			c9.3,4.9,20,6.3,28.9,11.9C653.6,775.2,654.4,774.6,655.1,774z"/>
		<path fill-rule="evenodd" clip-rule="evenodd" fill="#923836" d="M308.2,456.1c3.9,7.9,7.5,15.9,7.5,24.9
			c-8.8,0.5-17.4-1.8-26.2-0.9c-5.9,0.6-11.7-2.2-17.6,0c0.2-3.9-1.3-7.7-1.1-11.7c0.2-4.6,0-9.1,1.6-13.5c7.7,0.4,15.5,0.2,23.2,1
			C299.7,456.4,304,454.8,308.2,456.1z"/>
		<path fill-rule="evenodd" clip-rule="evenodd" fill="#D24B29" d="M308.2,456.1c-4.2-1.3-8.5,0.3-12.6-0.2
			c-7.7-0.8-15.5-0.6-23.2-1c-0.2-7.9,0.7-15.8,1.8-23.6c0.7-5.5,1.6-11.1,2.8-16.5c0.6-2.9,1.4-6.1,4.9-8
			C292,422.7,300.8,439,308.2,456.1z"/>
		<path fill-rule="evenodd" clip-rule="evenodd" fill="#923836" d="M405.9,704.3c-2.2-3-4.5-5.9-6.5-9c-2.1-3.3-4.2-6.7-6.6-9.7
			c-2-2.4-3.7-5.1-3-8.5c8.6-4.8,16.6-10.5,24-17c0.7,1.6,1.9,2.1,3.5,1.5c3.2,6.4,9,11.1,11.2,18.2c1.8,0.5,3.9,0,5.5,1.6
			C425.3,689.8,416.2,697.8,405.9,704.3z"/>
		<path fill-rule="evenodd" clip-rule="evenodd" fill="#562541" d="M187.8,462.2c6-3.2,12-6.3,18-9.5c1.6-0.8,3.2-1.8,5.1-1.6
			c-1.8,8.7-1.2,17.3,1.2,25.9c1.2,4.2,2.1,8.7,1.6,13.7c-6.1,6.5-15.6,7.4-22.3,12.6c-1.9-1.2-2.2-2.8-2.2-3.9
			C189.2,487,187.5,474.6,187.8,462.2z"/>
		<path fill-rule="evenodd" clip-rule="evenodd" fill="#562541" d="M520.7,335.3c4.1,0.4,6.2-2.4,8.5-5.7
			c-4.1-5.4-10.1-7.2-16.1-9.4c2.8-0.6,5.4,0.2,7.9,1c2.6,0.8,4.7,3.1,7.7,2.8c2.6-2.1,1.8-5.4,3.1-7.9c4.4,1.3,7.6,4.4,11.1,7.1
			c6.7,5.1,13.2,10.5,17.9,17.9c-1.3,1.7-2.6,3.3-4,5c-3.6,0-5.8-2.3-8-4.5c-4.7-4.7-9.7-9-15.1-12.8c-0.9-0.7-2.3-2.9-3.9-0.4
			c0.2,0.2,0.4,0.4,0.6,0.6c1.5,0.5,2.4,1.7,3.5,2.8c9.2,9.3,18.5,18.5,27.7,27.8c-1,1.7-1.9,2.8-3.5,3.6c-3.5-0.9-6.9-3.1-10.5-3.8
			c-3.3-0.6-5.8-2-8.3-3.9c-1.8-1.3-3.3-2.7-4.2-4.7c-1.7-3.7-5.7-4.9-8.1-7.9C525,340.4,522.1,338.5,520.7,335.3z"/>
		<path fill-rule="evenodd" clip-rule="evenodd" fill="#562541" d="M593.9,569c-3.1,0.6-5-1.7-6.9-3.3c-2.9-2.5-6.1-4.5-9.5-6.3
			c-7.4-3.9-14.7-7.9-23.1-9.5c-5.7-1.1-11.3-2.2-16.9-1.5c-1.4,2.1-0.3,3.7,0.8,5.3c10.1,2,20.8,2.5,30.4,8.2
			c-2,3.7-3.9,7.4-5.9,11.2c-8.3-2.4-16.6-4.8-25.3-5.1c-1.3,0-2.5-0.7-3.8-1.1c0-3.9,2.7-7.2,3.2-11.1c-9.2-1.9-17.7,1.3-26.3,0.2
			c-1-1.4-1.5-2.9-1.8-5.1c9.8-5.4,21-2.3,31.3-5.1c0.9-0.6,1.2-2.3,2.9-2.5c14.1,2.4,28.1,5.6,39.7,14.9
			C586.7,561.3,591.7,563.8,593.9,569z"/>
		<path fill-rule="evenodd" clip-rule="evenodd" fill="#562541" d="M271.9,480.1c5.9-2.2,11.7,0.5,17.6,0c8.8-0.8,17.5,1.5,26.2,0.9
			c0.1,4.3,0.7,8.6-0.9,12.8c-0.7,1.9-1.4,3.7-3.1,4.8c-12.8-0.6-25.5-1.2-38.8-1.8C273.4,491.1,271.8,485.7,271.9,480.1z"/>
		<path fill-rule="evenodd" clip-rule="evenodd" fill="#562541" d="M572.3,894.7c-3.1-3-3.1-3.9-1.2-7.4c2.5-4.6,5.5-8.9,7.3-14
			c1.8-5,5.7-8.8,11.7-10.4c5.6,8.1,13.2,14.5,20.1,22.4C597.8,890.1,585,891.1,572.3,894.7z"/>
		<path fill-rule="evenodd" clip-rule="evenodd" fill="#923836" d="M655.1,774c-0.8,0.6-1.5,1.2-2.5,2c-8.8-5.6-19.6-6.9-28.9-11.9
			c-3.9-9.9-8.8-19.3-14.7-28.2c2.2,0.2,4.5-0.1,6.7,0.9c1.3,0.6,3,0.6,3.1-1.7c0.9,0.4,2,0.6,2.6,1.3c7.3,7.3,15,14.1,21.5,22
			c3.6,4.3,7.1,8.7,10.8,13C654.3,772.2,654.8,773.1,655.1,774z"/>
		<path fill-rule="evenodd" clip-rule="evenodd" fill="#562541" d="M766.4,844.1c-17.4-7.1-34.8-12.4-51.3-19.3
			c-0.1-1.9,0.9-2.5,2.1-2.6c6.6-0.5,13.1-1.7,19.6-2.3c5.4-0.5,10.6-2.2,15.8-3.9c2.3,1.7,3.6,4,4.6,6.4c1.7,4.2,4.2,7.8,6.6,11.6
			C765.9,836.8,767.4,840,766.4,844.1z"/>
		<path fill-rule="evenodd" clip-rule="evenodd" fill="#923836" d="M502.3,595.1c-6.7,1-13.5,1.8-20.1,3.3c-2.4,0.5-4.6,2.3-7.4,1.8
			c0-1,0.1-1.9,0.1-2.9c0.5-0.2,0.8-0.6,0.8-1.2c-0.3-5.8,2-11,3.8-16.2c2.1-5.9,7.3-7.9,14.2-7.5c1.5,0.1,2.9,0.6,4.5,1
			c1.5,5.9,3,11.9,4.5,17.8c0.1,0.3,0.2,0.7,0.3,1C502.8,593.2,502.5,594.1,502.3,595.1z"/>
		<path fill-rule="evenodd" clip-rule="evenodd" fill="#D24B29" d="M310.4,413.1c-3.4,2.3-7.7,3.4-10.6,6.5
			c-2.3-1.9-3.4-4.8-5.9-6.6c-0.3-0.3-0.6-0.6-0.9-0.9c-9.1-11.3-19.1-21.7-29.3-32.2c6.2,0.8,11,4.2,16,7.1
			c6.6,3.8,12.9,8,18.4,13.3C302.4,404.4,307,408.2,310.4,413.1z"/>
		<path fill-rule="evenodd" clip-rule="evenodd" fill="#923836" d="M501.8,431.1c-0.8-2.3-3.5-3.6-3.2-6.5c-4-1.6-6.6-5.4-10.9-6.6
			c0.6-1.5,1.1-3.1,1.9-5.2c5.5-2.2,11.4-4.6,17.2-6.9c0.6,3.1,3.3,4.4,5.5,6c1.6,1.2,4.1,1.6,4.5,4.2c-2.6,4.6-6.5,8-10.1,11.7
			C505.2,429.2,503.7,430.5,501.8,431.1z"/>
		<path fill-rule="evenodd" clip-rule="evenodd" fill="#562541" d="M207.7,544.9c0-2.6,0.9-4.9,2.3-6.9c1.5-2.2,2.4-4.6,3.1-7.1
			c5.5-2.1,10.7,0.2,16,0.9c3.6,0.4,7.2,1.1,9.8,4.3c-0.8,4.2-4.1,7-5.6,11C224.7,545.5,216.2,545,207.7,544.9z"/>
		<path fill-rule="evenodd" clip-rule="evenodd" fill="#562541" d="M679.9,739c2.3,0.3,3.9,1.7,5.6,3c6.1,4.5,12.1,9,18.2,13.6
			c3.2,2.4,4.6,6.5,8.1,8.4c-2,4.4-3.2,5.3-6.6,3.2c-5.7-3.6-11.3-7.4-16.4-11.8c-4-3.4-9.2-5.4-12-10.2c1.3-0.9,2.6-1.9,3.8-2.8
			C680.3,741.2,680.1,740.1,679.9,739z"/>
		<path fill-rule="evenodd" clip-rule="evenodd" fill="#562541" d="M516.7,416c-0.4-2.6-2.8-3-4.5-4.2c-2.2-1.7-4.9-2.9-5.5-6
			c0-1.1,0.6-1.9,1.4-2.5c3.3-3,6-6.5,8.6-10.3c6,1.4,9.2,6.1,13.4,10.5C526.6,408.7,521.2,411.9,516.7,416z"/>
		<path fill-rule="evenodd" clip-rule="evenodd" fill="#562541" d="M499.9,380.1c3-2.1,5.9-4.2,8.9-6.3c1.6-1.1,3.4-2.1,5.8-1.2
			c2,3,4.2,6.1,5.1,10.2c-2.4,5.5-5.5,10.6-12.1,12.3c-0.4-1.7-2.2-1.6-3.2-2.3c0-0.7,0.9-0.7,0.3-1.7
			C502.9,387.5,499.7,384.5,499.9,380.1z"/>
		<path fill-rule="evenodd" clip-rule="evenodd" fill="#923836" d="M679.9,739c0.2,1.1,0.4,2.2,0.7,3.4c-1.2,0.9-2.5,1.8-3.8,2.8
			c-4.1-1.6-6.9-5.1-10.4-7.5c-7.1-4.9-12.8-11.4-18.3-18c-0.6-0.8-1.3-1.5-1-3.2c2.7,0.8,4.7,2.7,6.9,4.2
			C662.6,726.8,671.2,732.9,679.9,739z"/>
		<path fill-rule="evenodd" clip-rule="evenodd" fill="#562541" d="M780.8,177.2c1.2-0.7,1.3-2.1,0.8-3c-1.4-2.2-0.1-4,0.2-6
			c4.9,0.4,5.3,0.6,6,5.3c1.5,9.4,1.9,18.8-2.1,27.8c-0.9,2-1.6,4-3.9,4.9c0-2.3-1.3-4.6-0.1-7c0.4-0.9,0.3-2.3-0.9-3
			c-0.4-2.8,1.9-4.8,2.1-7.5C783.2,184.6,781.8,180.9,780.8,177.2z"/>
		<path fill-rule="evenodd" clip-rule="evenodd" fill="#562541" d="M495.8,357.1c-0.4-3.5,3.1-3.7,4.9-6c-0.2-3.5,1.1-7.4-0.9-11.1
			c2.1-2.3,4.6-2.1,7.3-1.7c2.4,3.9,1.7,8,1.6,11.8c-1.6,1.5-3.5,0.5-5.1,1.3c-0.7,2.7,4.9,5,0.8,8.1c0.8,1.2,2.8,1.5,2.1,3.9
			c-2,2.8-6,0.7-8.6,3.1c-2.1-3.9-0.1-6.6,1-9.4c0.2-0.2,0.3-0.4,0.9-1c-0.7,0.6-0.8,0.7-1,0.9C497.8,357.1,496.8,357.1,495.8,357.1
			z"/>
		<path fill-rule="evenodd" clip-rule="evenodd" fill="#D24B29" d="M618.7,735.2c-0.1,2.3-1.8,2.3-3.1,1.7c-2.2-1-4.5-0.6-6.7-0.9
			c-4.7-5.4-9.3-10.8-14-16.1c-0.8-0.9-1.7-1.7-0.3-3.5C604.4,720.4,610.7,728.9,618.7,735.2z"/>
		<path fill-rule="evenodd" clip-rule="evenodd" fill="#923836" d="M499.9,380.1c-0.2,4.5,3,7.4,4.9,11c0.5,1-0.3,1-0.3,1.7
			c1,0.7,2.8,0.6,3.2,2.3c-3.4,2.2-7,3.3-11.3,1.6c-2.1-4.9-2.8-10.3-3.7-15.8C495.4,379.7,497.7,380.3,499.9,380.1z"/>
		<path fill-rule="evenodd" clip-rule="evenodd" fill="#923836" d="M763.8,207c1.4-2.6,2.5-5.2,1-8.4c-1.2-2.4-0.5-5.1-0.1-7.6
			c0.2-2.6,2.3-2.8,4.7-4c0.1,7.8,1.9,14.9,2.3,22.1l0,0c-2.8-0.1-3.1,2.3-4,4l0,0c-0.5-0.2-1.1-0.5-1.5-0.7
			c-0.6,0.5-0.6,1.1-0.5,1.7l0,0c-0.8-0.1-1.7-0.1-2.4-0.3c-0.6-0.2-1.1-0.7-1.2-0.7C761.7,210.3,764.7,209.3,763.8,207z"/>
		<path fill-rule="evenodd" clip-rule="evenodd" fill="#923836" d="M780.8,196.1c1.2,0.7,1.4,2.1,0.9,3c-1.2,2.4,0.1,4.7,0.1,7
			c-0.1,2.6-2.4,3.2-3.9,4.6c-3.4,3-7.7,4.1-11.1,6.4c-1.4-1-0.8-2.1-1-3l0,0c1,0.2,1.7,0,2-1l0,0c2.4-0.3,4-1.4,4-4l0,0
			c3.3-0.5,3.9-3.6,5.3-5.7C778.6,201.2,779.6,198.6,780.8,196.1z"/>
		<path fill-rule="evenodd" clip-rule="evenodd" fill="#D24B29" d="M563.9,372.1c-1.1-1.8-1.6-4.2-5.1-4.5c-2.6,0.4-5.4,2.5-8.6,3.7
			c1.9-4,5.5-6.4,9.3-6.2c3.7,0.2,6.3,2.7,7,7.1c0.2,1.6,0,3.3-0.1,5c-1,0.5-0.5,1.7-1.2,2.4c-0.4-0.8-0.7-1.6-1.1-2.4
			c0-1,0-1.9-0.1-2.9C565,373.4,564.9,372.7,563.9,372.1z"/>
		<path fill-rule="evenodd" clip-rule="evenodd" fill="#923836" d="M233.2,447.2c6.4-5.9,12.9-7.1,16.9-3.2
			C244.7,446,239.4,446,233.2,447.2z"/>
		<path fill-rule="evenodd" clip-rule="evenodd" fill="#562541" d="M556.3,373.6c5.2,1.9,2.9,6.2,3.5,9.7c-2.2,2.1-3.4,5.5-7.9,4.5
			c1.7-2.3,3.2-4.3,4.7-6.2C556.9,378.9,557,376.3,556.3,373.6z"/>
		<path fill-rule="evenodd" clip-rule="evenodd" fill="#923836" d="M564.3,377.1c0.4,0.8,0.7,1.6,1.1,2.4c0.7-0.7,0.2-1.9,1.2-2.4
			c0.3,5.8-2.8,9.9-6,13.6c-1.5,0-2-0.6-2.5-1.8C561.4,385.9,563.2,381.7,564.3,377.1z"/>
		<path fill-rule="evenodd" clip-rule="evenodd" fill="#562541" d="M487.7,400c0-1.9,0-3.8,0-5.7c2.1-0.3,4-0.2,5.8,1.5
			c0.6,1,0.4,2.3,0,3.7C491.6,400.6,489.6,400,487.7,400z"/>
		<path fill-rule="evenodd" clip-rule="evenodd" fill="#562541" d="M560.9,617c-4.6-3.3-10.3-3.4-15.2-5.9c0-0.3,0-0.6,0.1-0.9
			c6.2,0.5,11.6,3.3,17.1,6C562.2,616.2,561.3,616.1,560.9,617z"/>
		<path fill-rule="evenodd" clip-rule="evenodd" fill="#923836" d="M571.9,1313c0.2,0.3,0.3,0.6,0.2,0.9c-2.4,0.9-4.5,1.2-5.3-2
			C568.5,1312.1,570,1313.4,571.9,1313z"/>
		<path fill-rule="evenodd" clip-rule="evenodd" fill="#562541" d="M757.9,253.2c0-1.4-0.7-3,0.9-4.1
			C758.6,250.5,759.4,252.1,757.9,253.2z"/>
		<path fill-rule="evenodd" clip-rule="evenodd" fill="#562541" d="M737.8,1377.1c0.9-0.2,1.7-0.1,2.2,0.8c-0.4,0.2-0.9,0.4-1.4,0.7
			C737.7,1378.5,737.9,1377.7,737.8,1377.1z"/>
		<path fill-rule="evenodd" clip-rule="evenodd" fill="#562541" d="M488,503.2c-0.1-0.9-0.1-1.6,0.9-2
			C488.9,502,488.8,502.8,488,503.2z"/>
		<path fill-rule="evenodd" clip-rule="evenodd" fill="#923836" d="M563.9,372.1c1,0.6,1,1.3,0.3,2.1
			C564.1,373.5,564,372.8,563.9,372.1z"/>
		<path fill-rule="evenodd" clip-rule="evenodd" fill="#923836" d="M432.2,1303c0.7,0.7,0.7,1.5,0.3,2.3
			C431.8,1304.6,431.8,1303.8,432.2,1303z"/>
		<path fill-rule="evenodd" clip-rule="evenodd" fill="#923836" d="M296.9,388.1c0.8,0,1.5,0,2,0.8C298,389.1,297.3,389,296.9,388.1
			z"/>
		<path fill-rule="evenodd" clip-rule="evenodd" fill="#562541" d="M740.8,1378.1c0.8-0.1,1.5,0.1,2,0.9
			C742,1379.1,741.2,1379,740.8,1378.1z"/>
		<path fill-rule="evenodd" clip-rule="evenodd" fill="#923836" d="M495.9,487.2c-0.1-0.9-0.1-1.8,1.1-2
			C496.9,486.1,496.8,486.8,495.9,487.2z"/>
		<path fill-rule="evenodd" clip-rule="evenodd" fill="#562541" d="M234.8,323.2c0.6,0.1,0.9,0.4,1,1
			C235.3,324.1,234.9,323.7,234.8,323.2z"/>
		<path fill-rule="evenodd" clip-rule="evenodd" fill="#923836" d="M530.6,329.1c-0.2-0.2-0.5-0.4-0.6-0.6
			C530.3,328.5,530.5,328.7,530.6,329.1z"/>
		<path fill-rule="evenodd" clip-rule="evenodd" fill="#562541" d="M475.7,596c0,0.6-0.3,0.9-0.8,1.2
			C474.9,596.6,475.2,596.3,475.7,596z"/>
		<path fill-rule="evenodd" clip-rule="evenodd" fill="#562541" d="M223.7,319.2c-0.3-0.1-0.6-0.1-1-0.1c0.3-0.4,0.5-0.8,0.8-1.3
			C223.6,318.3,223.7,318.8,223.7,319.2z"/>
		<path fill-rule="evenodd" clip-rule="evenodd" fill="#562541" d="M503,592.2c-0.1-0.3-0.2-0.7-0.3-1
			C503.6,591.3,503.7,591.7,503,592.2z"/>
		<path fill-rule="evenodd" clip-rule="evenodd" fill="#923836" d="M293,412.1c0.3,0.3,0.6,0.6,0.9,0.9
			C293.3,413,293,412.7,293,412.1z"/>
		<path fill-rule="evenodd" clip-rule="evenodd" fill="#562541" d="M570.7,487.2c-0.5-0.2-0.8-0.6-0.8-1.2
			C570.4,486.3,570.7,486.6,570.7,487.2z"/>
		<path fill-rule="evenodd" clip-rule="evenodd" fill="#D24B29" d="M870.6,1245.9c-0.9,0-1.6-0.2-1.7-1.3c-0.1-1.4,0.8-1.6,1.9-1.6
			C870.7,1244,870.6,1245,870.6,1245.9z"/>
		<path fill-rule="evenodd" clip-rule="evenodd" fill="#1D174D" d="M620.8,674.1c0.6,0.3,0.9,0.7,0.8,1.4
			C620.5,675.3,620.9,674.6,620.8,674.1L620.8,674.1z"/>
		<path fill-rule="evenodd" clip-rule="evenodd" fill="#1D174D" d="M620.8,674.1c-0.2-0.1-0.3-0.3-0.2-0.1
			C620.5,673.8,620.6,673.9,620.8,674.1L620.8,674.1z"/>
		<path fill-rule="evenodd" clip-rule="evenodd" fill="#1D174D" d="M526.3,312.7c-0.5,0.5-1.1,0.5-1.8,0
			C525.1,312,525.7,312.1,526.3,312.7z"/>
		<path fill-rule="evenodd" clip-rule="evenodd" fill="#562541" d="M547.8,311.2c-0.7,0-1.5-0.1-2.4-0.1
			C546.5,309.7,547.2,310.1,547.8,311.2L547.8,311.2z"/>
		<path fill-rule="evenodd" clip-rule="evenodd" fill="#562541" d="M491.8,343.2c-0.3,0.6-0.7,1-1.4,0.6
			C490.5,342.9,491.3,343.2,491.8,343.2L491.8,343.2z"/>
		<path fill-rule="evenodd" clip-rule="evenodd" fill="#1D174D" d="M495.9,341.2c-0.5-1-0.5-1,1-1.1
			C496.5,340.5,496.2,340.9,495.9,341.2z"/>
		<path fill-rule="evenodd" clip-rule="evenodd" fill="#1D174D" d="M554.8,316.1c-0.2-0.1-0.4-0.3-0.2-0.1
			C554.5,315.8,554.6,316,554.8,316.1L554.8,316.1z"/>
		<path fill-rule="evenodd" clip-rule="evenodd" fill="#1D174D" d="M453.9,1053.1c0.6-6.1,3.3-11.7,5.4-17.4
			c2.4-6.6,5.4-13.2,9-19.3c0.7-1.2,1.2-2.8,2.8-3.2c-0.8,4.9-3.4,9.3-5.2,13.8c-3,7.8-6.4,15.5-9.7,23.3
			C455.7,1051.4,455.7,1053.1,453.9,1053.1z"/>
		<path fill-rule="evenodd" clip-rule="evenodd" fill="#1D174D" d="M471,1013.2c-0.2-1.7,0.9-2.8,1.7-4
			C472.6,1010.7,472.3,1012.2,471,1013.2z"/>
		<path fill-rule="evenodd" clip-rule="evenodd" fill="#1D174D" d="M571.8,667.1c-0.4-0.1-0.6-0.3-0.5-0.5
			C571.7,666.5,571.8,666.7,571.8,667.1L571.8,667.1z"/>
		<path fill-rule="evenodd" clip-rule="evenodd" fill="#562541" d="M439.8,999c0.2,0.2,0.4,0.3,0.2,0.2
			C440.1,999.4,439.9,999.2,439.8,999L439.8,999z"/>
		<path fill-rule="evenodd" clip-rule="evenodd" fill="#D24B29" d="M300.7,421.2c0.1-0.2,0.3-0.5,0.5-0.7
			C301.7,421.2,300.9,421,300.7,421.2L300.7,421.2z"/>
		<path fill-rule="evenodd" clip-rule="evenodd" fill="#1D174D" d="M498.8,357.1c0.2-0.2,0.4-0.3,1-0.9c-0.6,0.7-0.7,0.8-0.9,1
			L498.8,357.1z"/>
		<path fill-rule="evenodd" clip-rule="evenodd" fill="#1D174D" d="M771.8,209.1c0,2.7-1.6,3.8-4,4
			C768.7,211.4,769,209.1,771.8,209.1z"/>
		<path fill-rule="evenodd" clip-rule="evenodd" fill="#1D174D" d="M767.8,213.1c-0.3,1-1.1,1.3-2,1c-0.1-0.6-0.1-1.2,0.5-1.7
			C766.8,212.7,767.3,212.9,767.8,213.1z"/>
	</g>
</g>
</svg>
