<?xml version="1.0" encoding="utf-8"?>

<!DOCTYPE svg PUBLIC "-//W3C//DTD SVG 1.1//EN" "http://www.w3.org/Graphics/SVG/1.1/DTD/svg11.dtd">
<svg version="1.1" id="Layer_1" xmlns="http://www.w3.org/2000/svg" xmlns:xlink="http://www.w3.org/1999/xlink" x="0px" y="0px"
	  viewBox="0 0 1202.2 1064.4" xml:space="preserve">
<path fill-rule="evenodd" clip-rule="evenodd" d="M1.8,728.9c0-1.8,0-3.6,0-5.4c6.7-3.2,12.8-7.7,19.6-8.4c4-4.6,4.4-9.6,6.5-13.9
	c4.2-8.6,13.1-12.2,18-19.8c3.6-5.7,8.8-9.7,15.7-11.4c2.9-0.7,5.3-2.7,7.2-5.2c2.2-2.9,5.1-4.9,8-7.1c7-5.1,14-10.4,19.2-17.7
	c5.9-8.3,14-14.7,20.7-22.4c7.7-8.8,14.7-18.2,22.2-27.1c3.6-4.2,6.2-9.7,7.5-15.3c2.9-12.4,7-24.1,14-34.8c1.3-2,2.1-4.4,2.5-6.7
	c4.4-24.9,11.6-49,18.9-73.1c3.9-12.8,11.2-24.1,20-33.7c8.3-9.2,19.5-15.2,31.1-20.8c13.6-6.6,27.3-9.2,41.9-8.6
	c6.9,0.3,14,0.1,20.4,2.9c7.4,3.3,15.3,5.3,23.1,7c5.2,1.1,11.1,2.4,16.2,0.7c3.4-3.8,0-9.2,4.1-12.1c6.9-2.5,12,1.6,17.1,4.9
	c7.4-3.8,16.3-3.9,21.5-11c-5.1-9.9-5.1-10.1,1.4-16.2c7-1.5,8.5,4.4,11.4,8.3c8.7,2.3,16-1.8,23.8-4.2c1.2-2.1,2.4-4.1,3.7-6.2
	c-1.8-3.6-3.8-7.1-0.6-11.3c2.8-1.4,5.5-4.1,9.4-2.6c4.1,2.7,3.7,8.4,8.6,11.8c7.8-0.3,16.6,0.4,24.3-5.1
	c-0.2-6.4-2.1-12.5,4.4-16.2c3.3,1.4,7,1.7,9.5,5.6c0.5,3.5,0,8.1,5.5,10.5c7.9,0.6,16.6,2.1,23.8-4.2c0-3.6,0-6.6,0-10.2
	c2-1.4,2.6-4.9,5.9-5.3c3.4,0.2,4.9,2.5,6.4,4.4c1.1,3.7-0.3,7.5,1.1,10.9c8.6,2.3,21.2,2.1,30.6-0.5c-3.3-23,4.9-44,13.1-65.6
	c-1.8-8.4-4.8-17.3-5.8-26.5c-0.4-4.2-2.5-7.6-4.6-11.3c-2.9-5.1-7.1-8.9-10.1-13.8c-1.3-8.2,1-16.4-1.3-25
	c-2.4-8.9-11.4-13-12.7-21.5c3.3-4.3,8.7-5.2,11.2-9.7c-4.8-10,4.1-15.2,7.9-22.8c-1.3-12.7,6.1-22.7,12.6-34
	c0.2-6.8,2.2-14,4.7-20.5c3.6-3.8,7.9-4.2,11.7-4.9c2.2,0.7,3.6,2.7,6,2.6c3.4-1.2,6.7-2.4,9.8-3.4c2.7-4,3.8-8,4.1-12.9
	c-4.8-9.1-9.8-18.7-15.7-29.8c-1.6,11.8,4,19.8,6.4,28.3c-10.1,7.6-16.5,7.9-26.2,1.1c5.3-20.8,1.8-42.3,3.3-64.4
	c-6.3,1.9-11-0.8-15.7,0.6c-3.8,3.6-8.1,5.7-13.7,5.2c-1.1-5.8-2.4-11.3-3.1-16.8c-0.5-4-2.7-8.1-0.7-12.3c1.8,0,3.6,0,5.4,0
	c2.4,2.4,5.2,4.1,8.7,3.7c9.4-1.1,17.1,2.2,22.8,9c4.8,0.8,8.9,0.5,13.1-0.5c10.2-2.6,20.9-1.9,31.3-2.4c10.8-0.5,21.7,3.4,32.7,4.6
	c5.2,0.6,9.3,2.8,13,5.8c6.1,5,11.8,10.5,17.3,15.4c1.4,5.5,0.7,10.1-1.4,14.3c1.3,4.4,4,8.3,3.5,12.4c-0.9,7.3,2.1,13.6,4.1,20.1
	c0.6,2,2,3.8,1.4,6.9c-5.7,8.7-9.7,18.3-3.6,29.5c1.3,2.5,0.6,6-2.2,8.1c-5.2,1.6-10,0.2-14.4-2c-1.7,2.3-1.5,4.3-0.6,7
	c11,6,18.3,15.6,23.7,27.5c5.5,12.3,8.7,24.7,8.3,38.2c-0.1,2.4-2.4,4.1-1.3,6.8c3.4,7.9-0.4,13.9-5.9,19.1
	c0.1,3.7-1.9,7.2,1.2,11.6c6.4,0.4,13.6,0.9,19,5c3.6,4.2,4.8,8.8,5.7,13c3.7,1.5,7.3-0.4,10.3,1.8c2.7,3.2,0.7,8.8,6.6,11.3
	c3.7,0.9,8.4,1.2,11.1-1.1c3.4-11.8,5.8-22.4,12.8-30.6c6.2-1.1,11.3,1.2,16.1,1.4c5.5,4.5,6.4,12.5,14.7,14.6
	c8.5,0.8,17.3-2.1,25.2-6.1c17.6-8.7,37.4-10.8,54.9-19.7c10.1-5.1,21.7-6.6,32-11.7c12.7-6.3,26.8-8.7,39.6-14.9
	c12.9-6.3,26-12.2,38.9-18.6c9.8-4.9,17.9-11.3,26.1-18.2c4.2-3.6,8.1-8.7,14.6-8.9c4.6,7.3-4.9,11.1-4.3,17.7
	c14.1-1.3,27.6-3.9,41.3-1.4c13.2,2.5,26.9,1.3,40,5.4c12.9,4,25.9,6.3,39.7,4c7.2-1.2,11.3-4,14.2-10.3c3.6-7.7,9.1-14.4,10.4-22.5
	c6.6-1.2,8.3,2.1,8.4,6.5c0.2,6.6,0.9,13.4-0.2,19.9c-1.3,7.7,1.3,13.1,6.2,18.4c7.8,8.3,12.7,18.7,14.7,29.4
	c2.4,13.2,4.3,26.8,2.8,40.4c-0.5,4.9-0.1,9.8,2.1,14.1c3.9,7.5,5.7,15.7,8.1,23.6c3.7,12,7.8,24,6.2,36.9c-0.4,3.3,0.6,6.6,1.9,9.7
	c0,8.5,0,16.9,0,25.4c-7.5,10.3-14.1,21.2-21.1,28.5c-9.9,5.5-14-3.6-20.7-3.2c-6.7,2.6-11.1,10.5-20.7,8.6c-3-5.7-11.8-4.5-15.2-12
	c-0.6-2.4,0.4-6.1-3-8.9c-8.4-0.9-17.1-3.5-26.3-1.4c-0.2,3.7,0.3,7,0.6,10.3c1.3,13.2,4.6,26,6.5,39.1c1.8,12.9-6.1,19.8-19.8,17.9
	c-2.2-3.6-2.5-7.6-2.2-11.9c0.3-4.6-1.3-8.4-6.9-7.8c-2,1-3.3,2.3-4,4c-4.5,10.7-11.7,19.4-19.2,28.1c-10.1,11.7-30.1,16.9-43.8,9.9
	c-2.9-1.5-5.4-2.4-8.7-0.8c-2.4,9.9,1,19.5,2.5,29.2c0.9,5.7,4,8.6,9.4,10.8c17.7,7.4,35.4,14.7,52.5,23.2
	c10.3,5.1,20.9,7.5,31.9,8.7c10.4,1.1,23.2,11.1,24.4,21.4c1.5,12.3-1.6,24.5-3,36.7c-0.2,2-1.2,4.1-2.2,5.9
	c-6.3,11.1-10,23.2-14.2,35c-4.2,11.6-8.4,23.2-14,34.2c-3.4,6.7-7,13.5-6.6,21.3c0.8,14-8.4,20.9-18.4,27.4c-2,1.3-4.3,2.3-6.2,3.7
	c-4.9,3.6-10.4,7.1-12,13.1c-1.9,7-7,12.4-7.8,19.6c-13.8,7.6-25,18.1-36.5,26.1c-6.7-0.9-5.9-5.3-6.3-8.6
	c-1.9-14.3-3.1-28.7-5.4-43c-0.9-5.5-1.4-10.6-0.1-16.6c11.6-6.2,27.6-3.6,37.1-15.3c-3.1-3.9-7.4-1.7-9.6-4.2c-1.9-3.1-0.8-6,1-7.8
	c6.2-6.1,10.7-14.1,18.8-18c7.5-3.6,13.2-9.8,16-16.6c7.4-17.9,16.8-35.3,18.3-55.2c0.4-4.7,0.3-9-2.1-12.9
	c-8.1-4-70.5-3.1-88.7,1.2c-4.7,6.2-10.2,11.7-13.4,19c-0.8,1.8-2.7,3.2-4.3,4.6c-9.2,7.6-15.4,16-17.1,29
	c-2.4,18.4-3.3,36.5-2.3,55.1c4.3,4.2,6,9.6,6.6,15.4c0.6,6.3,1.6,12.5,3.4,18.6c0.9,3.1,1,6.8,0.2,9.9c-3.2,11.9-0.4,23.2,2.6,34.6
	c3,11.3,5.6,22.7,8.8,33.9c3,10.5,4.2,21.7,14.1,29.4c5.6,4.4,8.4,11.2,9.8,18.8c1.5,8.4,5.7,15.9,14.4,19.5c2,0.8,4,1.8,5,3.8
	c3.3,6.3,9.1,7.5,15.3,7.7c12.1,0.3,24.2,0.7,36.2-0.8c7.8-1,15.7-0.9,23.5-1c5.2,0,9,2.1,12.8,5.6c3.7,3.4,4.4,8.6,7.9,11.9
	c3.3,1.3,6.6,1,9.9,1c12.1-0.1,24.2-0.2,36.3-0.2c11.3,0,15.7,4.6,16,16c0.1,4.2-0.7,8.7,0.3,12.6c2.2,8.6,2.1,16.6-2.2,24.3
	c8.3,23.7,12,47.8,12,71.5c10.7,10.3,9.1,22.6,10.1,34.3c-378.7,0-756.8,0-1135.1,0c-0.2-11.9,0.9-23,1.1-34.1
	c0.2-12.7,7.6-21.7,22.6-20.2c3.8,0.4,6.5-0.5,8.9-4.8c0-3.9-0.3-8.7,0.1-13.5c0.7-7.8-1.5-13.9-7.5-19.3
	c-6.4-5.8-9.9-13.3-9.1-22.6c0.6-6.9,0.3-13.9,0.3-20.8c0-4,0.3-7.9,3.6-11.4c7.6-4.7,16.8-4.6,25.6-4.1c13.7,0.9,27-0.4,40.4-3.2
	c1.5-3.5,2.8-7.2,4.5-10.7c3.7-7.5,9.5-11.3,18.2-10.5c6.3,0.6,12.7,0.4,19,0.5c7,0.1,13.9,0,19-4.4c9.3,1.2,17,8.7,26.8,3.1
	c-0.2-4.7,4.4-8.7,1.3-13.7c-2-2.6-6-1.5-8.5-5.2c-1.8-7.5-1.2-15.6,3.2-23.4c7.2-12.5,12.7-25.9,17.5-39.4
	c8-22.6,16.5-45.1,20.4-69c2.3-14,5.1-27.9,1.1-42c-0.6-2.2-1.4-4.2-0.7-6.9c2.2-8.1,6.5-12.3,17.1-13.2c9.2-0.8,15.7-5.6,21.5-11.9
	c3.5-3.8,6.8-7.7,10-11.7c12.1-15,22.4-31.2,28.7-49.2c-0.2-4.5-2.8-7.7-3.9-11.5c-7.3-24.2-13.5-48.5-15.6-73.9
	c-1.4-16.9,0-32.9,5.3-48.8c1.9-5.7,3.9-11.4,2.8-17.4c-3.3-3.9-7.3-5.6-12.2-4.9c-12.9,1.8-24,7.2-31.5,18.1
	c-3.9,5.7-7.3,11.8-10.2,18.1c-3.7,7.9-7.3,15.9-9.2,24.5c-1.1,4.7-1,9.5-1.8,14.3c-3.4,18.2-14.1,33.6-18.7,51.3
	c-0.9,3.4-1.1,7.1-2.9,10.3c-8.7,15.7-14.6,32.7-24.3,48.2c-9.9,15.8-24,26.6-36.9,38.8c-7.7,7.4-17.6,12.4-26.6,18.5
	c-15,10.2-30.8,18.7-47.4,25.8c-17.5,7.5-35.8,12.4-53.7,18.3C32,739,15.6,743.1,1.8,728.9z M747.6,612.9c-12.3-0.2-24.1,1.4-36,1.5
	c-18.4,0.2-36.8,1.7-55.2,1.8c-28.9,0.3-56.4-5.9-83.7-14.6c-7.5-2.4-15.3-4.5-23.2-6.8c-9.8,15-19.8,29.1-30.6,42.8
	c-8.5,10.8-15.1,23.1-22.9,34.4c-10.4,15-11.3,30.4-4,46c4.5,9.6,10.9,18.6,18.7,26.4c6.8,6.8,13.1,14.1,19.4,21.3
	c7.5,8.6,16.3,15.6,24.4,23.3c6.7,6.4,15.2,9.6,23.3,13.6c8,4,11.9,10.7,13.6,19.1c0.5,2.7,0.6,5.4,1.3,8c1.8,6.7,3.8,13.3,9.5,18.1
	c6.1,5.1,10.1,11.7,12.5,19.3c1.2,4,2.1,8.2,5,11.7c4.4,2.2,10,2.8,12.7,7.8c3.6,6.7,9.3,7.4,16,7.6c17.6,0.4,35-2,52.5-2.1
	c42.3-0.1,84.5-0.1,126.8-0.5c10.6-0.1,21.2,1.1,31.7,0.1c22.3-2,44.6-1.3,67-1c5.3,0.1,10.8,0.2,16.8-1.5
	c-3.9-11.7-6.7-23.3-5.7-35.4c0.1-0.8-0.3-1.8-0.6-2.6c-6.3-16.9-12.4-33.8-17.9-51c-3.4-10.5-7.9-20.7-10.2-31.5
	c-1.3-6-2.6-12-6.1-16.8c-6.9-9.3-8.7-19.7-8.5-30.7c0.1-6.3-1.6-12.6-4.9-17c-4.6-6.1-7.5-12.9-11.2-19.4
	c-5.2-9.1-12.3-17-15.6-27.2c-1.8-5.6-6.9-7.4-11.8-8.9c-8.3-2.5-16.7-4.8-24-9.2c-5.2,1.8-9.9,1.4-15.6-0.2
	c-10.7,9.8-24.4,14.8-39.1,20.3c-10.7-7.3-10.2-22.2-19.2-31.1C753.5,622.8,750.9,618.1,747.6,612.9z M549.9,855.5
	c-6.3-8.7-9.6-18.4-14.6-27.2c-9.4-16.2-24.1-26.8-37.6-38.4c-8-6.9-15.8-14.3-24.5-20.7c-13.5-9.9-26.1-21.2-41-29.9
	c-6.1-9.7-17.4-15-23.9-25.3c-1.1-4.1,0-8,3-11.4c4.1-4.7,5-10.8,6.9-16.4c1.1-3.1,1.5-6.6-2.1-8.9c-12.6,7-25.8,12.8-39.3,17.8
	c-16.1,6-30.7,13.9-39.7,29.5c-1.4,2.4-3.7,3.9-5.9,5.5c-7.1,5.1-14.5,10.1-20,16.8c-11,13.4-20.9,27.7-27.3,44.1
	c-1.6,4.2-2.9,8.6-5,12.5c-6.4,12-10,24.5-8.9,38.1c0.5,5.8-0.9,11.2-2.7,16.8c-1.9,6-7.8,9.2-9.3,15.8c2.3,5.4,9.1,8.5,9.2,14.8
	c2.6,1.9,4.7,2.9,7.3,2.9c25.6,0.5,51.3,0.6,76.9,0.6c29.6-0.1,59.2-1,88.7,0c35.6,1.3,71.1,1,106.7,1.6c5.7,0.1,10.6-1.4,14.3-5.4
	c2.3-4.6-0.1-8.6-0.7-12.5c8-14,7.1-22.9-2.9-27.7C556.3,851.9,553.9,854,549.9,855.5z M790.2,303c-5.3-0.6-9.6-2.4-13.8-5
	c-6.6-4.2-13.5-4.2-19.1,1.1c-6.4,6.1-12.3,12.3-21.1,12.4c-2.2,3.5-3.8,6-5.3,8.6c-6.5,5.7-16.9,5.1-21.9,12.5
	c0.5,13.1,4.7,22.9,17.9,26.5c3.6,1,5.3,3.9,7,6.7c1.8,2.9,2.9,6.2,5.5,9.2c0.8-4.9,5.5-1.8,8.3-5.6c6.2-6.4,12.7-15.1,23.2-18.1
	c8.5-2.4,16-6.9,23.9-8.7c5-5.9,6.3-13,10.1-18.6c7.6-0.4,7.6-0.4,13.4-8.8c-7.9-5-16.9-6.1-25.6-7.8
	C790.9,306.7,790.7,305.2,790.2,303z M1005.7,436.3c13,4.8,31.5-5.5,36.6-14.4c7.9-13.8,11.7-29.3,18.6-43.5
	c0.3-0.6-0.4-1.6-0.6-2.7c-13.6-1.6-26.8-5.3-41.4-5.9C1013.8,392.3,1008,414.1,1005.7,436.3z M837.5,290.1
	c9.3-13.1,19.7-24.8,30.3-36.8c-4.7-2.2-7.5-0.1-10.1,0.9c-14.5,5.7-29.1,10.7-44.1,15.1c-10.6,3.1-23.4,5.1-27.6,18.6
	C798.3,292.3,824.1,293.6,837.5,290.1z M1061.9,302.5c-12.7,4.5-25.6,8.1-30.4,23.6c20.3,8.7,41.3,15.1,63.2,20.2
	c1.1-2.1,2.7-3.6,2.3-6c-9-10.8-23-17.5-26.6-32.3C1067.8,305.7,1065.4,304,1061.9,302.5z M1072.8,365c2.9-3.1,7.4-3.9,6.1-9.2
	c-14.9-3.8-29.3-9.5-43.9-14.7c-3.3-1.2-6.9-2.3-10.6,0.3c-0.5,4.7-3.5,9.4-0.9,15.4C1039.7,359.2,1055.8,363.8,1072.8,365z
	 M1158,1003.2c2-7.8,0.3-14.5-4.3-20.9c-8.6,7.6-9.6,13-4.2,21.7C1152.1,1004.9,1154.7,1005.1,1158,1003.2z M749.4,264.4
	c11.5-5.4,13.6-9.5,11.2-21.2C753,244.5,748.5,252.6,749.4,264.4z"/>
<path fill-rule="evenodd" clip-rule="evenodd" fill="none" d="M527.7,1.8c-2,4.2,0.1,8.2,0.7,12.3c0.7,5.6,2,11.1,3.1,16.8
	c5.6,0.5,9.9-1.6,13.7-5.2c4.7-1.4,9.4,1.3,15.7-0.6c-1.5,22.2,2,43.6-3.3,64.4c9.7,6.9,16.1,6.6,26.2-1.1
	c-2.4-8.5-8.1-16.5-6.4-28.3c5.9,11.2,10.9,20.7,15.7,29.8c-0.3,4.9-1.4,9-4.1,12.9c-3.1,1.1-6.5,2.3-9.8,3.4
	c-2.4,0.1-3.8-1.9-6-2.6c-3.9,0.7-8.1,1.1-11.7,4.9c-2.5,6.5-4.6,13.7-4.7,20.5c-6.5,11.3-13.9,21.3-12.6,34
	c-3.8,7.6-12.8,12.8-7.9,22.8c-2.5,4.5-7.9,5.4-11.2,9.7c1.3,8.6,10.4,12.6,12.7,21.5c2.3,8.6,0,16.7,1.3,25
	c3,4.9,7.2,8.7,10.1,13.8c2.1,3.7,4.1,7.1,4.6,11.3c1,9.2,4,18.1,5.8,26.5c-8.3,21.7-16.5,42.6-13.1,65.6c-9.4,2.6-22,2.8-30.6,0.5
	c-1.4-3.4,0-7.1-1.1-10.9c-1.5-1.9-3-4.2-6.4-4.4c-3.3,0.4-3.9,3.8-5.9,5.3c0,3.6,0,6.6,0,10.2c-7.2,6.3-15.9,4.9-23.8,4.2
	c-5.5-2.3-5-7-5.5-10.5c-2.5-3.9-6.3-4.2-9.5-5.6c-6.5,3.6-4.6,9.8-4.4,16.2c-7.7,5.4-16.5,4.8-24.3,5.1c-4.9-3.4-4.5-9.1-8.6-11.8
	c-3.9-1.5-6.6,1.2-9.4,2.6c-3.2,4.2-1.2,7.7,0.6,11.3c-1.3,2.1-2.4,4.1-3.7,6.2c-7.8,2.4-15.1,6.5-23.8,4.2
	c-2.9-3.9-4.4-9.8-11.4-8.3c-6.5,6-6.5,6.2-1.4,16.2c-5.2,7.1-14,7.2-21.5,11c-5.1-3.3-10.3-7.4-17.1-4.9c-4.1,3-0.6,8.3-4.1,12.1
	c-5.1,1.8-11,0.5-16.2-0.7c-7.8-1.7-15.6-3.8-23.1-7c-6.4-2.8-13.6-2.6-20.4-2.9c-14.6-0.7-28.3,2-41.9,8.6
	c-11.5,5.6-22.7,11.6-31.1,20.8c-8.7,9.6-16.1,20.9-20,33.7c-7.3,24.1-14.5,48.2-18.9,73.1c-0.4,2.3-1.2,4.8-2.5,6.7
	c-7,10.7-11.1,22.5-14,34.8c-1.3,5.6-4,11.1-7.5,15.3c-7.5,8.9-14.5,18.3-22.2,27.1c-6.7,7.7-14.8,14.1-20.7,22.4
	c-5.3,7.3-12.2,12.6-19.2,17.7c-3,2.1-5.9,4.2-8,7.1c-1.9,2.5-4.3,4.5-7.2,5.2c-6.9,1.6-12,5.6-15.7,11.4
	c-4.8,7.6-13.8,11.2-18,19.8c-2.1,4.3-2.5,9.3-6.5,13.9c-6.8,0.7-12.9,5.1-19.6,8.4c0-240.6,0-481.1,0-721.7
	C177.1,1.8,352.4,1.8,527.7,1.8z"/>
<path fill-rule="evenodd" clip-rule="evenodd" fill="none" d="M1.8,728.9c13.7,14.2,30.2,10.1,45.5,5c17.9-6,36.3-10.9,53.7-18.3
	c16.6-7.1,32.5-15.6,47.4-25.8c8.9-6.1,18.9-11.1,26.6-18.5c12.9-12.3,27-23.1,36.9-38.8c9.7-15.5,15.6-32.5,24.3-48.2
	c1.8-3.2,2-6.9,2.9-10.3c4.6-17.7,15.3-33.2,18.7-51.3c0.9-4.8,0.8-9.6,1.8-14.3c1.9-8.6,5.6-16.6,9.2-24.5
	c2.9-6.3,6.3-12.4,10.2-18.1c7.5-11,18.5-16.3,31.5-18.1c4.9-0.7,8.9,1,12.2,4.9c1.1,6-0.9,11.8-2.8,17.4
	c-5.3,15.9-6.7,31.9-5.3,48.8c2.1,25.4,8.3,49.7,15.6,73.9c1.1,3.7,3.7,7,3.9,11.5c-6.3,18-16.6,34.1-28.7,49.2
	c-3.2,4-6.6,7.9-10,11.7c-5.8,6.3-12.2,11.1-21.5,11.9c-10.6,0.9-15,5.1-17.1,13.2c-0.7,2.7,0,4.7,0.7,6.9c4.1,14.1,1.2,28-1.1,42
	c-3.8,23.9-12.3,46.5-20.4,69c-4.8,13.5-10.4,26.8-17.5,39.4c-4.4,7.7-4.9,15.9-3.2,23.4c2.5,3.7,6.4,2.6,8.5,5.2
	c3.1,4.9-1.4,9-1.3,13.7c-9.8,5.6-17.5-1.9-26.8-3.1c-5.1,4.4-12.1,4.5-19,4.4c-6.3-0.1-12.7,0.1-19-0.5c-8.7-0.8-14.5,3-18.2,10.5
	c-1.7,3.5-3,7.1-4.5,10.7c-13.4,2.8-26.7,4.1-40.4,3.2c-8.8-0.6-18-0.7-25.6,4.1c-3.4,3.5-3.6,7.4-3.6,11.4c0,6.9,0.3,13.9-0.3,20.8
	c-0.8,9.2,2.7,16.7,9.1,22.6c5.9,5.4,8.2,11.5,7.5,19.3c-0.4,4.8-0.1,9.6-0.1,13.5c-2.4,4.2-5,5.1-8.9,4.8
	c-15-1.5-22.3,7.5-22.6,20.2c-0.2,11.1-1.3,22.3-1.1,34.1c378.3,0,756.4,0,1135.1,0c-1.1-11.7,0.6-23.9-10.1-34.3
	c0.1-23.7-3.7-47.9-12-71.5c4.3-7.7,4.4-15.8,2.2-24.3c-1-4-0.2-8.4-0.3-12.6c-0.3-11.4-4.7-16-16-16c-12.1,0-24.2,0.1-36.3,0.2
	c-3.3,0-6.6,0.4-9.9-1c-3.5-3.3-4.2-8.4-7.9-11.9c-3.8-3.5-7.6-5.6-12.8-5.6c-7.9,0-15.7,0-23.5,1c-12,1.5-24.1,1.1-36.2,0.8
	c-6.2-0.1-12-1.4-15.3-7.7c-1-1.9-3-2.9-5-3.8c-8.7-3.7-12.9-11.2-14.4-19.5c-1.4-7.6-4.1-14.4-9.8-18.8c-9.8-7.7-11-18.9-14.1-29.4
	c-3.3-11.2-5.8-22.6-8.8-33.9c-3-11.4-5.9-22.7-2.6-34.6c0.8-3.1,0.8-6.8-0.2-9.9c-1.8-6.1-2.8-12.3-3.4-18.6
	c-0.6-5.8-2.3-11.2-6.6-15.4c-1-18.6-0.1-36.7,2.3-55.1c1.7-13.1,7.9-21.4,17.1-29c1.6-1.3,3.5-2.7,4.3-4.6
	c3.2-7.3,8.7-12.8,13.4-19c18.2-4.3,80.6-5.1,88.7-1.2c2.4,4,2.4,8.3,2.1,12.9c-1.5,19.9-10.9,37.3-18.3,55.2
	c-2.8,6.8-8.6,13-16,16.6c-8.1,3.9-12.6,11.9-18.8,18c-1.8,1.8-2.8,4.7-1,7.8c2.2,2.5,6.5,0.3,9.6,4.2c-9.6,11.7-25.5,9.1-37.1,15.3
	c-1.3,6-0.8,11.1,0.1,16.6c2.2,14.3,3.5,28.7,5.4,43c0.4,3.3-0.4,7.8,6.3,8.6c11.5-8,22.8-18.5,36.5-26.1c0.8-7.2,5.8-12.6,7.8-19.6
	c1.7-5.9,7.2-9.5,12-13.1c1.9-1.4,4.2-2.4,6.2-3.7c10-6.5,19.3-13.4,18.4-27.4c-0.5-7.8,3.2-14.6,6.6-21.3c5.6-11,9.8-22.6,14-34.2
	c4.2-11.9,7.9-24,14.2-35c1-1.8,2-3.9,2.2-5.9c1.4-12.2,4.5-24.4,3-36.7c-1.2-10.2-14-20.3-24.4-21.4c-11-1.1-21.7-3.6-31.9-8.7
	c-17.1-8.5-34.8-15.9-52.5-23.2c-5.3-2.2-8.4-5.1-9.4-10.8c-1.6-9.7-4.9-19.2-2.5-29.2c3.3-1.7,5.9-0.7,8.7,0.8
	c13.7,7,33.7,1.8,43.8-9.9c7.5-8.7,14.7-17.4,19.2-28.1c0.7-1.7,2-3,4-4c5.6-0.6,7.2,3.2,6.9,7.8c-0.3,4.3,0,8.3,2.2,11.9
	c13.7,1.9,21.6-5,19.8-17.9c-1.8-13.1-5.2-25.9-6.5-39.1c-0.3-3.3-0.7-6.5-0.6-10.3c9.2-2.1,17.9,0.5,26.3,1.4
	c3.4,2.8,2.4,6.5,3,8.9c3.3,7.5,12.1,6.4,15.2,12c9.5,2,13.9-5.9,20.7-8.6c6.7-0.4,10.9,8.7,20.7,3.2c7-7.2,13.6-18.2,21.1-28.5
	c0,232,0,464,0,696.1c-400.7,0-801.5,0-1202.2,0C1.8,954.9,1.8,841.9,1.8,728.9z"/>
<path fill-rule="evenodd" clip-rule="evenodd" fill="none" d="M1204,346.3c-1.3-3.1-2.3-6.4-1.9-9.7c1.6-13-2.5-24.9-6.2-36.9
	c-2.4-8-4.2-16.1-8.1-23.6c-2.2-4.3-2.7-9.2-2.1-14.1c1.5-13.6-0.4-27.2-2.8-40.4c-2-10.8-6.9-21.1-14.7-29.4
	c-5-5.3-7.5-10.7-6.2-18.4c1.1-6.5,0.4-13.3,0.2-19.9c-0.1-4.4-1.8-7.7-8.4-6.5c-1.3,8.1-6.9,14.8-10.4,22.5
	c-2.9,6.3-7,9.1-14.2,10.3c-13.8,2.3-26.9,0-39.7-4c-13.1-4.1-26.8-3-40-5.4c-13.7-2.5-27.2,0.1-41.3,1.4
	c-0.7-6.6,8.9-10.3,4.3-17.7c-6.4,0.2-10.3,5.4-14.6,8.9c-8.2,6.9-16.3,13.3-26.1,18.2c-12.9,6.4-26,12.3-38.9,18.6
	c-12.8,6.2-26.9,8.6-39.6,14.9c-10.3,5.1-21.9,6.6-32,11.7c-17.5,8.9-37.3,11-54.9,19.7c-8,3.9-16.7,6.9-25.2,6.1
	c-8.2-2.1-9.2-10.1-14.7-14.6c-4.9-0.2-10-2.5-16.1-1.4c-7,8.3-9.4,18.8-12.8,30.6c-2.8,2.2-7.5,2-11.1,1.1
	c-5.9-2.5-3.9-8.1-6.6-11.3c-2.9-2.3-6.5-0.4-10.3-1.8c-0.9-4.2-2.1-8.8-5.7-13c-5.4-4.1-12.6-4.6-19-5c-3.1-4.4-1.2-7.9-1.2-11.6
	c5.5-5.3,9.3-11.2,5.9-19.1c-1.2-2.7,1.2-4.4,1.3-6.8c0.3-13.5-2.8-25.9-8.3-38.2c-5.3-11.9-12.6-21.5-23.7-27.5
	c-0.9-2.7-1.1-4.7,0.6-7c4.5,2.2,9.3,3.6,14.4,2c2.8-2.1,3.5-5.6,2.2-8.1c-6-11.2-2-20.9,3.6-29.5c0.6-3.1-0.8-4.9-1.4-6.9
	c-2-6.5-5-12.8-4.1-20.1c0.5-4.2-2.2-8-3.5-12.4c2-4.2,2.8-8.8,1.4-14.3c-5.5-4.9-11.2-10.5-17.3-15.4c-3.7-3-7.8-5.2-13-5.8
	c-11-1.3-21.9-5.1-32.7-4.6c-10.4,0.5-21-0.1-31.3,2.4c-4.2,1-8.3,1.4-13.1,0.5c-5.7-6.8-13.4-10.2-22.8-9c-3.6,0.4-6.3-1.2-8.7-3.7
	c223.6,0,447.3,0,670.9,0C1204,116.7,1204,231.5,1204,346.3z"/>
<path fill-rule="evenodd" clip-rule="evenodd" fill="none" d="M747.6,612.9c3.4,5.2,5.9,9.9,5.1,15.7c9,8.9,8.5,23.7,19.2,31.1
	c14.7-5.5,28.4-10.5,39.1-20.3c5.7,1.6,10.4,2,15.6,0.2c7.3,4.5,15.7,6.7,24,9.2c4.9,1.5,9.9,3.3,11.8,8.9
	c3.3,10.2,10.4,18.1,15.6,27.2c3.7,6.5,6.6,13.3,11.2,19.4c3.3,4.4,5,10.7,4.9,17c-0.3,11,1.6,21.4,8.5,30.7
	c3.5,4.7,4.8,10.8,6.1,16.8c2.3,10.8,6.8,21,10.2,31.5c5.5,17.2,11.6,34.1,17.9,51c0.3,0.8,0.7,1.8,0.6,2.6
	c-1,12.1,1.8,23.7,5.7,35.4c-6,1.7-11.4,1.6-16.8,1.5c-22.3-0.3-44.7-1-67,1c-10.5,0.9-21.1-0.2-31.7-0.1
	c-42.3,0.5-84.5,0.4-126.8,0.5c-17.5,0.1-34.9,2.5-52.5,2.1c-6.7-0.2-12.5-0.8-16-7.6c-2.6-4.9-8.3-5.6-12.7-7.8
	c-2.9-3.5-3.8-7.7-5-11.7c-2.4-7.6-6.4-14.2-12.5-19.3c-5.7-4.8-7.6-11.4-9.5-18.1c-0.7-2.6-0.8-5.4-1.3-8
	c-1.7-8.4-5.6-15-13.6-19.1c-8-4-16.6-7.3-23.3-13.6c-8.1-7.8-17-14.7-24.4-23.3c-6.3-7.2-12.6-14.5-19.4-21.3
	c-7.8-7.8-14.1-16.8-18.7-26.4c-7.3-15.6-6.4-31,4-46c7.9-11.3,14.4-23.6,22.9-34.4c10.7-13.7,20.8-27.7,30.6-42.8
	c7.9,2.2,15.6,4.3,23.2,6.8c27.3,8.8,54.8,14.9,83.7,14.6c18.4-0.2,36.8-1.7,55.2-1.8C723.4,614.3,735.3,612.7,747.6,612.9z"/>
<path fill-rule="evenodd" clip-rule="evenodd" fill="none" d="M549.9,855.5c4-1.5,6.4-3.6,7.7-6.8c10,4.8,10.9,13.7,2.9,27.7
	c0.6,3.9,3,7.9,0.7,12.5c-3.7,4-8.6,5.5-14.3,5.4c-35.6-0.6-71.1-0.4-106.7-1.6c-29.6-1-59.2-0.1-88.7,0
	c-25.6,0.1-51.3-0.1-76.9-0.6c-2.6,0-4.6-1.1-7.3-2.9c-0.1-6.4-6.9-9.4-9.2-14.8c1.5-6.6,7.4-9.8,9.3-15.8
	c1.8-5.5,3.1-10.9,2.7-16.8c-1.1-13.7,2.5-26.2,8.9-38.1c2.1-3.9,3.3-8.3,5-12.5c6.4-16.4,16.3-30.7,27.3-44.1
	c5.5-6.7,12.9-11.7,20-16.8c2.2-1.6,4.5-3,5.9-5.5c8.9-15.6,23.6-23.5,39.7-29.5c13.5-5,26.7-10.8,39.3-17.8
	c3.6,2.3,3.2,5.8,2.1,8.9c-2,5.6-2.9,11.7-6.9,16.4c-3,3.5-4.1,7.3-3,11.4c6.5,10.3,17.8,15.6,23.9,25.3c15,8.7,27.5,19.9,41,29.9
	c8.7,6.4,16.4,13.8,24.5,20.7c13.5,11.6,28.1,22.2,37.6,38.4C540.4,837.1,543.6,846.8,549.9,855.5z"/>
<path fill-rule="evenodd" clip-rule="evenodd" fill="none" d="M790.2,303c0.5,2.2,0.7,3.7,2.4,4.1c8.7,1.7,17.7,2.8,25.6,7.8
	c-5.8,8.5-5.8,8.5-13.4,8.8c-3.8,5.6-5.1,12.7-10.1,18.6c-7.9,1.9-15.4,6.3-23.9,8.7c-10.5,3-17,11.7-23.2,18.1
	c-2.8,3.8-7.5,0.7-8.3,5.6c-2.7-3-3.8-6.3-5.5-9.2c-1.7-2.7-3.4-5.7-7-6.7c-13.2-3.5-17.4-13.4-17.9-26.5
	c5.1-7.3,15.4-6.7,21.9-12.5c1.6-2.5,3.2-5.1,5.3-8.6c8.8-0.1,14.7-6.4,21.1-12.4c5.6-5.3,12.4-5.3,19.1-1.1
	C780.6,300.6,784.9,302.4,790.2,303z"/>
<path fill-rule="evenodd" clip-rule="evenodd" fill="none" d="M1005.7,436.3c2.3-22.3,8.1-44.1,13-66.5c14.6,0.7,27.8,4.3,41.4,5.9
	c0.3,1.1,0.9,2.1,0.6,2.7c-6.8,14.2-10.6,29.7-18.6,43.5C1037.2,430.8,1018.7,441.2,1005.7,436.3z"/>
<path fill-rule="evenodd" clip-rule="evenodd" fill="none" d="M837.5,290.1c-13.3,3.5-39.2,2.2-51.4-2.3
	c4.1-13.5,16.9-15.4,27.6-18.6c15-4.4,29.6-9.4,44.1-15.1c2.6-1,5.3-3,10.1-0.9C857.1,265.3,846.8,277,837.5,290.1z"/>
<path fill-rule="evenodd" clip-rule="evenodd" fill="none" d="M1061.9,302.5c3.5,1.4,5.9,3.2,8.6,5.5c3.5,14.7,17.5,21.5,26.6,32.3
	c0.4,2.4-1.2,3.9-2.3,6c-21.8-5-42.9-11.5-63.2-20.2C1036.3,310.6,1049.2,307.1,1061.9,302.5z"/>
<path fill-rule="evenodd" clip-rule="evenodd" fill="none" d="M1072.8,365c-17-1.2-33-5.8-49.2-8.1c-2.6-6.1,0.4-10.7,0.9-15.4
	c3.7-2.6,7.3-1.5,10.6-0.3c14.6,5.2,28.9,10.8,43.9,14.7C1080.2,361.1,1075.7,361.9,1072.8,365z"/>
<path fill-rule="evenodd" clip-rule="evenodd" fill="none" d="M1158,1003.2c-3.3,1.9-5.9,1.7-8.5,0.8c-5.4-8.6-4.4-14,4.2-21.7
	C1158.3,988.6,1160,995.4,1158,1003.2z"/>
<path fill-rule="evenodd" clip-rule="evenodd" fill="none" d="M749.4,264.4c-0.9-11.8,3.5-19.9,11.2-21.2
	C763,254.9,760.9,259,749.4,264.4z"/>
</svg>
