<?xml version="1.0" encoding="utf-8"?>

<!DOCTYPE svg PUBLIC "-//W3C//DTD SVG 1.1//EN" "http://www.w3.org/Graphics/SVG/1.1/DTD/svg11.dtd">
<svg version="1.1" id="Layer_1" xmlns="http://www.w3.org/2000/svg" xmlns:xlink="http://www.w3.org/1999/xlink" x="0px" y="0px"
	 viewBox="0 0 962.3 1041.6" enable-background="new 0 0 962.3 1041.6" xml:space="preserve">
<path fill-rule="evenodd" clip-rule="evenodd" fill="none" d="M0,1041.6C0,694.4,0,347.2,0,0c320.8,0,641.5,0,962.3,0
	c0,347.2,0,694.4,0,1041.6C641.5,1041.6,320.8,1041.6,0,1041.6z M771.4,495.8l-0.1-0.1c-2,15-4.5,29.9-2.9,44.4
	c5.4,5.3,11.9,4.4,18.1,6.1c1.9-2.1,4.8-1.5,7.6-1.8c0.8-1.4,0.4-3.2,2.1-4.5c8.5-2,17.5-4,26.2-6c0.9-3.9-0.7-6.5-2.4-9
	c-2.9-4.1-5.8-8.1-8.8-12.1c-4.2-5.6-7.3-11.9-8.6-18.8c-2.8-15.2-3.3-30.6-3.7-45.9c-0.2-7.4-2.1-14.1-4.2-21.4
	c3.2-7-0.6-15,1.8-23.4c5.4-4.3,2.6-12.5,6.5-18.6c1.2,6.2,3.8,11.6,6,17.1c2.3,5.8,5.7,11.2,11.4,13.7c4.7-0.1,5.5-3.3,7.3-6.1
	c1.6-2.4,5-3.2,6.1-6.4c1-2.9,0.5-6.4,2.9-8.8c2.2,2-0.7,3.2-0.3,4.7c0.8,1.9,3.2,2.5,3.6,4.8c-0.4,2.3-2.3,4.7-0.8,7.3
	c1.4,1.2,3.6,0.3,4.6,2c0.8,2.1,0.1,4.4,1.6,6.2c8.7,3.6,17.7,0,21.8-9.2c3.1-6.8,6.8-13,11.8-18.5c6.2-7,9.7-15.3,10.5-24.7
	c0.7-8,1.8-15.9,2.7-24.2c1.4-1.3,3.6-2.2,4.4-4.3c1.1-9.6,0.9-11.6-1.7-16.9c0.5-22,3.3-41.9,9.1-63.5c1.7-6.3,2.7-12.7,2.4-19.3
	c-0.3-6.1-0.5-12.1-1.3-18.1c-0.9-6.8,2.2-12.9,2.1-19c7.3,0,13.8,0.2,20.3,0c6.2-0.2,9.4-3.4,10.1-9.5c-4.4-3.1-10.8-3.1-14.2-7.8
	c0.3-5,5.5-7.3,6.2-11.9c-5.4-3-10.5,2.4-16.4,0.2c3.1-3.8,5.8-7.1,8.5-10.5c5-6.5,10.1-13.1,13.3-20.7c1-2.5,2.6-5.1,0.1-7.5
	c-2.3-0.4-3.7,0.8-5.1,1.7c-6.9,4.6-14.1,8.2-22.7,8.6c-2.7,0.1-5.4,1.4-8,2.5c-6.4,2.6-12.8,5.3-19.1,8.1
	c-3.7,1.7-7.6,2.3-11.4,1.1c-6.8-2-12.9-1.7-17.6,4.2c-3.6-0.7-7-1.3-10.4-2c-1.4-3.5-0.4-8-5.2-9.5c-0.8,0.3-1.9,0.6-2.8,1.1
	c-4.4,2.3-8.5,2.6-12.8-0.5c-3.2-2.3-6.9-2.4-10.6-1.6c-3.6,0.8-7,0.5-10-1.6c-4.3-3-8.8-3.3-13.6-2.3c-3,0.7-6.1,0.8-8.9-0.5
	c-6.1-2.8-12.2-2.3-18.4-0.6c-4.6,1.3-9.3,2.3-13.8,3.6c-4,1.2-8,1.8-12.2,1.2c-4.9-0.7-9.3,0.7-13.9,2.2
	c-10.3,3.5-20.3,7.4-29.3,13.5c-1.6,1.1-3.5,1.6-5.3,2.4c-4.1,1.7-7.6,4.1-10.4,7.6c-4,5-9.1,8.6-14.4,12
	c-13.3,8.8-25.3,18.9-33.4,33c-1.5,2.7-3.7,4.1-6.9,4.1c-2.4,0-4.8,0.4-7.2-0.4c-1.5-3.3-4-4.8-7.7-6c-3.9-1.2-8.3-2-11.7-4.3
	c-3.3-2.3-6.2-2.7-9.8-0.8c-4-4-8.3-4-11.8-0.8c-13.2-5.1-23.3-13.3-33.1-21.8c-4.7-1.1-9.8-1.1-13.3-4.8c-4.2-4.3-9.6-5.7-15.2-6.5
	c-7.3-1.1-14.7-1.2-22-0.7c-4.2,0.3-8.3,0-12.1-1.6c-6.5-2.8-13-5.8-20.1-9c-0.6-6.6-8.8-7.5-11.7-13.5c5.6-2.6,8.8,2.8,13.3,2.6
	c4.7-0.2,9.5,0.1,14-2.6c2-6.3-4.7-9.2-5.8-14.3c-1.1-5.3-4.1-9.8-6.8-14.4c2.7-3,5.1-5.8,5.6-9.7c0.4-3.9-0.4-7.5-3.8-10.3
	c3.1-1.1,5.8-0.9,7.1-3.7c-2.1-5.9-7.3-9.9-10.2-15.4c0.8-2.8,2.6-5.2,2.3-8.9c-4.1-5.9-8.5-12.2-13.1-18.7
	c2.7-4.5,1.3-8.8-0.4-13.4c-20.5-10.7-42.6-12.4-65.3-10.1c-1.6-1.3-3-2.6-4.6-3.7c-14.6-10.5-30.8-15.1-48.5-10.5
	c-9.5,2.5-18.4,7.3-28.5,7.8c1.6,11.8,9.5,20.9,18.8,21.3c4-9.2,14.9-10.5,21.9-17.5c2.6,0.6,5.1,0.5,7.6-0.5
	c10.8-4.2,19.2,0.5,28.1,7.3c-7.6,3.1-13.8,7.1-19.4,11.8c-10.2,8.5-12.5,21.1-5.7,32.6c2.3,3.9,3.4,7.9,2.4,12.4
	c-2.9,13.1-2.7,26.7-7.2,39.4c-0.1,0.3,0.2,0.8,0.3,1.3c4.3,4.5,10.2,2.2,15.2,3.3c2.4-1.6,5.3-2.2,7.1-4.3c0-4,0.2-4.1-0.7-5
	c-6.2-6.5-5.4-15.1-7-23c5,4.7,6.4,11.6,10.7,16.8c4.5,5.5,11.2,7.9,16.2,12.6c-0.4,5.3-2.1,9.7-5.2,13.5c-3.7,4.7-7.8,8.4-14.7,7.7
	c-5-0.5-9.7,1.6-14.4,3.3c-3.2,1.2-6.4,2.8-9.9,2.8c-8.9,0-16,4.9-23.6,8.4c-1.1,0.5-2.2,1.6-2.7,2.7c-3,6.5-8,11.2-13.4,15.6
	c-2,1.6-3.3,4-4.4,6.4c-1.7,3.6-4.1,6.7-7.6,8.7c-3.8,2.1-6.2,5.3-8,9.1c-2.1,4.5-5.5,7.9-10.5,9c-3.1,0.6-5,2.4-6.4,5
	c-4.4,8.7-10.3,15.9-18,21.9c-2.7,2.1-5.9,4.4-6.9,7.7c-2.3,7.6-9.1,11.8-12.2,18.4c-2.7-0.3-4.2-2.8-6.7-1.6
	c-1.4,0.9-1.9,2.3-1.9,3.9c0.2,5-2.1,9.1-4.7,13.2c-5.1,8.2-8.4,17.1-9.8,26.6c-1.3,8.3-1.9,16.8-3.8,25c-3.2,13.5-4,28.1-16.7,37.5
	c-19.6-2.7-29.2,19.5-18.8,33.1c-2.6,4.4-0.5,7.7,3,10.5c3,2.5,6.1,4.8,9.3,7.1c5.2,3.7,10.7,4,16.6,1.4c5.8-2.6,11.2-5.7,16.1-10.1
	c11.6,0.2,19.6-5.4,23.5-16.7c21.1,2.3,41.7,4.6,63.4,6.9c-5.5,4.3-10.3,6.8-15.9,8.1c-19.7,4.5-38.8,10.6-57.5,18.2
	c-24.1,9.8-46.2,22.8-64.1,42.1c-0.6,0.7-1.3,1.1-2.5,1c-0.8-0.8-1.6-1.8-2.6-2.7c-23.6-24.1-60.3-19.8-76.2,10
	c-9.2,17.2-15.2,35.9-15.3,55.9c0,6.1-0.3,12.1-1.1,18.2c-1.8,12.6-3.5,25.3-3.6,38.1c-0.1,8.9-1.8,17.6-4.5,26.2
	c-1.4,4.3-2.5,8.8-2.7,13.3c-0.5,15.1-8.4,28.1-11.8,42.4c-6.6,7.6-3.6,17.3-6.6,26.1c6.5,4.3,5,9.6,2.6,15.1c-1.3,3-2.5,6-3.9,8.9
	c-2.9,5.9-4.5,12-5.1,18.6c-0.8,7.7-2.2,15.4-6.3,22.3c-2.2,3.6-2.6,7.6,0.2,11.9c11.7-5.6,17.9-17.7,28.8-23.8c3,2.4,2,5.2,1.7,8
	c-0.9,11.2-7.2,20.3-11.9,29.8c-3.5,7.1-5.5,14.5-7.3,22c-0.9,3.5,0.1,6.4,3.4,8.3c4.1-0.6,8.3-5.4,12.2,0
	c2.5,6.2,0.3,13.3,3.8,19.4c2.9-1.3,2.4-4.3,4.6-6.2c1.8,11.2,4.7,21.2,12.5,29c-0.4-7-1.2-13.9,3.5-20.1c4.3,14.6,8,18.4,18.1,18
	c-7.3-14.1,2.3-26.2,4.1-39.3c0.1-0.6,0.5-1.2,0.9-1.7c2.6-3.2,3.5-6.9,3.8-10.4c6.1-4.2,7.7-11.7,13.2-15.2c1-2.4,1.1-4.5,0.6-6.3
	c-3.5-14.3,1.4-27.9,2.7-41.8c0.2-2,1.6-3.5,2.5-5.2c5.7-10.5,8.8-21.7,9.3-33.5c0.3-8,1.1-16,2.7-23.9c4.6-22.2,4.8-44.7,4.4-67.3
	c-0.3-21.9-2.4-43.7-3.8-65.5c-0.6-10.2,0.6-20.1,3.9-30.2c1.4,1.9,1.2,3.5,1.3,5c0.7,29,3.2,57.9,4.8,86.9
	c1.3,23.5,8.2,44,24.5,61.3c5.9,6.3,11,13.3,16.4,20c-8,24.9-10.5,50.2-10.4,75.9c0,8.5-0.5,16.9-1.9,25.2
	c-2.1,12-4.6,23.8-7.4,35.6c-2.1,8.6-0.1,12.8,7.9,16.9c2.7,1.4,5.6,2.4,8.3,3.8c8.2,4.2,13.5,10.3,14.3,20.1
	c0.9,11.1,3.5,21.9,7.7,32.1c4,9.7,4.5,19.2,1.3,29.1c-2.2,6.8-1.4,13.8,0.5,20.5c1.7,6.3,4.5,8.4,11.1,8.9c1.5,0.1,3.1-0.1,4.4,0.9
	c3.4,5.4,3.4,5.6-0.6,10.9c-4.6,0.5-9.2,1.6-11.6,6.6c-2.9,6.2-3.4,12.5-1.6,19c1.4,5,4.3,7.2,9.5,7.2c12.1-0.1,24.3,0.4,36.4,1.3
	c0.9,0.1,1.7-0.1,2.6-1c-0.2-9.3-0.1-18.8-5.9-27.2c-2.2-3.1-2.1-6.7-1.3-10c1.8-6.7,1-13.2-0.5-19.9c-1.6-7.1-3-14.2-3.7-22.8
	c2.5,3.8,4.2,6.5,6,9.2c6.1,9,12.9,16.1,25.4,14.7c4.6-0.5,8.7,2.2,9.9,7.3c-0.4,2.1-1.5,3.4-2.6,4.8c-9.4,12.6-2.9,28.5,12.7,30.6
	c9.3,1.2,18.6,0.8,27.9-0.5c6.1-0.9,12.4-1.4,18.5-4.2c-2.4-14.6-8.3-27.9-13.3-41.3c-12.5-3.8-19.5-12.1-24-23.9
	c-5.5-14.5-14.8-26.2-28.4-34.4c-8.4-5.1-15.7-11.5-22.4-18.6c-5.2-5.6-9.4-11.8-11.8-19c2.6-4.3,5.1-8.4,7.5-12.5
	c7.1-11.7,11.6-24.6,16.6-37.3c3.9-9.8,9-19,18.2-24.7c15-9.5,24.2-23.3,30.3-39.5c3.5-9.2,8.7-17,16.4-22.9
	c11.2-8.6,18.5-19.5,22.5-33.2c4.4-15.3,14.5-26.7,27-36.2c14.4,6.4,28.9,10.6,44.2,11.4c14.9,0.8,29.9,1.8,44.8,1.7
	c10.2-0.1,20.4,0.8,30.4,2.7c9.7,1.9,19.4,4.2,28.5,8.3c0.3,1.4,0.6,2.4,0.7,3.5c4.8,29.1,6.3,58.5,8.1,87.9
	c0.3,5.4,0.2,10.9,2.1,16c2.4,6.7,6.8,9.8,13.8,9.7c2.4-36.8,0.7-73.4-4.6-110.1c1.7,0.1,2.6,0,3.4,0.2c7.1,2.1,11.5,6.8,12.5,14.2
	c2,15.8,8.3,29.9,16.8,43.2c2.1,3.3,4,6.7,6.1,10c4.3,6.7,7.2,13.8,7.9,21.8c0.6,7.7,3.1,14.8,6.4,21.7c3.2,6.4,6.7,12.6,10.1,18.9
	c8.7,15.8,16.5,31.9,21,49.5c3.7,14.1,5.5,28.5,6.9,42.9c0.8,8.5,3,16.6,7.9,23.8c4.3,6.4,7,7.2,14,4.4c5.9-2.3,10.2,0,12,6.6
	c-0.4,0.6-0.7,1.5-1.3,2.1c-5.8,6-4.8,12.4-1.7,19.2c3.2,6.7,9,9.8,15.7,11.4c8.2,2,16.6,3.3,25,3.8c5.5,0.3,11.2,1,17.1-0.7
	c-0.5-8.6-1.7-17-4.2-25c-3.6-11.6-9.9-21.1-21.7-26c-4.5-1.9-7.3-5.3-8.4-10c-1.6-6.3-3.5-12.5-4.9-18.8c-1.5-6.9-4.4-13.2-9-18.5
	c-12-13.6-18.5-29.8-21.2-47.4c-2.2-14.3-3.6-28.8-4.9-43.2c-1.5-16.1-3.9-31.8-13-45.7c-3.3-5.1-4.4-11.2-5.4-17.3
	c-1.1-7-1.8-14.1-0.2-21.1c1.1-0.1,1.8-0.3,2.4-0.2c12.7,1.9,25,0.8,37.1-3.7c6.4-2.4,13.1-2,19.9-0.5c19.4,4.3,39.2,3.1,58.9,3.8
	c1.1,0,2.1-0.3,3.2-0.5c12.2-1.8,24.2-4.4,36.7-3.5c11.1,0.8,18.7,6,23.9,15.4c3,5.4,5,11.1,5.3,17.2c0.8,16.2,1.3,32.4-3.1,48.4
	c-2.1,7.7-3.7,15.6-3.3,23.7c0.3,7.6,4,12,11.4,13.6c1.5,0.3,3.1,0.1,4.2,1.7c1.1,2.3,0.6,4.4-1.7,6.3c-2.6,1-5.5,0.9-8.2,0.1
	c-4.9-1.3-8.4,0.5-11.6,3.8c-5.8,6.1-9.8,13.3-12,21.3c-4,14.6-1.5,28.8,3.5,42.7c1.8,5,5.5,8.7,10.2,11.1c0.6-0.3,1.1-0.3,1.4-0.6
	c13.4-12.6,26.8-25.3,40.2-37.9c3.1-2.9,3.7-6.7,3.8-10.7c0-2.2-0.3-4.3-0.5-6.5c-0.9-9.3,0.2-18.1,6-25.9c1.8-2.4,2.8-5.4,2.9-8.5
	c0.6-15.5-0.3-30.8-5.9-45.4c-6.9-17.9-8.8-36.5-8-55.5c0.4-8.7,1.1-17.3,1.7-25.9c0.2-3.1-0.1-6.1-1.1-9
	c-5.4-14.4-23.6-28.1-37.9-27.4c-7.2,0.3-14.2-0.8-21.3-1.8c-9.2-1.2-17.5-4.6-24.9-10.3c-8.3-6.3-17.1-11.8-25.9-17.4
	c-6.3-4-12.7-7.8-20.1-11.5c8.4-6.2,12.4-14.4,16.4-22.5c2.1-4.3,4.1-8.6,6-12.9c10.7-24.2,18.5-49.5,27-74.4
	C769,499.5,768.9,496.9,771.4,495.8z"/>
<path fill-rule="evenodd" clip-rule="evenodd" d="M771.4,495.8c-2.5,1.1-2.4,3.6-3.1,5.7c-8.5,25-16.3,50.3-27,74.4
	c-1.9,4.4-3.9,8.7-6,12.9c-4,8.2-8,16.4-16.4,22.5c7.4,3.7,13.8,7.6,20.1,11.5c8.8,5.6,17.6,11.1,25.9,17.4
	c7.4,5.7,15.7,9,24.9,10.3c7.1,0.9,14.2,2.1,21.3,1.8c14.3-0.7,32.6,13.1,37.9,27.4c1.1,2.9,1.4,5.9,1.1,9
	c-0.6,8.6-1.4,17.3-1.7,25.9c-0.9,19,1,37.6,8,55.5c5.7,14.7,6.5,29.9,5.9,45.4c-0.1,3.1-1.1,6.1-2.9,8.5c-5.9,7.8-7,16.6-6,25.9
	c0.2,2.2,0.5,4.3,0.5,6.5c0,4-0.7,7.8-3.8,10.7c-13.4,12.6-26.8,25.3-40.2,37.9c-0.3,0.3-0.8,0.3-1.4,0.6
	c-4.7-2.5-8.4-6.1-10.2-11.1c-5-13.9-7.5-28.1-3.5-42.7c2.2-8,6.2-15.2,12-21.3c3.2-3.4,6.8-5.2,11.6-3.8c2.7,0.7,5.6,0.9,8.2-0.1
	c2.2-1.9,2.7-4,1.7-6.3c-1.2-1.6-2.8-1.4-4.2-1.7c-7.4-1.6-11.1-6-11.4-13.6c-0.4-8.1,1.2-16,3.3-23.7c4.4-16,3.9-32.2,3.1-48.4
	c-0.3-6.1-2.3-11.9-5.3-17.2c-5.2-9.4-12.9-14.6-23.9-15.4c-12.5-0.9-24.6,1.8-36.7,3.5c-1.1,0.2-2.1,0.5-3.2,0.5
	c-19.7-0.7-39.4,0.5-58.9-3.8c-6.7-1.5-13.4-1.8-19.9,0.5c-12.1,4.4-24.4,5.6-37.1,3.7c-0.6-0.1-1.3,0.1-2.4,0.2
	c-1.5,7-0.9,14.1,0.2,21.1c1,6,2,12.2,5.4,17.3c9.2,13.9,11.6,29.6,13,45.7c1.3,14.4,2.7,28.9,4.9,43.2c2.7,17.6,9.3,33.8,21.2,47.4
	c4.7,5.3,7.5,11.5,9,18.5c1.4,6.3,3.3,12.5,4.9,18.8c1.2,4.8,3.9,8.1,8.4,10c11.8,4.9,18.1,14.5,21.7,26c2.5,8,3.7,16.4,4.2,25
	c-5.9,1.6-11.6,1-17.1,0.7c-8.4-0.5-16.8-1.8-25-3.8c-6.7-1.6-12.5-4.7-15.7-11.4c-3.2-6.8-4.1-13.2,1.7-19.2
	c0.6-0.6,0.9-1.5,1.3-2.1c-1.8-6.6-6.1-8.9-12-6.6c-7,2.8-9.7,2-14-4.4c-4.9-7.2-7.1-15.3-7.9-23.8c-1.4-14.5-3.2-28.8-6.9-42.9
	c-4.6-17.5-12.4-33.7-21-49.5c-3.4-6.3-7-12.5-10.1-18.9c-3.4-6.8-5.8-14-6.4-21.7c-0.6-7.9-3.6-15.1-7.9-21.8
	c-2.1-3.3-4-6.7-6.1-10c-8.5-13.3-14.7-27.4-16.8-43.2c-1-7.4-5.3-12.1-12.5-14.2c-0.8-0.2-1.7-0.1-3.4-0.2
	c5.3,36.7,7,73.4,4.6,110.1c-6.9,0.1-11.3-3-13.8-9.7c-1.9-5.2-1.7-10.6-2.1-16c-1.8-29.4-3.2-58.8-8.1-87.9
	c-0.2-1.1-0.4-2.1-0.7-3.5c-9.1-4.1-18.7-6.4-28.5-8.3c-10-2-20.2-2.8-30.4-2.7c-15,0.1-29.9-0.9-44.8-1.7
	c-15.3-0.9-29.8-5-44.2-11.4c-12.5,9.5-22.6,20.9-27,36.2c-4,13.7-11.3,24.6-22.5,33.2c-7.7,5.9-13,13.7-16.4,22.9
	c-6.1,16.2-15.3,30-30.3,39.5c-9.2,5.8-14.3,15-18.2,24.7c-5,12.7-9.5,25.6-16.6,37.3c-2.5,4.1-4.9,8.1-7.5,12.5
	c2.4,7.2,6.6,13.4,11.8,19c6.7,7.1,14.1,13.6,22.4,18.6c13.6,8.2,22.9,20,28.4,34.4c4.5,11.8,11.6,20.1,24,23.9
	c5,13.5,10.9,26.7,13.3,41.3c-6.1,2.9-12.4,3.3-18.5,4.2c-9.2,1.4-18.6,1.8-27.9,0.5c-15.5-2-22.1-18-12.7-30.6
	c1-1.4,2.2-2.7,2.6-4.8c-1.2-5.1-5.3-7.8-9.9-7.3c-12.5,1.5-19.3-5.7-25.4-14.7c-1.8-2.6-3.5-5.3-6-9.2c0.7,8.6,2.1,15.8,3.7,22.8
	c1.5,6.7,2.2,13.2,0.5,19.9c-0.9,3.4-0.9,6.9,1.3,10c5.9,8.3,5.7,17.9,5.9,27.2c-0.9,0.9-1.7,1-2.6,1c-12.1-0.9-24.2-1.4-36.4-1.3
	c-5.2,0-8.1-2.2-9.5-7.2c-1.8-6.5-1.3-12.8,1.6-19c2.4-5,6.9-6.1,11.6-6.6c4-5.3,4-5.5,0.6-10.8c-1.3-1-2.9-0.8-4.4-0.9
	c-6.5-0.5-9.3-2.6-11.1-8.9c-1.8-6.8-2.7-13.7-0.5-20.5c3.2-9.9,2.7-19.4-1.3-29.1c-4.2-10.2-6.9-21-7.7-32.1
	c-0.8-9.8-6-15.9-14.3-20.1c-2.7-1.4-5.6-2.4-8.3-3.8c-7.9-4.1-10-8.3-7.9-16.9c2.8-11.8,5.3-23.7,7.4-35.6
	c1.5-8.4,1.9-16.7,1.9-25.2c-0.1-25.7,2.4-51,10.4-75.9c-5.5-6.7-10.5-13.7-16.4-20c-16.2-17.3-23.1-37.7-24.5-61.3
	c-1.6-29-4.1-57.9-4.8-86.9c0-1.5,0.2-3.1-1.3-5c-3.3,10.1-4.5,20-3.9,30.2c1.4,21.8,3.5,43.6,3.8,65.5c0.4,22.6,0.2,45.1-4.4,67.3
	c-1.6,7.9-2.4,15.8-2.7,23.9c-0.5,11.9-3.6,23-9.3,33.5c-0.9,1.7-2.3,3.2-2.5,5.2c-1.3,13.9-6.3,27.6-2.7,41.8
	c0.5,1.9,0.4,3.9-0.6,6.3c-5.5,3.4-7.1,11-13.2,15.2c-0.3,3.5-1.2,7.3-3.8,10.4c-0.4,0.5-0.8,1.1-0.9,1.7
	c-1.8,13.1-11.4,25.2-4.1,39.3c-10.2,0.4-13.8-3.4-18.1-18c-4.7,6.3-3.8,13.1-3.5,20.1c-7.8-7.8-10.7-17.8-12.5-29
	c-2.2,1.9-1.7,4.9-4.6,6.2c-3.5-6-1.3-13.2-3.8-19.4c-3.8-5.3-8-0.6-12.2,0c-3.3-2-4.2-4.8-3.4-8.3c1.9-7.5,3.8-14.9,7.3-22
	c4.7-9.6,11-18.6,11.9-29.8c0.2-2.8,1.2-5.6-1.7-8c-10.8,6.1-17,18.2-28.8,23.8c-2.8-4.2-2.4-8.2-0.2-11.9
	c4.2-6.9,5.5-14.6,6.3-22.3c0.7-6.6,2.2-12.7,5.1-18.6c1.4-2.9,2.6-6,3.9-8.9c2.4-5.5,4-10.9-2.6-15.1c3-8.8,0-18.5,6.6-26.1
	c3.3-14.3,11.2-27.3,11.8-42.4c0.2-4.5,1.3-9,2.7-13.3c2.7-8.5,4.5-17.3,4.5-26.2c0.1-12.8,1.7-25.5,3.6-38.1
	c0.9-6,1.1-12.1,1.1-18.2c0.1-20,6.1-38.7,15.3-55.9c16-29.8,52.6-34.1,76.2-10c0.9,0.9,1.8,1.9,2.6,2.7c1.2,0.1,1.9-0.3,2.5-1
	c18-19.2,40-32.2,64.1-42.1c18.7-7.6,37.9-13.7,57.5-18.2c5.6-1.3,10.4-3.8,15.9-8.1c-21.8-2.4-42.4-4.6-63.4-6.9
	c-4,11.3-11.9,16.9-23.5,16.7c-4.9,4.4-10.3,7.5-16.1,10.1c-5.9,2.6-11.4,2.3-16.6-1.4c-3.2-2.3-6.3-4.6-9.3-7.1
	c-3.5-2.8-5.6-6.1-3-10.5c-10.4-13.7-0.8-35.8,18.8-33.1c12.7-9.4,13.5-24.1,16.7-37.5c1.9-8.2,2.5-16.7,3.8-25
	c1.5-9.5,4.7-18.5,9.8-26.6c2.6-4.1,4.8-8.2,4.7-13.2c0-1.5,0.5-3,1.9-3.9c2.5-1.1,4,1.3,6.7,1.6c3.1-6.6,9.9-10.8,12.2-18.4
	c1-3.3,4.1-5.6,6.9-7.7c7.7-5.9,13.6-13.2,18-21.9c1.3-2.6,3.3-4.3,6.4-5c5-1,8.3-4.5,10.5-9c1.8-3.8,4.1-7,8-9.1
	c3.5-1.9,5.9-5.1,7.6-8.7c1.1-2.4,2.4-4.7,4.4-6.4c5.4-4.4,10.4-9.1,13.4-15.6c0.5-1.1,1.6-2.2,2.7-2.7c7.6-3.6,14.7-8.4,23.6-8.4
	c3.6,0,6.7-1.6,9.9-2.8c4.7-1.7,9.5-3.8,14.4-3.3c6.9,0.6,11-3,14.7-7.7c3-3.8,4.8-8.1,5.2-13.5c-5-4.7-11.6-7-16.2-12.6
	c-4.3-5.2-5.6-12.1-10.7-16.8c1.6,8,0.8,16.5,7,23c0.8,0.9,0.7,1,0.7,5c-1.8,2.1-4.7,2.7-7.1,4.3c-5.1-1.1-10.9,1.2-15.2-3.3
	c-0.1-0.5-0.4-1-0.3-1.3c4.6-12.8,4.4-26.4,7.2-39.4c1-4.5-0.1-8.5-2.4-12.4c-6.8-11.5-4.5-24.1,5.7-32.6
	c5.7-4.7,11.8-8.7,19.4-11.8c-8.9-6.9-17.3-11.6-28.1-7.3c-2.5,1-5,1.1-7.6,0.5c-7,7-17.8,8.3-21.9,17.5
	c-9.3-0.4-17.2-9.5-18.8-21.3c10.1-0.5,19-5.3,28.5-7.8c17.7-4.6,33.8-0.1,48.5,10.5c1.6,1.1,3,2.4,4.6,3.7
	c22.7-2.3,44.8-0.6,65.3,10.1c1.8,4.6,3.1,8.9,0.4,13.4c4.5,6.5,9,12.8,13.1,18.7c0.4,3.7-1.4,6.1-2.3,8.9
	c2.9,5.5,8.2,9.5,10.2,15.4c-1.3,2.8-4,2.6-7.1,3.7c3.5,2.9,4.3,6.4,3.8,10.3c-0.4,3.9-2.8,6.7-5.6,9.7c2.7,4.5,5.7,9.1,6.8,14.4
	c1.1,5.1,7.8,8,5.8,14.3c-4.5,2.7-9.3,2.4-14,2.6c-4.5,0.2-7.7-5.2-13.3-2.6c2.9,6,11.1,6.9,11.7,13.5c7.1,3.2,13.6,6.1,20.1,9
	c3.9,1.7,7.9,1.9,12.1,1.6c7.4-0.5,14.7-0.5,22,0.7c5.6,0.9,11,2.2,15.2,6.5c3.6,3.7,8.6,3.7,13.3,4.8c9.8,8.5,19.9,16.7,33.1,21.8
	c3.5-3.1,7.8-3.2,11.8,0.8c3.7-1.8,6.5-1.4,9.8,0.8c3.4,2.3,7.8,3,11.7,4.3c3.7,1.2,6.1,2.7,7.7,6c2.4,0.7,4.8,0.4,7.2,0.4
	c3.1,0,5.3-1.5,6.9-4.1c8.1-14.1,20.1-24.2,33.4-33c5.3-3.5,10.4-7.1,14.4-12c2.8-3.4,6.3-5.9,10.4-7.6c1.8-0.7,3.7-1.3,5.3-2.4
	c9-6.1,19-10.1,29.3-13.5c4.6-1.6,9.1-2.9,13.9-2.2c4.2,0.6,8.2,0,12.2-1.2c4.6-1.3,9.2-2.3,13.8-3.6c6.2-1.7,12.3-2.3,18.4,0.6
	c2.9,1.3,5.9,1.1,8.9,0.5c4.9-1.1,9.4-0.7,13.6,2.3c2.9,2.1,6.4,2.4,10,1.6c3.7-0.8,7.5-0.7,10.6,1.6c4.3,3.1,8.4,2.8,12.8,0.5
	c0.9-0.5,2-0.8,2.8-1.1c4.8,1.5,3.8,6,5.2,9.5c3.4,0.6,6.7,1.3,10.4,2c4.7-6,10.8-6.2,17.6-4.2c3.8,1.1,7.7,0.5,11.4-1.1
	c6.3-2.8,12.7-5.5,19.1-8.1c2.6-1.1,5.3-2.4,8-2.5c8.6-0.4,15.8-4,22.7-8.6c1.4-0.9,2.8-2.1,5.1-1.7c2.5,2.4,0.9,5-0.1,7.5
	c-3.2,7.7-8.2,14.2-13.3,20.7c-2.6,3.4-5.4,6.7-8.5,10.5c5.9,2.2,11-3.2,16.4-0.2c-0.7,4.5-5.9,6.8-6.2,11.9
	c3.4,4.7,9.8,4.8,14.2,7.8c-0.7,6.1-3.9,9.3-10.1,9.5c-6.5,0.2-12.9,0-20.3,0c0.1,6.1-3,12.1-2.1,19c0.8,6,0.9,12.1,1.3,18.1
	c0.4,6.6-0.7,12.9-2.4,19.3c-5.8,21.6-8.7,41.5-9.1,63.5c2.6,5.2,2.8,7.3,1.7,16.9c-0.8,2.1-2.9,3.1-4.4,4.3
	c-0.9,8.3-2,16.3-2.7,24.2c-0.8,9.4-4.3,17.7-10.5,24.7c-5,5.6-8.7,11.8-11.8,18.5c-4.2,9.2-13.2,12.8-21.8,9.2
	c-1.5-1.8-0.9-4.2-1.6-6.2c-1.1-1.7-3.3-0.8-4.6-2c-1.5-2.6,0.3-4.9,0.8-7.3c-0.3-2.3-2.7-2.8-3.6-4.8c-0.5-1.5,2.4-2.8,0.3-4.7
	c-2.4,2.5-1.9,6-2.9,8.8c-1.1,3.2-4.5,4.1-6.1,6.4c-1.8,2.7-2.7,6-7.3,6.1c-5.7-2.6-9.1-7.9-11.4-13.7c-2.2-5.5-4.8-11-6-17.1
	c-3.9,6.1-1.1,14.3-6.5,18.6c-2.4,8.4,1.4,16.4-1.8,23.4c2.1,7.3,4.1,14.1,4.2,21.4c0.4,15.4,1,30.8,3.7,45.9
	c1.3,6.9,4.4,13.1,8.6,18.8c3,4,5.9,8,8.8,12.1c1.8,2.5,3.3,5.1,2.4,9c-8.7,2-17.7,4.1-26.2,6c-1.7,1.3-1.3,3.1-2.1,4.5
	c-2.8,0.3-5.7-0.3-7.6,1.8c-6.2-1.7-12.8-0.8-18.1-6.1c-1.6-14.5,0.9-29.5,2.9-44.4c0.1-0.4,0.3-0.7,0.4-1.1
	C771,494.9,771.5,495.4,771.4,495.8z M309,398.2c5.5-3.8,9.7-7.5,12.8-12.3c9-14.3,17.6-28.8,29.1-41.3c0.1-0.1,0.1-0.4,0.1-1.1
	c-24.4-13.9-41.5-34.5-52-60.9c-4.3,2.2-7.7,4.7-9.6,8.3c-2.6,4.9-6,8.4-10.6,8.8c-3.7,3.2-2.9,7.3-4.1,8.8
	c-2.4,2.8-4.9,1.9-6.6,4.1c-2,9.6-11.4,14.3-17,22c-3.3,4.5-7.3,8.5-10.2,13.2c-4.8,8-6.4,17.7-12.1,24.9c1.2,2.9,4.2,3.4,4.7,5.9
	c-0.3,1.8-2.1,2.8-2,5.2c1.3,1.6,2.9,3.7,3.4,6.5C259.7,393.1,284.4,395.7,309,398.2z M740.3,377.8c-6.8,23.6-15.7,46.1-25.7,68.2
	c-2.1,4.7-1.9,9.2-0.2,13.9c2.3,6.3,5.2,12.4,8.7,18.1c6.9,11.3,11.7,23.2,10.3,37.2c2.3,0.6,1.9,3.8,4.5,4.2
	c7.6-17.8,15.8-35.2,22.5-53.3c4.8-12.8,8.9-26.4,20.4-35.5c-3.5-7.2-2.3-13.4,1.8-17.4c2.7-11.1,2.3-20.9,2.8-30.4
	c-1.8-1.3-3.6-1.3-5.3-1.6c-8.3-1.4-16.7-2.5-24.9-4.3C750.1,375.7,745.4,375.7,740.3,377.8z M501.1,304.5
	c6.2,14.3,5.8,30,14.3,43.1c8.2-8.9,16.8-6.5,25.1-1.5c11.3-7.6,21.6-19,27.5-30.3c0.8-1.5,1.7-3,1.7-4.8c-0.1-9,0.2-18.1,1.1-27.8
	c-23.1-3.8-44.3-12-63.9-25.8c-0.7,4.6-2.1,7.9-3.6,11.5c2.4,6.4,2.7,13.3,3.5,20.2C507.5,295.2,507.2,300.9,501.1,304.5z
	 M793.2,330.4c-1.9-2.9-4.7-5.5-4.9-9c-0.2-5.9-3.3-9.6-7.9-12.1c-0.4-1.3-0.8-2.4-1.1-3.4c-0.4-1.1,0.1-2.7-2.1-3.5
	c-9.5,5.4-16.8,14-26,22.4c-0.7,11-1.8,23-4.3,35.3c14.9-1.3,28.8-2.5,42.6-3.7c1.2-2.7,3.1-4.7,3.1-7.8c-3.7-3.3-3.7-8.1-4.4-12.1
	C789.3,333.4,791.9,332.6,793.2,330.4z M553.3,676c-0.7-6.3-3.3-11.6-3.6-17c-2.9-2.9-5.3-1.9-7.8,0c-3.3,5.4-3.7,11,0.1,16.2
	C544.8,679.1,548.9,676.9,553.3,676z M524.7,668.7c2.1-2.2,1.5-4.3-0.4-6.5c-2.5-0.3-4.7-0.4-6.8,0.6
	C517.5,668.2,517.7,668.4,524.7,668.7z M577.4,297.1c3-4,5.7-6.5,6.4-10.4c-1.6-2-3.3-2.2-5.5-1.4
	C577,288.6,577.2,292.2,577.4,297.1z M802.5,369.9c4.5,0.3,4.5,0.3,5.8-3C805.9,366.8,803.6,366,802.5,369.9z"/>
<path fill-rule="evenodd" clip-rule="evenodd" fill="none" d="M309,398.2c-24.6-2.6-49.3-5.1-74.2-7.7c-0.5-2.8-2-4.9-3.4-6.5
	c-0.1-2.4,1.7-3.4,2-5.2c-0.5-2.5-3.5-3-4.7-5.9c5.6-7.2,7.3-16.8,12.1-24.9c2.8-4.7,6.9-8.7,10.2-13.2c5.6-7.7,15-12.4,17-22
	c1.8-2.2,4.3-1.4,6.6-4.1c1.2-1.5,0.4-5.6,4.1-8.8c4.6-0.4,8-3.9,10.6-8.8c2-3.6,5.4-6.1,9.6-8.3c10.5,26.4,27.6,47,52,60.9
	c-0.1,0.7,0,0.9-0.1,1.1c-11.5,12.5-20.2,27-29.1,41.3C318.7,390.8,314.5,394.5,309,398.2z"/>
<path fill-rule="evenodd" clip-rule="evenodd" fill="none" d="M740.3,377.8c5.1-2.1,9.8-2,14.9-0.9c8.2,1.8,16.6,2.9,24.9,4.3
	c1.7,0.3,3.4,0.3,5.3,1.6c-0.6,9.5-0.1,19.3-2.8,30.4c-4.1,4-5.3,10.2-1.8,17.4c-11.5,9.1-15.6,22.7-20.4,35.5
	c-6.8,18.1-14.9,35.5-22.5,53.3c-2.6-0.4-2.2-3.6-4.5-4.2c1.4-14-3.5-25.8-10.3-37.2c-3.5-5.7-6.4-11.8-8.7-18.1
	c-1.7-4.7-1.9-9.2,0.2-13.9C724.6,423.9,733.5,401.4,740.3,377.8z"/>
<path fill-rule="evenodd" clip-rule="evenodd" fill="none" d="M501.1,304.5c6.1-3.7,6.4-9.4,5.7-15.4c-0.8-6.9-1.1-13.8-3.5-20.2
	c1.5-3.6,2.9-6.9,3.6-11.5c19.6,13.8,40.7,22,63.9,25.8c-0.9,9.7-1.1,18.7-1.1,27.8c0,1.8-0.9,3.3-1.7,4.8
	c-5.9,11.2-16.3,22.7-27.5,30.3c-8.3-5-16.9-7.4-25.1,1.5C506.9,334.5,507.2,318.9,501.1,304.5z"/>
<path fill-rule="evenodd" clip-rule="evenodd" fill="none" d="M793.2,330.4c-1.3,2.2-4,2.9-4.9,6c0.7,4,0.7,8.8,4.4,12.1
	c-0.1,3.1-1.9,5.1-3.1,7.8c-13.8,1.2-27.8,2.4-42.6,3.7c2.5-12.2,3.6-24.3,4.3-35.3c9.2-8.4,16.5-17,26-22.4
	c2.2,0.9,1.7,2.4,2.1,3.5c0.3,1,0.7,2,1.1,3.4c4.6,2.5,7.7,6.3,7.9,12.1C788.5,325,791.4,327.6,793.2,330.4z"/>
<path fill-rule="evenodd" clip-rule="evenodd" fill="none" d="M553.3,676c-4.4,1-8.4,3.1-11.3-0.9c-3.8-5.2-3.4-10.8-0.1-16.2
	c2.5-1.8,5-2.8,7.8,0C549.9,664.4,552.6,669.6,553.3,676z"/>
<path fill-rule="evenodd" clip-rule="evenodd" fill="none" d="M524.7,668.7c-7-0.3-7.2-0.5-7.2-5.9c2.1-1,4.4-1,6.8-0.6
	C526.2,664.4,526.8,666.5,524.7,668.7z"/>
<path fill-rule="evenodd" clip-rule="evenodd" fill="none" d="M577.4,297.1c-0.2-4.9-0.4-8.4,0.9-11.8c2.2-0.8,3.9-0.6,5.5,1.4
	C583.1,290.5,580.4,293.1,577.4,297.1z"/>
<path fill-rule="evenodd" clip-rule="evenodd" fill="none" d="M802.5,369.9c1.1-3.8,3.4-3.1,5.8-3C807,370.1,807,370.1,802.5,369.9z
	"/>
<path fill-rule="evenodd" clip-rule="evenodd" fill="none" d="M771.4,495.8c0.1-0.4-0.4-1,0.3-1.3c-0.2,0.4-0.3,0.8-0.4,1.1
	L771.4,495.8z"/>
</svg>
