<?xml version="1.0" encoding="utf-8"?>

<!DOCTYPE svg PUBLIC "-//W3C//DTD SVG 1.1//EN" "http://www.w3.org/Graphics/SVG/1.1/DTD/svg11.dtd">
<svg version="1.1" id="Layer_1" xmlns="http://www.w3.org/2000/svg" xmlns:xlink="http://www.w3.org/1999/xlink"
    viewBox="0 0 962.9 1459.8" xml:space="preserve">
    <g>
        <g>
            <path fill-rule="evenodd" clip-rule="evenodd" fill="none" d="M0.9,0.2c321.3,0,642.6,0,963.9,0c0,487.3,0,974.5,0,1461.8
			c-321.3,0-642.6,0-963.9,0C0.9,974.7,0.9,487.5,0.9,0.2z M871.6,1249.7c1.9,1.8,2.9,2.8,4,3.8c10.6,10.3,22.3,19,35.4,25.6
			c12.3,6.2,25.4,9,39.1,7.9c10.3-0.8,15.1-7.4,12.9-17.5c-0.8-3.6-2.3-6.9-4.5-9.9c-7.8-10.6-15-21.5-21.9-32.7
			c-5-8.1-10.1-16.1-13.7-24.9c-8.4-20.5-14-41.8-18.9-63.4c-2.3-10.2-3.2-20.6-5.9-30.8c-5.5-20.9-12.3-41.4-19.3-61.8
			c-9.3-27.2-18.2-54.4-24.1-82.6c-2.6-12.4-5.9-24.8-10-36.8c-6.1-18.3-14.6-35.6-22.9-52.9c-8.4-17.7-17.6-34.9-27.8-51.6
			c-7.1-11.6-14.7-23-24.4-32.6c-8.2-8.1-15.4-17-23.5-25c2.8-5.3,2.4-7.4-2.1-11.3c-1.1-1-2.3-1.9-3.7-2.6
			c-6.3-3.3-12.6-6.7-19.1-9.6c-13.6-6.1-27.3-11.9-41-17.9c-5.6-2.5-11.5-5.1-15.6-9.7c-10.1-11.3-22.2-21.1-26.7-36.5
			c-0.8-2.6-2-5.2-3.2-7.8c-3.4-7.1-6.7-14.4-9.6-21.7c-4.7-11.8-10.3-23.2-15.1-34.9c-3-7.3-6.3-14.4-8.4-21.6
			c2.4-5.5,5.7-9.9,8.9-14.3c5.5-7.7,11.9-14.8,15.8-23.5c5.8-13,10.6-26.4,14.5-40.1c1.8-6.4,2.9-12.8,2.7-19.6
			c-0.3-8.8-1.4-17.5-0.8-26.4c0.3-4.3,0.3-8.7,3.6-12.1c4-4.1,6.9-8.9,9.8-13.8c4.8-7.8,8.7-16.1,14.2-23.5
			c3.3-4.4,6.5-8.8,9.4-13.5c9-14.5,16.9-29.7,26.9-43.7c4.1-5.7,9.1-10.4,15.4-13.7c1.5,2.5,3.4,4.2,4.3,6.9
			c3.7-4,5.1-8.7,7.5-12.8c4.7-8.2,9.5-16.4,14.1-24.6c8.3-14.8,13.4-31,19.5-46.7c3.6-9.3,6.9-18.6,10.5-27.9
			c1.2-3.2,2.2-6.3,1.9-9.7c-0.2-2.4,0.5-4.5,1.8-6.5c3-4.6,5.7-9.4,8.4-14.1c2.3-4,3.4-8.4,2.5-13c-0.7-3.4-0.1-6.6,1.3-9.6
			c1.2-2.6,1.3-5.3,0.4-7.8c-1.6-4.3-1.7-9.2-5.6-12.2c5.2-15.8,10.3-31.3,15.4-46.7c9.8-29.2,19.8-58.3,29.7-87.5
			c2.7-8,5.4-16,8.1-24c0.6-1.9,1.7-3.7-1.8-4.6c-21.8,52.9-37.8,107.9-62.8,159.2c-2.3,0.3-4.2-1.8-6.7-0.1c-0.1,2.4,1.7,5,0,7.6
			c-1.7,1.3-3.6,2.8-5.4,4.1c-2.4,1.8-4.1,4.2-4.2,7.1c-0.3,5.8-2.4,11.4-2.5,17.2c-0.1,3.8-0.2,7.8-2.2,11.1
			c-5.4,8.9-11.2,17.6-16.8,26.5c-4.9,7.7-9.7,15.4-14.2,22.6c-0.4,2.2,1.6,2.7,1.2,4.7c-3.1,2.9-6.6,6-9.8,9.4
			c-7.3,7.7-14.6,15.4-20.5,24.3c-2.4,3.6-3.8,7.8-6.6,11.1c-3.2,3.8-5.6,8.2-8.2,12.5c-5.5,8.9-10.8,17.9-19.4,24.4
			c-9.5,7.2-18.8,14.7-28.2,22.1c-6.8,5.4-12.7,11.6-19.2,17.3c-11.3,9.9-23.3,19.2-32.4,31.5c-1.7,2.3-4,4.1-7.2,2.9
			c-1.4-1.6-1.9-3.6-1.4-5.3c1.8-5.4,1.2-11.3,3.4-16.5c3.9-9.2,8.1-18.2,12.5-27.1c2.4-4.9,4.4-10,5.7-15.3
			c2.6-10.4,2.3-20.1-5.4-28.5c-1.7-1.9-3.5-4-4-6.8c5.1-2.5,10.3-3.7,16.2-4.8c14,6.8,23.9,19.1,35.6,30.3
			c5.6-6.6,10-14.2,16.3-20.1c-0.6-0.8-0.8-1.3-1.1-1.6c-9.6-8.1-20.1-14.9-31.9-19.1c-9-3.3-18.5-3.9-27.9-1.7
			c-5.9,1.4-10.9,4.6-15.4,8.5c-0.9-0.2-1.6-0.3-2.1-0.6c-11.6-6.3-23.8-9-36.9-6.7c-6.8,1.2-13.8,1.8-20.2,5.1
			c-10,5.3-18.6,12.3-27.1,19.6c-6.3,5.3-6.8,8.1-3.5,16.3c-0.4,1.6-1,3.3-1.3,5.1c-1,5-3.4,9.7-2.7,15c0.5,3.5-0.7,6.3-2.7,9.2
			c-3.3,4.8-6.8,9.8-6.1,16.3c1.8,1.4,4.2,1.6,5.6,4.4c0.1,7.5-1.8,16.3,6.6,21.9c-0.4,9.4-0.8,18.5-1.1,27.3c2,2.4,4.2,1.6,6.1,0.8
			c3.8-1.6,7.5-3.6,10.7-6.2c2.5-2,5.1-3.8,8-5c1.8-0.7,3.5-0.8,5.2,0.3c4.7,3.1,5.1,6.9,0.6,10.4c-7.2,5.5-14.1,11.4-21.8,16
			c-5.8,3.5-10.9,7.8-16.4,11.6c-4,2.8-6.3,7.1-9.4,10.6c-5.2,5.8-9.5,12.2-11.5,19.9c-2.2,8.5-4.2,17-6.4,25.4
			c-2.7,10.6-5.1,21.2-7.6,31.8c-0.9,3.7-0.8,7.8-3.7,11.3c-5.2-4.3-10.4-8.2-16.4-10.7c-0.9-0.4-1.7-1.1-2.4-1.8
			c-1.3-1.1-1.6-2.4-0.8-4c3.6-2.2,7.9,1.9,11.3-1.1c1.2-11.7-0.9-15.2-16.8-27.6c2.3-9.9-4.1-16.3-10.1-22.9c0.8-0.7,1.6-0.9,2.5-1
			c3.8-0.6,7.4,1.1,11.8,1.8c-4.7-12.5-13.7-20.1-24.9-26c4.9-2,9.4-2.5,14.9-3.7c-11.4-9.9-25-14.1-36.3-21.9
			c-0.1-0.7,0.4-1,0.8-1.3c6.8-4.7,6.5-10.6,3.2-15.4c-2.3-3.4-5-6.6-7.8-9.6c-8.1-8.5-16.9-16.3-26-23.6c-2-1.6-4-3.4-6.5-4.6
			c-8.2-4.2-16.7-7.9-23.6-14.3c-5.2-4.9-11.1-9-16.6-13.6c-6-5.1-10.2-11.8-15.2-17.7c-0.5-3.3-1.8-6.5-0.7-9.4
			c-1.3-4.8-4.5-6.1-8.5-6.1c-3.2,0-6.3-0.1-9.5,0.5c-3.6,0.7-7.3,0.7-11,0.3c-1.1-2.5-2.3-4.8-3.2-7.3
			c-4.4-11.4-11.4-20.5-22.6-25.9c-4.1-2-8.6-3.2-13-2c-2.3,4.7-1.5,9.4-1.4,13.6c0.4,10.1,2.9,20,7.8,29c2.9,5.4,0.2,12.8-5.7,14.5
			c-6.2,1.7-12.6,2.7-18.9,2.2c-4.5-5.6-8.8-10.9-13.1-16.1c-4.9-5.9-9.9-11.8-10.1-20c-0.2-4.7-0.8-9.4-1.4-14.1
			c-1.1,0-1.4,0.9-1.7,1.6c-4.5,11.9-6.3,24.1-3.8,36.7c1.9,9.4,6.3,17.8,11.5,25.8c4.2,6.4,7.1,13,6,21c-1.1,8.1-1.1,16.3-1.1,24.4
			c0,0.8-0.2,1.6-0.5,2.4c-2.3,7.3-3.7,14.8-6.8,21.8c-2.4,5.3-2.1,10.6,0,16c2.1,5.4,4.4,10.8,7.7,15.6c1.5,2.3,2.7,4.6,3.2,7.2
			c2,9.7,3.4,19.6,4.4,29.4c0.8,7.9,2,15.8,2.7,23.7c0.4,5.6,1.9,11.2,1.9,16.8c0,2.5-0.1,4.8,1.6,6.7c-1,1.9-1.1,3.7-1.1,5.6
			c0,4.7-0.2,9.3,0,14c0.6,10.5-1.4,20.9-1,31.4c0.2,5.9,1.9,11,7.8,13.9c6.9,3.4,11.5,8.5,12.3,16.6c0.4,3.8,2.7,5.6,6.5,5.4
			c2.1-0.1,4.3-0.4,6.4-0.9c3.7-0.9,7.4-2.1,11.4-1.3c0.3,0.2,0.8,0.5,1.1,0.8c8.5,7.4,19.4,5.7,25.1-4.1c2-3.4,3.5-7.1,5.2-10.7
			c2.7-5.6,3.1-11.3,1.9-17.4c-0.6-3.1-2.1-6.4-1.1-9.5c2-2.8,4.5-4.9,5.4-7.6c-0.7-6.5-6.7-10.4-6.7-17.3c3.6-1.4,2.5-5.9,5.1-8.5
			c3.2,2.9,3.4,6.6,3.6,10.2c0.6,8.5-0.6,17-1.4,25.4c-0.5,5.3-0.4,10.6-1.1,15.9c-1.1,8.9-1,18-0.2,26.9c0.6,6,1.1,12,0.5,17.9
			c-0.4,4.1-0.3,7.9,0.9,11.7c1.6,5.3,1.2,11-1.2,15.5c-4.9,9.2-5.7,19.6-9.7,29.1c-1.4,3.3-0.7,7.2-1.6,10.7
			c-1.1,4.5-0.4,9.4-2.6,13.9c-1,1.9-0.6,4.4,2.3,5.5c-2,2.2-2.2,4.4-2.5,6.7c-0.7,5.5-1,11.1-4.4,16.1c-4,5.8-5.6,12.6-6.9,19.5
			c-2.2,11.8,0,23.5,0.1,35.3c0,0.7,0.2,1.3,0.4,1.9c2.4,8.3,4.6,16.6,7.1,24.8c2.1,7.1,4.4,14.1,6.7,21.3c-2.5,2.8-7.2,3.1-7.9,7.7
			c-2.4-0.8-4.3,0.1-6,1.5c-9,7.4-19.5,12.8-27.2,22c-6.4,7.6-15.1,12.7-23.8,17.4c-3.8,2.1-7.6,4.2-10.4,7.5
			c-5.1,6.1-5.8,13.2-4.5,20.7c1.1,6.5,2.2,13.1,3.6,19.5c1.7,7.8,2.5,15.7,3.6,23.6c1,7.5,2.7,15,2.3,22.7
			c-0.6,9.3-3.1,18.2-4.5,27.4c-1.3,8.5-4,16.7-4,25.4c0,4.9,0,10,2.7,14.4c3.3,5.3,6.4,10.8,9.4,16.3c3,5.5,3.7,10.8,2.9,17.1
			c-1,7.3-1,14.9,0.2,22.4c1.3,7.8,3.6,15.4,5.7,23c1.4,5.1,2.8,10.2,5.2,15c1.6,3.2,4,5,7.9,5c5.2,0,9.8-1.5,14.2-3.8
			c8-4,14.4-10,20.3-16.7c5.7-6.4,7.7-13.5,5.7-22c-2-8.1-5.6-15.2-10.2-22c-2.4-3.5-4.8-7.2-9.2-8.8c-4-1.5-7.1-7-6.1-11.2
			c2.4-10.7,0.7-21.2-1.6-31.5c-2.2-10.1-4.6-20-4.2-30.4c0.3-7.3,0.4-14.6,0.8-21.9c0.5-12.3,1.5-24.5,3.4-36.6
			c1.3-8.2,0.9-8.1,8.6-10.1c15.4-4.1,31.3-5.3,47.1-7c5.1-0.5,10.2-0.9,15.4-1.4c7.3-0.6,14.5-1.9,21.8-1.6
			c1.8,1.3,3.5,2.5,5.2,3.9c15.1,12.9,32.7,19.2,52.6,19c7.3-0.1,14.6,1,21.9,1.3c4.2,0.2,8.6,0.1,12.7,1.2c0.5,3.2,0.7,6.3,0.1,9.2
			c-1.3,5.6-0.9,11.2-1.5,16.8c-1.2,10.2-2.1,20.4-3.4,30.6c-0.6,4.6-2.3,8.8-5.1,12.7c-5.8,8.1-10.6,16.7-10.8,27.3
			c-0.3,13.7,1.5,27.3,1.2,40.9c0,0.9,0.5,1.9,0.7,2.8c-1.1,1-2.3,2.1-2.5,3.6c-2,12-6.4,23.3-9.9,34.9c-1.5,4.9-3.8,9.1-7,13
			c-1.6,1.9-3.1,3.9-4.6,5.9c-6.8,8.7-9.1,18.4-6.9,29.3c0.9,4.5,0.5,8.9-4,11.9c-2.6,1.8-5,3.9-7.2,6.1
			c-9.1,9.4-13.7,21.2-17.5,33.5c-1.7,1.5-4,2.2-6.5,2.6c-9,1.5-18,3.3-27,4.8c-31,5.4-62,10.7-93,16.1c-1.4,0.3-3,0.3-4.5,2
			c0,19.9,0,40.2,0,60.8c-32.6,8.6-64.9,17.1-97.4,25.6c0,17.9,0,35.1,0,52.8c-34.9,8.6-69.6,17.2-104.2,25.8c0,0.3,0.1,0.5,0.1,0.8
			c299,0,598,0,897.3,0c0-7.7,0-15.1,0-22.6c-9.1-5-19.3-7.1-28.6-11.8c0.4-5.7-3.3-10.8-0.8-16.9c6.3-5.5,8-13.6,8.5-22
			c0.6-10.2-1.9-20-5.9-29.1c-4.7-10.7-6.3-22-7.8-33.2c-1.1-8.3-0.4-16.9-1-25.3c-0.8-11.3-0.3-22.7-0.2-34
			C866.9,1260.4,869.5,1255.5,871.6,1249.7z" />
            <path fill-rule="evenodd" clip-rule="evenodd" d="M871.6,1249.7c-2.1,5.8-4.7,10.7-4.7,16.3c-0.1,11.3-0.6,22.7,0.2,34
			c0.6,8.5-0.1,17,1,25.3c1.5,11.3,3.1,22.5,7.8,33.2c4,9,6.5,18.9,5.9,29.1c-0.5,8.4-2.2,16.5-8.5,22c-2.6,6.1,1.2,11.3,0.8,16.9
			c9.3,4.7,19.4,6.8,28.6,11.8c0,7.4,0,14.9,0,22.6c-299.3,0-598.3,0-897.3,0c0-0.3-0.1-0.5-0.1-0.8c34.7-8.6,69.3-17.1,104.2-25.8
			c0-17.7,0-34.9,0-52.8c32.5-8.6,64.8-17.1,97.4-25.6c0-20.6,0-40.9,0-60.8c1.5-1.6,3-1.7,4.5-2c31-5.4,62-10.7,93-16.1
			c9-1.6,18-3.3,27-4.8c2.5-0.4,4.8-1.1,6.5-2.6c3.8-12.3,8.4-24.1,17.5-33.5c2.2-2.3,4.6-4.4,7.2-6.1c4.5-3,4.9-7.5,4-11.9
			c-2.2-10.9,0.2-20.6,6.9-29.3c1.5-2,3.1-3.9,4.6-5.9c3.1-3.9,5.5-8.1,7-13c3.5-11.6,7.9-22.9,9.9-34.9c0.3-1.5,1.4-2.6,2.5-3.6
			c-0.2-1-0.7-1.9-0.7-2.8c0.3-13.7-1.5-27.3-1.2-40.9c0.2-10.6,5-19.2,10.8-27.3c2.9-4,4.5-8.1,5.1-12.7
			c1.3-10.2,2.2-20.4,3.4-30.6c0.6-5.6,0.3-11.3,1.5-16.8c0.7-2.9,0.4-5.9-0.1-9.2c-4.1-1.1-8.5-1.1-12.7-1.2
			c-7.3-0.3-14.6-1.4-21.9-1.3c-19.9,0.2-37.4-6.1-52.6-19c-1.6-1.4-3.4-2.6-5.2-3.9c-7.3-0.4-14.5,0.9-21.8,1.6
			c-5.1,0.5-10.2,0.8-15.4,1.4c-15.8,1.6-31.7,2.9-47.1,7c-7.7,2-7.4,1.9-8.6,10.1c-1.9,12.1-2.9,24.3-3.4,36.6
			c-0.3,7.3-0.5,14.6-0.8,21.9c-0.4,10.4,2,20.4,4.2,30.4c2.3,10.4,4,20.8,1.6,31.5c-0.9,4.2,2.2,9.7,6.1,11.2
			c4.4,1.7,6.8,5.3,9.2,8.8c4.5,6.8,8.2,13.9,10.2,22c2.1,8.5,0.1,15.6-5.7,22c-5.9,6.6-12.3,12.6-20.3,16.7
			c-4.5,2.3-9.1,3.8-14.2,3.8c-3.9,0-6.2-1.7-7.9-5c-2.4-4.8-3.8-9.9-5.2-15c-2.1-7.6-4.4-15.2-5.7-23c-1.2-7.5-1.3-15-0.2-22.4
			c0.9-6.3,0.1-11.6-2.9-17.1c-3-5.5-6.1-10.9-9.4-16.3c-2.7-4.5-2.7-9.5-2.7-14.4c0-8.7,2.7-16.9,4-25.4c1.4-9.1,4-18.1,4.5-27.4
			c0.5-7.7-1.3-15.2-2.3-22.7c-1.1-7.9-1.9-15.8-3.6-23.6c-1.4-6.5-2.5-13-3.6-19.5c-1.3-7.5-0.6-14.6,4.5-20.7
			c2.8-3.4,6.6-5.5,10.4-7.5c8.7-4.7,17.5-9.8,23.8-17.4c7.7-9.2,18.2-14.6,27.2-22c1.7-1.4,3.6-2.3,6-1.5c0.6-4.6,5.4-4.9,7.9-7.7
			c-2.3-7.2-4.6-14.3-6.7-21.3c-2.5-8.2-4.8-16.5-7.1-24.8c-0.2-0.6-0.4-1.3-0.4-1.9c-0.2-11.8-2.3-23.5-0.1-35.3
			c1.3-6.9,2.9-13.7,6.9-19.5c3.4-4.9,3.7-10.5,4.4-16.1c0.3-2.4,0.5-4.5,2.5-6.7c-2.9-1.1-3.3-3.6-2.3-5.5
			c2.3-4.5,1.5-9.3,2.6-13.9c0.9-3.6,0.2-7.4,1.6-10.7c4-9.4,4.7-19.8,9.7-29.1c2.4-4.5,2.9-10.2,1.2-15.5
			c-1.2-3.9-1.4-7.6-0.9-11.7c0.6-5.9,0.1-11.9-0.5-17.9c-0.8-8.9-0.9-18,0.2-26.9c0.6-5.3,0.6-10.6,1.1-15.9
			c0.8-8.4,2-16.9,1.4-25.4c-0.2-3.6-0.4-7.3-3.6-10.2c-2.7,2.6-1.6,7.1-5.1,8.5c0,6.9,6,10.8,6.7,17.3c-0.8,2.7-3.4,4.7-5.4,7.6
			c-1,3.1,0.5,6.4,1.1,9.5c1.2,6.1,0.9,11.8-1.9,17.4c-1.7,3.6-3.2,7.3-5.2,10.7c-5.7,9.8-16.6,11.5-25.1,4.1
			c-0.4-0.3-0.8-0.6-1.1-0.8c-4-0.9-7.7,0.4-11.4,1.3c-2.1,0.5-4.3,0.8-6.4,0.9c-3.8,0.1-6.1-1.7-6.5-5.4
			c-0.8-8.1-5.4-13.2-12.3-16.6c-5.9-2.9-7.5-8-7.8-13.9c-0.4-10.5,1.6-20.9,1-31.4c-0.3-4.7,0-9.3,0-14c0-1.8,0.1-3.6,1.1-5.6
			c-1.7-1.9-1.6-4.2-1.6-6.7c0-5.6-1.4-11.2-1.9-16.8c-0.6-7.9-1.8-15.8-2.7-23.7c-1-9.9-2.4-19.7-4.4-29.4c-0.5-2.6-1.7-5-3.2-7.2
			c-3.3-4.8-5.6-10.2-7.7-15.6c-2.1-5.4-2.4-10.7,0-16c3.1-7,4.5-14.6,6.8-21.8c0.2-0.8,0.5-1.6,0.5-2.4c-0.1-8.2-0.1-16.3,1.1-24.4
			c1.1-7.9-1.8-14.5-6-21c-5.2-7.9-9.6-16.4-11.5-25.8c-2.5-12.5-0.6-24.8,3.8-36.7c0.3-0.7,0.7-1.6,1.7-1.6
			c0.6,4.7,1.2,9.4,1.4,14.1c0.3,8.2,5.3,14.1,10.1,20c4.3,5.3,8.6,10.6,13.1,16.1c6.3,0.5,12.7-0.5,18.9-2.2
			c5.9-1.7,8.6-9.1,5.7-14.5c-4.9-9.1-7.5-18.9-7.8-29c-0.2-4.3-1-8.9,1.4-13.6c4.4-1.1,8.9,0,13,2c11.2,5.4,18.2,14.5,22.6,25.9
			c0.9,2.5,2.1,4.8,3.2,7.3c3.8,0.4,7.4,0.4,11-0.3c3.1-0.6,6.3-0.5,9.5-0.5c4,0,7.2,1.3,8.5,6.1c-1.1,2.9,0.2,6,0.7,9.4
			c5,5.9,9.2,12.6,15.2,17.7c5.5,4.6,11.3,8.7,16.6,13.6c6.9,6.4,15.4,10.1,23.6,14.3c2.4,1.2,4.4,3,6.5,4.6
			c9.1,7.4,17.9,15.1,26,23.6c2.8,3,5.5,6.2,7.8,9.6c3.3,4.8,3.6,10.7-3.2,15.4c-0.4,0.3-0.8,0.5-0.8,1.3
			c11.2,7.8,24.8,11.9,36.3,21.9c-5.6,1.2-10.1,1.7-14.9,3.7c11.2,6,20.2,13.5,24.9,26c-4.4-0.8-7.9-2.4-11.8-1.8
			c-0.8,0.1-1.6,0.3-2.5,1c5.9,6.6,12.3,13.1,10.1,22.9c15.8,12.4,17.9,15.9,16.8,27.6c-3.4,2.9-7.7-1.1-11.3,1.1
			c-0.8,1.5-0.4,2.9,0.8,4c0.7,0.7,1.5,1.4,2.4,1.8c6,2.5,11.2,6.4,16.4,10.7c2.8-3.5,2.8-7.6,3.7-11.3c2.5-10.6,4.9-21.3,7.6-31.8
			c2.2-8.5,4.2-17,6.4-25.4c2-7.7,6.3-14.1,11.5-19.9c3.2-3.5,5.4-7.9,9.4-10.6c5.5-3.8,10.6-8.1,16.4-11.6
			c7.8-4.6,14.7-10.6,21.8-16c4.5-3.4,4.1-7.3-0.6-10.4c-1.7-1.1-3.4-1.1-5.2-0.3c-3,1.2-5.5,3-8,5c-3.3,2.6-6.9,4.6-10.7,6.2
			c-1.9,0.8-4.1,1.6-6.1-0.8c0.4-8.8,0.7-17.9,1.1-27.3c-8.4-5.6-6.5-14.4-6.6-21.9c-1.4-2.8-3.8-3-5.6-4.4
			c-0.6-6.5,2.8-11.4,6.1-16.3c2-2.9,3.2-5.8,2.7-9.2c-0.7-5.3,1.7-10,2.7-15c0.4-1.8,0.9-3.5,1.3-5.1c-3.3-8.2-2.8-11,3.5-16.3
			c8.5-7.2,17.1-14.3,27.1-19.6c6.4-3.3,13.3-4,20.2-5.1c13.1-2.2,25.3,0.5,36.9,6.7c0.6,0.3,1.3,0.4,2.1,0.6
			c4.5-3.9,9.5-7.1,15.4-8.5c9.5-2.2,18.9-1.6,27.9,1.7c11.8,4.3,22.3,11,31.9,19.1c0.4,0.3,0.5,0.8,1.1,1.6
			c-6.3,6-10.7,13.5-16.3,20.1c-11.7-11.2-21.6-23.5-35.6-30.3c-5.8,1.1-11.1,2.3-16.2,4.8c0.6,2.8,2.3,4.9,4,6.8
			c7.7,8.4,8,18.1,5.4,28.5c-1.3,5.3-3.3,10.4-5.7,15.3c-4.4,8.9-8.6,18-12.5,27.1c-2.2,5.2-1.6,11.1-3.4,16.5
			c-0.6,1.7,0,3.6,1.4,5.3c3.2,1.2,5.5-0.6,7.2-2.9c9.1-12.3,21.1-21.5,32.4-31.5c6.5-5.7,12.4-12,19.2-17.3
			c9.4-7.4,18.7-14.8,28.2-22.1c8.6-6.5,13.9-15.5,19.4-24.4c2.6-4.2,5-8.6,8.2-12.5c2.8-3.3,4.3-7.5,6.6-11.1
			c5.9-8.8,13.2-16.6,20.5-24.3c3.2-3.4,6.7-6.5,9.8-9.4c0.4-2-1.6-2.5-1.2-4.7c4.5-7.1,9.3-14.9,14.2-22.6
			c5.6-8.8,11.3-17.6,16.8-26.5c2-3.3,2.1-7.3,2.2-11.1c0.1-5.9,2.1-11.4,2.5-17.2c0.2-2.9,1.8-5.3,4.2-7.1c1.9-1.4,3.7-2.8,5.4-4.1
			c1.7-2.6-0.1-5.3,0-7.6c2.5-1.8,4.4,0.4,6.7,0.1c25-51.3,41-106.3,62.8-159.2c3.4,0.9,2.4,2.8,1.8,4.6c-2.7,8-5.4,16-8.1,24
			c-9.9,29.2-19.8,58.3-29.7,87.5c-5.2,15.4-10.2,30.8-15.4,46.7c3.9,3,4,8,5.6,12.2c0.9,2.5,0.8,5.1-0.4,7.8
			c-1.3,3-1.9,6.1-1.3,9.6c0.9,4.6-0.2,9-2.5,13c-2.7,4.8-5.5,9.5-8.4,14.1c-1.3,2.1-2.1,4.1-1.8,6.5c0.3,3.4-0.7,6.5-1.9,9.7
			c-3.6,9.2-6.9,18.6-10.5,27.9c-6.1,15.7-11.3,31.9-19.5,46.7c-4.6,8.3-9.4,16.4-14.1,24.6c-2.4,4.1-3.8,8.7-7.5,12.8
			c-0.9-2.7-2.8-4.4-4.3-6.9c-6.3,3.3-11.3,7.9-15.4,13.7c-9.9,14-17.9,29.1-26.9,43.7c-2.9,4.7-6.1,9.1-9.4,13.5
			c-5.5,7.3-9.4,15.7-14.2,23.5c-3,4.8-5.8,9.7-9.8,13.8c-3.3,3.4-3.3,7.8-3.6,12.1c-0.6,8.8,0.5,17.6,0.8,26.4
			c0.2,6.8-0.9,13.2-2.7,19.6c-3.9,13.7-8.7,27.1-14.5,40.1c-3.9,8.7-10.3,15.8-15.8,23.5c-3.2,4.5-6.5,8.8-8.9,14.3
			c2.1,7.2,5.4,14.4,8.4,21.6c4.8,11.7,10.3,23.1,15.1,34.9c2.9,7.3,6.2,14.6,9.6,21.7c1.2,2.5,2.4,5.2,3.2,7.8
			c4.6,15.4,16.7,25.2,26.7,36.5c4.1,4.6,9.9,7.2,15.6,9.7c13.6,6,27.4,11.8,41,17.9c6.5,2.9,12.8,6.3,19.1,9.6
			c1.3,0.7,2.5,1.6,3.7,2.6c4.5,3.9,4.9,6,2.1,11.3c8.1,8,15.4,16.9,23.5,25c9.7,9.6,17.2,21,24.4,32.6c10.3,16.7,19.4,34,27.8,51.6
			c8.3,17.3,16.7,34.6,22.9,52.9c4,12,7.4,24.4,10,36.8c5.9,28.2,14.8,55.4,24.1,82.6c7,20.4,13.8,40.9,19.3,61.8
			c2.7,10.1,3.6,20.6,5.9,30.8c4.9,21.5,10.5,42.9,18.9,63.4c3.6,8.8,8.8,16.8,13.7,24.9c6.9,11.2,14.1,22.1,21.9,32.7
			c2.2,3,3.7,6.3,4.5,9.9c2.2,10.1-2.6,16.7-12.9,17.5c-13.8,1-26.8-1.7-39.1-7.9c-13.2-6.6-24.9-15.4-35.4-25.6
			C874.5,1252.5,873.5,1251.5,871.6,1249.7z M727,1055.2c-2.5,4.1-5.1,7.8-7,11.8c-5.3,10.9-13.1,19.3-22.8,26.6
			c-9.4,7.1-18.9,14-28.6,20.7c-8.4,5.8-14.1,13.4-17.9,22.7c-6.7,16.5-10.9,33.7-14.8,50.9c-1.6,7.2-4.1,14.3-4.2,21.9
			c0,7.4,0.4,14.6,2.7,21.6c2.9,8.6,0.3,15.4-5.9,21.6c-4.6,4.6-9.5,8.7-14.9,12.4c-5.8,3.9-11.3,8.2-15.9,13.6
			c-6.5,7.6-12.6,15.5-18.4,23.5c-2.4,3.4-5.4,6.6-6.7,10.7c6.9,4.1,243.3,93.4,247.6,93.5c2.8-5,7.6-8,12.4-11.7
			c-1.3-2.3-1-4.8-1.3-7.3c-1-12.3,2.4-23.6,7.1-34.7c0.9-2.2,1.8-4.4,1.9-6.6c0.6-10.8,0.1-21.6-1.3-32.3
			c-0.9-7.2-2.4-14.3-3.6-21.5c-2.4-15-5.6-29.9-10.9-44.2c-4.7-12.9-9.2-25.9-11.1-39.6c-2.1-15.5-6.4-30.4-13-44.6
			c-7.5-16.1-15-32.1-20.7-48.9c-2.9-8.6-7-16.8-13.9-23.2c-8.5-8-17.2-15.7-25.3-24.1C736.5,1063.5,731.8,1059.6,727,1055.2z
			 M475.4,1008c-2.5,0.9-2.6,2.6-3.2,4c-5,12.3-9.6,24.8-15.3,36.8c-3.8,7.9-5.4,16.3-6,25c-0.5,6.8-1.3,13.5-2.5,20.2
			c-1.9,10.6-5.7,20.7-9,31c-3.9,12.1-8.7,24-11.5,36.5c-3.9,17.4-5.6,35.3-9,52.8c-2,10.3-5.5,19.8-13.6,27c-1,0.9-2.1,1.6-2.4,3.5
			c1.8,3.8,3.7,8,6.4,12.4c5.4-3.3,10.1-1,15.1,0.8c25.9,9.8,51.9,19.6,77.9,29.3c6.8,2.6,13.6,5,20.5,7.6c1.2-1.7,2.2-3,3.2-4.3
			c19.4-26.4,34.3-55.5,50-84.2c3.2-5.8,4.7-11.9,4.6-18.6c-0.1-6.2-1.2-12.1-2-18.2c-1.5-11.8-3.1-23.7-6.5-35
			c-5.1-17-3.2-34.1-3.1-51.8c-9.7-14.7-15.2-31.6-18.7-49.3C523.2,1030.1,498.3,1021,475.4,1008z" />
            <path fill-rule="evenodd" clip-rule="evenodd" fill="none"
                d="M727,1055.2c4.8,4.4,9.5,8.3,13.8,12.7c8.1,8.3,16.9,16.1,25.3,24.1
			c6.9,6.5,11,14.6,13.9,23.2c5.7,16.9,13.2,32.9,20.7,48.9c6.6,14.2,10.9,29.1,13,44.6c1.9,13.7,6.3,26.7,11.1,39.6
			c5.3,14.4,8.5,29.2,10.9,44.2c1.2,7.2,2.7,14.3,3.6,21.5c1.3,10.7,1.8,21.5,1.3,32.3c-0.1,2.3-1,4.5-1.9,6.6
			c-4.7,11.1-8.1,22.4-7.1,34.7c0.2,2.5,0,5,1.3,7.3c-4.8,3.7-9.7,6.7-12.4,11.7c-4.3-0.2-240.7-89.4-247.6-93.5
			c1.2-4.1,4.2-7.4,6.7-10.7c5.9-8.1,11.9-16,18.4-23.5c4.6-5.3,10-9.7,15.9-13.6c5.4-3.6,10.3-7.8,14.9-12.4
			c6.2-6.1,8.8-13,5.9-21.6c-2.3-7-2.7-14.2-2.7-21.6c0-7.6,2.5-14.6,4.2-21.9c3.9-17.3,8.1-34.5,14.8-50.9
			c3.8-9.3,9.5-16.9,17.9-22.7c9.7-6.7,19.2-13.6,28.6-20.7c9.6-7.2,17.5-15.7,22.8-26.6C721.9,1063,724.5,1059.3,727,1055.2z" />
            <path fill-rule="evenodd" clip-rule="evenodd" fill="none" d="M475.4,1008c22.9,13,47.8,22.1,75,25.4c3.5,17.8,8.9,34.7,18.7,49.3
			c-0.1,17.7-2,34.8,3.1,51.8c3.4,11.4,5,23.2,6.5,35c0.8,6.1,1.9,12,2,18.2c0.1,6.7-1.4,12.8-4.6,18.6
			c-15.7,28.6-30.6,57.7-50,84.2c-1,1.3-2,2.7-3.2,4.3c-6.9-2.5-13.7-5-20.5-7.6c-26-9.7-52-19.5-77.9-29.3c-5-1.9-9.7-4.1-15.1-0.8
			c-2.8-4.3-4.6-8.6-6.4-12.4c0.2-1.9,1.4-2.7,2.4-3.5c8.2-7.2,11.6-16.7,13.6-27c3.4-17.5,5.2-35.4,9-52.8
			c2.8-12.5,7.5-24.4,11.5-36.5c3.3-10.2,7.2-20.3,9-31c1.2-6.7,2-13.4,2.5-20.2c0.6-8.6,2.3-17,6-25c5.7-12,10.3-24.5,15.3-36.8
			C472.8,1010.7,472.9,1009,475.4,1008z" />
        </g>
    </g>
</svg>