<?xml version="1.0" encoding="utf-8"?>

<!DOCTYPE svg PUBLIC "-//W3C//DTD SVG 1.1//EN" "http://www.w3.org/Graphics/SVG/1.1/DTD/svg11.dtd">
<svg version="1.1" id="Layer_1" xmlns="http://www.w3.org/2000/svg" xmlns:xlink="http://www.w3.org/1999/xlink" x="0px"
    y="0px" viewBox="0 0 689.8 951.9" xml:space="preserve">
    <g>
        <path fill-rule="evenodd" clip-rule="evenodd" fill="none" d="M304.9,953.8c-101,0-202,0-303.1,0c0-317.3,0-634.6,0-951.9
		c230.5,0,461.1,0,691.6,0c0,317.3,0,634.6,0,951.9c-123.3,0-246.7,0-370,0c12.3-1.9,24.8-3.4,37-6c13.6-2.9,28.6-3,38.3-16.4
		c1.3,3.7,5.2,2.1,7.5,2.9c0.4,2.6-2.4,4.5,0.6,7.2c5.3-3.7,12.2-3,18.3-5.7l-0.2,0.2c3.2-1,6.4-2.1,9.3-3c4.1-7.6,1.5-14-1.7-20.2
		c11.7-25.7,4-54.1,12.4-80.1c2.4-1,4.3-3.5,7.3-2.2c2.7,5.2,1.5,10.7,1.5,16c2.4-9.3,2.7-18.3-1.2-27.6
		c-8.2-19.8-9.3-28.7,11.1-45.6c8.1-6.7,11.9-20.2,8.1-29.3c1.4-11.6-8.4-13.8-15.8-17.7c-3,2.7-2.2,7.2-2.7,11.3
		c-3.5,1.7-8.7,0.3-10,5.6c2.8,1,6.4-1.9,8.3,1.9c0.3,5.9-6.9,5.1-8.5,9.5c9.6-1,19.4-4.7,29-10.8c-2,10.2-3.3,22.6-12.7,27
		c-12.4,5.8-20.3,14.5-27.1,25.3c6.5,7.6,2.9,11.7-4.7,14.1c0.6,3.3,5.7,2.5,4.2,9.7c-17.1,10-4,30.5-15.9,51.9
		c-5.6,5.5-11,22.2-29.2,25.6c1.9,1.4,3.2,2.5,5.3,4c-11.3,4.2-17,13.7-23.4,22.6c-2.9-4,3.4-4.5,0.2-7.6c-6.4,1.3-13,3.6-19.6,3.8
		c-6.6,0.2-13.9,3.9-19.9-1.4c-0.3-2.7,4.1-0.6,2.3-5.2c-8.1,5.5-16.8,3.6-25.5,1c4.5,3.8,9.6,5.1,18.3,4.3
		c-15.4,3.1-27.3,1.3-39-2.4c-0.9,3.2,3.5,4.4,1,7.2c-6,1.3-9.5-3.2-12.7-5.5c-7.6,3.9-15.8-3.9-21.8,2.9c-4.2-2.4-7.9-4.4-11.4-6.4
		c-0.6-3.2,1.2-4.9,5-7.7c-8.7,2.9-14-0.5-19.7-4.3c-0.4,7.9-6.6,7.8-15.1,10c7.4,0.2,10.9,1.5,11.1,6.7c2.3-2-0.3-5.3,3.6-6.1
		c6.7,3.3-0.2,17.1,12.3,17.5c-0.4-3.1-0.7-5.4-1.1-8.1C259.7,933.3,277.9,953.3,304.9,953.8z M329.2,857.2c1-5,5.2-9.8,0.5-15.3
		c-0.8,3.7,0.4,7.5-2.7,11.2c-8.3,4.7-17,5.1-25.6-1.2c-0.9-4.2,0.1-8.1,1.6-12c1.5-9,11.7-4.6,16.3-10.2
		c-22.3,1.4-32.7,12.5-26.7,27.4c-2.5,3.7-6.1,5.7-10.3,6.2c1.4,12.4,17.7,25.2,33.5,26c14.8,0.7,36.1-9,38.9-34.3
		c-3-14.1-9.7-22.6-25.3-20.3c0.3-2,0.5-3.3,0.6-4.7c15.1-2.8,30.2-5.6,44.9-8.4c0-4.8,0-8.7,0-14.6c-15,12.9-35.6,5.3-50.8,17.4
		c2.8,2.5,6,2.5,5.9,5.6c-4.5-0.4-6,4.5-9.8,5.7c3.7,0.1,7.4-0.2,11.7,2.8c2.3,5.9,6.9,12.8-2.9,18.4L329.2,857.2z M240.1,847.3
		c-2.5-10.6-9.2-18-17-24.6c2.7,8.7,5.2,17.2,12,23.3c1.9,7.6,6.5,13.5,11.7,19.2C245.7,858.9,245.2,852.2,240.1,847.3z
		 M154.4,667.6c3.3,0.1,5.9-1.6,5.6-4.7c-1-9.5-0.6-19.7-11.7-27.6c3.7,11.5,6.5,21.1,5.7,31.3c-3.4-6.2-1.1-14.8-9.1-20.6
		c1.8,9.7,5.6,17.9,2.5,27C151.1,671.9,153.2,670.2,154.4,667.6z M187.8,795.7c-7,7.1,3,14.1-0.5,21.4c5,0.2,6.2,4.5,9.9,6.4
		C193.9,814.2,196.6,803.2,187.8,795.7c-0.1-2.9,3.3-4.6,2.1-8.4c-3.7-12.1-10.4-21.7-21.3-28.2c0.4-1,0.8-2.1,1.2-3.2
		c1.9,1,3.5,1.8,5,2.6c3.9,6.4,10.6,8.8,16.8,11.8c9.4-4.2,16.7-10.7,22.1-19.6c-9.3,1.5-15.4,8.1-22.2,13.4
		c-4.7,1.2-6.5-4.5-11.3-3.4c1.6-2.9,2.5-4.8,3.8-7.1c-3.7,2-6.5,3.6-9.4,5.2c1.6-2.8,3.1-5.7,5.3-9.6c-2.7,1.3-4.6,2.3-5.7,2.8
		c-6.5-5.8-4-13.7-6.8-19.2c1.3-8.9,5.6-15.2,11.6-20.5c2.6,2.3,5,4.6,8,7.4c1.6-4.9,5-6.6,9.4-6.4c-3.1-15.4,13.3-45,27.5-51.7
		c8.8-14.3,12.4-28.7,8.9-45.4c-3.8-18.3-5.2-37.1-2.8-53.6c-8.4-20.4-16.2-38.8-17-60.6c-3.6,9.5-1.1,19.9-10.2,26.2
		c-7.8-5-0.9-12.3-3.5-19.9c-4.4,12-2.8,21.9,0.9,31.7c-6,3-13.2,3.9-16.4,10.9c-3,4.1-6,8.2-9,12.3c-9.2,10-14.9,47.6-5.9,56.8
		c9,9.2,7.6,20.2,11.2,31.1c5.4-5,11.9-4.2,17.5-5.9c11.1,9.6-3.6,16.1-1.6,24.8c-2.4,0.3-4.3,0.5-6.3,0.7c0.5,3.9,1,7.4,1.7,12.8
		c-4.2-3.6-7-6.1-10-8.7c-2,3.2,2.5,6.4-0.9,9c-3.9,1.3-4.9-3.3-7.9-3.8c-1.2-1.1-2.4-2.2-3.7-3.3c0.7-2.4,1.5-4.9,2.7-9
		c-11.1,2-16,10.6-23.3,14.5c1,2.8,3.3-0.4,3.6,2.6c-2,2.6-7.9-1-8.2,5c3.9,1.9,6.2-3.9,9.9-2.2c3.2,2.3,6.3,4.6,9.5,6.9
		c0.5,2.9,2.8,5.8-0.8,8.5c-1.4-0.6-3-1.2-5.7-2.3c1.3,2.7,2.2,4.4,3,6.1c-20.8,8-30.7,34-25,52.2c3.5-25.9,12.8-39,28.3-40.7
		c3.3,7.8-6.2,11.3-6.3,18.5c1.8-0.2,3.2-0.4,5.3-0.6c-0.3,8.4,3,15.6,6.9,22.5c5.1,12,16,21.8,15.2,36.9
		C184.3,795.7,186.1,795.7,187.8,795.7z M360.6,760.3c-20.2,0-40.4,0-60.8,0c0,6.1,0,9.4,0,12.8c1.8-5.9,3.9-10.7,11.8-7.9
		c0.5,3.1,0.9,6.1,1.8,12.4c0.9-6.1,1.2-8.8,1.6-11.1c2.7-2.3,5.1-3.1,8.2-1.6c0.5,2.1,1,4.3,1.6,6.7c3.4-1.8,1.3-6,3.9-6.8
		c5.3-2.1,7,1.2,9.4,5.7c0.1-4.2,0.3-7.5,4-8c5.6,1.5,4.4,8.2,8.8,11.1c0.2-4-3.6-7.5,0.4-11c2.9-0.4,7.7,4.4,9.1-2.4
		c14.5,3,27.3-2,40.1-7.7C387.6,757.1,373.5,755.9,360.6,760.3z M273.2,791.8c3.1,4.3,7,1.6,10.9,1.6c4.3-10.2,2.5-22,10.7-30.9
		c-6.3-0.4-11.7-0.7-16.9-1c-0.4,3.4-0.7,5.9-1,8.4C275.2,777.1,269.6,783.7,273.2,791.8z M305.4,67.4c-4.8,0.7-6.2,5.4-9.5,7.7
		c-0.5,6.4-0.1,12.4-2.9,18.3c-7.6,15.7-5.4,24.8,9.8,39.4c-11.1-24.2-8.1-45.2,2.4-65.7c6.9-6.8,14.2-13,24.7-13.8
		c-3.7-1.1-7.5-2.3-11.9-3.6C312.8,55,306.9,59.5,305.4,67.4z M223.2,431.5l-0.3-0.3c6.7,4.7,13.1,9.9,20.2,13.8
		c4.3,2.4,9.7,4,14.6,3.9c11-0.2,21.1-5.1,31.4-8.4l0.3-0.4c9.3-20.4,4.6-34.5-16.7-39.9c10.3-0.4,19.3,0.8,16.9-12
		c-11.3,1.3-22.5,2.6-33.7,3.9c-0.2-4.1,4.6-3.4,5-6.4c-44.4,10.5-45,10.8-44.9,23.6c13.4-13.2,28.4-13.9,43.8-7.1
		c3,3.5-2.6,8.2,4.7,9.4c-6.2,1.7-11.5-0.7-15.6,3.1l0.3-0.3c-12.8,0.5-23.7,4.1-30.9,17C220.8,431.5,222,431.5,223.2,431.5z
		 M509.3,845.9c-2.1,7.4-11.4,11-13.1,20.4c6.8-1.2,6.1-7.7,13.2-8.3c-17.6,19.5-25.5,42-34.9,66.8c4.1-1.9,6-2.3,6.1-3
		c3.6-26.3,27.2-42.1,35-66.1c0.8-2.5,3-4.8,5-6.5c10.4-8.6,14.4-20.4,17-32.9c11.6-13.5,18.4-29.4,22.2-46.9c6.6,0,12.4,0,19.4,0
		c1.1-15,15.6-20.5,22-32.5c4,2.7,7.8,5.2,11.5,7.7c-0.1,1.6-3.2,2.1-1.3,4.9c6.6-4.5,6-11.4,7.2-17.3c-4.3-6.2-10.4-10-16.8-9.1
		c-6.1,0.9-10.4-1.3-14.1-4.5c-6.4-5.5-11.4-3.3-16.6,0.5c-0.6,8.2,6.8,10.4,9.9,15.4c-1.5,2.6-3,5.2-4.1,7
		c-4.9,1.8-9.2,3.4-12.2,4.5c-12.3-0.8-21.9,3.8-34.9,8.1c0.5,0-1.4-3.3-4.8-1.7c1.8,8.9,6.6,18.5-2.8,26c-3.8,3.1-8.3,3.9-13.3-0.8
		c19.3-13.9-7.4-27.4,0.4-41.6c-1.6-2.6-3.2-5.1-4.3-6.9c2.2-16.2,21.6-13,25.9-25.9c3,1.6,3.8,3.7,3.8,5.2
		c-7.6,4.6-14.7,8.9-22.2,13.4c1,2.7-0.8,5.5,2.4,8.4c9.6-10.7,24.5-10.3,36.2-16.7c0.3-2.3,1.4-4.5,0.7-5.8
		c-6.3-11.2,0-19.9,5.2-29c2.3-4,4.4-8.2,5.6-12.6c1-3.5,2.3-5.5,5.9-5.7c-3.8,5-3.3,11-3.9,16.6c-2.3,2.5-5.9,4-4.5,9.4
		c1.9-2.4,4.3-3.1,7.2-2.9c0.4-7.9,0.8-15.5,1.2-23.2c-10.1-20.8-4.2-44.6-12.7-66c5.5,15.2,5.5,30.5-3.6,43.4
		c-8.9,12.6-23.4,18.5-37.4,24.9c-0.6,2.5,4.8,0.1,3.3,4.2c-2.5,1.2-5.5,2.6-7,3.4c-3.4,3.1-0.4,6.7-4,8.9c-3,0.4-6.4,2.1-10.1,0.6
		c2-1,4.6-0.5,4.2-4.6c-0.5-4.7,2.1-8.9,6.1-11.8c8.7-6.4,16.9-13.6,26.2-19.1c12-7.1,16.4-17.7,16.9-30.7c0.5-14.3-5.6-27-9.9-40.1
		c-1.8-5.6-1.8-8.9,4.9-9.9c-7-18.4-13.3-36-17.7-54.4c-6-25.4-5-52.3-16.7-76.4c-3.4-7.1-3.8-13.7-2.5-21.4
		c4.7-28,3.5-55.6-6.1-82.8c-4.7-13.4-14.4-25.7-11.5-41.3c-3.3-1.5-6.3-2.5-8.4-5.5c-2.1-3-5-5.9-9.2-2c0.8,6.7,4.2,12.5,8.8,16.9
		c9.1,8.7,8.4,25.2,3.2,35.5c-2,4-5,6.7-10.3,3.5c3-2.1,5.4-3.8,8-5.6c0.7-4.7,1.4-9.2,2.1-13.7c-4.8,11.9-13.3,11.8-23.2,8.1
		l0.3,0.3c-0.8-10.4-12.5-10.8-15.8-18.5c-19.9,3.2-36.3-6.2-53.5-11.8c18.3,1.1,34.7,11.9,54.7,9.6c1.8-1.1,5-2.9,8.1-4.7
		c3.1,0.8,5.9,1.6,9.5,2.5c2.3-12,0.2-22.3-7.5-32.6c4.1,9.3-6,4-6.6,8.4c-2.8,4.4-1.3,10.9-5.9,14.7c-25.2,5.1-25.2,5.1-34-1.1
		c17.2-2.3,27.6-10.3,25.9-27.9c-2.2,0-5.1,0-8.1,0c-1.7,2.6-3.3,5.1-5.2,8c-14.5,5.4-30.2,7.5-45.3,11.8
		c-15.9,4.6-22.8,20.5-39.7,27.7c10.2-18.6,13.2-37.6,32.2-45.9c-16.2-3.9-26,1.4-33.2,15.3c-6.2,11.9-10,25.8-22.4,33.3
		c1.2-13-5.8-25.5-3.5-39c-9.1,13.6-2.7,30.8-11.5,43.7c-14-7.2-26.5-16.4-38.9-25.9c-6.9-5.3-15.4-6.6-24.3-1.8
		c4.2,3,11.4-1.4,11.5,6.6c9.9-0.7,17.4,2.2,23.8,11.4c-16.9-0.7-33-7.1-49.6,3.1c-5.7-1.1-26.9,5.7-27.4,10
		c0.7,2.2,2.1,3.7,4.6,4.4c6.9-4.8,12.8-12.4,24.3-9.5c-17.2,6-25,18.3-29.1,34.4c4.1-1.8,4.6-5.2,5.7-8.3
		c4.9-13.8,15.8-20.7,29.2-22.6c24.2-3.5,48.3-1.5,72.2,3.3c5.6,1.1,11.4,1.1,15.7,3.2c2.1,2.8-3.8,3.4,0.3,6.1
		c5.4-3.9,9.2-10.9,17.7-10.6c0.2,1.4,0.5,2.9,0.7,4.1c16.5,0.5,32-5.8,48.5-4.3c3.5,5.3,9.1,5.9,13.4,6.4
		c17.2,14.1,21,34,27.9,50.7c-2.1,10.8-12.9,3.8-15.4,10.3c-15.4-4.1-30.4-4.7-45.9-4.2c-5.8,9.2-18.1-0.3-25,8.5
		c-0.2,1.6-0.6,3.9-0.9,6.1c-8.3,3.1-13,8.9-14.9,16.9c-4.1,17.9-4.4,36.2-4.7,54.4c-0.3,16-8,21.9-22.9,16.6c-3-1.1-6.4-2.1-10.5,2
		c8.7,4.7,19.4,4.1,25.8,12.7c-0.3,2.2-0.7,5-1.1,8.3c3-1.3,5.2-2.2,7.8-3.3c7.1,4.7,15.7,4.9,24.5,7.9c-3.3,3.7-5.5,6.2-8,9
		c-3.1,0-6.3-0.4-9.3,0.1c-12.1,2-24.6-2.3-36.5,2c-1.8,0.6-3.5,1.2-5.3,1.8c-5.2,2.3-10.2,0-15.3-1.1c-1.3,2.9-1.9,5.5,2.6,7.5
		c20.4-5.9,40.5,5.6,63.7,2.5c-10.4,9.4-22.1,4.6-32.1,8.9c3,0.7,5.2,1.2,7.4,1.7c-0.1,0.5-0.2,0.9-0.2,1.4c-4.3,0-8.6,0-13.5,0
		c2.5,2.7,6.4,0.4,7.3,3.9c-1.5,2.8-6.9,0.9-5.9,7c17.1-2.3,32.9,14.4,52.1,2.9c-3.5-3.7-6.8-6.9-7.4-11.3
		c3.3-5.5,10.4-7.5,10.7-13.9c2.9-2.5,7.5-1.5,8.3-6.1c-3.6-5.8-12.8-6.3-14.1-14.2c4.3-8.8,1.1-18.9,6.4-26.9
		c-1.4-2.2-3.9-4.3-3.7-6c1-7.8-3.1-12.3-8.3-17.3c-5.6-5.3-5-12.1-0.3-18.7c10.1-2.4,19.8-1.8,27.2,2c7.8-6.9,14.7,0.4,21.2-0.1
		c-3.2,0.7-6.5,1.3-11.6,2.4c15.4,4.4,25.5-1.3,33.6-11c3.3-3.9,6.2-6.8,12.4-5.7c11.6,10.9,3.5,22.5,1.2,32.1
		c-5.3,1.4-5.2,4.9-6,7.7c-5.7-2.3-6.5,8.8-12.2,4.9c-5.2,7.8-10.4,15.5-15.7,23.2c2.8,4.3,2.5,10.1,8.8,12.4
		c1.5-6,6.7-4.2,11.7-4.7c-1.5,3.1,3.1,5.3,0.7,9.7c-6.1,11.2-7.7,24.6-17.1,34.4c-3.1,3.3-6.4,9.4,0.3,14.1
		c1.5-2.9,2.7-5.3,3.9-7.7c2.3,0.2,4.3,0.5,4.7,0.5c0.2-13.1,15.1-13.7,17.8-23.4c-0.4,5.7-4.6,10-3.9,13.3
		c-8.6,7.2-9.9,18.9-19.9,22.8c-2.9-2-5.9-4-9-6.1c-7.3,2.7-14.5,5.2-21.5,8.1c-5.4,2.2-12.1,3.5-14.7,8.9
		c-6,12.5-16.8,13.1-28,12.5c-13.4-0.7-26.8-2.2-40.2-3.4c19.7,11.5,40.7,8.5,62.2,5.7c-9.7,10.7-21.8,12.5-34.2,6.5
		c-6.4-3.1-12.4-1.1-18,4.1c3.8,10.8,18.7,14.1,17.1,27.2c4.1,0.3,3.3-5.3,7.5-4.1c5.3-0.3,3.1,6.5,6.6,8.2c3.2-1.5,1.1-6.5,5.8-7.1
		c-0.7,4.7,5.2,6.7,4,12.6c-6.4,0.8-13.3,1.6-20.1,2.4c12.6,3.5,25,4.6,38.7,1.8c-3.8,9.8,10,5.5,8.7,13.7
		c-7.4-3.5-8.9,1.4-10.7,6.3c17.4,0.9,32.7-13.3,30.7-28.4c-3-3.6-7.7-2.3-12.8-3.7c5.2-3,2.7-6.6,2.2-9.5c6.3-2.3,4.6,6.1,9.5,6
		c-0.5-11.8,13.8-14.6,14.4-25.1c3.2-1.9,5.7-2.7,8.7-0.3c4.4,19.9-6.2,36.9-11.6,55.5c5.7,1.1,2.8,7.6,9.4,11.9
		c-0.3-0.1,2.4,1,4,1.6c4.5,5.8-0.6,16,10.6,15.4c0.9,4.5,1.6,8.4,4.5,10.6c-4.4,9.6-14.1,13.8-20.7,23.9c7.6-1.9,13.5-5.7,18.6-0.1
		c-0.5,4.4-7,2.6-7.9,8.2c13.4-7.1,27.8-9.6,41.2-14.5c-0.7-1.3-1.4-2.6-2.1-3.9c-0.6,1.1-1.1,2.3-1.8,3.7
		c-3.2-4.2,0.8-7.5,0.1-11.2c-2.6-1.3-5.2-2.6-8.6-4.2c7.5-11.4,17.9-8.9,28.4-7.8c-4.7-7.7-8.2-15.9-16.2-20.8
		c9.5,2.4,19.1,3.6,27.5,8.9c0-2.9,0-5.6,0-7.5c1.5-3.7,4.2-4.4,7.4-5.2c2.5,1,3.3,7.2,8.1,3.6c-2.1,2.4-3.9,4.8-2.9,8.3
		c8.9,12.9,12.5,36.8,3.4,43c-4.5-1-0.4-7.6-6.5-8.5c5.3,24.4,2.4,45.4-24.9,56.6c-1.5,3.9-5.5,7.7-9.4,12.1
		c4.7,11.4,8,23.1,9.4,35.2c1.2,10.3-10,25.3-19.7,27.7c-0.7,3.2-2.3,6.5,0.8,9.5c13,3.3,17.6-1.8,26.5-29.6
		c-4.4-7.4-2.8-16-3.1-24.1c9-4.7,17.3-9.5,24.5-17.7c7.6,5.1,17.4,1.1,25.6,6.4c8.6-9.7,16.1-19.2,16.3-33.2c2.7-2,5.7-4.2,8.8-6.4
		c2.9,1.5,6,2,8.2,6c-5.7,13.1-11.5,26.8-17.5,40.5c-0.8,1.9-2.1,3.7-3.2,5.5C525.5,822.6,517.4,834.3,509.3,845.9z M32.4,841.8
		l-0.1-0.2c-3.2,5.6,4,9.4,2.6,14.7c-0.8,2.8-5.4,0.5-5.7,3.8c3.2,0.8,6.1,1.5,9,2.2c3.3-22.7,2.9-23.2,14.3-32.3
		c19.2-15.2,31-34.1,32.8-58.8c0.6-8.5,0.1-16.9-7.2-24.3c-5.6,9,5.9,14.4,0.8,21.6c-1.5-1.9-3.1-4-5.4-7
		c-3.2,14.1,3.5,28.5-6.6,42.4c1.1-10,5.4-18.5-3.5-25.9c3.7,19.1-2,31.8-20.5,38.9C32.8,820.8,25.3,831.4,32.4,841.8z M212.1,877.1
		c-6.7-3.7-6.7-9.1-3.5-15.1c-8.1-5.3,0.1-14.3-6-21.6c0,6.8,0,11.8,0,17.1c-4.5,3-8.7,5.7-12.8,8.4c-0.3-0.5-0.7-1-1-1.5
		c0.8-0.1,1.6-0.2,2.3-0.4c3.6-4.4,6.8-9.1,7.6-15.8c-6.4-2.1-9-12.6-19.1-8.7c-1.6,4.4-3.2,8.6-4.9,13.3c6.7-0.6,12.1-1.1,17.5-1.6
		c-0.3,4.4-5,2.4-6,5.1c1.7,2.6,3.4,5.1,5.1,7.6c-4,0.4-8,0.7-12.6,1.2c2.2,4.7,5.6,9,0.8,13.8c-4.7-5.2-10.1-2.8-15.5-2.2
		c-1.7,1.8-3.3,3.7-5,5.5c-3.7-2.1-6.9-7-12-2.8c0.8,4.5,5.1,0.4,6.5,2.7c-0.4,3.9-4.6,1.8-6.3,4.4c7.8,6.2,16.3,11.1,21.9,19.1
		c8.7-0.6,16.8-5.1,24.5,1.4c4.2-8.2,1.1-18.6,10.6-23.6c3.1,0.7,5.6,4.8,9.8,2.9c0.2,5.2,3.2,9,6.8,15.2c0.9-6.6,1.5-10.8,2-14.8
		c-1.9-1.7-4.5-3-5.2-5C216.7,878.8,215.4,877,212.1,877.1z M195.2,448.1c-1.5,7.8,5.9,4.9,9.4,7.4c-1,5.2-1.9,10.3-3.2,17.2
		c-5.8-7.6-8.8-15.3-15.8-20.5c-12.2,5.1-20.9,13.3-23.2,27.2c13.4,8.9,16,22.6,16.3,37.1c-2.4,2.1-4.3,4.7-4.5,8.5
		c0.6,3.4,3.3,6.5,2.1,10.2c-2.5,2.2-4.7,4.2-8.3,7.4c5.7,0.1,3.1,5.1,6.4,5.9c14.3-9.2,7.6-25.2,13.2-37.2c2.2-0.6,1.8,2.4,4.2,3.3
		c4.9-15.7-6.1-31.6,0.2-48c5.4,6.5,0,16.2,8,20.3c7.5-2.4,1.5-8.7,4.5-13.8c2,3.5,3.4,6.1,5.6,9.8c0-8,0.1-14.7,0-21.4
		c-0.4-27.4-4.1-55.1,0.6-82.2c3.5-20.1,10-39.9,24.4-56c-9.3,7.4-20.8,11.5-25.6,24.4c-4.2,11.1-8.8,22.9-21.3,29.3
		c0.7,3.1,4.9,5.5,2,9.2c7.5,1.3,12.1,0.1,17.3-3.9c-3.4,13.1-16.6,21.4-29,17.9c-1.4,1.2-2.8,2.6-4.8,4.3c-2.3-8,3.8-10.8,7.8-15.1
		c-8.9-5.6-12.5,2.7-19.1,6.4c6.1,3.6,8.1,9.3,11.5,13.7c5.3,0.3,9.3-7.9,15.4-1.6c-1.6,1.3-3.1,2.6-5.1,4.2
		c8.1,0.6,8.1,5.5,6.3,10.8c2.6,0.7,4.3,1.2,7.1,1.9c-4.8,3-10.8,3.9-7.2,11.3c-5-3.9-14.8,0.7-13.8-10c-3.5,0.8-6.8,1.6-10.1,2.3
		c7,1,5.5,7.7,7.6,11.4c6.6,2.1,12.9,4.1,19.1,6.1C194,446.8,194.6,447.4,195.2,448.1z M377.5,170.9c-3.2,2.5-6.9,3.5-10.9,3.8
		c-5.6-0.9-9.7,3.3-15.3,4.4c2.8,2.9,2.5,5.8,0.9,8.7c-7.4-3.7-8.3-13.4-16.3-16.6c-6.9,1.9-14.1,4-21.6,6.1
		c0.3,2.9,0.5,5.2,0.7,7.7c10.9-5.1,15.3-2.6,14.8,9.9c3-6.6,10-4.4,13.6-11.6c-0.4,11.3-16.7,14.5-7.6,27.8
		c-0.2-4.2-0.4-6.8-0.5-9.3c3.7-3.1,5.6-9.6,13.1-5.4c-1.9,3.1-6.3,3.2-6.1,8.4c1.8,3.5,5,7.3,10.4,9.5c0.6-3.5,1-7.2,5.3-5.5
		c4.3,1.7,7.6,4.5,4.5,10.4c8-4.7,12.5,2.3,18.1,4.1c2.1,0.7,4.5,6,0.5,9.7c-2.8-0.2-1.8-4.7-5-4.3c-7.3,1.4-9,8.5-13.7,13.7
		c-3.6,0.9-7.6,2-14.8,3.9c9.6-6.7,13.2-13,10-23.1c-1.2,7.7-0.8,15.1-10.4,16.5c1.5-3.2,2.8-5.9,4.1-8.8c-2.4-4.7-0.5-12-8.9-13.2
		c-0.4,4.8,3.3,7.2,5.8,11.8c-4-1.2-4.9,2.1-7.2,3.2c-2.1-4.9-1.4-10.5-5.9-15.3c-0.2,9-1.6,16.5-12.4,15.5
		c2.1,5.6,2.9,11.2,6.6,15.3c-3.3,6.2-8.4,2.4-13.5,4.5c-0.7,1.2-2.3,3.6-4,6.4c4.8,1.8,4-8.8,9.5-2.7c-0.9,3-1.9,6-3.8,12.2
		c9.7-7.3,17-12.7,21.7-16.2c26.9-5.3,51.3-10,75.2,0.6c6.2-9.6,16.4,8.5,22.1-3.9c11,9.9,25.6,13.7,34.5,26.7
		c2.5-5.7,1.5-9.4,0.2-12.9c-7.9-3-16.1-4.8-23.9-14.6c13.3,4.2,22.6,8.2,29.8,16.6c0.1,3.3-4,7,1.2,10c2.7-3.5,6.6-2.9,10.5-2.8
		c15,0.4,28.5-4.4,40.7-12.9c11.7-8.1,17.4-18.6,16.3-29.3c-26.8,29.7-53.9,36.7-71.3,18.2c0.8-2.6,1.7-5.2,2.8-8.5
		c-2.7-2.9-4.6-6.6-3.1-11.5c-4.1,2-3.3,7.6-8.3,8c-0.7-1.9-1.3-3.8-2.1-5.9c-2,4-1.4,10-8.1,9.6c-2.6-10.3,12.7-13.4,10.3-24.5
		c-6.3,3-8.6,9.8-16.5,10.8c4.2-4.8,7.5-8.7,10.3-11.9c-8.9-14.2-6.3-27.6-1.4-41.7c5.1-14.8,20-19.6,32.2-31.6
		c-17.5,4.3-29.4,13.2-36.5,24.2c-8.8,13.7-15.4,30.5-1.9,47c-5.3,1.1-7.1,0.2-8.3-3.1c-6.7-19.2-6.2-37.4,7.6-54.1
		c-17.9,11-26.8,26.7-26.9,47.7c-1.4-8.4-6.8-10.9-14.2-10.8c-1-5.8-1.9-11.2-2.7-16.6c4.4-5.6,10-11.1,0.7-17.3
		c-0.3-0.3-0.6-0.5-0.9-0.9c-0.5-2.9-2.2-4.8-5-4.2c-8.4,1.5-14.7-2.3-21.3-8.3c5.3-9,10.7-18.3,17.4-29.7c-4.2,1-6.1,3.9-8,0.6
		c0.8-2.1,1.8-4.6,2.7-6.8c6.6,4,8.4,0.9,8.5-6c-3.9,2.7-6,2-5.5-3.2c3.9-1.1,8.8-2.1,8.9-8.5c-1.6-1.2-3.4-2.5-5.3-3.9
		c2.2-3,5.9-4.5,5.4-9.4c-5.6-2.5-8.3-6.7-1.5-14.9c-7.1,2.5-9.6-0.6-12.5-3.8c-0.6-1.8,3.6-2.5-0.4-7.5
		c-2.6,17.3,1.8,33.4-5.5,47.4c-19.4,37.3-19.5,37.2-26.4,38c23.8-32.4,29.8-61.1,17.6-86.6c-1.2,2.3-2.4,4.5-4.2,8.1
		c-6-11.5-16.7-16.1-27.4-21.9c-4.8,4.1-12.6,3.7-20.1,5.7c3.4,7.9,8.3,2.9,12.6,2.5c4.9-0.5,9.3,0.4,11.1,6.9
		c-6.6-1.5-12.5-4.8-15.9,3.4c13.6,2.4,19.7,9.5,19.9,23.1c-3.7,0-7.3,0-10.7,0c-3.7,3-7.1,5.6-8.4,8.4c0,7.4,0,13.4,0,18.6
		c-2.4,4.1-6.5,2-10.5,4.2c4.7,2.5,8.1,4.3,13.5,7.1c-8.2,1.3-14.3,2.3-20.5,3.3c6.7,1.9,13.6,0.5,21.3,4.2c-4.8,1.5-8,2.5-11.5,3.6
		c10.4,6.3,14.8-0.5,19-8.6c-4.9-4.9-2.3-12.4-5.9-17.9c4.2-4.4,4.2-4.4,19.9-1.7c3,7.9-3.1,13.8-5.1,20.4
		c-3.5,11.7-22.7,18.9-34.2,15c-4.7-1.6-10.2-4.7-15.8,1.4c23.2,18,51.4,17,79.5,24.2c-10.5,3.1-18.5,0-26.5-0.2
		c-2.7,5.5-8.9,7.1-11.9,4.4c-7.4-6.6-16.5-2.8-24-5.7c-4.6-10.4-15.4-12-24-16.9c1.2,2.3,2.4,4.5,3.4,6.4c0.7,5.1-4.3,7.2-5.4,10.5
		c6.8,5.3,6.6-4.5,10.9-4.5c1.5,2.9-4.9,3.8-0.8,7.2c4-0.5,3.2-8.2,8.9-6.6c2.1,4.5-2.1,5.5-4.5,7.7c8.2,4.8,17.4,2.8,26,4.2
		c8.5,1.3,17.2,1.6,25.7,2.8c8.8,1.2,16.2-5,26.2-5.2C382.9,167.2,380.2,169,377.5,170.9z M644.9,796.6
		c-2.5,27.3-10.6,55.5,0.8,82.4c-3.9,3-3.7-1.6-6.8,0.1c3.8,11.1-4.3,16.5-12.3,22.2c-4,1.5-8.9-1.7-13.7,1.5
		c3.7,5.8,9.7,8.4,14.2,12.2c7.6-0.7,11.7-6.3,17.9-9.5c-1.4-6.5,7.4-8.8,6-15.5c-4.5-15.2-5.2-31.2,0.8-45.3
		c5.9-13.9,9.3-27.3,6.6-42.4c4.7-0.6,8.9-1.1,12.6-1.5c2.9-5.2,2.2-9.5-0.4-13.8c-3.4,3.4-6.7,6.9-11,8.6c-5-2.9-2-9.8-9.9-13.7
		c6.7,15.5,9.7,29.1-0.3,42.7c0.4-5.6,1.6-10.6,0.7-15.2C649.2,804.7,646.4,800.1,644.9,796.6z M376,792.5
		c-18.4,3.7-36.1,5.8-53.9,6c-17.8,0.2-35.5,1.5-53.4-0.5c-17.1-1.9-33.7-6.6-50.9-7.1c19,4.2,37.9,8.5,57.8,12.9
		c1.7-0.5,4.6-1.4,7.8-2.4c0.7,1.8,1.3,3.3,1.9,4.8c2.6-1.7,5.2-3.3,6.4-4.1c10.6,1.7,19.5,2.6,29-0.9c4.6,7.2,10.5-2.6,16.1,1.1
		c2.3,2,1.9,4.7,0.9,8.5c-12.9,0-25.9,0-40.2,0c-2.9,6.2-11.2-2.5-18,2.7c29,4.1,55.4,0.2,83-3.5c-3.8-1.8-6.3-3.1-8.7-4.3
		c-7.6,6.8-9.6,6.7-13.5-0.7c0.8-2.9,3.1-4.3,5.6-5.4C355.2,802.9,372.6,799.2,376,792.5z M437.6,731.4
		C379,758.2,318.9,757.3,255,752.6C296.8,766.9,424.9,752.1,437.6,731.4z M291.3,832c4.4-2.4,10.6-2.4,12.6-9.7
		c-33.3-3.5-66.2-6.4-97.1-18.6c3.3,3.7,6.6,7.3,8.3,9.1C243.1,815.1,266.9,824.8,291.3,832z M274.6,230.9
		c-15.4,15.5-26.4,17-32.6,5.3c-1,3-1.8,5.5-2.8,8.5c-5.5,0.5-11.4,1-17.4,1.5c1.3,2.9,0.4,6.9,6.2,5.8c9.4-1.7,19.3-1.3,28.4-3.8
		c7.2-2,15.3-1.5,22-6.9c2.6,2.1,4.7,5.7,7.4,4.2C282.4,241.1,278.7,236.3,274.6,230.9z M323.7,335.8c2.1,4.5,7.4,8.4,4.6,13.4
		c-4,7-3.8,14.8-6.7,21.8c-1.1,2.8-0.2,7.6-6.7,9c4.7-8.6,6.5-16.6,1.7-25.2c-0.4,3.4-0.8,6.3-1.3,10.2c-2.6-6.2-3.2-11.6-2.9-19.1
		c-6.1,13.9,5.8,25.3-1.7,37.9c11.4,0.9,14.8-7.4,18.3-14.2C335.8,356.1,333.7,343.4,323.7,335.8z M95.7,728.5
		c2.4,18.9,7.9,36.1-11.2,48.9c13.2-0.5,19-6,23.7-13.7c-3.9-8.6-1.3-17.4-2.4-26.4C103.7,735.5,101.4,733.4,95.7,728.5z
		 M354.7,259.2c18.7-2,36.1,12,55.3,5c1.1-2.5,2.1-4.8,3.6-8.2c-11,1-20.6,2.6-30.4,2.6C373.7,258.6,364.1,254.1,354.7,259.2z
		 M134.3,684.4c-8.1,6.4-18.8,8.3-26.7,15.7c2.3,0.6,3.8,1,6.4,1.6c-2.3,2.8-4.1,5-6,7.3c2.7,0.9,4.8,1.6,7.1,2.4
		C121.2,702.4,126.8,692.8,134.3,684.4z M335.5,372.1c1,8.4-1.1,15.3-7.8,20.6c-6.4,5.1-13.7,4.7-23.7,3.1c4.4,2.6,6.5,3.8,8.5,5
		c-1.6,2-2.5,3.8-0.8,6.1c2.4,0,4.8,0,7.4,0c0.8-2.5,1.5-4.7,2.1-6.6C336.7,393.2,341,384.8,335.5,372.1z M298.5,196.3
		c-12,1.4-21.5,2.5-30.9,3.6c11.7,8.5,23.2-0.3,35.5,1.9c-1.6-6.7,4.6-6.2,7.4-9.3C304,190.4,300.3,193.9,298.5,196.3z M117.2,681.8
		c14.5-9,18.5-19.6,11.6-33.4c-1.2,8.3-2.8,15-5.8,21.2c-2.8,2.2-7.5,1.6-9.1,6C114.8,677.4,118,677.8,117.2,681.8z M325.7,88.9
		c-1.6-4.4-1.3-10.4-8.6-10.8c-1.4-0.1-2.8,0.2-5.5,0.4c2.4,1.3,3.6,2,4.9,2.7c-3.6,2.4-0.9,9.5-7.9,8.9
		C314.9,99.7,320.1,99.2,325.7,88.9z M284.5,91.6c0-6.7,0-12.1,0-17.6c-4.2,10.7-0.8,21.4-0.9,32.2c2-7.8,7.6-14.4,8-23.6
		C286.5,84.5,288.4,88.9,284.5,91.6z M402.1,804.5c3.5-17.5,12-29.5,25.6-41.2C413.6,767.3,400.8,788.6,402.1,804.5z M270.2,132.3
		c5.2,7.4,10,11.6,20.7,10.7c-4.9-4.4-7.9-7.2-11.2-10.2C277,138,275.3,131.9,270.2,132.3z M470,312.9c4.6-3.8,5.8-8.7,4.9-14.7
		c-1.8,7.5-10.9,5.8-14.3,11.8C463.4,312.8,466.5,313.2,470,312.9z M298.9,780.6c-0.7,5.2-2.6,10-9.6,12.9c8.7,0,15.7,0,23.1,0
		c-0.2-2.9,1.4-5.5-0.9-8.6c-1.6,6.8-5.4,8.5-11.7,5.8C299.5,787.2,299.2,783.9,298.9,780.6z M576.6,775.6
		c5.7,14.4,19.1,16.9,24.3,27.1c-0.4-2.7-1.5-4.9-3.1-6.5C591.6,790.1,585.3,784,576.6,775.6z M257.2,762.9c3.3-0.1,6.4-1.5,9.8,0
		c-0.3,4.8-5.2,8.2-4.3,15.1c3.1-7.3,7-12.2,14.4-17.8C268.4,761.5,262.5,758.6,257.2,762.9z M247.8,199.2c6,1.2,10.3,2.1,14.9,3
		c0.8-2.3,1.6-4.7,2.6-7.5C259.5,195.1,253.9,194.2,247.8,199.2z M326.7,742.9c1.3,4.2-1.7,5.8-4.1,9c8.9-0.4,16.3-0.8,24-1.2
		c-3.9-4.2-8.1-2.5-11.9-1.4C332.2,747.3,330.1,745.6,326.7,742.9z" />
        <path fill-rule="evenodd" clip-rule="evenodd" d="M304.9,953.8c-27.1-0.5-45.2-20.5-68.3-31.3c0.4,2.7,0.7,5,1.1,8.1
		c-12.5-0.4-5.5-14.3-12.3-17.5c-3.8,0.8-1.3,4-3.6,6.1c-0.2-5.2-3.8-6.5-11.1-6.7c8.5-2.1,14.6-2.1,15.1-10
		c5.6,3.8,10.9,7.2,19.7,4.3c-3.7,2.8-5.5,4.5-5,7.7c3.5,1.9,7.1,4,11.4,6.4c6-6.7,14.2,1.1,21.8-2.9c3.3,2.3,6.8,6.8,12.7,5.5
		c2.5-2.8-2-4-1-7.2c11.7,3.6,23.6,5.5,39,2.4c-8.7,0.8-13.8-0.5-18.3-4.3c8.7,2.6,17.3,4.6,25.5-1c1.7,4.7-2.7,2.5-2.3,5.2
		c6.1,5.3,13.3,1.5,19.9,1.4c6.6-0.2,13.2-2.4,19.6-3.8c3.2,3.1-3.1,3.7-0.2,7.6c6.4-8.9,12.1-18.4,23.4-22.6c-2-1.6-3.4-2.6-5.3-4
		c18.1-3.4,23.6-20.1,29.2-25.6c11.9-21.3-1.3-41.8,15.9-51.9c1.4-7.2-3.6-6.3-4.2-9.7c7.6-2.4,11.2-6.5,4.7-14.1
		c6.8-10.8,14.6-19.5,27.1-25.3c9.4-4.4,10.7-16.8,12.7-27l-0.2,0.3c3.7,9-0.1,22.6-8.1,29.3c-20.4,16.9-19.3,25.9-11.1,45.6
		c3.9,9.3,3.6,18.3,1.2,27.6c-0.1-5.3,1.2-10.8-1.5-16c-3-1.2-5,1.2-7.3,2.2c-8.4,26-0.7,54.4-12.4,80.1c3.3,6.2,5.8,12.6,1.7,20.2
		c-2.9,1-6.1,2-9.3,3c2.1-5,0.1-7.5-4.9-8.2c-4.9-0.7-8.2,0.5-8.1,6.3c4.5,0.4,9.1-0.6,13.2,1.6c-6.1,2.7-13,2-18.3,5.7
		c-3-2.8-0.2-4.6-0.6-7.2c-2.4-0.9-6.2,0.8-7.5-2.9c-9.7,13.5-24.7,13.5-38.3,16.4c-12.2,2.6-24.6,4-37,6
		C317.3,953.8,311.1,953.8,304.9,953.8z" />
        <path fill-rule="evenodd" clip-rule="evenodd" d="M289.6,526.3c12-4.3,24.4,0,36.5-2c3-0.5,6.2-0.1,9.3-0.1c2.5-2.8,4.7-5.3,8-9
		c-8.7-3-17.4-3.2-24.5-7.9c-2.6,1.1-4.8,2-7.8,3.3c0.5-3.3,0.8-6.1,1.1-8.3c-6.4-8.7-17.1-8-25.8-12.7c4.1-4,7.5-3.1,10.5-2
		c14.9,5.4,22.6-0.6,22.9-16.6c0.3-18.2,0.6-36.5,4.7-54.4c1.8-8,6.6-13.7,14.9-16.9c0.3-2.1,0.7-4.5,0.9-6.1
		c6.9-8.7,19.2,0.7,25-8.5c15.5-0.5,30.4,0.1,45.9,4.2c2.5-6.5,13.3,0.6,15.4-10.3c-6.9-16.8-10.7-36.7-27.9-50.7
		c-4.3-0.5-9.9-1.2-13.4-6.4c-16.4-1.5-32,4.7-48.5,4.3c-0.2-1.2-0.4-2.7-0.7-4.1c-8.5-0.3-12.3,6.7-17.7,10.6
		c-4.1-2.7,1.8-3.3-0.3-6.1c-4.3-2.1-10.1-2.1-15.7-3.2c-23.9-4.8-48-6.8-72.2-3.3c-13.4,1.9-24.3,8.8-29.2,22.6
		c-1.1,3-1.6,6.5-5.7,8.3c4.1-16.1,12-28.4,29.1-34.4c-11.5-2.9-17.4,4.7-24.3,9.5c-2.5-0.8-3.9-2.3-4.6-4.5
		c0.6-4.3,21.7-11.2,27.4-10c16.6-10.2,32.7-3.8,49.6-3.1c-6.4-9.1-13.8-12.1-23.8-11.4c-0.1-8-7.3-3.6-11.5-6.6
		c8.8-4.9,17.4-3.6,24.3,1.8c12.4,9.6,24.9,18.7,38.9,25.9c8.8-12.8,2.4-30.1,11.5-43.7c-2.3,13.5,4.6,26,3.5,39
		c12.4-7.5,16.3-21.4,22.4-33.3c7.2-13.9,17-19.2,33.2-15.3c-19,8.4-22.1,27.4-32.2,45.9c17-7.2,23.8-23.1,39.7-27.7
		c15.1-4.4,30.8-6.4,45.3-11.8c1.9-2.9,3.5-5.4,5.2-8c3,0,5.9,0,8.1,0c1.7,17.6-8.7,25.6-25.9,27.9c8.8,6.2,8.8,6.2,34,1.1
		c4.6-3.8,3.1-10.3,5.9-14.7c0.6-4.4,10.7,0.9,6.6-8.4c7.7,10.3,9.8,20.7,7.5,32.6c-3.6-0.9-6.4-1.7-9.5-2.5
		c-3.1,1.8-6.2,3.6-8.1,4.7c-20,2.3-36.5-8.5-54.7-9.6c17.3,5.6,33.6,15,53.5,11.8c3.4,7.7,15,8.1,15.9,18.6
		c-4.3-2.4-8.3-5.5-15.1-3.6c9,5.5,12.3,16.9,23.9,17.3c1.8-8.3-7.1-8.8-9.1-14c9.8,3.6,18.4,3.8,23.2-8.1c-0.7,4.5-1.4,9-2.1,13.7
		c-2.6,1.8-5.1,3.5-8,5.6c5.3,3.1,8.3,0.5,10.3-3.5c5.1-10.4,5.9-26.8-3.2-35.5c-4.6-4.4-8-10.2-8.8-16.9c4.2-3.9,7.2-0.9,9.2,2
		c2.1,3,5.1,4,8.4,5.5c-2.9,15.7,6.8,27.9,11.5,41.3c9.6,27.3,10.8,54.8,6.1,82.8c-1.3,7.7-1,14.3,2.5,21.4
		c11.7,24,10.7,51,16.7,76.4c4.4,18.3,10.7,36,17.7,54.4c-6.6,1-6.7,4.3-4.9,9.9c4.3,13.1,10.4,25.9,9.9,40.1
		c-0.5,13-4.9,23.5-16.9,30.7c-9.2,5.5-17.5,12.7-26.2,19.1c-4,3-6.6,7.1-6.1,11.8c0.4,4.1-2.3,3.6-4.2,4.6c0,0,0.2-0.1,0.2-0.1
		c-4.8,3.7-5.6-2.5-8.1-3.6c-3.2,0.8-5.9,1.5-7.4,5.2c0,2,0,4.6,0,7.5c-8.4-5.3-18-6.5-27.5-8.9c8.1,4.9,11.5,13,16.2,20.8
		c-10.5-1.1-20.9-3.5-28.4,7.8c3.4,1.6,6,2.9,8.6,4.2c0.6,3.7-3.3,7-0.1,11.2c0.7-1.4,1.3-2.6,1.8-3.7c0.7,1.3,1.4,2.6,2.1,3.9
		c-13.4,4.9-27.9,7.4-41.2,14.5c0.9-5.6,7.3-3.8,7.9-8.2c-5.1-5.6-11-1.8-18.6,0.1c6.6-10.1,16.3-14.3,20.7-23.9
		c-2.8-2.3-3.5-6.1-4.5-10.6c-11.2,0.6-6.1-9.7-10.6-15.4c-1.6-0.6-4.3-1.7-4-1.6c-6.6-4.3-3.7-10.7-9.4-11.9
		c5.4-18.6,16-35.7,11.6-55.5c-3-2.5-5.5-1.7-8.7,0.3c-0.6,10.5-14.9,13.3-14.4,25.1c-4.9,0.1-3.2-8.3-9.5-6c0.5,2.9,3,6.5-2.2,9.5
		c5,1.3,9.8,0,12.8,3.7c2,15-13.3,29.3-30.7,28.3c1.8-4.9,3.3-9.8,10.7-6.3c1.2-8.3-12.5-3.9-8.7-13.7c-13.8,2.8-26.2,1.8-38.7-1.8
		c6.8-0.8,13.7-1.6,20.1-2.4c1.2-5.9-4.7-7.9-4-12.6c-4.7,0.6-2.7,5.6-5.8,7.1c-3.5-1.7-1.3-8.5-6.6-8.2c-4.1-1.1-3.4,4.4-7.5,4.1
		c1.6-13.1-13.4-16.5-17.1-27.2c5.6-5.2,11.6-7.2,18-4.1c12.4,6,24.5,4.2,34.2-6.5c-21.6,2.8-42.5,5.7-62.2-5.7
		c13.4,1.2,26.8,2.7,40.2,3.4c11.2,0.6,22,0,28-12.5c2.6-5.5,9.3-6.8,14.7-8.9c7-2.8,14.2-5.3,21.5-8.1c3.1,2.1,6.1,4.2,9,6.1
		c10-3.8,11.3-15.6,19.9-22.8c-0.7-3.3,3.5-7.6,3.9-13.3c-2.8,9.7-17.7,10.3-17.8,23.4c-0.4,0-2.4-0.3-4.7-0.5
		c-1.2,2.4-2.4,4.8-3.9,7.7c-6.7-4.7-3.4-10.8-0.3-14.1c9.5-9.9,11-23.2,17.1-34.4c2.4-4.4-2.2-6.6-0.7-9.7
		c-5,0.5-10.2-1.3-11.7,4.7c-6.3-2.3-6.1-8.1-8.8-12.4c5.2-7.7,10.4-15.4,15.7-23.2c5.7,3.9,6.5-7.2,12.2-4.9c0.8-2.8,0.7-6.2,6-7.7
		c2.3-9.6,10.4-21.3-1.2-32.1c-6.2-1.1-9.1,1.8-12.4,5.7c-8.1,9.7-18.2,15.4-33.6,11c5.2-1.1,8.4-1.8,11.6-2.4
		c-6.4,0.5-13.4-6.7-21.2,0.1c-7.4-3.9-17.1-4.4-27.2-2c-4.7,6.6-5.3,13.4,0.3,18.7c5.2,5,9.3,9.5,8.3,17.3c-0.2,1.8,2.3,3.9,3.7,6
		c-5.3,8-2.1,18.1-6.4,26.9c1.2,7.9,10.5,8.5,14.1,14.2c-0.8,4.6-5.4,3.6-8.3,6.1c-0.4,6.5-7.4,8.4-10.7,13.9
		c0.6,4.4,3.9,7.6,7.4,11.3c-19.2,11.5-35-5.2-52.1-2.9c-0.9-6.2,4.4-4.3,5.9-7c-0.9-3.5-4.9-1.2-7.3-3.9c4.9,0,9.2,0,13.5,0
		c0.1-0.5,0.2-0.9,0.2-1.4c-2.2-0.5-4.4-1-7.4-1.7c10-4.3,21.7,0.5,32.1-8.9c-23.2,3.1-43.3-8.4-63.7-2.5c-4.5-2-3.9-4.6-2.6-7.5
		c5,1.1,10,3.4,15.3,1.1c11.1,4.1,22.1,0.5,33.2,0.4C308.3,525.5,298.9,525.6,289.6,526.3z M501.9,521.8c-4.2-1.1-5.5,1.8-7.7,4.7
		c-6.2,8.2-4.9,18.1-6.9,27.3c2.4,2.3,3.4,6.4,8.3,7c0.2-5.3,2-10,4.4-14.3c-7.8-9.1-2.6-16.8,1.6-24.7
		c6.5-12.7,11.7-25.8,13.2-40.1c-3.7,10.1-9.1,19.3-14.2,28.6C498.3,514.4,497.9,518.3,501.9,521.8z M469.7,559.3
		c-1.7,3.6-0.5,7.3-0.2,10.9c0.9,10.7,3,21.2,0.7,32.1c-2,9.9-7,13.8-17.1,10.2c0.3,1.9,0.7,3.4,0.9,4.8c0.2,1.8,0.4,3.6,0.6,5.3
		c13,0.6,14.2-0.4,19.2-10.2c9.5-18.8,6.1-36.2-4.4-53.2c6.3,2.9,8.2,8.8,9.9,14.7c4.6,15.1,3.7,30.1-2.8,47.3
		c17.4-22.4,13.4-53-8.9-73.4C469.4,552.6,462.7,556.3,469.7,559.3z M398.1,421.8c-18-11.9-35.5-9-40,5.6
		c-3.7,3.5-10.5,2.7-11.8,10.7c8.5-7.6,16.6-2.4,24.8-1.9c8.4,0.4,16.7-1.1,28.2-4.9c-5.7,0-7.7,0-10.4,0
		C390.8,427,391.2,422.2,398.1,421.8z M513.2,643.7c11.4-1.6,18.4-12.7,16.3-26.2c-0.8-5.5-0.7-10.9-1.2-16.4
		c-1.4-14.7-10.5-26.2-16.4-39.3c-5.7,2.8-5.7,6.4-5.8,9.9c14.1,21,19.4,39.4,15.7,56.8c-2.4,2.2-6.9,2.3-8.7,7.2
		C513.2,637.7,513.2,640.7,513.2,643.7z M368.8,411.5c12.9-5.4,26.2,9.4,37.9-4.3C392.8,398.5,372.1,399.9,368.8,411.5z
		 M489.3,364.7c-13.5-1.5-23.3-10.3-34.7-18.6C457.2,361.3,475.7,370.9,489.3,364.7z M491.1,644.5c13.8-14.7,18.2-44.1,5.8-48.9
		C504.7,613.7,497.3,629,491.1,644.5z M357.3,635.4c-2.7,7.2-11.7,5.9-17.2,12.4c11.5,0.7,21,0.8,28.2-8.3
		C363.7,640.6,361.4,636.4,357.3,635.4z M438,611.1c3.3,0.6,6.2,2.2,9.4-0.2c-0.1-7.3-3.8-12.4-9.3-17.2
		C432.1,600.1,437.9,605.5,438,611.1z M427.8,535.7c6.3-6.5,5.3-12.5,4.1-19.8C424.5,521.5,424.4,527.4,427.8,535.7z M335.5,484.6
		c3.2-2.6,5.3-5.1,2.5-9.2c-2.2-1.1-4.7-1.9-7.2-0.2c-2,2.1-2.2,4.4-1.6,7.5C331.3,483.4,333.5,484,335.5,484.6z M457.6,533.2
		c1.7-5.7,3.5-11.5,5.6-18.7C454,519.5,455.9,526.4,457.6,533.2z" />
        <path fill-rule="evenodd" clip-rule="evenodd"
            d="M408.3,157.7c9.2,6.1,3.7,11.7-0.7,17.3c0.9,5.4,1.8,10.7,2.7,16.6
		c7.4,0,12.8,2.4,14.2,10.8c0.1-21,9-36.7,26.9-47.7c-13.8,16.7-14.3,34.9-7.6,54.1c1.1,3.3,3,4.2,8.3,3.1
		c-13.4-16.5-6.9-33.3,1.9-47c7-11,18.9-19.8,36.5-24.2c-12.1,12-27.1,16.8-32.2,31.6c-4.9,14.1-7.5,27.5,1.4,41.7
		c-2.7,3.2-6.1,7.1-10.3,11.9c7.9-0.9,10.2-7.8,16.5-10.8c2.3,11.1-13,14.2-10.3,24.5c6.7,0.4,6.1-5.6,8.1-9.6
		c0.8,2.1,1.4,4,2.1,5.9c5-0.4,4.2-6,8.3-8c-1.5,4.9,0.4,8.6,3.1,11.5c-1.1,3.2-1.9,5.9-2.8,8.5c17.4,18.4,44.5,11.4,71.3-18.2
		c1.2,10.7-4.6,21.2-16.3,29.3c-12.2,8.5-25.7,13.3-40.7,12.9c-3.9-0.1-7.9-0.7-10.5,2.8c-5.2-3-1.1-6.6-1.2-10
		c-7.2-8.4-16.5-12.4-29.8-16.6c7.8,9.8,16,11.6,23.9,14.6c1.3,3.5,2.2,7.2-0.2,12.9c-8.9-13-23.5-16.8-34.5-26.7
		c-5.6,12.4-15.9-5.6-22.1,3.9c-23.9-10.6-48.3-5.9-75.2-0.6c-4.7,3.5-11.9,8.9-21.7,16.2c1.9-6.2,2.8-9.2,3.8-12.2
		c-5.5-6.2-4.7,4.5-9.5,2.7c1.7-2.7,3.3-5.2,4-6.4c5.1-2.1,10.2,1.7,13.5-4.5c-3.8-4.1-4.5-9.7-6.6-15.3
		c10.8,0.9,12.2-6.5,12.4-15.5c4.5,4.8,3.8,10.4,5.9,15.3c2.3-1.1,3.2-4.4,7.2-3.2c-2.5-4.5-6.2-6.9-5.8-11.8
		c8.4,1.2,6.6,8.5,8.9,13.2c-1.3,2.9-2.6,5.5-4.1,8.8c9.6-1.4,9.2-8.8,10.4-16.5c3.2,10.2-0.3,16.4-10,23.1
		c7.2-1.9,11.3-2.9,14.8-3.9c4.6-5.1,6.3-12.3,13.7-13.7c3.2-0.4,2.3,4.2,5,4.3c4-3.7,1.6-9-0.5-9.7c-5.6-1.8-10.2-8.8-18.1-4.1
		c3-6-0.2-8.8-4.5-10.4c-4.3-1.7-4.7,2-5.3,5.5c-5.5-2.2-8.6-6-10.4-9.5c-0.2-5.2,4.2-5.3,6.1-8.4c-7.5-4.2-9.4,2.3-13.1,5.4
		c0.1,2.6,0.3,5.1,0.5,9.3c-9.1-13.3,7.2-16.5,7.6-27.8c-3.6,7.2-10.6,4.9-13.6,11.6c0.4-12.5-3.9-15-14.8-9.9
		c-0.2-2.4-0.4-4.8-0.7-7.7c7.5-2.1,14.7-4.1,21.6-6.1c8,3.2,8.9,12.9,16.3,16.6c1.6-2.9,1.9-5.8-0.9-8.7c5.6-1.1,9.7-5.3,15.3-4.4
		c-2.5,3.9-9.1,4.6-9.3,12.1c9.8-4.4,20.2-4.7,27.7-12.1l-0.3,0.2c8.8-1,17.7-1.7,23.7-10.1C402.3,162.4,407.5,160.1,408.3,157.7z
		 M407.1,215.6c-15.4-13-33.6-18-54.3-15.8c13.4,7.4,27.4,13.4,40.7,20.9c0.6-4.1,7.8-2.7,5.4-8.5
		C402.1,213.5,404.6,214.6,407.1,215.6z M414.6,202.5c-17-7.3-34.4-10.9-52.9-7.9C379.5,196.6,397.1,199.3,414.6,202.5z
		 M400.5,227.8c-3.3-0.7-6.1-2.1-8.5,0.4c-4,4.6,0.7,7.6,1.6,11.9c2.1-2.9,4.5-4.7,7.6-4.8C401,232.6,400.8,230.3,400.5,227.8z" />
        <path fill-rule="evenodd" clip-rule="evenodd" d="M533.6,810.9c1.1-1.8,2.4-3.6,3.2-5.5c6-13.7,11.8-27.4,17.5-40.5
		c-2.1-4-5.3-4.5-8.2-6c-3.1,2.3-6.1,4.4-8.8,6.4c-0.2,14-7.6,23.5-16.3,33.2c-8.1-5.3-18-1.3-25.6-6.4c-7.2,8.3-15.5,13-24.5,17.7
		c0.3,8-1.3,16.6,3.1,24.1c-8.9,27.8-13.5,32.9-26.5,29.6c-3.1-3-1.5-6.2-0.8-9.5c9.7-2.3,20.9-17.4,19.7-27.7
		c-1.4-12.1-4.7-23.9-9.4-35.2c3.9-4.4,8-8.2,9.4-12.1c27.4-11.2,30.2-32.2,24.9-56.6c6,0.9,2,7.5,6.5,8.5c9.1-6.1,5.6-30-3.3-43
		c-1.1-3.5,0.7-6,2.9-8.3c0,0-0.2,0.2-0.2,0.1c3.7,1.4,7.1-0.3,10.1-0.6c3.5-2.1,0.6-5.7,4-8.9c1.5-0.7,4.5-2.2,7-3.4
		c1.6-4.1-3.8-1.7-3.3-4.2c14-6.4,28.6-12.4,37.4-24.9c9.1-12.9,9.1-28.2,3.6-43.4c8.5,21.3,2.6,45.2,12.7,66l0.1,0
		c-3.7,0.2-5,2.2-5.9,5.7c-1.2,4.4-3.4,8.6-5.6,12.6c-5.1,9.1-11.5,17.8-5.2,29c0.7,1.2-0.4,3.5-0.7,5.8
		c-11.7,6.3-26.5,5.9-36.2,16.7c-3.2-3-1.5-5.7-2.4-8.4c7.5-4.5,14.6-8.8,22.2-13.4c0-1.4-0.8-3.6-3.8-5.2
		c-4.3,12.9-23.7,9.7-25.9,25.9c1.1,1.8,2.7,4.4,4.3,6.9c-7.8,14.2,18.9,27.8-0.4,41.6c5,4.7,9.5,3.9,13.3,0.8
		c9.4-7.6,4.6-17.2,2.8-26c3.3-1.7,5.3,1.7,4.8,1.7c13-4.3,22.6-8.9,34.9-8.1c3-1.1,7.3-2.7,12.2-4.5c1.1-1.9,2.6-4.4,4.1-7
		c-3.1-5-10.4-7.2-9.9-15.4c5.2-3.7,10.2-6,16.6-0.5c3.7,3.2,8,5.4,14.1,4.5c6.4-0.9,12.4,2.9,16.8,9.1c-1.3,5.9-0.6,12.8-7.2,17.3
		c-2-2.8,1.1-3.3,1.3-4.9c-3.7-2.5-7.5-5-11.5-7.7c-6.3,12-20.9,17.5-22,32.5c-7,0-12.7,0-19.4,0c-3.8,17.5-10.5,33.4-22.2,46.9
		c-1.1,0-2.3-0.1-3.4-0.1C534.1,814.4,533.8,812.7,533.6,810.9z M516.3,704c-2.6,3.1-4.3,5.2-7.2,8.7c12.7-3.9,18.9-10.6,19.1-22.4
		c0.1-6.6,1-13.1,9.8-17.5c-7.9,0.1-13.3-0.1-17.4,1.5C512.9,683.8,513,693.6,516.3,704z" />
        <path fill-rule="evenodd" clip-rule="evenodd" d="M183.8,550.9c3.1-7,10.4-7.9,16.4-10.9c-3.6-9.8-5.2-19.7-0.9-31.7
		c2.6,7.6-4.3,14.9,3.5,19.9c9.1-6.3,6.6-16.7,10.2-26.2c0.8,21.8,8.6,40.2,17,60.6c-2.4,16.5-1.1,35.3,2.8,53.6
		c3.5,16.7-0.1,31.1-8.9,45.4c-14.2,6.7-30.6,36.3-27.5,51.7c-4.4-0.2-7.8,1.5-9.4,6.4c-3-2.8-5.5-5-8-7.4
		c-6,5.3-10.3,11.6-11.6,20.5c2.8,5.5,0.3,13.3,6.8,19.2c1.1-0.6,3-1.5,5.7-2.8c-2.2,3.9-3.7,6.8-5.3,9.6c0,0,0.2-0.2,0.2-0.2
		c-1.6-0.8-3.1-1.6-5-2.6c-0.4,1.1-0.8,2.1-1.2,3.2l0.3-0.3c-3.9-7-7.2-14.2-6.8-22.6c-2.1,0.3-3.5,0.4-5.3,0.6
		c0.1-7.2,9.7-10.7,6.3-18.5c-15.5,1.7-24.7,14.8-28.3,40.7c-5.7-18.2,4.2-44.2,25-52.2c-0.9-1.8-1.7-3.5-3-6.1
		c2.7,1.1,4.3,1.7,5.7,2.3c3.6-2.7,1.3-5.7,0.8-8.5c2-0.5,3.3,3.1,5.9,0.6c-0.6-2.1-1.2-4.3-1.8-6.6c3.3-1,3.8,4.2,7.2,2.6
		c1.7-4.1-2.1-7.4-1.8-11.3c3,0.5,4,5.1,7.9,3.8c3.4-2.6-1.1-5.8,0.9-9c3,2.6,5.8,5,10,8.7c-0.7-5.3-1.2-8.8-1.7-12.8
		c2-0.2,3.9-0.4,6.3-0.7c-2-8.7,12.7-15.2,1.6-24.8c-5.6,1.7-12.1,1-17.5,5.9c-3.6-10.8-2.2-21.9-11.2-31.1
		c-9-9.2-3.3-46.8,5.9-56.8c-1,2.5-2,5-2.9,7.6c-4,12.5-7.9,25.1,2.1,36.6c4.1,4.7,9.1,8.5,13.9,13c2.7-0.5,6,1.4,9.6-1.4
		c-2.7-2-7.7,2.1-8.3-3.2c5.5-2.4,10.2,1.6,15,2c12.5-11.7,13.8-23.3,3.6-33c-5,4.4-4.7,12.9-11.2,16.2
		c-2.1-15.4-12.3-28.5-9.6-44.1c1.9-2.3,3.9-4.6,5.5-6.6c12.2,3.6,16.5,14.8,13.6,31.7c4.4-5.5,10.5-11.2,11.2-17.5
		c1.8-14.6-13.7-13-21.3-19.6C192,546.9,187.9,548.9,183.8,550.9z M223.4,586c0.7,8.1-2,14.1,2.5,20.9
		C227.6,599.6,230.7,593.7,223.4,586z" />
        <path fill-rule="evenodd" clip-rule="evenodd" d="M377.5,170.9c2.7-1.8,5.4-3.7,9.4-6.4c-9.9,0.2-17.3,6.4-26.2,5.2
		c-8.5-1.2-17.2-1.5-25.7-2.8c-8.6-1.3-17.8,0.7-26-4.2c2.4-2.1,6.6-3.1,4.5-7.7c-5.7-1.6-4.9,6.1-8.9,6.6c-4.1-3.3,2.2-4.3,0.8-7.2
		c-4.3-0.1-4.2,9.8-10.9,4.5c1.1-3.4,6.1-5.4,5.4-10.5c-1-1.9-2.2-4.2-3.4-6.4c8.7,4.8,19.4,6.4,24,16.9c7.6,2.8,16.6-0.9,24,5.7
		c3,2.7,9.2,1.1,11.9-4.4c7.9,0.1,16,3.2,26.5,0.2c-28.1-7.2-56.3-6.2-79.5-24.2c5.7-6.1,11.1-3,15.8-1.4c11.5,3.9,30.7-3.3,34.2-15
		c2-6.6,8-12.5,5.1-20.4c-15.7-2.7-15.7-2.7-19.9,1.7c3.6,5.4,1,12.9,5.9,17.9c-4.2,8.1-8.6,14.9-19,8.6c3.4-1.1,6.7-2.1,11.5-3.6
		c-7.7-3.6-14.7-2.2-21.3-4.2c6.2-1,12.3-2,20.5-3.3c-5.4-2.8-8.7-4.6-13.5-7.1c4-2.2,8.1-0.2,10.5-4.2c0-5.2,0-11.3,0-18.6
		c1.3-2.8,4.7-5.4,8.4-8.4c3.4,0,7,0,10.7,0c-0.2-13.6-6.3-20.7-19.9-23.1c3.4-8.1,9.3-4.9,15.9-3.4c-1.8-6.5-6.1-7.4-11.1-6.9
		c-4.2,0.4-9.1,5.3-12.6-2.5c7.5-2,15.3-1.6,20.1-5.7c10.7,5.8,21.4,10.4,27.4,21.9c1.8-3.5,3-5.7,4.2-8.1
		c12.1,25.4,6.2,54.1-17.6,86.6c6.9-0.7,7-0.7,26.4-38c7.3-14,2.9-30.1,5.5-47.4c4,5-0.2,5.8,0.4,7.5c2.9,3.2,5.4,6.2,12.5,3.8
		c-6.8,8.1-4.1,12.4,1.5,14.9c0.5,5-3.2,6.5-5.4,9.4c1.9,1.4,3.7,2.7,5.3,3.9c-0.1,6.4-4.9,7.3-8.9,8.5c-0.5,5.1,1.6,5.8,5.5,3.2
		c-0.1,7-1.9,10-8.5,6c-0.9,2.2-1.9,4.7-2.7,6.8c2,3.3,3.8,0.4,8-0.6c-6.7,11.4-12.1,20.6-17.4,29.7c6.6,6,12.9,9.8,21.3,8.3
		c2.8-0.5,4.6,1.4,5,4.2c-5.8,2.4-9.6,8.2-15.9,9.8c-4.1,1-7.2,3.3-6.8,8.2l0.3-0.2C383.3,172,381,170.3,377.5,170.9z" />
        <path fill-rule="evenodd" clip-rule="evenodd" d="M193.3,446.1c-6.3-2-12.5-4-19.1-6.1c-2.1-3.8-0.6-10.4-7.6-11.4
		c3.3-0.8,6.6-1.5,10.1-2.3c-1,10.7,8.8,6.1,13.8,10c-3.6-7.5,2.4-8.4,7.2-11.3c-2.8-0.7-4.5-1.2-7.1-1.9c1.7-5.3,1.8-10.2-6.3-10.8
		c2-1.6,3.5-2.9,5.1-4.2c-6.1-6.4-10.1,1.9-15.4,1.6c-3.5-4.4-5.5-10.1-11.5-13.7c6.6-3.7,10.2-12,19.1-6.4
		c-4,4.3-10.1,7.1-7.8,15.1c1.9-1.7,3.4-3.1,4.8-4.3c12.4,3.5,25.6-4.7,29-17.9c-5.2,4-9.9,5.2-17.3,3.9c2.9-3.7-1.3-6.1-2-9.2
		c12.5-6.4,17.1-18.2,21.3-29.3c4.8-12.8,16.3-16.9,25.6-24.4c-14.4,16-20.9,35.8-24.4,56c-4.7,27.1-1,54.8-0.6,82.2
		c0.1,6.7,0,13.4,0,21.4c-2.2-3.8-3.6-6.3-5.6-9.8c-3,5.1,3,11.4-4.5,13.8c-8-4.1-2.6-13.8-8-20.3c-6.2,16.4,4.8,32.3-0.2,48
		c-2.4-0.8-2-3.9-4.2-3.3c-5.6,12,1.1,28-13.2,37.2c-3.3-0.9-0.7-5.8-6.4-5.9c3.6-3.2,5.9-5.2,8.3-7.4c1.3-3.6-1.5-6.8-2.1-10.2
		c0.3-3.8,2.1-6.4,4.5-8.5c-0.3-14.5-2.9-28.2-16.3-37.1c2.3-13.9,11-22.2,23.2-27.2c7.1,5.2,10,12.9,15.8,20.5
		c1.3-7,2.2-12.1,3.2-17.2c-3.5-2.5-10.9,0.4-9.4-7.4c5.6,0.4,7.9-2.5,8.3-7.7c-4.8-2.7-8.4-0.2-12.4,1.4
		C192,443.5,192.7,444.8,193.3,446.1z" />
        <path fill-rule="evenodd" clip-rule="evenodd" fill="none" d="M183.8,550.9c4.1-2,8.2-4.1,12.2-6.1c7.6,6.5,23.1,5,21.3,19.6
		c-0.8,6.3-6.9,12-11.2,17.5c2.9-16.9-1.4-28.1-13.6-31.7c-1.6,1.9-3.6,4.3-5.5,6.6c-2.7,15.6,7.6,28.7,9.6,44.1
		c6.6-3.2,6.2-11.8,11.2-16.2c10.2,9.7,8.9,21.3-3.6,33c-4.8-0.4-9.5-4.4-15-2c0.6,5.4,5.5,1.3,8.3,3.2c-3.5,2.8-6.9,0.9-9.6,1.4
		c-4.9-4.5-9.8-8.4-13.9-13c-10-11.5-6.1-24.1-2.1-36.6c0.8-2.6,1.9-5,2.9-7.6C177.8,559.1,180.8,555,183.8,550.9z" />
        <path fill-rule="evenodd" clip-rule="evenodd" d="M191.2,864c-0.8,0.1-1.6,0.2-2.4,0.4c0.3,0.5,0.7,1,1,1.5
		c4.1-2.7,8.3-5.4,12.8-8.4c0-5.3,0-10.4,0-17.1c6.1,7.4-2.1,16.4,6,21.6c-3.2,5.9-3.2,11.3,3.5,15.1c1,3.1,3,5.9,1.9,9.4
		c-4.1,1.9-6.6-2.1-9.8-2.9c-9.4,5-6.3,15.4-10.6,23.6c-7.7-6.5-15.8-2.1-24.5-1.4c-5.6-8-14.1-12.9-21.9-19.1
		c1.7-2.6,5.9-0.5,6.3-4.4c-1.4-2.4-5.7,1.7-6.5-2.7c5.1-4.1,8.3,0.7,12,2.8c1.7-1.8,3.3-3.6,5-5.5c5.4-0.6,10.8-3,15.5,2.2
		c4.8-4.8,1.4-9.2-0.8-13.8C183.3,864.8,187.3,864.4,191.2,864L191.2,864z" />
        <path fill-rule="evenodd" clip-rule="evenodd" d="M329,857c9.8-5.6,5.1-12.5,2.9-18.4c-4.3-3.1-8-2.7-11.7-2.8
		c3.9-1.2,5.4-6.1,9.8-5.7l0,0c-0.2,1.4-0.4,2.8-0.6,4.7c15.6-2.4,22.4,6.1,25.3,20.3c-2.8,25.3-24,35.1-38.9,34.3
		c-15.8-0.8-32.1-13.7-33.5-26c4.2-0.5,7.8-2.5,10.3-6.2c-6-14.9,4.4-26,26.7-27.4c-4.6,5.6-14.8,1.2-16.3,10.2
		c-5.2,0.3-5.8,4.6-7.2,7.7c-0.1,9.6,7,12.9,13.6,14.3C316,863.3,324.2,865.5,329,857z M338.4,858.9c-3.4,2.1-8.2,2.8-8.1,8.4
		c-4,0.4-8.9-1.1-10.5,5.2c1,1.7,2.2,3.7,3.3,5.5c3.5,0,5.9-1.2,7.8-3.9c-0.2-2.2-0.4-4.6-0.7-7c3.5,3.7,7.3,4,11.2,1.5
		c2.5-4.9-1.8-6.9-3.3-10.1c2.9,0.3,5.3,3.2,8.6,1.8c2.5-6.8,1.1-8.4-7.1-8.2C337.9,854.2,337.6,856.4,338.4,858.9z M298.2,876.4
		c3.8,1.9,6.8,1.5,8.4-1.9c1.7-3.5,1.7-7-1.8-10.1C301,867.5,296,869.6,298.2,876.4z M299.3,863c-4-3.5-6.7-2.1-9.2,0.7
		c-2.5,2.9-3.4,5.8,0.4,8.6C295.1,871,297.5,867.7,299.3,863z M317.7,876.6c1.1-4.8,0.2-8.3-5.9-8.2c-2.8,3.3-4.4,6.6-1.5,10.6
		C313.2,879.7,315.6,878.9,317.7,876.6z" />
        <path fill-rule="evenodd" clip-rule="evenodd" d="M644.9,796.6c1.5,3.5,4.3,8,5.2,12.9c0.8,4.6-0.4,9.6-0.7,15.2
		c10.1-13.6,7.1-27.2,0.3-42.7c8,3.9,4.9,10.8,9.9,13.7c4.3-1.7,7.6-5.2,11-8.6c2.6,4.2,3.4,8.6,0.4,13.8c-3.7,0.4-7.9,0.9-12.6,1.5
		c2.6,15.1-0.7,28.5-6.6,42.4c-6,14.1-5.3,30.1-0.8,45.3c1.4,6.6-7.5,8.9-6,15.5c-6.2,3.2-10.3,8.9-17.9,9.5
		c-4.5-3.8-10.5-6.4-14.2-12.2c4.8-3.2,9.7,0,13.7-1.5c8-5.8,16-11.2,12.3-22.2c3.2-1.7,3,2.9,6.8-0.1
		C634.3,852.2,642.4,823.9,644.9,796.6z" />
        <path fill-rule="evenodd" clip-rule="evenodd" d="M249,414.8c4.1-3.8,9.4-1.4,15.6-3.1c-7.4-1.2-1.7-5.9-4.7-9.4
		c-15.3-6.8-30.3-6.1-43.8,7.1c0-12.8,0.5-13,44.9-23.6c-0.5,3-5.2,2.3-5,6.4c11.2-1.3,22.4-2.6,33.7-3.9c2.4,12.7-6.6,11.6-16.9,12
		c21.3,5.4,26.1,19.5,16.7,39.9c0.3-4.3,0.9-9.1-3.6-11.5C274.2,422.5,262.9,415.2,249,414.8z" />
        <path fill-rule="evenodd" clip-rule="evenodd" d="M32.4,841.8c-7.1-10.3,0.5-20.9,10.5-24.8c18.5-7.1,24.3-19.8,20.5-38.9
		c8.9,7.4,4.6,15.8,3.5,25.9c10.1-13.9,3.4-28.3,6.6-42.4c2.4,3,3.9,5.1,5.4,7c5.1-7.2-6.4-12.6-0.8-21.6c7.2,7.3,7.8,15.8,7.2,24.3
		c-1.8,24.6-13.7,43.6-32.8,58.8c-11.4,9-10.9,9.6-14.3,32.3c-2.9-0.7-5.8-1.4-9-2.2c0.3-3.3,4.9-1,5.7-3.8
		c1.4-5.3-5.8-9.1-2.6-14.7c4.9-7.2,12.1-12.6,14.9-21.3C41.2,826.7,30.5,829.8,32.4,841.8z" />
        <path fill-rule="evenodd" clip-rule="evenodd" fill="none" d="M249,414.8c13.9,0.3,25.2,7.6,36.9,13.8c4.5,2.4,3.9,7.2,3.6,11.5
		c0,0-0.3,0.4-0.3,0.4c-6-0.5-3-7.7-8.3-9.9c-1.4,0.3-3.9,0.4-6.1,1.2c-14.9,5.6-29.7,10.3-44.6,0c-1.7-1.2-4.8-0.5-7.2-0.6l0.3,0.3
		c7.3-7.8,17.8-10.7,26.1-17L249,414.8z" />
        <path fill-rule="evenodd" clip-rule="evenodd" d="M376,792.5c-3.4,6.7-20.8,10.4-30.2,7.2c-2.5,1.1-4.8,2.5-5.6,5.4
		c3.9,7.4,5.9,7.5,13.5,0.7c2.5,1.2,5,2.5,8.7,4.3c-27.6,3.7-54,7.6-83,3.5c6.8-5.2,15,3.5,18-2.7c14.2,0,27.3,0,40.2,0
		c1-3.8,1.3-6.5-0.9-8.5c-5.6-3.6-11.5,6.1-16.1-1.1c-9.5,3.5-18.4,2.6-29,0.9c-1.2,0.8-3.8,2.4-6.4,4.1c-0.6-1.5-1.2-3-1.9-4.8
		c-3.2,1-6,1.9-7.8,2.4c-19.9-4.4-38.9-8.7-57.8-12.9c17.2,0.5,33.9,5.2,50.9,7.1c17.9,2,35.6,0.6,53.4,0.5
		C339.9,798.3,357.6,796.2,376,792.5z" />
        <path fill-rule="evenodd" clip-rule="evenodd" d="M534.3,816.2c1.1,0,2.3,0.1,3.4,0.1c-2.6,12.5-6.6,24.3-17,32.9
		c-2.1,1.7-4.2,4-5,6.5c-7.8,24.1-31.3,39.9-35,66.1c-0.1,0.7-2,1-6.1,3c9.5-24.8,17.3-47.3,34.9-66.8c-7.1,0.6-6.4,7.1-13.2,8.3
		c1.8-9.4,11.1-13,13.1-20.4C522.2,839.8,528,827.8,534.3,816.2z" />
        <path fill-rule="evenodd" clip-rule="evenodd" d="M437.6,731.4c-12.7,20.7-140.8,35.5-182.6,21.2
		C318.9,757.3,379,758.2,437.6,731.4z" />
        <path fill-rule="evenodd" clip-rule="evenodd" d="M222.9,431.2c2.4,0.2,5.5-0.6,7.2,0.6c15,10.3,29.8,5.6,44.6,0
		c2.2-0.8,4.7-0.9,6.1-1.2c5.3,2.2,2.3,9.5,8.3,9.9c-10.4,3.2-20.4,8.2-31.4,8.4c-4.9,0.1-10.3-1.5-14.6-3.9
		C236,441.1,229.6,435.9,222.9,431.2z" />
        <path fill-rule="evenodd" clip-rule="evenodd" d="M291.4,832c-24.4-7.2-48.3-16.8-76.2-19.2c-1.7-1.9-5-5.5-8.3-9.1
		c30.9,12.2,63.7,15.1,97.1,18.6C302,829.6,295.7,829.6,291.4,832z" />
        <path fill-rule="evenodd" clip-rule="evenodd" d="M330,830.1c0.1-3.1-3.1-3.2-5.9-5.6c15.2-12,35.7-4.4,50.8-17.4c0,6,0,9.8,0,14.6
		C360.2,824.5,345.1,827.3,330,830.1C330,830.1,330,830.1,330,830.1z" />
        <path fill-rule="evenodd" clip-rule="evenodd" d="M472,743.7c-9.5,6.1-19.3,9.8-29,10.8c1.7-4.3,8.8-3.6,8.5-9.5
		c-1.9-3.8-5.5-0.8-8.3-1.9c1.3-5.3,6.5-3.9,10-5.6c0.4-4.1-0.3-8.6,2.7-11.3c7.4,4,17.2,6.2,15.8,17.7
		C471.8,744,472,743.7,472,743.7z" />
        <path fill-rule="evenodd" clip-rule="evenodd" d="M274.6,230.9c4.1,5.4,7.8,10.2,11.2,14.7c-2.7,1.4-4.8-2.1-7.4-4.2
		c-6.6,5.4-14.7,4.9-22,6.9c-9.1,2.6-19,2.1-28.4,3.8c-5.8,1.1-4.9-3-6.2-5.8c6-0.5,11.9-1,17.4-1.5c1-3,1.8-5.6,2.8-8.5
		C248.3,247.9,259.2,246.4,274.6,230.9z" />
        <path fill-rule="evenodd" clip-rule="evenodd" d="M323.7,335.8c10,7.6,12.1,20.3,5.2,33.6c-3.5,6.8-6.9,15.1-18.3,14.2
		c7.5-12.6-4.4-23.9,1.7-37.9c-0.3,7.6,0.3,12.9,2.9,19.1c0.5-3.9,0.9-6.8,1.3-10.2c4.8,8.6,3,16.6-1.7,25.2c6.5-1.4,5.6-6.2,6.7-9
		c2.9-7,2.7-14.8,6.7-21.8C331.2,344.2,325.9,340.3,323.7,335.8z" />
        <path fill-rule="evenodd" clip-rule="evenodd" d="M95.7,728.5c5.7,5,8,7,10.1,8.8c1.1,9-1.6,17.7,2.4,26.4
		c-4.6,7.7-10.4,13.2-23.7,13.7C103.6,764.5,98.1,747.4,95.7,728.5z" />
        <path fill-rule="evenodd" clip-rule="evenodd" d="M354.7,259.2c9.4-5.2,19.1-0.6,28.5-0.6c9.9,0,19.5-1.5,30.4-2.6
		c-1.5,3.4-2.5,5.7-3.6,8.2C390.8,271.2,373.3,257.2,354.7,259.2z" />
        <path fill-rule="evenodd" clip-rule="evenodd" d="M305.1,67.2c-10.5,20.4-13.5,41.4-2.4,65.6c-15.2-14.6-17.4-23.7-9.8-39.4
		c2.9-5.9,2.4-11.9,2.9-18.3c3.3-2.3,4.7-7,9.5-7.7L305.1,67.2z" />
        <path fill-rule="evenodd" clip-rule="evenodd" fill="none" d="M273.2,791.8c-3.6-8.1,2-14.6,3.7-21.8c3.8-1.1,4.9-7.8,11.4-4.7
		c-1.3,6.3-2.4,12.9-4.2,19.3C282.7,789.8,279.3,793.1,273.2,791.8z" />
        <path fill-rule="evenodd" clip-rule="evenodd" d="M191.3,864c-1.7-2.5-3.3-5-5.1-7.6c1-2.8,5.7-0.8,6-5.1c-5.4,0.5-10.8,1-17.5,1.6
		c1.8-4.7,3.3-8.9,4.9-13.3c10.1-3.9,12.7,6.6,19.1,8.7c-0.8,6.7-4,11.3-7.6,15.8C191.2,864,191.3,864,191.3,864z" />
        <path fill-rule="evenodd" clip-rule="evenodd" d="M360.5,760.1c-1.4,6.8-6.1,2.1-9.1,2.4c-4,3.5-0.2,7-0.4,11
		c-4.4-2.9-3.3-9.6-8.8-11.1c-3.7,0.5-3.9,3.8-4,8c-2.4-4.5-4.1-7.8-9.4-5.7c-2.6,0.8-0.5,5-3.9,6.8c-0.6-2.4-1.1-4.6-1.6-6.7
		c-3.1-1.5-5.5-0.7-8.2,1.6c-0.3,2.3-0.7,5-1.6,11.1c-0.9-6.3-1.4-9.3-1.8-12.4c-7.9-2.7-10,2.1-11.8,7.9c0-3.3,0-6.7,0-12.8
		c20.4,0,40.6,0,60.8,0L360.5,760.1z" />
        <path fill-rule="evenodd" clip-rule="evenodd" fill="none" d="M172.7,680c-0.3,3.9,3.5,7.2,1.8,11.3c-3.4,1.6-3.9-3.6-7.2-2.6
		c0.6,2.2,1.2,4.5,1.8,6.6c-2.5,2.5-3.9-1.1-5.9-0.6c-3.2-2.3-6.3-4.6-9.5-6.9c4-5.2,6.3-12.7,15.3-11
		C170.3,677.8,171.5,678.9,172.7,680z" />
        <path fill-rule="evenodd" clip-rule="evenodd" d="M134.3,684.4c-7.6,8.5-13.1,18-19.2,27.1c-2.3-0.8-4.4-1.5-7.1-2.4
		c1.9-2.3,3.7-4.5,6-7.3c-2.5-0.6-4.1-1.1-6.4-1.6C115.6,692.7,126.3,690.8,134.3,684.4z" />
        <path fill-rule="evenodd" clip-rule="evenodd"
            d="M335.5,372.1c5.5,12.6,1.2,21-14.3,28.2c-0.6,1.9-1.3,4.1-2.1,6.6
		c-2.6,0-5,0-7.4,0c-1.7-2.3-0.9-4.1,0.8-6.1c-2-1.2-4.1-2.4-8.5-5c10,1.6,17.3,2,23.7-3.1C334.3,387.4,336.5,380.5,335.5,372.1z" />
        <path fill-rule="evenodd" clip-rule="evenodd" d="M298.5,196.3c1.8-2.4,5.5-5.8,12-3.9c-2.8,3.1-9,2.7-7.4,9.3
		c-12.4-2.2-23.8,6.6-35.5-1.9C277,198.8,286.5,197.7,298.5,196.3z" />
        <path fill-rule="evenodd" clip-rule="evenodd" d="M117.2,681.8c0.8-4-2.4-4.4-3.4-6.1c1.7-4.4,6.3-3.8,9.1-6
		c3.1-6.2,4.6-12.9,5.8-21.2C135.7,662.2,131.8,672.9,117.2,681.8z" />
        <path fill-rule="evenodd" clip-rule="evenodd" d="M325.7,88.9c-5.6,10.3-10.9,10.8-17.1,1.2c6.9,0.6,4.3-6.4,7.9-8.9
		c-1.3-0.7-2.5-1.4-4.9-2.7c2.6-0.2,4.1-0.4,5.5-0.4C324.4,78.4,324.1,84.5,325.7,88.9z" />
        <path fill-rule="evenodd" clip-rule="evenodd" fill="none" d="M384.7,174.9c-0.4-5,2.7-7.2,6.8-8.2c6.4-1.6,10.1-7.4,15.9-9.8
		c0.3,0.3,0.6,0.6,0.9,0.9c-0.8,2.4-6.1,4.6,0.2,7.1C402.4,173.2,393.5,173.9,384.7,174.9z" />
        <path fill-rule="evenodd" clip-rule="evenodd" fill="none" d="M377.5,170.9c3.5-0.6,5.8,1.1,7.5,3.8c-7.5,7.4-17.9,7.6-27.7,12.1
		c0.2-7.5,6.8-8.1,9.3-12.1C370.6,174.4,374.3,173.3,377.5,170.9z" />
        <path fill-rule="evenodd" clip-rule="evenodd" fill="none" d="M191.5,764.2c6.8-5.3,12.9-12,22.2-13.4
		c-5.4,8.9-12.7,15.4-22.1,19.6C191.6,768.3,191.5,766.2,191.5,764.2z" />
        <path fill-rule="evenodd" clip-rule="evenodd" d="M168.6,759.1c10.9,6.5,17.6,16,21.3,28.2c1.2,3.9-2.2,5.5-2.1,8.5l0.1,0
		c-1.7,0-3.5,0-3.8,0c0.8-15.1-10-24.9-15.2-36.9C168.8,758.9,168.6,759.1,168.6,759.1z" />
        <path fill-rule="evenodd" clip-rule="evenodd" d="M534.3,816.2c-6.3,11.6-12.1,23.6-25,29.7c8.1-11.7,16.2-23.3,24.3-35
		C533.8,812.7,534.1,814.4,534.3,816.2z" />
        <path fill-rule="evenodd" clip-rule="evenodd" d="M169,676.7c-9-1.8-11.3,5.8-15.3,11c-3.7-1.7-6,4-9.9,2.2c0.2-6,6.1-2.4,8.2-5
		c-0.3-3-2.6,0.2-3.6-2.6c7.3-3.9,12.2-12.5,23.3-14.5C170.5,671.8,169.8,674.3,169,676.7z" />
        <path fill-rule="evenodd" clip-rule="evenodd" d="M187.8,795.8c8.9,7.4,6.2,18.5,9.5,27.7c-3.7-1.9-4.9-6.2-9.9-6.4
		C190.8,809.9,180.8,802.9,187.8,795.8L187.8,795.8z" />
        <path fill-rule="evenodd" clip-rule="evenodd" d="M273.2,791.8c6.1,1.3,9.5-2,11-7.2c1.8-6.4,2.8-13,4.2-19.3
		c-6.5-3.1-7.6,3.6-11.4,4.7c0.3-2.5,0.6-5.1,1-8.4c5.2,0.3,10.6,0.6,16.9,1c-8.1,8.9-6.4,20.7-10.7,30.9
		C280.2,793.3,276.4,796.1,273.2,791.8z" />
        <path fill-rule="evenodd" clip-rule="evenodd" d="M154,666.6c0.8-10.2-2.1-19.8-5.7-31.3c11.1,7.9,10.8,18.1,11.7,27.6
		c0.3,3.1-2.3,4.8-5.6,4.7C154.3,667.3,154.2,666.9,154,666.6z" />
        <path fill-rule="evenodd" clip-rule="evenodd" d="M235.1,846.1c-6.8-6.1-9.3-14.7-12-23.3c7.8,6.6,14.5,14,17,24.6
		C238,848.7,236.6,847.2,235.1,846.1z" />
        <path fill-rule="evenodd" clip-rule="evenodd" fill="none" d="M329,857c-4.8,8.5-13,6.3-19.7,4.9c-6.6-1.4-13.7-4.6-13.6-14.3
		c1.4-3.1,2-7.4,7.2-7.7c-1.5,3.9-2.5,7.8-1.6,12c7.6,10.8,17.5,9.2,27.8,5.3L329,857z" />
        <path fill-rule="evenodd" clip-rule="evenodd" d="M249.3,414.5c-8.3,6.3-18.8,9.2-26.1,17c-1.2,0-2.4,0-4.8,0
		C225.6,418.6,236.6,415,249.3,414.5z" />
        <path fill-rule="evenodd" clip-rule="evenodd" d="M284.5,91.6c3.9-2.7,2-7.1,7-8.9c-0.3,9.1-5.9,15.8-8,23.6
		c0.2-10.8-3.3-21.5,0.9-32.2C284.5,79.5,284.5,84.9,284.5,91.6z" />
        <path fill-rule="evenodd" clip-rule="evenodd" d="M329.2,857.2c-10.3,3.9-20.3,5.6-27.8-5.3c8.6,6.3,17.3,5.9,25.6,1.2
		c3.1-3.7,1.9-7.5,2.7-11.2C334.4,847.4,330.2,852.3,329.2,857.2z" />
        <path fill-rule="evenodd" clip-rule="evenodd" d="M214,886.5c1.1-3.5-0.9-6.3-1.9-9.4c3.3-0.1,4.6,1.7,5.6,4.8c0.6,2,3.3,3.3,5.2,5
		c-0.5,4.1-1.1,8.2-2,14.8C217.1,895.4,214.2,891.7,214,886.5z" />
        <path fill-rule="evenodd" clip-rule="evenodd"
            d="M402.1,804.5c-1.3-16,11.5-37.2,25.6-41.2C414.1,775,405.6,787,402.1,804.5z" />
        <path fill-rule="evenodd" clip-rule="evenodd" d="M360.6,760.3c12.9-4.4,27-3.2,39.9-7.9c-12.7,5.7-25.6,10.7-40.1,7.7
		C360.5,760.1,360.6,760.3,360.6,760.3z" />
        <path fill-rule="evenodd" clip-rule="evenodd" d="M305.4,67.4c1.5-7.9,7.4-12.4,12.6-17.7c4.4,1.4,8.1,2.5,11.9,3.6
		c-10.5,0.9-17.8,7-24.7,13.8C305.1,67.2,305.4,67.4,305.4,67.4z" />
        <path fill-rule="evenodd" clip-rule="evenodd" fill="none" d="M289.6,526.3c9.3-0.7,18.7-0.8,27.9,2.2c-11.1,0.1-22.1,3.7-33.2-0.4
		C286.1,527.5,287.8,526.9,289.6,526.3z" />
        <path fill-rule="evenodd" clip-rule="evenodd" d="M270.2,132.3c5-0.4,6.8,5.7,9.5,0.5c3.2,3,6.3,5.8,11.2,10.2
		C280.3,143.9,275.4,139.7,270.2,132.3z" />
        <path fill-rule="evenodd" clip-rule="evenodd" d="M470,312.9c-3.5,0.3-6.6-0.2-9.4-2.9c3.3-6,12.5-4.3,14.3-11.8
		C475.8,304.2,474.5,309.1,470,312.9z" />
        <path fill-rule="evenodd" clip-rule="evenodd" d="M298.9,780.6c0.3,3.3,0.6,6.6,0.9,10.1c6.3,2.8,10.1,1.1,11.7-5.8
		c2.3,3.1,0.7,5.7,0.9,8.6c-7.4,0-14.4,0-23.1,0C296.3,790.7,298.3,785.8,298.9,780.6z" />
        <path fill-rule="evenodd" clip-rule="evenodd" d="M576.6,775.6c8.7,8.4,15,14.4,21.2,20.6c1.6,1.6,2.7,3.8,3.1,6.5
		C595.6,792.6,582.2,790,576.6,775.6z" />
        <path fill-rule="evenodd" clip-rule="evenodd" d="M235.1,846.1c1.5,1.1,2.9,2.6,5,1.2c5.1,4.9,5.6,11.5,6.8,18
		C241.6,859.7,237,853.7,235.1,846.1z" />
        <path fill-rule="evenodd" clip-rule="evenodd" d="M191.5,764.2c0,2.1,0.1,4.1,0.1,6.2c-6.3-3-12.9-5.4-16.8-11.8
		c0,0-0.2,0.2-0.2,0.2c2.9-1.6,5.7-3.1,9.4-5.1c-1.3,2.4-2.2,4.2-3.8,7.1C185,759.7,186.8,765.4,191.5,764.2z" />
        <path fill-rule="evenodd" clip-rule="evenodd" d="M257.2,762.9c5.3-4.3,11.3-1.4,19.8-2.7c-7.4,5.7-11.3,10.5-14.4,17.8
		c-0.8-6.8,4-10.3,4.3-15.1C263.6,761.4,260.5,762.8,257.2,762.9z" />
        <path fill-rule="evenodd" clip-rule="evenodd" d="M154.4,667.6c-1.3,2.6-3.3,4.3-7,5.4c3.1-9.1-0.7-17.3-2.5-27
		c8.1,5.8,5.7,14.4,9.1,20.6C154.2,666.9,154.3,667.3,154.4,667.6z" />
        <path fill-rule="evenodd" clip-rule="evenodd" fill="none" d="M193.3,446.1c-0.7-1.3-1.3-2.6-2.2-4.3c4-1.6,7.6-4.1,12.4-1.4
		c-0.4,5.1-2.7,8-8.3,7.7C194.6,447.4,194,446.8,193.3,446.1z" />
        <path fill-rule="evenodd" clip-rule="evenodd" d="M247.8,199.2c6.1-4.9,11.6-4,17.4-4.4c-1,2.8-1.8,5.1-2.6,7.5
		C258.1,201.3,253.8,200.4,247.8,199.2z" />
        <path fill-rule="evenodd" clip-rule="evenodd" d="M568.6,660.5c-0.4,7.7-0.8,15.3-1.2,23.2c-3-0.2-5.3,0.4-7.2,2.9
		c-1.4-5.4,2.2-6.9,4.5-9.4C565.3,671.5,564.9,665.5,568.6,660.5C568.7,660.5,568.6,660.5,568.6,660.5z" />
        <path fill-rule="evenodd" clip-rule="evenodd" d="M326.7,742.9c3.4,2.7,5.5,4.4,8,6.4c3.8-1,8-2.8,11.9,1.4c-7.7,0.4-15,0.7-24,1.2
		C325.1,748.7,328.1,747.1,326.7,742.9z" />
        <path fill-rule="evenodd" clip-rule="evenodd" fill="none" d="M425.2,935.8c-4.2-2.3-8.8-1.3-13.2-1.6c-0.1-5.8,3.3-7,8.1-6.3
		c5,0.7,7,3.2,4.9,8.2C424.9,936.1,425.2,935.8,425.2,935.8z" />
        <path fill-rule="evenodd" clip-rule="evenodd" fill="none"
            d="M398.1,421.8c-6.9,0.3-7.2,5.1-9.2,9.5c2.7,0,4.7,0,10.4,0
		c-11.5,3.7-19.8,5.3-28.2,4.9c-8.2-0.4-16.3-5.7-24.8,1.9c1.3-8,8.1-7.2,11.8-10.7C362.5,412.8,380.1,409.9,398.1,421.8z" />
        <path fill-rule="evenodd" clip-rule="evenodd" fill="none" d="M513.2,643.7c0-3,0-5.9,0-7.9c1.7-4.9,6.2-5,8.7-7.2
		c3.7-17.4-1.6-35.8-15.7-56.8c0-3.5,0.1-7.1,5.8-9.9c5.9,13.1,15,24.5,16.4,39.3c0.5,5.4,0.4,10.9,1.2,16.4
		C531.6,631,524.6,642.1,513.2,643.7z" />
        <path fill-rule="evenodd" clip-rule="evenodd" fill="none" d="M469.4,559.2c10.5,17,13.9,34.5,4.4,53.2c-5,9.9-6.2,10.9-19.2,10.2
		c-0.2-1.7-0.3-3.5-0.6-5.3c-0.2-1.5-0.5-3-0.9-4.8c10.1,3.6,15-0.3,17.1-10.2c2.2-10.9,0.2-21.4-0.7-32.1
		c-0.3-3.6-1.5-7.3,0.2-10.9C469.7,559.3,469.4,559.2,469.4,559.2z" />
        <path fill-rule="evenodd" clip-rule="evenodd" fill="none" d="M469.4,559.2c0,0,0.3,0.1,0.3,0.1c-7-3.1-0.2-6.7-2-11.5
		c22.3,20.4,26.3,51,8.9,73.4c6.5-17.2,7.4-32.2,2.8-47.3C477.6,568.1,475.7,562.2,469.4,559.2z" />
        <path fill-rule="evenodd" clip-rule="evenodd" fill="none" d="M368.8,411.5c3.3-11.6,23.9-13,37.9-4.3
		C395.1,421,381.7,406.1,368.8,411.5z" />
        <path fill-rule="evenodd" clip-rule="evenodd" fill="none" d="M501.7,521.7c-4.3,7.8-9.5,15.5-1.7,24.6c-2.5,4.3-4.2,9-4.4,14.3
		c-4.8-0.6-5.9-4.7-8.3-7c2-9.2,0.7-19.1,6.9-27.3c2.2-2.9,3.5-5.8,7.7-4.7L501.7,521.7z" />
        <path fill-rule="evenodd" clip-rule="evenodd" fill="none" d="M489.3,364.7c-13.6,6.2-32.2-3.5-34.7-18.6
		C466.1,354.4,475.8,363.2,489.3,364.7z" />
        <path fill-rule="evenodd" clip-rule="evenodd" fill="none" d="M491.1,644.5c6.2-15.5,13.6-30.8,5.8-48.9
		C509.3,600.5,504.9,629.8,491.1,644.5z" />
        <path fill-rule="evenodd" clip-rule="evenodd" fill="none" d="M357.3,635.4c4.1,1,6.3,5.2,11,4.2c-7.2,9-16.7,9-28.2,8.3
		C345.7,641.3,354.7,642.6,357.3,635.4z" />
        <path fill-rule="evenodd" clip-rule="evenodd" fill="none" d="M501.9,521.8c-4-3.5-3.6-7.4-1.3-11.6c5.1-9.3,10.6-18.5,14.2-28.6
		c-1.5,14.4-6.7,27.5-13.2,40.2C501.7,521.7,501.9,521.8,501.9,521.8z" />
        <path fill-rule="evenodd" clip-rule="evenodd" fill="none" d="M462.1,324.8c2,5.2,10.9,5.6,9.1,14c-11.6-0.4-14.9-11.7-23.9-17.3
		c6.8-1.9,10.9,1.2,15.1,3.6C462.4,325.1,462.1,324.8,462.1,324.8z" />
        <path fill-rule="evenodd" clip-rule="evenodd" fill="none" d="M438,611.1c-0.1-5.6-6-11,0.1-17.5c5.5,4.8,9.2,10,9.3,17.2
		C444.3,613.3,441.4,611.7,438,611.1z" />
        <path fill-rule="evenodd" clip-rule="evenodd" fill="none" d="M427.8,535.7c-3.4-8.4-3.2-14.2,4.1-19.8
		C433,523.2,434.1,529.2,427.8,535.7z" />
        <path fill-rule="evenodd" clip-rule="evenodd" fill="none" d="M335.5,484.6c-2-0.6-4.3-1.3-6.3-1.9c-0.6-3.1-0.4-5.5,1.6-7.5
		c2.5-1.7,5-0.9,7.2,0.2C340.8,479.5,338.7,482,335.5,484.6z" />
        <path fill-rule="evenodd" clip-rule="evenodd" fill="none" d="M457.6,533.2c-1.7-6.8-3.5-13.7,5.6-18.7
		C461,521.7,459.3,527.5,457.6,533.2z" />
        <path fill-rule="evenodd" clip-rule="evenodd" fill="none" d="M407.1,215.6c-2.5-1-5-2.1-8.2-3.4c2.4,5.8-4.8,4.3-5.4,8.5
		c-13.4-7.4-27.3-13.5-40.7-20.9C373.5,197.6,391.8,202.6,407.1,215.6z" />
        <path fill-rule="evenodd" clip-rule="evenodd" fill="none" d="M414.6,202.5c-17.5-3.2-35.1-5.9-52.9-7.9
		C380.2,191.7,397.7,195.2,414.6,202.5z" />
        <path fill-rule="evenodd" clip-rule="evenodd" fill="none" d="M400.5,227.8c0.2,2.5,0.4,4.8,0.7,7.5c-3.2,0.1-5.5,2-7.6,4.8
		c-0.9-4.4-5.6-7.3-1.6-11.9C394.4,225.7,397.3,227.1,400.5,227.8z" />
        <path fill-rule="evenodd" clip-rule="evenodd" fill="none" d="M516.3,704c-3.4-10.3-3.4-20.2,4.2-29.7c4.1-1.6,9.5-1.4,17.4-1.5
		c-8.8,4.4-9.7,11-9.8,17.5c-0.1,11.9-6.3,18.5-19.1,22.4C512,709.2,513.7,707,516.3,704z" />
        <path fill-rule="evenodd" clip-rule="evenodd" fill="none" d="M223.4,586c7.3,7.8,4.2,13.6,2.5,20.9
		C221.4,600.1,224.1,594.1,223.4,586z" />
        <path fill-rule="evenodd" clip-rule="evenodd" fill="none" d="M298.2,876.4c-2.2-6.8,2.8-8.9,6.6-12c3.6,3.1,3.5,6.6,1.8,10.1
		C305,877.9,302,878.3,298.2,876.4z" />
        <path fill-rule="evenodd" clip-rule="evenodd" fill="none" d="M330.2,867.1c0.2,2.4,0.5,4.8,0.7,7c-1.9,2.7-4.3,3.9-7.8,3.9
		c-1.1-1.8-2.3-3.8-3.3-5.5c1.7-6.3,6.5-4.9,10.5-5.2C330.3,867.3,330.2,867.1,330.2,867.1z" />
        <path fill-rule="evenodd" clip-rule="evenodd" fill="none" d="M338.1,858.6c1.4,3.1,5.8,5.2,3.3,10.1c-3.9,2.5-7.7,2.1-11.2-1.6
		c0,0,0.1,0.2,0.1,0.1c-0.1-5.5,4.8-6.2,8.1-8.4L338.1,858.6z" />
        <path fill-rule="evenodd" clip-rule="evenodd" fill="none" d="M299.3,863c-1.8,4.7-4.2,8-8.8,9.3c-3.8-2.8-2.9-5.7-0.4-8.6
		C292.5,860.9,295.3,859.5,299.3,863z" />
        <path fill-rule="evenodd" clip-rule="evenodd" fill="none" d="M317.7,876.6c-2.1,2.3-4.5,3.1-7.4,2.4c-2.9-4.1-1.2-7.4,1.5-10.6
		C317.9,868.3,318.8,871.7,317.7,876.6z" />
        <path fill-rule="evenodd" clip-rule="evenodd" fill="none" d="M338.4,858.9c-0.8-2.5-0.5-4.7,1.2-6.7c8.2-0.2,9.5,1.4,7.1,8.2
		c-3.3,1.4-5.6-1.5-8.6-1.8C338.1,858.6,338.4,858.9,338.4,858.9z" />
        <path fill-rule="evenodd" clip-rule="evenodd" fill="none" d="M32.4,841.8c-1.8-11.9,8.9-15,14.8-21.5c-2.8,8.7-10,14.1-14.9,21.3
		C32.3,841.6,32.4,841.8,32.4,841.8z" />
    </g>
</svg>