<?xml version="1.0" encoding="utf-8"?>

<!DOCTYPE svg PUBLIC "-//W3C//DTD SVG 1.1//EN" "http://www.w3.org/Graphics/SVG/1.1/DTD/svg11.dtd">
<svg version="1.1" id="Layer_1" xmlns="http://www.w3.org/2000/svg" xmlns:xlink="http://www.w3.org/1999/xlink" x="0px" y="0px"
	  viewBox="0 0 871.6 1045.9" enable-background="new 0 0 871.6 1045.9" xml:space="preserve">
<g>
	<path fill-rule="evenodd" clip-rule="evenodd" d="M871.6,966.9c0,25.6,0,51.1,0,76.7c-245.9,0-491.9,0-737.8,0
		c-0.3,0-0.6-0.4-0.8-0.7c-1-1.2,1.5-0.4-0.1-1.2c6.8,0.6,12.7-4,19.6-2.9c6-4.6,14-3.4,20.4-6.8c6.5-3.5,13.7-4.6,20.6-6.2
		c10.2-2.3,20.3-5.5,30.6-7.5c15.7-3.1,31-7.1,46.3-11.6c4.7-1.4,6.1-3.2,6.3-7.7c0.3-7.4,3.5-13.8,7.4-20.2
		c3.9-6.3,7.8-12.7,9.1-20.7c1.2-7.9,5-15.4,4.3-23.7c5.2-7.6-0.2-17.1,4.5-24.9c1-1.6,0.9-5.4-0.3-6.6c-2.7-2.7-1.7-5.7-1.9-8.6
		c-0.9-10.7,3.1-20.5,8-29.2c7.2-12.6,9.5-26.3,10.1-39.8c0.9-18.5,2.8-37.3-2.7-55.5c-5.2-3-9.2,2.7-14,1.8
		c-4-0.7-8.5,1.8-11.9-2.3c-3.6,1.2-6.9,0.9-10.9,0.4c-8.8-1.3-17.1-3.8-25.3-6.5c-1.5-0.5-2.9-1.6-3.9-0.2
		c-2.1,2.9-5.9,3.3-8.1,5.7c-7.2,7.7-15.9,13.1-25.8,16.3c-12.7,4.2-24.8,10.2-38.9,10.2c-6.4,0-14.6,0.6-18.3,8.1
		c-3,6.1-6.9,11.4-11.8,16c-1.1,1-2.3,1.8-2.3,3.7c0.1,6.4-3.1,12.2-2.5,18.8c0.8,8.8,0.5,17.8,0.1,26.7c-0.3,7.6,1.5,14.7,3.8,21.7
		c2.1,6.4,1.2,13,0.5,19.3c-0.3,2.5-1.5,7.7-6.2,8.4c-2.5,0.4-3.6,2-4.7,3.9c2.5,0.9,4.7,2.1,6.7,4c1.5,1.4,4.6-0.5,6.7,1.4
		c4.7,4.4,9.7,8.3,14,13c0.8,0.9,1.9,3,2.5,4.7c2,5.7,3.8,22.2,2.3,28c-3.2,12.3-7.4,18.6-19.2,17.2c-3.7-0.4-6.5-1.1-8.9-3.9
		c-1.2-1.3-2.9-2.3-4.3-3.4c-7.2-5.8-14.1-12.1-20.9-18.3c-6.4-5.9-4.5-13.9-4.7-21.3c6-6.6,0.1-12.7-1.7-18.3
		c-1.8-5.4-3.3-10.5-2.9-16.2c0.3-4.5-1.8-9.7,0.9-13.5c7.6-11,4.9-24.2,8.2-36.1c1.1-4,0.1-8.5,0.2-12.7c0.1-3.8-1.2-8.9,0.8-11.1
		c4.2-4.8-2.7-7.2-1.1-11.4c1.1-2.8,0.7-6.6-0.4-10.1c-6.1-17.9,3.3-41.7,23.2-51.3c12.7-6.1,20.7-16.3,28.6-26.9
		c-3.4-3.4-6.3-6.6-9.5-9.4c-3.7-3.2,1.3-5.5,0.6-8.7c-0.6-2.5,4.7-2.1,5.4-1.3c3.9,5.3,6.8-0.4,9.7-1.1c2.1-0.5-0.9-7.1,4.9-6.9
		c0.2,0,0-2.3,0.7-3c3.7-4.3,0.3-11.3,5.9-15.1c5.1-3.4,4.1-8.6,2.5-13.3c-2.8-8-6.2-15.8-9.3-23.7c-1.5,6.6-1.4,13.1-1.5,19.5
		c0,1.8,0.8,3.8-0.6,5.5c-2.9,3.6-7.6,4.1-11.3,6.5c-2.7,1.7-5.6,1.3-8.6,0.2c-9.1-3.1-17.5-7.9-26.6-12.6
		c8.1-9.9,11.7-21.6,15.5-33.2c1.7-5.1,4.3-10.3,3.6-15.9c-0.5-3.8,2.9-5.8,2.6-9.5c-0.3-3.5-1.3-7.3,1.9-10.8
		c1.8-2.1-3.8-4.8-2-8.1c1.4-2.7,2.7-5.2,2.3-8.4c-0.5-4,1.4-7.7,0.2-12.1c-1.3-4.7-0.3-10-0.3-15c0-1.1,0-2.5-0.6-3.2
		c-4.6-4.9-4.1-11-4-17c0-1.4-0.7-2.1-1.9-2.2c-1.8-0.2-3,0.6-2.7,2.6c1.3,9-5.1,15.8-7.2,23.8c-1.3,4.8-6.3,5.3-9.9,1.7
		c-3-2.9-6.6-5.3-8.4-9.3c-0.6-1.2-0.3-3.4-2.3-1.3c-0.7,0.7-3.5,1.2-1.5,3.2c2.3,2.2,1.5,3.9-0.5,5.6c-1.8,1.5-3.3,3.1-2.8,5.8
		c0.3,1.8-0.6,2.6-2.5,2.8c-8.7,0.9-13.4-1.4-19.3-9.1c-4.3-5.5-6.3-12.6-10.9-17.5c-8.8-9.5-8.6-21.4-11.2-32.6
		c-1.1-4.6,1.1-10-4.1-13.5c-1.7-1.2-0.9-3.7-0.6-5.4c0.9-5.2,0.1-10.4,0.3-15.5c0.4-12.6-2.9-24.4-5.4-36.4
		c-1.1-5.1-0.9-11.2-4.6-15.4c-5.6-6.5-6-14.6-3.9-21.4c3.2-10.3,0.7-20.2,2.1-30.1c-4.6-1.5-7.7,0.1-11.3,1.2
		c-3.6,1.1-8.2,1.1-12-0.3c-0.3-3.4-0.1-5.8,2.4-7.8c3.3-2.7,6.1-7.3,4.2-10.7c-2.8-5.1,0.1-5.5,3.3-6.4c1.4-0.4,3.1,0.3,4.3-1.8
		c-4.3-10-11.1-19.3-13.6-31.2c3.9,1.1,7.5,2.1,10.7,3.1c6.1,1.9,12.6,2.5,18.3,6.4c5,3.4,11.4,4.8,15.8,9.4c0.4,0.4,4.7,1,1.8-2.4
		c-1.3-1.6-0.1-1.7,0.8-2.1c5.9-3.2,12.5-3.4,18.5-1.6c6.7,2,12.5,3.9,16.6-3.8c1.1-2.1,3.3-1.6,5.1-1.6c4.6,0,9.9,1.4,13.8-0.3
		c5.3-2.3,10.4-2.3,15.4-1.8c5.5,0.5,10.2-2.3,15.3-2.4c4.5,0,8.9-0.2,13.5,0.6c3.7,0.6,8.2-0.7,12.4-0.7c0.4,0,0.8,0.9,1.1,1.4
		c-2.5,2.2-6.3-0.4-10.2,3.2c7.7,0,13.9,0.7,19.9-0.2c6.4-1,12,5,18.4,1.8c-0.7-2.5-3.7-0.7-4.5-2.8c1.9-1.9,4.7-1.8,6.1-0.4
		c2.4,2.4,5,1.6,7.5,1.6c5.2,0.1,6.8-0.9,7-6.4c0.2-4.1,2-7.4,4.1-9.9c4.3-5.1,6.7-11.4,10.9-16.6c4.2-5.1,9-10.2,11.5-17.2
		c1.4-4,6-8,10.5-10.2c8.2-4,16-8.3,23.4-13.8c7.6-5.6,13.1-13.1,20.9-18.5c5.4-3.8,8.6-10.4,13.7-14.8c6.2-5.2,13.1-9.6,19.5-14.7
		c3.4-2.7,7.8-5.2,12.6-5.7c12.7-1.4,24.4-6.6,36.8-9.3c1-4.7,7.8,0.2,7.9-4.4c0.1-3.6,3.4-5.8,2.6-9.5c-0.7-3.4,1.3-6.4,1.8-9.6
		c0.3-1.8,5.5-6.5-1.5-7.5c-0.7-4.1-1.8-9,0.3-12.3c2.4-3.8,1.9-7.5,1.4-11c-0.5-4.2,3.1-6.8,2.6-10.7c-0.2-1.1,0.5-2.8-0.1-3.4
		c-5.4-5.5-0.7-9.7,2-13.6c2.3-3.4,5.2-6.5,5-10.7c-0.4-8.6,3.7-13.7,11.4-16.7c9.4-3.7,17.5-9.9,26.7-14c3.2-1.4,4.9-3.1,7.4,0.2
		c1.2,1.6,2.1,2.4,4.2,0.4c3.8-3.6,9-4.7,14.1-5.1c1.3-0.1,3.6,4.8,3.6-0.8c0-2.1,0.8-3.4,2.1-5c4.9-5.9,11-10.5,17.3-14.6
		c7.9-5.1,17-8,26.1-9.7c7.8-1.5,16-0.3,24.1-0.3c-1.1,12.6-1.5,13.3-14.4,23.7c-2.1-3.1-5.8-4.3-9.1-4.9c-3.8-0.8-6.6-3.6-9.8-4.3
		c-3.5-0.7-7.4,2.5-11.7,1.8c-4.8-0.8-8.5,1.8-11.9,4.8c-2.8,2.5-5.4,5.2-8,7.8c1.2,1.2,1.9,2.5,2.9,2.8c7.4,2.3,12.1,7.3,16.3,13.8
		c4.6,6.9,5.8,14.2,3.1,21.2c-1.6,4.3,0.3,8.6-1.5,12.1c-2.1,4-1.7,7.9-2.2,11.9c-0.5,4,3.3,6.5,2.6,10.7c-0.6,3.8-0.7,7.9,1.9,11.9
		c2.1,3.3-1.4,7.5-5.8,7.4c-3.6-0.1-7.4,1.6-11-1.5c-1.9-1.7-4.8-1.2-7.1,1.2c-1.9,1.9-1.3,5.1-4,6.6c-2.3,1.3-5.9,1.1-6.4,5.7
		c4.1-1.7,6.8,1.6,10.4,2.3c13.9,3,26.8,9.2,37.9,17.6c12.9,9.8,22.8,22.8,30.1,37.3c3.3,6.5,7.2,11.8,12.4,16.9
		c6.1,5.9,9.1,14.9,17.3,19.2c-1.3,6.6,5,5.6,7.8,8c3.4,2.9,8.7,3.8,10.5,8.2c1.6,4,2.6,8.1,4.9,11.9c2,3.2,1.5,4.1,3.1,3.7
		c3.4-0.7,5.3,2.3,8.2,3c2,0.5,0.9,3.5,0.8,5.2c-0.2,2.3,1.2,3.4,2.5,4.8c2.6,2.8,5.1,5.6,9.6,10.7c1.2-3.3,1.9-5.5,2.8-7.9
		c1.8,2.2,3.1,3.2,3.7,4.5c4,9.2,7.8,18.5,12,27.6c0.8,1.6,1.5,3.2,2.2,4.9c4.2,10.5,6.7,21.4,9,32.3c0.9,4.3,2.1,4.4,5,2
		c1.7-1.4,4-1.4,5.7-3.2c7-7.4,14.5-14.2,19.8-23.2c6.4-11,14.6-20.4,26.7-25.7c7.1-3.2,10.7-3.1,17.4,1.2c1.7,1.1,2.7,5.4,6,1.5
		c0.2-0.3,4.1,2.4,6.2,3.8c0.7,0.5,1.5,0.5,1.6-0.5c1.3-9.1,6.8-1.6,7.6-1c6.3,4.7,14.2,7.6,16.2,17.1c0.7,3.3,3.3,7.1,5.3,10.5
		c4.2,7.1,6.4,14.7,6,23.1c-0.2,5.3-1.4,10.9,0.7,15.9c4.3,10,3.6,20.9,5.9,31.2c1.6,7.2,0.1,14.8,2.4,22.3
		c2.1,6.9,2.8,14.2,4.5,21.3c0.9,3.8,3.1,7.6,2.7,11.7c-0.7,7.7,2.5,14.3,5.9,20.8c5.5,10.5,9.9,21.5,14,32.6
		c1.7,4.5,1.8,9.1,0.2,13.2c-0.8,2.2-1.1,4.2-1.5,6.3c-1.3,6.4,2.5,11.5,5,16.5c4.2,8.5,9.1,16.5,9.1,26.5c0,2.3,1.4,5.3,3.1,6.7
		c5.1,4.2,4.1,9.2,3,14.5c-5.6-0.3-10.5-1.8-14.5-5.1c-1.7-1.4-2.5-2-4.3-0.1c-1.1,1.2-2.6,0.2-3.9-0.9c-2.3-1.9-3.5-5.6-6.9-5.5
		c-1.9,0-2-3.5-4.5-1.5c-2,1.7-3.2,3.8-2.3,6c2.5,6.3,4.5,13.2,8.4,18.5c4.2,5.6,7.9,11.5,12.1,17.1c1.4,1.9,2.9,3.2,2.7,5.9
		c-0.3,4.5-0.1,9.1-0.1,14.6c-4.6-1.4-8.5,1-12.5-2.2c-2.9-2.3-5.4,1.3-5.8,3.3c-0.6,2.6,0.5,5.6,1.2,8.6
		c2.8,10.5,9.1,20.2,7.8,31.7c-0.2,1.5,1.5,1.9,1.6,2.8c0.7,7.1,5.7,12.4,7.9,18.9c1.4,4.1,0.9,6-3.1,6.2c-2.6,0.2-6.9,0.7-7.6-0.6
		c-2.7-4.8-8.1-3.5-11.8-6c-1.7-1.2-4.8-2.1-5.2-3.7c-1.2-5.1-5.5-7.1-8.5-10.4c-3.1-3.4-9.3-3.4-13.3-0.7c-1.5,1-2.3,3.2-4.9,2.8
		c-2.2-2.1-5.6-3.7-6.1-7.4c-0.9-6.1-4.4-11.4-5-17.8c-0.5-5.6-2.6-11.3-5.5-16.2c-2.3-4-9.9-4.3-8.7-11.4c0-0.1-1.3-0.7-1.9-0.6
		c-6,0.5-4.9-6.8-9.1-8.3c1.5-7.3-3.4-13.8-2.6-21.1c0.3-2.7,4.7-4.3,2.1-6.9c-2.4-2.4-0.8-5.3-2-7.3c-2.7-4.6-2.2-9.4-2.1-14.2
		c0.1-4.6-2.7-8.2-4-12.3c-2.2-7.1-7.8-12.7-8.5-21.7c-2.9,5-0.2,9.4-2.8,13.3c-2.6,3.9-0.7,9-1,13.5c-0.3,4.8-3.9,9-2.5,14.2
		c0.2,0.7-1.6,1.8-1.6,2.7c0.2,7.9-4.6,14.5-5.5,22.2c-1.5,11.8-7,21.7-16,31.6c-5.2,5.7-6.1,12.6-4.2,18.9
		c2.2,7.1,3.1,14.2,4.5,21.4c1.5,7.9,1.7,15.6,2,23.5c0.4,9,0.2,17.9,1.8,27c1.7,10.3,4.5,19.8,8.7,29.1c6,13.2,4,25-5.4,35.5
		c-3,3.4-5.6,7.2-7.8,10.8c-3.2,5.2-8.4,8.6-11.2,13.9c-5.2,9.5-10.6,18.8-15.4,28.5c-6.6,13.1-13.1,26.3-18.7,39.9
		c-1.5,3.6-4.7,7.7-2.5,13c11.3-0.1,22.2,3.5,33.5,5.2c5.9,0.9,12.3,0.4,17.5,2.3c4.6,1.7,9.2,0.5,13,2.1c4.8,2,9.4,2,14.2,2.1
		c1.2,0,2.9-0.5,3.4,0.1c3.8,4.3,9.3,0.4,13,2.5c4.8,2.6,9.5,1.9,14.3,2.1c1.5,0.1,3.7-0.6,4.5,0.1c2.9,2.8,6.4,2.6,9.6,2.1
		c3.4-0.6,4.9,3.3,8.4,2.6c3.2-0.6,6.4,0,9.6,2c2.2,1.4,6.1-0.8,8.2,2.5c2.9-5.1,5.7-0.1,8.5-0.1c10.5,0,20.5,2.8,30.7,4.5
		c8.1,1.3,16.5-0.4,24.6,2.4c2.4,0.9,5.4,0.4,8.1,0.1C866.5,964.1,868.3,968,871.6,966.9z M432.3,709.5c-7.1-2.3-12.5,2.3-18.5,1.7
		c-2.2-0.2-2,1.4-2.5,2.9c-0.8,2.3-2.4,4.4-3.6,6.6c-2.7,4.9-4,10.5-10.4,13.2c-3.1,1.3-7.3,4.4-6.9,9.7c0.3,5-0.6,10.2,0.2,15.1
		c0.9,5.2-2.8,9.2-2.6,14.2c0.3,7.8-2.8,15-4.4,22.5c-1.2,5.7-3.3,11.2-5.1,16.5c-5.9,17.2-11.3,34.8-20.6,50.7
		c-4,7-5.7,14.9-6.7,22.7c-0.9,6.7-3.1,12.7-5.8,18.6c-2.4,5.2-5.2,10.3-8.5,15.1c-6.4,9.5-8.3,20.6-11.6,31.2
		c-2.5,8.1-5.3,16.1-4.6,24.8c0.2,2.7,0.3,5.2-2.2,7.2c-2.6,2,4.2,3.3,0.6,6.5c-2.2,2-0.5,3.8,2.7,3.9c3.2,0.2,5.2-2.2,8.3-2.7
		c7.8-1.2,15.4-3.7,23.2-5.5c8.8-2.1,17.1-5.8,25.7-7.8c7.4-1.7,15-3.2,22.1-5.7c7.2-2.5,14.7-3.4,21.9-6c5-1.8,10-4.2,15.4-5
		c13.3-2,25.5-7.9,38.5-10.7c6.7-1.5,13.1-4.2,19.7-5.9c8.3-2.2,17-3.4,25-6.7c8.5-3.4,17.3-5.2,26.1-7.1c6.2-1.3,12.1-4.3,18-6.8
		c4-1.8,5-6.5,7.1-9.8c3.4-5.3,6.8-11.2,5.9-18.5c-0.9-7,2.3-13.7,3.4-20.6c1.9-11.1,6.8-21.2,8.6-32.6c2-12.9,4.5-25.7,4.1-38.8
		c-0.1-3.5-0.4-7,0.1-10.4c1.4-11.2-3.2-21.2-7.5-30.6c-2.7-5.8-5-12-7.4-17.9c-2.4-5.9-7-11.3-6.1-18.4c0.3-2-1.5-2.5-2.5-3.6
		c-3.7-4.3-8-7.9-13.1-10.3c-5.4-2.6-10.2-5.9-14.4-10.2c-4.8-5-9.8-9.9-14.8-14.8c-1.3-1.3-2.2-3-4.6-3
		c-11.9,0.2-24.5-2.2-33.8,7.9c-2.4,2.6-6.7-1-7.5,3.4c-0.5,2.9,1.1,6.2-2.1,8.5c-0.2,0.1,2,1.5,0.8,4.1c-1.5,3.4-8.6,8.7,0.9,11.7
		c0.3,3.7,1.6,7.5-0.9,10.9c-2.1,2.8-0.8,5.9-0.9,8.9c-0.1,2-3.9,3.5-0.3,6.4c2.2,1.7-2.2,5.5-1,7.6c2.3,4.2,0.4,8.3,1.1,12.3
		c0.4,2-1.5,3.6-1.7,5c-0.9,6.6-6.5,2.1-8.7,4.1c-2.5,2.3-0.7,7.6-5.2,9c-0.7,0.2-1.5,0-2.3,0c-12.8,0-25.6,0-38.3,0
		c-2,0-3.4-0.7-5.1-1.9c-2.7-2,0.2-6-2.5-7c-3-1.2-5.6-1.8-6-5.6c-0.2-1.8-2.1-2.5-0.4-5.3c1.9-3.1,2.8-5.9,7-5.7
		c1.8,0.1,2.9-0.5,2.8-2.5c-0.1-2.3,0.1-4.7-0.1-7c-0.3-3.5,5.1-0.8,4.9-4.9c-0.1-2.2,2.7-4.3,2.1-7.2c-0.3-1.4-0.4-3.2,1.2-4.1
		c7.7-4.6,6.2-10.9,3.5-17.6C431.9,713.2,432.3,711.5,432.3,709.5z M606.5,369.6c0.5-0.6,1.1-1.2,1.6-1.9c-5.5-3.9-6.9-10-10.2-15.1
		c-1.1-1.6-0.3-5-4-4c-1.8-5.7-5.4-9.5-11.2-11.1c-2.5-0.7-0.5-5.2-3.4-5c-3.7,0.3-5.3-2.1-7.8-3.8c-6.4-4.4-13.2-8.3-18.8-11.8
		c-13.3,14.8-26,29.1-45.8,34.9c-0.1,0.9-0.2,2-0.2,3.1c0,3.9-0.1,7.7,0,11.6c0.2,6.2,8.2,12,14.7,10.3c9.2-2.4,18.9-1.9,28.1-4.8
		c2.8-0.9,6.1-0.1,9.2-0.1s7.5,1.3,9-0.3c2.6-2.8,5.5,1,8.1-1.8c1.4-1.5,5.9-0.3,9-0.3s6.2,0,9.3,0
		C598.2,369.6,602.3,369.6,606.5,369.6z M341.7,375c5.5-4.6,8.8-9.4,12.3-14.1c4.9-6.5,8.6-13.4,10.9-21.1c0.7-2.4,3.3-4.4-0.6-7.2
		c-4-2.9-4.4-7.6-1.9-12.4c0.8-1.5,0.4-3.7,2.2-4.9l1.2-11.1c-3-5.9-4.1-12.3-5.5-18.6c-1.2-5.4-2.1-6.3-7-6.7
		c-5.2-0.4-9.4,1.6-13,5c-2.8,2.6-5.6,5.4-8.2,8.2c-3.1,3.3-8.7,3.8-10.4,8.2c-2.4,6.2-7.1,9-12.7,11.1c-2.7,1-4.1,3.3-6,5.1
		c-1.5,1.6-1.6,3.5,1.1,4.2c1.4,0.4,3.4-0.2,4.3,0.7c6.9,6.2,15.4,10.2,22.2,16.9c5.5,5.4,7.1,13.1,12.9,18
		c-0.9,4.7,5.1,10.3-1.7,14.4C341.4,370.9,341.7,372.2,341.7,375z M158,537.1c0.2,8-0.4,15.6,1,23.1c0.6,3.1,2.3,5.5,3.4,8.2
		c1.5,3.7-1.1,8.6,1.2,12.2c2.2,3.4,5.7,5.7,7.4,9.8c2.6,6.3,6,12.2,9.4,19.1c2.5-9.9,5.2-18.4,9.2-26.5c4-8.2,8.1-16.2,14-23.2
		c1.3-1.6,3.2-4,2.8-5.5c-0.8-2.7-2.5-5.7-4.8-7.1c-2.3-1.4-4.7-3.5-7.9-3.3c-7.1,0.4-13.6-2.4-20.4-3.9
		C168.6,538.9,163.8,536.2,158,537.1z M188.2,490.5c-11.8,5.2-20.1,14.6-31.5,18.9c-3.2,1.2-3.9,4.5-3.3,7.8
		c0.6,3.1,1.6,7.7,4.4,7.7c5,0.1,9,3.6,14.1,2.8c2.4-0.4,5,0.6,7.5,1.1c5.8,1.3,11.6,5.1,18.5,2.6
		C193.3,518.1,187.6,505.4,188.2,490.5z"/>
	<path fill-rule="evenodd" clip-rule="evenodd" fill="none" d="M871.6,966.9c-3.3,1.1-5.1-2.8-8.3-2.4c-2.7,0.3-5.7,0.8-8.1-0.1
		c-8.1-2.9-16.5-1.1-24.6-2.4c-10.2-1.7-20.2-4.4-30.7-4.5c-2.8,0-5.7-5-8.5,0.1c-2.1-3.3-6-1.2-8.2-2.5c-3.2-2-6.4-2.6-9.6-2
		c-3.5,0.7-4.9-3.2-8.4-2.6c-3.2,0.5-6.7,0.7-9.6-2.1c-0.8-0.8-3-0.1-4.5-0.1c-4.8-0.2-9.5,0.5-14.3-2.1c-3.7-2-9.1,1.9-13-2.5
		c-0.5-0.6-2.2-0.1-3.4-0.1c-4.8-0.1-9.5,0-14.2-2.1c-3.9-1.7-8.5-0.4-13-2.1c-5.3-2-11.6-1.4-17.5-2.3c-11.3-1.7-22.3-5.3-33.5-5.2
		c-2.2-5.3,1-9.4,2.5-13c5.6-13.6,12.1-26.8,18.7-39.9c4.8-9.7,10.2-19,15.4-28.5c2.9-5.3,8-8.6,11.2-13.9c2.2-3.6,4.8-7.5,7.8-10.8
		c9.5-10.6,11.4-22.4,5.4-35.5c-4.2-9.2-7-18.8-8.7-29.1c-1.5-9.1-1.4-18-1.8-27c-0.3-7.9-0.5-15.6-2-23.5
		c-1.4-7.2-2.4-14.3-4.5-21.4c-1.9-6.3-1-13.1,4.2-18.9c9-9.9,14.5-19.9,16-31.6c1-7.7,5.7-14.3,5.5-22.2c0-0.9,1.8-2,1.6-2.7
		c-1.4-5.2,2.2-9.3,2.5-14.2c0.2-4.5-1.7-9.6,1-13.5c2.6-3.9-0.2-8.3,2.8-13.3c0.7,9,6.3,14.6,8.5,21.7c1.3,4.1,4.1,7.7,4,12.3
		c-0.1,4.8-0.5,9.6,2.1,14.2c1.2,2-0.4,5,2,7.3c2.6,2.6-1.8,4.2-2.1,6.9c-0.9,7.4,4.1,13.9,2.6,21.1c4.2,1.5,3.1,8.8,9.1,8.3
		c0.7-0.1,2,0.5,1.9,0.6c-1.2,7.1,6.4,7.4,8.7,11.4c2.8,4.8,5,10.6,5.5,16.2c0.6,6.4,4.1,11.7,5,17.8c0.5,3.7,3.9,5.3,6.1,7.4
		c2.7,0.4,3.4-1.8,4.9-2.8c4-2.7,10.3-2.7,13.3,0.7c3,3.3,7.3,5.4,8.5,10.4c0.4,1.6,3.5,2.6,5.2,3.7c3.7,2.5,9,1.3,11.8,6
		c0.7,1.3,5,0.7,7.6,0.6c4-0.2,4.5-2.1,3.1-6.2c-2.2-6.5-7.2-11.7-7.9-18.9c-0.1-0.9-1.7-1.4-1.6-2.8c1.3-11.5-5-21.2-7.8-31.7
		c-0.8-2.9-1.8-5.9-1.2-8.6c0.5-2,2.9-5.6,5.8-3.3c4,3.2,8,0.8,12.5,2.2c0-5.5-0.2-10.1,0.1-14.6c0.2-2.7-1.3-4.1-2.7-5.9
		c-4.2-5.6-7.9-11.5-12.1-17.1c-4-5.3-5.9-12.2-8.4-18.5c-0.9-2.2,0.3-4.3,2.3-6c2.5-2,2.6,1.5,4.5,1.5c3.4,0,4.6,3.7,6.9,5.5
		c1.3,1.1,2.8,2,3.9,0.9c1.8-1.9,2.5-1.3,4.3,0.1c4,3.3,8.9,4.7,14.5,5.1c1.1-5.4,2.1-10.3-3-14.5c-1.7-1.4-3.1-4.4-3.1-6.7
		c0-10-4.9-18-9.1-26.5c-2.5-5-6.3-10.1-5-16.5c0.4-2.2,0.7-4.2,1.5-6.3c1.6-4,1.4-8.7-0.2-13.2c-4.1-11.1-8.5-22-14-32.6
		c-3.4-6.5-6.5-13.1-5.9-20.8c0.4-4.2-1.8-7.9-2.7-11.7c-1.7-7.1-2.4-14.5-4.5-21.3c-2.3-7.5-0.8-15.1-2.4-22.3
		c-2.2-10.4-1.6-21.2-5.9-31.2c-2.1-5-1-10.6-0.7-15.9c0.4-8.4-1.9-16-6-23.1c-2-3.4-4.6-7.2-5.3-10.5c-2-9.5-10-12.4-16.2-17.1
		c-0.8-0.6-6.4-8.1-7.6,1c-0.1,1-0.9,0.9-1.6,0.5c-2.1-1.4-5.9-4.1-6.2-3.8c-3.3,3.9-4.3-0.3-6-1.5c-6.6-4.3-10.2-4.4-17.4-1.2
		c-12.1,5.4-20.3,14.8-26.7,25.7c-5.3,9-12.8,15.8-19.8,23.2c-1.7,1.8-4,1.8-5.7,3.2c-2.9,2.4-4.1,2.3-5-2
		c-2.3-10.9-4.8-21.8-9-32.3c-0.7-1.7-1.4-3.3-2.2-4.9c-4.2-9.1-7.9-18.4-12-27.6c-0.6-1.3-1.9-2.3-3.7-4.5
		c-0.8,2.4-1.6,4.6-2.8,7.9c-4.6-5.1-7-7.9-9.6-10.7c-1.3-1.4-2.7-2.5-2.5-4.8c0.1-1.8,1.2-4.8-0.8-5.2c-2.9-0.7-4.7-3.7-8.2-3
		c-1.6,0.4-1.2-0.5-3.1-3.7c-2.3-3.8-3.3-7.9-4.9-11.9c-1.8-4.4-7.1-5.2-10.5-8.2c-2.9-2.5-9.2-1.4-7.8-8
		c-8.2-4.3-11.2-13.3-17.3-19.2c-5.3-5.1-9.2-10.4-12.4-16.9c-7.3-14.5-17.3-27.5-30.1-37.3c-11.1-8.4-24-14.7-37.9-17.6
		c-3.6-0.8-6.3-4.1-10.4-2.3c0.4-4.6,4-4.4,6.4-5.7c2.7-1.5,2.1-4.6,4-6.6c2.3-2.3,5.1-2.9,7.1-1.2c3.6,3.2,7.4,1.4,11,1.5
		c4.3,0.2,7.9-4.1,5.8-7.4c-2.6-4-2.5-8.1-1.9-11.9c0.7-4.2-3.1-6.7-2.6-10.7c0.5-4,0.2-7.9,2.2-11.9c1.8-3.5-0.1-7.8,1.5-12.1
		c2.6-7,1.4-14.3-3.1-21.2c-4.2-6.4-8.9-11.5-16.3-13.8c-1-0.3-1.7-1.6-2.9-2.8c2.7-2.6,5.2-5.3,8-7.8c3.4-3,7.1-5.6,11.9-4.8
		c4.3,0.7,8.2-2.6,11.7-1.8c3.2,0.7,6,3.5,9.8,4.3c3.4,0.7,7,1.8,9.1,4.9c12.9-10.4,13.4-11.2,14.4-23.7c-8.1,0-16.3-1.2-24.1,0.3
		c-9.1,1.7-18.2,4.5-26.1,9.7c-6.3,4.1-12.3,8.7-17.3,14.6c-1.3,1.5-2.1,2.9-2.1,5c-0.1,5.6-2.3,0.7-3.6,0.8
		c-5.1,0.4-10.2,1.5-14.1,5.1c-2.1,1.9-3,1.2-4.2-0.4c-2.5-3.3-4.2-1.6-7.4-0.2c-9.3,4.1-17.4,10.3-26.7,14
		c-7.8,3.1-11.8,8.1-11.4,16.7c0.2,4.2-2.6,7.3-5,10.7c-2.7,3.9-7.4,8.1-2,13.6c0.6,0.6-0.1,2.3,0.1,3.4c0.6,3.9-3.1,6.5-2.6,10.7
		c0.5,3.5,1,7.1-1.4,11c-2,3.3-1,8.1-0.3,12.3c7,0.9,1.8,5.7,1.5,7.5c-0.5,3.1-2.6,6.2-1.8,9.6c0.8,3.7-2.6,5.9-2.6,9.5
		c-0.1,4.6-6.9-0.3-7.9,4.4c-12.4,2.7-24.1,7.9-36.8,9.3c-4.9,0.5-9.3,3.1-12.6,5.7c-6.4,5-13.3,9.4-19.5,14.7
		c-5.1,4.3-8.4,11-13.7,14.8c-7.7,5.4-13.3,13-20.9,18.5c-7.4,5.5-15.3,9.8-23.4,13.8c-4.6,2.2-9.1,6.1-10.5,10.2
		c-2.5,6.9-7.3,12.1-11.5,17.2c-4.3,5.3-6.6,11.5-10.9,16.6c-2.2,2.6-3.9,5.9-4.1,9.9c-0.2,5.5-1.8,6.5-7,6.4
		c-2.5,0-5.1,0.8-7.5-1.6c-1.4-1.4-4.2-1.5-6.1,0.4c0.8,2.1,3.7,0.3,4.5,2.8c-6.4,3.2-12-2.8-18.4-1.8c-6,1-12.2,0.2-19.9,0.2
		c3.9-3.7,7.7-1,10.2-3.2c-0.4-0.5-0.8-1.4-1.1-1.4c-4.2,0-8.8,1.3-12.4,0.7c-4.6-0.8-9.1-0.6-13.5-0.6c-5.1,0-9.8,2.9-15.3,2.4
		c-5.1-0.5-10.2-0.5-15.4,1.8c-3.9,1.7-9.1,0.3-13.8,0.3c-1.9,0-4-0.6-5.1,1.6c-4.1,7.7-10,5.8-16.6,3.8c-6.1-1.8-12.6-1.6-18.5,1.6
		c-0.8,0.5-2.1,0.6-0.8,2.1c2.9,3.4-1.4,2.8-1.8,2.4c-4.5-4.6-10.8-6-15.8-9.4c-5.7-3.9-12.2-4.4-18.3-6.4c-3.2-1-6.9-2-10.7-3.1
		c2.5,11.9,9.2,21.2,13.6,31.2c-1.2,2.2-2.9,1.4-4.3,1.8c-3.2,0.9-6,1.3-3.3,6.4c1.9,3.4-0.9,8-4.2,10.7c-2.5,2.1-2.7,4.4-2.4,7.8
		c3.8,1.4,8.4,1.4,12,0.3c3.6-1.1,6.7-2.7,11.3-1.2c-1.4,9.8,1.1,19.7-2.1,30.1c-2.1,6.7-1.6,14.8,3.9,21.4
		c3.6,4.2,3.5,10.3,4.6,15.4c2.5,11.9,5.8,23.8,5.4,36.4c-0.2,5.1,0.6,10.3-0.3,15.5c-0.3,1.7-1.1,4.3,0.6,5.4
		c5.2,3.5,3,8.9,4.1,13.5c2.6,11.2,2.4,23.2,11.2,32.6c4.5,4.9,6.6,12,10.9,17.5c6,7.7,10.6,10,19.3,9.1c1.9-0.2,2.9-1,2.5-2.8
		c-0.5-2.7,1-4.3,2.8-5.8c2-1.7,2.8-3.4,0.5-5.6c-2-1.9,0.8-2.4,1.5-3.2c2-2.1,1.7,0.1,2.3,1.3c1.8,3.9,5.4,6.4,8.4,9.3
		c3.6,3.6,8.6,3.1,9.9-1.7c2.2-8,8.6-14.7,7.2-23.8c-0.3-1.9,0.9-2.8,2.7-2.6c1.3,0.1,2,0.8,1.9,2.2c-0.2,6-0.6,12,4,17
		c0.6,0.7,0.6,2.1,0.6,3.2c0.1,5-0.9,10.3,0.3,15c1.2,4.4-0.7,8.1-0.2,12.1c0.4,3.2-0.9,5.7-2.3,8.4c-1.7,3.3,3.9,6,2,8.1
		c-3.2,3.6-2.2,7.3-1.9,10.8c0.3,3.7-3.2,5.8-2.6,9.5c0.8,5.6-1.9,10.8-3.6,15.9c-3.8,11.6-7.4,23.3-15.5,33.2
		c9.1,4.7,17.5,9.4,26.6,12.6c3,1,5.9,1.5,8.6-0.2c3.7-2.4,8.4-2.9,11.3-6.5c1.4-1.7,0.6-3.7,0.6-5.5c0.1-6.5,0-12.9,1.5-19.5
		c3.1,7.9,6.5,15.7,9.3,23.7c1.6,4.7,2.6,9.9-2.5,13.3c-5.6,3.7-2.1,10.7-5.9,15.1c-0.6,0.7-0.5,3.1-0.7,3c-5.7-0.2-2.8,6.4-4.9,6.9
		c-2.9,0.7-5.8,6.4-9.7,1.1c-0.6-0.8-5.9-1.2-5.4,1.3c0.7,3.3-4.3,5.6-0.6,8.7c3.2,2.8,6.1,6,9.5,9.4c-7.9,10.7-16,20.8-28.6,26.9
		c-19.8,9.6-29.3,33.4-23.2,51.3c1.2,3.4,1.5,7.2,0.4,10.1c-1.6,4.2,5.3,6.6,1.1,11.4c-2,2.2-0.7,7.3-0.8,11.1
		c-0.1,4.3,0.9,8.8-0.2,12.7c-3.3,11.9-0.6,25.1-8.2,36.1c-2.6,3.8-0.6,9-0.9,13.5c-0.4,5.6,1.1,10.7,2.9,16.2
		c1.8,5.6,7.7,11.7,1.7,18.3c0.1,7.4-1.8,15.3,4.7,21.3c6.8,6.3,13.7,12.6,20.9,18.3c1.4,1.1,3.1,2.1,4.3,3.4
		c2.4,2.8,5.2,3.5,8.9,3.9c11.8,1.3,16-4.9,19.2-17.2c1.5-5.8-0.3-22.3-2.3-28c-0.6-1.6-1.6-3.7-2.5-4.7c-4.3-4.7-9.3-8.7-14-13
		c-2.1-2-5.2,0-6.7-1.4c-2-1.9-4.1-3-6.7-4c1.1-2,2.2-3.6,4.7-3.9c4.7-0.7,5.9-5.9,6.2-8.4c0.7-6.3,1.6-12.9-0.5-19.3
		c-2.3-7-4.1-14.1-3.8-21.7c0.4-8.9,0.7-17.9-0.1-26.7c-0.6-6.6,2.5-12.5,2.5-18.8c0-1.9,1.3-2.7,2.3-3.7c4.9-4.7,8.8-9.9,11.8-16
		c3.7-7.5,12-8.1,18.3-8.1c14.1,0,26.2-6,38.9-10.2c9.9-3.2,18.6-8.6,25.8-16.3c2.2-2.4,6-2.8,8.1-5.7c1-1.4,2.5-0.3,3.9,0.2
		c8.3,2.8,16.5,5.2,25.3,6.5c4,0.6,7.3,0.8,10.9-0.4c3.3,4,7.9,1.6,11.9,2.3c4.9,0.8,8.8-4.8,14-1.8c5.4,18.2,3.5,37,2.7,55.5
		c-0.7,13.5-3,27.3-10.1,39.8c-5,8.7-8.9,18.5-8,29.2c0.2,2.9-0.8,5.9,1.9,8.6c1.2,1.2,1.2,5,0.3,6.6c-4.7,7.8,0.7,17.3-4.5,24.9
		c0.7,8.3-3.1,15.8-4.3,23.7c-1.3,8-5.2,14.4-9.1,20.7c-3.9,6.4-7.1,12.8-7.4,20.2c-0.2,4.5-1.6,6.3-6.3,7.7
		c-15.3,4.5-30.6,8.6-46.3,11.6c-10.3,2-20.3,5.1-30.6,7.5c-7,1.6-14.2,2.8-20.6,6.2c-6.4,3.4-14.4,2.2-20.4,6.8
		c-6.9-1.1-12.8,3.5-19.6,2.9c1.5,0.8-0.9,0,0.1,1.2c0.2,0.3,0.6,0.7,0.8,0.7c245.9,0,491.9,0,737.8,0c0,0.8,0,2.2,0,2.2
		c-3.5,0.1-7,0.1-10.5,0.1c-286.3,0-572.5,0-858.8,0c0-347.9,0-695.7,0-1043.6c289.8,0,579.5,0,869.3,0
		C871.6,323.8,871.6,645.4,871.6,966.9z"/>
	<path fill-rule="evenodd" clip-rule="evenodd" fill="none" d="M432.3,709.5c0,1.9-0.5,3.7,0.1,5c2.8,6.7,4.2,13-3.5,17.6
		c-1.6,0.9-1.5,2.7-1.2,4.1c0.6,2.9-2.2,5-2.1,7.2c0.2,4.1-5.2,1.3-4.9,4.9c0.2,2.3,0,4.6,0.1,7c0.1,2.1-1.1,2.6-2.8,2.5
		c-4.2-0.2-5.1,2.6-7,5.7c-1.7,2.8,0.2,3.6,0.4,5.3c0.5,3.8,3.1,4.4,6,5.6c2.6,1-0.3,5,2.5,7c1.6,1.2,3,1.9,5.1,1.9
		c12.8-0.1,25.5,0,38.3,0c0.8,0,1.6,0.2,2.3,0c4.5-1.5,2.7-6.8,5.2-9c2.2-2,7.8,2.5,8.7-4.1c0.2-1.4,2-3,1.7-5
		c-0.7-4,1.2-8.2-1.1-12.3c-1.2-2.1,3.2-5.9,1-7.6c-3.6-2.9,0.2-4.4,0.3-6.4c0.1-2.9-1.1-6,0.9-8.9c2.5-3.4,1.2-7.2,0.9-10.9
		c-9.6-3-2.4-8.4-0.9-11.7c1.2-2.6-1-4-0.8-4.1c3.2-2.3,1.6-5.7,2.1-8.5c0.8-4.4,5.1-0.7,7.5-3.4c9.3-10.1,21.9-7.7,33.8-7.9
		c2.4,0,3.3,1.7,4.6,3c5,4.9,9.9,9.8,14.8,14.8c4.2,4.3,9,7.6,14.4,10.2c5.1,2.5,9.5,6,13.1,10.3c0.9,1.1,2.7,1.7,2.5,3.6
		c-0.9,7,3.8,12.5,6.1,18.4c2.4,5.9,4.7,12,7.4,17.9c4.3,9.4,8.9,19.4,7.5,30.6c-0.4,3.4-0.2,7-0.1,10.4c0.4,13.1-2.1,25.9-4.1,38.8
		c-1.8,11.3-6.7,21.5-8.6,32.6c-1.2,6.9-4.3,13.6-3.4,20.6c0.9,7.3-2.5,13.1-5.9,18.5c-2.1,3.3-3.1,8-7.1,9.8
		c-5.9,2.6-11.8,5.5-18,6.8c-8.9,1.9-17.7,3.6-26.1,7.1c-8,3.2-16.7,4.5-25,6.7c-6.6,1.8-13,4.5-19.7,5.9
		c-13,2.8-25.2,8.8-38.5,10.7c-5.4,0.8-10.4,3.2-15.4,5c-7.2,2.6-14.7,3.5-21.9,6c-7.1,2.4-14.7,4-22.1,5.7c-8.7,2-17,5.7-25.7,7.8
		c-7.7,1.9-15.4,4.4-23.2,5.5c-3.1,0.5-5.1,2.8-8.3,2.7c-3.2-0.2-4.9-2-2.7-3.9c3.6-3.2-3.2-4.5-0.6-6.5c2.6-2,2.5-4.6,2.2-7.2
		c-0.7-8.7,2.1-16.7,4.6-24.8c3.3-10.6,5.2-21.7,11.6-31.2c3.2-4.8,6-9.9,8.5-15.1c2.7-5.9,4.9-11.9,5.8-18.6
		c1.1-7.7,2.7-15.7,6.7-22.7c9.3-15.9,14.7-33.5,20.6-50.7c1.8-5.3,3.9-10.8,5.1-16.5c1.6-7.5,4.7-14.7,4.4-22.5
		c-0.2-5,3.5-8.9,2.6-14.2c-0.8-4.9,0.1-10.1-0.2-15.1c-0.4-5.3,3.8-8.4,6.9-9.7c6.4-2.7,7.7-8.3,10.4-13.2c1.2-2.2,2.7-4.3,3.6-6.6
		c0.5-1.5,0.4-3.1,2.5-2.9C419.8,711.8,425.2,707.2,432.3,709.5z"/>
	<path fill-rule="evenodd" clip-rule="evenodd" fill="none" d="M606.5,369.6c-4.1,0-8.3,0-12.4,0c-3.1,0-6.2,0-9.3,0s-7.5-1.3-9,0.3
		c-2.6,2.8-5.5-1.1-8.1,1.8c-1.4,1.5-5.9,0.3-9,0.3s-6.4-0.7-9.2,0.1c-9.2,2.9-18.9,2.5-28.1,4.8c-6.6,1.7-14.6-4.1-14.7-10.3
		c-0.1-3.9,0-7.7,0-11.6c0-1.1,0.2-2.2,0.2-3.1c19.8-5.8,32.5-20.1,45.8-34.9c5.6,3.5,12.3,7.4,18.8,11.8c2.5,1.7,4.1,4.1,7.8,3.8
		c2.9-0.2,0.9,4.3,3.4,5c5.8,1.6,9.4,5.4,11.2,11.1c3.7-1,2.9,2.3,4,4c3.3,5.1,4.7,11.2,10.2,15.1
		C607.6,368.3,607,368.9,606.5,369.6z"/>
	<path fill-rule="evenodd" clip-rule="evenodd" fill="none" d="M341.7,375c0-2.8-0.3-4,0-4.2c6.9-4.1,0.9-9.7,1.7-14.4
		c-5.7-4.9-7.4-12.6-12.9-18c-6.8-6.7-15.3-10.7-22.2-16.9c-0.9-0.8-2.9-0.3-4.3-0.7c-2.7-0.7-2.7-2.6-1.1-4.2
		c1.8-1.9,3.3-4.2,6-5.1c5.6-2.1,10.4-4.9,12.7-11.1c1.7-4.4,7.3-4.9,10.4-8.2c2.6-2.8,5.4-5.6,8.2-8.2c3.7-3.4,7.8-5.4,13-5
		c4.9,0.4,5.8,1.3,7,6.7c1.4,6.3,2.5,12.8,5.5,18.6l-1.2,11.1c-1.8,1.2-1.4,3.4-2.2,4.9c-2.5,4.8-2.1,9.5,1.9,12.4
		c3.9,2.8,1.3,4.8,0.6,7.2c-2.2,7.7-6,14.6-10.9,21.1C350.5,365.6,347.2,370.3,341.7,375z"/>
	<path fill-rule="evenodd" clip-rule="evenodd" fill="none" d="M158,537.1c5.8-0.9,10.6,1.8,15.4,2.8c6.8,1.5,13.2,4.3,20.4,3.9
		c3.2-0.2,5.6,1.9,7.9,3.3c2.3,1.4,4.1,4.4,4.8,7.1c0.4,1.5-1.4,3.9-2.8,5.5c-5.9,7-10,15.1-14,23.2c-4,8.1-6.7,16.6-9.2,26.5
		c-3.4-6.9-6.8-12.8-9.4-19.1c-1.7-4-5.2-6.4-7.4-9.8c-2.3-3.7,0.2-8.5-1.2-12.2c-1-2.7-2.8-5.1-3.4-8.2
		C157.6,552.7,158.2,545.1,158,537.1z"/>
	<path fill-rule="evenodd" clip-rule="evenodd" fill="none" d="M188.2,490.5c-0.6,14.9,5.1,27.6,9.8,40.9c-7,2.5-12.7-1.3-18.5-2.6
		c-2.5-0.5-5.1-1.5-7.5-1.1c-5.1,0.8-9.1-2.7-14.1-2.8c-2.8,0-3.8-4.6-4.4-7.7c-0.6-3.3,0.1-6.6,3.3-7.8
		C168.1,505.1,176.4,495.8,188.2,490.5z"/>
</g>
</svg>
