<?xml version="1.0" encoding="utf-8"?>

<!DOCTYPE svg PUBLIC "-//W3C//DTD SVG 1.1//EN" "http://www.w3.org/Graphics/SVG/1.1/DTD/svg11.dtd">
<svg version="1.1" id="Layer_1" xmlns="http://www.w3.org/2000/svg" xmlns:xlink="http://www.w3.org/1999/xlink"
    viewBox="0 0 603.5 1065" xml:space="preserve">
    <g>
        <g>
            <path fill-rule="evenodd" clip-rule="evenodd" fill="none" d="M42.3,1.1c187,0,373.9,0,560.9,0c0,353,0,705.9-0.1,1058.9
			c0,1.6,1.3,3.8-1,5c0-1.7-0.1-3.3-0.1-5c0.1-2.5-1-3.4-3.5-3.9c-16.6-3.2-33.2-6.6-49.7-10.1c-2-0.4-3.2-1.4-3.7-4
			c-1.8-9.6-1.4-19.2-0.4-28.7c0.6-5.1-1.5-6.4-4.9-7.1c-6.6-1.4-13.3-2.1-19.9-3.6c-11.3-2.5-22.5-5.3-33.7-7.9
			c0.2-6.4-0.2-11.9-1-17.4c-1.5-10.6-7.4-16.2-17.7-17c-10.7-0.8-21.4-2.1-30.9-8c-10.7-6.6-22.2-11.7-34.3-15.3
			c-1.8-0.5-3.3-1.5-3.7-3c-2.5-8.7-8.3-15-14.6-20.9c-2.7-2.6-3.7-5.5-2.2-9.2c2.4-5.7,1.4-11.5-4.1-14.4
			c-6.1-3.3-7.5-8.6-9.2-14.2c-1.9-6.2-3.6-12.5-6-18.5c-3-7.6-3.4-14.6,0.3-22.4c4.5-9.4,0.8-22.2-6.6-26.5
			c-6.7-3.9-7.7-6.2-6.2-14c1.4-7.3,2.5-14.6,0.6-22c-0.8-3.2-1.7-6.3-2.7-10.2c20.5,3.5,39.1,0.5,55.7-12c0.5,2.1,0.8,3.5,1.2,4.9
			c2.8,10.3,13.3,14.9,22.8,10.1c3-1.5,4.5-4.3,6.3-6.9c5.2-7.1,11.3-7,15.7,0.3c2.4,4,6.4,3.7,9.2-0.6c2.8-4.2,5.5-4.1,7.7,0.6
			c2.1,4.5,1.2,9.2-0.3,13.6c-4,11.7-4.1,23.7-1.8,35.7c0.6,3,0.1,5.3-1.2,7.9c-3.9,7.7-5.2,15.1,2.9,21.3c0.2,0.1,0,0.7-0.1,1.1
			c-1,1.5-2.8,1.8-4.3,2.2c-4.2,1.2-6.5,4-7.1,8.3c-0.7,5.9-3.3,10.9-7.7,15c-2.4,2.3-3.5,5.1-2.6,8.6c3.5,12.7,17.3,21.6,30.3,19.4
			c7.5-1.2,10.3-6.2,8-13.8c-1.1-3.6-1.6-7.5,1.4-10.5c3.7-3.7,4-8.1,3.2-12.9c-1.6-9.1-0.1-17.9,5-25.5c3.6-5.3,3.6-10.1,0.8-15.6
			c-4.2-8.2-4.9-16.9-3.8-26c1.5-12.4,5.5-24.2,7.9-36.3c1.3-6.5,1.3-12.9-1.6-19c-1.9-4-4.7-6.6-9.5-6.2c-3.8,0.3-7.5-0.8-10.5-3
			c-7.5-5.7-14.8-11.8-19.5-20.3c-2.9-5.2-5.3-10.7-12.8-7.5c-0.7-2.9,0.9-4.2,2-5.5c12.8-14.5,14.3-31.5,11.3-49.6
			c-0.5-3.1-1.4-6.3-4.4-7.3c-8.2-2.8-2.6-12-7.9-16c-0.1-0.1,0.3-1.1,0.7-1.4c7.2-6.2,3.4-12.8,0.4-19c-1.6-3.4-3.6-6.5-3.7-10.3
			c-0.2-5.8-0.3-11.6-8.1-13c9.1-8.6,9.4-10.4,3.6-17.9c10-2.6,3.4-11.6,6.6-17.4c1.6,5.4,4.7,9.1,9.1,11.8
			c5.9,3.8,9.6,0.7,12.4-4.1c9.5,5.9,14.3,2.8,16.1-9.7c8.5-2,12.8-8.5,11-17.3c-0.8-3.8-2.4-7.4-3-11.2c-0.9-6.3-2.8-13.3,1-18.8
			c3.6-5.2,4.7-10.3,4.2-16.1c-0.7-8.5-1.9-16.9-0.4-25.5c0.6-3.6,1.4-6.3,4.9-8.5c7.1-4.4,9-14.2,4.2-20.8
			c-3.1-4.4-4.1-8.9-3.6-14.1c0.3-3.1,1-6.3-0.7-9.3c-2.1-3.9-4.7-7.8,0.7-11.5c1.3-0.9,1.2-3,1.1-4.7c-0.1-2.8,0.9-5.2,3-6.8
			c8-6.3,8.5-14.8,6.8-23.7c-1.3-6.5-4.3-12.3-11.9-15.9c1,2.9,1.6,4.8,2.4,6.6c3.1,7.1,2.6,13.1-4.1,17.5
			c-4.2,2.7-6.4,7.2-7.1,12.1c-0.4,2.8-0.1,5.6-0.1,9.8c-5.1-6.3-10.1-10.4-15.7-13.7c-3-1.8-4.1-4.1-1.3-7.2
			c7.2-7.7,6.4-17.8,7.5-27.2c0.3-3-1.8-4.3-4.7-3.8c-10.3,2-21.6,11-21.3,22.9c0,1.7,0.9,4-1.4,4.9c-2.1,0.8-3.3-1.1-4.7-2.2
			c-4.3-3.6-9-5.1-14.3-2.5c-4.6,2.2-4.8,4.6-0.7,7.6c1.8,1.4,4.5,1.7,5.2,4.6c-0.6,0.3-1,0.8-1.5,0.8c-1.5,0-3,0-4.4-0.1
			c-10.5-0.8-19.7,2.3-27.5,9.4c-7.8,7.2-7.2,11.2,2.1,15c0.1,0,0.1,0.3,0.1,0.6c-1.9,1.5-4.2,0.8-6.3,1.1
			c-5.3,0.8-10.3,2.3-12.5,7.8c-2.2,5.5-5.6,9.2-11.1,11.6c-4.9,2.1-6.4,7.1-6.3,12.1c0.1,4.5,3.8,5.5,7.8,5.9
			c-9,3.6-18.3,6.3-23.5,15.3c2.7,1.7,5.2-0.9,7.7,1.1c0.1,3.7-2.3,4.9-5.5,5.1c-2.2,0.2-4.5-0.3-6.6,0.1c-4.5,0.8-5.2,4.4-4.7,8.1
			c0.6,4.1,3.6,2.6,6.1,2.2c2.2-0.4,4.3-0.7,6.5-1.1c-1.2,2.1-2.8,3.4-4.3,4.7c-6.4,5.4-12.3,11.4-15.5,19.3
			c-3.2,8.2-1.9,10.1,6.8,10.4c0.2,0,0.4,0.5,0.8,1c-4.6,2.2-9,4.6-12.6,8.6c0.4-7.3,0.1-14.2-1-21.1c-3.1-19.7-11.1-36.3-28.9-46.9
			c-4.6-2.8-8.9-6-13.3-9.1c-1.6-1.2-3.3-2.5-4.5-4c-1.9-2.3-2-4.9,0.3-6.9c2.3-2.1,4.1-0.4,5.6,1.4c1.7,2,3.9,3.4,6.4,4.3
			c5.7,1.9,7.8,0.2,7.8-5.8c0-3.9-2.8-7.2-2.2-11c9.4-2.6,2.4-9.1,3.8-13.9c4.2,0.3,7-1.8,3.4-5.6c-7.1-7.5-5.4-17.7-9.9-25.8
			c4.9-2.2,4.9-2.2,3.8-6.6c-2.3-9.6-4.9-11.4-17.9-12.3c-2.2-0.2-4.6,0.1-6.2-1.9c-1.7-2.1,1.1-3.9,0.9-6.1
			c-11.6,4.5-24.9-0.9-35.2,7.5c-10.8-7.4-15.7-8.5-25.2-6.1c-8.7,2.1-14.4,9.4-22.3,13c-1,0.5-1.3,1.8-1.3,2.9
			c0.1,4.3,2.3,7.2,5.7,9.6c3.2,2.3,5.6,0.4,7.9-1.5c3.1-2.6,6.1-5.4,9-8.2c2.7-2.6,5.6-4.9,9-6.4c4.7-2.1,8.5-0.3,10.4,4.4
			c-7.6,5-9,7.8-8.1,17c-5.2,0.1-6.2,3.4-6.2,7.8c0,5.2,0.3,10.5-1.1,16.6c-13.7-14.6-29.1-26-42.2-39.9c-3.8-4-6.7-8.3-7.7-13.8
			c-0.4-2.3-1.1-5.1-3-5.6c-9.3-2.4-8.8-14.5-17.5-17.3c-0.4-0.1-0.5-0.9-0.7-1.4c-3.3-9.3-6.8-18.4-15.4-24.5
			c-5.4-3.8-7.9-9-6.3-16.4c1.5-7.2,2.1-15.6-5.3-20.2c-6.2-3.8-8.2-9.5-10.3-15.5c-2.2-6.4-4.7-12.8-7-19.3
			C88.9,152.8,66.4,95.5,50.7,36C47.6,24.4,43.7,13.1,42.3,1.1z" />
            <path fill-rule="evenodd" clip-rule="evenodd"
                d="M42.3,1.1c1.4,12,5.3,23.3,8.4,34.9c15.7,59.5,38.2,116.8,58.8,174.7
			c2.3,6.4,4.7,12.8,7,19.3c2.1,6,4,11.7,10.3,15.5c7.4,4.6,6.8,13.1,5.3,20.2c-1.6,7.4,0.9,12.6,6.3,16.4
			c8.7,6.1,12.1,15.2,15.4,24.5c0.2,0.5,0.4,1.3,0.7,1.4c8.7,2.8,8.2,14.9,17.5,17.3c1.9,0.5,2.6,3.3,3,5.6
			c0.9,5.5,3.9,9.8,7.7,13.8c13.1,13.9,28.5,25.3,42.2,39.9c1.4-6.1,1.1-11.3,1.1-16.6c0-4.5,1-7.7,6.2-7.8c-0.9-9.2,0.5-12,8.1-17
			c-1.9-4.8-5.7-6.5-10.4-4.4c-3.4,1.5-6.3,3.8-9,6.4c-2.9,2.8-5.9,5.6-9,8.2c-2.3,1.9-4.7,3.8-7.9,1.5c-3.4-2.4-5.6-5.3-5.7-9.6
			c0-1.2,0.2-2.5,1.3-2.9c7.9-3.6,13.6-10.8,22.3-13c9.5-2.3,14.4-1.2,25.2,6.1c10.2-8.4,23.5-3,35.2-7.5c0.1,2.3-2.6,4.1-0.9,6.1
			c1.5,1.9,3.9,1.7,6.2,1.9c13,0.9,15.6,2.7,17.9,12.3c1,4.3,1,4.3-3.8,6.6c4.5,8.1,2.8,18.3,9.9,25.8c3.6,3.8,0.8,5.9-3.4,5.6
			c-1.4,4.9,5.6,11.3-3.8,13.9c-0.6,3.7,2.2,7.1,2.2,11c0,5.9-2.1,7.7-7.8,5.8c-2.5-0.8-4.7-2.2-6.4-4.3c-1.5-1.8-3.3-3.5-5.6-1.4
			c-2.3,2.1-2.2,4.7-0.3,6.9c1.3,1.5,2.9,2.9,4.5,4c4.4,3.1,8.7,6.3,13.3,9.1c17.8,10.7,25.8,27.3,28.9,46.9
			c1.1,6.9,1.4,13.8,1,21.1c3.6-3.9,8-6.4,12.6-8.6c-0.4-0.6-0.6-1-0.8-1c-8.6-0.3-10-2.3-6.8-10.4c3.2-8,9.1-13.9,15.5-19.3
			c1.5-1.3,3.1-2.5,4.3-4.7c-2.2,0.4-4.3,0.7-6.5,1.1c-2.5,0.4-5.5,1.9-6.1-2.2c-0.5-3.7,0.2-7.3,4.7-8.1c2.1-0.4,4.4,0,6.6-0.1
			c3.2-0.2,5.6-1.4,5.5-5.1c-2.5-2-5,0.6-7.7-1.1c5.2-9,14.5-11.7,23.5-15.3c-4-0.4-7.7-1.4-7.8-5.9c-0.1-5,1.4-10,6.3-12.1
			c5.5-2.4,8.9-6.1,11.1-11.6c2.2-5.5,7.2-7,12.5-7.8c2.1-0.3,4.4,0.4,6.3-1.1c-0.1-0.3-0.1-0.5-0.1-0.6c-9.4-3.8-10-7.8-2.1-15
			c7.8-7.1,17-10.3,27.5-9.4c1.5,0.1,3,0.2,4.4,0.1c0.5,0,0.9-0.5,1.5-0.8c-0.7-2.8-3.4-3.2-5.2-4.6c-4.1-3.1-4-5.4,0.7-7.6
			c5.4-2.6,10-1,14.3,2.5c1.4,1.1,2.6,3.1,4.7,2.2c2.3-0.9,1.4-3.2,1.4-4.9c-0.3-11.9,11.1-21,21.3-22.9c2.9-0.6,5.1,0.8,4.7,3.8
			c-1,9.4-0.2,19.5-7.5,27.2c-2.9,3.1-1.8,5.4,1.3,7.2c5.7,3.3,10.6,7.3,15.7,13.7c0-4.2-0.3-7,0.1-9.8c0.7-4.9,3-9.4,7.1-12.1
			c6.7-4.4,7.2-10.3,4.1-17.5c-0.8-1.8-1.3-3.7-2.4-6.6c7.6,3.6,10.7,9.4,11.9,15.9c1.7,8.8,1.2,17.4-6.8,23.7
			c-2.2,1.7-3.1,4.1-3,6.8c0.1,1.7,0.2,3.9-1.1,4.7c-5.4,3.7-2.8,7.5-0.7,11.5c1.6,3,0.9,6.2,0.7,9.3c-0.5,5.2,0.4,9.8,3.6,14.1
			c4.8,6.7,3,16.4-4.2,20.8c-3.5,2.2-4.3,4.9-4.9,8.5c-1.5,8.5-0.3,17,0.4,25.5c0.5,5.9-0.6,11-4.2,16.1c-3.9,5.5-1.9,12.5-1,18.8
			c0.5,3.8,2.2,7.4,3,11.2c1.8,8.8-2.4,15.3-11,17.3c-1.8,12.5-6.6,15.6-16.1,9.7c-2.8,4.8-6.5,7.9-12.4,4.1
			c-4.4-2.8-7.5-6.4-9.1-11.8c-3.2,5.8,3.4,14.8-6.6,17.4c5.8,7.5,5.5,9.3-3.6,17.9c7.8,1.4,8,7.1,8.1,13c0.1,3.8,2.1,6.9,3.7,10.3
			c3,6.2,6.8,12.8-0.4,19c-0.4,0.3-0.8,1.3-0.7,1.4c5.3,4-0.3,13.2,7.9,16c3,1,3.9,4.2,4.4,7.3c3,18.1,1.5,35.1-11.3,49.6
			c-1.2,1.3-2.7,2.6-2,5.5c7.5-3.2,10,2.3,12.8,7.5c4.7,8.5,12,14.6,19.5,20.3c3,2.2,6.6,3.3,10.5,3c4.8-0.4,7.6,2.2,9.5,6.2
			c2.9,6.1,2.9,12.5,1.6,19c-2.4,12.1-6.3,23.9-7.9,36.3c-1.1,9.1-0.4,17.8,3.8,26c2.8,5.5,2.8,10.3-0.8,15.6
			c-5.2,7.7-6.7,16.4-5,25.5c0.9,4.8,0.5,9.1-3.2,12.9c-3,3-2.5,6.9-1.4,10.5c2.3,7.6-0.5,12.6-8,13.8c-13,2.2-26.8-6.7-30.3-19.4
			c-1-3.5,0.1-6.3,2.6-8.6c4.4-4.1,7-9,7.7-15c0.5-4.3,2.8-7.1,7.1-8.3c1.5-0.4,3.3-0.7,4.3-2.2c0-0.4,0.2-0.9,0.1-1.1
			c-8-6.2-6.7-13.6-2.9-21.3c1.3-2.5,1.8-4.8,1.2-7.9c-2.3-12-2.2-23.9,1.8-35.7c1.5-4.4,2.4-9.1,0.3-13.6c-2.2-4.7-4.9-4.9-7.7-0.6
			c-2.8,4.3-6.8,4.6-9.2,0.6c-4.4-7.3-10.5-7.5-15.7-0.3c-1.8,2.5-3.3,5.3-6.3,6.9c-9.5,4.9-20,0.3-22.8-10.1
			c-0.4-1.4-0.7-2.9-1.2-4.9c-16.6,12.5-35.3,15.5-55.7,12c1,3.9,1.9,7,2.7,10.2c1.9,7.4,0.8,14.7-0.6,22c-1.5,7.8-0.4,10.1,6.2,14
			c7.3,4.3,11.1,17,6.6,26.5c-3.7,7.8-3.4,14.8-0.3,22.4c2.4,6,4.1,12.3,6,18.5c1.7,5.6,3.1,10.9,9.2,14.2c5.5,2.9,6.5,8.7,4.1,14.4
			c-1.5,3.7-0.6,6.6,2.2,9.2c6.3,6,12.2,12.2,14.6,20.9c0.4,1.5,1.9,2.5,3.7,3c12.1,3.6,23.6,8.6,34.3,15.3c9.5,5.9,20.2,7.1,30.9,8
			c10.3,0.8,16.2,6.4,17.7,17c0.8,5.5,1.2,11,1,17.4c11.2,2.7,22.4,5.5,33.7,7.9c6.6,1.4,13.3,2.1,19.9,3.6c3.4,0.7,5.5,2,4.9,7.1
			c-1,9.4-1.4,19.1,0.4,28.7c0.5,2.6,1.7,3.6,3.7,4c16.6,3.4,33.1,6.9,49.7,10.1c2.6,0.5,3.6,1.4,3.5,3.9c0,1.7,0.1,3.3,0.1,5
			c-188.8,0-377.6,0-566.5,0c0.3-13.9,8.1-21.6,21-24.9c0.5-6.4,0.2-12.2-1.9-18.1c-2.1-5.8-2.8-11.8-1.5-18.3
			c1.8-9.1,5.5-17.7,5.2-27.4c-0.3-8.9,1.7-17.9,3.2-26.7c1.2-7.5,3.9-14.9-2.7-21.5c-3.4,2.8-7.3,5.4-10.5,8.7
			c-10.6,10.8-23.6,15.2-38.5,14.6c-3.4-0.1-6.3-1-8.8-3.2c0-3.7,0-7.4,0-11.1c3.5-6.2,7.8-11.7,13.7-15.9c3.1-2.2,4.7-5.7,5.4-9.4
			c1.1-5.5,3.4-10.6,7-15c9.2-11.2,12.5-24.8,12.1-38.5c-0.5-15.3,3.1-29.2,8.1-43.3c7-19.5,16.9-38,20.9-58.5
			c3.6-18.5,7.8-36.9,13-55c5.1-17.9,12.5-34.2,26.9-47c8.5-7.6,15.4-17.1,24.2-24.5c3-2.6,6.1-6.2,2.5-10.5
			c-3.5-4.3-1.3-6.4,2.5-7.8c5.5-2,10.1-5.2,14.8-8.6c5.4-4,11.5-7.3,18-8.2c13.3-1.9,21.2-10.1,27.8-20.8c9.7-15.8,18-32.2,24-49.8
			c2.7-7.7,2.7-12.1-3.6-16.7c-12.9-9.3-19-22.3-22.1-37.2c-2.5-12.3-2.8-24.2,5.3-35c2-2.7,1.6-6.1,0.3-9c-1.4-3.2-3-6.4-5-9.2
			c-9.2-13-18.6-25.8-25.9-40c-2.8-5.4-6.5-10.3-10-15.3c-2-3-4.4-5.7-7.6-0.5c-5.1-5.8-7.1-12.8-11.5-18.3
			c-11.9-14.7-13.1-34.3-22.7-50.1c-0.4-0.7-0.1-1.8-0.3-2.7c-0.8-5.3-1.4-11-5.3-14.9c-8.4-8.5-7.7-18.1-4.7-28.4
			c0.9-3.1,1.9-6.2,0.7-9.7c-8.4-25-16.2-50.2-25.6-74.9c-14.9-39-27.4-78.8-36.4-119.6c-3-13.7-5.2-27.6-7.5-41.4
			C40.8,1.1,41.5,1.1,42.3,1.1z M82.4,1014.1c2,4.8,6.5,6.9,9.5,10.4c2.9,3.3,5.3,3,9,2c8.5-2.4,15.3-7.5,22.2-12.6
			c4.7-3.5,9.1-8.4,15.1-8.5c12.2-0.3,21.6-5.2,29.1-14.4c4.6-5.6,10.3-8.1,17.5-7.1c4.7,0.6,9.5,0,12.8-3.5
			c8.5-9.2,19.5-12.8,31.3-15.5c5.7-1.3,12.1-0.5,17.6-5.2c-4.5-5.7-7.7-12.1-13.7-16.4c-6.8-4.8-13.5-9.7-20.3-14.6
			c-4.4-3.1-6.1-6.7-2.8-11.7c2.5-3.7,2.8-8,2.2-12.3c-1.8-12.1-3.9-24.1-6.4-36.1c-3.1-15-9.5-26.9-23.2-35.4
			c-9.9-6.1-19.5-13.6-24.9-24.8c-3.5-7.4-5.6-7.7-11.7-1.7c-8.3,8.2-15.7,17.3-23.1,26.3c-4.4,5.3-6.9,11.4-7.8,18.1
			c-1.1,8.7-4.1,16.5-9.3,23.5c-4.2,5.6-6.8,12-7.7,18.9c-1.3,10.3-3.5,20.4-6.9,30.2c-5.6,16.1-8.1,32.9-9.7,49.8
			c-0.9,10-1.8,20.2,4.2,29.6C88.3,1007.3,87,1011.4,82.4,1014.1z M354,927.9c0.3-8.2-4.3-13.5-8.5-19c-3-3.9-5.2-7.7-3.8-13.4
			c1.9-8.1,1.3-16.3-1.4-24.6c-4.6-14.2-10.8-28.1-12.8-43c-2.5-19-10.6-36.1-17.1-53.7c-0.1-0.4-0.9-0.6-1.6-1
			c-4.7,7.2-2.6,17.1-8.9,24.2c-4.6-5.3-5.7-10.5-3.5-17.2c-12,6.3-24,9-36.8,9.2c1.9,9,2.2,17.1-5.3,23c-5.7,4.5-7.4,10-4.8,16.7
			c3.4,8.9,2.2,17.4-1.5,25.9c-2.3,5.3-3.9,10.9-3.8,16.7c0,6.2-0.3,12.2-2.2,18.1c-1.5,4.7-0.4,8.8,3.6,11.9c3.3,2.6,5.6,6,7.2,9.7
			c4.8,11.6,10.9,22.4,17.6,33.1c3.3,5.3,6.1,6.2,11.9,3.8c7.4-3.1,14.7-6.4,22.3-8.7C320.5,934.7,336.9,930.9,354,927.9z" />
            <path fill-rule="evenodd" clip-rule="evenodd" fill="none" d="M40.1,1.1c2.4,13.8,4.5,27.7,7.5,41.4c9,40.8,21.5,80.6,36.4,119.6
			c9.4,24.7,17.2,49.9,25.6,74.9c1.2,3.5,0.2,6.6-0.7,9.7c-3,10.2-3.7,19.9,4.7,28.4c3.9,3.9,4.6,9.6,5.3,14.9
			c0.1,0.9-0.2,2,0.3,2.7c9.6,15.8,10.8,35.4,22.7,50.1c4.4,5.5,6.3,12.5,11.5,18.3c3.2-5.2,5.5-2.5,7.6,0.5c3.5,5,7.2,9.9,10,15.3
			c7.3,14.2,16.7,27.1,25.9,40c2,2.8,3.7,6,5,9.2c1.3,2.9,1.7,6.3-0.3,9c-8.1,10.8-7.8,22.7-5.3,35c3,15,9.2,27.9,22.1,37.2
			c6.3,4.6,6.3,8.9,3.6,16.7c-6,17.6-14.3,34-24,49.8c-6.6,10.7-14.4,18.9-27.8,20.8c-6.6,0.9-12.6,4.2-18,8.2
			c-4.6,3.4-9.3,6.7-14.8,8.6c-3.8,1.4-6.1,3.5-2.5,7.8c3.6,4.3,0.5,8-2.5,10.5c-8.8,7.5-15.6,16.9-24.2,24.5
			c-14.4,12.8-21.8,29.1-26.9,47c-5.1,18.1-9.3,36.5-13,55c-4,20.4-13.9,39-20.9,58.5c-5,14.1-8.6,28-8.1,43.3
			c0.4,13.7-2.9,27.2-12.1,38.5c-3.6,4.4-5.8,9.4-7,15c-0.8,3.7-2.4,7.3-5.4,9.4c-5.9,4.2-10.1,9.7-13.7,15.9c0-312,0-624,0-935.9
			C14.1,1.1,27.1,1.1,40.1,1.1z" />
            <path fill-rule="evenodd" clip-rule="evenodd" fill="none" d="M1.1,948.2c2.5,2.2,5.4,3.1,8.8,3.2c14.9,0.6,27.8-3.8,38.5-14.6
			c3.2-3.3,7.1-5.9,10.5-8.7c6.6,6.5,4,14,2.7,21.5c-1.4,8.9-3.4,17.9-3.2,26.7c0.3,9.7-3.5,18.3-5.2,27.4
			c-1.3,6.5-0.5,12.5,1.5,18.3c2.1,5.9,2.4,11.8,1.9,18.1c-12.9,3.2-20.7,11-21,24.9c-11.5,0-23,0-34.5,0
			C1.1,1026.1,1.1,987.1,1.1,948.2z" />
            <path fill-rule="evenodd" clip-rule="evenodd" fill="none" d="M82.4,1014.1c4.6-2.7,5.8-6.8,3.1-11.1c-6-9.3-5.1-19.6-4.2-29.6
			c1.5-16.9,4.1-33.7,9.7-49.8c3.4-9.9,5.6-19.9,6.9-30.2c0.9-6.9,3.5-13.2,7.7-18.9c5.2-7,8.2-14.8,9.3-23.5
			c0.8-6.8,3.4-12.8,7.8-18.1c7.4-9,14.8-18.1,23.1-26.3c6-5.9,8.1-5.6,11.7,1.7c5.4,11.3,15,18.7,24.9,24.8
			c13.7,8.4,20.1,20.4,23.2,35.4c2.5,12,4.6,24,6.4,36.1c0.6,4.3,0.3,8.6-2.2,12.3c-3.4,5.1-1.7,8.6,2.8,11.7
			c6.8,4.8,13.5,9.7,20.3,14.6c6,4.3,9.2,10.7,13.7,16.4c-5.4,4.7-11.9,3.8-17.6,5.2c-11.7,2.7-22.7,6.4-31.3,15.5
			c-3.3,3.6-8.1,4.2-12.8,3.5c-7.3-1-13,1.5-17.5,7.1c-7.5,9.2-16.9,14-29.1,14.4c-5.9,0.2-10.3,5-15.1,8.5
			c-6.9,5-13.7,10.2-22.2,12.6c-3.7,1-6.1,1.3-9-2C88.9,1021,84.4,1018.9,82.4,1014.1z" />
            <path fill-rule="evenodd" clip-rule="evenodd" fill="none" d="M354,927.9c-17,3-33.5,6.8-49.7,11.6c-7.6,2.3-15,5.6-22.3,8.7
			c-5.8,2.4-8.5,1.6-11.9-3.8c-6.7-10.6-12.8-21.5-17.6-33.1c-1.6-3.8-3.9-7.1-7.2-9.7c-3.9-3.1-5.1-7.2-3.6-11.9
			c1.9-5.9,2.2-11.9,2.2-18.1c0-5.8,1.5-11.4,3.8-16.7c3.7-8.4,4.9-17,1.5-25.9c-2.6-6.7-0.9-12.2,4.8-16.7c7.5-5.9,7.2-14,5.3-23
			c12.8-0.2,24.9-2.8,36.8-9.2c-2.2,6.7-1.1,12,3.5,17.2c6.4-7.1,4.2-17,8.9-24.2c0.7,0.4,1.4,0.6,1.6,1
			c6.5,17.6,14.5,34.7,17.1,53.7c2,14.9,8.2,28.8,12.8,43c2.7,8.3,3.3,16.5,1.4,24.6c-1.3,5.7,0.8,9.5,3.8,13.4
			C349.6,914.4,354.2,919.7,354,927.9z" />
        </g>
    </g>
</svg>