<?xml version="1.0" encoding="utf-8"?>

<!DOCTYPE svg PUBLIC "-//W3C//DTD SVG 1.1//EN" "http://www.w3.org/Graphics/SVG/1.1/DTD/svg11.dtd">
<svg version="1.1" id="Layer_1" xmlns="http://www.w3.org/2000/svg" xmlns:xlink="http://www.w3.org/1999/xlink" x="0px" y="0px"
	 viewBox="0 0 815.6 1061.7"  xml:space="preserve">
<g>
	<path fill-rule="evenodd" clip-rule="evenodd" fill="none" d="M815.6,1061.7c-271.5,0-543,0-814.5,0c0-353.5,0-707,0-1060.6
		c271.5,0,543,0,814.5,0C815.6,354.7,815.6,708.2,815.6,1061.7z M202.8,553.6c1.7,0.7,1.4,2.6,2.3,3.8c0.9,1.2,3.1,1.1,3.4,3.1
		c-0.9,1.4-1.6,2.9-2.5,4.3c-3.7,5.8-6.9,11.8-9,18.5c-1.1,3.4-0.9,7.1-2.7,10.2c-2-2.2-4.8-3.2-7.1-4.9c-9.4-7.2-18.5-14.8-28-22
		c-2.8-2.2-5.1-5-8-6.8c-3.7-2.2-6.2-5.4-9-8.3s-6.1-5.4-8.3-9c-1.2-2-3.1-4-5.8-5c-3.7-1.5-8.5-3.2-11.8-3.2
		c-1.7,0-3.5,0.3-5.1-0.1c-2.1-0.5-3.3,1.5-5.2,1.3c-2.9-0.3-5.6,1.1-8.3,1.9c-11,3.4-21,9-31.5,13.3c-4.4,1.8-8.6,4.1-13,5.8
		c-7.2,2.8-14.2,6.1-21.3,9.1c-6.3,2.7-12.7,5.1-18.8,8.3c-4.4,2.3-6.3,3.8-8.7,7.6c-3.2,5-2.4,10.2-1.5,15.4c0.7,4,2.4,7.9,2.6,12
		c0.3,5.3,2.7,10.2,2.4,15.6c1.7,2,0.6,5.1,2.3,7c3.3,3.8,4.9,8.6,7.1,13c2.6,5,4.6,10.1,4.4,14.5c1.7,2.3,2.8,3.8,3.8,5.1
		c3.5,0.1,5.6-2.1,7.2-4c2.1-2.4,4-5.1,5.7-7.8c3.3-4.9,6.5-9.8,9.2-15c2.3-4.4,1.5-6.5-2-10.1c-3.7-3.8-7.6-7.4-11.2-11.3
		c-1.7-1.8-3.9-2.4-5.9-3.6c0-2.9-1.9-5.3-2.4-8.1c8.3-3.8,8.4-3.9,9.1-8.7c1.5-1.6,2.6-3.6,4.2-4.3c3.9-1.7,6.7-5.4,11.3-5.8
		c1.8-2.5,4.8-2.9,7.4-4c2.6-1.1,5.2-2.2,7.7-3.3c3.1-1.3,6.4-2.1,9.4-3.5c8.7-4.2,17.9-5.6,27.5-5.1c0.7,0,1.4,0.2,2.1,0.5
		c6.2,2.3,10.3,7.3,12.3,13c2.2,6.2,5.6,11.6,9.4,16.5c3.5,4.5,7,9,10.6,13.4c4.9,6.2,10.2,12,15.2,18.1c3.8,4.7,8.4,8.8,12.8,12.9
		c2.5,2.4,5.3,4.5,8.2,6.4c1.1,0.7,1.1,1.2,0.7,2.3c-5.6,0.3-11.3-0.2-17,1c-4.6,1-9.6-0.6-14.3,1.3c-7.3-0.5-14.5,0.8-21.7,1.1
		c-5.7,0.3-11.4,0.2-17.1,0c-5.8-0.2-11.4,1.4-17.2,1.4c-3.7,0-7.7,1.1-11.1,3.2c-3.7,2.2-6.4,5-7.3,9.6c-0.5,2.5-1.1,5-0.9,7.5
		c0.1,2.8-0.9,5.4-1.1,8.1c-0.4,5.6,1.8,10.6,5.3,14.8c5.4,6.5,9,14.1,12.3,21.7c3.4,7.9,6.3,16,8.8,24.3c2.6,8.7,5.6,17.2,6.7,26.3
		c0.6,4.6,2.4,9,7.6,10.7c1.3,0.4,2.7,1,3.8,1.9c5.7,4.9,12,9,17.6,14c1.9,1.7,4.4,3.2,6.5,4.8c3.7,2.8,8,4.8,11.7,7.7
		c4.3,3.4,9.2,5.9,14.1,8.5c3.9,2.1,7.7-0.2,8-4.5c0.2-2.5,0.7-5.2-0.1-7.3c-1-2.4-0.6-4.7-1-7c-0.4-2.5-1.2-4.9-1.2-7.5
		c0-2.9-1-5.6-3.4-7.7c-1.4-1.2-2.6-2.7-3.4-3.5c-3.6-1.4-5.9,1.7-8.8,0.6c-1.1-1.1-2.1-2.1-3.3-3.3c-3,0-6-0.2-9,0.1
		c-1.1,0.1-1.7,0.8-3.2,0.4c-3-0.8-4.7-2.7-6.5-4.7c0-1.4-0.1-2.7,0-4c0.2-2.4-0.5-4.4-2.2-5.9c-4.4-4-6.3-9.5-9.1-14.5
		c-2.8-5-5.1-10.4-7.3-15.8c-1.3-3.1-2.9-6-4.1-9.1c-1.8-4.9-4-9.7-5.8-14.7c-1.8-5.1-4.3-10-3.2-15.8c0.5-0.5,1.2-1.2,1.9-1.9
		c1.3-1.2,3.3-1.7,4.7-1.3c4.7,1.2,9.5,1.6,14.2,2.6c2.9,0.6,6,2.1,9.2,1.3c2.4,2.6,6.3-0.2,8.7,2.3c3.2-0.6,6,1.8,9.2,1.1
		c2.5,2.5,6.3-0.2,8.7,2.3c5.6-0.5,10.6,2.6,16.1,2.2c1.7-0.1,2.5,1.4,4.1,1.3c1.5-0.2,3.4-0.6,4.4,0.2c1.8,1.4,3.6,1,5.4,0.8
		c2.2-0.3,3.7,1.5,5.8,1.3c5.4-0.5,10.6,2,16,1.1c2.4,1.4,5.2,1,7.8,1.8c7.9,2.7,11.9,2,19.1-1.8c1.4-0.8,2.9-1.8,3.2-2.9
		c0.8-2.4,2.9-3.3,4.1-5.1c2.8-0.4,5.1,0.3,7.1,2.3c1.7,1.7,3.5,2.8,6,3.5c3.2,0.8,6.4,2.1,9.2,3.9c9.6,6.3,19,12.8,28.5,19.2
		c8.2,5.6,16.8,10.6,25.6,15.2c7.6,4,15.5,7.4,23.4,10.9c5.7,2.6,11.8,3.7,17.8,5.2c2.2,0.6,4.6,0.5,6.9,1.1c2.4,0.6,5,0.7,7.5,1
		c5,0.7,10,1.7,15,2.3c3.1,0.4,6.2,0.9,9.1,1.5c2.9,0.6,6.1,0.3,8.8,2.1c5.6-0.2,10.5,2.2,15.2,4.6c6.8,3.5,12.2,8.8,16.7,15
		c1.6,2.2,3.4,4.2,4.6,6.6c5,9.9,6.3,20.8,7.8,31.5c0.6,4.3,1.2,8.6,2.4,12.7c2,6.5,4.8,12.7,9.1,17.8c6.9,8.2,15.8,13.8,25.1,18.9
		c10.3,5.8,21.4,9.7,32.2,14.4c2.8,1.2,6,2,9.1,2.8c3.1,0.7,6.3,1,9.4,2c5.5,1.8,11.1,3.5,16.4,5.8c5.1,2.3,10.1,5,15.1,7.6
		c1.7,0.9,3,2,4.2,3.4c-2.7,1.8-4.5,4.3-7.1,6.3c-6.8,5.1-14.5,8.5-21.2,13.5c-6.4,4.7-13.9,7.9-18.1,15.2c-1.4,2.5-3.2,4.6-1.7,8.3
		c1.6,3.9,3.5,7.7,4.9,11.7c1.4,4.1,3,8.2,4.6,12.3c1.9,4.7,3.8,9.4,5.7,14.2c1.9,5,3.8,10.1,8.4,13.7c5,3.8,9.7,7.9,14.4,12.1
		c3.5,3.2,7.1,6,11.8,7.3c2.1-1.4,3.1-3.5,4.1-5.6c2.1-4.5,2.9-9.4,4.6-14.1c1.3-3.5,2.3-7.1,3.2-10.6c1-3.6,0.1-7.3-3.1-10
		c-2.2-2-4.7-3.3-7.4-4.1c-7.7-2.3-14.6-6.2-21.4-10.7c0.6-2.2-0.2-4.3,0.7-6.7c1.2-3.1,2.7-5.9,5-8.2c3.7-3.7,7.3-7.4,11.6-10.5
		c2.7-1.9,4.7-4.7,7.6-6.4c5.2-3.1,10.1-6.5,15.5-9c2.8,2.6,4.4,5.7,6.5,8.4c2.5,3.3,4.4,6.9,6.7,10.3c2.8,4.1,5.1,8.6,6.8,13.1
		c3.2,8.6,6.9,16.9,10.5,25.3c5.1,11.6,11.2,22.8,18.2,33.5c3.5,5.3,7.4,10.4,11.6,15.1c3.8,4.2,8.3,7.8,13.2,10.6
		c4.4,2.5,9,5.3,14.6,4.7c2.3,1.5,5.2,0.5,7.5,1.3c5.3,1.9,10.9,2.1,16.3,3c5.9,1,11.7,2.8,17.8,2.6c0.6,0,1.2,0.6,1.7,0.9
		c1.8-4.2,3.4-8.6,3.8-13.2c0.7-7.3-1.5-13.9-5.6-19.9c-3.7-5.3-12.3-8.7-17.9-6.2c-3.2,1.4-6.7,2.5-9,5.3
		c-6.7-2.3-13.7-3.4-18.8-8.8c0.6-2.2-0.8-4.6,1.1-6.5c0-4.2,0.8-8.3-1.5-12.3c-1.4-2.5-3.7-4-5.2-6.4c-3.2-5.1-6.8-10-10-15.2
		c-1.2-2-2.2-4.1-3.4-6c-3.2-5.1-6.4-10.2-8.8-15.7c-2-4.5-4.1-8.9-5.7-13.6c-1.7-5.2-3.6-10.5-3.9-16c-0.3-5.9-1.2-11.6-2.3-17.3
		c-1.6-8.5-6-15.4-12.1-21.2c-3.4-3.3-7.3-6.1-11.2-8.8c-6.2-4.2-11.6-8.9-16.6-14.4c-5-5.6-9-11.7-12.7-18.1
		c-1.6-2.7-3.2-5.6-5.2-8.2c-2.4-3.2-5-5.9-8.6-8.2c2.2-1.1,2.6-3,3.6-4.5c5-7.3,9.6-14.9,13.8-22.7c5.2-9.6,9.4-19.6,12.9-30
		c3.5-10.6,6.6-21.3,6.4-32.7c0-1.7,0-3.3,0-5.3c1.6,0.3,2.7,0.1,3.9,1.1c6.5,4.9,13.7,8.9,21.2,12.1c7.4,3.2,14.2,7,20.9,11.6
		c5,3.5,8.2,8,11.1,13.1c1.6,2.9,2.1,6.2,4,9.1c3.7-11.1,1.2-20.7-7.2-30.3c1.9,1,2.8,0.5,4,0.9c3.9,1.2,7.4,3.3,10.8,5.5
		c4.1,2.6,8,5.7,10.8,9.6c2.8,4,5.6,8.4,6.8,13.1c1.3,5,3,10.1,2.5,15.5c-0.1,1.3-0.4,2.8,0.1,4c0.5,1.4-1.9,2.2-0.4,3.8
		c1.3,1.3-1,2-0.9,3.4c0.1,4-0.4,8-0.8,12.1c-0.5,4.4-2.2,8.7-1.4,13.2c-1.6,2.5-0.2,5.7-1.4,7.9c-1.2,2.3,0,4.6-1,6.4
		c-1.3,2.3-0.9,4.6-1,7c-0.1,1.9,0.1,3.8,0,5.7c-0.3,4.6,1,9.1,2.7,13.1c3.5,8.3,8.4,15.9,13.1,23.6c2.3,3.8,5.5,7,6.1,11.7
		c1.5,0.1,0.1,2.3,2,2.4c0-8.3,0-16.5,0-24.8c2.1,3.6,3.4,7.3,4.8,11c1.8,4.6,3.5,9.2,5.4,13.7c1.7,3.9,3,8.1,5.9,11.2
		c2.9,3.1,6.1,6,9.6,8.4c10.1,6.7,20.2,13.4,29.3,21.5c0.3,0.3,1,0.1,2.5,0.3c-1.7-1.7-3.2-2.6-3.8-3.9c-1.7-4.1-4.8-6.9-7.7-9.9
		c-0.7-0.8-1.7-1.3-1.8-2.7c-0.1-0.9-1.7-1.5-1.7-2.9c7.1,4.7,14.3,9,22.2,12.3c0-0.6,0.2-1.3,0-1.6c-2.5-2.7-5.2-5.2-7.3-8.4
		c-1-1.4-2.2-3-4.2-3.5c-1.3-0.3-1.1-1.2-0.4-2.2c3.6,2.7,7.9,3.9,11.9,5.4c3.4,1.3,6.9,2.7,10.4,3.8c4.3,1.4,8.7,1.8,12.9,3.1
		c2.6,0.8,5.7,0.1,8.5,0.2c1.4,0,1.8-1,2.5-1.9c-10.5-2.4-18.1-8.5-24.2-17.1c-4.3-6.1-7.7-13-13.9-17.5c-0.7-0.5-0.7-1.2-0.2-1.9
		c6.5,2.8,15.6,6.1,22.6,5.5c2.4-0.2,5.3-0.8,7.3,0.2c2.3,1.1,4.2,0.6,7.4,0.8c-1.9-0.9-2.7-1.2-3.4-1.7c-4.2-3.4-9.2-5.7-14.2-7
		c-4.2-1-7.7-2.8-11-5c-3.2-2.2-6-4.9-8.1-8.3c1.4-0.7,2.5-1.8,3.6-1.8c4.3,0.3,8-2.2,12.2-2.4c1.6-0.1,3-1,4.5-1.5
		c1-0.3,2.9-0.2,4.3-1.9c-1.7,0-2.6-0.1-3.5,0c-4.7,0.7-8.9-1.5-13.3-2.5c-3-0.7-6.4-2.4-8.1-4.8c-2.3-3.3-6.2-5.8-6.3-10.4
		c-4.5-6.5-4.3-14.3-5.5-21.6c-0.7-4.2-0.2-8.7-0.1-13.1c0.1-4.4-0.9-8.9,1.1-13.2c0-7.6,0-15.2,0-22.8c0-0.4,0.1-0.9-0.1-1.1
		c-1.8-1.5-1.2-3.6-1-5.3c0.3-2.2-1.5-3.7-1.3-5.8c0.3-3.3-1.2-6.3-2-9.4c-2-7.6-5.2-14.5-8.8-21.4c-2-3.8-4-7.7-6.7-10.8
		c-7.9-8.9-16.4-17.2-28-21.6c-7-2.6-14-4.5-21.3-4.8c-8-0.3-16,0.1-24,0.7c-9.4,0.7-19.1,1.4-28.6-0.7c-3.2-0.7-6.5-0.2-9.8-1.1
		c-4-1.1-8.1-2.4-12.9-4.6c-6.5-3.1-10.3-8.5-13.7-14.4c-2-3.5-3-7.5-5.7-10.7c-2.4-2.9-8.3-8.6-12-11.5c-2-1.6-4.1-3.3-6.2-4.3
		c-2.6-1.3-3.4-3.7-4.9-5.6c-3.6-4.8-7.5-9.4-10.8-14.3c-5.6-8.3-11.6-16.4-17.1-24.8c-6-9.1-12.6-18-18.9-27
		c-2.2-3.2-4.8-6.4-6.3-9.9c-1.7-4-2.7-8.4-3.6-12.8c-1.6-7.5-3.9-14.7-6.4-21.9c-2-5.9-4.6-11.8-6.8-17.7c-2-5.4-5.6-9.8-7.7-15.1
		c-1.3-3.2-4-6-6.3-8.7c-1.4-1.6-2.7-3.1-3.4-5.4c2.1,0,4.4,0.7,5.8-0.1c2.6-1.5,5.3-0.2,7.5-1.1c2.7-1.2,5.4-1,8.1-1
		c4.4-0.1,8.8-0.3,13.1,0.1c2.9,0.2,5.2-2,8.1-1.3c5.5-2.6,11.2-5,16.6-8c3.2-1.8,5.7-4.7,7.8-7.8c0.8-1.2,1.3-2.4,1.2-4.1
		c-0.1-4.8-2-9-4.2-13.1c-3.2-5.9-6.5-11.8-10.4-17.3c-4.6-6.5-9.2-13.2-12.4-20.5c-2.3-5.2-4.3-10.5-7.4-15.1
		c-3.4-5.1-6.7-10.3-12.2-13.8c-2.2-1.4-5.1-2-7.1-4.7c1.3-2.7-1-5.2-1.3-8.2c-1.7-0.4-3.7,0.4-5.2-0.4c0-3.4,0-6.6,0-9.9
		c1.8,0,3.5,0,5,0c2.7-2.5,3.8-6.2,7.3-8.1c4.8,1.1,9.6-0.5,14.1-2.3c5.9-2.4,10.9-6.5,14.9-11.3c2.1,0.1,4.2-0.5,4.9,1.6
		c-2.6,6-2,12.2-2,18.2c0,0.6,0.7,1.2,1.1,1.8c1.7,2.3,3.6,4.6,5.1,7c0.8,1.2,2.2,1.2,3.3,1.9c1.7,1.2,3.5,0.2,4.1-2.1
		c0.6-2.4,2.1-4.8,1.1-7.1c-2.6-3.7-7.7-4.7-8.8-9.1c-1.1-4.2-2-8.5-1.4-12.5c-0.8-1.3-2-1.7-2.2-2.9c3.3,0.3,5.8,1.2,6.5,2.6
		c2.3,4.4,6.4,7.4,8.5,11.9c2.5,0.9,3.5,4.5,7.1,3.5c1.6-1.3,3.7-2.8,2.7-5.3c-1.2-3.1-2.2-6.3-5.6-8.3c-4.6-2.7-8.9-5.8-14.3-6.9
		c-1.3-0.3-3.2-1-4-2.7c-1.5-3.1-4.6-4.9-6.3-7.7c-1.7-2.8-3.7-5.5-6.3-6.9c-2.8-1.5-4.3-4.3-7.3-5.6c-2-0.9-3.8-2.6-6-3.4
		c-0.3-2.9-3-3.2-5-4.3c-1.6,0.8-3.1,2.2-4.8,0.2c-1.6-1.9-3.5-2-5.4-0.7c-1.1,0.7-2,0.5-3.1,0.2c-2.1-0.7-3.5,0.3-4.9,1.8
		c-1.6,1.6-0.6,3.6-1.5,5.5c-1.6-0.9-2.3,1-3.9,1.2c-3.1,0.4-5.4,3.2-8.8,3.5c-0.8,0.1-0.8,2.3-2.4,3.2c-4.6-1.1-7.8,2.6-12,3.9
		c0.5,2.7,3.8,3.2,3.7,5.7c-0.9,1.2-2.3,0.1-3,0.8c-0.5,1-0.9,1.9-1.3,2.9c0.7,0.7,1.3,1.3,1.8,1.8c-0.2,3.1-3.1,1.2-4.2,2.5
		c-0.7,1.6,1.9,2.1,0.9,3.6c-0.1,0.1-0.3,0.4-0.4,0.4c-0.4,0.1-0.8,0.1-1.1,0.1c-3.6-0.4-5.8,1.1-7.6,4.4c-1.9,3.8-4.8,7-9,8.6
		c0.5,1.2,2,1.2,2.7,1.4c3.1,0.9,6.2,2.6,9.5,1.1c4-1.8,7.4-0.8,10.5,2c0,3.3,0.6,6.7-1.4,9.5c-4.8,1.4-9.2-1.6-13.8-0.9
		c-4.4-2.5-10.2-2.9-12.3-8.7c-0.2-0.6-1-1.1-1.6-1.6c-4.5-3.9-8.4-8.4-13.1-12.2c-7.1-5.8-13.2-12.6-17.2-21.3
		c-3.4-7.3-8.4-13.7-13.2-20.1c-5.7-7.6-11.9-14.8-17.6-22.4c-2.4-3.3-5.5-6.1-6.7-10.3c-1.1-3.7-3-7-6.4-9.3c-2.9,0-5.9,0-8.9,0
		c-0.5-0.8-1.6-1.1-1.7-2.4c1.3-2.7,4.1-3.7,6.7-4.8c0-0.9,0-1.8,0-2.9c-4,0-8,0-11.8,0c-1.5-1.5-3.1-2.7-4-4.3
		c-4-7.5-9.5-13.9-14.4-20.7c-6.2-8.7-12.4-17.3-18.7-25.9c-3.5-4.8-6.8-9.7-10.2-14.6c-5.1-7.3-10.1-14.8-15.3-22.1
		c-6.5-9.1-12.9-18.2-19.2-27.4c-7.4-10.8-14.8-21.6-22.2-32.4c-9.5-13.9-18.5-28-27.7-42c-3.9-6-7.5-12.1-11.3-18.1
		c-3.2-5.1-6.1-10.4-9.4-15.5c-4.1-6.2-6.7-13.3-11-19.4c-1.1-1.6-2.1-3.6-2.5-5.8c-0.4-2.2-2-4.1-2.9-6.2c-0.8-2.1-1.4-4.3-2.4-7.6
		c-0.6,11-0.4,11,3,22.1c1.3,4.2,2.7,8.4,4.5,12.4c1.9,4.2,3.3,8.5,5.5,12.5c4,7.4,7.5,15.1,11.4,22.6c4.1,7.8,8.5,15.5,13.1,23
		c2.8,4.5,5.4,9.3,8.5,13.6c3,4.1,5.6,8.6,8.3,13.1c5.5,9.2,11.3,18.1,17.2,27c5.4,8,10.7,16.1,16.1,24.1
		c4.2,6.2,8.4,12.5,12.9,18.6c5.8,7.8,11.2,15.9,16.9,23.8c3.4,4.7,7,9.2,10.4,13.9c3,4.1,5.9,8.2,8.8,12.3
		c2.6,3.7,5.3,7.3,7.9,10.9c2.8,3.8,5.2,8.1,8.8,11.2c4.1,3.7,3.6,8.2,3.5,12.8c-2.3,2.3-0.6,4.9-0.9,6.5c2.3,2.8,3.4-1.5,5.5,0.2
		c0,1.4-0.3,3,0.1,4.4c0.8,2.9,1,6.4,3.5,8.2c3,2.1,6.1,4.2,9.7,5.3c9.4,2.9,8.6,2.9,12.8,10.9c1.6,3.1,2.4,6.6,3.5,9.9
		c1,3.2,1.7,6.5,2.8,9.7c1.3,3.8,3,7.5,4.4,11.3c1.3,3.4,2.8,7.2,5.3,9.7c4.5,4.5,7,10.1,10.3,15.2c3.8,6,7.6,12.1,11.3,18.1
		c1.9,3,3.5,6.2,5.7,9c3.5,4.4,6.1,9.5,10.9,13.3c-0.8,0.9-1.4,1.3-1.8,1.9c-3.8,4.7-7.6,9.4-6.7,16c0.1,0.7,0.1,1.5-0.2,2.2
		c-3.6,8.7-5.7,17.8-8.4,26.7c-1,3.4-2.1,6.8-2.7,10.2c-0.9,5.4-2.6,10.3-6.1,14.6c-2.1,2.6-4.1,5.4-6.3,8.3
		c-6.7-0.9-13.6,0.8-20.4-1.2c-2.4-0.7-5.2-0.1-8-0.1c-0.1-4.2-1.7-7.8-2.5-11.7c-0.9-4-1.9-7.9-3.5-11.7c-1.5-3.6-3.8-6.8-5.7-10.2
		c3.9-2.6,8.3-4.3,12.7-5.1c5.3-1,10.6,0.6,15.8,1.6c5.7,1.1,11.2,3,17.2,5.6c0.1-5.2-2.8-8.7-5.3-11.8
		c-8.2-10.2-19.5-13.3-33.1-12.5c1.3-1.2,1.9-2.2,2.6-2.3c4.8-0.9,9.6-2,14.4-2.2c6.2-0.4,12.5-0.1,18.8-0.1c1.1,0,2.6-0.3,3.2,0.3
		c1.6,1.4,3.3,0.9,4.8,0.7c2-0.2,3.2,2.1,5.2,1.2c0.3-0.1,0.4-0.6,0.9-1.2c-2.9-3.1-5.6-6.6-9.6-8.8c-7.3-3.8-15.4-5.2-23.3-7.1
		c-6,0.9-11.8-1.2-17.8-1.3c-2.9,0-5.2,1.4-8.1,1.3c-7-0.2-14-0.2-21.1,0c-3.6,0.1-6.3-2.3-9.5-3.2c-0.7-0.2-1.1-1-0.8-2.3
		c4.9-0.6,8.7-3.6,12-7.3c2.3-2.5,5-4.7,7.2-7.3c1.2-1.4,2.8-2.4,4.1-2.6c4.2-0.8,8.2-3,12.7-2.5c1.6,0.2,3.3,0.4,5.1-0.4
		c-7-3.9-14.6-5.1-20.1-5.4c-4.2-0.2-8.2,0.6-12,1.5c-3.7,0.8-7.6,1.5-11.1,3.5c-2,1.1-4.1,2-6.1,3.1c-3.1,1.6-6.5,1.1-9.8,1.2
		c-5.9,0.1-10.8-2.3-15.2-6.1c2-2.2,4-3.6,6.9-4.3c1.7-0.4,3.6-0.5,5.2-1.1c6.2-2.5,12.8-2.2,19.2-3.3c1-0.2,2.2,0.8,3-0.8
		c-5.9-1.8-11.3-4.8-17.4-6.3c-6.3-1.6-12.8-1.8-19-3.6c0-0.5-0.3-1.2,0.3-1.5c5.8-3,9.7-8,12-13.7c2.9-7.2,9.1-9.5,15.3-11.4
		c2.7-0.8,5.7-1.8,9.4-1.6c-5.2-4.3-10.9-4.4-16.3-5.4c-1.3-0.3-2.4,1.2-4.1,1.2c-5.7-0.1-10.7,2.5-15.5,5.1
		c-5.9,3.2-11,7.6-16.2,11.7c-5.7,4.5-11.8,7.5-19.3,7.1c-1.5-0.1-3.1,0.3-4.5-0.1c-2.3-0.5-5-0.6-6.7-2.8
		c19.9-8,21.3-12.3,25.8-23.1c-0.4-0.1-0.8-0.3-1-0.2c-5.5,3.4-11.6,5.2-17.7,6.8c-1.4,0.4-2.4,1.6-4.1,1.2c-4.1-0.9-7.9,1.7-12,1.1
		c-2.1,2.4-5.4,0-7.7,2.2c-0.6,0.5-2.5,0.6-4-0.7c5-2.3,8-6.7,11.8-10.2c0.8-0.8,1.7-1.6,0.3-2.7c-4,5.1-9.7,7.3-15.6,9
		c-2.6,0.7-5.7,0.5-8.5,0c-3.1-0.5-5.6,1.6-8.7,1.3c-2.2-0.2-4.3,0.5-6.4,0.9c-6.4,1.3-12.1,3.8-17.8,6.9
		c-14.8-8.2-29.9-16.2-43.4-27.9c1.2,7.7,2.2,14.6,5.4,21.8c-5.2-3.3-9.7-6.1-14.3-9c-0.6,5.6,6.1,19.4,13.3,27.8
		c-5.4,6.8-9.6,14.1-8,23.1c-2.3,2.3-4.5,4.5-6.6,6.6c-0.1,0.1-0.3,0.3-0.3,0.4c0,0.2,0.2,0.3,0.8,0.8c1.3-1.3,3.2-1.4,4.7-2.9
		c1.2-1.2,2.8-2.4,4.4-3c1.9-0.6,2.7-2.7,5.1-3.7c-1,4.1-3.4,6.7-5.3,10.4c2.2-0.9,3.9-1.3,5-2.7c0.7-0.9,1.5-0.9,2.4,0
		c-1.4,5.1-4.2,9.7-5,15c-0.7,4.5-0.7,8.8,0.2,13.5c0.3,1.6,2.2,3.2,1.2,4.5c-1.5,2-0.9,4-0.9,5.9c-0.1,15.2,0,30.3,0,45.4
		c-1.5,0.9-3.6,0.8-3.5,2.7c0.5,2.2,2.4,2,2.9,2.4c1.3,2.3-0.2,4.1,1.3,6c1.1,1.4,1,4,0.3,5.4c-1.3,2.6-0.8,5.1-1,7.6
		c0,0.6,0.2,1.3,0,1.7c-3.2,4.7,0.4,9.3,0.2,13.9c0,1,0.9,3.2,2.5,4c1.2,0.6,2.9,0.8,3.8,1.7c1.5,1.4,3.3,0.1,4.1,0.7
		c1.8,3.8,5.2,5.5,6.8,8.7c0.4,0.8,2.2,1.7,3.8,1.6c1.5-0.1,3,0,5,0c0.5-0.7,1.1-1.6,1.7-2.4c4.5,1.9,6.6,1.7,9.9-0.6
		c5.5-3.8,10.7-7.9,15.2-12.9c2.5-2.8,4.8-5.6,4-9.7c-0.1-0.5-0.3-1.2,0.5-1.6c1.6,0.9,2.5,2.8,2.7,4.2c0.8,4.8,4.1,8.9,3.6,13.9
		c1.6,1.9,1.4,4.2,1.1,6.3c-0.4,2.6,1.6,4.5,1.2,6.9c-0.6,4.8,0.8,9.4,2.4,13.8C198.4,547.7,199.3,551.5,202.8,553.6z"/>
	<path fill-rule="evenodd" clip-rule="evenodd" d="M202.8,553.6c-3.5-2.1-4.3-6-5.6-9.3c-1.6-4.4-3-9-2.4-13.8
		c0.3-2.4-1.7-4.4-1.2-6.9c0.3-2.1,0.6-4.5-1.1-6.3c0.5-5.1-2.7-9.2-3.6-13.9c-0.3-1.4-1.1-3.3-2.7-4.2c-0.8,0.5-0.6,1.1-0.5,1.6
		c0.7,4.1-1.6,7-4,9.7c-4.5,5-9.6,9.1-15.2,12.9c-3.4,2.3-5.4,2.5-9.9,0.6c-0.6,0.8-1.2,1.7-1.7,2.4c-2,0-3.5-0.1-5,0
		c-1.6,0.1-3.4-0.9-3.8-1.6c-1.5-3.2-4.9-4.9-6.8-8.7c-0.8-0.6-2.7,0.7-4.1-0.7c-0.9-0.9-2.6-1.1-3.8-1.7c-1.6-0.8-2.6-3-2.5-4
		c0.2-4.6-3.4-9.2-0.2-13.9c0.3-0.4,0-1.1,0-1.7c0.2-2.5-0.3-5,1-7.6c0.7-1.4,0.9-4-0.3-5.4c-1.5-1.9,0-3.7-1.3-6
		c-0.5-0.4-2.3-0.2-2.9-2.4c-0.1-1.9,2-1.8,3.5-2.7c0-15.1,0-30.3,0-45.4c0-1.9-0.6-3.9,0.9-5.9c1-1.3-0.9-2.9-1.2-4.5
		c-0.9-4.6-0.9-9-0.2-13.5c0.8-5.4,3.6-9.9,5-15c-0.9-0.9-1.7-0.9-2.4,0c-1.1,1.4-2.8,1.8-5,2.7c1.9-3.6,4.3-6.3,5.3-10.4
		c-2.4,1-3.1,3-5.1,3.7c-1.6,0.5-3.2,1.7-4.4,3c-1.5,1.5-3.5,1.6-4.7,2.9c-0.6-0.6-0.8-0.7-0.8-0.8c0-0.1,0.2-0.3,0.3-0.4
		c2.1-2.1,4.3-4.3,6.6-6.6c-1.6-9,2.6-16.3,8-23.1c-7.2-8.4-13.9-22.2-13.3-27.8c4.6,2.9,9.1,5.7,14.3,9c-3.2-7.2-4.2-14.2-5.4-21.8
		c13.5,11.7,28.6,19.7,43.4,27.9c5.7-3.1,11.4-5.6,17.8-6.9c2.1-0.4,4.2-1.1,6.4-0.9c3,0.3,5.6-1.8,8.7-1.3c2.8,0.4,5.9,0.7,8.5,0
		c5.9-1.6,11.6-3.9,15.6-9c1.4,1.1,0.5,1.9-0.3,2.7c-3.8,3.5-6.8,7.9-11.8,10.2c1.5,1.3,3.5,1.2,4,0.7c2.3-2.2,5.6,0.2,7.7-2.2
		c4.1,0.6,8-2,12-1.1c1.7,0.4,2.7-0.8,4.1-1.2c6.1-1.6,12.2-3.4,17.7-6.8c0.2-0.1,0.7,0.1,1,0.2c-4.5,10.8-5.9,15.1-25.8,23.1
		c1.7,2.3,4.3,2.3,6.7,2.8c1.4,0.3,3,0,4.5,0.1c7.5,0.5,13.6-2.6,19.3-7.1c5.2-4.1,10.3-8.5,16.2-11.7c4.8-2.6,9.8-5.2,15.5-5.1
		c1.7,0,2.7-1.4,4.1-1.2c5.4,1,11.1,1.1,16.3,5.4c-3.7-0.2-6.6,0.8-9.4,1.6c-6.2,1.9-12.4,4.2-15.3,11.4c-2.3,5.7-6.2,10.7-12,13.7
		c-0.6,0.3-0.3,1-0.3,1.5c6.2,1.8,12.7,2,19,3.6c6.1,1.5,11.5,4.5,17.4,6.3c-0.8,1.6-2,0.6-3,0.8c-6.4,1.1-13,0.8-19.2,3.3
		c-1.6,0.6-3.5,0.7-5.2,1.1c-2.8,0.7-4.9,2.1-6.9,4.3c4.4,3.8,9.3,6.2,15.2,6.1c3.3,0,6.7,0.5,9.8-1.2c2-1.1,4.1-2,6.1-3.1
		c3.5-2,7.4-2.7,11.1-3.5c3.9-0.8,7.9-1.7,12-1.5c5.5,0.3,13.1,1.5,20.1,5.4c-1.7,0.7-3.5,0.5-5.1,0.4c-4.5-0.5-8.4,1.8-12.7,2.5
		c-1.2,0.2-2.9,1.2-4.1,2.6c-2.2,2.6-4.9,4.8-7.2,7.3c-3.4,3.7-7.1,6.6-12,7.3c-0.3,1.3,0.1,2.1,0.8,2.3c3.2,0.9,5.9,3.2,9.5,3.2
		c7-0.1,14.1-0.2,21.1,0c2.8,0.1,5.2-1.4,8.1-1.3c6,0.1,11.8,2.1,17.8,1.3c7.9,1.9,16,3.3,23.3,7.1c4,2.1,6.7,5.6,9.6,8.8
		c-0.5,0.6-0.6,1.1-0.9,1.2c-2,0.9-3.2-1.4-5.2-1.2c-1.5,0.1-3.3,0.7-4.8-0.7c-0.6-0.6-2.1-0.3-3.2-0.3c-6.3,0-12.5-0.3-18.8,0.1
		c-4.8,0.3-9.6,1.4-14.4,2.2c-0.7,0.1-1.2,1.1-2.6,2.3c13.5-0.8,24.9,2.3,33.1,12.5c2.5,3.1,5.3,6.6,5.3,11.8
		c-5.9-2.6-11.4-4.5-17.2-5.6c-5.2-1-10.5-2.6-15.8-1.6c-4.5,0.8-8.8,2.6-12.7,5.1c1.9,3.4,4.2,6.6,5.7,10.2
		c1.6,3.7,2.6,7.7,3.5,11.7c0.8,3.8,2.4,7.5,2.5,11.7c2.8,0,5.6-0.6,8,0.1c6.9,2,13.8,0.3,20.4,1.2c2.2-2.9,4.2-5.7,6.3-8.3
		c3.5-4.3,5.2-9.2,6.1-14.6c0.6-3.5,1.7-6.9,2.7-10.2c2.7-8.9,4.8-18,8.4-26.7c0.3-0.6,0.3-1.5,0.2-2.2c-0.9-6.7,2.9-11.3,6.7-16
		c0.4-0.6,1-1,1.8-1.9c-4.7-3.8-7.4-8.8-10.9-13.3c-2.2-2.8-3.8-6-5.7-9c-3.8-6-7.5-12.1-11.3-18.1c-3.3-5.1-5.8-10.7-10.3-15.2
		c-2.5-2.5-4-6.3-5.3-9.7c-1.4-3.8-3.1-7.5-4.4-11.3c-1.1-3.1-1.8-6.5-2.8-9.7c-1.1-3.3-1.8-6.9-3.5-9.9c-4.3-7.9-3.5-8-12.8-10.9
		c-3.7-1.1-6.8-3.2-9.7-5.3c-2.5-1.8-2.7-5.3-3.5-8.2c-0.4-1.4-0.1-3-0.1-4.4c-2.1-1.7-3.2,2.6-5.5-0.2c0.3-1.6-1.4-4.2,0.9-6.5
		c0.1-4.6,0.6-9.2-3.5-12.8c-3.5-3.1-6-7.4-8.8-11.2c-2.6-3.6-5.4-7.2-7.9-10.9c-2.9-4.1-5.8-8.3-8.8-12.3
		c-3.4-4.7-7.1-9.2-10.4-13.9c-5.7-7.9-11.1-16-16.9-23.8c-4.5-6-8.7-12.3-12.9-18.6c-5.4-8-10.8-16-16.1-24.1
		c-5.9-8.9-11.7-17.9-17.2-27c-2.7-4.4-5.3-8.9-8.3-13.1c-3.2-4.4-5.8-9.1-8.5-13.6c-4.6-7.5-9-15.2-13.1-23
		c-3.9-7.5-7.3-15.2-11.4-22.6c-2.2-4-3.7-8.4-5.5-12.5c-1.8-4-3.2-8.2-4.5-12.4c-3.5-11.1-3.6-11.1-3-22.1c1,3.4,1.6,5.6,2.4,7.6
		c0.8,2.1,2.5,4,2.9,6.2c0.4,2.2,1.5,4.2,2.5,5.8c4.3,6.1,6.9,13.2,11,19.4c3.3,5,6.2,10.4,9.4,15.5c3.8,6,7.4,12.2,11.3,18.1
		c9.2,14.1,18.2,28.2,27.7,42c7.4,10.8,14.7,21.6,22.2,32.4c6.3,9.2,12.7,18.3,19.2,27.4c5.2,7.3,10.2,14.8,15.3,22.1
		c3.4,4.9,6.7,9.8,10.2,14.6c6.3,8.6,12.5,17.3,18.7,25.9c4.9,6.8,10.5,13.2,14.4,20.7c0.8,1.6,2.5,2.8,4,4.3c3.8,0,7.7,0,11.8,0
		c0,1.1,0,2,0,2.9c-2.7,1.2-5.4,2.1-6.7,4.8c0.1,1.3,1.2,1.6,1.7,2.4c3,0,6,0,8.9,0c3.4,2.4,5.3,5.7,6.4,9.3c1.2,4.2,4.3,7,6.7,10.3
		c5.6,7.6,11.9,14.8,17.6,22.4c4.8,6.4,9.8,12.9,13.2,20.1c4,8.6,10.1,15.5,17.2,21.3c4.7,3.8,8.6,8.3,13.1,12.2
		c0.6,0.5,1.3,1,1.6,1.6c2.1,5.8,7.9,6.2,12.3,8.7c4.6-0.7,9,2.3,13.8,0.9c2.1-2.8,1.4-6.2,1.4-9.5c-3.1-2.8-6.4-3.7-10.5-2
		c-3.3,1.4-6.5-0.2-9.5-1.1c-0.7-0.2-2.2-0.3-2.7-1.4c4.1-1.7,7-4.9,9-8.6c1.7-3.3,3.9-4.8,7.6-4.4c0.4,0,0.8,0,1.1-0.1
		c0.2,0,0.3-0.3,0.4-0.4c1-1.5-1.7-2-0.9-3.6c1.1-1.3,4,0.6,4.2-2.5c-0.5-0.5-1.2-1.2-1.8-1.8c0.4-0.9,0.9-1.8,1.3-2.9
		c0.8-0.7,2.2,0.5,3-0.8c0.1-2.5-3.1-3-3.7-5.7c4.2-1.3,7.5-5.1,12-3.9c1.5-0.9,1.6-3.2,2.4-3.2c3.4-0.2,5.7-3.1,8.8-3.5
		c1.6-0.2,2.3-2.1,3.9-1.2c0.9-1.9-0.1-3.9,1.5-5.5c1.4-1.4,2.8-2.5,4.9-1.8c1.1,0.4,2,0.5,3.1-0.2c2-1.3,3.8-1.2,5.4,0.7
		c1.7,2,3.3,0.6,4.8-0.2c1.9,1.2,4.6,1.4,5,4.3c2.2,0.9,4,2.5,6,3.4c3,1.3,4.5,4.1,7.3,5.6c2.6,1.4,4.6,4.1,6.3,6.9
		c1.7,2.8,4.8,4.6,6.3,7.7c0.8,1.6,2.7,2.4,4,2.7c5.4,1.1,9.7,4.2,14.3,6.9c3.3,1.9,4.3,5.2,5.6,8.3c1,2.5-1.2,4-2.7,5.3
		c-3.6,1-4.6-2.6-7.1-3.5c-2.1-4.5-6.2-7.5-8.5-11.9c-0.8-1.5-3.2-2.3-6.5-2.6c0.1,1.3,1.3,1.6,2.2,2.9c-0.6,3.9,0.3,8.3,1.4,12.5
		c1.1,4.4,6.2,5.4,8.8,9.1c0.9,2.4-0.6,4.7-1.1,7.1c-0.5,2.3-2.3,3.3-4.1,2.1c-1-0.7-2.4-0.6-3.3-1.9c-1.6-2.4-3.4-4.7-5.1-7
		c-0.4-0.6-1.1-1.2-1.1-1.8c0-6-0.6-12.2,2-18.2c-0.7-2.1-2.8-1.5-4.9-1.6c-4,4.8-9,8.9-14.9,11.3c-4.5,1.8-9.3,3.4-14.1,2.3
		c-3.5,1.9-4.6,5.6-7.3,8.1c-1.5,0-3.2,0-5,0c0,3.4,0,6.5,0,9.9c1.5,0.8,3.5,0,5.2,0.4c0.3,3.1,2.6,5.5,1.3,8.2
		c2.1,2.7,4.9,3.3,7.1,4.7c5.6,3.4,8.8,8.7,12.2,13.8c3.1,4.7,5.1,10,7.4,15.1c3.2,7.3,7.7,14,12.4,20.5c3.9,5.5,7.2,11.4,10.4,17.3
		c2.2,4,4.1,8.3,4.2,13.1c0,1.6-0.4,2.9-1.2,4.1c-2.1,3.1-4.6,6-7.8,7.8c-5.4,3-11,5.4-16.6,8c-2.8-0.7-5.2,1.5-8.1,1.3
		c-4.3-0.4-8.7-0.1-13.1-0.1c-2.7,0-5.4-0.2-8.1,1c-2.2,1-5-0.4-7.5,1.1c-1.4,0.8-3.7,0.1-5.8,0.1c0.7,2.3,2.1,3.8,3.4,5.4
		c2.4,2.7,5.1,5.5,6.3,8.7c2.1,5.3,5.6,9.7,7.7,15.1c2.2,5.9,4.8,11.7,6.8,17.7c2.5,7.2,4.8,14.4,6.4,21.9c0.9,4.3,1.8,8.7,3.6,12.8
		c1.5,3.6,4.1,6.7,6.3,9.9c6.3,9,12.8,17.8,18.9,27c5.5,8.4,11.5,16.4,17.1,24.8c3.3,4.9,7.2,9.5,10.8,14.3c1.5,1.9,2.3,4.4,4.9,5.6
		c2.2,1.1,4.2,2.7,6.2,4.3c3.6,2.9,9.5,8.6,12,11.5c2.7,3.2,3.7,7.2,5.7,10.7c3.4,5.8,7.2,11.3,13.7,14.4c4.8,2.3,8.9,3.6,12.9,4.6
		c3.3,0.9,6.6,0.4,9.8,1.1c9.5,2.1,19.1,1.4,28.6,0.7c8-0.6,16-1,24-0.7c7.3,0.3,14.4,2.1,21.3,4.8c11.6,4.4,20.1,12.7,28,21.6
		c2.7,3,4.7,7,6.7,10.8c3.6,6.9,6.8,13.9,8.8,21.4c0.8,3.1,2.3,6.1,2,9.4c-0.2,2.1,1.6,3.6,1.3,5.8c-0.2,1.7-0.9,3.8,1,5.3
		c0.2,0.2,0.1,0.7,0.1,1.1c0,7.6,0,15.2,0,22.8c-2,4.3-1,8.8-1.1,13.2c-0.1,4.4-0.6,8.8,0.1,13.1c1.2,7.3,1,15.1,5.5,21.6
		c0.1,4.6,4,7.2,6.3,10.4c1.6,2.4,5.1,4.1,8.1,4.8c4.3,1,8.6,3.2,13.3,2.5c0.9-0.1,1.9,0,3.5,0c-1.4,1.7-3.3,1.6-4.3,1.9
		c-1.5,0.5-2.9,1.4-4.5,1.5c-4.2,0.2-7.9,2.6-12.2,2.4c-1.1-0.1-2.2,1-3.6,1.8c2.1,3.4,4.9,6.2,8.1,8.3c3.3,2.3,6.9,4,11,5
		c5,1.2,10,3.5,14.2,7c0.6,0.5,1.5,0.8,3.4,1.7c-3.2-0.2-5.1,0.3-7.4-0.8c-2-1-4.8-0.5-7.3-0.2c-7,0.7-16.1-2.7-22.6-5.5
		c-0.5,0.7-0.5,1.4,0.2,1.9c6.2,4.6,9.6,11.5,13.9,17.5c6.1,8.6,13.8,14.7,24.2,17.1c-0.7,0.9-1.1,1.9-2.5,1.9
		c-2.8-0.1-5.9,0.6-8.5-0.2c-4.3-1.3-8.7-1.7-12.9-3.1c-3.5-1.1-7-2.5-10.4-3.8c-4-1.6-8.3-2.7-11.9-5.4c-0.6,1-0.9,1.9,0.4,2.2
		c2,0.5,3.2,2.1,4.2,3.5c2.1,3.1,4.8,5.7,7.3,8.4c0.3,0.3,0,1,0,1.6c-7.9-3.3-15.1-7.6-22.2-12.3c0.1,1.4,1.7,2,1.7,2.9
		c0.1,1.4,1,2,1.8,2.7c2.9,3,6,5.8,7.7,9.9c0.5,1.3,2.1,2.2,3.8,3.9c-1.5-0.2-2.2,0-2.5-0.3c-9.1-8.1-19.1-14.8-29.3-21.5
		c-3.5-2.3-6.7-5.3-9.6-8.4c-2.9-3.1-4.2-7.3-5.9-11.2c-2-4.5-3.7-9.1-5.4-13.7c-1.4-3.7-2.7-7.4-4.8-11c0,8.3,0,16.5,0,24.8
		c-1.9-0.2-0.5-2.3-2-2.4c-0.6-4.7-3.8-8-6.1-11.7c-4.7-7.7-9.6-15.3-13.1-23.6c-1.7-4-3.1-8.5-2.7-13.1c0.1-1.9,0-3.8,0-5.7
		c0.1-2.4-0.3-4.7,1-7c1-1.8-0.2-4.1,1-6.4c1.1-2.2-0.2-5.4,1.4-7.9c-0.8-4.5,0.9-8.8,1.4-13.2c0.5-4,1-8,0.8-12.1
		c0-1.3,2.2-2.1,0.9-3.4c-1.6-1.5,0.9-2.4,0.4-3.8c-0.4-1.2-0.2-2.6-0.1-4c0.5-5.4-1.2-10.5-2.5-15.5c-1.3-4.6-4-9-6.8-13.1
		c-2.8-3.9-6.7-7-10.8-9.6c-3.4-2.2-6.9-4.2-10.8-5.5c-1.2-0.4-2.1,0.1-4-0.9c8.3,9.5,10.9,19.1,7.2,30.3c-2-2.9-2.4-6.2-4-9.1
		c-2.9-5.1-6.1-9.6-11.1-13.1c-6.6-4.6-13.5-8.4-20.9-11.6c-7.5-3.2-14.6-7.2-21.2-12.1c-1.3-1-2.3-0.8-3.9-1.1c0,1.9,0,3.6,0,5.3
		c0.2,11.4-2.9,22-6.4,32.7c-3.4,10.4-7.7,20.4-12.9,30c-4.2,7.8-8.8,15.4-13.8,22.7c-1,1.5-1.4,3.5-3.6,4.5c3.6,2.2,6.2,5,8.6,8.2
		c1.9,2.6,3.6,5.5,5.2,8.2c3.7,6.4,7.7,12.5,12.7,18.1c5,5.5,10.5,10.2,16.6,14.4c3.9,2.6,7.8,5.5,11.2,8.8
		c6.1,5.8,10.5,12.7,12.1,21.2c1.1,5.7,2,11.4,2.3,17.3c0.3,5.5,2.1,10.8,3.9,16c1.6,4.6,3.7,9.1,5.7,13.6
		c2.4,5.5,5.6,10.6,8.8,15.7c1.2,2,2.2,4.1,3.4,6c3.2,5.2,6.8,10.1,10,15.2c1.5,2.3,3.7,3.9,5.2,6.4c2.3,4.1,1.6,8.2,1.5,12.3
		c-1.9,1.9-0.5,4.3-1.1,6.5c5.1,5.4,12.1,6.5,18.8,8.8c2.3-2.9,5.8-3.9,9-5.3c5.7-2.5,14.3,0.9,17.9,6.2c4.2,6,6.3,12.6,5.6,19.9
		c-0.4,4.6-2,9-3.8,13.2c-0.6-0.3-1.2-1-1.7-0.9c-6.1,0.2-11.9-1.6-17.8-2.6c-5.4-0.9-11-1.2-16.3-3c-2.3-0.8-5.1,0.2-7.5-1.3
		c-5.5,0.6-10.1-2.2-14.6-4.7c-4.9-2.8-9.4-6.4-13.2-10.6c-4.2-4.7-8.1-9.8-11.6-15.1c-7-10.6-13.1-21.8-18.2-33.5
		c-3.7-8.3-7.4-16.7-10.5-25.3c-1.7-4.5-4-9-6.8-13.1c-2.3-3.4-4.1-7.1-6.7-10.3c-2.1-2.7-3.7-5.8-6.5-8.4c-5.4,2.4-10.3,5.9-15.5,9
		c-2.9,1.7-5,4.5-7.6,6.4c-4.3,3.1-7.9,6.9-11.6,10.5c-2.3,2.3-3.8,5.1-5,8.2c-0.9,2.3-0.2,4.4-0.7,6.7c6.7,4.5,13.6,8.4,21.4,10.7
		c2.7,0.8,5.2,2.1,7.4,4.1c3.2,2.8,4.1,6.4,3.1,10c-1,3.5-2,7.1-3.2,10.6c-1.7,4.6-2.5,9.6-4.6,14.1c-1,2.2-2,4.3-4.1,5.6
		c-4.6-1.2-8.3-4.1-11.8-7.3c-4.6-4.2-9.4-8.3-14.4-12.1c-4.6-3.5-6.5-8.7-8.4-13.7c-1.8-4.8-3.8-9.5-5.7-14.2
		c-1.6-4.1-3.2-8.2-4.6-12.3c-1.4-4-3.3-7.8-4.9-11.7c-1.5-3.7,0.3-5.8,1.7-8.3c4.2-7.3,11.7-10.5,18.1-15.2
		c6.8-5,14.5-8.4,21.2-13.5c2.6-1.9,4.5-4.5,7.1-6.3c-1.3-1.4-2.5-2.5-4.2-3.4c-5-2.6-9.9-5.3-15.1-7.6c-5.3-2.4-10.9-4-16.4-5.8
		c-3.1-1-6.3-1.3-9.4-2c-3.1-0.8-6.3-1.6-9.1-2.8c-10.8-4.7-21.9-8.6-32.2-14.4c-9.3-5.2-18.2-10.7-25.1-18.9
		c-4.3-5.2-7.2-11.4-9.1-17.8c-1.3-4.1-1.9-8.4-2.4-12.7c-1.5-10.7-2.8-21.6-7.8-31.5c-1.3-2.5-3-4.5-4.6-6.6
		c-4.5-6.2-9.9-11.4-16.7-15c-4.7-2.5-9.6-4.8-15.2-4.6c-2.6-1.8-5.9-1.5-8.8-2.1c-3-0.6-6.1-1.2-9.1-1.5c-5-0.6-10-1.6-15-2.3
		c-2.5-0.3-5.1-0.4-7.5-1c-2.3-0.6-4.7-0.6-6.9-1.1c-6-1.5-12.1-2.6-17.8-5.2c-7.8-3.6-15.8-6.9-23.4-10.9
		c-8.8-4.7-17.3-9.7-25.6-15.2c-9.5-6.4-18.9-13-28.5-19.2c-2.8-1.8-6-3-9.2-3.9c-2.5-0.6-4.3-1.8-6-3.5c-1.9-2-4.3-2.7-7.1-2.3
		c-1.2,1.8-3.3,2.8-4.1,5.1c-0.4,1.1-1.8,2.1-3.2,2.9c-7.1,3.8-11.2,4.4-19.1,1.8c-2.6-0.9-5.4-0.4-7.8-1.8
		c-5.4,0.9-10.7-1.6-16-1.1c-2.1,0.2-3.6-1.6-5.8-1.3c-1.7,0.2-3.5,0.6-5.4-0.8c-1-0.7-2.9-0.3-4.4-0.2c-1.6,0.2-2.4-1.4-4.1-1.3
		c-5.5,0.4-10.6-2.7-16.1-2.2c-2.5-2.5-6.3,0.2-8.7-2.3c-3.2,0.7-6-1.8-9.2-1.1c-2.5-2.5-6.3,0.3-8.7-2.3c-3.2,0.8-6.2-0.7-9.2-1.3
		c-4.7-1-9.6-1.4-14.2-2.6c-1.4-0.4-3.3,0.1-4.7,1.3c-0.7,0.6-1.3,1.3-1.9,1.9c-1.1,5.8,1.4,10.7,3.2,15.8c1.7,5,4,9.8,5.8,14.7
		c1.2,3.1,2.8,6,4.1,9.1c2.3,5.3,4.5,10.7,7.3,15.8c2.8,4.9,4.7,10.5,9.1,14.5c1.7,1.5,2.4,3.6,2.2,5.9c-0.1,1.3,0,2.7,0,4
		c1.8,2,3.5,3.9,6.5,4.7c1.6,0.4,2.2-0.3,3.2-0.4c3-0.4,6-0.1,9-0.1c1.1,1.1,2.2,2.2,3.3,3.3c2.9,1.1,5.2-1.9,8.8-0.6
		c0.8,0.8,1.9,2.3,3.4,3.5c2.4,2.1,3.4,4.8,3.4,7.7c0,2.6,0.7,5,1.2,7.5c0.4,2.3,0,4.6,1,7c0.9,2.1,0.3,4.9,0.1,7.3
		c-0.3,4.3-4.2,6.6-8,4.5c-4.8-2.6-9.8-5.2-14.1-8.5c-3.7-2.9-8-4.9-11.7-7.7c-2.1-1.6-4.5-3-6.5-4.8c-5.6-5-11.9-9.1-17.6-14
		c-1-0.9-2.4-1.4-3.8-1.9c-5.2-1.7-7.1-6.2-7.6-10.7c-1.1-9.1-4.1-17.6-6.7-26.3c-2.5-8.3-5.4-16.4-8.8-24.3
		c-3.2-7.6-6.9-15.2-12.3-21.7c-3.5-4.2-5.7-9.2-5.3-14.8c0.2-2.7,1.2-5.3,1.1-8.1c-0.1-2.5,0.4-5,0.9-7.5c0.9-4.6,3.6-7.4,7.3-9.6
		c3.4-2.1,7.4-3.2,11.1-3.2c5.8,0,11.4-1.5,17.2-1.4c5.7,0.2,11.4,0.2,17.1,0c7.2-0.3,14.4-1.6,21.7-1.1c4.7-1.9,9.7-0.3,14.3-1.3
		c5.7-1.2,11.4-0.7,17-1c0.4-1.2,0.4-1.6-0.7-2.3c-2.9-1.9-5.7-4-8.2-6.4c-4.4-4.2-9-8.2-12.8-12.9c-4.9-6.1-10.3-11.9-15.2-18.1
		c-3.5-4.4-7.1-8.9-10.6-13.4c-3.9-4.9-7.3-10.3-9.4-16.5c-2-5.7-6.1-10.6-12.3-13c-0.7-0.3-1.4-0.4-2.1-0.5
		c-9.6-0.5-18.8,0.9-27.5,5.1c-3,1.4-6.3,2.2-9.4,3.5c-2.6,1.1-5.2,2.2-7.7,3.3c-2.6,1.1-5.6,1.5-7.4,4c-4.5,0.4-7.3,4.1-11.3,5.8
		c-1.6,0.7-2.6,2.6-4.2,4.3c-0.7,4.8-0.8,4.9-9.1,8.7c0.5,2.8,2.5,5.1,2.4,8.1c2,1.2,4.2,1.8,5.9,3.6c3.6,3.9,7.5,7.5,11.2,11.3
		c3.5,3.6,4.2,5.7,2,10.1c-2.7,5.2-6,10.1-9.2,15c-1.8,2.7-3.7,5.4-5.7,7.8c-1.6,1.8-3.7,4.1-7.2,4c-0.9-1.3-2.1-2.8-3.8-5.1
		c0.3-4.4-1.8-9.5-4.4-14.5c-2.3-4.4-3.8-9.2-7.1-13c-1.7-1.9-0.6-5-2.3-7c0.2-5.3-2.2-10.2-2.4-15.6c-0.2-4-1.9-7.9-2.6-12
		c-1-5.2-1.7-10.4,1.5-15.4c2.5-3.9,4.3-5.3,8.7-7.6c6.1-3.2,12.5-5.6,18.8-8.3c7.1-3,14.1-6.3,21.3-9.1c4.4-1.7,8.6-4,13-5.8
		c10.5-4.4,20.5-10,31.5-13.3c2.7-0.8,5.4-2.2,8.3-1.9c2,0.2,3.2-1.8,5.2-1.3c1.6,0.4,3.4,0.1,5.1,0.1c3.2,0,8.1,1.7,11.8,3.2
		c2.7,1.1,4.6,3,5.8,5c2.2,3.7,5.4,6.2,8.3,9s5.4,6.1,9,8.3c2.9,1.7,5.2,4.6,8,6.8c9.4,7.2,18.5,14.8,28,22c2.3,1.7,5.1,2.7,7.1,4.9
		c1.9-3.1,1.7-6.8,2.7-10.2c2.1-6.7,5.4-12.7,9-18.5c0.9-1.4,1.6-2.9,2.5-4.3c1.7-1.9,3.4-3.7,5-5.6c2.5-3,2.2-4.5,0.2-8.2
		c-1.6-2.9-4.5-4.5-6.1-7.2c-3.7-6-7.9-11.8-10.1-19.9c-0.2,1.8-0.3,2.3-0.3,2.8c0.1,5.2,0,10.3,0.9,15.5c0.7,4.1,1.3,8,3.4,11.7
		C202.1,550.7,203.3,552,202.8,553.6z M389.6,490.4c-9.2,3.1-16.5,8.7-25.1,11.1c0,2.4-0.8,5,0.2,6.4c2.1,3.2-0.6,7.1,2.1,10
		c0,3.8,0,7.6,0,11.4c0,0.4-0.1,0.8,0,1.1c0.8,3,1,6.1,3.2,9c2.9,3.8,5.5,7.7,9,11c1.5,1.4,2,4,5,4.1c-1-4,1.5-7.6,1-11.5
		c2.3-4.2,2.3-9,3.2-13.4c1.1-5.3,0.6-11,1.2-16.6C390.2,505.9,389.6,498.6,389.6,490.4z M187.6,486.1c0.6,5.3,3,8.7,5.7,11.7
		c4.4,4.9,6,10.5,6.1,16.8c0,1.4,0.5,2.8,0.8,4.2c1.5,5.9,4.4,11.2,7.6,16.2c2.4,3.7,4.2,8,8.7,10.8c0-4,0-7.7,0-11.5
		c0-3.6,0-7.2,0-10.8c-2.8-3,0.6-7.4-2.3-10.4c0.8-3.6-1-6.8-1.2-10.3c-0.3-3.5-1.4-7-2.2-10.4c-0.8-3.5-1.7-6.9-2.2-10.4
		c-0.5-3.4-2-6.4-2.5-9.8c-0.5-3.3-1.9-6.5-3.2-10.5C197.3,470.5,192.2,478.8,187.6,486.1z M508.5,453.3c-2.2,0.3-1.6,2.1-2.6,2.9
		c-3.8,3.4-7.3,7.1-10.9,10.8c-1.3,1.3-2.9,1.8-4.7,2.4c-3.4,1.1-6.8,2.3-8.9,6.1c3.8,2.4,7.5,4.7,11.5,6.5c5,2.3,9.5,0.8,13.2-1.5
		c5.6-3.5,11.1-7.4,17.3-11.2C516.8,465.2,511.8,460.1,508.5,453.3z M565.2,655.9c-3.6-4-6.7-7.7-8.7-12.2c-1.7-4-4.6-7.5-5.2-12
		c-2.9-2.4-3.9-6-6.3-8.9c-2.7-3.1-5.8-6-7.9-9.7c-0.9-1.6-2.3-3.4-4.6-3.7c-0.4,3.8-0.5,3.9,0.7,5.8c2.8,4.6,5.7,9,8.4,13.6
		c1.5,2.4,2.8,4.9,4,7.4c0.3,0.6,0.4,1.8,0.1,2.2c-1.8,1.5-1,3.5-1,5.3c-0.1,4.8,1.4,6.5,6.2,8c2.5,0.8,5,1.7,7.4,2.7
		C560.2,655.1,562.2,656.7,565.2,655.9z M363.9,498.1c0.6-1,1.3-1.2,2.2-1.5c4.2-1.3,8.4-2.5,12.3-4.4c1.2-0.6,1.1-1.2,0.6-2.3
		c-2.7,0-5.5,0-8.3,0c-2.8,0-5.4-2.6-8.2-0.7C361.6,492.3,363.2,494.9,363.9,498.1z M195.3,514.1c0.7-0.8,1.7-1.7,1.6-1.9
		c-1.8-2.7-0.6-6.2-2.6-9c-1.6-2.2-3.1-4.6-4.2-7.2c-0.4-0.9-1.6-0.7-2.2,0.7C191.8,501.6,194.1,507.4,195.3,514.1z"/>
	<path fill-rule="evenodd" clip-rule="evenodd" fill="none" d="M202.8,553.6c0.5-1.6-0.7-2.9-1.3-4c-2.1-3.7-2.7-7.6-3.4-11.7
		c-0.9-5.2-0.8-10.3-0.9-15.5c0-0.5,0.1-1.1,0.3-2.8c2.2,8.1,6.4,13.9,10.1,19.9c1.6,2.6,4.5,4.3,6.1,7.2c2,3.7,2.3,5.2-0.2,8.2
		c-1.6,1.9-3.3,3.7-5,5.6c-0.3-2-2.5-1.9-3.4-3.1C204.2,556.3,204.5,554.3,202.8,553.6z"/>
	<path fill-rule="evenodd" clip-rule="evenodd" fill="none" d="M389.6,490.4c0,8.2,0.6,15.5-0.2,22.6c-0.6,5.6-0.1,11.2-1.2,16.6
		c-0.9,4.5-0.9,9.3-3.2,13.4c0.5,3.9-2,7.5-1,11.5c-3,0-3.5-2.6-5-4.1c-3.5-3.3-6.2-7.2-9-11c-2.2-2.9-2.3-5.9-3.2-9
		c-0.1-0.4,0-0.8,0-1.1c0-3.8,0-7.6,0-11.4c-2.7-2.8,0-6.8-2.1-10c-1-1.5-0.2-4.1-0.2-6.4C373.1,499.1,380.4,493.5,389.6,490.4z"/>
	<path fill-rule="evenodd" clip-rule="evenodd" fill="none" d="M187.6,486.1c4.6-7.3,9.7-15.6,15.3-24.5c1.3,4,2.7,7.1,3.2,10.5
		c0.5,3.4,2,6.5,2.5,9.8c0.5,3.5,1.5,7,2.2,10.4c0.8,3.5,1.9,6.9,2.2,10.4c0.3,3.5,2,6.8,1.2,10.3c2.8,3-0.6,7.4,2.3,10.4
		c0,3.6,0,7.2,0,10.8c0,3.7,0,7.5,0,11.5c-4.4-2.8-6.3-7.1-8.7-10.8c-3.2-5-6.1-10.2-7.6-16.2c-0.3-1.4-0.8-2.8-0.8-4.2
		c-0.1-6.3-1.7-11.9-6.1-16.8C190.6,494.8,188.1,491.4,187.6,486.1z"/>
	<path fill-rule="evenodd" clip-rule="evenodd" fill="none" d="M508.5,453.3c3.3,6.8,8.2,11.9,15,16c-6.2,3.8-11.6,7.7-17.3,11.2
		c-3.7,2.3-8.3,3.8-13.2,1.5c-4-1.9-7.7-4.1-11.5-6.5c2.1-3.8,5.5-5,8.9-6.1c1.7-0.6,3.4-1.1,4.7-2.4c3.6-3.6,7.1-7.3,10.9-10.8
		C506.9,455.4,506.3,453.6,508.5,453.3z"/>
	<path fill-rule="evenodd" clip-rule="evenodd" fill="none" d="M565.2,655.9c-3,0.9-5-0.8-7-1.6c-2.4-1-4.9-1.9-7.4-2.7
		c-4.8-1.6-6.3-3.2-6.2-8c0-1.8-0.7-3.7,1-5.3c0.4-0.3,0.2-1.5-0.1-2.2c-1.2-2.5-2.5-5-4-7.4c-2.7-4.6-5.6-9-8.4-13.6
		c-1.2-1.9-1.1-2-0.7-5.8c2.3,0.3,3.8,2.1,4.6,3.7c2.1,3.7,5.3,6.6,7.9,9.7c2.4,2.8,3.4,6.5,6.3,8.9c0.6,4.5,3.5,8,5.2,12
		C558.5,648.2,561.6,651.9,565.2,655.9z"/>
	<path fill-rule="evenodd" clip-rule="evenodd" fill="none" d="M363.9,498.1c-0.7-3.2-2.3-5.8-1.5-8.9c2.8-1.9,5.4,0.7,8.2,0.7
		c2.8,0,5.6,0,8.3,0c0.5,1.1,0.6,1.7-0.6,2.3c-3.9,2-8.1,3.2-12.3,4.4C365.2,496.9,364.5,497.1,363.9,498.1z"/>
	<path fill-rule="evenodd" clip-rule="evenodd" fill="none" d="M195.3,514.1c-1.1-6.7-3.5-12.5-7.4-17.4c0.6-1.5,1.8-1.7,2.2-0.7
		c1.1,2.6,2.7,5,4.2,7.2c2,2.9,0.8,6.3,2.6,9C197,512.4,196,513.3,195.3,514.1z"/>
</g>
</svg>
