<?xml version="1.0" encoding="utf-8"?>

<!DOCTYPE svg PUBLIC "-//W3C//DTD SVG 1.1//EN" "http://www.w3.org/Graphics/SVG/1.1/DTD/svg11.dtd">
<svg version="1.1" id="Layer_1" xmlns="http://www.w3.org/2000/svg" xmlns:xlink="http://www.w3.org/1999/xlink"
    viewBox="0 0 1450.9 1766.5" xml:space="preserve">
    <g>
        <g>
            <path fill-rule="evenodd" clip-rule="evenodd" fill="none" d="M6.1,1768.1c-2.5-0.1-5.9,1-4.6-3.8c0.3-1,0-2,0-3.1
			c0-586.5,0-1173.1,0-1759.6c484.1,0,968.3,0,1452.4,0c0,588.8,0,1177.7,0,1766.5c-270.2,0-540.3,0-810.5,0
			c13.5-16.8,28.8-31.7,46.9-43.5c6.9-4.5,14.1-8.7,22.3-9.6c16.5-1.9,31.5-8.2,46.7-14.1c76.7-29.9,152-63.2,227.5-96.2
			c16.3-7.1,33.1-13.2,48.5-22.2c1.1-0.1,2.3-0.3,4.2-0.6c-2.2-0.8-3.2-0.1-4.1,0.7c-2.7,0.8-5.4,1.5-8,2.5
			c-57.6,22.2-115.4,43.9-173.7,64.1c-61.9,21.5-124.1,42.4-188,57.3c-22.1,5.2-44.4,9.8-67.4,8.4c-27.9-1.7-46.7-16.8-54.3-43.7
			c-3.9-13.9-4.7-28.1-4.5-42.5c0.4-33.3,7.7-65.9,10.7-98.9c1.8-19.8,1.2-39.8,3.6-59.6c3.4-27,13.7-39.5,39.9-45.5
			c29.3-6.8,58.9-12.6,88.3-19c52.6-11.5,104.9-24,155.1-44.2c15.2-6.1,30.1-12.8,45.2-23.4c-15.4,4.7-28.7,9.2-42.2,12.6
			c-20.1,5.1-40.4,10-61.2,4.6c-15.2-3.9-30.6-5.6-46.1-6.7c-27.5-2-55.1-2.1-82.2-7.8c-20.5-4.3-39.7-11.7-55.7-25.6
			c-11.9-10.3-11.5-22,0.2-32.7c7.7-7,16.7-11.7,26-16c21.7-9.9,44.5-16.3,67.4-22.5c2.9-0.8,6-1,7.4-4.6
			c6-15.6,14.6-29.5,29.2-40.8c-2.5,0-3.2-0.1-3.9,0c-37.9,7.2-76,12.6-114.3,17.3c-82.9,10.1-165.8,14-248.5-2.2
			c-24.5-4.8-49.4-8.4-72.1-19.6c-13.8-6.8-23.3-17-25.1-33.1c-2.9-25.2,8.7-42.9,29.1-55.5c23.6-14.5,49.3-14.8,75.5-8.5
			c2.7,0.7,5.5,3,8.7,0.8c0-4.8-1.8-9-4.1-13c-7.2-12.8-18.8-19.7-32.3-24.2c-15-5-30.5-8.4-44.8-15.5c-15.8-7.8-16.4-19.3-1.6-29.3
			c4-2.7,8.3-5,12.8-6.9c24.3-10.3,49.3-10.1,74.3-3.9c38.8,9.7,70.2,32,99,58.7c2,1.8,3.3,4.7,6.6,4.8c0,0,0.1,0.5,0.1,0.5
			l-0.1-0.3c-4.7-7.6-9.2-15.3-14.1-22.8c-30.2-45.7-71.6-78.4-120-103.1c-11.8-6-22.8-6.8-34.2,2c-8,6.1-17.6,10.4-27.8,12.3
			c-8.6,1.6-13.4-2.9-12.2-11.5c1.5-11.2,6.8-20.2,16.1-26.7c7.2-5,15.3-8.1,23.5-10.9c24.6-8.5,49.1-17.4,74-24.9
			c11.2-3.4,18.3-9.9,24-19.4c2.2-3.7,1.7-5.8-1.4-8.3c-9.1-7-17.8-14.5-27.1-21.3c-25.6-18.8-52.1-36-82.9-45.1
			c-15.2-4.5-30.5-6.4-45.7,0.6c-2.4,1.1-4.9,0.9-7.5,0.3c-18.7-4.3-31.7-14.8-36.5-34c-6.2-24.8-6.7-50-3.6-75.3
			c1-8,2.1-16,6.5-23.8c3,1.6,5.5,2.7,7.9,4.2c19.1,11.4,38.5,22.2,57,34.4c8.6,5.7,15.1,4.5,22.1-1c6.6-5.2,12.4-11.6,19.4-16
			c22.5-14.2,46.3-25.9,71.4-34.7c11.7-4.1,18.4-0.7,22.2,11.3c2.8,9.1,3.7,18.5,3.5,28c-0.3,15.4,2.7,29.9,9.5,43.7
			c4.6,9.3,6.5,19.1,6.5,29.6c0.2,27.8,0.5,55.7,3.7,83.4c1.2,10.1,2.1,20.4,6.4,29.8c4.4,9.5,13.3,11.3,21.3,4.6
			c4.8-4,8.3-9.1,10.7-14.8c5.7-13.6,14.3-25.2,24.5-35.7c11.4-11.7,22.5-23.7,34.1-35.2c29.2-29.1,62.4-52.6,99.9-69.7
			c28.2-12.9,58.7-17.1,88.7-22.9c13.4-2.6,26.3-6.1,38-13.4c5-3.1,10.8-4.6,16.6-5.7c28.4-5.3,57-4.6,85.5-2.4
			c72.6,5.6,142,25.1,210.6,48.2c5.5,1.8,9.9,1.8,15.3-0.6c29.1-13.4,59.3-16.9,90.3-8c36,10.4,60.5,32.3,66.5,70.9
			c2.9,18.4,1.3,36.8-3.6,54.6c-14.5,52.9-42,98.2-80.9,136.7c-5.4,5.4-11.5,10.1-15.4,16.9c-9.7,16.7-22.3,30.9-36.8,43.7
			c-36.1,31.5-92.5,39.2-124.7,2.9c2,21,2.8,41.3,1.8,61.7c-1.9,36.4-7.3,71.7-31,101.5c-0.3,0.4,0,1.3,0,3
			c85.2-18.8,140.5-70.5,170.4-152c2.9,4.8,2.5,8.2,2.5,11.4c0.1,22.5,0.3,44.9,0.1,67.4c-0.2,16.6-1,33.2-3,49.7
			c-0.8,7-3.6,11.3-10.4,14.4c-12.5,5.7-24.8,12-36.7,19c-31.1,18.2-62.4,35.9-79.4,70.4c-5.5,11.1-16.4,18.2-25.6,26.5
			c10.3-4.8,19.6-10.9,28.7-17.4c12.6-9,21.6-21.6,32.6-32.3c23.5-23,52.8-37.3,81.4-52.4c1-0.5,2.4-0.3,4.5-0.6
			c2,9.9,4,19.6,6.1,29.2c0.5,2.5,0.5,5.4,3.4,6.4c13.8,5,25.8,13.1,36.8,23.4c1.4-2.4,2.6-4.1,3.5-5.8
			c24.1-47.9,47.8-95.9,69.4-145c8.6-19.6,18.2-38.9,21.3-60.4c2-13.4,5.3-26.6,10.1-39.2c13.2-34.6,25.4-69.5,35.2-105.2
			c13.8-50.3,24.9-101.1,28.5-153.3c4.4-63.6,2.2-127.1-4.9-190.4c-2.7-24.6-7.9-48.1-22.9-68.8c-13.3-18.2-27.2-35.8-43.7-51.2
			c-67.7-63.2-149-101.4-237.1-125.6c-53.5-14.7-108.6-21.7-163.7-27.8c-99-10.9-196.1,1-291.9,26.8c-12.8,3.4-24.4,8.9-35.2,17.7
			c-18.7,15.3-40.2,27.4-64.5,29.9c-18.4,1.9-32.2,10.3-45.4,21.4c-15.3,12.8-29,27.3-43.3,41.1c-2.4,2.4-4.5,5.7-9.5,5.2
			c-4.3-12-5-24.6-5.2-37.4c-0.1-6.9-0.2-13.7,3.2-20.2c18.1-34.4,37.9-67.7,62.7-97.8c29.1-35.5,62.7-65.7,104.5-85.8
			c17.8-8.5,36.4-14.5,56.1-18.2c-1.8-2.5-4-2.1-5.9-2.4c-42.8-7.1-85.9-8.3-129-4.3c-47.4,4.3-93,15.6-136.4,35.6
			c-5.8,2.7-7.7,5.9-7.3,12.2c0.9,13.7,1.1,27.5,1.4,41.3c1.3,50.5,3,101.1,2.5,151.6c-0.1,9.9-1.8,18.9-7.3,27.5
			c-7,11-12.1,23.1-14.4,36.1c-2.4,13.2-4.3,26.4,6.3,37.6c1.8,1.9,2.9,5,3.3,7.6c2.4,14.2,3.2,28.4,0.7,42.7
			c-2.2,12.3-4.3,14.5-16.9,15.6c-40.3,3.4-74.9,18.8-102.7,48.6c-6.4,6.8-6.9,9.9-0.8,17c4.4,5.2,6.4,11,6.8,17.4
			c0.5,6.9,0.9,13.8,1.1,20.6c0.5,23.2-0.8,46.5,2.5,69.6c4,28.1,18.5,41.2,46.7,43.1c2.7,0.2,5.8-0.7,7.7,2.7
			c-3.8,10.4-4.6,21.4-2.3,32.2c2.4,11,1.9,21.8-0.3,32.6c-6.7,33.5-14.3,66.9-17.5,101c-5,52.3-3.4,104.6,0,156.8
			c2.2,33.8,8.2,67.2,6.8,101.4c-0.8,21.2,9.3,38.9,27.5,51c11,7.3,23.2,11.7,36,14.6c7,1.6,12.7,4.9,17.7,9.9
			c20.6,20.9,41,42,62,62.6c19.8,19.5,38.9,39.9,63.4,53.8c3.5,2,4.1,4.7,4.1,8.2c0.2,15.8,0.4,31.7,0.9,47.5
			c1.4,39.3,1.7,78.7,8.1,117.6c1.2,7.2-0.4,9.5-7.6,10.1c-16.6,1.4-32.8,4.7-48.5,10.6c-9.1,3.5-18.4,7.4-23.2,16.6
			c-11.2,21.6-29.2,35.7-50.4,46.3c-24.4,12.2-50.7,18.7-77.1,24.6c-63.3,14.1-126.7,27.4-188.5,47.4
			C44.6,1750.5,24.4,1757.1,6.1,1768.1z M1046.7,1578.6c0.2-0.2,0.4-0.5,0.6-0.7c0.2,0.3,0.3,0.7,0.5,1c-0.3-0.2-0.6-0.3-1-0.5
			c-0.3,0-0.6,0-0.9,0c0-0.2,0.1-0.4,0.1-0.5C1046.2,1578.1,1046.5,1578.4,1046.7,1578.6z M1285.2,1511.1l-0.3-0.3l0.1,0.2
			c20.2,21.4,54.1,33.4,67.1,29.9c-18.1-8.4-35.7-16.8-53.6-24.8C1294.3,1514.1,1290.4,1510.8,1285.2,1511.1z M1134.8,216.4
			c0.3,0,0.6,0,0.7,0c-0.1,0-0.5,0.1-0.9,0.1c-2.2-2.8-5.4-3.7-8.5-4.7c-15-5.2-30.4-8.5-46.1-10.6c-47.9-6.5-96.1-5.9-144.2-5.8
			c-30.3,0.1-60.7,1.1-90.9-1.9c-19.5-2-39-4.5-56.9-13.1l-0.3,0.1l0.4,0.1c2.5,3.6,6.5,4.7,10.3,6.3c29.1,11.8,59.7,15.2,90.6,15.9
			c46.9,1.1,93.8,0.8,140.7,1.6C1065,204.7,1100.4,206.1,1134.8,216.4z M1135.2,930.2c13.8-10.8,21.8-24,25.5-39.8
			c2.8-11.6,3.2-23.3-1.8-34.6c-3.7-8.4-10.1-14.6-17.2-20.1c-13.9-10.5-14.5-14.6-3.9-28.7c4.3-5.7,8.8-11.3,13-17
			c10.7-14.7,27.4-17.2,42.1-6.3c8.6,6.4,14.7,14.8,19.2,24.4c2.9,6.2,5.5,12.6,8.6,19.8c3.3-15.4,0.9-41.8-4.6-56.8
			c-3-8-6.6-15.5-12.5-21.7c-23.2-24.7-63.3-23-86.6,4.9c-29.3,35.1-37.3,76.8-33.7,121.4c0.2,3.1,1.5,5.2,4.4,6.5
			C1109,892.2,1127.5,905.1,1135.2,930.2z M578.4,161.6c-13.1-9.9-26.9-18.3-41.3-25.9c-51.3-27-105.3-43.7-164-42.7
			c-19.1,0.3-30.1,9.5-32.9,28.2c-3,20.6,2.8,39.9,8.7,59.2c1.3,4.2,3.8,3.8,7.1,2.9c10-2.9,20-5.9,30.2-8.5
			c50.4-12.5,101.4-20.7,153.6-17.7C552.8,157.9,565.4,160.3,578.4,161.6z M1449.8,1597.7c-4-0.6-5.7-0.9-7.5-1.1
			c-35.8-4-71.4-8.9-105.6-21.3c-15.4-5.6-28.6-14-39.1-27c-9.9-12.3-21.3-23.4-34.3-32.6c-20.6-14.5-33.5-9.3-38.8,15.4
			c-2,9.1,0.8,16,8.5,21.1c5.1,3.4,10.6,6.2,16.4,8.2c39.2,13.6,76.9,30.4,111,54.4c2.3,1.7,5.1,2.2,7.9,2.6c19,2.8,38.1,3,57.3,3.7
			c2.3,0.1,4.7,0.3,6.4-1.7C1437.6,1612.8,1443.2,1605.9,1449.8,1597.7z M744.8,139.6c16.8,0.4,23.3-0.5,30.3-3.5
			c9.3-4,11.6-11.1,6.4-19.7c-3.2-5.3-7.7-9.6-12.8-13c-30-20.4-63.1-30.5-99.5-29.2c-5.9,0.2-11.7,1.4-16.9,4.5
			c-6.9,4.2-8.6,9.7-4.9,16.9c3.6,7,9.4,12,15.8,16.3C689.4,129.2,718.4,137.8,744.8,139.6z M1012.6,942.4
			c15.9-24.3,27.3-28.4,55.2-20.8c11.6,3.2,22.9,7.1,34.1,11.4c3.6,1.4,7.3,3.9,12,1.7c-0.1-7.2-6.2-8.4-10.7-10.1
			c-20.3-8-29.2-23.2-29.7-44.5c-0.5-21,0.6-41.8,2.7-62.6c1.3-12.1,2.7-24.2,4-36.4c-4.4-0.3-6.8,2.1-9.2,4.3
			c-7.2,6.6-11.4,14.9-13.3,24.4c-3.1,15.9-1.3,31.6,3.1,46.9c3.1,10.8,0.3,19-8.1,25.8c-3.4,2.7-6.9,5.3-10.5,7.7
			c-8.6,5.9-18.1,10.5-25.6,17.9C1006.4,917.9,1004.9,929.8,1012.6,942.4z M542.3,4c-33.1-1.5-65.9-0.2-98.2,7.1
			c-22.8,5.2-44.7,12.7-62.9,28.1c-10.9,9.3-19.4,20.3-23.4,36C410.3,24.8,475.2,11.5,542.3,4z M1317.7,1504.2
			c-3.4,0.1-6.7-0.5-8,2.6c-1.3,3.1,1.1,5.2,3.2,7c9.1,7.9,19.5,12.7,31.6,13.6c2.3,0.2,4.8,0.2,6.1-2.1c1.5-2.8-0.5-4.9-2.3-6.6
			C1339.4,1510.4,1328.9,1505.9,1317.7,1504.2z M1168,935.9c-11.3,4.5-21.5,10.6-30.8,17.9c-3.4,2.7-10.5,5.4-7.3,10.6
			c2.8,4.5,9.6,2.1,14.1,0C1156.3,958.9,1163.1,948.2,1168,935.9z" />
            <path fill-rule="evenodd" clip-rule="evenodd" d="M484.2,1068.7c-3.3,0-4.6-2.9-6.6-4.7c-28.7-26.7-60.2-49-99-58.7
			c-25.1-6.3-50.1-6.4-74.3,3.9c-4.4,1.9-8.8,4.2-12.8,6.9c-14.8,10-14.2,21.4,1.6,29.3c14.3,7,29.8,10.5,44.8,15.5
			c13.5,4.5,25.1,11.4,32.3,24.2c2.2,4,4.1,8.2,4.1,13c-3.2,2.2-6-0.1-8.7-0.8c-26.2-6.3-51.8-6-75.5,8.5
			c-20.4,12.5-32,30.3-29.1,55.5c1.8,16.2,11.3,26.3,25.1,33.1c22.7,11.2,47.6,14.8,72.1,19.6c82.7,16.2,165.6,12.3,248.5,2.2
			c38.3-4.7,76.4-10.1,114.3-17.3c0.7-0.1,1.5,0,3.9,0c-14.6,11.3-23.2,25.2-29.2,40.8c-1.4,3.6-4.5,3.8-7.4,4.6
			c-22.9,6.2-45.8,12.6-67.4,22.5c-9.3,4.3-18.3,9-26,16c-11.7,10.6-12,22.4-0.2,32.7c16,13.9,35.2,21.3,55.7,25.6
			c27.1,5.7,54.8,5.8,82.2,7.8c15.5,1.1,30.9,2.8,46.1,6.7c20.7,5.4,41.1,0.5,61.2-4.6c13.6-3.4,26.8-8,42.2-12.6
			c-15.1,10.6-30.1,17.2-45.2,23.4c-50.1,20.2-102.5,32.7-155.1,44.2c-29.4,6.5-58.9,12.2-88.3,19c-26.2,6-36.5,18.6-39.9,45.5
			c-2.5,19.8-1.8,39.8-3.6,59.6c-3,33-10.3,65.6-10.7,98.9c-0.2,14.3,0.5,28.6,4.5,42.5c7.6,26.8,26.4,42,54.3,43.7
			c23,1.4,45.3-3.2,67.4-8.4c63.9-14.9,126.1-35.8,188-57.3c58.3-20.2,116.1-42,173.7-64.1c2.6-1,5.3-1.7,8-2.5l-0.1-0.1
			c-15.5,9-32.2,15.1-48.5,22.2c-75.4,33-150.8,66.2-227.5,96.2c-15.2,5.9-30.2,12.3-46.7,14.1c-8.2,0.9-15.4,5.1-22.3,9.6
			c-18.1,11.8-33.4,26.6-46.9,43.5c-212.5,0-424.9,0-637.4,0c18.3-10.9,38.5-17.5,58.6-24c61.8-20,125.2-33.3,188.5-47.4
			c26.4-5.9,52.7-12.4,77.1-24.6c21.2-10.6,39.2-24.6,50.4-46.3c4.8-9.1,14-13.1,23.2-16.6c15.6-5.9,31.9-9.2,48.5-10.6
			c7.1-0.6,8.7-2.9,7.6-10.1c-6.4-38.9-6.8-78.3-8.1-117.6c-0.5-15.8-0.7-31.7-0.9-47.5c0-3.5-0.6-6.2-4.1-8.2
			c-24.6-13.9-43.6-34.3-63.4-53.8c-20.9-20.6-41.4-41.6-62-62.6c-5-5-10.7-8.4-17.7-9.9c-12.7-2.9-25-7.3-36-14.6
			c-18.3-12.1-28.4-29.8-27.5-51c1.3-34.2-4.6-67.6-6.8-101.4c-3.4-52.2-5-104.5,0-156.8c3.3-34.1,10.8-67.5,17.5-101
			c2.2-10.9,2.6-21.6,0.3-32.6c-2.3-10.8-1.5-21.8,2.3-32.2c-2-3.4-5.1-2.5-7.7-2.7c-28.3-2-42.8-15.1-46.7-43.1
			c-3.3-23.1-2-46.4-2.5-69.6c-0.1-6.9-0.5-13.8-1.1-20.6c-0.5-6.5-2.4-12.2-6.8-17.4c-6.1-7.1-5.6-10.2,0.8-17
			c27.9-29.7,62.4-45.2,102.7-48.6c12.6-1.1,14.7-3.2,16.9-15.6c2.5-14.2,1.7-28.5-0.7-42.7c-0.4-2.7-1.5-5.7-3.3-7.6
			c-10.5-11.2-8.6-24.5-6.3-37.6c2.3-12.9,7.3-25.1,14.4-36.1c5.5-8.6,7.2-17.7,7.3-27.5c0.5-50.6-1.2-101.1-2.5-151.6
			c-0.3-13.8-0.5-27.6-1.4-41.3c-0.4-6.3,1.5-9.5,7.3-12.2c43.4-20,89-31.3,136.4-35.6c43.1-3.9,86.2-2.7,129,4.3
			c1.9,0.3,4.1-0.1,5.9,2.4c-19.7,3.7-38.3,9.6-56.1,18.2c-41.8,20.1-75.3,50.3-104.5,85.8c-24.7,30.1-44.5,63.4-62.7,97.8
			c-3.4,6.4-3.3,13.3-3.2,20.2c0.1,12.7,0.8,25.4,5.2,37.4c5,0.5,7.1-2.8,9.5-5.2c14.3-13.9,28-28.3,43.3-41.1
			c13.2-11.1,27-19.5,45.4-21.4c24.3-2.5,45.8-14.6,64.5-29.9c10.7-8.8,22.3-14.2,35.2-17.7c95.7-25.8,192.9-37.7,291.9-26.8
			c55,6,110.2,13.1,163.7,27.8c88.1,24.2,169.4,62.5,237.1,125.6c16.5,15.4,30.4,33,43.7,51.2c15.1,20.6,20.2,44.2,22.9,68.8
			c7.1,63.3,9.3,126.8,4.9,190.4c-3.6,52.2-14.6,103-28.5,153.3c-9.8,35.7-22,70.6-35.2,105.2c-4.8,12.7-8.1,25.8-10.1,39.2
			c-3.1,21.6-12.7,40.9-21.3,60.4c-21.6,49-45.3,97.1-69.4,145c-0.9,1.8-2,3.4-3.5,5.8c-11.1-10.3-23-18.4-36.8-23.4
			c-2.9-1-2.8-4-3.4-6.4c-2-9.7-4-19.4-6.1-29.2c-2.1,0.2-3.5,0-4.5,0.6c-28.6,15.1-57.9,29.4-81.4,52.4
			c-10.9,10.7-19.9,23.3-32.6,32.3c-9.1,6.5-18.5,12.6-28.7,17.4c9.2-8.3,20.1-15.4,25.6-26.5c17-34.5,48.3-52.2,79.4-70.4
			c11.9-7,24.2-13.3,36.7-19c6.7-3.1,9.6-7.4,10.4-14.4c2-16.5,2.8-33.1,3-49.7c0.3-22.5,0-44.9-0.1-67.4c0-3.2,0.4-6.6-2.5-11.4
			c-29.9,81.6-85.2,133.3-170.4,152c0-1.7-0.3-2.6,0-3c23.7-29.7,29-65.1,31-101.5c1.1-20.4,0.3-40.7-1.8-61.7
			c32.2,36.3,88.6,28.6,124.7-2.9c14.6-12.7,27.2-26.9,36.8-43.7c3.9-6.8,10-11.5,15.4-16.9c38.9-38.5,66.4-83.8,80.9-136.7
			c4.9-17.9,6.5-36.3,3.6-54.6c-6-38.6-30.5-60.5-66.5-70.9c-31-9-61.2-5.4-90.3,8c-5.3,2.5-9.8,2.5-15.3,0.6
			c-68.6-23.1-138.1-42.6-210.6-48.2c-28.5-2.2-57.1-2.9-85.5,2.4c-5.8,1.1-11.6,2.5-16.6,5.7c-11.7,7.3-24.6,10.9-38,13.4
			c-30,5.8-60.5,10-88.7,22.9c-37.5,17.1-70.7,40.6-99.9,69.7c-11.6,11.5-22.7,23.5-34.1,35.2c-10.3,10.5-18.8,22.1-24.5,35.7
			c-2.4,5.6-5.9,10.8-10.7,14.8c-8,6.7-16.9,4.9-21.3-4.6c-4.3-9.4-5.2-19.7-6.4-29.8c-3.2-27.7-3.6-55.5-3.7-83.4
			c-0.1-10.5-1.9-20.3-6.5-29.6c-6.8-13.8-9.8-28.4-9.5-43.7c0.2-9.5-0.7-18.9-3.5-28c-3.8-12-10.5-15.5-22.2-11.3
			c-25.1,8.9-48.9,20.6-71.4,34.7c-7,4.4-12.8,10.8-19.4,16c-7,5.5-13.6,6.7-22.1,1c-18.5-12.2-37.9-23.1-57-34.4
			c-2.4-1.4-4.9-2.6-7.9-4.2c-4.4,7.8-5.5,15.9-6.5,23.8c-3.1,25.3-2.6,50.5,3.6,75.3c4.8,19.1,17.8,29.7,36.5,34
			c2.6,0.6,5,0.8,7.5-0.3c15.1-6.9,30.5-5.1,45.7-0.6c30.8,9.2,57.4,26.3,82.9,45.1c9.2,6.8,18,14.2,27.1,21.3
			c3.2,2.5,3.7,4.6,1.4,8.3c-5.7,9.5-12.8,16-24,19.4c-24.9,7.5-49.4,16.5-74,24.9c-8.2,2.8-16.3,5.9-23.5,10.9
			c-9.4,6.5-14.6,15.5-16.1,26.7c-1.2,8.7,3.6,13.1,12.2,11.5c10.2-1.9,19.8-6.1,27.8-12.3c11.5-8.8,22.4-8,34.2-2
			c48.3,24.7,89.8,57.4,120,103.1c4.9,7.4,9.4,15.2,14.1,22.8L484.2,1068.7z M993.6,478.8c3.5-2.4,6.4-1.6,9.2-1.7
			c22.8-1,45.2-4,66.7-12.4c9.8-3.8,19.2-8.3,26.7-15.9c6.6-6.7,6.5-10.3-0.8-16.3c-3.5-2.9-7.4-5.5-11.4-7.8
			c-35.9-20.3-75-32-114.6-42.1c-59-15-119.1-23.2-179.9-27.3c-43.1-2.9-86.2-3.8-129,3.4c-117.2,19.9-217.2,74.1-305,152.8
			c-6,5.4-7.2,11.3-5.5,18.5c1.4,6.2,4.4,11.4,9.2,15.6c15.3,13.3,33.3,17.2,52.9,13.4c9.1-1.7,15-7.3,17.7-16.9
			c7.5-26.4,36.6-47.5,64.3-46.6c9.8,0.3,19.2,0.4,28.1-4.9c4.1-2.5,9.3-2.5,14.2-2.8c13.1-0.7,25.9,1.3,38.7,4
			c27.1,5.6,50.1,19.6,72.4,35.3c10.8,7.6,20.6,16.9,33.1,21.8c98.8,38.7,197.7,77.2,296.4,116c6.4,2.5,8.9,0.7,11.6-4.9
			c18.1-37.5,24.9-76.9,20.9-118.3C1007.3,520.1,1001.7,499.2,993.6,478.8z M850.5,642.4c-0.9-1.8-3.7-1.7-6-2.5
			c-13.8-4.6-27.5-9.3-41.3-13.7c-42.9-13.8-85.9-27.5-128.9-41.1c-18.8-6-36.8-4.1-53.5,6.8c-4.6,3.1-9.6,7-8.5,13.4
			c1.1,6.3,7.3,6.4,12.1,7.7c32.3,8.5,64.8,16.1,95.5,29.6c11.1,4.9,23.2,7.9,35.1,4.3c15.7-4.7,31.7-4.6,47.7-4.5
			C818.6,642.5,834.6,642.4,850.5,642.4z M488.5,751.5c19.2,0,38.3-8.3,49.7-21.7c7.5-8.8,6.4-15.6-3.7-20.9
			c-3.6-1.9-7.5-3.1-11.3-4.5c-27.8-10.4-54.3-22.7-70.8-49.3c-1.5-2.4-3.5-4.4-5.4-6.4c-2.1-2.2-4.4-4.9-7.7-4.2
			c-3.8,0.8-3.6,4.7-4,7.5c-2.6,17.8-3.5,35.6-0.6,53.4C439.3,734.2,459.4,751.4,488.5,751.5z M307.7,597.2
			c-0.1-9.9-6.2-14.7-15.2-12.8c-7.7,1.6-14.1,5.7-20.7,9.7c-7.4,4.5-14.7,8.7-23.2,11.4c-11.6,3.8-21,11.6-28,21.6
			c-5.9,8.4-4.9,14.9,2.8,21.4c2.9,2.5,6,4.8,9.2,6.8c13.2,8.3,27.6,14.2,41.6,21.1c4.1,2,6.8,0.4,9.2-2.7
			c4.5-5.8,7.1-12.5,8.1-19.6c2.6-18.5,5.5-36.9,15.2-53.3C307.5,599.6,307.5,598,307.7,597.2z M598.8,705.3
			c28.6-13.5,56.7-27.4,89-29.4c-17-11.9-35-17.6-54.8-9.9C615.1,672.9,605.4,687.7,598.8,705.3z" />
            <path fill-rule="evenodd" clip-rule="evenodd"
                d="M1135.2,930.2c-7.7-25.1-26.3-38-47.5-48.1c-2.9-1.4-4.1-3.5-4.4-6.5
			c-3.6-44.6,4.4-86.2,33.7-121.4c23.3-27.9,63.3-29.6,86.6-4.9c5.9,6.3,9.6,13.8,12.5,21.7c5.6,15,8,41.4,4.6,56.8
			c-3.1-7.1-5.7-13.5-8.6-19.8c-4.5-9.6-10.6-18-19.2-24.4c-14.7-11-31.4-8.5-42.1,6.3c-4.2,5.8-8.7,11.3-13,17
			c-10.6,14.1-10,18.2,3.9,28.7c7.2,5.5,13.5,11.6,17.2,20.1c5,11.3,4.6,22.9,1.8,34.6C1157,906.2,1149,919.3,1135.2,930.2z" />
            <path fill-rule="evenodd" clip-rule="evenodd" d="M578.4,161.6c-12.9-1.3-25.6-3.7-38.5-4.5c-52.3-3.1-103.2,5.1-153.6,17.7
			c-10.1,2.5-20.2,5.5-30.2,8.5c-3.3,1-5.8,1.3-7.1-2.9c-5.9-19.3-11.7-38.6-8.7-59.2C343,102.5,354,93.3,373.1,93
			c58.6-0.9,112.6,15.7,164,42.7C551.4,143.3,565.3,151.7,578.4,161.6z" />
            <path fill-rule="evenodd" clip-rule="evenodd" d="M1449.8,1597.7c-6.6,8.2-12.2,15-17.8,21.9c-1.7,2-4.1,1.8-6.4,1.7
			c-19.1-0.7-38.3-0.9-57.3-3.7c-2.8-0.4-5.6-0.9-7.9-2.6c-34.1-24-71.8-40.8-111-54.4c-5.8-2-11.3-4.8-16.4-8.2
			c-7.6-5.1-10.4-12-8.5-21.1c5.3-24.7,18.2-29.9,38.8-15.4c13,9.2,24.4,20.3,34.3,32.6c10.5,13,23.7,21.4,39.1,27
			c34.1,12.3,69.7,17.3,105.6,21.3C1444.1,1596.9,1445.8,1597.2,1449.8,1597.7z" />
            <path fill-rule="evenodd" clip-rule="evenodd" d="M744.8,139.6c-26.4-1.8-55.4-10.4-81.5-27.8c-6.4-4.3-12.2-9.3-15.8-16.3
			c-3.7-7.2-2.1-12.7,4.9-16.9c5.2-3.1,11-4.2,16.9-4.5c36.4-1.3,69.5,8.8,99.5,29.2c5.1,3.5,9.6,7.7,12.8,13
			c5.2,8.7,2.9,15.7-6.4,19.7C768.1,139.1,761.6,140,744.8,139.6z M746.5,127.9c3.1,0,4.4,0.1,5.6,0c5.1-0.3,11-0.1,12.7-6.2
			c1.6-5.7-3.1-8.9-7.1-11.6c-13-8.9-27.4-13.4-43.2-12.7c-4.7,0.2-9.8,0.9-11.2,6.1c-1.3,4.8,2.3,8.1,5.9,10.7
			C720.8,122.9,734,127.1,746.5,127.9z" />
            <path fill-rule="evenodd" clip-rule="evenodd" d="M1012.6,942.4c-7.7-12.7-6.2-24.5,3.9-34.4c7.5-7.4,17-12.1,25.6-17.9
			c3.6-2.4,7.1-5,10.5-7.7c8.4-6.7,11.2-15,8.1-25.8c-4.4-15.3-6.2-31-3.1-46.9c1.8-9.5,6-17.8,13.3-24.4c2.4-2.2,4.8-4.6,9.2-4.3
			c-1.4,12.2-2.8,24.3-4,36.4c-2.2,20.8-3.3,41.7-2.7,62.6c0.5,21.3,9.4,36.5,29.7,44.5c4.5,1.8,10.6,2.9,10.7,10.1
			c-4.7,2.2-8.4-0.3-12-1.7c-11.2-4.3-22.5-8.2-34.1-11.4C1039.9,914,1028.5,918.2,1012.6,942.4z" />
            <path fill-rule="evenodd" clip-rule="evenodd" d="M787.9,180.2c18,8.7,37.4,11.2,56.9,13.2c30.2,3.1,60.6,2,90.9,1.9
			c48.2-0.1,96.3-0.7,144.2,5.8c15.7,2.1,31.1,5.5,46.1,10.6c3.1,1.1,6.4,2,8.5,4.7l0.2-0.1c-34.3-10.3-69.7-11.7-105.2-12.3
			c-46.9-0.7-93.8-0.5-140.7-1.6c-30.9-0.7-61.6-4.1-90.6-15.9c-3.7-1.5-7.8-2.6-10.3-6.3L787.9,180.2z" />
            <path fill-rule="evenodd" clip-rule="evenodd" d="M542.3,4c-67.1,7.6-132.1,20.8-184.5,71.2c4-15.7,12.5-26.7,23.4-36
			c18.2-15.4,40.1-22.9,62.9-28.1C476.4,3.7,509.2,2.5,542.3,4z" />
            <path fill-rule="evenodd" clip-rule="evenodd"
                d="M1317.7,1504.2c11.2,1.7,21.8,6.2,30.6,14.4c1.8,1.7,3.8,3.8,2.3,6.6
			c-1.3,2.3-3.8,2.3-6.1,2.1c-12.1-0.9-22.5-5.7-31.6-13.6c-2.1-1.8-4.5-3.9-3.2-7C1311,1503.7,1314.2,1504.3,1317.7,1504.2z" />
            <path fill-rule="evenodd" clip-rule="evenodd" d="M1168,935.9c-4.9,12.3-11.7,22.9-24,28.5c-4.6,2.1-11.3,4.5-14.1,0
			c-3.2-5.2,3.8-7.9,7.3-10.6C1146.6,946.5,1156.8,940.4,1168,935.9z" />
            <path fill-rule="evenodd" clip-rule="evenodd" d="M1285.2,1511.1c5.2-0.3,9.1,3,13.4,5c17.8,8,35.5,16.4,53.6,24.8
			c-13,3.6-46.9-8.5-67.1-29.9L1285.2,1511.1z" />
            <path fill-rule="evenodd" clip-rule="evenodd" d="M1035.5,1582.6c1-0.8,1.9-1.5,4.1-0.7c-2,0.3-3.1,0.4-4.2,0.6
			C1035.4,1582.5,1035.5,1582.6,1035.5,1582.6z" />
            <path fill-rule="evenodd" clip-rule="evenodd" d="M1134.6,216.5c0.4,0,0.7-0.1,0.9-0.1c-0.1,0-0.4,0-0.7,0
			C1134.8,216.4,1134.6,216.5,1134.6,216.5z" />
            <path fill-rule="evenodd" clip-rule="evenodd" d="M1046.8,1578.4c0.3,0.2,0.6,0.3,1,0.5c-0.2-0.3-0.3-0.7-0.5-1
			c-0.2,0.2-0.4,0.5-0.6,0.7L1046.8,1578.4z" />
            <path fill-rule="evenodd" clip-rule="evenodd" d="M1046.7,1578.6c-0.2-0.3-0.4-0.5-0.7-0.8c0,0.2-0.1,0.4-0.1,0.5
			c0.3,0,0.6,0,0.9,0C1046.8,1578.4,1046.7,1578.6,1046.7,1578.6z" />
            <path fill-rule="evenodd" clip-rule="evenodd"
                d="M788,180.4l-0.4-0.1c0,0,0.3-0.1,0.3-0.1C787.9,180.2,788,180.4,788,180.4z" />
            <path fill-rule="evenodd" clip-rule="evenodd" d="M484.3,1068.9l0.1,0.3c0,0-0.1-0.5-0.1-0.5
			C484.2,1068.7,484.3,1068.9,484.3,1068.9z" />
            <path fill-rule="evenodd" clip-rule="evenodd"
                d="M1285,1511l-0.1-0.2c0,0,0.3,0.3,0.3,0.3C1285.2,1511.1,1285,1511,1285,1511z" />
            <path fill-rule="evenodd" clip-rule="evenodd" fill="none" d="M993.6,478.8c8,20.4,13.6,41.3,15.7,63c4,41.4-2.8,80.8-20.9,118.3
			c-2.7,5.6-5.2,7.4-11.6,4.9c-98.7-38.8-197.6-77.3-296.4-116c-12.5-4.9-22.3-14.2-33.1-21.8c-22.3-15.7-45.3-29.7-72.4-35.3
			c-12.8-2.6-25.6-4.7-38.7-4c-4.9,0.3-10,0.3-14.2,2.8c-8.9,5.3-18.2,5.2-28.1,4.9c-27.7-0.9-56.8,20.2-64.3,46.6
			c-2.7,9.6-8.6,15.1-17.7,16.9c-19.6,3.8-37.5-0.1-52.9-13.4c-4.8-4.1-7.8-9.4-9.2-15.6c-1.6-7.2-0.5-13.1,5.5-18.5
			c87.8-78.8,187.8-132.9,305-152.8c42.8-7.3,85.9-6.3,129-3.4c60.7,4.1,120.8,12.3,179.9,27.3c39.6,10.1,78.7,21.8,114.6,42.1
			c4,2.3,7.8,4.9,11.4,7.8c7.3,6,7.4,9.6,0.8,16.3c-7.5,7.6-17,12.1-26.7,15.9c-21.4,8.4-43.9,11.3-66.7,12.4
			C1000.1,477.2,997.2,476.4,993.6,478.8z" />
            <path fill-rule="evenodd" clip-rule="evenodd" fill="none"
                d="M850.5,642.4c-15.9,0-31.9,0.1-47.9,0c-16.1-0.1-32-0.2-47.7,4.5
			c-11.9,3.6-24,0.6-35.1-4.3c-30.7-13.5-63.3-21.1-95.5-29.6c-4.8-1.3-11-1.3-12.1-7.7c-1.1-6.5,3.9-10.4,8.5-13.4
			c16.6-10.9,34.7-12.8,53.5-6.8c43,13.6,86,27.4,128.9,41.1c13.8,4.4,27.6,9.1,41.3,13.7C846.8,640.7,849.6,640.6,850.5,642.4z" />
            <path fill-rule="evenodd" clip-rule="evenodd" fill="none" d="M488.5,751.5c-29.1,0-49.2-17.3-53.8-46.2
			c-2.8-17.8-1.9-35.6,0.6-53.4c0.4-2.9,0.2-6.7,4-7.5c3.4-0.7,5.6,1.9,7.7,4.2c1.9,2,3.9,4.1,5.4,6.4c16.5,26.6,43,38.9,70.8,49.3
			c3.8,1.4,7.8,2.7,11.3,4.5c10.1,5.4,11.2,12.1,3.7,20.9C526.8,743.2,507.7,751.5,488.5,751.5z" />
            <path fill-rule="evenodd" clip-rule="evenodd" fill="none" d="M307.7,597.2c-0.2,0.7-0.2,2.4-0.9,3.6
			c-9.7,16.5-12.5,34.8-15.2,53.3c-1,7.1-3.6,13.8-8.1,19.6c-2.4,3.1-5.1,4.7-9.2,2.7c-13.9-6.9-28.4-12.8-41.6-21.1
			c-3.2-2-6.3-4.4-9.2-6.8c-7.7-6.6-8.7-13-2.8-21.4c7.1-10,16.4-17.9,28-21.6c8.4-2.7,15.8-6.9,23.2-11.4c6.5-3.9,13-8.1,20.7-9.7
			C301.5,582.6,307.6,587.4,307.7,597.2z" />
            <path fill-rule="evenodd" clip-rule="evenodd" fill="none" d="M598.8,705.3c6.6-17.5,16.3-32.3,34.2-39.3
			c19.8-7.7,37.8-2,54.8,9.9C655.5,677.8,627.4,691.8,598.8,705.3z" />
            <path fill-rule="evenodd" clip-rule="evenodd" fill="none" d="M746.5,127.9c-12.5-0.8-25.7-5-37.3-13.6c-3.6-2.6-7.2-5.9-5.9-10.7
			c1.4-5.3,6.6-5.9,11.2-6.1c15.8-0.7,30.3,3.8,43.2,12.7c3.9,2.7,8.7,5.9,7.1,11.6c-1.7,6-7.6,5.9-12.7,6.2
			C750.9,128,749.6,127.9,746.5,127.9z" />
        </g>
    </g>
</svg>