<?xml version="1.0" encoding="utf-8"?>

<!DOCTYPE svg PUBLIC "-//W3C//DTD SVG 1.1//EN" "http://www.w3.org/Graphics/SVG/1.1/DTD/svg11.dtd">
<svg version="1.1" id="Layer_1" xmlns="http://www.w3.org/2000/svg" xmlns:xlink="http://www.w3.org/1999/xlink"
    viewBox="0 0 1424.9 1945.8" xml:space="preserve">
    <g>
        <g>
            <path fill-rule="evenodd" clip-rule="evenodd" fill="none" d="M1426.4,1648.6c0,100.1,0,200.2,0,300.3c-475,0-949.9,0-1424.9,0
			c0-5,0-10,0-15c5.3,3,0.9,9.7,6.1,13.5c1.7,0,4.4,0,7.1,0c130.1,0,260.2,0,390.4,0c111.9,0,223.7,0,335.6,0
			c3.7,0,7.3,0.1,10.8-2.2c49.1-31.8,102.4-55.6,155.9-78.5c92.5-39.5,180.5-86.2,259.1-149.6c2.4-2,6-2.9,7-7.4
			c-6.9,4.5-13,8.5-19.2,12.6c-74.2,48-153.7,85.9-233.8,122.6c-55.3,25.3-111.5,48.6-167.8,71.5c-18.1,7.4-36.7,11.3-56.1,6.9
			c-20.5-4.6-35.6-15.7-42.3-36.6c-8.6-26.7-11.3-54.1-9.9-81.9c0.6-12.6,5.2-22.9,17.8-28.7c21.3-9.9,41.9-21.3,64.2-29.4
			c25.2-9.1,49.9-19.4,74.9-29.2c20.8-8.1,42.2-14.7,62.8-23.7c19.9-8.7,31.8-22.4,29.7-45.7c-0.7-8,0.6-16.1,4.6-23.2
			c10.4-18.7,23.9-35.4,35.4-53.4c5.6-8.8,12.8-16.9,19.6-25c19.9-23.8,39.7-47.6,64.7-66.4c17.8-13.4,34.2-28.3,48.2-45.6
			c1.8-2.2,3.8-3.8,6.3-5.1c19.6-10.5,37.5-23.6,54.3-38.1c3.8-3.3,6.8-7.1,5.7-12.7c-1.8-8.9-0.4-17.8,0.1-26.7
			c0.8-14.9,1.1-30,3.9-44.6c5.1-27.2,9.5-54.4,9.5-82.2c0-7.6,0-15.2,0-24.2c4,3.9,7.3,6.3,11,5.7c12.2-1.9,25-1.6,36.3-7.2
			c22.5-11,37.3-29.8,47.8-51.8c12-25.1,19.3-52,26-79c3.3-13.3,7.1-26.5,8.9-40.2c-2.5,7.3-4.7,14.7-6.9,22
			c-10.3,34.9-21.3,69.7-37.6,102.4c-15.7,31.6-32.8,39.6-66.2,33.4c-6.3-1.2-12-6.2-18.7-2.5c-1.3-19.3-2.3-38.3-4-57.2
			c-2.6-28.1-5.8-56.1-8.5-84.1c-2.3-24.3-3.6-48.7-7.4-72.9c-1.7-11.1-2.6-22.4-1.4-33.6c2.5-24.9,9.8-48.6,19.9-71.4
			c4.9-11.1,10.9-21.4,25.2-22.4c3.6-0.2,2.8-3.8,2.5-6c-1-7-4.6-12.7-10-17c-16.6-13.2-36.4-17.7-56.8-20.2
			c-13.5-1.7-27-2.3-38.8-10.9c-23.8-17.3-51.1-22.6-80-22c-3.2,0.1-6.6,0.5-9.7-0.3c-6.2-1.7-12.7-3.6-15.8-12.7
			c39.8,5.1,76.3,16.9,113.2,27.1c-22.6-9.7-45.7-18-68.6-26.8c-26.2-10-52.6-12-79.9-6.9c-7.1,1.3-14.1,4.3-21.1,4
			c-12.8-0.5-25.6-2.9-39.4-4.7c3.8-4.8,0.6-7.5-2.5-10.2c-4-3.5-7.5-7.3-10.4-11.7c-2.1-3.2-4.8-6.4-2.5-10.2c2-3.4,5.9-1.7,9-1.8
			c1.7,0,3.4,0.4,5.1,0.8c13.8,3.1,26,9.7,38.1,16.7c2.1,1.2,3.8,2.8,6.9,2.7c-6.4-14.2-14-27.2-23-39.5
			c-12.7-17.2-29.4-22.4-50-18.7c-10.6,1.9-20.6,5.3-30.8,8.5c2-2,4.3-3.6,6.3-5.4c1.9-1.7,5.4-1.6,5.8-6.4
			c-42.8-3.1-85.4-7.5-125.3,16.7c-0.3-6.4-0.6-12.5-0.9-19c-6.2,6.2-8.7,14.1-12.1,21.8c-1.5-4.3-2.9-8.3-4.4-12.4
			c-15.2,10.9-20,19.2-19.5,35.9c0.4,12.9,0,25.9-3.7,38.5c-4.5,15.2-10.4,21.1-28.2,21.1c-22.9,0-44.4-8.1-65.3-16.4
			c-20.4-8.1-38-21.5-57-32.4c-13.6-7.8-27.1-16-41.1-24.3c1.5-1.1,2.2-1.7,3-2.3c45.4-29.7,91.6-58.1,138.5-85.4
			c51.4-30,103.2-59,156.9-84.8c39.2-18.8,79.8-32,123.5-33.3c40.4-1.2,80.9-1.5,120.9,5.9c18.8,3.5,38,6.8,54.5,16.8
			c19.9,12.1,36.8,27.1,33.4,54.2c-0.2,1.9,0.2,4,0.3,5.9c0.6,8.9,5.3,16.5,9.7,25.7c-12.6-9.4-23.8-17.8-35-26.1
			c16.7,29.1,34.2,57.3,47.2,88c-10.8-8.8-21.6-17.7-33.6-27.5c0.5,2.5,0.5,3.2,0.7,3.8c14.9,37.2,23.7,75.5,20.1,115.8
			c-1.5,17.3,8.5,28.7,23.5,33.4c23.7,7.4,45.9,17.2,56,42.7c15.2-2.9,29.8-6.5,44.9-8.1c-2.5,5.4-0.1,7,4.4,6.4
			c3.7-0.6,7.1-0.8,11,0.3c25.2,7.4,38.4,25.9,44.8,49.7c8.3,30.6,5.7,61.7,1.3,92.7c-0.8,5.6-1.8,11.1-2.7,16.7
			c3.9-8.6,5.4-17.7,7-26.7c4.6-26.4,7.7-52.9,2.1-79.5c-6.5-30.5-21-54.2-54-61.5c-2.5-0.6-4.5-1.4-4.6-4.8
			c-0.2-8.2-1.2-16.4-1.3-24.7c-0.5-27.2,0.4-54.4,2.6-81.6c2.4-28.9,3.8-57.8,3.7-86.8c-0.1-30.7-1-61.4-9.4-91.2
			c-5.4-19.2-14.5-35.7-32.6-46.3c-9-5.3-17.5-11-24.2-20.2c-17.9-24.7-40-45.8-61.8-67.2c-28.7-28.2-58.2-55.4-87.4-83
			c-16.2-15.2-33.2-29.6-47.6-46.7c-7.3-8.7-14.7-17.3-22.5-27.5c0.3,10.7-6.7,16.5-10.8,23.7c47.7,30.3,92.1,63.9,129,106.6
			c22.1,25.6,46.9,48.5,71.6,71.6c4.7,4.4,9.6,8.8,14.4,13.1c4.8,4.4,9.6,8.7,15,13.6c-1.6,0-2.2,0.2-2.5,0
			c-49.1-28-101.5-44.7-158.3-48c-39.1-2.3-77.1,2.3-114.3,13.6c-70.6,21.4-139.5,47.6-208,74.7c-80.5,31.9-160.6,64.8-240.8,97.3
			c-11.8,4.8-23.5,9.5-35.3,14.3c10.2-13.1,13.7-28.5,19-43.2c2.5-6.8,1.2-12.4-4-16.8c-13.9-11.8-21.1-27.6-25.9-44.5
			c-7.5-26.3-11.9-52.8-3.5-80c3.9-12.6,0.1-23.5-10.1-32.1c-2.5-2.1-4.8-4.4-6.9-6.9c-11.2-13.1-15.6-30.9-4.9-47.4
			c5.9-9.1,13.7-16.5,22.1-23.2c9.1-7.2,19.3-12.9,29.1-19.2c-19.6,0.4-37.2,8.4-55.4,14.1c77.3-38.8,160.5-57.7,244.7-74
			c-3.8-0.5-7.5-0.7-11.2-0.5c-33.8,2.2-67.1,7.5-100,15.7c-50.4,12.6-99,30.5-146.5,51.6c-6.5,2.9-12.9,6.3-21.9,7.6
			c3.3-3.1,5.1-5.2,7.3-6.7c32.2-21.3,69-32.3,105.3-45.4c-2.4-11.3-7.9-20-17.6-26c-13.5-8.3-26.1-4.3-38.7,2.7
			c-8.6,4.8-14.8,12.7-24.9,18.8c9.1-35,36.9-51.6,62-71.8c-24.8-3.3-45.2,2.6-62.2,19.4c19.6-28.9,50.1-35.7,81.6-40.7
			c-14.5-0.3-28.9-1.1-43.4,0.9c-26.9,3.7-52.2,10.1-69.4,33.8c5.7-22.2,16.9-31.5,32.8-33.3c-1.5-8.9-2.9-17.8-4.6-27.9
			c6,6.2,11.1,11.7,19.7,13.5c-1.5-15-2.5-29.6-4.4-44.1c-1.9-14,0-26.1,11.6-35.7c12.7-10.6,26.1-19.9,41.5-26.2
			c39.8-16.3,81.7-22.7,124.4-24.3c34.8-1.4,67.4,5.4,97.7,24.1c62.1,38.4,122.6,79.1,182.6,120.8c8.1,5.6,16.2,11,24.4,16.5
			c-6.5-7.2-14-13.1-21.6-18.9C783.8,129.4,725,85.7,664.9,43.8C639.6,26.1,613,12,582.1,6.6c-9.9-1.7-20.1-1.6-29.6-5.1
			c291.3,0,582.6,0,873.8,0c0,548.5,0,1097,0,1645.6c-9.4-6-18.5-12.4-28.1-17.9c-8.2-4.6-16.8-10.2-26.4-8.7
			c-7,1.1-12.1-0.7-17.4-3.9c-5.6-3.3-11-6.9-16.4-10.3c-7.8-5-16.3-6.7-24.8-3.1c-5,2.1-9.2,1.5-13.5-0.3
			c-10.9-4.6-21.1-10.6-28.2-20.3c-19.5-26.5-37.7-54-52.1-83.6c-20.1-41.3-39.9-82.7-62.2-122.9c-1.8-3.2-4.7-5.5-9.3-7.5
			c2.1,5,3.8,8.7,5.3,12.4c9.2,23.4,19.8,46.1,32.3,67.8c11.5,20,23.8,39.7,35,59.9c12.1,21.7,23.2,44,34.9,65.9
			c10.3,19.5,25.5,33.5,46.7,40.5c4.5,1.5,8.6,1.8,12.8-0.6c6.6-3.8,12.7-2.3,18.8,1.7c8.7,5.8,18.1,10.5,27.9,14.1
			c1.7,0.6,3.2,2,5.5,0.5c4.7-3.1,9.8-2.2,15.1-0.8c10.9,2.8,20.8,8,31,12.6C1417.3,1644.8,1421.1,1648.4,1426.4,1648.6z
			 M651.9,118.3c-10.8-18.1-24.3-33.3-41.5-39.7c3.6,4.2,8.5,11.5,14.9,17.1c8.7,7.7,16.4,16.5,26,23.1c7.6,7.5,15,15.2,22.9,22.4
			c14,12.8,28.1,25.4,42,38.2c11.2,10.2,22.2,20.8,32.9,31.5c1.4,1.4,2.7,3.5,5,2.2c4.4-2.5,9.8-3.1,14-7.7
			c-13-8.8-27.3-14.5-39.4-24.5c2.6-2.6,3.6-5.2,0.8-8.2c-2.5-2.6-0.7-6.2-1.6-9.2c-19.8-1-23.5-2.4-29.1-12.1c4.9,0,9.5,0,16,0
			C693.8,138,670.5,132.5,651.9,118.3z M1142.6,937.8c-3.2,6.9-3.2,6.9-2.5,16c1.7,22.8,9.8,41.4,33.1,50.2
			c8.6,3.2,16.9,7.3,25.1,11.4c12.1,5.9,24.3,11.7,29.5,25.8c2,5.5,6.4,4.9,10.3,1.7c3.3-2.8,5-6.8,6.7-10.6
			c4.4-9.7,6.6-20,6.9-30.3c0.5-23.4-4.1-47-32.7-56.3c-7.2-2.3-14.5-4.4-22-7c2.1-11.8,4.5-23.1,10.2-33.4
			c5.7-10.4,14-14,25.2-12.4c18.3,2.6,27.3,14.6,33.4,30.3c2.8,7.2,6.8,13.8,12,19.5c1.9,2,4,5.3,7.5,3.6c2.8-1.4,2.4-4.9,2.4-7.4
			c0.2-20-0.2-40-6-59.3c-3.9-13-10.8-24.2-25.3-27.9c-23.3-5.9-49.4,8.7-59.5,33c-8.2,19.7-11.5,40.5-13.5,61.5
			c-0.3,3.1-0.1,6.2-3.6,7.4c-7.3,2.4-14.3,5-22-0.1C1151.7,949.2,1147.5,943.8,1142.6,937.8z M489.7,549.5
			c9.9,0.9,19.7-2.6,28.6-8.2c18.2-11.5,21.9-34.7,8.3-49.5c-18.7-20.2-54.4-20.7-73.8-1c-13.2,13.3-13.4,32,0.1,45.1
			C462.7,545.5,474.9,550,489.7,549.5z M443.4,400.9c23,0.7,39.6-17.8,40.1-40c0.5-21.5-17.8-39.6-39.2-39.6
			c-23.8-0.1-42.8,18.4-41.7,41.9C403.7,386.7,423.4,401.8,443.4,400.9z M603,73.4c-6.3,6.5-13.6,10.2-11,18.2
			c1.8,5.4-0.9,6.6-4.1,8.6c-2.1,1.3-5.5,1.3-5.4,5.1c0.1,6-1,12.3,0.4,18c2.5,10.6,6.2,21.2,21.1,20.9c12.1-0.2,21.1,3.7,26.8,14.5
			c2.5,4.7,6.2,6.8,11.3,8.6c13.4,4.7,19.4,16.7,14.2,28.3c6.1-2.5,11.2,0.1,16.2,1.8c5.3,1.8,10.8,1.8,16,3.6
			c5.8,1.9,12,2.7,14.2,10c0.9,3,4.4,3.7,7.6,3.8c5,0.2,9.9-0.2,14.3-1.8c1.7-9.2-2.9-12.2-11.9-10.8c1.8-5.8,1-9.5-3.6-12.4
			c-9.5-6.2-19.4-9-30.9-7.9c-14.4,1.4-18.6-2.1-21.9-16.3c-0.5-2-0.9-2.9-2.7-3.7c-7.3-3.2-14.2-7.4-21.8-9.5
			c-6.2-1.8-7-5.4-7.1-10.4c0-2.2,1.4-4.3,0.2-7c-11.5-4.7-23.3-9.5-35-14.3c4.1-14.9,17.9-6,26.4-12.1
			C606.2,99.5,603.1,88,603,73.4z M670.8,233.6c38.2,2.4,76.6,3.6,114.8,7.8c41.8,4.5,83.2,10.8,123.5,23.2c9.2,2.8,17.7,1,25.6-4
			c7.6-4.8,10.1-13.2,6.5-21.5c-5.6-13.1-16.6-19.9-29.4-24.4c-4.1-1.4-8.3-2.1-12.5-1.1c-4.4,1.1-6.3,4.3-7,8.7
			c-0.7,4.5,3.1,4.7,5.5,5.8c9.1,4.2,17.6,9.3,24.7,16.4c2.3,2.3,5.1,4.9,3.6,8.4c-1.4,3.3-5.1,3.6-8.4,3.9
			c-10.5,1-20.8-0.8-31.2-2.5c-52.4-8.5-104.4-20.5-157.6-23.6C709.4,229.5,690.1,229.3,670.8,233.6z M1263.3,1035.7
			c-3.1,4.8-6.1,9.5-9.2,14.3c-8,12.2-21.7,19.1-29.1,31.9c-2.4,4.1-9,8.2-5.8,12.2c3.4,4.3,9.7,0,14-2.5
			C1254.7,1079.4,1258.6,1057.2,1263.3,1035.7z M1204.7,1685.8c14.5-11.2,28.5-22.8,38.7-38.3
			C1230.5,1660.2,1217.4,1672.9,1204.7,1685.8z" />
            <path fill-rule="evenodd" clip-rule="evenodd" d="M552.5,1.5c9.6,3.4,19.8,3.3,29.6,5.1c30.8,5.4,57.4,19.5,82.8,37.2
			c60.1,41.9,118.9,85.6,177.3,129.8c7.6,5.8,15.1,11.7,21.6,18.9c-8.1-5.5-16.3-10.9-24.4-16.5C779.5,134.4,719,93.7,656.9,55.3
			c-30.2-18.7-62.8-25.5-97.7-24.1c-42.7,1.7-84.6,8.1-124.4,24.3c-15.3,6.3-28.7,15.6-41.5,26.2c-11.6,9.6-13.5,21.8-11.6,35.7
			c1.9,14.5,3,29.1,4.4,44.1c-8.6-1.8-13.7-7.3-19.7-13.5c1.7,10.2,3.1,19.1,4.6,27.9c-15.9,1.8-27.1,11.1-32.8,33.3
			c17.2-23.7,42.6-30.1,69.4-33.8c14.4-2,28.8-1.2,43.4-0.9c-31.5,5.1-62,11.8-81.6,40.7c17-16.8,37.4-22.7,62.2-19.4
			c-25.1,20.2-52.9,36.8-62,71.8c10.1-6.1,16.3-14,24.9-18.8c12.6-7.1,25.1-11,38.7-2.7c9.7,5.9,15.1,14.7,17.6,26
			c-36.4,13.1-73.1,24.1-105.3,45.4c-2.2,1.5-4,3.6-7.3,6.7c9-1.3,15.4-4.7,21.9-7.6c47.5-21.1,96.1-39,146.5-51.6
			c32.9-8.2,66.2-13.5,100-15.7c3.7-0.2,7.4,0,11.2,0.5c-84.1,16.3-167.4,35.1-244.7,74c18.2-5.7,35.8-13.7,55.4-14.1
			c-9.9,6.3-20,12-29.1,19.2c-8.5,6.7-16.2,14-22.1,23.2c-10.7,16.5-6.2,34.3,4.9,47.4c2.1,2.5,4.4,4.8,6.9,6.9
			c10.1,8.6,13.9,19.5,10.1,32.1c-8.4,27.2-4,53.7,3.5,80c4.8,16.9,12,32.7,25.9,44.5c5.2,4.4,6.5,10.1,4,16.8
			c-5.3,14.7-8.7,30.1-19,43.2c11.8-4.8,23.6-9.5,35.3-14.3c80.3-32.5,160.3-65.4,240.8-97.3c68.5-27.1,137.4-53.3,208-74.7
			c37.2-11.3,75.2-15.9,114.3-13.6c56.7,3.3,109.2,20,158.3,48c0.4,0.2,0.9,0,2.5,0c-5.4-4.9-10.2-9.3-15-13.6
			c-4.8-4.4-9.6-8.7-14.4-13.1c-24.7-23-49.5-46-71.6-71.6c-36.9-42.7-81.3-76.2-129-106.6c4.1-7.2,11.1-13,10.8-23.7
			c7.8,10.2,15.1,18.8,22.5,27.5c14.4,17.1,31.5,31.5,47.6,46.7c29.2,27.6,58.8,54.8,87.4,83c21.7,21.4,43.9,42.4,61.8,67.2
			c6.6,9.2,15.1,14.9,24.2,20.2c18.1,10.6,27.2,27.1,32.6,46.3c8.4,29.8,9.3,60.5,9.4,91.2c0.1,29-1.3,58-3.7,86.8
			c-2.3,27.2-3.1,54.4-2.6,81.6c0.1,8.2,1.1,16.4,1.3,24.7c0.1,3.4,2.1,4.2,4.6,4.8c33,7.3,47.6,31,54,61.5
			c5.6,26.6,2.5,53.1-2.1,79.5c-1.6,9-3,18.1-7,26.7c0.9-5.6,1.9-11.1,2.7-16.7c4.3-31,7-62-1.3-92.7c-6.4-23.8-19.6-42.3-44.8-49.7
			c-3.8-1.1-7.2-0.9-11-0.3c-4.5,0.7-6.9-1-4.4-6.4c-15.2,1.6-29.7,5.3-44.9,8.1c-10.1-25.5-32.3-35.3-56-42.7
			c-15-4.7-25-16.1-23.5-33.4c3.6-40.4-5.2-78.6-20.1-115.8c-0.2-0.6-0.3-1.3-0.7-3.8c12,9.8,22.8,18.6,33.6,27.5
			c-13.1-30.7-30.6-58.8-47.2-88c11.2,8.4,22.4,16.7,35,26.1c-4.4-9.2-9.1-16.7-9.7-25.7c-0.1-2-0.6-4-0.3-5.9
			c3.4-27-13.6-42-33.4-54.2c-16.5-10.1-35.7-13.4-54.5-16.8c-40-7.4-80.5-7.1-120.9-5.9c-43.7,1.3-84.4,14.4-123.5,33.3
			c-53.6,25.8-105.5,54.8-156.9,84.8c-46.9,27.4-93,55.8-138.5,85.4c-0.8,0.5-1.5,1.1-3,2.3c14,8.3,27.5,16.5,41.1,24.3
			c19,10.9,36.6,24.3,57,32.4c21,8.3,42.4,16.4,65.3,16.4c17.7,0,23.7-5.9,28.2-21.1c3.7-12.6,4.1-25.6,3.7-38.5
			c-0.5-16.7,4.3-25,19.5-35.9c1.5,4.1,2.9,8.1,4.4,12.4c3.4-7.7,5.9-15.6,12.1-21.8c0.3,6.5,0.6,12.6,0.9,19
			c39.9-24.2,82.5-19.8,125.3-16.7c-0.4,4.8-4,4.7-5.8,6.4c-2,1.8-4.3,3.3-6.3,5.4c10.2-3.3,20.2-6.7,30.8-8.5
			c20.7-3.6,37.4,1.5,50,18.7c9,12.3,16.6,25.3,23,39.5c-3.1,0.2-4.8-1.4-6.9-2.7c-12-7-24.3-13.6-38.1-16.7
			c-1.7-0.4-3.4-0.9-5.1-0.8c-3.1,0.1-7-1.6-9,1.8c-2.3,3.8,0.4,7,2.5,10.2c2.9,4.4,6.4,8.3,10.4,11.7c3.1,2.7,6.3,5.4,2.5,10.2
			c13.8,1.8,26.5,4.2,39.4,4.7c7,0.3,14-2.7,21.1-4c27.2-5.1,53.7-3.1,79.9,6.9c22.9,8.8,46,17.1,68.6,26.8
			c-36.9-10.1-73.4-22-113.2-27.1c3.1,9.1,9.5,11,15.8,12.7c3,0.8,6.4,0.4,9.7,0.3c28.9-0.6,56.2,4.7,80,22
			c11.8,8.6,25.4,9.2,38.8,10.9c20.4,2.6,40.2,7,56.8,20.2c5.4,4.3,9,10,10,17c0.3,2.3,1.1,5.8-2.5,6c-14.3,1-20.3,11.3-25.2,22.4
			c-10.1,22.8-17.4,46.5-19.9,71.4c-1.1,11.2-0.3,22.5,1.4,33.6c3.7,24.2,5.1,48.6,7.4,72.9c2.7,28.1,5.9,56.1,8.5,84.1
			c1.7,18.9,2.7,37.8,4,57.2c6.7-3.6,12.4,1.4,18.7,2.5c33.4,6.1,50.5-1.9,66.2-33.4c16.3-32.7,27.3-67.4,37.6-102.4
			c2.2-7.4,4.4-14.7,6.9-22c-1.8,13.7-5.6,26.9-8.9,40.2c-6.7,27-13.9,53.9-26,79c-10.5,21.9-25.3,40.7-47.8,51.8
			c-11.3,5.6-24.1,5.3-36.3,7.2c-3.7,0.6-7-1.8-11-5.7c0,9.1,0,16.6,0,24.2c0,27.8-4.4,54.9-9.5,82.2c-2.7,14.6-3.1,29.7-3.9,44.6
			c-0.5,8.9-1.8,17.8-0.1,26.7c1.1,5.6-1.9,9.5-5.7,12.7c-16.9,14.5-34.7,27.5-54.3,38.1c-2.4,1.3-4.5,2.9-6.3,5.1
			c-14,17.4-30.3,32.2-48.2,45.6c-24.9,18.8-44.8,42.5-64.7,66.4c-6.8,8.2-14,16.2-19.6,25c-11.4,18.1-25,34.8-35.4,53.4
			c-3.9,7.1-5.3,15.2-4.6,23.2c2.1,23.3-9.7,37-29.7,45.7c-20.5,9-41.9,15.6-62.8,23.7c-25,9.7-49.7,20.1-74.9,29.2
			c-22.3,8.1-42.9,19.5-64.2,29.4c-12.6,5.9-17.1,16.2-17.8,28.7c-1.3,27.8,1.3,55.2,9.9,81.9c6.7,20.9,21.8,32,42.3,36.6
			c19.4,4.3,38,0.5,56.1-6.9c56.3-22.9,112.5-46.2,167.8-71.5c80.1-36.7,159.6-74.6,233.8-122.6c6.2-4,12.4-8.1,19.2-12.6
			c-1,4.6-4.5,5.5-7,7.4c-78.6,63.4-166.6,110.1-259.1,149.6c-53.5,22.8-106.8,46.7-155.9,78.5c-3.4,2.2-7,2.2-10.8,2.2
			c-111.9,0-223.7,0-335.6,0c-130.1,0-260.2,0-390.4,0c-2.7,0-5.5,0-7.1,0c-5.3-3.8-0.8-10.5-6.1-13.5c0-10,0-20,0-30
			c1.1-0.4,1.3-1.3,1.5-2.3c3.5-17.6,13.3-28.6,31.3-32.7c22.5-5.1,45.1-9.7,67.8-13.6c25.9-4.5,51.9-8.8,77.8-13
			c23-3.8,46.2-7.2,69.2-11.2c24.6-4.2,47.2-14.8,70.5-23c10.5-3.7,21.7-5.4,31.6-10.9c14.5-8.1,25.4-19.9,35.7-32.5
			c3.6-4.4,6.7-10.2,12.1-11.9c16.7-5.5,34-8.4,51.5-6c6.2,0.9,9.8-0.5,12.4-4.9c9.2-15.6,16.5-31.7,14.4-50.6
			c-3.5-31-6.6-62.1-5.7-93.3c0.4-14.3-3.2-26.6-11.1-37.8c-24.8-35.5-45-74-68.6-110.2c-31.5-48.5-52.2-102.1-70.7-156.5
			c-14.6-43.1-25-87.2-31.7-132.2c-3.3-21.9-5.6-43.9-7.7-65.9c-2.6-26.9-3.1-53.9-3.8-80.8c-0.6-21.9,1-43.9-1.4-65.9
			c-1-9.1-3.3-18.3-1.4-28.2c20.4,39.8,29.2,51.1,44.3,56.7c-0.5-4,1-6.8,4.6-8.5c79.2,48.2,156.1-8,175.2-62.4
			c-17.7,11.1-36.2,20.7-53.9,31.8c-24.7,15.4-52.6,15-80.4,13.7c-2.4-0.1-4.5-1.2-4.1-4.2c0.4-2.5,1.7-3.7,4.5-3.8
			c6.4-0.2,12.9-0.3,19.3-1.9c14.7-3.7,28.9-8.6,42.2-16.1c-2.3,0-4.4,0.5-6.5,1c-28.1,6.8-57.2,6.5-85.4,13
			c-12.6,2.9-25.6-0.6-36.1-9.7c9.3-13.6,7.9-28.5,6.3-43c5.8-1.8,9.6-0.6,12.3,3.9c1.9,3.3,4.8,5.7,7.9,7.9
			c10.1,7.3,21.4,9.8,33.6,10.4c13.7,0.7,41.5-4.7,51.8-11.2c-25.8,5.1-50.3-3-75.6-6.7c-0.2-1.4-0.3-3.2-0.7-4.8
			c-2.8-13.1-1.4-16.3,10.3-23.2c3.9-2.3,7.8-4.4,11.9-6.3c14.7-6.7,29.2-13.8,45.8-14.4c21.4-0.8,40.7,5.4,58.8,16.1
			c9.8,5.8,12,5.3,19.3-4.6c-19.1-24.6-45-37.2-75.3-39.8c-31.6-2.7-56.5,12.7-78.9,33c27.6-33.6,59.9-53.9,105.5-36.8
			c-1.1-1.2-2.1-1.8-3.2-2.5c-15.1-9.1-31.5-11.8-48.8-10.5c-3.2,0.2-7.4,0.6-8.5-2.8c-1.4-4.1,3-5.1,5.7-6.5
			c30.3-14.4,60-13.8,89.1,3.3c13.9,8.1,22.5,20.1,25.7,35.8c1.1,5.5,1,11.2,1.5,17.1c9.6-4.4,14-10.2,11.8-15.6
			c-5.9-14.9-15.3-27.8-27.3-37.8c-18.4-15.4-40.4-21.6-64.7-19.3c-19.8,1.8-39.2,6.1-58.7,9.3c-26.9,4.3-44.4,20.2-51.4,46.4
			c-2.6,9.7-2,19.6-4,29.8c-2.2-1-3.8-1.5-5.3-2.4c-4.1-2.4-8-5-12.2-7.2c-2.4-1.2-2.2-2.9-1.9-5c4.6-29.1,20.2-50.4,45.8-64.4
			c23.8-13,49.7-18.1,76.5-19.6c4.2-0.2,8.5-0.8,12.7-1c4.1-0.2,8.3,0,12.4,0c-25.3-7.1-50.5-7.1-75.4-0.3
			c-23.6,6.4-44.4,17.4-59.1,37.9c-18.7,26-24,55.1-19.6,86.4c1,7.1,2.5,14.3,1.8,21.6c-0.3,2.6,0.6,6-2.9,6.9
			c-3.6,0.9-4.4-2.6-5.9-4.7c-3.7-5.4-5.6-11.5-6.3-18.1c-1.4-11.7-1.1-23.4-1-35.1c0-4.4,0.5-9.3-3.1-12.7
			c-4.5-4.2-7.3-9.4-9.6-14.9c-15,0.2-23.8-7-26.6-21.7c-1.9-9.8,2-14.6,16.2-19.8c-8-14.6-7-32.2-3.1-46.4
			c7.3-26.6,11.9-53.8,15.1-81.1c2.7-23.1,6.9-46,12.5-68.5c3.7-14.9,5.7-29.9,5.3-45.1c-0.4-16.4-2.6-32.8-4.1-49.2
			c-0.9-10-0.2-19.5,5.3-28.5c6.2-10.2,10.7-21.3,12.6-33.3c2.2-14,4.8-27.9,7-41.9c3.8-24.3,8.6-48.4,11.1-72.9
			c2-19.1,3.9-38.2,6.3-57.2c2.7-21.7,5.7-43.5,7.2-65.3c1.1-15.4,1.6-30.9,3.1-46.3c0.8-7.8,0.3-16.5,4.6-23.2
			c3.5-5.5,4.5-11.2,6-17.1c3.7-14.8,8.3-29.2,20.6-39.7c17.8-15.1,33.7-32,49.3-49.2c1.7-1.8,3.3-3.6,6-4.1
			c20.1-3.5,40.2-6.7,60.4-9.4c8-1.1,16.5,2,24-2.7C507.5,1.5,530,1.5,552.5,1.5z M631.8,1299.4c6.6,4.5,12.5,8.2,18,12.4
			c3.6,2.7,7.4,6.2,5.8,11.2c-1.6,5.1-6.5,6.9-11.3,7.1c-7.2,0.3-14.5,0.2-21.8-0.2c-16.1-0.9-32,0.7-47.5,3.9
			c-26,5.4-52,10.6-78.2,14.6c-11.6,1.8-24.2,3.2-32.1,13.5c-11.4,14.9-20.8,31-25.6,49.3c-5.8,22.1,3.4,37.3,25.6,43.6
			c24,6.8,47.8,5.5,71.5-0.8c17.7-4.7,34.3-4.2,49.9,6.4c5.1,3.5,10.9,6,16.4,8.8c31.7,16.1,64.9,25.6,100.9,24.8
			c34.7-0.9,67-10.6,98.5-23.9c27.6-11.7,52.4-27.5,72.9-49.7c9.7-10.5,16.6-23.1,26.8-33.1c8.3-8.2,17.5-10.7,27.9-5.5
			c14.6,7.3,22.7,19.7,25.3,35.7c0.6,3.4-0.6,6.7-2.8,9c-12.5,13.8-19.1,30.8-25.8,47.7c-4.2,10.6-8,21.5-7.3,33.2
			c0.5,7.8,3.6,10.1,11.2,7.7c17.6-5.5,32.6-15.9,47.5-26.2c42.3-29.3,84.2-59.1,115.5-100.9c11.5-15.4,21.5-31.6,26.7-50.3
			c15.6-55.3,18.6-111.9,17.5-168.9c-0.7-36.9-0.9-73.9-5.2-110.7c-2.9-25-6.9-49.8-11.5-74.6c-4.4-23.8-5.3-47.3,0.6-71.1
			c5.6-22.2,15.2-42.4,27.2-61.6c-38.3-20.6-86.2-21.7-126.2,4.1c-46.7,30.1-89.3,65.5-130.6,102.4c-3.8,3.4-8,6.6-10.4,11.6
			c-9.7,20.9-23.7,38.6-40.7,53.9c-6.3,5.7-14,8.4-22.7,7.7c-13.2-0.9-26.2-3.3-39-6.4c-17.8-4.4-35.4-9.2-54.5-14.1
			c29,30.6,53.7,62.6,68.1,101.4c-19.1-27.6-41.5-51.9-68.9-72.4c0,4.1,0,7.3,0,10.5c0,19.2-8.4,32.4-26.3,39.2
			c-13.1,5-23.2,13.2-31.3,24.4c-4.7,6.5-11.1,10.5-19.2,11.7c-9.2,1.4-18.5-0.1-27.7,0.9c-17.4,1.8-33.1,6-42.9,22.7
			c-5.9,10-15.5,15.4-27.1,18.2c-18.1,4.3-30.2,16.6-39.5,32.3c14.1-6.4,27.8-4.3,41.6,0.1c19,6,37.8,5.8,55.7-3.7
			c16.4-8.6,33.3-11.3,51.3-6c23.6,6.9,44.8,18.9,65.5,31.8c10.5,6.6,20.9,7.2,32,2.7c6.9-2.8,13.3-2.4,20.1,0.8
			c12.6,6.1,21.2,16.4,29.9,26.7c5,5.9,9.6,12.1,11.7,19.8c1.9,7,2.8,14.4-2.8,19.6c-5.4,5.1-11.4,0.4-16.5-2.2
			c-12.9-6.5-25.1-14.4-36.9-22.8c-10.1-7.1-20.9-12-33.1-14.4c-11.2-2.2-23.2-0.9-33.8-5.2c-25.3-10.1-50.9-9.6-76.9-3.9
			c-18.6,4.1-37.1,8.9-56.4,9.8c-11.9,0.6-23.7,2.7-35.6,4.3c-3.9,0.5-7.3,2.1-7.2,7c0.4,15.5,3.2,18.6,19.1,21.7
			c3.7,0.7,7.3,1.3,11.1,1.4c22,0.7,44-1.7,65.9,1.4c6.6,0.9,12.8-0.9,18.6-4.2c3.1-1.8,6.3-3.2,9.7-4.9
			C643.6,1288.5,643.8,1295.6,631.8,1299.4z M481.6,964.4c0.8,3.2-0.2,5.4-1,7.9c-3.5,10.7-8.8,20.5-14.1,30.4
			c-9.4,17.6-23,30.2-41.5,38.1c-17.8,7.6-35.1,16.4-50.9,27.9c-15.2,11-24.7,24.5-24.8,44.2c-0.1,14.3,0,28.4,2.1,42.5
			c2.3,15.7,5.9,31.2,13.5,45.5c7.6,14.3,18.9,16.8,30.1,5.8c17.6-17.1,28.7-37.8,33-62.2c1.9-10.7,1.6-22,6.9-31.9
			c9.5-17.9,12.7-37.5,15.5-57.2c3.2-23.1,14.1-42.8,26.3-63.1c1.1,3.8-0.8,5.5-1.7,7.4c-4.8,10.4-9.2,20.9-12,32
			c-1.7,6.6-1.8,13.3,2.6,19.2c9.8-3.9,15.1-9.9,13.5-21.1c-1.1-7.6-0.7-15.5,2.8-22.7c5.7-11.7,8-24.4,10.8-37
			c2.3-9.9,5.4-19.7,13.3-29.3c-3.6,11.5-7,21-9.5,30.8c-2.4,9.3-4.9,18.7-3.1,28.6c2.5,13.8,8.6,26,17.3,36.7
			c18.8,23,41.6,30.4,70,15.2c6.8-3.6,13.9-6.7,21.1-9.2c39.7-13.8,68.3,3.5,90.8,30.3c4.9,5.8,6.3,7,12,2
			c10.2-8.9,13.2-20.9,12.2-33.8c-1.1-14.7-7.2-27.8-15.2-39.9c-4.3-6.6-8.9-13.1-13.3-19.7c11,4.1,16.7,15,28.8,19.5
			c-5.4-8.8-10.6-16.6-10.8-26.1c3.1-1.2,5.5-0.7,7.5,1c12,10.2,27.3,12.3,41.7,15.6c19.1,4.3,38.7,3.4,58.3,1.3
			c24.6-2.6,38.2-18.5,51-37.3c-1,0.3-1.5,0.3-1.8,0.5c-38.4,28.3-80.3,37.9-126.8,24.1c-17.7-5.3-32.9-14.2-46.9-26
			c-19.9-16.8-34.4-37.5-44.6-61.3c-4-9.3-6.9-19.2-11.2-28.3c-6.4-13.8-12.8-27.7-30-31.7c-11.4-2.7-22.5-1.8-34-0.1
			c-12.9,1.9-21.1,7.8-26.7,20c-7.8,16.9-16.4,33.5-24.8,50.1c-11.4,22.8-27,42.9-43.4,62.5c-18.2,21.8-41.9,31.1-69.2,33.2
			c-22.9,1.7-45-1.6-66.2-10.7c-1,7.4-7.1,9.3-11.7,12c-23.4,13.3-31.8,45-24.2,66.3c3.9,10.9,13.3,16.7,24.6,14.9
			c5.1-0.8,10.2-2,15.1-3.9c28.5-11.2,52.2-29.8,74.8-49.8c16.6-14.7,31.6-31.2,46.8-47.4C469.7,974.3,474.2,968.1,481.6,964.4z
			 M751.9,799.5c50-6.8,98.9-1,148.8,13.9c-14.4-38.7-45.8-54.3-78.2-69c29.5,3.6,50.9,21.2,71.5,42.1c0.1-10.7-9-14.6-13.4-23.1
			c8.4,4.3,11.6,11.6,17.2,16.4c7.5-7.4-0.3-15.9,4.2-23.8c-25.8-3-49.3-11.3-73.9-14.9c-29.4-4.3-58.6-5.4-87.5,2.3
			c-34,9-60.5,27.4-74.3,61c-5.4,13-13.5,15.4-23.7,5.2c-12.3-12.4-27.3-16.7-43.8-17.9c-9-0.6-17.9,0.6-26.7,3.4
			c1,2.5,2.5,2.1,3.6,2.2c15.5,1.1,30.6,4.6,44.4,11.8c11.4,5.9,22.9,9.4,36,7.9c0.5,19.3,0.9,38.3,3.2,57.1
			c3.9,32.2,19.3,58.4,43.4,79.1c12.4,10.7,27.2,17.1,43.7,20.8c15.2,3.4,30.4,4.3,45,0.8c26.5-6.3,51.3-17.3,72-35.9
			c12.6-11.3,23.9-23.5,31-39.2c-2.5,2.3-5,4.6-9.1,8.4c3.7-8,8.2-13.4,9.7-20.3c-27.9-3.4-55.8-1.8-83.2-6.3
			c-22.8-3.7-45.6-6.9-66.1-19.1c-5.7-3.4-12.6-5.9-19.3-4.8c-8.7,1.5-16.1-0.3-23.1-5.3c-1.3-1-2.7-1.4-4.2-0.9
			c-8.4,3.3-16,3.5-21.5-5.2c-0.4-0.6-1.8-0.6-2.7-0.9c-9.5-3.5-11.4-6.2-9.3-16.3c5.9-29.5,20.9-53.2,47-68.7
			c26.7-15.9,56.4-18.5,86.6-16.6c4.8,0.3,10.5,0.7,13.5,6c-2.2,4-6.2,4.3-9.7,5.4c-23.4,7.7-46.7,15.7-67.9,28.4
			c-4.9,3-9.7,6.3-11.8,15.1c49-21.6,97.5-23,146.7-10.7C830.3,788.7,790.1,784.4,751.9,799.5z M971.6,846.5
			c24.9-18.6,52-31.9,82-38.3c29.4-6.2,57.8-2.7,84.2,12.9c8.7,5.2,16.7,11.3,24.6,17.6c-4.7-11.3-14.2-17.3-24.7-21.7
			c-41.1-17.3-85-20.9-128.6-25.7c-14.4-1.6-28.8-2.2-43.1-4.3c-22.3-3.3-36.7,4.1-43.1,23.4c-2,5.9-1.7,10.7,5.6,12.8
			c3.8,1.1,7.4,2.8,11,4.4c5.4,2.4,12.4,3.8,15.7,7.9C959.7,841.1,965,844.1,971.6,846.5z M762,855.1c2.9,4,6.1,5.4,9.2,6.9
			c18.9,9.5,39.4,11.8,60,13.2c22.1,1.5,44.3,1.1,66.2,3.8c3.2-7.4,5.1-18.6,4.2-25.5C855.4,841.6,809.2,846.1,762,855.1z
			 M903.1,910.3c9.9-9.3,21-19.7,32.1-30.1c11-10.4,22-20.8,33-31.2c-11.6,2.3-22.8,6.2-34.4,6c-10.6-0.2-13.8,4-14.7,13.8
			C917.7,884.6,909.9,898.3,903.1,910.3z M633.2,846.7c2-12.4-0.1-21.2-10.1-27.4c-14.1-8.7-29.6-11.7-47.3-13.4
			c4.5,4.1,4.5,7.4-0.1,11.3C600,818,620.4,824,633.2,846.7z" />
            <path fill-rule="evenodd" clip-rule="evenodd" fill="none" d="M485,1.5c-7.5,4.6-16,1.6-24,2.7c-20.2,2.7-40.3,5.9-60.4,9.4
			c-2.8,0.5-4.4,2.3-6,4.1c-15.6,17.2-31.6,34.1-49.3,49.2c-12.4,10.5-16.9,24.9-20.6,39.7c-1.5,5.9-2.5,11.6-6,17.1
			c-4.3,6.7-3.8,15.4-4.6,23.2c-1.6,15.4-2.1,30.9-3.1,46.3c-1.5,21.9-4.4,43.6-7.2,65.3c-2.4,19-4.4,38.1-6.3,57.2
			c-2.5,24.5-7.4,48.6-11.1,72.9c-2.2,14-4.8,27.9-7,41.9c-1.9,12-6.4,23.1-12.6,33.3c-5.5,9.1-6.1,18.6-5.3,28.5
			c1.4,16.4,3.7,32.8,4.1,49.2c0.4,15.1-1.6,30.1-5.3,45.1c-5.6,22.5-9.8,45.4-12.5,68.5c-3.2,27.4-7.8,54.5-15.1,81.1
			c-3.9,14.2-5,31.7,3.1,46.4c-14.1,5.2-18.1,10-16.2,19.8c2.9,14.7,11.7,22,26.6,21.7c2.3,5.5,5,10.6,9.6,14.9
			c3.6,3.3,3.1,8.2,3.1,12.7c-0.1,11.7-0.4,23.4,1,35.1c0.8,6.6,2.6,12.7,6.3,18.1c1.5,2.1,2.4,5.6,5.9,4.7c3.5-0.9,2.7-4.3,2.9-6.9
			c0.7-7.3-0.8-14.4-1.8-21.6c-4.4-31.3,0.9-60.4,19.6-86.4c14.7-20.4,35.6-31.5,59.1-37.9c24.9-6.7,50.1-6.8,75.4,0.3
			c-4.1,0-8.3-0.1-12.4,0c-4.2,0.2-8.5,0.7-12.7,1c-26.8,1.5-52.7,6.7-76.5,19.6c-25.7,14-41.3,35.3-45.8,64.4
			c-0.3,2.1-0.5,3.7,1.9,5c4.2,2.2,8.1,4.9,12.2,7.2c1.5,0.8,3.1,1.4,5.3,2.4c2-10.2,1.4-20.1,4-29.8c7-26.2,24.5-42.1,51.4-46.4
			c19.6-3.1,38.9-7.4,58.7-9.3c24.3-2.2,46.3,4,64.7,19.3c11.9,10,21.3,22.9,27.3,37.8c2.2,5.5-2.2,11.3-11.8,15.6
			c-0.5-5.8-0.4-11.6-1.5-17.1c-3.2-15.7-11.7-27.7-25.7-35.8c-29.1-17-58.9-17.7-89.1-3.3c-2.8,1.3-7.2,2.3-5.7,6.5
			c1.2,3.4,5.3,3.1,8.5,2.8c17.3-1.2,33.7,1.4,48.8,10.5c1,0.6,2.1,1.3,3.2,2.5c-45.6-17.1-77.9,3.2-105.5,36.8
			c22.4-20.3,47.4-35.7,78.9-33c30.4,2.6,56.3,15.1,75.3,39.8c-7.3,9.9-9.6,10.4-19.3,4.6c-18.1-10.7-37.5-17-58.8-16.1
			c-16.6,0.6-31.2,7.7-45.8,14.4c-4.1,1.9-8,4-11.9,6.3c-11.7,6.9-13,10.1-10.3,23.2c0.3,1.7,0.5,3.4,0.7,4.8
			c25.3,3.7,49.8,11.8,75.6,6.7c-10.3,6.6-38.1,11.9-51.8,11.2c-12.2-0.6-23.6-3.1-33.6-10.4c-3.1-2.2-5.9-4.6-7.9-7.9
			c-2.7-4.5-6.5-5.7-12.3-3.9c1.6,14.6,3,29.5-6.3,43c10.5,9.1,23.5,12.6,36.1,9.7c28.2-6.5,57.3-6.1,85.4-13c2.1-0.5,4.2-1,6.5-1
			c-13.2,7.5-27.5,12.4-42.2,16.1c-6.4,1.6-12.8,1.7-19.3,1.9c-2.8,0.1-4.2,1.3-4.5,3.8c-0.4,3,1.6,4.1,4.1,4.2
			c27.8,1.3,55.7,1.7,80.4-13.7c17.7-11.1,36.2-20.6,53.9-31.8c-19.1,54.5-96,110.6-175.2,62.4c-3.6,1.6-5,4.5-4.6,8.5
			c-15.1-5.6-23.9-16.9-44.3-56.7c-1.8,10,0.4,19.2,1.4,28.2c2.4,22,0.8,43.9,1.4,65.9c0.7,27,1.3,53.9,3.8,80.8
			c2.1,22,4.4,44,7.7,65.9c6.7,45,17.1,89.1,31.7,132.2c18.5,54.5,39.1,108,70.7,156.5c23.6,36.3,43.7,74.7,68.6,110.2
			c7.9,11.2,11.5,23.5,11.1,37.8c-0.9,31.2,2.2,62.3,5.7,93.3c2.1,18.9-5.2,35-14.4,50.6c-2.6,4.4-6.2,5.8-12.4,4.9
			c-17.5-2.5-34.8,0.5-51.5,6c-5.4,1.8-8.5,7.5-12.1,11.9c-10.3,12.6-21.2,24.5-35.7,32.5c-9.9,5.5-21.1,7.2-31.6,10.9
			c-23.3,8.2-45.9,18.8-70.5,23c-23,3.9-46.1,7.4-69.2,11.2c-26,4.3-51.9,8.5-77.8,13c-22.7,3.9-45.3,8.6-67.8,13.6
			c-18,4.1-27.9,15.1-31.3,32.7c-0.2,1-0.4,1.9-1.5,2.3c0-634.1,0-1268.2,0-1902.3C162.8,1.5,323.9,1.5,485,1.5z" />
            <path fill-rule="evenodd" clip-rule="evenodd" d="M1426.4,1648.6c-5.3-0.1-9-3.8-13.5-5.8c-10.2-4.6-20.1-9.8-31-12.6
			c-5.3-1.4-10.3-2.3-15.1,0.8c-2.3,1.5-3.7,0.2-5.5-0.5c-9.8-3.6-19.2-8.4-27.9-14.1c-6.1-4-12.2-5.5-18.8-1.7
			c-4.2,2.4-8.3,2.1-12.8,0.6c-21.2-7.1-36.3-21.1-46.7-40.5c-11.7-22-22.8-44.2-34.9-65.9c-11.2-20.2-23.5-39.9-35-59.9
			c-12.5-21.8-23.1-44.5-32.3-67.8c-1.5-3.8-3.2-7.5-5.3-12.4c4.7,2.1,7.5,4.3,9.3,7.5c22.3,40.2,42.1,81.6,62.2,122.9
			c14.4,29.6,32.6,57.1,52.1,83.6c7.1,9.7,17.3,15.7,28.2,20.3c4.3,1.8,8.6,2.4,13.5,0.3c8.5-3.6,17-1.9,24.8,3.1
			c5.5,3.5,10.9,7,16.4,10.3c5.3,3.2,10.4,5,17.4,3.9c9.6-1.5,18.3,4,26.4,8.7c9.7,5.5,18.8,11.9,28.1,17.9
			C1426.4,1647.6,1426.4,1648.1,1426.4,1648.6z" />
            <path fill-rule="evenodd" clip-rule="evenodd" d="M1142.6,937.8c4.9,6,9.1,11.4,15,15.4c7.6,5.1,14.7,2.5,22,0.1
			c3.5-1.2,3.3-4.3,3.6-7.4c2.1-21,5.4-41.8,13.5-61.5c10.1-24.3,36.2-38.9,59.5-33c14.6,3.7,21.4,14.9,25.3,27.9
			c5.8,19.3,6.2,39.3,6,59.3c0,2.5,0.4,6-2.4,7.4c-3.5,1.7-5.6-1.6-7.5-3.6c-5.2-5.7-9.2-12.2-12-19.5
			c-6.1-15.6-15.2-27.7-33.4-30.3c-11.2-1.6-19.5,2-25.2,12.4c-5.7,10.4-8.1,21.6-10.2,33.4c7.6,2.5,14.9,4.6,22,7
			c28.6,9.4,33.2,32.9,32.7,56.3c-0.2,10.4-2.5,20.7-6.9,30.3c-1.8,3.9-3.4,7.9-6.7,10.6c-3.9,3.3-8.3,3.8-10.3-1.7
			c-5.2-14.1-17.4-19.9-29.5-25.8c-8.2-4.1-16.5-8.1-25.1-11.4c-23.3-8.8-31.3-27.3-33.1-50.2
			C1139.3,944.7,1139.4,944.7,1142.6,937.8z" />
            <path fill-rule="evenodd" clip-rule="evenodd" d="M489.7,549.5c-14.8,0.4-27-4-36.9-13.6c-13.5-13.1-13.3-31.7-0.1-45.1
			c19.5-19.7,55.1-19.2,73.8,1c13.6,14.7,9.9,38-8.3,49.5C509.4,547,499.6,550.4,489.7,549.5z" />
            <path fill-rule="evenodd" clip-rule="evenodd" d="M443.4,400.9c-20,0.9-39.7-14.2-40.8-37.8c-1.1-23.5,17.9-41.9,41.7-41.9
			c21.4,0.1,39.6,18.1,39.2,39.6C483,383.2,466.4,401.6,443.4,400.9z" />
            <path fill-rule="evenodd" clip-rule="evenodd" d="M603,73.4c0.1,14.6,3.2,26.1,13.4,34.9c-8.5,6.1-22.3-2.9-26.4,12.1
			c11.7,4.8,23.5,9.6,35,14.3c1.2,2.7-0.2,4.8-0.2,7c0,5,0.9,8.7,7.1,10.4c7.5,2.1,14.5,6.3,21.8,9.5c1.8,0.8,2.3,1.8,2.7,3.7
			c3.3,14.1,7.5,17.7,21.9,16.3c11.5-1.1,21.4,1.7,30.9,7.9c4.5,2.9,5.4,6.7,3.6,12.4c8.9-1.4,13.5,1.6,11.9,10.8
			c-4.4,1.5-9.3,2-14.3,1.8c-3.1-0.1-6.7-0.8-7.6-3.8c-2.2-7.3-8.5-8.1-14.2-10c-5.2-1.8-10.7-1.8-16-3.6c-5-1.7-10.1-4.2-16.2-1.8
			c5.2-11.6-0.8-23.6-14.2-28.3c-5.1-1.8-8.9-3.9-11.3-8.6c-5.7-10.8-14.7-14.7-26.8-14.5c-14.9,0.2-18.6-10.3-21.1-20.9
			c-1.3-5.7-0.2-12-0.4-18c-0.1-3.8,3.3-3.8,5.4-5.1c3.2-2,5.9-3.2,4.1-8.6C589.4,83.7,596.7,80,603,73.4z" />
            <path fill-rule="evenodd" clip-rule="evenodd" d="M670.8,233.6c19.3-4.3,38.6-4.1,58.1-3c53.3,3.1,105.2,15.1,157.6,23.6
			c10.3,1.7,20.6,3.4,31.2,2.5c3.3-0.3,7-0.7,8.4-3.9c1.5-3.5-1.3-6.1-3.6-8.4c-7.2-7.1-15.6-12.2-24.7-16.4
			c-2.4-1.1-6.2-1.3-5.5-5.8c0.7-4.4,2.6-7.6,7-8.7c4.2-1,8.4-0.3,12.5,1.1c12.8,4.5,23.8,11.3,29.4,24.4c3.6,8.3,1.1,16.7-6.5,21.5
			c-7.9,5-16.4,6.8-25.6,4c-40.3-12.4-81.6-18.7-123.5-23.2C747.4,237.2,709,236,670.8,233.6z" />
            <path fill-rule="evenodd" clip-rule="evenodd"
                d="M651.9,118.3c18.6,14.1,41.8,19.7,63,33.1c-6.5,0-11.1,0-16,0
			c5.6,9.7,9.3,11.2,29.1,12.1c0.9,3-0.9,6.6,1.6,9.2c2.8,2.9,1.8,5.5-0.8,8.2c12.1,10,26.3,15.6,39.4,24.5c-4.1,4.6-9.6,5.2-14,7.7
			c-2.3,1.3-3.6-0.8-5-2.2c-10.7-10.7-21.7-21.3-32.9-31.5c-13.9-12.8-28-25.4-42-38.2c-7.9-7.2-15.3-14.9-22.9-22.4L651.9,118.3z" />
            <path fill-rule="evenodd" clip-rule="evenodd" d="M1263.3,1035.7c-4.6,21.5-8.6,43.7-30.1,55.9c-4.3,2.4-10.6,6.8-14,2.5
			c-3.2-4,3.4-8.2,5.8-12.2c7.4-12.7,21.1-19.7,29.1-31.9C1257.2,1045.2,1260.2,1040.5,1263.3,1035.7z" />
            <path fill-rule="evenodd" clip-rule="evenodd" d="M651.4,118.9c-9.6-6.6-17.3-15.5-26-23.1c-6.4-5.6-11.4-12.9-14.9-17.1
			c17.1,6.5,30.6,21.6,41.5,39.7L651.4,118.9z" />
            <path fill-rule="evenodd" clip-rule="evenodd" d="M1204.7,1685.8c12.8-12.9,25.8-25.6,38.7-38.3
			C1233.1,1662.9,1219.1,1674.6,1204.7,1685.8z" />
            <path fill-rule="evenodd" clip-rule="evenodd" fill="none"
                d="M631.8,1299.4c12.1-3.8,11.9-10.9,10.7-20.4
			c-3.4,1.7-6.7,3.1-9.7,4.9c-5.8,3.3-12,5.1-18.6,4.2c-21.9-3.1-43.9-0.7-65.9-1.4c-3.8-0.1-7.4-0.7-11.1-1.4
			c-15.9-3.1-18.7-6.2-19.1-21.7c-0.1-4.9,3.3-6.4,7.2-7c11.8-1.6,23.7-3.7,35.6-4.3c19.3-0.9,37.8-5.8,56.4-9.8
			c26-5.7,51.6-6.2,76.9,3.9c10.6,4.3,22.6,2.9,33.8,5.2c12.2,2.4,23.1,7.3,33.1,14.4c11.8,8.3,23.9,16.3,36.9,22.8
			c5.1,2.6,11.1,7.2,16.5,2.2c5.6-5.2,4.7-12.6,2.8-19.6c-2.1-7.7-6.8-13.9-11.7-19.8c-8.7-10.3-17.3-20.6-29.9-26.7
			c-6.8-3.3-13.2-3.7-20.1-0.8c-11.1,4.5-21.5,3.9-32-2.7c-20.6-13-41.9-24.9-65.5-31.8c-17.9-5.3-34.9-2.6-51.3,6
			c-18,9.5-36.7,9.7-55.7,3.7c-13.8-4.4-27.5-6.5-41.6-0.1c9.3-15.7,21.4-28,39.5-32.3c11.6-2.8,21.2-8.2,27.1-18.2
			c9.9-16.7,25.6-20.9,42.9-22.7c9.2-1,18.5,0.6,27.7-0.9c8.1-1.3,14.5-5.2,19.2-11.7c8.1-11.2,18.2-19.4,31.3-24.4
			c17.9-6.8,26.4-20,26.3-39.2c0-3.2,0-6.4,0-10.5c27.4,20.5,49.9,44.8,68.9,72.4c-14.4-38.8-39.1-70.8-68.1-101.4
			c19,5,36.7,9.7,54.5,14.1c12.8,3.2,25.8,5.5,39,6.4c8.7,0.6,16.4-2.1,22.7-7.7c17-15.3,31-33,40.7-53.9c2.3-5,6.6-8.2,10.4-11.6
			c41.3-37,83.9-72.3,130.6-102.4c40.1-25.8,87.9-24.7,126.2-4.1c-12,19.2-21.6,39.4-27.2,61.6c-6,23.8-5,47.3-0.6,71.1
			c4.6,24.7,8.6,49.5,11.5,74.6c4.2,36.8,4.5,73.8,5.2,110.7c1,57-1.9,113.6-17.5,168.9c-5.3,18.6-15.2,34.9-26.7,50.3
			c-31.3,41.8-73.2,71.6-115.5,100.9c-14.9,10.3-29.9,20.7-47.5,26.2c-7.5,2.3-10.7,0.1-11.2-7.7c-0.7-11.8,3.1-22.6,7.3-33.2
			c6.6-16.9,13.3-33.9,25.8-47.7c2.1-2.4,3.3-5.6,2.8-9c-2.7-16-10.8-28.4-25.3-35.7c-10.4-5.2-19.7-2.7-27.9,5.5
			c-10.1,10.1-17.1,22.7-26.8,33.1c-20.5,22.2-45.3,38-72.9,49.7c-31.5,13.3-63.8,23-98.5,23.9c-36,0.9-69.2-8.6-100.9-24.8
			c-5.5-2.8-11.3-5.4-16.4-8.8c-15.7-10.6-32.2-11.1-49.9-6.4c-23.7,6.3-47.5,7.6-71.5,0.8c-22.2-6.3-31.4-21.4-25.6-43.6
			c4.8-18.3,14.2-34.4,25.6-49.3c7.9-10.3,20.6-11.8,32.1-13.5c26.3-4,52.2-9.2,78.2-14.6c15.5-3.3,31.5-4.9,47.5-3.9
			c7.2,0.4,14.5,0.5,21.8,0.2c4.9-0.2,9.7-2.1,11.3-7.1c1.6-5-2.2-8.5-5.8-11.2C644.3,1307.6,638.4,1303.9,631.8,1299.4z" />
            <path fill-rule="evenodd" clip-rule="evenodd" fill="none" d="M481.6,964.4c-7.4,3.7-11.9,9.9-17,15.3
			c-15.2,16.2-30.2,32.6-46.8,47.4c-22.6,20-46.2,38.6-74.8,49.8c-4.9,1.9-10,3.1-15.1,3.9c-11.3,1.8-20.7-4-24.6-14.9
			c-7.6-21.3,0.7-53,24.2-66.3c4.6-2.6,10.6-4.6,11.7-12c21.2,9.1,43.4,12.4,66.2,10.7c27.3-2.1,51-11.4,69.2-33.2
			c16.4-19.6,32-39.7,43.4-62.5c8.3-16.7,17-33.2,24.8-50.1c5.6-12.2,13.8-18,26.7-20c11.5-1.7,22.5-2.6,34,0.1
			c17.2,4,23.6,18,30,31.7c4.3,9.2,7.2,19,11.2,28.3c10.2,23.8,24.7,44.5,44.6,61.3c14,11.8,29.2,20.8,46.9,26
			c46.5,13.8,88.4,4.2,126.8-24.1c0.3-0.2,0.7-0.2,1.8-0.5c-12.8,18.8-26.3,34.7-51,37.3c-19.7,2.1-39.2,3-58.3-1.3
			c-14.4-3.2-29.7-5.3-41.7-15.6c-2-1.7-4.4-2.2-7.5-1c0.3,9.5,5.4,17.3,10.8,26.1c-12.1-4.5-17.8-15.4-28.8-19.5
			c4.5,6.6,9,13.1,13.3,19.7c8,12.2,14.2,25.2,15.2,39.9c0.9,12.9-2.1,24.8-12.2,33.8c-5.7,5-7.2,3.7-12-2
			c-22.5-26.7-51.1-44.1-90.8-30.3c-7.2,2.5-14.4,5.6-21.1,9.2c-28.4,15.2-51.2,7.8-70-15.2c-8.7-10.6-14.8-22.8-17.3-36.7
			c-1.8-9.9,0.7-19.3,3.1-28.6c2.5-9.8,5.9-19.3,9.5-30.8c-7.9,9.6-11.1,19.4-13.3,29.3c-2.9,12.6-5.1,25.2-10.8,37
			c-3.5,7.2-3.9,15.1-2.8,22.7c1.6,11.2-3.7,17.2-13.5,21.1c-4.4-5.9-4.3-12.5-2.6-19.2c2.8-11.1,7.2-21.6,12-32
			c0.9-1.9,2.8-3.6,1.7-7.4c-12.2,20.4-23.1,40.1-26.3,63.1c-2.8,19.7-5.9,39.3-15.5,57.2c-5.3,9.9-5,21.2-6.9,31.9
			c-4.3,24.4-15.4,45.1-33,62.2c-11.2,10.9-22.5,8.4-30.1-5.8c-7.6-14.2-11.1-29.7-13.5-45.5c-2.1-14-2.2-28.2-2.1-42.5
			c0.1-19.7,9.6-33.2,24.8-44.2c15.8-11.4,33.1-20.3,50.9-27.9c18.5-7.9,32.1-20.5,41.5-38.1c5.3-9.9,10.6-19.7,14.1-30.4
			C481.4,969.9,482.5,967.7,481.6,964.4z" />
            <path fill-rule="evenodd" clip-rule="evenodd" fill="none" d="M751.9,799.5c38.2-15.1,78.4-10.8,118-11.5
			c-49.3-12.2-97.7-10.9-146.7,10.7c2-8.9,6.8-12.2,11.8-15.1c21.2-12.8,44.5-20.8,67.9-28.4c3.4-1.1,7.5-1.4,9.7-5.4
			c-3-5.3-8.8-5.7-13.5-6c-30.2-2-59.9,0.6-86.6,16.6c-26.1,15.6-41.1,39.2-47,68.7c-2,10.1-0.1,12.8,9.3,16.3
			c0.9,0.3,2.3,0.3,2.7,0.9c5.5,8.8,13.1,8.5,21.5,5.2c1.5-0.6,2.8-0.1,4.2,0.9c6.9,4.9,14.3,6.8,23.1,5.3
			c6.7-1.1,13.6,1.4,19.3,4.8c20.5,12.1,43.3,15.4,66.1,19.1c27.4,4.4,55.3,2.8,83.2,6.3c-1.5,7-6,12.3-9.7,20.3
			c4.1-3.8,6.6-6.1,9.1-8.4c-7.1,15.7-18.4,28-31,39.2c-20.7,18.5-45.5,29.5-72,35.9c-14.6,3.5-29.7,2.5-45-0.8
			c-16.5-3.7-31.3-10.1-43.7-20.8c-24.1-20.8-39.5-47-43.4-79.1c-2.3-18.8-2.7-37.8-3.2-57.1c-13.1,1.5-24.6-2-36-7.9
			c-13.8-7.1-28.8-10.6-44.4-11.8c-1.1-0.1-2.5,0.3-3.6-2.2c8.8-2.8,17.7-4.1,26.7-3.4c16.5,1.2,31.5,5.4,43.8,17.9
			c10.1,10.3,18.3,7.8,23.7-5.2c13.9-33.6,40.4-52,74.3-61c28.9-7.6,58.1-6.5,87.5-2.3c24.6,3.6,48.1,11.9,73.9,14.9
			c-4.5,7.9,3.3,16.4-4.2,23.8c-5.6-4.8-8.7-12.1-17.2-16.4c4.4,8.6,13.5,12.5,13.4,23.1c-20.5-20.9-42-38.5-71.5-42.1
			c32.4,14.7,63.8,30.4,78.2,69C850.8,798.5,801.9,792.7,751.9,799.5z M723.1,866.1c11.8,35.3,65.8,59.1,124.3,45.4
			c-23.5-5.1-44.6-10.5-65.6-16.5C760.5,888.8,741.7,877.9,723.1,866.1z M666,851.5c-3.7,38.7,35.6,98.2,67.1,103.5
			C697.8,929.6,673.9,896.9,666,851.5z" />
            <path fill-rule="evenodd" clip-rule="evenodd" fill="none" d="M971.6,846.5c-6.6-2.4-11.9-5.4-16.5-11.1
			c-3.3-4.2-10.3-5.5-15.7-7.9c-3.6-1.6-7.2-3.4-11-4.4c-7.3-2-7.6-6.8-5.6-12.8c6.5-19.3,20.9-26.7,43.1-23.4
			c14.3,2.1,28.8,2.8,43.1,4.3c43.6,4.8,87.5,8.4,128.6,25.7c10.5,4.4,20,10.4,24.7,21.7c-7.9-6.3-15.9-12.4-24.6-17.6
			c-26.4-15.6-54.8-19.1-84.2-12.9C1023.6,814.6,996.5,828,971.6,846.5z" />
            <path fill-rule="evenodd" clip-rule="evenodd" fill="none" d="M762,855.1c47.2-9,93.3-13.5,139.6-1.6c0.9,6.8-1,18-4.2,25.5
			c-22-2.7-44.2-2.3-66.2-3.8c-20.6-1.4-41.1-3.7-60-13.2C768.1,860.5,765,859.1,762,855.1z" />
            <path fill-rule="evenodd" clip-rule="evenodd" fill="none" d="M903.1,910.3c6.8-12,14.6-25.8,16-41.6c0.9-9.8,4.1-14,14.7-13.8
			c11.6,0.3,22.8-3.7,34.4-6c-11,10.4-22,20.8-33,31.2C924.1,890.7,913,901.1,903.1,910.3z" />
            <path fill-rule="evenodd" clip-rule="evenodd" fill="none" d="M633.2,846.7C620.4,824,600,818,575.6,817.1
			c4.6-3.8,4.6-7.2,0.1-11.3c17.8,1.7,33.2,4.7,47.3,13.4C633,825.5,635.2,834.3,633.2,846.7z" />
            <path fill-rule="evenodd" clip-rule="evenodd" d="M723.1,866.1c18.6,11.8,37.4,22.7,58.7,28.9c21,6.1,42.1,11.4,65.6,16.5
			C788.9,925.2,734.9,901.4,723.1,866.1z" />
            <path fill-rule="evenodd" clip-rule="evenodd"
                d="M666,851.5c7.9,45.4,31.7,78,67.1,103.5C701.6,949.7,662.3,890.2,666,851.5z" />
        </g>
    </g>
</svg>