<?xml version="1.0" encoding="utf-8"?>

<!DOCTYPE svg PUBLIC "-//W3C//DTD SVG 1.1//EN" "http://www.w3.org/Graphics/SVG/1.1/DTD/svg11.dtd">
<svg version="1.1" id="Layer_1" xmlns="http://www.w3.org/2000/svg" xmlns:xlink="http://www.w3.org/1999/xlink"
    viewBox="0 0 1212 1323.4" xml:space="preserve">
    <g>
        <g>
            <path fill-rule="evenodd" clip-rule="evenodd" fill="none" d="M3.3,1324.5c-0.7-0.5-2.3,1.1-2.2-1.1c0.1-1.3,0-2.6,0-3.9
			c0-439.5,0-879,0-1318.5c207.3,0,414.7,0,622,0c-1.5,0.9-3.2,0.8-4.8,0.9c-17.1,0.7-34.1,2.3-51,4.5c-30.3,4-60,10.5-89.1,20
			c-1.4,0.4-2.9,0.7-3.9,2c0.2,2.6,1.6,4.8,2.4,7.2c0.5,1.4,0.8,2.7,0.1,4.2c-2.6,6.1-2.7,12.5-1.9,19c0.9,7.1,1.9,14.2,2.7,21.3
			c0.2,2.1,0.7,4.7-0.9,6.4c-3.1,3.3-5.6,7.2-10,9.2c-4.3,1.9-8.6,3.9-12.8,6.9c3.9,28.7,7.4,57.3,11.8,85.8c3.1,0,5-1.3,7-2.1
			c3.3-1.5,6.6-3.3,10-4.7c10-4.3,23-1.4,30.4,6.5c1.8,2,1.9,3.8,0.6,5.9c-1.6,2.5-3.7,4.6-6,6.4c-10.9,8.2-22.6,14.3-36.7,14.6
			c-6.5,0.1-9,2.4-9.4,8.4c-0.6,9.4-3.8,17.9-7.9,26.2c-3.1,6.3-5.2,13-5.7,20c-0.4,6.4-0.3,12.9,0.4,19.3
			c0.8,7.7,1.2,15.4,0.6,23.1c-0.3,3.7-1.1,7.3-2.5,10.7c-2.8,7-8.1,11.3-15.5,12.6c-2.9,0.5-5.8,0.7-8.8,0.9
			c-4.6,0.4-8.9,1.8-11.7,5.4c-5.4,6.9-12.5,11.3-19.9,15.4c-4,2.2-7.9,4.7-11.2,8c-2.1,2.1-3.9,4.4-4.9,7.2
			c-1.5,4.1-0.6,6.4,3.7,7.2c3.5,0.6,4.6,2.6,4.8,5.6c0.3,4.6-0.3,9.2-0.9,13.7c-0.6,4.5-1.8,9,0.2,13.9c6-0.3,9.2-5,13.1-8.2
			c4.2-3.5,7.8-7.7,12.4-11c11.2,6.9,22.2,13.7,33.3,20.5c5.2-4.4,9.9-8.4,14.8-12.4c12.2-9.9,25.4-18.1,40.2-23.7
			c3.8-1.4,7.7-2.5,11.7-2.9c4.8-0.4,8.1,1.6,10.2,5.9c1.7,3.5,2.7,7.2,3.7,11c4.3,17.7,6.7,35.7,8.8,53.8c1.7,14.6,3.1,29.2,2.4,44
			c-0.1,3-0.5,5.9-1.4,8.7c-1.9,6.2-5.6,8-11.9,5.9c-2.8-1-5.4-2.4-7.8-4c-3.5-2.4-7-4.8-10.4-7.3c-10.8-7.7-22-14.7-34.1-20.2
			c-5.4-2.4-10.8-4.8-16.7-5.3c-7.5-0.6-13.7-3.7-19.4-8.5c-1.4-1.2-2.8-2.4-4.3-3.5c-4.1-2.9-5.8-2.9-8.6,1.4
			c-4.3,6.5-9.8,5.8-14.9,1.3c-4.7-4-8-9.1-10.8-14.5c-2.9-5.5-5.6-11.2-8.4-16.7c-0.6-1.2-1-2.7-3.2-3.3c0.8,9.2,2.8,17.7,6.1,25.9
			c4.3,11,10.8,20,22.6,24c0.5,0.2,1,0.5,1.5,0.7c3.8,1.9,5.8,5,5.8,9.3c0,3.5,0,7-0.4,10.5c-2.9,23.5-5.6,47.1-7.8,70.6
			c-2.7,28.7-4.7,57.5-4.2,86.4c0.2,9.2,0.8,18.3,2.2,27.4c2,13.1,4,26.1,5,39.3c0.6,8.4,0.8,16.9,1.7,25.3
			c1.9,16.8,10.8,28.7,26.5,34.9c6.3,2.5,11.8,5.9,16.9,10.1c10.8,8.6,20.5,18.4,30.4,28c12.9,12.6,25.8,25.3,41,35.1
			c8,5.1,12.8,11.8,14.4,21c4.6,26.6,7.2,53.5,9.8,80.4c0.5,5.3,0.9,10.6,0.2,16c-0.9,6-2.9,8.3-8.9,9.7c-1.1,0.3-2.1,0.6-3.2,0.7
			c-16,1.8-29.2,9.4-41.2,19.4c-12.9,10.7-27.4,18.3-43.7,22.7c-15.4,4.1-30.9,8.2-46.3,12.3c-55.3,14.4-108.9,33-159.4,60.1
			c-3.2,1.7-5.6,3.3-5.2,7.3c0.1,0.5-0.3,1-0.6,1.8c-9.6,1.9-19.3,3.9-29,5.7c-4.3,0.8-7.7,2.4-10.8,5.7
			c-44.7,46.5-89.6,92.8-134.5,139.2c-20.6,21.3-41.2,42.5-61.7,63.8c-2,2.1-4.6,3.8-5,7L3.3,1324.5z" />
            <path fill-rule="evenodd" clip-rule="evenodd" fill="none" d="M3.3,1324.5l0-0.5c7-4.1,13.2-9.3,19.6-14.2
			c28.8-21.6,58-42.8,89.3-60.6c19.2-10.9,38.9-20.9,60.3-26.7c11.4-3.1,23-5.1,34.8-2.8c13.9,2.7,23.2,10.8,28.7,23.8
			c-5.3,3.8-11,6.2-16.1,11.2c5.2-1.5,9.4-2.5,13.5-4c2.3-0.8,5.2,1,6.5-0.4c3.2-3.4,4.3,1.4,7.1,1.1c1.5-1.6,2.8-4,6.1-4.2
			c7.3-0.5,14.6-1.5,21.9-2.3c15.9-1.6,31.9-2.5,47.6-5.4c17.8-3.3,35-8.4,49.7-19.6c0.4-0.3,1-0.4,1.6-0.6c1.3,1.4,1.6,3.3,2.2,4.9
			c3.2,9,6.4,18,10.9,26.4c1.3,2.4,2.2,5.1,5.5,6.4c10.3-6.3,12.6-18.4,19.2-27.5c0.6,13-0.6,25.9,0.9,38.7
			c1.6,13,5.2,25.3,12.2,37.7c1.7-8.5,3.3-16,4-23.6c1.6-17.3,0.6-34.5-0.4-51.8c-0.7-11.4-1.5-22.7-4-33.9c-0.5-2.3-0.7-4.9-3-6.3
			c-3.1-1.9-3.7-4.9-3.8-8.1c-0.2-4.9-2-9.3-4.4-13.5c-2.2-3.7-5-6.8-7.9-9.8c-7.6-7.7-12-17.1-13.8-27.7c-1.2-7-1-14.1,4.4-20.9
			c-4.6,1-7.2,3.1-10,4.7c-2.9,1.6-5.7,3.4-8.7,4.8c-3.8,1.7-5.7,1-8-2.4c-0.6-0.9-0.9-2.1-1.6-2.9c-2.2-2.4-3.8-5.6-7.9-4.9
			c-1.9,0.3-2.6-1.1-3.1-2.5c-1.7-4.3-0.3-8,2.9-11c8.6-8.3,18.9-12.5,30.8-12.6c0.5,0,1.1,0,1.6,0.1c3.9,0.7,4.8,2.9,2.4,6.2
			c-1.3,1.8-3.1,3.1-5,4.3c-3.1,2.1-6.5,3.4-9.9,4.9c-1.2,0.5-2.8,0.7-3.4,2.8c3.1,0.8,6.2,0.4,9.3,0.6c5.2,0.4,10.4,0.9,14.4,4.6
			c2.7,2.5,5.8,3.7,9.3,4.3c12.5,2,24.9,1.4,37.3-0.6c6.6-1.1,12.9-2.8,17.6-8.2c1-1.2,2.7-1.9,4.1-2.7c4.2-2.4,8.3-2.4,12.4,0.5
			c4.1,2.8,8.1,5.8,11.7,9.2c16.8,15.8,33.1,31.9,43.2,53.1c1.7,3.6,4.5,6.5,8.6,7c8.8,1,17.6,0.5,26.1-2.5c3.6-1.3,5.7-3.8,5.8-7.8
			c0.1-2.6,0.3-5.1,0.6-7.7c0.4-2.9,0.4-5.9,2.7-8.5c5.2,2.2,7.6-1.3,10-5c0.7-1.1,1.3-2.2,1.8-3.4c3-7.3,8.2-12.5,14.6-16.8
			c4.6-3.1,9.5-5.6,14.5-7.9c20-8.9,37.9-21,54.2-35.4c5.5-4.9,11.4-9.3,17.5-13.4c7.5-5,15.2-9.6,23.9-12.3
			c13.9-4.3,27.1-10.2,39.8-17.3c8.5-4.8,17.2-9.1,26.1-13c20.9-9.1,42.2-17.1,63.8-24.2c26.6-8.8,51.9-20.5,76.6-33.6
			c2.8-1.5,5.8-2.9,8.5-5.8c-3.7-0.9-6.4,0.4-9,1.3c-9.1,2.9-17.7,7.2-26.6,10.7c-66.5,26.7-133.8,51.1-202.8,70.5
			c-19.3,5.4-38.4,11.2-57.9,15.9c-3.9,1-7.1,0.5-10.3-2c-4.3-3.4-8.3-7.2-12.3-11c-6.1-5.9-8.7-12.9-8.4-21.3
			c0.5-12.5,1.9-24.9,3.1-37.3c1.1-11.1,2.6-22.3,4-33.4c0.7-5.8,1.6-11.6,3.9-17.2c2.2,0.4,4.2,0.7,6.2,1.1c15.2,3,30.5,4.6,46,4.5
			c13.4,0,26.8-0.3,40.2-0.8c14.1-0.6,28.2-2.1,42.1-4.7c28.2-5.3,52.5-18.3,74-37.1c4-3.5,7.8-7,13.2-8.6c4.2-1.2,7.8-4.2,8-8.9
			c0.2-4.5,2-8,4.6-11.4c0.6-0.8,1.5-1.6,1.3-3.5c0,0-0.5-0.3-1-0.6c-12.3-6.9-24.1-14.8-36.1-22.3c-3.2-2-6.2-2.5-9.9-1.8
			c-12.6,2.4-25.3,4.7-37.9,7c-1.8,0.3-3.6,0.7-5.4,0l0,0c1.7-3.4-1.7-6.6-0.4-10.3c1.2-0.5,2.5-1,3.9-1.5
			c10.2-3.6,20.4-7.2,30.6-10.9c12.6-4.6,24.9-9.8,36.6-16.6c7.3-4.2,10.9-10.3,9.7-18.8c-1.7-11.9,4-20.5,12.1-28.1
			c2.3-2.2,5-4,8.2-4.4c4.2-0.5,6.5-3.2,8.1-6.6c1.3-2.6,2.1-5.5,3.2-8.2c1.7-4.2,3.9-8.4,8.6-9.4c10.1-2.1,18.9-7,27.8-11.8
			c11-6,21.7-12.4,32.5-18.6c1.2-0.7,2.2-1.6,3.8-1.7c0.4,2.1-0.8,3.4-1.4,4.9c-1.9,4.8-4,9.5-5.8,14.3c-2.8,7.1-2.5,14,1.3,20.7
			c1.3,2.2,2.4,4.6,3.4,6.9c1.7,3.8,1.1,7.2-2.2,9.9c-1.8,1.5-3.7,3-5.7,4.3c-5.2,3.5-10.5,6.8-15.7,10.2c-1.1,0.7-2.8,1.2-2.8,3
			c1.5,0.6,2.9,0.2,4.3-0.1c5.6-1.1,11.1-2.4,16.7-3.6c8.3-1.7,16.6-3.1,25.1-3.6c7.8-0.4,15,0.8,20.3,7.4c1.3,1.7,3.4,2.8,5.2,4
			c3.7,2.4,7.2,2.1,10.7-0.6c3.2-2.5,5.9-5.5,8.3-8.8c9.1-12.2,15.7-25.7,20.1-40.2c4.2-13.9,8.4-27.8,13.3-41.4
			c9.1-25.3,19-50.2,32-73.7c4.6-8.2,10-15.7,16.8-22.4c12.1-12,20.8-26.1,24.3-43c2.7-13,4.4-26.1,5.5-39.3c1.6-20,2.4-40,0.7-60
			c-0.4-5.1-1-10.3-2.5-15.2c-0.8-2.6-1.4-5.5-5.2-5.5c-1.4,0-1.7-1.3-2-2.3c-0.5-2.5-1-5-1.3-7.6c-1.1-8.4-1.1-16.9-1.2-25.3
			c-0.2-19.9-1.8-39.6-5.5-59.2c-2.6-13.9-6.1-27.6-13.6-39.9c-3.6-5.8-5.2-12.5-6.1-19.3c-0.2-1.6-0.4-3.3-0.8-4.9
			c-1.4-5.1-2.4-5.8-7.7-5.2c-1.7,0.2-3.4,0.2-4.4-1.4c-1.1-1.8-0.5-3.6,0.8-5.1c0.7-0.8,1.5-1.7,2.5-2.1c4.5-2,5.3-5.9,4.9-10.1
			c-0.7-8-2.9-15.8-8.1-21.9c-4.4-5.2-7.2-10.9-9.7-17.1c-1-2.4-2.1-4.7-3.2-7c-16.9-35.7-41.8-65.1-72.1-90.1
			C948.9,78.3,909.2,57,866.7,40.8C805.6,17.5,742.2,5.2,677,2.1c-2.2-0.1-4.4,0.3-6.4-1c181.2,0,362.5,0,543.7,0
			c0,441.1,0,882.3,0,1323.4C810.6,1324.5,407,1324.5,3.3,1324.5z M1039.9,921.6c-11,11.3-22,22.6-32.9,33.8c1.1,2.2,3,3.1,4.6,4.2
			c20.9,15,44.1,24.9,69,30.8c38.2,9.1,77,11,116,9.8c4.6-0.1,9.1-1.1,13.6-2.2c1.6-0.4,2.8-1,3.1-2.7c0.3-1.7-0.8-2.7-2.1-3.5
			c-3.3-2-6.9-3.4-10.6-4.6c-23.7-7.7-47.8-13.1-72.7-14.6c-8.8-0.5-17.5-1.9-25.5-6.2c-5.3-2.8-10.9-5.2-16.3-8.1
			c-16.9-9.2-32.5-20.1-44.5-35.5C1041.2,922.4,1040.7,922.2,1039.9,921.6z M459.3,1175.7c-2,10-4,19.3-4.8,28.8
			c-2.3,26.6-2.7,53.2-2.1,79.8c0.1,6.2,0.6,12.5,1.2,18.7c0.6,5.9,1.1,6.4,6.9,7.5c7.2,1.4,14.6,1.3,21.9,1.3c8.2,0,13-4,15.7-11.4
			c3.2-8.8,6.2-17.7,8.9-26.6c0.3-0.9,0.9-2-0.7-3.1c-4.6,5.7-9.1,11.5-14.4,18c-0.9-5.9-1.6-10.4-2.3-14.9
			c-2.2-15.7-5-31.2-11-45.9c-6.2-15.3-11.7-30.9-16.7-46.7C461.5,1179.6,461.4,1177.7,459.3,1175.7z M1055.1,1041.9
			c0.1-0.2,0.3-0.9,0.7-1.5c5.6-7.7,9.3-16.4,10.3-25.8c1-9.9-1.8-18.9-9.5-25.9c-8.9-8.1-19.2-11-31-8.3
			c-18.9,4.2-27.7,21.7-19.6,39.3c2.5,5.5,6,10.5,10,15.1c0.7,0.8,1.4,1.9,3,2.1c-0.6-2.6-1.2-4.7-1.6-6.8c-1.2-5.8-2-11.6-0.5-17.4
			c0.7-2.9,1.6-5.5,5.2-6.5c-1.9,2.6,0.1,3.7,1.4,5.1c9.2,9.4,18.5,18.9,27.8,28.3C1052.1,1040.2,1052.8,1041.4,1055.1,1041.9z
			 M526,1272.6c-3.4,8.9-6,17.5-5.4,26.7c0.4,5.8,1.5,7.3,7,9.2c1,0.4,2.1,0.6,3.2,0.9c14.9,3.3,29.8,3.8,44.9,1.6
			c3.4-0.5,6.9-1.2,9.6-3.8c8.1-8,18.4-11.9,28.9-15.2c3.5-1.1,6.9-0.4,10,1.7c1.8,1.3,3.4,2.8,5.2,4c1.7,1.2,3.3,3,5.8,2.4
			c1.7-1.6,0.7-3.2,0.2-4.7c-2.3-5.8-5.4-11.3-10.1-15.6c-5.1-4.7-11.1-7-18.1-6.2c-5,0.6-8.8,3-10.4,7.8c-1.8,5.5-5.5,9.5-10,12.8
			c-7.9,5.9-16.8,9.7-26.6,11.3c-6,1-11.3-0.4-15.9-4.4c-4.9-4.2-8.8-9.3-11.7-15.1C530.3,1281.4,528.1,1277.1,526,1272.6z
			 M590.6,1280.5c6.1-8.9,4.2-21.2-4.4-29.6c-7.4-7.2-19-9.3-25.5-4.6c0.2,2.3,2,3.8,3.1,5.6c1.3,2.1,2.9,4.4,1.8,6.7
			c-2.2,4.9,0,8.4,2.6,12.1c1.3,1.9,3.2,3.6,2.7,6.3c-3.8,0.9-5.6,0.2-7.8-3c-0.9-1.4-1.5-3-2.5-4.3c-1.6-2-3.7-1.7-4.7,0.6
			c-2.8,6.4,1.7,14.1,8.6,14.7c7,0.6,13-1.5,17.8-6.8c1.1-1.2,1.7-2.9,3.6-2.9C588.5,1276.1,588.2,1279.1,590.6,1280.5z
			 M583.8,1234.1c5.2,8.8,10,17.7,16.5,25.4c0.9,1.1,2,2.1,3.2,3.1c3,2.6,6.4,3.4,10.3,2.5c3.8-0.9,7.4-2.2,10.7-4.3
			c7.1-4.5,7.3-10.2,0.6-15.4c-2.9-2.3-6.3-3.8-9.7-5.1C605.1,1236.7,594.6,1235.5,583.8,1234.1z M1110.6,946.6
			c-0.1-1.8-1.7-2.2-2.9-2.9c-8.5-4.8-17-9.3-26-13.2c-2.7-1.2-5.5-2-8.4-2.6c-1.6-0.3-3.3-0.7-4.5,0.9
			C1072.1,938.5,1098.9,949.9,1110.6,946.6z" />
            <path fill-rule="evenodd" clip-rule="evenodd" d="M760.2,844.3c1.8,0.8,3.6,0.4,5.4,0c12.6-2.3,25.3-4.6,37.9-7
			c3.6-0.7,6.7-0.2,9.9,1.8c12,7.5,23.8,15.4,36.1,22.3c0.5,0.3,0.9,0.6,1,0.6c0.2,1.9-0.7,2.7-1.3,3.5c-2.6,3.4-4.4,6.9-4.6,11.4
			c-0.2,4.7-3.9,7.6-8,8.9c-5.4,1.6-9.2,5.1-13.2,8.6c-21.4,18.7-45.8,31.8-74,37.1c-13.9,2.6-28,4.1-42.1,4.7
			c-13.4,0.5-26.8,0.8-40.2,0.8c-15.5,0.1-30.8-1.6-46-4.5c-2-0.4-3.9-0.7-6.2-1.1c-2.3,5.7-3.2,11.4-3.9,17.2
			c-1.4,11.1-2.9,22.2-4,33.4c-1.2,12.4-2.6,24.9-3.1,37.3c-0.3,8.4,2.3,15.5,8.4,21.3c4,3.8,8,7.6,12.3,11c3.1,2.5,6.3,3,10.3,2
			c19.5-4.7,38.6-10.5,57.9-15.9c69-19.4,136.3-43.8,202.8-70.5c8.9-3.6,17.4-7.8,26.6-10.7c2.7-0.8,5.3-2.1,9-1.3
			c-2.7,2.9-5.7,4.3-8.5,5.8c-24.7,13-50,24.8-76.6,33.6c-21.6,7.2-43,15.1-63.8,24.2c-8.9,3.9-17.6,8.2-26.1,13
			c-12.7,7.1-25.9,13.1-39.8,17.3c-8.7,2.7-16.4,7.4-23.9,12.3c-6.2,4-12,8.5-17.5,13.4c-16.3,14.5-34.3,26.5-54.2,35.4
			c-5,2.3-9.9,4.8-14.5,7.9c-6.4,4.3-11.7,9.5-14.6,16.8c-0.5,1.2-1.1,2.3-1.8,3.4c-2.3,3.7-4.8,7.2-10,5c-2.3,2.6-2.3,5.6-2.7,8.5
			c-0.3,2.5-0.6,5.1-0.6,7.7c-0.1,4-2.2,6.5-5.8,7.8c-8.5,3-17.2,3.5-26.1,2.5c-4.2-0.5-6.9-3.4-8.6-7
			c-10.1-21.2-26.5-37.3-43.2-53.1c-3.6-3.4-7.6-6.4-11.7-9.2c-4.1-2.8-8.2-2.9-12.4-0.5c-1.4,0.8-3.1,1.5-4.1,2.7
			c-4.7,5.4-11,7.1-17.6,8.2c-12.4,2-24.8,2.6-37.3,0.6c-3.5-0.6-6.6-1.7-9.3-4.3c-4-3.7-9.3-4.1-14.4-4.6c-3-0.3-6.1,0.2-9.3-0.6
			c0.6-2.1,2.1-2.3,3.4-2.8c3.4-1.5,6.8-2.8,9.9-4.9c1.8-1.2,3.6-2.5,5-4.3c2.4-3.3,1.5-5.5-2.4-6.2c-0.5-0.1-1.1-0.1-1.6-0.1
			c-11.9,0.1-22.2,4.4-30.8,12.6c-3.1,3-4.5,6.7-2.9,11c0.5,1.4,1.2,2.8,3.1,2.5c4.1-0.7,5.7,2.6,7.9,4.9c0.7,0.8,1,2,1.6,2.9
			c2.3,3.4,4.2,4.1,8,2.4c3-1.3,5.8-3.2,8.7-4.8c2.8-1.6,5.5-3.7,10-4.7c-5.4,6.8-5.6,13.8-4.4,20.9c1.8,10.6,6.2,20,13.8,27.7
			c3,3,5.8,6.2,7.9,9.8c2.5,4.2,4.3,8.5,4.4,13.5c0.1,3.2,0.8,6.2,3.8,8.1c2.3,1.4,2.5,4,3,6.3c2.5,11.2,3.3,22.5,4,33.9
			c1,17.2,2,34.5,0.4,51.8c-0.7,7.6-2.3,15.1-4,23.6c-7.1-12.4-10.6-24.7-12.2-37.7c-1.5-12.8-0.3-25.7-0.9-38.7
			c-6.6,9.1-8.9,21.2-19.2,27.5c-3.3-1.3-4.2-4.1-5.5-6.4c-4.5-8.5-7.7-17.5-10.9-26.4c-0.6-1.7-0.9-3.5-2.2-4.9
			c-0.6,0.2-1.2,0.3-1.6,0.6c-14.7,11.3-31.9,16.3-49.7,19.6c-15.7,2.9-31.7,3.8-47.6,5.4c-7.3,0.8-14.6,1.8-21.9,2.3
			c-3.2,0.2-4.6,2.6-6.1,4.2c-2.8,0.3-3.9-4.5-7.1-1.1c-1.3,1.4-4.2-0.4-6.5,0.4c-4.1,1.4-8.4,2.5-13.5,4c5-5.1,10.8-7.5,16.1-11.2
			c-5.5-13.1-14.8-21.1-28.7-23.8c-11.9-2.3-23.4-0.3-34.8,2.8c-21.4,5.8-41.1,15.8-60.3,26.7c-31.3,17.9-60.5,39-89.3,60.6
			c-6.5,4.8-12.6,10.1-19.6,14.2c0.4-3.2,3-5,5-7c20.5-21.3,41.1-42.6,61.7-63.8c44.9-46.4,89.7-92.7,134.5-139.2
			c3.1-3.3,6.5-4.9,10.8-5.7c9.7-1.8,19.4-3.8,29-5.7c0.3-0.8,0.7-1.3,0.6-1.8c-0.5-4,2-5.6,5.2-7.3
			c50.5-27.1,104.1-45.7,159.4-60.1c15.5-4,30.9-8.1,46.3-12.3c16.2-4.3,30.8-12,43.7-22.7c12.1-10,25.3-17.7,41.2-19.4
			c1.1-0.1,2.2-0.4,3.2-0.7c5.9-1.4,8-3.7,8.9-9.7c0.8-5.3,0.4-10.7-0.2-16c-2.7-26.9-5.2-53.7-9.8-80.4c-1.6-9.3-6.4-15.9-14.4-21
			c-15.2-9.8-28.1-22.5-41-35.1c-9.9-9.6-19.6-19.3-30.4-28c-5.2-4.1-10.7-7.6-16.9-10.1c-15.7-6.2-24.6-18.1-26.5-34.9
			c-0.9-8.4-1.1-16.9-1.7-25.3c-0.9-13.2-3-26.3-5-39.3c-1.4-9.1-2-18.3-2.2-27.4c-0.5-28.9,1.5-57.7,4.2-86.4
			c2.2-23.6,5-47.1,7.8-70.6c0.4-3.5,0.4-7,0.4-10.5c0-4.3-2-7.3-5.8-9.3c-0.5-0.2-1-0.5-1.5-0.7c-11.8-4-18.3-13-22.6-24
			c-3.2-8.2-5.3-16.7-6.1-25.9c2.2,0.6,2.6,2.1,3.2,3.3c2.8,5.6,5.5,11.2,8.4,16.7c2.8,5.4,6.2,10.4,10.8,14.5
			c5.1,4.4,10.5,5.2,14.9-1.3c2.8-4.3,4.5-4.3,8.6-1.4c1.5,1.1,2.9,2.3,4.3,3.5c5.6,4.7,11.9,7.9,19.4,8.5c6,0.5,11.4,2.9,16.7,5.3
			c12.1,5.5,23.3,12.4,34.1,20.2c3.4,2.5,6.9,4.9,10.4,7.3c2.4,1.6,5,3,7.8,4c6.2,2.1,9.9,0.3,11.9-5.9c0.9-2.8,1.2-5.7,1.4-8.7
			c0.7-14.7-0.7-29.4-2.4-44c-2.1-18.1-4.5-36.1-8.8-53.8c-0.9-3.8-2-7.5-3.7-11c-2.1-4.3-5.4-6.3-10.2-5.9
			c-4.1,0.4-7.9,1.5-11.7,2.9c-14.8,5.6-28,13.8-40.2,23.7c-4.8,3.9-9.6,8-14.8,12.4c-11-6.8-22.1-13.6-33.3-20.5
			c-4.6,3.3-8.2,7.6-12.4,11c-3.9,3.2-7.1,7.9-13.1,8.2c-2-4.9-0.8-9.5-0.2-13.9c0.6-4.6,1.2-9.1,0.9-13.7c-0.2-3.1-1.3-5-4.8-5.6
			c-4.3-0.8-5.3-3.1-3.7-7.2c1-2.8,2.9-5.1,4.9-7.2c3.2-3.3,7.1-5.7,11.2-8c7.4-4.1,14.5-8.5,19.9-15.4c2.8-3.6,7.1-5,11.7-5.4
			c2.9-0.2,5.9-0.4,8.8-0.9c7.4-1.3,12.7-5.6,15.5-12.6c1.4-3.4,2.2-7,2.5-10.7c0.6-7.7,0.2-15.4-0.6-23.1
			c-0.7-6.4-0.8-12.8-0.4-19.3c0.5-7,2.5-13.7,5.7-20c4.1-8.3,7.2-16.8,7.9-26.2c0.4-6,2.9-8.3,9.4-8.4c14.1-0.2,25.8-6.4,36.7-14.6
			c2.4-1.8,4.4-3.9,6-6.4c1.4-2.1,1.3-4-0.6-5.9c-7.4-7.9-20.4-10.8-30.4-6.5c-3.4,1.5-6.6,3.2-10,4.7c-2,0.9-3.9,2.1-7,2.1
			c-4.4-28.5-7.9-57.2-11.8-85.8c4.2-3,8.5-5,12.8-6.9c4.5-2,7-5.9,10-9.2c1.6-1.7,1.1-4.2,0.9-6.4c-0.8-7.1-1.8-14.2-2.7-21.3
			c-0.8-6.5-0.7-12.9,1.9-19c0.7-1.5,0.4-2.8-0.1-4.2c-0.8-2.4-2.2-4.6-2.4-7.2c1-1.3,2.5-1.5,3.9-2c29.1-9.5,58.8-16,89.1-20
			c17-2.2,34-3.8,51-4.5c1.6-0.1,3.3,0.1,4.8-0.9c15.8,0,31.6,0,47.4,0c2,1.3,4.3,0.9,6.4,1c65.2,3.2,128.6,15.5,189.7,38.8
			c42.5,16.2,82.2,37.5,117.4,66.5c30.3,25,55.1,54.4,72.1,90.1c1.1,2.3,2.2,4.7,3.2,7c2.4,6.1,5.3,11.9,9.7,17.1
			c5.2,6.1,7.4,13.9,8.1,21.9c0.4,4.2-0.4,8.1-4.9,10.1c-1,0.4-1.8,1.3-2.5,2.1c-1.2,1.5-1.9,3.3-0.8,5.1c1,1.6,2.7,1.6,4.4,1.4
			c5.3-0.6,6.3,0,7.7,5.2c0.4,1.6,0.6,3.2,0.8,4.9c0.9,6.8,2.5,13.5,6.1,19.3c7.5,12.3,11,26,13.6,39.9c3.7,19.5,5.4,39.3,5.5,59.2
			c0.1,8.5,0,16.9,1.2,25.3c0.3,2.5,0.8,5.1,1.3,7.6c0.2,1,0.6,2.3,2,2.3c3.7,0,4.4,3,5.2,5.5c1.5,4.9,2.1,10.1,2.5,15.2
			c1.6,20,0.9,40-0.7,60c-1.1,13.2-2.8,26.3-5.5,39.3c-3.6,17-12.2,31.1-24.3,43c-6.8,6.7-12.2,14.2-16.8,22.4
			c-13,23.5-22.9,48.4-32,73.7c-4.9,13.7-9.1,27.5-13.3,41.4c-4.4,14.6-11,28-20.1,40.2c-2.4,3.3-5.1,6.2-8.3,8.8
			c-3.4,2.8-7,3-10.7,0.6c-1.8-1.2-3.9-2.4-5.2-4c-5.3-6.7-12.5-7.9-20.3-7.4c-8.4,0.5-16.8,1.9-25.1,3.6
			c-5.6,1.2-11.1,2.4-16.7,3.6c-1.4,0.3-2.9,0.7-4.3,0.1c0-1.9,1.7-2.3,2.8-3c5.2-3.5,10.5-6.8,15.7-10.2c2-1.3,3.9-2.8,5.7-4.3
			c3.3-2.7,3.8-6.1,2.2-9.9c-1-2.3-2.1-4.7-3.4-6.9c-3.8-6.7-4-13.6-1.3-20.7c1.9-4.8,3.9-9.5,5.8-14.3c0.6-1.5,1.7-2.8,1.4-4.9
			c-1.5,0-2.6,1-3.8,1.7c-10.8,6.2-21.5,12.7-32.5,18.6c-8.8,4.8-17.7,9.6-27.8,11.8c-4.7,1-6.9,5.2-8.6,9.4
			c-1.1,2.7-1.9,5.6-3.2,8.2c-1.6,3.4-3.9,6.1-8.1,6.6c-3.2,0.4-5.8,2.2-8.2,4.4c-8.1,7.6-13.8,16.2-12.1,28.1
			c1.2,8.4-2.4,14.5-9.7,18.8c-11.6,6.8-24,12-36.6,16.6c-10.2,3.7-20.4,7.3-30.6,10.9c-1.4,0.5-2.7,1.1-3.9,1.5
			C758.5,837.7,762,840.9,760.2,844.3c-0.1,1.7-2.3,0.8-2.8,2.4c1.3,0.2,2.2,1.6,4,0.8C762,846.1,760.9,845.3,760.2,844.3z
			 M1008.7,547.2c0.9,3.3-0.2,5.1-1.1,6.9c-3.2,6.2-6.7,12.3-10.8,17.9c-3.1,4.2-6.6,7.9-10.8,10.9c-2.7,1.9-5.6,3.6-8.9,4.2
			c-5.2,0.9-8.6-1.1-10-6.2c-0.4-1.4-0.5-2.9-0.8-4.3c-0.7-4.6-2.7-6.9-7.4-7.4c-7.4-0.8-13.8-3.8-19.7-8c-3.8-2.7-7.8-4.7-12.4-5.8
			c-7.2-1.8-15.3,0.9-17.4,9.3c-0.7,2.9-2.3,5.4-4.8,7.2c-3.1,2.3-7.3,2.6-10.3,0.6c-3.2-2.1-4.6-5.2-3.9-9
			c1.2-6.2,4.1-11.4,8.6-15.6c1.3-1.3,2.9-2.5,4.7-2.7c8.1-1.1,13.3-6.6,18.4-12.2c3.9-4.2,4.9-8.9,2.6-14.2c-2.2-5-4.5-10.1-6.8-15
			c-3.4-7.1-6.7-14.3-8.7-22c-1.1-4.3-2.1-8.6-1.6-13.1c0.3-2.9,1.4-5.6,4.6-6.1c5.2-0.9,9-4,12.6-7.4c3-2.8,6.3-5.1,10-6.8
			c16.1-7.7,33-12.5,50.8-13.2c17.1-0.7,31.2,5.7,41.4,19.8c2.4,3.3,4.5,6.7,6.8,10c1,1.4,1.6,3.3,4.4,4.2
			c-4-16.4-9.2-31.2-23.7-40.6c-3.8-2.4-8-3.6-12.5-3.8c-5.1-0.3-10.3-0.4-15.4,0.2c-9.9,1-19.9,2-28.8,6.6c-4.7,2.4-9,2.6-13.8,1.6
			c-10.1-2-20-4.7-29.8-7.8c-17.2-5.4-34.2-11.3-51.7-15.5c-29.8-7.1-59.8-11.7-90.6-10.5c-11.8,0.5-23.3,2.4-34.4,6.9
			c-10.3,4.1-20.9,7-31.8,8.6c-14.4,2.2-28.2,6.5-41.8,11.7c-21.9,8.5-42.4,20.3-64.4,28.8c-3.8,1.5-6.5,4.6-7,8.6
			c-1,8.4-5.3,15.2-10.1,21.7c-2.2,3-4.4,5.9-6.1,9.1c-5.2,9.8-3.4,14.8,6.8,18.8c1.4,0.5,2.8,1,4,1.7c1.3,0.7,2.6,1.5,2.9,3.9
			c-5.2,4.2-5.3,10.4-4.5,16.8c1,7.6,3.9,14.6,9.1,20.3c4.6,5.1,8.7,10.4,10.9,16.5c1.6,1.4,3.3,0.3,4.6,1.6
			c-1.4,3.8-3.7,7.5-4.2,11.8c-0.1,0.7-0.5,1.4-1,1.9c-5.5,5.7-7.5,13.4-11.2,20.1c-0.7,1.3-1.4,2.6-1.2,4.2
			c0.9,5.5,1.5,11.1,3.5,17.3c2.7-8,2.3-15.9,5-23.6c9.5,3.8,19.1,5,28.7,6c6.7,0.7,12.9,4,19.8,4.2c13.2,0.3,26.6,3.9,39.6-2.3
			c3.4-1.6,7-1.5,8.6,2.8c3.2-0.5,0.8-3.6,3-4.5c3.8,0.9,7.7,2.2,12,2.7c4.6,0.5,8.7,0.4,12.4-2.5c1.2-0.9,2.7-1.8,4.1-1.2
			c4.2,1.9,7.5-0.1,10.8-2c2.7-1.5,5.6-2.7,8.7-3.3c2.3-0.4,3.7-1.6,4.4-3.6c0.8-2,1.7-4.1,2.1-6.2c0.9-4.5,1.4-9.1,2.2-13.6
			c1-6,2.5-11.9,6.3-16.9c4.3-5.6,10.8-7.3,17.1-4.6c-0.9,2.6-3.4,3.8-5.3,5.4c-2,1.7-4,3.2-5.3,5.6c-1,1.9-0.4,3.3,1.7,3.7
			c1.4,0.3,2.9,0.3,4.4,0.1c4.1-0.5,7.8-2.1,11.4-3.9c5-2.4,9.8-5,15.2-6.5c2.1-0.6,4.2-1.4,6.2,0.2c-1.1,8.2-0.1,10.1,7.9,13.8
			c6.5,2.9,13.2,4.4,20.4,3.6c1.6-0.2,3.3-0.2,4.9,0c13.5,1.8,22.7,14.1,20.7,27.7c-0.5,3.1-1,6.2-0.4,9.3c1.2,5.8,4.9,7.7,10.1,5
			c1.9-1,3.7-2.4,5.5-3.7c3.6-2.7,7.1-2.6,10.7,0c1,0.8,2.1,1.5,3,2.4c7.8,7,17,8.9,27.2,7.8c9.8-1.1,19-4.3,27.7-8.7
			c31.9-16.2,54.9-41.4,71.8-72.4c2.8-5.2,4.7-10.8,3.2-16.9c-0.1-0.2,0.4-0.6,0.8-1.2c2.9,1.2,5.1-0.2,6.7-2.7
			c5.1-7.6,8.3-15.9,8.7-25.2c0.1-2.1,0.1-4.4-2.1-6.1c-2.6,3.7,0.3,9.3-4.3,12.1c-2.8-0.4-4.4-2.4-6.1-4.4
			c-3.2-3.8-5.7-8.1-8.3-12.3c-2.3-3.8-4.6-7.5-7-11.2c-1.3-2-2.9-3.8-4.8-5.3c-3.5-2.7-5.9-2.1-7.8,2c-1.1,2.4-1.5,4.9-1.9,7.4
			c-1.1,7.9-1,15.8-0.9,23.7c0.1,8.6,0.5,17.3-0.1,25.9c-0.6,7.9-2.9,15.1-8.5,21c-1,1.1-2.3,2.2-2.8,4.8
			C992.5,557.3,999.3,550.2,1008.7,547.2z M869.5,330.6c0.8,0.4,1.6,0.6,2,1.1c5.8,6.3,10.5,5.4,13.2-4.5
			c3.8-13.8,4.5-27.5-1.6-40.9c-2.9-6.3-1.9-11.7,3.2-16.5c2.3-2.1,4.3-4.6,5.7-7.4c2.5-5.2,1-8-4.7-8.7c-2-0.2-4.1-0.4-5.8-1.5
			c-1.8-1.2-3.1-2.9-2.1-5.1c0.9-1.9,2.8-2.3,4.7-1.9c1.8,0.3,3.5,1.1,5.3,1.3c2.9,0.4,4.2-1.1,3.5-3.9c-0.4-1.4-1.1-2.7-1.8-4
			c-3.2-6.1-8.2-10.3-14.1-13.5c-9.9-5.3-20.5-9-31.3-12.1c-39.9-11.5-80.6-17.8-122.1-19.6c-11.9-0.5-23.9-0.3-35.7,1.6
			c-17.4,2.7-34.5,7.1-51.3,12.6c-36.3,11.7-70.3,27.8-100,52.3c-4.2,3.5-8.9,6.5-13.4,9.7c-1.8,1.2-3.7,2.4-5.8,3.2
			c-12.9,4.6-20.9,14.5-28,25.3c-2.3,3.5-1.1,6,2.9,7.8c2.6,1.2,5.4,1.1,8.1,0.6c3.2-0.6,6.4-1.5,9.6-2.5c8-2.6,15.7-6.3,23.3-9.9
			c16.9-8,34.7-11.7,53.4-11.5c14.7,0.2,29.3,1.8,43.9,3.6c13.5,1.7,24.7,7,33.1,18.4c5.3,7.2,12.4,13.1,20.2,17.7
			c1.2,0.7,2.8,1.1,2.9,3.3c-8.7-0.4-17-4.1-26.4-2.6c2.2,3.1,5,3.8,7.5,4.7c11.1,4,22.4,7,34,9.1c4.5,0.8,9.1,1.8,13.7,1.2
			c4.4-0.6,8.8-0.3,13.1,0.5c7.3,1.2,14.4,2.9,21.4,5c13.7,4.1,27.5,8.2,39.8,15.7c14.9,9.1,31,15.1,47.9,18.9
			c6.5,1.5,13.1,2.1,19.7,1.4c4.8-0.4,6-2.3,4.9-7c-0.4-1.6-1-3.2-1.3-4.8c-0.3-1.6-0.9-3.3,0.6-4.6c2.1-0.7,3.9,0.4,5.9,0.8
			c2.2,0.4,4.5,0.8,5.8-1.7c1-1.9,0.1-5-2.4-6c-3.5-1.5-4.1-4.3-4.5-7.5c-0.5-4-0.4-8.1,0.1-12.1
			C867.1,334.4,867.3,332.4,869.5,330.6z M1038.7,198.4c-6.7-2.5-7.9-7.9-8.5-13.5c-0.5-4.9-0.4-9.9-0.4-14.9c0-2.1-0.4-3.9-1.8-5.6
			c-5.1-6-10.5-11.8-16.1-17.4c-0.6-0.6-1.4-1.7-2.2-1.4c-4.7,1.7-6.1-2.2-7-4.9c-0.9-2.9-2.6-4.7-4.6-6.5c-2.8-2.4-5.6-4.8-8.4-7.1
			c-32.6-26.1-69.3-44.7-108.5-58.7C845,55.6,807.8,47.2,769.8,42.1c-6.9-0.9-13.8-1.5-20.8-2.3c-0.2,3.2,1.5,4.4,3.8,4.9
			c1.9,0.4,3.4,1.2,4.3,3.1c0.6,1.3,0.7,2.5-0.1,3.7c-0.9,1.2-2.1,1.1-3.5,0.7c-1.5-0.4-2.7-2.1-4.5-1c-0.8,1.7,0.1,3.2,0.4,4.8
			c1,4.1,0.2,5.7-3.8,7.2c-1.2,0.5-2.5,0.7-3.7,1c-22.2,3.7-43.1-0.6-63.1-10.2c-3.9-1.9-7-4.8-9-8.7c-1.2-2.4-2.1-5-3.3-7.9
			c-28.9,1.1-57.5,4.2-85.9,10.3c8.9,5.2,17.7,10.1,26.3,15.4c1.5,0.9,3.2,0.8,4.8,0.8c9.2,0,18.4,0.5,27.5,1.2
			c23,1.8,45.5,5.8,67.4,13.2c12.1,4.1,23.2,10,33.2,18c5.9,4.8,10.8,10.5,14.5,17.1c8,14.6,9.1,29.3-0.4,43.8
			c-0.5,0.8-1.1,1.5-0.1,2.8c2.1,0,4.5,0,6.9,0c16,0.1,32,1.1,47.9,2.6c25.6,2.5,50.9,7,75.9,13c32,7.7,63.9,15.6,94.1,28.9
			c18.6,8.2,37.1,16.9,55.5,25.7c1.7,0.8,3.3,1.7,5,2.4c2.9,1.1,3.9,0.5,4.7-2.6c1-3.8-1-8.2-4.9-10.9c-1.5-1-3.3-1.7-4.7-2.8
			c-3.7-2.9-4.9-6.8-4.2-11.3c0.7-4.4,4.2-5.1,7.8-5.6C1037.9,199.3,1038,199.1,1038.7,198.4z M570.7,707.4c-0.2-2.5-2-3.3-3.6-4.1
			c-2.4-1.3-5-2.2-7.4-3.6c-5.2-2.9-10.1-6.1-11.1-12.8c-0.4-2.8-2.5-4.9-4.6-6.7c-2.4-2.1-5.2-3.5-8.1-4.7
			c-3.6-1.5-6.7-3.7-9.2-6.8c-1.7-2.1-2.3-4.5-1.9-7.2c0.3-2.2,1.6-3.5,3.8-2.6c6.2,2.4,12.4,5,15.2,11.8c1.2,2.9,3.1,3.3,5.7,2.7
			c6.7-1.5,9.9-7,8.1-14.4c-1.4-5.8-4.3-10.9-7.8-15.7c-11-14.7-25-25.9-41.9-33c-12.6-5.3-25.8-7.2-39.4-4.8
			c-3.5,0.6-6.8,1.6-9.6,3.9c-2.7,2.2-2.8,3.8-0.7,6.8c0.5-0.1,1.1-0.2,1.6-0.5c0.7-0.3,1.4-0.6,1.9-1.1c5.9-5.2,12.5-4.7,19.2-2.3
			c9.9,3.6,17.6,9.8,22.1,19.5c1.6,3.5,3.2,7.4,6.6,9.3c3.5,2,3.2,4.3,2.4,7.4c-0.6,2.2-2.2,4.3-0.6,7.3c2.3-1,4.2-0.5,5.2,2
			c1.9,5,2.2,10,0.3,15.1c-0.5,1.4-1.4,2.7-3,2.9c-1.7,0.2-2.9-1-3.4-2.3c-1.8-5.1-6.1-6.4-10.6-7.6c-13.5-3.4-27.1-4.5-41-4.1
			c-5.1,0.2-9.7,1.9-13.8,5c-6,4.6-11.4,9.8-16,15.8c-1.3,1.7-2.5,3.7-3.4,5.7c-2.4,5.4-0.7,8.8,5,9.5c9.3,1.2,17.7,4.8,26.1,8.4
			c9.3,4,18.9,7.2,28.8,9.1c6.1,1.2,12.4,1.7,18.5,2.7c3.1,0.5,6.5,1.1,8.5,3.6c4.5,5.9,10.7,5.5,17,5.3c2.4-0.1,4-1.2,5-3.6
			c2.3-5.5,6.2-9.9,10.2-14.2c5.6-6.1,7.2-6.1,14.3-2C562.9,709.3,566.8,710.5,570.7,707.4z M505.6,557.2c5.4-1.4,10.1-2.2,14.2,1.9
			c0.8,0.8,1.8,1.4,2.8,1.6c8.3,2,16.6,3.4,25.1,1.6c5-1,7.6-3.9,8.3-9c0.9-6.3,0-12.5-2-18.5c-2.6-7.8-8-12.5-15.9-14.5
			c-4.4-1.1-8.8-1.2-13.1-0.5c-11.7,1.8-22.4,7.1-33.9,9.4c-1.7,0.3-2.2,1.8-2.9,3.1c-5.4,9.7-11.9,18.6-19.2,26.8
			c-0.7,0.8-1.7,1.5-1.2,2.8c10,6.4,38.5,15.8,45.3,14.7C512.1,569.9,506.3,564.9,505.6,557.2z M778.1,371.1
			c-14.8-4.7-28.1-11.4-41.8-16.9c-2.7-1.1-5.5-2.1-8.3-2.9c-8.1-2.4-16.1-5-24.8-3c-2.4,0.5-5.1,0.1-7.7-0.2
			c-6.2-0.6-12.3-1.9-18.3-3.6c-4.6-1.3-9.2-2.6-14-2.6c-2.2,0-4.4,0.2-6.4,1.4c-2.6,1.6-3.1,3.4-1.3,5.9c2,2.7,4.7,4.6,7.5,6.3
			c10.1,6.4,20.7,11.8,31.7,16.4c10.6,4.5,21.7,6.7,33.2,6.5c15.8-0.3,31.4-3,46.9-6C775.7,372.3,776.5,371.8,778.1,371.1z
			 M560.7,400.6c-1.6,2-1.5,4-1.4,6c0.3,4.2,0.5,8.4,1.1,12.6c0.8,5.8,1.6,11.6,3.6,17.2c1.7,4.7,3.9,5.9,8.9,5
			c4.3-0.8,8.6-1.9,12.9-2.8c8.1-1.7,10.7-7.7,5.8-14.6c-6.4-8.9-14.4-16.1-23.8-21.7C565.7,401.1,563.6,399.9,560.7,400.6z
			 M437.1,368.4c-0.2-3.7,0.1-7.5-1.2-11.3c-2.3-7-6.5-8.2-11.7-3c-4.9,4.9-7.9,11-10.3,17.4c-1,2.8-0.4,5.4,1.9,7.6
			c2.8,2.7,5.9,5,9.4,6.6c5.5,2.6,8.6,1.2,10.5-4.6C437,377,436.9,372.8,437.1,368.4z M540.5,398.6c0.6-2.3,2-2.9,3.1-3.9
			c4.9-4.3,5.7-9.7,2.1-15.2c-2.6-4-5.5-4-7.9,0.2c-1.8,3-2.6,6.4-3,9.9c-1.5,15.1,1.7,29.5,7.1,43.5c0.7,1.8,1.3,3.9,3.9,4.4
			c1.8-3.8,1.3-7.9,1.6-11.9c0.5-7,0.4-13.9-1.4-20.7C545.2,401.9,544,399.3,540.5,398.6z M621.2,345c3.7,0,5.8-2,7.2-4.7
			c2.7-5.2,4.9-10.7,6-16.5c1-5.1-0.9-6.8-5.6-4.7c-6.9,3-13.2,7.1-18.6,12.6c-0.8,0.8-1.4,1.7-1.9,2.7c-1.3,2.5-0.9,4.6,1.4,6.3
			C613.2,343.1,617.3,344.2,621.2,345z M648.5,397.4c1.8,1.2,3.8,1.4,5.8,1.6c6.1,0.4,12.1,0.6,18.1-0.8c1.6-0.4,3.2-0.8,4.7-1.4
			c1.2-0.4,2.4-1.2,2.5-2.6c0.1-1.7-1.2-2.6-2.6-3.2c-0.8-0.3-1.7-0.6-2.6-0.7c-7.5-1.3-14.6-0.2-21.5,2.9
			C651.1,394,649.1,394.8,648.5,397.4z M721,37.5c-1.1,0-3.1-0.1-5.1,0c-2.5,0.1-4,1.6-4.5,4c-0.4,2.1,0.9,3.5,2.7,4.3
			c2.3,1,4.7,1.9,7.2,2.6c2.6,0.7,5.4,1,8.1,0.1c2.6-0.9,4.2-3.6,4-6.5c-0.2-3-2.1-3.9-4.8-4C726.3,38,724.1,37.7,721,37.5z
			 M912.4,248.2c2.4,0.1,3.9-0.1,4.6-1.6c1.1-2.1,0.9-4.2-0.5-6.2c-2.5-3.6-9.8-6.5-14.2-5.5c-3.4,0.8-4.5,3.2-2.2,6.1
			C903.5,245.1,908.2,247.2,912.4,248.2z M742.5,839.3c-3.8,4.1-9.7,4.1-13.1,8.3c4.7,1.7,19.3,0.3,23.6-2.2
			C749.9,842.8,745.2,843.3,742.5,839.3z M903.3,271c5.2,2.7,8.6,1.8,9.5-2.1c0.3-1.4,0.1-2.5-1-3.4c-1-0.8-2.1-0.5-3.1,0
			C906.5,266.7,904.4,268.1,903.3,271z M245.7,1226c-1.9,0.6-1.9,1.9-1.5,4.2C244.9,1228.3,245.3,1227.2,245.7,1226z M705.2,122
			c-1.2-0.8-2.1-1.6-4-0.9C702.8,121.2,703.3,122.4,705.2,122z" />
            <path fill-rule="evenodd" clip-rule="evenodd" d="M1039.9,921.6c0.9,0.6,1.4,0.9,1.7,1.3c12,15.4,27.6,26.3,44.5,35.5
			c5.3,2.9,10.9,5.3,16.3,8.1c8,4.3,16.7,5.6,25.5,6.2c24.9,1.5,49,6.9,72.7,14.6c3.7,1.2,7.2,2.7,10.6,4.6c1.3,0.8,2.4,1.8,2.1,3.5
			c-0.3,1.7-1.5,2.3-3.1,2.7c-4.5,1.1-9,2-13.6,2.2c-39.1,1.3-77.9-0.7-116-9.8c-24.9-5.9-48.1-15.8-69-30.8c-1.6-1.2-3.5-2-4.6-4.2
			C1017.9,944.1,1028.9,932.8,1039.9,921.6z" />
            <path fill-rule="evenodd" clip-rule="evenodd" d="M459.3,1175.7c2.1,2,2.2,3.9,2.8,5.6c5,15.8,10.5,31.3,16.7,46.7
			c6,14.7,8.8,30.3,11,45.9c0.6,4.5,1.4,9.1,2.3,14.9c5.2-6.6,9.8-12.3,14.4-18c1.6,1.1,1,2.2,0.7,3.1c-2.7,9-5.7,17.8-8.9,26.6
			c-2.7,7.3-7.5,11.4-15.7,11.4c-7.4,0-14.7,0.1-21.9-1.3c-5.7-1.1-6.3-1.6-6.9-7.5c-0.6-6.2-1.1-12.5-1.2-18.7
			c-0.6-26.6-0.2-53.3,2.1-79.8C455.3,1195,457.3,1185.7,459.3,1175.7z" />
            <path fill-rule="evenodd" clip-rule="evenodd" d="M1055.1,1041.9c-2.4-0.5-3-1.7-3.9-2.5c-9.3-9.4-18.5-18.8-27.8-28.3
			c-1.3-1.3-3.3-2.4-1.4-5.1c-3.6,1-4.5,3.7-5.2,6.5c-1.4,5.9-0.6,11.7,0.5,17.4c0.4,2.1,1,4.2,1.6,6.8c-1.7-0.1-2.3-1.2-3-2.1
			c-4-4.6-7.5-9.5-10-15.1c-8.1-17.6,0.7-35.1,19.6-39.3c11.9-2.6,22.1,0.2,31,8.3c7.7,7,10.5,16,9.5,25.9
			c-0.9,9.4-4.7,18-10.3,25.8C1055.4,1041,1055.2,1041.7,1055.1,1041.9z M1031.4,1010.5c-1.5-1.9-2.3-3.3-4.5-3.2
			C1027.7,1009,1028.3,1010.6,1031.4,1010.5z" />
            <path fill-rule="evenodd" clip-rule="evenodd" d="M526,1272.6c2.2,4.4,4.4,8.8,6.5,13.2c2.8,5.9,6.7,10.9,11.7,15.1
			c4.6,4,9.9,5.4,15.9,4.4c9.8-1.6,18.7-5.3,26.6-11.3c4.5-3.3,8.2-7.3,10-12.8c1.6-4.8,5.4-7.2,10.4-7.8c7-0.8,13.1,1.5,18.1,6.2
			c4.6,4.3,7.7,9.8,10.1,15.6c0.6,1.4,1.5,3.1-0.2,4.7c-2.5,0.7-4-1.2-5.8-2.4c-1.8-1.3-3.4-2.7-5.2-4c-3-2.1-6.4-2.8-10-1.7
			c-10.5,3.3-20.8,7.2-28.9,15.2c-2.7,2.6-6.2,3.3-9.6,3.8c-15,2.2-30,1.7-44.9-1.6c-1.1-0.2-2.1-0.5-3.2-0.9
			c-5.5-1.9-6.6-3.4-7-9.2C519.9,1290.2,522.6,1281.6,526,1272.6z" />
            <path fill-rule="evenodd" clip-rule="evenodd"
                d="M590.6,1280.5c-2.4-1.4-2.1-4.4-4.6-5.2c-1.9,0-2.5,1.7-3.6,2.9
			c-4.8,5.3-10.8,7.4-17.8,6.8c-7-0.6-11.4-8.3-8.6-14.7c1-2.3,3.1-2.6,4.7-0.6c1,1.3,1.6,2.9,2.5,4.3c2.2,3.3,4,3.9,7.8,3
			c0.5-2.7-1.4-4.4-2.7-6.3c-2.6-3.7-4.9-7.2-2.6-12.1c1-2.3-0.5-4.6-1.8-6.7c-1.1-1.8-2.9-3.3-3.1-5.6c6.5-4.7,18.1-2.6,25.5,4.6
			C594.8,1259.3,596.7,1271.6,590.6,1280.5z M576.4,1254.5c1,6,5.7,10.4,10.8,10.2C586.5,1257.6,582.4,1253.7,576.4,1254.5z" />
            <path fill-rule="evenodd" clip-rule="evenodd" d="M583.8,1234.1c10.8,1.4,21.4,2.6,31.4,6.3c3.5,1.3,6.8,2.8,9.7,5.1
			c6.7,5.2,6.5,10.9-0.6,15.4c-3.3,2.1-6.9,3.4-10.7,4.3c-3.9,0.9-7.3,0-10.3-2.5c-1.1-1-2.2-1.9-3.2-3.1
			C593.8,1251.7,588.9,1242.9,583.8,1234.1z" />
            <path fill-rule="evenodd" clip-rule="evenodd" d="M1110.6,946.6c-11.7,3.3-38.5-8.1-41.8-17.8c1.2-1.6,2.9-1.2,4.5-0.9
			c2.9,0.6,5.7,1.4,8.4,2.6c8.9,3.8,17.5,8.4,26,13.2C1108.9,944.4,1110.5,944.8,1110.6,946.6z" />
            <path fill-rule="evenodd" clip-rule="evenodd" fill="none" d="M1008.7,547.2c-9.5,3-16.2,10.1-25.1,14.8c0.5-2.6,1.7-3.7,2.8-4.8
			c5.6-5.9,7.9-13.1,8.5-21c0.6-8.6,0.2-17.3,0.1-25.9c-0.1-7.9-0.3-15.8,0.9-23.7c0.4-2.6,0.8-5.1,1.9-7.4c1.9-4.1,4.2-4.7,7.8-2
			c1.9,1.5,3.5,3.3,4.8,5.3c2.4,3.7,4.7,7.4,7,11.2c2.6,4.2,5.1,8.5,8.3,12.3c1.7,1.9,3.3,4,6.1,4.4c4.6-2.9,1.7-8.4,4.3-12.1
			c2.2,1.7,2.2,4,2.1,6.1c-0.4,9.2-3.6,17.5-8.7,25.2c-1.7,2.5-3.8,3.9-6.7,2.7c-0.4,0.7-0.8,1-0.8,1.2c1.6,6.1-0.3,11.7-3.2,16.9
			c-16.9,31.1-39.9,56.2-71.8,72.4c-8.7,4.4-17.9,7.7-27.7,8.7c-10.1,1.1-19.4-0.8-27.2-7.8c-1-0.9-2-1.6-3-2.4
			c-3.5-2.6-7.1-2.7-10.7,0c-1.8,1.3-3.5,2.7-5.5,3.7c-5.2,2.7-8.9,0.8-10.1-5c-0.6-3.1-0.1-6.2,0.4-9.3c2-13.6-7.2-25.9-20.7-27.7
			c-1.6-0.2-3.3-0.2-4.9,0c-7.2,0.8-13.9-0.7-20.4-3.6c-8-3.6-9.1-5.6-7.9-13.8c-2-1.6-4.1-0.8-6.2-0.2c-5.3,1.5-10.2,4.1-15.2,6.5
			c-3.6,1.8-7.4,3.4-11.4,3.9c-1.4,0.2-3,0.2-4.4-0.1c-2-0.4-2.6-1.8-1.7-3.7c1.2-2.4,3.3-3.9,5.3-5.6c1.9-1.6,4.4-2.7,5.3-5.4
			c-6.3-2.7-12.7-1-17.1,4.6c-3.8,4.9-5.3,10.8-6.3,16.9c-0.8,4.5-1.3,9.1-2.2,13.6c-0.4,2.1-1.3,4.2-2.1,6.2
			c-0.8,2-2.2,3.2-4.4,3.6c-3.1,0.5-6,1.7-8.7,3.3c-3.4,1.9-6.7,3.9-10.8,2c-1.4-0.6-2.9,0.3-4.1,1.2c-3.7,2.9-7.8,3-12.4,2.5
			c-4.2-0.4-8.2-1.7-12-2.7c-2.2,0.9,0.2,4-3,4.5c-1.5-4.3-5.2-4.4-8.6-2.8c-12.9,6.2-26.3,2.6-39.6,2.3c-6.9-0.1-13.1-3.5-19.8-4.2
			c-9.7-1-19.2-2.3-28.7-6c-2.7,7.7-2.3,15.6-5,23.6c-2.1-6.2-2.6-11.8-3.5-17.3c-0.3-1.6,0.5-2.9,1.2-4.2
			c3.7-6.7,5.7-14.4,11.2-20.1c0.5-0.5,0.9-1.3,1-1.9c0.5-4.3,2.7-7.9,4.2-11.8c-1.3-1.3-3.1-0.2-4.6-1.6
			c-2.2-6.1-6.2-11.4-10.9-16.5c-5.2-5.7-8.1-12.7-9.1-20.3c-0.8-6.3-0.7-12.6,4.5-16.8c-0.3-2.4-1.6-3.2-2.9-3.9
			c-1.3-0.7-2.7-1.2-4-1.7c-10.2-4-12-9-6.8-18.8c1.7-3.3,4-6.2,6.1-9.1c4.8-6.6,9.1-13.3,10.1-21.7c0.5-4.1,3.1-7.2,7-8.6
			c21.9-8.5,42.4-20.3,64.4-28.8c13.6-5.3,27.4-9.5,41.8-11.7c10.9-1.6,21.6-4.5,31.8-8.6c11.1-4.4,22.6-6.4,34.4-6.9
			c30.7-1.3,60.8,3.4,90.6,10.5c17.5,4.2,34.5,10.1,51.7,15.5c9.8,3.1,19.7,5.8,29.8,7.8c4.8,0.9,9.1,0.8,13.8-1.6
			c9-4.5,19-5.6,28.8-6.6c5.1-0.5,10.3-0.5,15.4-0.2c4.5,0.3,8.8,1.4,12.5,3.8c14.5,9.4,19.8,24.2,23.7,40.6
			c-2.8-0.9-3.5-2.8-4.4-4.2c-2.3-3.3-4.4-6.8-6.8-10c-10.2-14.1-24.3-20.4-41.4-19.8c-17.9,0.7-34.7,5.5-50.8,13.2
			c-3.7,1.8-6.9,4.1-10,6.8c-3.7,3.3-7.4,6.5-12.6,7.4c-3.2,0.5-4.2,3.3-4.6,6.1c-0.5,4.5,0.4,8.8,1.6,13.1c2,7.7,5.3,14.9,8.7,22
			c2.4,5,4.6,10,6.8,15c2.3,5.3,1.3,10-2.6,14.2c-5.1,5.6-10.3,11.1-18.4,12.2c-1.8,0.3-3.4,1.5-4.7,2.7c-4.5,4.3-7.5,9.5-8.6,15.6
			c-0.7,3.9,0.7,6.9,3.9,9c3,2,7.2,1.7,10.3-0.6c2.5-1.8,4.1-4.4,4.8-7.2c2.1-8.3,10.2-11,17.4-9.3c4.5,1.1,8.6,3.1,12.4,5.8
			c5.9,4.2,12.3,7.2,19.7,8c4.7,0.5,6.7,2.8,7.4,7.4c0.2,1.5,0.4,2.9,0.8,4.3c1.4,5.1,4.8,7.1,10,6.2c3.4-0.6,6.2-2.2,8.9-4.2
			c4.2-3,7.7-6.8,10.8-10.9c4.2-5.6,7.6-11.7,10.8-17.9C1008.5,552.3,1009.6,550.5,1008.7,547.2z M931,592.5
			c-0.1-5.7-2.3-10.3-6.8-13.8c-4.7-3.5-10.3-3.7-14.9-0.7c-4.5,2.9-6.5,8.4-5.2,14c1.6,7,11.4,15.2,18.4,15.3
			c2.5,0.1,4.2-1.3,5.2-3.4C929.6,600.4,931,596.6,931,592.5z M906.6,456.3c-1.9-2.2-3.4-1.8-4.8-1.7c-6.4,0.7-12.7,1.4-18.9,3
			c-1.2,0.3-2.4,0.8-3.6,1.3c-1.3,0.6-1.8,1.7-1.5,3.2c0.8,4,6.2,7.8,10,6.4C894.8,465.9,900.8,461.5,906.6,456.3z" />
            <path fill-rule="evenodd" clip-rule="evenodd" fill="none" d="M869.5,330.6c-2.2,1.8-2.5,3.8-2.7,5.8c-0.4,4-0.5,8.1-0.1,12.1
			c0.4,3.2,1,6,4.5,7.5c2.5,1.1,3.3,4.2,2.4,6c-1.3,2.5-3.6,2.1-5.8,1.7c-2-0.4-3.8-1.5-5.9-0.8c-1.5,1.4-0.9,3.1-0.6,4.6
			c0.3,1.6,0.9,3.2,1.3,4.8c1.1,4.7-0.1,6.6-4.9,7c-6.6,0.6-13.2,0-19.7-1.4c-16.9-3.9-33-9.8-47.9-18.9
			c-12.4-7.5-26.1-11.6-39.8-15.7c-7-2.1-14.2-3.8-21.4-5c-4.4-0.7-8.7-1-13.1-0.5c-4.6,0.6-9.1-0.4-13.7-1.2
			c-11.6-2.1-22.9-5.1-34-9.1c-2.5-0.9-5.3-1.5-7.5-4.7c9.4-1.5,17.7,2.2,26.4,2.6c-0.1-2.2-1.8-2.6-2.9-3.3
			c-7.9-4.6-14.9-10.4-20.2-17.7c-8.4-11.4-19.6-16.7-33.1-18.4c-14.6-1.8-29.2-3.5-43.9-3.6c-18.7-0.2-36.5,3.5-53.4,11.5
			c-7.6,3.6-15.3,7.2-23.3,9.9c-3.1,1-6.3,1.9-9.6,2.5c-2.7,0.5-5.5,0.6-8.1-0.6c-4-1.8-5.2-4.3-2.9-7.8c7.1-10.8,15.2-20.8,28-25.3
			c2-0.7,4-1.9,5.8-3.2c4.5-3.1,9.2-6.2,13.4-9.7c29.7-24.4,63.7-40.5,100-52.3c16.8-5.4,33.8-9.9,51.3-12.6
			c11.8-1.8,23.8-2.1,35.7-1.6c41.4,1.8,82.2,8.1,122.1,19.6c10.8,3.1,21.3,6.8,31.3,12.1c6,3.2,11,7.4,14.1,13.5
			c0.7,1.3,1.4,2.6,1.8,4c0.8,2.8-0.6,4.3-3.5,3.9c-1.8-0.2-3.5-1-5.3-1.3c-1.9-0.4-3.8,0-4.7,1.9c-1,2.2,0.3,3.9,2.1,5.1
			c1.7,1.2,3.7,1.3,5.8,1.5c5.7,0.7,7.3,3.6,4.7,8.7c-1.4,2.8-3.4,5.3-5.7,7.4c-5.1,4.7-6.1,10.1-3.2,16.5
			c6.1,13.4,5.4,27.1,1.6,40.9c-2.7,9.9-7.4,10.8-13.2,4.5C871.1,331.2,870.3,331,869.5,330.6z" />
            <path fill-rule="evenodd" clip-rule="evenodd" fill="none" d="M1038.7,198.4c-0.7,0.7-0.8,0.9-0.9,0.9c-3.6,0.5-7,1.2-7.8,5.6
			c-0.7,4.5,0.5,8.4,4.2,11.3c1.4,1.1,3.2,1.8,4.7,2.8c3.9,2.7,5.8,7.1,4.9,10.9c-0.8,3.1-1.8,3.7-4.7,2.6c-1.7-0.7-3.3-1.6-5-2.4
			c-18.3-8.9-36.8-17.5-55.5-25.7c-30.2-13.4-62.1-21.3-94.1-28.9c-25-6-50.3-10.5-75.9-13c-15.9-1.5-31.9-2.5-47.9-2.6
			c-2.4,0-4.8,0-6.9,0c-1-1.3-0.3-2,0.1-2.8c9.4-14.5,8.4-29.1,0.4-43.8c-3.7-6.7-8.6-12.4-14.5-17.1c-10-8-21.1-14-33.2-18
			c-21.9-7.4-44.4-11.4-67.4-13.2c-9.2-0.7-18.3-1.2-27.5-1.2c-1.6,0-3.3,0.1-4.8-0.8c-8.6-5.3-17.4-10.2-26.3-15.4
			c28.4-6.1,57-9.2,85.9-10.3c1.2,2.9,2,5.5,3.3,7.9c2,3.9,5.1,6.8,9,8.7c20,9.6,40.9,14,63.1,10.2c1.3-0.2,2.5-0.5,3.7-1
			c4-1.5,4.7-3.1,3.8-7.2c-0.4-1.6-1.3-3.1-0.4-4.8c1.8-1.1,3.1,0.6,4.5,1c1.4,0.4,2.6,0.4,3.5-0.7c0.9-1.1,0.7-2.4,0.1-3.7
			c-0.8-1.9-2.4-2.7-4.3-3.1c-2.3-0.5-4-1.7-3.8-4.9c7,0.8,14,1.4,20.8,2.3c38,5.1,75.1,13.5,111.2,26.4
			c39.2,14,75.9,32.6,108.5,58.7c2.9,2.3,5.7,4.7,8.4,7.1c2.1,1.8,3.7,3.6,4.6,6.5c0.9,2.7,2.3,6.6,7,4.9c0.9-0.3,1.6,0.7,2.2,1.4
			c5.6,5.6,11,11.4,16.1,17.4c1.4,1.7,1.8,3.5,1.8,5.6c0,5-0.1,9.9,0.4,14.9C1030.7,190.5,1032,196,1038.7,198.4z M620.1,57.2
			c4.4,1.6,8.7,1.9,14.2-0.1C628.7,54.6,624.4,54.3,620.1,57.2z" />
            <path fill-rule="evenodd" clip-rule="evenodd" fill="none" d="M570.7,707.4c-3.9,3.2-7.8,1.9-11.5-0.3c-7.1-4.1-8.7-4.1-14.3,2
			c-4,4.3-8,8.7-10.2,14.2c-1,2.4-2.5,3.5-5,3.6c-6.3,0.2-12.5,0.5-17-5.3c-2-2.5-5.4-3.1-8.5-3.6c-6.1-1-12.4-1.6-18.5-2.7
			c-9.9-1.9-19.5-5.1-28.8-9.1c-8.4-3.6-16.8-7.2-26.1-8.4c-5.8-0.7-7.4-4.1-5-9.5c0.9-2,2-3.9,3.4-5.7c4.6-6,10.1-11.2,16-15.8
			c4-3.1,8.7-4.9,13.8-5c13.8-0.5,27.5,0.7,41,4.1c4.5,1.1,8.9,2.5,10.6,7.6c0.5,1.4,1.7,2.5,3.4,2.3c1.7-0.2,2.5-1.5,3-2.9
			c1.9-5,1.6-10.1-0.3-15.1c-1-2.5-2.9-3.1-5.2-2c-1.6-3,0.1-5.1,0.6-7.3c0.8-3.1,1-5.4-2.4-7.4c-3.4-1.9-4.9-5.8-6.6-9.3
			c-4.5-9.7-12.3-15.9-22.1-19.5c-6.7-2.4-13.3-2.9-19.2,2.3c-0.5,0.5-1.2,0.8-1.9,1.1c-0.5,0.2-1,0.3-1.6,0.5c-2.1-3-2-4.6,0.7-6.8
			c2.8-2.3,6.1-3.2,9.6-3.9c13.6-2.4,26.8-0.5,39.4,4.8c17,7.1,30.9,18.3,41.9,33c3.5,4.7,6.5,9.9,7.8,15.7
			c1.7,7.4-1.5,12.9-8.1,14.4c-2.6,0.6-4.5,0.2-5.7-2.7c-2.8-6.7-9-9.4-15.2-11.8c-2.2-0.9-3.5,0.4-3.8,2.6
			c-0.4,2.7,0.1,5.1,1.9,7.2c2.5,3.1,5.6,5.2,9.2,6.8c2.9,1.2,5.7,2.6,8.1,4.7c2.1,1.8,4.2,3.8,4.6,6.7c1,6.7,5.9,9.9,11.1,12.8
			c2.4,1.3,5,2.3,7.4,3.6C568.7,704.1,570.5,704.8,570.7,707.4z" />
            <path fill-rule="evenodd" clip-rule="evenodd" fill="none" d="M505.6,557.2c0.7,7.7,6.5,12.6,7.4,19.4
			c-6.9,1.1-35.3-8.3-45.3-14.7c-0.5-1.3,0.5-2,1.2-2.8c7.4-8.3,13.8-17.2,19.2-26.8c0.7-1.3,1.2-2.7,2.9-3.1
			c11.5-2.4,22.2-7.7,33.9-9.4c4.4-0.7,8.8-0.6,13.1,0.5c8,2,13.3,6.8,15.9,14.5c2,6,2.8,12.2,2,18.5c-0.7,5.1-3.3,8-8.3,9
			c-8.5,1.8-16.8,0.4-25.1-1.6c-1-0.3-2-0.8-2.8-1.6C515.7,555,511,555.8,505.6,557.2z" />
            <path fill-rule="evenodd" clip-rule="evenodd" fill="none" d="M778.1,371.1c-1.5,0.7-2.3,1.2-3.2,1.3c-15.5,3-31,5.7-46.9,6
			c-11.6,0.2-22.6-2-33.2-6.5c-11-4.6-21.6-10.1-31.7-16.4c-2.8-1.8-5.6-3.6-7.5-6.3c-1.8-2.5-1.4-4.3,1.3-5.9
			c1.9-1.2,4.1-1.4,6.4-1.4c4.8,0,9.5,1.2,14,2.6c6,1.7,12.1,3,18.3,3.6c2.5,0.3,5.2,0.7,7.7,0.2c8.7-1.9,16.7,0.6,24.8,3
			c2.8,0.8,5.6,1.8,8.3,2.9C750,359.8,763.3,366.4,778.1,371.1z" />
            <path fill-rule="evenodd" clip-rule="evenodd" fill="none" d="M560.7,400.6c2.9-0.7,5,0.5,7,1.7c9.4,5.6,17.5,12.8,23.8,21.7
			c4.9,6.8,2.3,12.9-5.8,14.6c-4.3,0.9-8.6,2-12.9,2.8c-5,1-7.2-0.2-8.9-5c-1.9-5.6-2.7-11.4-3.6-17.2c-0.6-4.2-0.8-8.4-1.1-12.6
			C559.2,404.7,559.2,402.6,560.7,400.6z" />
            <path fill-rule="evenodd" clip-rule="evenodd" fill="none" d="M437.1,368.4c-0.2,4.4-0.1,8.6-1.4,12.7c-1.9,5.8-5,7.2-10.5,4.6
			c-3.5-1.7-6.6-4-9.4-6.6c-2.3-2.1-2.9-4.8-1.9-7.6c2.4-6.4,5.4-12.5,10.3-17.4c5.2-5.2,9.4-4,11.7,3
			C437.1,360.8,436.9,364.7,437.1,368.4z" />
            <path fill-rule="evenodd" clip-rule="evenodd" fill="none" d="M540.5,398.6c3.5,0.8,4.8,3.3,5.5,6.3c1.7,6.8,1.9,13.8,1.4,20.7
			c-0.3,4,0.2,8.1-1.6,11.9c-2.7-0.5-3.2-2.6-3.9-4.4c-5.4-14-8.6-28.4-7.1-43.5c0.4-3.5,1.2-6.9,3-9.9c2.5-4.2,5.4-4.2,7.9-0.2
			c3.6,5.5,2.8,10.9-2.1,15.2C542.5,395.6,541.1,396.2,540.5,398.6z" />
            <path fill-rule="evenodd" clip-rule="evenodd" fill="none" d="M621.2,345c-3.9-0.8-8-1.8-11.5-4.4c-2.3-1.7-2.7-3.8-1.4-6.3
			c0.5-1,1.2-1.9,1.9-2.7c5.4-5.4,11.7-9.6,18.6-12.6c4.7-2.1,6.6-0.4,5.6,4.7c-1.1,5.8-3.3,11.3-6,16.5
			C627,343,624.9,345,621.2,345z" />
            <path fill-rule="evenodd" clip-rule="evenodd" fill="none" d="M648.5,397.4c0.6-2.6,2.6-3.4,4.4-4.2c6.8-3.1,14-4.2,21.5-2.9
			c0.9,0.2,1.8,0.4,2.6,0.7c1.4,0.6,2.7,1.4,2.6,3.2c-0.1,1.5-1.3,2.2-2.5,2.6c-1.5,0.5-3.1,1-4.7,1.4c-6,1.3-12,1.1-18.1,0.8
			C652.3,398.8,650.3,398.6,648.5,397.4z" />
            <path fill-rule="evenodd" clip-rule="evenodd" fill="none" d="M721,37.5c3.1,0.2,5.3,0.4,7.4,0.5c2.7,0.1,4.6,1,4.8,4
			c0.2,2.9-1.3,5.6-4,6.5c-2.7,0.9-5.4,0.6-8.1-0.1c-2.5-0.6-4.9-1.5-7.2-2.6c-1.7-0.8-3.1-2.1-2.7-4.3c0.5-2.3,2-3.9,4.5-4
			C717.9,37.5,719.9,37.5,721,37.5z" />
            <path fill-rule="evenodd" clip-rule="evenodd" fill="none" d="M912.4,248.2c-4.2-1-8.9-3.1-12.2-7.2c-2.3-2.8-1.2-5.3,2.2-6.1
			c4.3-1,11.7,1.9,14.2,5.5c1.4,2,1.6,4.1,0.5,6.2C916.2,248.1,914.8,248.3,912.4,248.2z" />
            <path fill-rule="evenodd" clip-rule="evenodd" fill="none" d="M742.5,839.3c2.7,4.1,7.5,3.5,10.5,6c-4.3,2.5-18.9,4-23.6,2.2
			C732.8,843.3,738.7,843.3,742.5,839.3z" />
            <path fill-rule="evenodd" clip-rule="evenodd" fill="none" d="M903.3,271c1.1-2.9,3.2-4.3,5.5-5.5c1-0.5,2.1-0.8,3.1,0
			c1.1,0.9,1.3,2.1,1,3.4C911.8,272.8,908.4,273.7,903.3,271z" />
            <path fill-rule="evenodd" clip-rule="evenodd" fill="none" d="M760.2,844.3c0.7,1,1.8,1.9,1.2,3.2c-1.7,0.8-2.7-0.6-4-0.8
			C757.9,845.1,760.1,846,760.2,844.3C760.3,844.3,760.2,844.3,760.2,844.3z" />
            <path fill-rule="evenodd" clip-rule="evenodd" fill="none" d="M245.7,1226c-0.4,1.1-0.8,2.2-1.5,4.2
			C243.8,1227.9,243.8,1226.6,245.7,1226z" />
            <path fill-rule="evenodd" clip-rule="evenodd" fill="none" d="M705.2,122c-1.9,0.5-2.4-0.7-4-0.9C703.1,120.3,704,121.2,705.2,122
			z" />
            <path fill-rule="evenodd" clip-rule="evenodd" fill="none" d="M1031.4,1010.5c-3.1,0.1-3.6-1.4-4.5-3.2
			C1029.1,1007.2,1029.9,1008.6,1031.4,1010.5z" />
            <path fill-rule="evenodd" clip-rule="evenodd" fill="none" d="M576.4,1254.5c6-0.8,10.2,3.1,10.8,10.2
			C582.1,1264.9,577.4,1260.5,576.4,1254.5z" />
            <path fill-rule="evenodd" clip-rule="evenodd" d="M931,592.5c0,4.2-1.4,7.9-3.3,11.5c-1.1,2.1-2.8,3.4-5.2,3.4
			c-7.1-0.2-16.8-8.3-18.4-15.3c-1.3-5.7,0.7-11.1,5.2-14c4.7-3,10.2-2.9,14.9,0.7C928.7,582.1,930.9,586.8,931,592.5z" />
            <path fill-rule="evenodd" clip-rule="evenodd" d="M906.6,456.3c-5.8,5.1-11.7,9.5-18.8,12.2c-3.8,1.4-9.3-2.3-10-6.4
			c-0.3-1.4,0.2-2.6,1.5-3.2c1.1-0.6,2.3-1,3.6-1.3c6.2-1.6,12.6-2.3,18.9-3C903.2,454.5,904.7,454.2,906.6,456.3z" />
            <path fill-rule="evenodd" clip-rule="evenodd"
                d="M620.1,57.2c4.3-2.9,8.6-2.5,14.2-0.1C628.8,59.1,624.5,58.8,620.1,57.2z" />
        </g>
    </g>
</svg>